<svg width="17" height="22" viewBox="0 0 17 22" fill="none" xmlns="http://www.w3.org/2000/svg">
<path d="M8.50005 21C12.6174 21 16 17.7371 16 13.5491C16 12.5209 15.9477 11.4188 15.3778 9.7058C14.8079 7.9929 14.6931 7.7718 14.0905 6.71395C13.8331 8.8727 12.4556 9.7724 12.1056 10.0413C12.1056 9.76155 11.2723 6.66795 10.0089 4.81695C8.76855 3 7.08174 1.80796 6.09268 1C6.09268 2.53489 5.66098 4.81695 5.04273 5.9797C4.42447 7.14245 4.30837 7.1848 3.53612 8.0501C2.76391 8.9154 2.40946 9.18265 1.76371 10.2325C1.11798 11.2825 1 12.6809 1 13.7091C1 17.8971 4.38267 21 8.50005 21Z" fill="#009CFF" fill-opacity="0.2" stroke="#009CFF" stroke-width="1.2" stroke-linejoin="round"/>
</svg>
