<?xml version="1.0" encoding="UTF-8"?><svg id="Layer_1" xmlns="http://www.w3.org/2000/svg" viewBox="0 0 620.8 158.85"><defs><style>.cls-1{fill:#fff;}.cls-2{fill:#ff6200;}.cls-3{fill:#1d1d1b;}</style></defs><g><path class="cls-3" d="M212.24,92.95c-.72,0-1.03-.31-1.03-.98V56.94c0-.67,.31-.98,1.03-.98h7.35c5.75,0,9.86,1.03,12.33,3.54,1.8,1.8,2.72,4.42,2.72,7.91,0,7.04-4.32,12.18-13.15,12.18-1.34,0-2.57,0-3.75-.15v12.54c0,.67-.31,.98-1.03,.98h-4.47Zm5.5-31.75v13.05c1.03,.1,2.26,.15,3.39,.15,4.78,0,6.94-2.67,6.94-6.94,0-2.31-.72-3.85-1.85-4.78-1.39-1.18-3.44-1.49-5.86-1.49h-2.62Z"/><path class="cls-3" d="M236.88,79.95c0-9.45,4.78-14.64,13.05-14.64,7.76,0,12.12,4.98,12.12,13.51,0,9.45-4.78,14.64-13.05,14.64-7.76,0-12.12-4.98-12.12-13.51Zm18.8-.77c0-4.88-1.59-8.53-5.91-8.53s-6.53,3.03-6.53,8.94c0,4.88,1.59,8.53,5.91,8.53s6.53-3.03,6.53-8.94Z"/><path class="cls-3" d="M289.18,76.36c1.03,3.8,2,7.96,2.52,10.43,1.95-6.17,3.7-13.67,4.78-20.19,.1-.57,.36-.77,1.08-.77h3.96c.62,0,.82,.31,.67,.98-1.54,8.48-4.11,17.62-7.04,25.12-.31,.77-.62,1.03-1.49,1.03h-4.26c-.87,0-1.29-.26-1.49-1.03l-2.57-9.4c-.87-3.24-1.64-6.78-2.11-9.61-.41,2.77-1.33,6.58-2.21,9.66l-2.62,9.35c-.21,.77-.62,1.03-1.49,1.03h-4.42c-.87,0-1.23-.26-1.49-1.03l-7.24-25.12c-.21-.67,.05-.98,.67-.98h4.26c.72,0,1.08,.05,1.28,.77l2.83,10.69c.77,2.88,1.8,7.3,2.21,9.56,.46-2.21,1.39-6.47,2.16-9.4l2.88-10.63c.21-.77,.46-.98,1.34-.98h3.96c.87,0,1.13,.21,1.34,.98l2.52,9.56Z"/><path class="cls-3" d="M304.21,79.8c0-8.73,5.14-14.49,12.64-14.49s11.61,5.86,11.61,13.82c0,2-.36,2.52-1.08,2.52h-16.75c.56,4.32,2.88,6.47,7.45,6.47,2.11,0,4.68-.67,6.78-1.59,.67-.31,1.08-.1,1.33,.51l1.03,2.52c.26,.72,.21,1.13-.46,1.49-2.52,1.44-5.91,2.41-9.56,2.41-8.84,0-13-5.81-13-13.67Zm6.47-2.77h11.56c-.1-3.39-2-6.42-5.39-6.42s-5.65,2.67-6.17,6.42Z"/><path class="cls-3" d="M334.15,92.95c-.62,0-.87-.26-.87-.82v-16.08c0-4.32-.26-8.63-.26-9.4,0-.56,.26-.82,.87-.82h3.96c.67,0,.87,.26,.98,.77,.21,1.28,.36,3.6,.41,5.03,1.75-3.7,4.26-6.27,7.55-6.27,1.08,0,1.49,.26,1.49,1.08v3.49c0,.67-.26,.92-.87,.98-2.62,.26-5.04,1.8-6.32,3.9s-1.64,4.26-1.64,9.76v7.55c0,.56-.26,.82-.87,.82h-4.42Z"/><path class="cls-3" d="M350.13,79.8c0-8.73,5.14-14.49,12.64-14.49s11.61,5.86,11.61,13.82c0,2-.36,2.52-1.08,2.52h-16.75c.57,4.32,2.88,6.47,7.45,6.47,2.11,0,4.67-.67,6.78-1.59,.67-.31,1.08-.1,1.34,.51l1.03,2.52c.26,.72,.21,1.13-.46,1.49-2.52,1.44-5.91,2.41-9.56,2.41-8.84,0-13-5.81-13-13.67Zm6.47-2.77h11.56c-.1-3.39-2-6.42-5.39-6.42s-5.65,2.67-6.17,6.42Z"/><path class="cls-3" d="M396.16,90.33c-1.59,1.9-4.62,3.13-7.24,3.13-7.09,0-10.99-5.6-10.99-13.56,0-9.25,5.29-14.59,11.61-14.59,2.41,0,4.73,.87,6.17,2.26v-13.15c0-.56,.26-.82,.87-.82h4.42c.62,0,.87,.26,.87,.82v31.8c0,1.28,.36,1.8,1.59,1.95,.56,.05,.77,.26,.77,.87v2.52c0,.62-.21,.98-.87,1.18-.57,.21-1.54,.36-2.62,.36-1.9,0-3.75-.82-4.57-2.77Zm-.46-17.26c-1.34-1.59-3.24-2.41-5.14-2.41-3.85,0-6.27,3.19-6.27,8.99,0,4.68,1.7,8.53,5.96,8.53,1.54,0,3.13-.51,4.06-1.44,1.03-1.03,1.39-2.57,1.39-5.5v-8.17Z"/><path class="cls-3" d="M427.86,67.93c1.64-1.54,4.21-2.62,7.09-2.62,6.63,0,10.53,5.39,10.53,13.56,0,9.56-4.67,14.59-13.77,14.59-3.6,0-7.35-.82-9.14-1.8-.72-.36-.87-.72-.87-1.54V54.42c0-.56,.26-.82,.87-.82h4.42c.62,0,.87,.26,.87,.82v13.51Zm11.25,11.05c0-5.24-1.8-8.27-5.86-8.27-1.64,0-3.44,.57-4.37,1.54-.82,.82-1.03,2.11-1.03,4.57v10.79c1.08,.41,2.52,.62,3.8,.62,5.29,0,7.45-3.54,7.45-9.25Z"/><path class="cls-3" d="M473.09,92.9c0,4.42-.98,7.71-2.93,9.76-2.05,2.16-5.24,3.24-9.56,3.24-2.42,0-5.04-.36-7.24-.98-.62-.15-.82-.51-.67-1.23l.62-2.98c.15-.72,.41-.92,1.18-.77,2.11,.41,3.96,.67,5.6,.67,2.83,0,4.62-.72,5.45-1.75,.92-1.08,1.39-2.83,1.39-5.5v-2.77c-1.7,1.7-4.21,2.88-7.45,2.88-2.98,0-5.5-1.13-6.99-2.83-1.8-1.9-2.42-4.68-2.42-8.37v-15.62c0-.56,.26-.82,.87-.82h4.42c.62,0,.87,.26,.87,.82v13.56c0,3.75,.21,5.24,1.08,6.27,.82,.98,2.21,1.39,3.8,1.39,1.49,0,3.24-.41,4.21-1.13,.98-.67,1.28-1.54,1.44-2.77,.15-1.34,.15-2.98,.15-5.75v-11.56c0-.56,.26-.82,.92-.82h4.37c.62,0,.87,.26,.87,.82v26.25Z"/><path class="cls-3" d="M494,92.95c-.72,0-1.03-.31-1.03-.98V56.94c0-.67,.31-.98,1.03-.98h4.47c.72,0,1.03,.31,1.03,.98v35.04c0,.67-.31,.98-1.03,.98h-4.47Z"/><path class="cls-3" d="M518.01,76.25c-3.13-4.93-4.73-7.55-5.91-9.97,.21,2.88,.26,8.02,.26,11.61v14.08c0,.67-.31,.98-1.03,.98h-4.01c-.72,0-1.03-.31-1.03-.98V56.94c0-.67,.31-.98,1.03-.98h3.55c1.03,0,1.39,.26,1.85,.92l9.97,15.77c3.08,4.88,4.52,7.09,5.91,9.97-.15-2.93-.21-7.91-.21-11.56v-14.13c0-.67,.31-.98,1.03-.98h4.01c.72,0,1.03,.31,1.03,.98v35.04c0,.67-.31,.98-1.03,.98h-3.54c-1.03,0-1.39-.26-1.8-.92l-10.07-15.77Z"/><path class="cls-3" d="M561.6,77.79h-6.94c-.72,0-1.03-.31-1.03-.98v-3.34c0-.62,.31-.92,1.03-.92h12.38c.72,0,1.03,.31,1.03,.92v15.98c0,1.08-.26,1.39-1.28,1.9-2.67,1.23-6.99,2.11-10.58,2.11-5.45,0-9.14-1.44-11.76-4.06-3.24-3.24-4.83-8.32-4.83-14.8,0-11.61,6.06-19.16,16.59-19.16,4.32,0,7.86,1.08,10.58,3.13,.56,.41,.72,.92,.36,1.54l-1.44,2.67c-.36,.67-.92,.87-1.49,.51-2.31-1.49-4.67-2.36-7.6-2.36-6.88,0-10.28,4.93-10.28,13.51s3.03,13.56,10.17,13.56c1.85,0,3.7-.31,5.09-.82v-9.4Z"/></g><g><path class="cls-2" d="M126.71,158.85H31.68c-17.49,0-31.68-14.18-31.68-31.68V32.15C0,14.65,14.18,.47,31.68,.47H126.71c17.49,0,31.68,14.18,31.68,31.68V127.18c0,17.49-14.18,31.68-31.68,31.68Z"/><path class="cls-1" d="M59.19,157.45c-.58,.58-1.16,1.03-1.74,1.41h-2.52c-1.18-3.36-2.39-6.26-4.12-9.15,0,0,9.68-3.88,12.25-3.88,.65,1.31,1.29,3.23,2.59,4.51-1.29,1.29-5.15,5.18-6.46,7.11Zm5.17-81.98c0-3.88,1.29-3.88,.64-5.15-.64-1.31-5.81,0-7.09,0-3.22,.62-9.04,2.57-9.04,3.85-.64,1.94-.64,6.47-.64,7.11,.64,1.94,.64,3.87,1.3,5.81,1.91-1.94,2.57-2.6,3.87-3.23,.64-.64,7.74-5.81,8.38-6.44,1.29-1.29,1.95-.66,2.59-1.94Zm-18.72,35.51v3.22c0,1.28,.64,8.39,.64,10.33,.66,1.94,.66,3.86,1.31,5.81,.64,1.29,1.28,2.58,1.28,3.88,0,0,1.29-.66,1.95-1.94,1.93-1.94,2.58-3.89,3.87-6.47-.66-4.5-1.94-8.39-1.94-9.67,0-5.16,.65-6.47,1.29-9.68-2.6,1.27-5.8,3.22-8.39,4.52ZM82.44,21.24c.64,1.3,8.38,5.81,11.63,7.75,2.58,1.94,5.16,2.59,7.74,3.88,1.28-1.93,2.58-3.88,3.86-8.4,1.95,1.29,4.52,1.29,6.46,1.94,0,2.58,0,5.17,.64,7.75,0,1.29,1.28,.65,3.87-.64,3.88-1.31,7.74-1.94,9.68-2.58,4.52-2.58,7.11-7.75,10.97-7.75,3.24,0,9.05,1.93,10.34,3.22,1.94,.64,3.24,1.28,5.15,1.28s3.39-1.33,4.82-2.56c-.22-.99-.49-1.96-.81-2.91-5.15-3.32-10.72-6.5-16.27-8.73-3.87,3.23-6.46,5.81-8.4,5.81s-.64-3.86-.64-6.44c-1.94,0-3.2,0-5.15-.65-1.28,4.51-1.95,10.33-5.17,11.62-1.29,.64-1.94,.64-2.58,.64v-5.16c0-.64,2.58-5.16,1.95-5.81,0,0-5.81,1.29-7.11,1.94-.64,.64-4.51,2.58-5.16,2.58,0,0-1.93-.66-2.59-.66-1.93-1.28-3.22-1.28-5.16-2.58-2.58,7.75-3.22,9.68-3.22,8.4,0,0-9.03-5.82-12.27-9.69-8.38,1.29-8.38,2.59-15.49,5.16-2.59,2.58-6.46,5.81-9.02,9.7-1.31,2.58-2.59,3.85-3.88,6.44l6.45,2.58c.65-.64,3.87-5.17,4.52-6.44,4.52-2.58,12.27-7.1,14.84-9.7Zm-6.44,111.67c-.66-1.28-2.6-1.94-3.88-2.58-1.3,0-2.59,2.58-2.59,5.16,0,1.29,.65,5.79,1.29,7.74,0,.64,1.3,1.29,2.58,1.93,1.94,1.29,3.87,1.96,5.81,3.24,0,0-1.94-5.82-2.58-9.03-.64-1.94,.64-4.53-.64-6.47Zm-24.56,13.55s1.96-1.29,1.96-2.59c3.22-3.86,7.11-7.08,7.74-7.74-1.28-3.23-1.94-3.86-3.87-5.8-.64,.63-3.87,2.58-4.52,3.88-1.31,.64-2.58,1.29-3.22,1.92,0,1.3,.64,1.94,1.29,3.24,0,1.28,.62,4.5,.62,7.09Zm12.28-61.32c-6.46,1.94-10.97,3.23-12.28,4.51-3.21,1.95-4.5,3.24-7.73,5.16q0,3.88,.64,5.83l.66,7.75c1.27-1.94,5.16-5.81,7.1-8.4,1.29-1.29,3.86-4.51,10.33-7.75,.64-2.58,1.29-4.51,1.29-7.1Zm-9.03-43.88c-1.29,1.92-1.29,3.87-1.29,5.8,0,3.22,.64,5.8,1.29,9.68-2.59,1.93-3.87,3.23-6.46,4.5,.64,3.9,1.3,11,1.3,11q1.29-1.93,2.57-3.24c2.59-1.93,3.86-3.23,7.09-5.8,.66-1.29,1.31-.65,3.24-1.96,.64-.64,1.29-1.27,1.29-1.91,0-1.31-.65-2.59-1.29-3.88-.66-1.29-1.93-4.53-1.93-5.17,0-5.15,.63-6.44,1.27-10.96-2.58-.65-5.81-.65-7.08,1.94Zm65.18,104.56c-2.57,.64-7.74,1.31-7.74,3.23-.64,1.93,0,3.87,0,5.15,.64,1.31,.64,2.59,.64,4.53,0,.04,0,.08,0,.12h4.89c1.15-1.65,2.27-2.88,2.87-4.65,.63-1.92,0-5.15-.66-8.38Zm-24.53-24.51c.66,2.58,1.31,4.5,2.59,7.07,.65,0,1.3,1.31,1.93,1.31,1.3-1.31,2.59-3.23,4.53-3.88v2.58c0,1.95,0,3.25,.65,5.17,0,1.95,1.94,1.95,4.5,1.95s3.24-4.53,3.24-5.16c0,0,.64,2.58,4.53,4.51,0,0,4.51,0,4.51-.64,.65-3.25,1.29-3.88,.65-6.47,0,0,3.87,2.59,5.82,5.16,1.26-1.28,2.57-3.86,2.57-4.53,1.27-2.58,1.27-5.8,1.27-8.38-5.16-3.22-11.6-3.86-18.07-3.86-5.8,0-12.25,.64-18.71,5.17Zm10.99,29.03c-.66-1.28-1.94-1.92-3.24-1.92s-4.51-1.95-4.51-.65c-3.24,0-.65,3.23-.65,5.16,0,1.39,1.87,3.9,3.6,5.93h5.98c-.24-.99-.54-1.94-.54-2.7-.65-1.95,0-3.86-.65-5.82Zm34.21-49.69c4.97,0,10.73,1.15,17.85,4.05v4.33c-7.09-2.85-13.59-3.47-17.2-4.51v5.16c2.59,.64,3.87,1.95,6.45,2.58,.96,.48,6.62,3.48,10.75,5.78v4.5c-7.84-4.8-13.27-6.66-19.8-9.64-1.29,1.29-1.92,3.24-3.86,4.52-.65,.64-5.17-3.23-7.75-4.52-1.92-1.28-5.81-1.92-8.39-2.58-.63,0-.63-1.28-.63-1.92-.64-1.94-1.3-3.88-.64-4.53,3.22-1.29,4.51-3.88,4.51-5.8s1.92,.64,3.87,0c1.28-1.3,1.94-2.58,1.28-3.88,0-1.28-.64-2.57-1.92-2.57-6.47-2.6-13.56-2.6-20.01,0-1.95,.63-1.95,3.21-1.3,5.15,.66,2.58,3.24,1.3,5.17,0,.63,0-.65,1.94,.63,3.88,1.3,2.58,3.88,3.22,3.88,3.86q0,1.95-.64,3.22c0,1.31,0,2.59-1.29,3.25-3.87,.64-7.1,1.92-10.98,3.22-1.93,.64-3.86,2.59-5.81,2.59-1.29,0-2.58-2.59-3.22-3.23-1.3,0-1.3-.65-3.88,0-6.44,2.59-15.48,7.1-21.94,10.98-1.29-1.31-.65-3.22-1.29-4.53,7.1-4.53,14.85-8.38,22.6-11.61,.63-.66,0-2.58-.66-3.88,0,0-4.52-.64-12.91,1.95-5.14,1.27-10.97,4.52-11.62,4.52,0,0-.64-1.94-.64-4.52,3.87-1.95,8.39-3.88,12.26-5.17,4.53-1.29,9.04-1.29,13.57-1.94-.66,0-.66-1.28-.66-1.95-1.93-3.86-5.15-7.08-8.38-10.31-1.29-2.6-2.59-5.81-2.59-7.09,1.3-1.31,2.59,.64,4.52,.64-.65-1.95-1.28-4.52-1.28-7.11q-.65-2.58-.65-5.81c0-3.87,1.28-5.8,.65-6.47-.65-.64-3.24-1.91-3.89-1.91-1.29-.66-1.93-.66-2.58-1.94-1.94-3.23-3.86-5.81-3.86-9.04s1.27-5.81,2.56-9.03c.65-2.58,3.87-3.88,5.81-5.17,1.95-1.29,3.86-.64,5.8-.64,4.53,0,8.38,2.58,11.63,4.51,2.58,1.94,3.86,4.52,4.51,7.11h5.81c3.22,.64,6.44,1.29,10.33,3.23,4.51-3.87,12.25-4.52,16.14-4.52,0-7.1,5.16-10.97,9.01-10.97,3.25-.66,5.19-1.29,9.7,.65,3.22,1.93,7.74,8.38,7.74,9.03,1.31,2.59,.65,5.81,.65,9.69-.65,2.58-.65,4.51-.65,5.16-.62,2.58-3.86,4.51-5.8,5.16,0,4.52-1.3,7.1-1.94,10.97,0,1.94-.64,3.88-1.29,5.81,1.93-.64,2.59-1.92,4.51-1.92-1.28,8.38-3.22,7.08-5.15,10.97-.66,2.58-1.94,5.16-3.86,7.75-.65,.64-1.31,1.27-3.24,2.58-1.29,.64,0,1.29,0,1.94Zm-53.56-49.05c1.28-1.31,5.15-3.88,5.15-3.88,.64,0,.64-.64,.64-1.28-1.27-4.53-2.58-4.53-5.15-5.81-1.93-1.29-3.22-1.29-4.52-1.29-2.59,.64-7.09,1.94-8.39,5.81,0,.64-.65,3.23,1.3,5.79,1.27,2.59,3.86,4.53,5.16,5.82,1.92,0,2.57-3.23,5.81-5.16Zm13.54,52.27c-1.28-.64-2.58-.64-3.86-.64-1.95,0-4.53,.64-4.53,.64,0,0,.64,2.59,1.29,3.86,1.93-.64,2.59-1.27,3.87-1.92,0,0,2.58-1.3,3.22-1.95Zm5.16-34.85c0-1.29-1.28-2.6-3.22-3.23h-8.38c-3.25,0-5.82,0-9.05,.64,1.3,2.6,4.53,5.18,5.81,6.47,1.29,1.28,2.59,2.58,5.17,2.58,2.58-.64,2.58,0,3.86-.64,0,1.29,.65,3.22,0,4.51,0,.66,.65,5.81-1.93,6.46-1.93,.64-4.52,1.95-5.81,3.87-1.29,1.95-1.94,5.16,0,6.47,1.29,.64,2.58-1.31,4.53-1.95,1.93-.64,1.93-1.94,2.58-3.86,1.28-1.3,3.86-1.94,4.5-3.23v-1.94c.66-5.81,.66-7.1,1.3-10.98,0-.64,.63-4.51,.63-5.16Zm3.87-15.49c0-1.28-2.56-.65-3.87,0-1.28,0-3.22,1.29-5.16,2.58-1.93,1.94-3.22,2.59-3.22,4.52h3.22c3.23,0,3.88,1.3,5.16-.64,1.95-2.58,3.87-3.88,3.87-6.46Zm27.12-5.81c4.52,1.29,7.75,3.88,10.97,7.75,1.94,0,3.87-1.29,4.52-3.22,.64-3.23,1.29-8.4-.64-10.97-1.3-1.3-1.94-1.94-5.16-2.59-2.58-.65-5.16,0-7.11,1.94-1.28,1.93-3.22,4.52-2.58,7.1Zm-13.56,8.38c1.28,0,1.28,2.59,1.28,3.88,3.24,0,6.47,.64,7.74-.64,7.11-3.25-3.85-5.82-5.16-5.82-3.23-.65-9.66-2.59-7.1,0,0,1.29,1.94,1.29,3.23,2.58Zm13.56,47.77c-1.94-.64-3.87-1.94-7.75-1.29q-.62,.65-.62,2.58c3.2,0,5.15,1.94,7.73,2.58,0,0,.64-3.22,.64-3.86Zm3.87-11.62c2.58,0-3.24-2.58-5.81-4.51-.65,0-1.28-.65-1.28-.65-1.31-1.29-1.95-3.87-4.53-4.51,0,0-.62,0-.62-.66,0-1.91-.66-9.66-.66-9.66,1.28,2.58,3.86,2.58,5.16,2.58,2.59,0,4.51-.66,5.8-2.58,0-.66,.65-1.93,1.28-1.93,1.32-.66,2.59-1.31,3.25-2.6,.65,0,1.29-1.3,1.29-1.3-5.82-.64-18.07-.64-18.07-.64-1.95,.64-3.87,2.59-3.87,3.23,0,0,1.27,7.1,1.27,7.74,0,4.53,.65,4.53,.65,9.04,1.95,1.29,2.58,1.29,3.9,2.59,.62,1.28,1.26,2.58,1.93,3.86,2.57,1.3,5.8,2.58,7.74,4.52,.62,0,2.57-3.22,2.57-4.52Zm4.52,56.17c-1.29-1.28,1.29-5.82-1.94-5.82-1.3-.64-5.15-1.94-5.15-1.94-.66,1.94-.66,5.81,0,7.75,0,1.42,1.75,4.95,3.18,6.97,1.72-.88,3.34-1.91,4.86-3.08-.72-1.98-.95-3.5-.95-3.89Zm-52.94-3.88s-.64-3.24-1.29-4.52c-.65-1.3-1.28-2.58-3.22-3.88-.63,0-1.93-1.29-2.59-.64,0,0-.64,5.16-1.29,5.79,1.29,1.95,2.59,3.24,3.24,5.17,.63,1.95,1.28,4.52,2.58,6.46,.63-2.59,2.57-3.87,2.57-8.39Zm41.1,13.65c-.38-1.64-.8-3.46-1.09-4.63v-10.31c-2.58,.64-3.22,1.29-3.85,1.29-1.95,1.29-3.23,1.93-3.23,3.23,0,2.58,.64,5.16,.64,6.44,0,1.95,0,3.24,.64,3.89,.95,.31,1.58,.47,2.28,.7,1.57-.09,3.11-.3,4.61-.61Zm20.87-20.1q-1.3-.64-3.22-.64c-.66-.64-1.95-.64-2.59-.64,0,0,.65,3.22,1.93,6.45,.55,1.07,1.52,2.13,2.2,2.47,1.07-1.48,2.02-3.06,2.82-4.72-.67-1.25-1.13-2.36-1.13-2.91Z"/></g></svg>