<svg width="1546" height="355" viewBox="0 0 1546 355" fill="none" xmlns="http://www.w3.org/2000/svg">
<path d="M172.999 349.957V83.3994L103.559 122.599V334.277C112.519 338.757 122.599 342.117 132.679 344.357V207.718L63.2395 246.918V307.398C27.3998 276.038 5 228.998 5 177.479C5 82.2794 82.2794 5 177.479 5C272.678 5 349.957 82.2794 349.957 177.479C349.957 228.998 327.557 274.918 291.718 306.278V246.918L222.278 207.718V291.718H196.518V105.799L244.678 139.399V336.517C223.398 345.477 200.998 349.957 176.359 349.957C175.239 349.957 174.119 349.957 172.999 349.957Z" stroke="#009CFF" stroke-width="10" stroke-miterlimit="10"/>
<path d="M500.217 247.187H523.969V207.731C523.969 180.249 538.495 166.704 559.303 166.704H560.677V141.577C542.421 140.792 530.447 151.393 523.969 166.9V143.54H500.217V247.187Z" fill="#009CFF"/>
<path d="M628.614 249.543C660.611 249.543 684.168 225.005 684.168 195.56V195.168C684.168 165.526 660.808 141.381 629.007 141.381C597.206 141.381 573.65 165.919 573.65 195.56V195.953C573.65 225.398 597.01 249.543 628.614 249.543ZM629.007 228.735C610.555 228.735 597.403 213.62 597.403 195.56V195.168C597.403 177.108 609.573 162.189 628.614 162.189C647.263 162.189 660.415 177.304 660.415 195.56V195.953C660.415 213.816 648.245 228.735 629.007 228.735Z" fill="#009CFF"/>
<path d="M754.292 249.543C774.51 249.543 786.485 241.495 796.692 230.109L782.363 215.976C774.903 223.631 766.658 228.735 755.469 228.735C737.213 228.735 724.454 214.012 724.454 195.56V195.168C724.454 177.108 737.213 162.189 754.488 162.189C766.266 162.189 773.922 167.489 781.185 175.145L796.104 159.245C786.289 148.644 774.118 141.381 754.684 141.381C723.472 141.381 700.701 166.115 700.701 195.56V195.953C700.701 225.398 723.472 249.543 754.292 249.543Z" fill="#009CFF"/>
<path d="M816.576 247.187H840.328V217.546L855.051 202.234L885.674 247.187H913.548L870.951 185.745L912.174 143.54H883.318L840.328 189.475V103.888H816.576V247.187Z" fill="#009CFF"/>
<path d="M1060.71 230.739L1061.02 230.367L1060.66 230.045L1046.72 217.678L1046.37 217.369L1046.04 217.694C1037.87 225.675 1029.74 229.919 1018.32 229.919C1010.77 229.919 1004.06 227.597 998.94 223.217C993.934 218.94 990.402 212.674 989.066 204.614H1064.65H1065.11L1065.14 204.156C1065.16 203.973 1065.17 203.79 1065.19 203.609C1065.37 201.467 1065.54 199.454 1065.54 197.44C1065.54 182.434 1061.34 168.377 1052.96 158.061C1044.57 147.732 1032.01 141.191 1015.37 141.191C985.416 141.191 964.229 165.799 964.229 195.674V196.066C964.229 228.344 987.621 250.353 1017.93 250.353C1037.12 250.353 1050.81 242.624 1060.71 230.739ZM1148.9 171.171L1149.34 171.44L1149.59 170.987L1159.02 154.105L1159.24 153.7L1158.85 153.444C1147.79 146.131 1133.56 141.583 1120.5 141.583C1110.1 141.583 1100.75 144.604 1094 150.138C1087.23 155.679 1083.09 163.721 1083.09 173.688V174.08C1083.09 184.17 1087.45 190.839 1093.75 195.511C1100.01 200.158 1108.19 202.828 1115.84 204.987C1116.66 205.239 1117.48 205.486 1118.29 205.731C1123.47 207.301 1128.25 208.75 1131.9 210.597C1136.12 212.73 1138.64 215.3 1138.64 219.033V219.426C1138.64 222.698 1137.25 225.343 1134.64 227.188C1132 229.047 1128.09 230.115 1123.05 230.115C1112.58 230.115 1100.71 225.847 1089.39 217.454L1088.96 217.139L1088.67 217.581L1078.07 233.677L1077.82 234.061L1078.18 234.345C1091.22 244.623 1107.63 249.96 1122.46 249.96C1133.33 249.96 1143.07 247.243 1150.1 241.732C1157.15 236.208 1161.43 227.913 1161.43 216.874V216.481C1161.43 206.971 1157.07 200.454 1150.81 195.74C1144.57 191.046 1136.45 188.13 1128.89 185.774C1128.22 185.559 1127.56 185.346 1126.9 185.135C1121.54 183.416 1116.53 181.811 1112.73 179.844C1108.44 177.63 1105.88 175.058 1105.88 171.529V171.136C1105.88 168.358 1107.12 165.953 1109.48 164.227C1111.85 162.492 1115.37 161.428 1119.91 161.428C1128.42 161.428 1138.93 165.111 1148.9 171.171ZM1239.7 244.399L1239.95 244.255V243.964V224.53V223.721L1239.23 224.083C1234.58 226.405 1229.95 227.563 1224.73 227.563C1220.77 227.563 1217.73 226.646 1215.67 224.683C1213.62 222.725 1212.47 219.641 1212.47 215.107V164.765H1239.84H1240.34V164.265V143.85V143.35H1239.84H1212.47V115.386V114.886H1211.97H1188.22H1187.72V115.386V143.35H1175.06H1174.56V143.85V164.265V164.765H1175.06H1187.72V218.837C1187.72 230.311 1190.83 238.075 1196.25 242.961C1201.65 247.838 1209.26 249.764 1218.05 249.764C1227.17 249.764 1233.73 247.779 1239.7 244.399ZM1325.35 187.533C1317.46 185.079 1309.3 183.395 1297.97 183.395C1285.25 183.395 1274.43 186.156 1266.78 191.787C1259.11 197.433 1254.68 205.93 1254.68 217.267V217.659C1254.68 228.217 1259.07 236.359 1265.93 241.851C1272.79 247.334 1282.08 250.156 1291.89 250.156C1307.3 250.156 1317.99 243.939 1325.15 235.886V247.497V247.997H1325.65H1348.82H1349.32V247.497V186.055C1349.32 172.432 1345.76 161.29 1337.98 153.704C1330.59 146.118 1318.86 141.976 1303.27 141.976C1286.7 141.976 1275.44 145.334 1264.01 150.461L1263.59 150.646L1263.74 151.077L1270.02 169.725L1270.19 170.233L1270.68 170.027C1280.07 166.117 1288.64 163.588 1300.13 163.588C1308.41 163.588 1314.7 165.535 1318.92 169.23C1323.13 172.916 1325.35 178.406 1325.35 185.662V187.533ZM1430.73 244.399L1430.98 244.255V243.964V224.53V223.721L1430.26 224.083C1425.61 226.405 1420.98 227.563 1415.76 227.563C1411.8 227.563 1408.76 226.646 1406.71 224.683C1404.66 222.725 1403.5 219.641 1403.5 215.107V164.765H1430.88H1431.38V164.265V143.85V143.35H1430.88H1403.5V115.386V114.886H1403H1379.25H1378.75V115.386V143.35H1366.1H1365.6V143.85V164.265V164.765H1366.1H1378.75V218.837C1378.75 230.311 1381.87 238.075 1387.28 242.961C1392.69 247.838 1400.29 249.764 1409.09 249.764C1418.2 249.764 1424.76 247.779 1430.73 244.399ZM1540.5 230.739L1540.81 230.367L1540.45 230.045L1526.51 217.678L1526.16 217.369L1525.83 217.694C1517.65 225.675 1509.53 229.919 1498.11 229.919C1490.55 229.919 1483.85 227.597 1478.73 223.217C1473.72 218.94 1470.19 212.674 1468.85 204.614H1544.43H1544.89L1544.93 204.156L1544.98 203.608C1545.16 201.467 1545.33 199.454 1545.33 197.44C1545.33 182.434 1541.13 168.377 1532.75 158.061C1524.36 147.732 1511.8 141.191 1495.16 141.191C1465.2 141.191 1444.02 165.799 1444.02 195.674V196.066C1444.02 228.344 1467.41 250.353 1497.71 250.353C1516.91 250.353 1530.59 242.624 1540.5 230.739ZM1040.92 187.91H988.86C991.157 172.292 1001.14 161.625 1015.18 161.625C1022.89 161.625 1028.94 164.559 1033.26 169.36C1037.48 174.054 1040.08 180.559 1040.92 187.91ZM1298.56 231.882C1292.95 231.882 1288 230.477 1284.48 227.881C1280.97 225.297 1278.84 221.517 1278.84 216.678V216.285C1278.84 211.046 1281.03 206.88 1285.06 204.007C1289.12 201.119 1295.09 199.511 1302.68 199.511C1311.88 199.511 1319.75 201.205 1325.74 203.477V210.2C1325.74 222.971 1314.11 231.882 1298.56 231.882ZM1520.71 187.91H1468.65C1470.94 172.292 1480.93 161.625 1494.96 161.625C1502.68 161.625 1508.72 164.559 1513.05 169.36C1517.27 174.054 1519.87 180.559 1520.71 187.91Z" fill="#001837" stroke="black"/>
<circle cx="940.141" cy="233.782" r="13.4059" fill="#009CFF"/>
</svg>
