<svg width="99" height="35" viewBox="0 0 99 35" fill="none" xmlns="http://www.w3.org/2000/svg">
<path d="M0.0480957 0H89.0514L98.5199 17.0432L89.0514 34.0864H0.0480957L9.51653 17.0432L0.0480957 0Z" fill="#D6E2E9"/>
<path d="M44.7589 23V11.8H50.2309C51.6389 11.8 52.6949 12.0667 53.3989 12.6C54.1136 13.1333 54.4709 13.8373 54.4709 14.712C54.4709 15.2987 54.3269 15.8107 54.0389 16.248C53.7509 16.6747 53.3562 17.0053 52.8549 17.24C52.3536 17.4747 51.7776 17.592 51.1269 17.592L51.4309 16.936C52.1349 16.936 52.7589 17.0533 53.3029 17.288C53.8469 17.512 54.2682 17.848 54.5669 18.296C54.8762 18.744 55.0309 19.2933 55.0309 19.944C55.0309 20.904 54.6522 21.656 53.8949 22.2C53.1376 22.7333 52.0229 23 50.5509 23H44.7589ZM47.3349 21.048H50.3589C51.0309 21.048 51.5376 20.9413 51.8789 20.728C52.2309 20.504 52.4069 20.152 52.4069 19.672C52.4069 19.2027 52.2309 18.856 51.8789 18.632C51.5376 18.3973 51.0309 18.28 50.3589 18.28H47.1429V16.392H49.9109C50.5402 16.392 51.0202 16.2853 51.3509 16.072C51.6922 15.848 51.8629 15.512 51.8629 15.064C51.8629 14.6267 51.6922 14.3013 51.3509 14.088C51.0202 13.864 50.5402 13.752 49.9109 13.752H47.3349V21.048Z" fill="#8B9BAB"/>
</svg>
