<svg width="99" height="35" viewBox="0 0 99 35" fill="none" xmlns="http://www.w3.org/2000/svg">
<path d="M0.0480957 0H89.0514L98.5199 17.0432L89.0514 34.0864H0.0480957L9.51653 17.0432L0.0480957 0Z" fill="#D6E2E9"/>
<path d="M49.8689 23.192C49.0049 23.192 48.1996 23.0533 47.4529 22.776C46.7169 22.488 46.0769 22.0827 45.5329 21.56C44.9889 21.0373 44.5622 20.424 44.2529 19.72C43.9542 19.016 43.8049 18.2427 43.8049 17.4C43.8049 16.5573 43.9542 15.784 44.2529 15.08C44.5622 14.376 44.9889 13.7627 45.5329 13.24C46.0876 12.7173 46.7329 12.3173 47.4689 12.04C48.2049 11.752 49.0102 11.608 49.8849 11.608C50.8556 11.608 51.7302 11.7787 52.5089 12.12C53.2982 12.4507 53.9596 12.9413 54.4929 13.592L52.8289 15.128C52.4449 14.6907 52.0182 14.3653 51.5489 14.152C51.0796 13.928 50.5676 13.816 50.0129 13.816C49.4902 13.816 49.0102 13.9013 48.5729 14.072C48.1356 14.2427 47.7569 14.488 47.4369 14.808C47.1169 15.128 46.8662 15.5067 46.6849 15.944C46.5142 16.3813 46.4289 16.8667 46.4289 17.4C46.4289 17.9333 46.5142 18.4187 46.6849 18.856C46.8662 19.2933 47.1169 19.672 47.4369 19.992C47.7569 20.312 48.1356 20.5573 48.5729 20.728C49.0102 20.8987 49.4902 20.984 50.0129 20.984C50.5676 20.984 51.0796 20.8773 51.5489 20.664C52.0182 20.44 52.4449 20.104 52.8289 19.656L54.4929 21.192C53.9596 21.8427 53.2982 22.3387 52.5089 22.68C51.7302 23.0213 50.8502 23.192 49.8689 23.192Z" fill="#8B9BAB"/>
</svg>
