<svg width="99" height="35" viewBox="0 0 99 35" fill="none" xmlns="http://www.w3.org/2000/svg">
<path d="M0.0480957 0H89.0514L98.5199 17.0432L89.0514 34.0864H0.0480957L9.51653 17.0432L0.0480957 0Z" fill="#D6E2E9"/>
<path d="M44.7667 23V11.8H49.8547C51.0707 11.8 52.1427 12.0347 53.0707 12.504C53.9987 12.9627 54.7241 13.608 55.2467 14.44C55.7694 15.272 56.0307 16.2587 56.0307 17.4C56.0307 18.5307 55.7694 19.5173 55.2467 20.36C54.7241 21.192 53.9987 21.8427 53.0707 22.312C52.1427 22.7707 51.0707 23 49.8547 23H44.7667ZM47.3587 20.872H49.7267C50.4734 20.872 51.1187 20.7333 51.6627 20.456C52.2174 20.168 52.6441 19.7627 52.9427 19.24C53.2521 18.7173 53.4067 18.104 53.4067 17.4C53.4067 16.6853 53.2521 16.072 52.9427 15.56C52.6441 15.0373 52.2174 14.6373 51.6627 14.36C51.1187 14.072 50.4734 13.928 49.7267 13.928H47.3587V20.872Z" fill="#8B9BAB"/>
</svg>
