<svg width="477" height="35" viewBox="0 0 477 35" fill="none" xmlns="http://www.w3.org/2000/svg">
<path d="M0 0.000108719L467.473 7.62939e-06L476.942 17.0432L467.473 34.0864L0 34.0865L9.46844 17.0433L0 0.000108719Z" fill="#D6E2E9"/>
<path d="M238.736 23.192C237.851 23.192 237.035 23.0533 236.288 22.776C235.552 22.488 234.907 22.0827 234.352 21.56C233.808 21.0373 233.381 20.424 233.072 19.72C232.773 19.016 232.624 18.2427 232.624 17.4C232.624 16.5573 232.773 15.784 233.072 15.08C233.381 14.376 233.813 13.7627 234.368 13.24C234.923 12.7173 235.573 12.3173 236.32 12.04C237.067 11.752 237.888 11.608 238.784 11.608C239.776 11.608 240.667 11.7733 241.456 12.104C242.256 12.4347 242.928 12.9147 243.472 13.544L241.808 15.08C241.403 14.6533 240.96 14.3387 240.48 14.136C240 13.9227 239.477 13.816 238.912 13.816C238.368 13.816 237.872 13.9013 237.424 14.072C236.976 14.2427 236.587 14.488 236.256 14.808C235.936 15.128 235.685 15.5067 235.504 15.944C235.333 16.3813 235.248 16.8667 235.248 17.4C235.248 17.9227 235.333 18.4027 235.504 18.84C235.685 19.2773 235.936 19.6613 236.256 19.992C236.587 20.312 236.971 20.5573 237.408 20.728C237.856 20.8987 238.347 20.984 238.88 20.984C239.392 20.984 239.888 20.904 240.368 20.744C240.859 20.5733 241.333 20.2907 241.792 19.896L243.264 21.768C242.656 22.2267 241.947 22.5787 241.136 22.824C240.336 23.0693 239.536 23.192 238.736 23.192ZM240.896 21.432V17.224H243.264V21.768L240.896 21.432Z" fill="#8B9BAB"/>
</svg>
