<?xml version="1.0" encoding="utf-8"?>
<!-- Generator: Adobe Illustrator 26.5.0, SVG Export Plug-In . SVG Version: 6.00 Build 0)  -->
<svg version="1.1" id="Layer_1" xmlns="http://www.w3.org/2000/svg" xmlns:xlink="http://www.w3.org/1999/xlink" x="0px" y="0px"
	 viewBox="0 0 285.2 34.1" style="enable-background:new 0 0 285.2 34.1;" xml:space="preserve">
<style type="text/css">
	.st0{fill:#D8DB1A;}
	.st1{fill:#001837;}
</style>
<path class="st0" d="M0,0h275.8l9.5,17l-9.5,17H0l9.5-17L0,0z"/>
<path class="st1" d="M137.5,23V11.8h5.5c1.4,0,2.5,0.3,3.2,0.8c0.7,0.5,1.1,1.2,1.1,2.1c0,0.6-0.1,1.1-0.4,1.5
	c-0.3,0.4-0.7,0.8-1.2,1c-0.5,0.2-1.1,0.4-1.7,0.4l0.3-0.7c0.7,0,1.3,0.1,1.9,0.4c0.5,0.2,1,0.6,1.3,1c0.3,0.4,0.5,1,0.5,1.6
	c0,1-0.4,1.7-1.1,2.3c-0.8,0.5-1.9,0.8-3.3,0.8H137.5z M140.1,21h3c0.7,0,1.2-0.1,1.5-0.3c0.4-0.2,0.5-0.6,0.5-1.1
	c0-0.5-0.2-0.8-0.5-1c-0.3-0.2-0.8-0.4-1.5-0.4h-3.2v-1.9h2.8c0.6,0,1.1-0.1,1.4-0.3c0.3-0.2,0.5-0.6,0.5-1c0-0.4-0.2-0.8-0.5-1
	c-0.3-0.2-0.8-0.3-1.4-0.3h-2.6V21z"/>
</svg>
