<?xml version="1.0" encoding="utf-8"?>
<!-- Generator: Adobe Illustrator 26.5.0, SVG Export Plug-In . SVG Version: 6.00 Build 0)  -->
<svg version="1.1" id="Layer_1" xmlns="http://www.w3.org/2000/svg" xmlns:xlink="http://www.w3.org/1999/xlink" x="0px" y="0px"
	 viewBox="0 0 280.5 34.1" style="enable-background:new 0 0 280.5 34.1;" xml:space="preserve">
<style type="text/css">
	.st0{fill:#FDF300;}
	.st1{fill:#001837;}
</style>
<path class="st0" d="M0,0h271l9.5,17l-9.5,17H0l9.5-17L0,0z"/>
<path class="st1" d="M141,23.2c-0.9,0-1.7-0.1-2.4-0.4c-0.7-0.3-1.4-0.7-1.9-1.2c-0.5-0.5-1-1.1-1.3-1.8c-0.3-0.7-0.4-1.5-0.4-2.3
	c0-0.8,0.1-1.6,0.4-2.3c0.3-0.7,0.7-1.3,1.3-1.8c0.6-0.5,1.2-0.9,1.9-1.2c0.7-0.3,1.5-0.4,2.4-0.4c1,0,1.8,0.2,2.6,0.5
	c0.8,0.3,1.5,0.8,2,1.5l-1.7,1.5c-0.4-0.4-0.8-0.8-1.3-1c-0.5-0.2-1-0.3-1.5-0.3c-0.5,0-1,0.1-1.4,0.3c-0.4,0.2-0.8,0.4-1.1,0.7
	c-0.3,0.3-0.6,0.7-0.8,1.1c-0.2,0.4-0.3,0.9-0.3,1.5s0.1,1,0.3,1.5c0.2,0.4,0.4,0.8,0.8,1.1c0.3,0.3,0.7,0.6,1.1,0.7
	s0.9,0.3,1.4,0.3c0.6,0,1.1-0.1,1.5-0.3c0.5-0.2,0.9-0.6,1.3-1l1.7,1.5c-0.5,0.7-1.2,1.1-2,1.5C142.8,23,142,23.2,141,23.2z"/>
</svg>
