<?xml version="1.0" encoding="utf-8"?>
<!-- Generator: Adobe Illustrator 26.5.0, SVG Export Plug-In . SVG Version: 6.00 Build 0)  -->
<svg version="1.1" id="Layer_1" xmlns="http://www.w3.org/2000/svg" xmlns:xlink="http://www.w3.org/1999/xlink" x="0px" y="0px"
	 viewBox="0 0 280.5 34.1" style="enable-background:new 0 0 280.5 34.1;" xml:space="preserve">
<style type="text/css">
	.st0{fill:#FDD400;}
	.st1{fill:#001837;}
</style>
<path class="st0" d="M0,0h271l9.5,17l-9.5,17H0l9.5-17L0,0z"/>
<path class="st1" d="M134.6,23V11.8h5.1c1.2,0,2.3,0.2,3.2,0.7c0.9,0.5,1.7,1.1,2.2,1.9c0.5,0.8,0.8,1.8,0.8,3c0,1.1-0.3,2.1-0.8,3
	c-0.5,0.8-1.2,1.5-2.2,2c-0.9,0.5-2,0.7-3.2,0.7H134.6z M137.2,20.9h2.4c0.7,0,1.4-0.1,1.9-0.4c0.6-0.3,1-0.7,1.3-1.2
	c0.3-0.5,0.5-1.1,0.5-1.8c0-0.7-0.2-1.3-0.5-1.8c-0.3-0.5-0.7-0.9-1.3-1.2c-0.5-0.3-1.2-0.4-1.9-0.4h-2.4V20.9z"/>
</svg>
