<?xml version="1.0" encoding="utf-8"?>
<!-- Generator: Adobe Illustrator 27.0.0, SVG Export Plug-In . SVG Version: 6.00 Build 0)  -->
<svg version="1.1" id="Layer_1" xmlns="http://www.w3.org/2000/svg" xmlns:xlink="http://www.w3.org/1999/xlink" x="0px" y="0px"
	 viewBox="0 0 1024 303.2" style="enable-background:new 0 0 1024 303.2;" xml:space="preserve">
<style type="text/css">
	.st0{fill:#FDD400;}
	.st1{fill:#001837;}
	.st2{fill:#FA9101;}
	.st3{fill:#D62015;}
	.st4{fill:#FDF300;}
	.st5{fill:#D8DB1A;}
	.st6{fill:#9ADE27;}
	.st7{fill:#00BD00;}
	.st8{fill:#667487;}
</style>
<path class="st0" d="M555.9,244.4h87.9l9.5,17l-9.5,17h-87.9l9.5-17L555.9,244.4z"/>
<path class="st1" d="M602.7,260.3h5.4v2h-5.4V260.3z M602.8,264.9h6.1v2.1h-8.7v-11.2h8.5v2.1h-5.9L602.8,264.9L602.8,264.9z"/>
<path class="st2" d="M463.3,244.4h87.9l9.5,17l-9.5,17h-87.9l9.5-17L463.3,244.4z"/>
<path class="st3" d="M0.3,244.4h458.3l9.5,17l-9.5,17H0.3l9.5-17L0.3,244.4z"/>
<path class="st4" d="M648.6,244.4h87.9l9.5,17l-9.5,17h-87.9l9.5-17L648.6,244.4z"/>
<path class="st1" d="M691.6,267v-11.2h5.1c1.2,0,2.3,0.2,3.2,0.7s1.7,1.1,2.2,1.9s0.8,1.8,0.8,3s-0.3,2.1-0.8,3
	c-0.5,0.8-1.2,1.5-2.2,2c-0.9,0.5-2,0.7-3.2,0.7h-5.1V267z M694.2,264.9h2.4c0.8,0,1.4-0.1,1.9-0.4s1-0.7,1.3-1.2s0.5-1.1,0.5-1.8
	s-0.2-1.3-0.5-1.8s-0.7-0.9-1.3-1.2c-0.5-0.3-1.2-0.4-1.9-0.4h-2.4V264.9L694.2,264.9z"/>
<path class="st5" d="M741.2,244.4h88l9.5,17l-9.5,17h-88l9.5-17L741.2,244.4z"/>
<path class="st1" d="M790.7,267.2c-0.9,0-1.7-0.1-2.4-0.4s-1.4-0.7-1.9-1.2s-1-1.1-1.3-1.8c-0.3-0.7-0.5-1.5-0.5-2.3
	s0.2-1.6,0.5-2.3c0.3-0.7,0.7-1.3,1.3-1.8c0.5-0.5,1.2-0.9,1.9-1.2c0.7-0.3,1.5-0.4,2.4-0.4c1,0,1.8,0.2,2.6,0.5s1.5,0.8,2,1.5
	l-1.7,1.5c-0.4-0.4-0.8-0.8-1.3-1s-1-0.3-1.5-0.3s-1,0.1-1.4,0.3c-0.4,0.2-0.8,0.4-1.1,0.7c-0.3,0.3-0.6,0.7-0.8,1.1
	s-0.3,0.9-0.3,1.5s0.1,1,0.3,1.5s0.4,0.8,0.8,1.1s0.7,0.6,1.1,0.7c0.4,0.2,0.9,0.3,1.4,0.3s1.1-0.1,1.5-0.3c0.5-0.2,0.9-0.6,1.3-1
	l1.7,1.5c-0.5,0.6-1.2,1.1-2,1.5C792.5,267.1,791.7,267.2,790.7,267.2L790.7,267.2z"/>
<path class="st6" d="M833.9,244.4h88l9.5,17l-9.5,17h-88l9.5-17L833.9,244.4z"/>
<path class="st1" d="M877.5,267v-11.2h5.5c1.4,0,2.5,0.3,3.2,0.8s1.1,1.2,1.1,2.1c0,0.6-0.1,1.1-0.4,1.5c-0.3,0.4-0.7,0.8-1.2,1
	s-1.1,0.4-1.7,0.4l0.3-0.7c0.7,0,1.3,0.1,1.9,0.4c0.5,0.2,1,0.6,1.3,1c0.3,0.5,0.5,1,0.5,1.6c0,1-0.4,1.7-1.1,2.3
	c-0.8,0.5-1.9,0.8-3.3,0.8L877.5,267L877.5,267z M880.1,265.1h3c0.7,0,1.2-0.1,1.5-0.3c0.3-0.2,0.5-0.6,0.5-1.1s-0.2-0.8-0.5-1
	s-0.8-0.4-1.5-0.4h-3.2v-1.9h2.8c0.6,0,1.1-0.1,1.4-0.3c0.3-0.2,0.5-0.6,0.5-1s-0.2-0.8-0.5-1s-0.8-0.3-1.4-0.3h-2.6V265.1
	L880.1,265.1z"/>
<path class="st7" d="M926.5,244.4h88l9.5,17l-9.5,17h-88l9.5-17L926.5,244.4L926.5,244.4z"/>
<path class="st1" d="M969,267l5-11.2h2.6l5,11.2h-2.7l-4.1-9.9h1l-4.1,9.9H969L969,267z M971.5,264.6l0.7-2h5.8l0.7,2H971.5
	L971.5,264.6z"/>
<path class="st1" d="M234.8,267.2c-0.9,0-1.7-0.1-2.4-0.4s-1.4-0.7-1.9-1.2s-1-1.1-1.3-1.8c-0.3-0.7-0.4-1.5-0.4-2.3
	s0.1-1.6,0.4-2.3c0.3-0.7,0.7-1.3,1.3-1.8s1.2-0.9,1.9-1.2c0.8-0.3,1.6-0.4,2.5-0.4c1,0,1.9,0.2,2.7,0.5s1.5,0.8,2,1.4l-1.7,1.5
	c-0.4-0.4-0.9-0.7-1.3-0.9c-0.5-0.2-1-0.3-1.6-0.3s-1,0.1-1.5,0.3c-0.4,0.2-0.8,0.4-1.2,0.7c-0.3,0.3-0.6,0.7-0.8,1.1
	s-0.3,0.9-0.3,1.5s0.1,1,0.3,1.4s0.4,0.8,0.8,1.1c0.3,0.3,0.7,0.6,1.1,0.7c0.4,0.2,0.9,0.3,1.5,0.3s1-0.1,1.5-0.2
	c0.5-0.2,1-0.5,1.4-0.9l1.5,1.9c-0.6,0.5-1.3,0.8-2.1,1.1C236.4,267.1,235.6,267.2,234.8,267.2L234.8,267.2z M237,265.5v-4.2h2.4
	v4.5L237,265.5L237,265.5z"/>
<path class="st1" d="M510.1,260.9h5.4v2.1h-5.4V260.9z M510.3,267h-2.6v-11.2h8.5v2.1h-5.9L510.3,267L510.3,267z"/>
<g>
	<path d="M1016.9,292.9c-0.7,0-1.3-0.2-1.8-0.5s-1-0.8-1.3-1.5c-0.3-0.6-0.5-1.4-0.5-2.4c0-0.9,0.2-1.7,0.5-2.4
		c0.3-0.6,0.7-1.1,1.3-1.5s1.2-0.5,1.8-0.5c0.7,0,1.3,0.2,1.9,0.5s1,0.8,1.3,1.5c0.3,0.6,0.5,1.4,0.5,2.4c0,0.9-0.2,1.7-0.5,2.4
		c-0.3,0.6-0.7,1.1-1.3,1.5C1018.2,292.7,1017.6,292.9,1016.9,292.9z M1016.9,291.3c0.3,0,0.6-0.1,0.9-0.3c0.2-0.2,0.4-0.5,0.6-0.9
		c0.1-0.4,0.2-0.9,0.2-1.5s-0.1-1.1-0.2-1.5c-0.1-0.4-0.3-0.7-0.6-0.9c-0.2-0.2-0.5-0.3-0.9-0.3c-0.3,0-0.6,0.1-0.8,0.3
		c-0.2,0.2-0.4,0.5-0.6,0.9c-0.1,0.4-0.2,0.9-0.2,1.5s0.1,1.1,0.2,1.5c0.1,0.4,0.3,0.7,0.6,0.9
		C1016.3,291.2,1016.5,291.3,1016.9,291.3z"/>
</g>
<g>
	<path d="M916.9,291v-1.3l4-5.3h2l-3.9,5.3l-1-0.3h6.6v1.6L916.9,291L916.9,291z M921.4,292.8V291l0.1-1.6v-1.6h1.8v4.9h-1.9V292.8z
		"/>
	<path d="M928.1,292.9c-0.6,0-1.2-0.1-1.7-0.2s-1.1-0.4-1.5-0.7l0.8-1.5c0.3,0.2,0.7,0.4,1.1,0.6c0.4,0.1,0.8,0.2,1.3,0.2
		s0.9-0.1,1.2-0.3c0.3-0.2,0.4-0.5,0.4-0.8c0-0.2-0.1-0.4-0.2-0.6c-0.1-0.2-0.3-0.3-0.6-0.4s-0.7-0.1-1.2-0.1h-2.1l0.4-4.7h5.1v1.6
		h-4.4l1-0.9l-0.3,3.4l-1-0.9h1.8c0.8,0,1.5,0.1,2,0.3c0.5,0.2,0.9,0.5,1.1,0.9c0.2,0.4,0.4,0.8,0.4,1.3s-0.1,0.9-0.4,1.4
		c-0.2,0.4-0.6,0.8-1.1,1C929.6,292.8,928.9,292.9,928.1,292.9z"/>
</g>
<g>
	<path d="M827.6,284.2c0.8,0,1.4,0.2,2,0.5s1,0.8,1.3,1.4s0.5,1.4,0.5,2.3c0,1-0.2,1.8-0.5,2.5s-0.9,1.2-1.5,1.5
		c-0.6,0.4-1.4,0.5-2.2,0.5c-0.4,0-0.9,0-1.3-0.1s-0.8-0.2-1.1-0.4l0.7-1.4c0.2,0.2,0.5,0.3,0.8,0.3c0.3,0.1,0.5,0.1,0.8,0.1
		c0.7,0,1.3-0.2,1.7-0.7c0.4-0.4,0.6-1.1,0.6-1.9c0-0.1,0-0.3,0-0.5s0-0.4-0.1-0.5l0.5,0.5c-0.1,0.3-0.3,0.6-0.6,0.8
		c-0.2,0.2-0.5,0.4-0.9,0.5c-0.3,0.1-0.7,0.2-1.1,0.2c-0.5,0-1-0.1-1.5-0.3c-0.4-0.2-0.8-0.5-1-0.9c-0.3-0.4-0.4-0.9-0.4-1.4
		c0-0.6,0.1-1.1,0.4-1.5c0.3-0.4,0.7-0.7,1.2-1C826.5,284.3,827,284.2,827.6,284.2z M827.7,285.7c-0.3,0-0.5,0-0.7,0.1
		s-0.4,0.2-0.5,0.4c-0.1,0.2-0.2,0.4-0.2,0.7c0,0.4,0.1,0.7,0.4,0.9c0.3,0.2,0.6,0.3,1,0.3c0.3,0,0.5-0.1,0.8-0.2
		c0.2-0.1,0.4-0.3,0.5-0.5s0.2-0.4,0.2-0.7c0-0.2-0.1-0.4-0.2-0.6c-0.1-0.2-0.3-0.3-0.5-0.4C828.3,285.7,828,285.7,827.7,285.7z"/>
	<path d="M835.1,292.9c-0.6,0-1.2-0.1-1.7-0.2s-1.1-0.4-1.5-0.7l0.8-1.5c0.3,0.2,0.7,0.4,1.1,0.6c0.4,0.1,0.8,0.2,1.3,0.2
		s0.9-0.1,1.2-0.3c0.3-0.2,0.4-0.5,0.4-0.8c0-0.2-0.1-0.4-0.2-0.6c-0.1-0.2-0.3-0.3-0.6-0.4s-0.7-0.1-1.2-0.1h-2.1l0.4-4.7h5.1v1.6
		h-4.4l1-0.9l-0.3,3.4l-1-0.9h1.8c0.8,0,1.5,0.1,2,0.3c0.5,0.2,0.9,0.5,1.1,0.9c0.2,0.4,0.4,0.8,0.4,1.3s-0.1,0.9-0.4,1.4
		c-0.2,0.4-0.6,0.8-1.1,1C836.6,292.8,835.9,292.9,835.1,292.9z"/>
</g>
<g>
	<path d="M730.7,292.8v-7.7l0.8,0.8H729v-1.6h3.6v8.4h-1.9V292.8z"/>
	<path d="M736.9,292.9c-0.6,0-1.2-0.1-1.7-0.2s-1.1-0.4-1.5-0.7l0.8-1.5c0.3,0.2,0.7,0.4,1.1,0.6c0.4,0.1,0.8,0.2,1.3,0.2
		s0.9-0.1,1.2-0.3c0.3-0.2,0.4-0.5,0.4-0.8c0-0.2-0.1-0.4-0.2-0.6c-0.1-0.2-0.3-0.3-0.6-0.4s-0.7-0.1-1.2-0.1h-2.1l0.4-4.7h5.1v1.6
		h-4.4l1-0.9l-0.3,3.4l-1-0.9h1.8c0.8,0,1.5,0.1,2,0.3c0.5,0.2,0.9,0.5,1.1,0.9c0.2,0.4,0.4,0.8,0.4,1.3s-0.1,0.9-0.4,1.4
		c-0.2,0.4-0.6,0.8-1.1,1C738.4,292.8,737.7,292.9,736.9,292.9z"/>
	<path d="M744.8,292.9c-0.7,0-1.3-0.2-1.8-0.5s-1-0.8-1.3-1.5c-0.3-0.6-0.5-1.4-0.5-2.4c0-0.9,0.2-1.7,0.5-2.4
		c0.3-0.6,0.7-1.1,1.3-1.5s1.2-0.5,1.8-0.5c0.7,0,1.3,0.2,1.9,0.5s1,0.8,1.3,1.5c0.3,0.6,0.5,1.4,0.5,2.4c0,0.9-0.2,1.7-0.5,2.4
		c-0.3,0.6-0.7,1.1-1.3,1.5C746.1,292.7,745.5,292.9,744.8,292.9z M744.8,291.3c0.3,0,0.6-0.1,0.9-0.3c0.2-0.2,0.4-0.5,0.6-0.9
		c0.1-0.4,0.2-0.9,0.2-1.5s-0.1-1.1-0.2-1.5c-0.1-0.4-0.3-0.7-0.6-0.9c-0.2-0.2-0.5-0.3-0.9-0.3c-0.3,0-0.6,0.1-0.8,0.3
		c-0.2,0.2-0.4,0.5-0.6,0.9c-0.1,0.4-0.2,0.9-0.2,1.5s0.1,1.1,0.2,1.5c0.1,0.4,0.3,0.7,0.6,0.9C744.2,291.2,744.5,291.3,744.8,291.3
		z"/>
</g>
<g>
	<path d="M636.7,292.8v-1.3l3.2-3.1c0.3-0.2,0.4-0.4,0.6-0.6c0.1-0.2,0.2-0.3,0.2-0.5s0.1-0.3,0.1-0.4c0-0.3-0.1-0.6-0.3-0.8
		c-0.2-0.2-0.6-0.3-1-0.3s-0.7,0.1-1,0.2s-0.5,0.4-0.8,0.6l-1.4-0.9c0.3-0.5,0.8-0.9,1.3-1.1c0.6-0.3,1.2-0.4,2-0.4
		c0.6,0,1.2,0.1,1.6,0.3c0.5,0.2,0.8,0.5,1.1,0.9s0.4,0.8,0.4,1.3c0,0.3,0,0.5-0.1,0.8s-0.2,0.6-0.4,0.9s-0.5,0.6-0.9,1l-2.7,2.5
		l-0.4-0.7h4.8v1.6H636.7z"/>
	<path d="M645.1,292.8v-7.7l0.8,0.8h-2.5v-1.6h3.6v8.4h-1.9V292.8z"/>
	<path d="M652.1,292.9c-0.7,0-1.3-0.2-1.8-0.5s-1-0.8-1.3-1.5c-0.3-0.6-0.5-1.4-0.5-2.4c0-0.9,0.2-1.7,0.5-2.4
		c0.3-0.6,0.7-1.1,1.3-1.5s1.2-0.5,1.8-0.5c0.7,0,1.3,0.2,1.9,0.5s1,0.8,1.3,1.5c0.3,0.6,0.5,1.4,0.5,2.4c0,0.9-0.2,1.7-0.5,2.4
		c-0.3,0.6-0.7,1.1-1.3,1.5C653.4,292.7,652.8,292.9,652.1,292.9z M652.1,291.3c0.3,0,0.6-0.1,0.9-0.3c0.2-0.2,0.4-0.5,0.6-0.9
		c0.1-0.4,0.2-0.9,0.2-1.5s-0.1-1.1-0.2-1.5c-0.1-0.4-0.3-0.7-0.6-0.9c-0.2-0.2-0.5-0.3-0.9-0.3c-0.3,0-0.6,0.1-0.8,0.3
		c-0.2,0.2-0.4,0.5-0.6,0.9c-0.1,0.4-0.2,0.9-0.2,1.5s0.1,1.1,0.2,1.5c0.1,0.4,0.3,0.7,0.6,0.9C651.5,291.2,651.8,291.3,652.1,291.3
		z"/>
</g>
<g>
	<path d="M543.2,292.8v-1.3l3.2-3.1c0.3-0.2,0.4-0.4,0.6-0.6c0.1-0.2,0.2-0.3,0.2-0.5s0.1-0.3,0.1-0.4c0-0.3-0.1-0.6-0.3-0.8
		c-0.2-0.2-0.6-0.3-1-0.3s-0.7,0.1-1,0.2s-0.5,0.4-0.8,0.6l-1.4-0.9c0.3-0.5,0.8-0.9,1.3-1.1c0.6-0.3,1.2-0.4,2-0.4
		c0.6,0,1.2,0.1,1.6,0.3c0.5,0.2,0.8,0.5,1.1,0.9s0.4,0.8,0.4,1.3c0,0.3,0,0.5-0.1,0.8s-0.2,0.6-0.4,0.9s-0.5,0.6-0.9,1l-2.7,2.5
		l-0.4-0.7h4.8v1.6H543.2z"/>
	<path d="M551.7,292.8l3.4-7.7l0.5,0.8h-4.5l0.8-0.9v2.3h-1.7v-3h6.7v1.3l-3.1,7.1h-2.1V292.8z"/>
	<path d="M560.5,292.9c-0.6,0-1.2-0.1-1.7-0.2s-1.1-0.4-1.5-0.7l0.8-1.5c0.3,0.2,0.7,0.4,1.1,0.6c0.4,0.1,0.8,0.2,1.3,0.2
		s0.9-0.1,1.2-0.3c0.3-0.2,0.4-0.5,0.4-0.8c0-0.2-0.1-0.4-0.2-0.6c-0.1-0.2-0.3-0.3-0.6-0.4s-0.7-0.1-1.2-0.1H558l0.4-4.7h5.1v1.6
		H559l1-0.9l-0.3,3.4l-1-0.9h1.8c0.8,0,1.5,0.1,2,0.3c0.5,0.2,0.9,0.5,1.1,0.9c0.2,0.4,0.4,0.8,0.4,1.3s-0.1,0.9-0.4,1.4
		c-0.2,0.4-0.6,0.8-1.1,1C561.9,292.8,561.3,292.9,560.5,292.9z"/>
</g>
<g>
	<path d="M452.8,292.9c-0.6,0-1.2-0.1-1.7-0.2c-0.6-0.2-1.1-0.4-1.5-0.7l0.8-1.5c0.3,0.2,0.7,0.4,1.1,0.6c0.4,0.1,0.9,0.2,1.3,0.2
		c0.5,0,0.9-0.1,1.2-0.3c0.3-0.2,0.4-0.5,0.4-0.8s-0.1-0.6-0.4-0.8c-0.2-0.2-0.6-0.3-1.2-0.3h-0.9v-1.3l2.3-2.7l0.2,0.7H450v-1.6
		h5.9v1.3l-2.3,2.7l-1-0.6h0.6c1,0,1.8,0.2,2.3,0.7s0.8,1.1,0.8,1.8c0,0.5-0.1,0.9-0.4,1.3s-0.6,0.8-1.1,1
		C454.3,292.8,453.6,292.9,452.8,292.9z"/>
	<path d="M457.1,291v-1.3l4-5.3h2l-3.9,5.3l-1-0.3h6.6v1.6L457.1,291L457.1,291z M461.6,292.8V291l0.1-1.6v-1.6h1.8v4.9h-1.9V292.8z
		"/>
	<path d="M468.3,292.9c-0.6,0-1.2-0.1-1.7-0.2s-1.1-0.4-1.5-0.7l0.8-1.5c0.3,0.2,0.7,0.4,1.1,0.6c0.4,0.1,0.8,0.2,1.3,0.2
		s0.9-0.1,1.2-0.3c0.3-0.2,0.4-0.5,0.4-0.8c0-0.2-0.1-0.4-0.2-0.6s-0.3-0.3-0.6-0.4s-0.7-0.1-1.2-0.1h-2.1l0.4-4.7h5.1v1.6h-4.4
		l1-0.9l-0.3,3.4l-1-0.9h1.8c0.8,0,1.5,0.1,2,0.3c0.5,0.2,0.9,0.5,1.1,0.9s0.4,0.8,0.4,1.3s-0.1,0.9-0.4,1.4c-0.2,0.4-0.6,0.8-1.1,1
		C469.8,292.8,469.1,292.9,468.3,292.9z"/>
</g>
<g>
	<path d="M356.9,291v-1.3l4-5.3h2l-3.9,5.3l-1-0.3h6.6v1.6L356.9,291L356.9,291z M361.4,292.8V291l0.1-1.6v-1.6h1.8v4.9h-1.9V292.8z
		"/>
	<path d="M365.2,292.8v-1.3l3.2-3.1c0.3-0.2,0.4-0.4,0.6-0.6c0.1-0.2,0.2-0.3,0.2-0.5s0.1-0.3,0.1-0.4c0-0.3-0.1-0.6-0.3-0.8
		c-0.2-0.2-0.6-0.3-1-0.3s-0.7,0.1-1,0.2s-0.5,0.4-0.8,0.6l-1.4-0.9c0.3-0.5,0.8-0.9,1.3-1.1c0.6-0.3,1.2-0.4,2-0.4
		c0.6,0,1.2,0.1,1.6,0.3c0.5,0.2,0.8,0.5,1.1,0.9s0.4,0.8,0.4,1.3c0,0.3,0,0.5-0.1,0.8s-0.2,0.6-0.4,0.9s-0.5,0.6-0.9,1l-2.7,2.5
		l-0.4-0.7h4.8v1.6H365.2z"/>
	<path d="M375.9,292.9c-0.7,0-1.3-0.2-1.8-0.5s-1-0.8-1.3-1.5c-0.3-0.6-0.5-1.4-0.5-2.4c0-0.9,0.2-1.7,0.5-2.4
		c0.3-0.6,0.7-1.1,1.3-1.5s1.2-0.5,1.8-0.5c0.7,0,1.3,0.2,1.9,0.5s1,0.8,1.3,1.5c0.3,0.6,0.5,1.4,0.5,2.4c0,0.9-0.2,1.7-0.5,2.4
		c-0.3,0.6-0.7,1.1-1.3,1.5C377.2,292.7,376.6,292.9,375.9,292.9z M375.9,291.3c0.3,0,0.6-0.1,0.9-0.3c0.2-0.2,0.4-0.5,0.6-0.9
		c0.1-0.4,0.2-0.9,0.2-1.5s-0.1-1.1-0.2-1.5s-0.3-0.7-0.6-0.9c-0.2-0.2-0.5-0.3-0.9-0.3c-0.3,0-0.6,0.1-0.8,0.3
		c-0.2,0.2-0.4,0.5-0.6,0.9c-0.1,0.4-0.2,0.9-0.2,1.5s0.1,1.1,0.2,1.5s0.3,0.7,0.6,0.9C375.3,291.2,375.6,291.3,375.9,291.3z"/>
</g>
<g>
	<path d="M267.2,292.9c-0.6,0-1.2-0.1-1.7-0.2s-1.1-0.4-1.5-0.7l0.8-1.5c0.3,0.2,0.7,0.4,1.1,0.6c0.4,0.1,0.8,0.2,1.3,0.2
		s0.9-0.1,1.2-0.3c0.3-0.2,0.4-0.5,0.4-0.8c0-0.2-0.1-0.4-0.2-0.6s-0.3-0.3-0.6-0.4s-0.7-0.1-1.2-0.1h-2.1l0.4-4.7h5.1v1.6h-4.4
		l1-0.9l-0.3,3.4l-1-0.9h1.8c0.8,0,1.5,0.1,2,0.3c0.5,0.2,0.9,0.5,1.1,0.9s0.4,0.8,0.4,1.3s-0.1,0.9-0.4,1.4c-0.2,0.4-0.6,0.8-1.1,1
		C268.6,292.8,268,292.9,267.2,292.9z"/>
	<path d="M275.1,292.9c-0.7,0-1.3-0.2-1.8-0.5s-1-0.8-1.3-1.5c-0.3-0.6-0.5-1.4-0.5-2.4c0-0.9,0.2-1.7,0.5-2.4
		c0.3-0.6,0.7-1.1,1.3-1.5s1.2-0.5,1.8-0.5c0.7,0,1.3,0.2,1.9,0.5s1,0.8,1.3,1.5c0.3,0.6,0.5,1.4,0.5,2.4c0,0.9-0.2,1.7-0.5,2.4
		c-0.3,0.6-0.7,1.1-1.3,1.5C276.4,292.7,275.8,292.9,275.1,292.9z M275.1,291.3c0.3,0,0.6-0.1,0.9-0.3c0.2-0.2,0.4-0.5,0.6-0.9
		c0.1-0.4,0.2-0.9,0.2-1.5s-0.1-1.1-0.2-1.5s-0.3-0.7-0.6-0.9c-0.2-0.2-0.5-0.3-0.9-0.3c-0.3,0-0.6,0.1-0.8,0.3
		c-0.2,0.2-0.4,0.5-0.6,0.9c-0.1,0.4-0.2,0.9-0.2,1.5s0.1,1.1,0.2,1.5s0.3,0.7,0.6,0.9C274.5,291.2,274.8,291.3,275.1,291.3z"/>
	<path d="M283.2,292.9c-0.7,0-1.3-0.2-1.8-0.5s-1-0.8-1.3-1.5c-0.3-0.6-0.5-1.4-0.5-2.4c0-0.9,0.2-1.7,0.5-2.4
		c0.3-0.6,0.7-1.1,1.3-1.5s1.2-0.5,1.8-0.5c0.7,0,1.3,0.2,1.9,0.5s1,0.8,1.3,1.5c0.3,0.6,0.5,1.4,0.5,2.4c0,0.9-0.2,1.7-0.5,2.4
		c-0.3,0.6-0.7,1.1-1.3,1.5C284.5,292.7,283.9,292.9,283.2,292.9z M283.2,291.3c0.3,0,0.6-0.1,0.9-0.3c0.2-0.2,0.4-0.5,0.6-0.9
		c0.1-0.4,0.2-0.9,0.2-1.5s-0.1-1.1-0.2-1.5s-0.3-0.7-0.6-0.9c-0.2-0.2-0.5-0.3-0.9-0.3c-0.3,0-0.6,0.1-0.8,0.3
		c-0.2,0.2-0.4,0.5-0.6,0.9c-0.1,0.4-0.2,0.9-0.2,1.5s0.1,1.1,0.2,1.5s0.3,0.7,0.6,0.9C282.6,291.2,282.9,291.3,283.2,291.3z"/>
</g>
<g>
	<path d="M174.6,292.9c-0.6,0-1.2-0.1-1.7-0.2s-1.1-0.4-1.5-0.7l0.8-1.5c0.3,0.2,0.7,0.4,1.1,0.6c0.4,0.1,0.8,0.2,1.3,0.2
		s0.9-0.1,1.2-0.3c0.3-0.2,0.4-0.5,0.4-0.8c0-0.2-0.1-0.4-0.2-0.6c-0.1-0.2-0.3-0.3-0.6-0.4s-0.7-0.1-1.2-0.1h-2.1l0.4-4.7h5.1v1.6
		h-4.4l1-0.9l-0.3,3.4l-1-0.9h1.8c0.8,0,1.5,0.1,2,0.3c0.5,0.2,0.9,0.5,1.1,0.9c0.2,0.4,0.4,0.8,0.4,1.3s-0.1,0.9-0.4,1.4
		c-0.2,0.4-0.6,0.8-1.1,1C176.1,292.8,175.4,292.9,174.6,292.9z"/>
	<path d="M182.4,292.9c-0.7,0-1.3-0.1-1.9-0.3c-0.5-0.2-0.9-0.5-1.2-0.9s-0.4-0.8-0.4-1.4c0-0.5,0.1-1,0.4-1.3
		c0.3-0.4,0.7-0.6,1.2-0.8s1.2-0.3,1.9-0.3s1.3,0.1,1.9,0.3c0.5,0.2,0.9,0.5,1.2,0.8s0.4,0.8,0.4,1.3s-0.1,1-0.4,1.4
		c-0.3,0.4-0.7,0.7-1.2,0.9C183.7,292.8,183.1,292.9,182.4,292.9z M182.4,288.9c-0.6,0-1.2-0.1-1.7-0.3c-0.5-0.2-0.9-0.4-1.1-0.8
		c-0.3-0.3-0.4-0.8-0.4-1.2c0-0.5,0.1-0.9,0.4-1.3c0.3-0.4,0.7-0.6,1.1-0.8c0.5-0.2,1-0.3,1.7-0.3c0.6,0,1.2,0.1,1.7,0.3
		c0.5,0.2,0.9,0.5,1.1,0.8c0.3,0.4,0.4,0.8,0.4,1.3s-0.1,0.9-0.4,1.2s-0.6,0.6-1.1,0.8C183.6,288.8,183.1,288.9,182.4,288.9z
		 M182.4,291.5c0.5,0,0.9-0.1,1.2-0.3c0.3-0.2,0.4-0.5,0.4-0.9s-0.1-0.6-0.4-0.9c-0.3-0.2-0.7-0.3-1.2-0.3s-0.9,0.1-1.1,0.3
		s-0.4,0.5-0.4,0.9s0.1,0.7,0.4,0.9C181.5,291.4,181.9,291.5,182.4,291.5z M182.4,287.7c0.4,0,0.7-0.1,1-0.3
		c0.2-0.2,0.4-0.4,0.4-0.8s-0.1-0.6-0.4-0.8c-0.2-0.2-0.6-0.3-1-0.3s-0.7,0.1-0.9,0.3c-0.2,0.2-0.4,0.4-0.4,0.8
		c0,0.3,0.1,0.6,0.3,0.8C181.7,287.6,182,287.7,182.4,287.7z"/>
	<path d="M190.4,292.9c-0.7,0-1.3-0.2-1.8-0.5s-1-0.8-1.3-1.5c-0.3-0.6-0.5-1.4-0.5-2.4c0-0.9,0.2-1.7,0.5-2.4
		c0.3-0.6,0.7-1.1,1.3-1.5s1.2-0.5,1.8-0.5c0.7,0,1.3,0.2,1.9,0.5s1,0.8,1.3,1.5c0.3,0.6,0.5,1.4,0.5,2.4c0,0.9-0.2,1.7-0.5,2.4
		c-0.3,0.6-0.7,1.1-1.3,1.5C191.8,292.7,191.1,292.9,190.4,292.9z M190.4,291.3c0.3,0,0.6-0.1,0.9-0.3c0.2-0.2,0.4-0.5,0.6-0.9
		c0.1-0.4,0.2-0.9,0.2-1.5s-0.1-1.1-0.2-1.5c-0.1-0.4-0.3-0.7-0.6-0.9c-0.2-0.2-0.5-0.3-0.9-0.3c-0.3,0-0.6,0.1-0.8,0.3
		c-0.2,0.2-0.4,0.5-0.6,0.9c-0.1,0.4-0.2,0.9-0.2,1.5s0.1,1.1,0.2,1.5c0.1,0.4,0.3,0.7,0.6,0.9C189.9,291.2,190.1,291.3,190.4,291.3
		z"/>
</g>
<g>
	<path d="M82.8,292.9c-0.8,0-1.4-0.2-2-0.5s-1-0.8-1.3-1.4s-0.5-1.4-0.5-2.3c0-1,0.2-1.8,0.5-2.5c0.4-0.7,0.9-1.2,1.5-1.5
		c0.6-0.4,1.4-0.5,2.2-0.5c0.4,0,0.9,0,1.3,0.2c0.4,0.1,0.8,0.2,1.1,0.4l-0.7,1.4c-0.2-0.2-0.5-0.3-0.7-0.3
		c-0.3-0.1-0.5-0.1-0.8-0.1c-0.7,0-1.3,0.2-1.7,0.7c-0.4,0.4-0.6,1.1-0.6,2c0,0.1,0,0.3,0,0.5s0,0.4,0.1,0.5l-0.5-0.5
		c0.2-0.3,0.3-0.6,0.6-0.8c0.2-0.2,0.5-0.4,0.9-0.5c0.3-0.1,0.7-0.2,1.1-0.2c0.5,0,1,0.1,1.5,0.3c0.4,0.2,0.8,0.5,1,0.9
		c0.3,0.4,0.4,0.9,0.4,1.4c0,0.6-0.1,1.1-0.4,1.5s-0.7,0.7-1.1,1C83.9,292.8,83.4,292.9,82.8,292.9z M82.7,291.5
		c0.3,0,0.5,0,0.7-0.2c0.2-0.1,0.4-0.2,0.5-0.4c0.1-0.2,0.2-0.4,0.2-0.7c0-0.4-0.1-0.7-0.4-0.9c-0.3-0.2-0.6-0.3-1-0.3
		c-0.3,0-0.5,0.1-0.8,0.2c-0.2,0.1-0.4,0.3-0.5,0.5s-0.2,0.4-0.2,0.7c0,0.2,0.1,0.4,0.2,0.6s0.3,0.3,0.5,0.4
		C82.1,291.4,82.4,291.5,82.7,291.5z"/>
	<path d="M90.4,292.9c-0.8,0-1.4-0.2-2-0.5s-1-0.8-1.3-1.4s-0.5-1.4-0.5-2.3c0-1,0.2-1.8,0.5-2.5c0.4-0.7,0.9-1.2,1.5-1.5
		c0.6-0.4,1.4-0.5,2.2-0.5c0.4,0,0.9,0,1.3,0.2c0.4,0.1,0.8,0.2,1.1,0.4l-0.7,1.4c-0.2-0.2-0.5-0.3-0.7-0.3
		c-0.3-0.1-0.5-0.1-0.8-0.1c-0.7,0-1.3,0.2-1.7,0.7c-0.4,0.4-0.6,1.1-0.6,2c0,0.1,0,0.3,0,0.5s0,0.4,0.1,0.5l-0.5-0.5
		c0.2-0.3,0.3-0.6,0.6-0.8c0.2-0.2,0.5-0.4,0.9-0.5c0.3-0.1,0.7-0.2,1.1-0.2c0.5,0,1,0.1,1.5,0.3c0.4,0.2,0.8,0.5,1,0.9
		c0.3,0.4,0.4,0.9,0.4,1.4c0,0.6-0.1,1.1-0.4,1.5s-0.7,0.7-1.1,1C91.6,292.8,91,292.9,90.4,292.9z M90.3,291.5c0.3,0,0.5,0,0.7-0.2
		c0.2-0.1,0.4-0.2,0.5-0.4c0.1-0.2,0.2-0.4,0.2-0.7c0-0.4-0.1-0.7-0.4-0.9c-0.3-0.2-0.6-0.3-1-0.3c-0.3,0-0.5,0.1-0.8,0.2
		c-0.2,0.1-0.4,0.3-0.5,0.5s-0.2,0.4-0.2,0.7c0,0.2,0.1,0.4,0.2,0.6s0.3,0.3,0.5,0.4C89.7,291.4,90,291.5,90.3,291.5z"/>
	<path d="M97.9,292.9c-0.7,0-1.3-0.2-1.8-0.5s-1-0.8-1.3-1.5c-0.3-0.6-0.5-1.4-0.5-2.4c0-0.9,0.2-1.7,0.5-2.4
		c0.3-0.6,0.7-1.1,1.3-1.5s1.2-0.5,1.8-0.5c0.7,0,1.3,0.2,1.9,0.5s1,0.8,1.3,1.5c0.3,0.6,0.5,1.4,0.5,2.4c0,0.9-0.2,1.7-0.5,2.4
		c-0.3,0.6-0.7,1.1-1.3,1.5C99.2,292.7,98.6,292.9,97.9,292.9z M97.9,291.3c0.3,0,0.6-0.1,0.9-0.3c0.2-0.2,0.4-0.5,0.6-0.9
		c0.1-0.4,0.2-0.9,0.2-1.5s-0.1-1.1-0.2-1.5s-0.3-0.7-0.6-0.9c-0.2-0.2-0.5-0.3-0.9-0.3c-0.3,0-0.6,0.1-0.8,0.3
		c-0.2,0.2-0.4,0.5-0.6,0.9c-0.1,0.4-0.2,0.9-0.2,1.5s0.1,1.1,0.2,1.5s0.3,0.7,0.6,0.9C97.3,291.2,97.6,291.3,97.9,291.3z"/>
</g>
<g>
	<g>
		<path id="Montserrat-SemiBold-20" class="st8" d="M20.8,149.2"/>
	</g>
	<g>
		<path id="Montserrat-SemiBold-37" class="st8" d="M32.4,149.2l7.7-17.3l0.9,1.5H30.4l1.7-1.7v4.9h-3.2v-6.1h14.5v2.3l-7.3,16.3
			H32.4z"/>
	</g>
	<g>
		<path id="Montserrat-SemiBold-25" class="st8" d="M48.1,149.2l12.7-18.7h2.6l-12.7,18.7H48.1z M49.7,140.5c-0.9,0-1.6-0.2-2.3-0.6
			c-0.7-0.4-1.2-1-1.6-1.8c-0.4-0.8-0.6-1.7-0.6-2.7c0-1,0.2-1.9,0.6-2.7c0.4-0.8,0.9-1.4,1.6-1.8c0.7-0.4,1.4-0.6,2.3-0.6
			c0.9,0,1.7,0.2,2.4,0.6c0.7,0.4,1.2,1,1.6,1.8c0.4,0.8,0.6,1.7,0.6,2.7c0,1-0.2,1.9-0.6,2.7c-0.4,0.8-0.9,1.4-1.6,1.8
			C51.4,140.3,50.6,140.5,49.7,140.5z M49.7,138.7c0.7,0,1.3-0.3,1.7-0.8c0.4-0.6,0.6-1.4,0.6-2.4c0-1-0.2-1.9-0.6-2.4
			c-0.4-0.6-1-0.8-1.7-0.8s-1.3,0.3-1.7,0.9s-0.6,1.4-0.6,2.4c0,1,0.2,1.8,0.6,2.4C48.4,138.4,49,138.7,49.7,138.7z M61.9,149.3
			c-0.9,0-1.6-0.2-2.3-0.6c-0.7-0.4-1.2-1-1.6-1.8c-0.4-0.8-0.6-1.7-0.6-2.7c0-1,0.2-1.9,0.6-2.7c0.4-0.8,0.9-1.4,1.6-1.8
			c0.7-0.4,1.4-0.6,2.3-0.6c0.9,0,1.7,0.2,2.4,0.6c0.7,0.4,1.2,1,1.6,1.8c0.4,0.8,0.6,1.7,0.6,2.7c0,1-0.2,1.9-0.6,2.7
			c-0.4,0.8-0.9,1.4-1.6,1.8C63.6,149.1,62.8,149.3,61.9,149.3z M61.9,147.5c0.7,0,1.3-0.3,1.7-0.9c0.4-0.6,0.6-1.4,0.6-2.4
			c0-1-0.2-1.8-0.6-2.4c-0.4-0.6-1-0.9-1.7-0.9c-0.7,0-1.3,0.3-1.7,0.8c-0.4,0.6-0.6,1.4-0.6,2.4c0,1,0.2,1.9,0.6,2.4
			C60.7,147.2,61.2,147.5,61.9,147.5z"/>
	</g>
	<g>
		<path id="Montserrat-SemiBold-20_00000013166132666181508740000002476406592071360910_" class="st8" d="M113.7,168.9"/>
	</g>
	<g>
		<path id="Montserrat-SemiBold-35" class="st8" d="M128.4,169.1c-1.3,0-2.6-0.2-3.9-0.6c-1.3-0.4-2.3-0.9-3.2-1.6l1.5-2.7
			c0.7,0.6,1.5,1,2.5,1.3c1,0.3,2,0.5,3,0.5c1.2,0,2.2-0.3,2.9-0.8c0.7-0.5,1.1-1.2,1.1-2.1c0-0.6-0.1-1.1-0.4-1.5
			c-0.3-0.4-0.8-0.8-1.5-1c-0.7-0.2-1.7-0.3-3-0.3h-4.5l1-10.2h11v2.9h-9.7l1.8-1.7l-0.7,7.6l-1.8-1.6h3.8c1.8,0,3.3,0.2,4.5,0.7
			c1.1,0.5,2,1.2,2.5,2c0.5,0.9,0.8,1.8,0.8,2.9c0,1.1-0.3,2.1-0.8,3c-0.5,0.9-1.3,1.6-2.4,2.2C131.5,168.9,130.1,169.1,128.4,169.1
			z"/>
	</g>
	<g>
		<path id="Montserrat-SemiBold-25_00000112625097391683318460000009731824664424747426_" class="st8" d="M140.4,168.9l12.7-18.7
			h2.6l-12.7,18.7H140.4z M142,160.3c-0.9,0-1.6-0.2-2.3-0.6c-0.7-0.4-1.2-1-1.6-1.8c-0.4-0.8-0.6-1.7-0.6-2.7c0-1,0.2-1.9,0.6-2.7
			c0.4-0.8,0.9-1.4,1.6-1.8c0.7-0.4,1.4-0.6,2.3-0.6c0.9,0,1.7,0.2,2.4,0.6c0.7,0.4,1.2,1,1.6,1.8c0.4,0.8,0.6,1.7,0.6,2.7
			c0,1-0.2,1.9-0.6,2.7c-0.4,0.8-0.9,1.4-1.6,1.8C143.7,160,142.9,160.3,142,160.3z M142,158.4c0.7,0,1.3-0.3,1.7-0.8
			c0.4-0.6,0.6-1.4,0.6-2.4s-0.2-1.9-0.6-2.4c-0.4-0.6-1-0.8-1.7-0.8c-0.7,0-1.3,0.3-1.7,0.9c-0.4,0.6-0.6,1.4-0.6,2.4
			c0,1,0.2,1.8,0.6,2.4C140.7,158.1,141.3,158.4,142,158.4z M154.2,169.1c-0.9,0-1.6-0.2-2.3-0.6c-0.7-0.4-1.2-1-1.6-1.8
			c-0.4-0.8-0.6-1.7-0.6-2.7c0-1,0.2-1.9,0.6-2.7c0.4-0.8,0.9-1.4,1.6-1.8c0.7-0.4,1.4-0.6,2.3-0.6c0.9,0,1.7,0.2,2.4,0.6
			c0.7,0.4,1.2,1,1.6,1.8c0.4,0.8,0.6,1.7,0.6,2.7c0,1-0.2,1.9-0.6,2.7c-0.4,0.8-0.9,1.4-1.6,1.8
			C155.9,168.8,155.1,169.1,154.2,169.1z M154.2,167.2c0.7,0,1.3-0.3,1.7-0.9c0.4-0.6,0.6-1.4,0.6-2.4c0-1-0.2-1.8-0.6-2.4
			c-0.4-0.6-1-0.9-1.7-0.9c-0.7,0-1.3,0.3-1.7,0.8c-0.4,0.6-0.6,1.4-0.6,2.4s0.2,1.9,0.6,2.4C153,166.9,153.5,167.2,154.2,167.2z"/>
	</g>
	<g>
		<path id="Montserrat-SemiBold-20_00000176004374449113104960000012353081201064601998_" class="st8" d="M206.1,149.2"/>
	</g>
	<g>
		<path id="Montserrat-SemiBold-37_00000122713060771725802340000010266167720311351209_" class="st8" d="M217.7,149.2l7.7-17.3
			l0.9,1.5h-10.6l1.7-1.7v4.9h-3.2v-6.1h14.5v2.3l-7.3,16.3H217.7z"/>
	</g>
	<g>
		<path id="Montserrat-SemiBold-25_00000056428127647387576340000014474770633917497274_" class="st8" d="M233.4,149.2l12.7-18.7
			h2.6L236,149.2H233.4z M235,140.5c-0.9,0-1.6-0.2-2.3-0.6c-0.7-0.4-1.2-1-1.6-1.8c-0.4-0.8-0.6-1.7-0.6-2.7c0-1,0.2-1.9,0.6-2.7
			c0.4-0.8,0.9-1.4,1.6-1.8c0.7-0.4,1.4-0.6,2.3-0.6c0.9,0,1.7,0.2,2.4,0.6c0.7,0.4,1.2,1,1.6,1.8c0.4,0.8,0.6,1.7,0.6,2.7
			c0,1-0.2,1.9-0.6,2.7c-0.4,0.8-0.9,1.4-1.6,1.8C236.7,140.3,235.9,140.5,235,140.5z M235,138.7c0.7,0,1.3-0.3,1.7-0.8
			c0.4-0.6,0.6-1.4,0.6-2.4c0-1-0.2-1.9-0.6-2.4c-0.4-0.6-1-0.8-1.7-0.8c-0.7,0-1.3,0.3-1.7,0.9c-0.4,0.6-0.6,1.4-0.6,2.4
			c0,1,0.2,1.8,0.6,2.4C233.7,138.4,234.3,138.7,235,138.7z M247.2,149.3c-0.9,0-1.6-0.2-2.3-0.6c-0.7-0.4-1.2-1-1.6-1.8
			c-0.4-0.8-0.6-1.7-0.6-2.7c0-1,0.2-1.9,0.6-2.7c0.4-0.8,0.9-1.4,1.6-1.8c0.7-0.4,1.4-0.6,2.3-0.6c0.9,0,1.7,0.2,2.4,0.6
			c0.7,0.4,1.2,1,1.6,1.8c0.4,0.8,0.6,1.7,0.6,2.7c0,1-0.2,1.9-0.6,2.7c-0.4,0.8-0.9,1.4-1.6,1.8
			C248.9,149.1,248.1,149.3,247.2,149.3z M247.2,147.5c0.7,0,1.3-0.3,1.7-0.9c0.4-0.6,0.6-1.4,0.6-2.4c0-1-0.2-1.8-0.6-2.4
			s-1-0.9-1.7-0.9c-0.7,0-1.3,0.3-1.7,0.8c-0.4,0.6-0.6,1.4-0.6,2.4c0,1,0.2,1.9,0.6,2.4C245.9,147.2,246.5,147.5,247.2,147.5z"/>
	</g>
	<g>
		<path id="Montserrat-SemiBold-31" class="st8" d="M301.8,90V72.7l1.5,1.6h-5.5v-2.9h7.4V90H301.8z"/>
	</g>
	<g>
		<path id="Montserrat-SemiBold-33" class="st8" d="M314.8,90.3c-1.3,0-2.6-0.2-3.9-0.6c-1.3-0.4-2.3-0.9-3.2-1.6l1.5-2.7
			c0.7,0.6,1.5,1,2.4,1.3c1,0.3,2,0.5,3,0.5c1.2,0,2.2-0.3,2.9-0.8c0.7-0.5,1-1.2,1-2.1c0-0.9-0.3-1.5-1-2c-0.6-0.5-1.7-0.7-3.1-0.7
			H313v-2.4l5.3-6.3l0.4,1.3h-10v-2.9h12.7v2.3l-5.3,6.3l-1.8-1.1h1c2.3,0,4,0.5,5.2,1.5c1.1,1,1.7,2.3,1.7,3.9c0,1-0.3,2-0.8,2.9
			c-0.5,0.9-1.3,1.6-2.4,2.1C317.9,90,316.5,90.3,314.8,90.3z"/>
	</g>
	<g>
		<path id="Montserrat-SemiBold-25_00000003814595360551938320000006874837889476904358_" class="st8" d="M327.1,90l12.7-18.7h2.6
			L329.7,90H327.1z M328.7,81.4c-0.9,0-1.6-0.2-2.3-0.6c-0.7-0.4-1.2-1-1.6-1.8c-0.4-0.8-0.6-1.7-0.6-2.7s0.2-1.9,0.6-2.7
			c0.4-0.8,0.9-1.4,1.6-1.8c0.7-0.4,1.4-0.6,2.3-0.6c0.9,0,1.7,0.2,2.4,0.6c0.7,0.4,1.2,1,1.6,1.8c0.4,0.8,0.6,1.7,0.6,2.7
			s-0.2,1.9-0.6,2.7c-0.4,0.8-0.9,1.4-1.6,1.8C330.4,81.2,329.6,81.4,328.7,81.4z M328.7,79.5c0.7,0,1.3-0.3,1.7-0.8
			c0.4-0.6,0.6-1.4,0.6-2.4c0-1-0.2-1.9-0.6-2.4c-0.4-0.6-1-0.8-1.7-0.8s-1.3,0.3-1.7,0.9c-0.4,0.6-0.6,1.4-0.6,2.4s0.2,1.8,0.6,2.4
			S328,79.5,328.7,79.5z M340.9,90.2c-0.9,0-1.6-0.2-2.3-0.6c-0.7-0.4-1.2-1-1.6-1.8c-0.4-0.8-0.6-1.7-0.6-2.7s0.2-1.9,0.6-2.7
			c0.4-0.8,0.9-1.4,1.6-1.8c0.7-0.4,1.4-0.6,2.3-0.6c0.9,0,1.7,0.2,2.4,0.6c0.7,0.4,1.2,1,1.6,1.8c0.4,0.8,0.6,1.7,0.6,2.7
			s-0.2,1.9-0.6,2.7c-0.4,0.8-0.9,1.4-1.6,1.8C342.6,90,341.8,90.2,340.9,90.2z M340.9,88.3c0.7,0,1.3-0.3,1.7-0.9
			c0.4-0.6,0.6-1.4,0.6-2.4s-0.2-1.8-0.6-2.4c-0.4-0.6-1-0.9-1.7-0.9c-0.7,0-1.3,0.3-1.7,0.8c-0.4,0.6-0.6,1.4-0.6,2.4
			c0,1,0.2,1.9,0.6,2.4C339.6,88,340.2,88.3,340.9,88.3z"/>
	</g>
	<g>
		<path id="Montserrat-SemiBold-32" class="st8" d="M391.2,11.1V8.8l7.4-7c0.6-0.6,1.1-1.1,1.4-1.5s0.5-0.9,0.6-1.2
			c0.1-0.4,0.1-0.7,0.1-1.1c0-0.9-0.3-1.5-0.9-2c-0.6-0.5-1.4-0.7-2.6-0.7c-0.9,0-1.7,0.2-2.5,0.5c-0.7,0.3-1.4,0.8-1.9,1.5
			l-2.4-1.9c0.7-1,1.7-1.7,2.9-2.3c1.2-0.5,2.6-0.8,4.1-0.8c1.3,0,2.5,0.2,3.5,0.7c1,0.4,1.8,1.1,2.3,1.9c0.5,0.8,0.8,1.7,0.8,2.8
			c0,0.6-0.1,1.2-0.2,1.8c-0.2,0.6-0.5,1.2-0.9,1.9c-0.4,0.7-1.1,1.4-1.9,2.2l-6.4,6.1l-0.7-1.3H405v2.9H391.2z"/>
	</g>
	<g>
		<path id="Montserrat-SemiBold-31_00000048498229125012868600000013061013089051307136_" class="st8" d="M410,11.1V-6.2l1.5,1.6
			H406v-2.9h7.4v18.7H410z"/>
	</g>
	<g>
		<path id="Montserrat-SemiBold-25_00000135658507396787040410000005400164833372259234_" class="st8" d="M419.8,11.1l12.7-18.7h2.6
			l-12.7,18.7H419.8z M421.3,2.5c-0.9,0-1.6-0.2-2.3-0.6c-0.7-0.4-1.2-1-1.6-1.8c-0.4-0.8-0.6-1.7-0.6-2.7s0.2-1.9,0.6-2.7
			c0.4-0.8,0.9-1.4,1.6-1.8c0.7-0.4,1.4-0.6,2.3-0.6c0.9,0,1.7,0.2,2.4,0.6c0.7,0.4,1.2,1,1.6,1.8c0.4,0.8,0.6,1.7,0.6,2.7
			s-0.2,1.9-0.6,2.7c-0.4,0.8-0.9,1.4-1.6,1.8C423,2.3,422.2,2.5,421.3,2.5z M421.3,0.6c0.7,0,1.3-0.3,1.7-0.8
			c0.4-0.6,0.6-1.4,0.6-2.4S423.4-4.5,423-5c-0.4-0.6-1-0.8-1.7-0.8c-0.7,0-1.3,0.3-1.7,0.9c-0.4,0.6-0.6,1.4-0.6,2.4
			s0.2,1.8,0.6,2.4C420.1,0.3,420.6,0.6,421.3,0.6z M433.5,11.3c-0.9,0-1.6-0.2-2.3-0.6c-0.7-0.4-1.2-1-1.6-1.8
			c-0.4-0.8-0.6-1.7-0.6-2.7s0.2-1.9,0.6-2.7c0.4-0.8,0.9-1.4,1.6-1.8c0.7-0.4,1.4-0.6,2.3-0.6c0.9,0,1.7,0.2,2.4,0.6
			c0.7,0.4,1.2,1,1.6,1.8c0.4,0.8,0.6,1.7,0.6,2.7s-0.2,1.9-0.6,2.7c-0.4,0.8-0.9,1.4-1.6,1.8C435.2,11.1,434.5,11.3,433.5,11.3z
			 M433.5,9.4c0.7,0,1.3-0.3,1.7-0.9s0.6-1.4,0.6-2.4s-0.2-1.8-0.6-2.4s-1-0.9-1.7-0.9c-0.7,0-1.3,0.3-1.7,0.8
			c-0.4,0.6-0.6,1.4-0.6,2.4s0.2,1.9,0.6,2.4C432.3,9.1,432.9,9.4,433.5,9.4z"/>
	</g>
	<g>
		<path id="Montserrat-SemiBold-31_00000002346791958891959950000010747813224404932259_" class="st8" d="M486.5,31.9V14.6l1.5,1.6
			h-5.5v-2.9h7.4v18.7H486.5z"/>
	</g>
	<g>
		<path id="Montserrat-SemiBold-39" class="st8" d="M500,13c1.7,0,3.2,0.4,4.4,1.1c1.2,0.7,2.1,1.8,2.8,3.1c0.6,1.4,1,3.1,1,5.1
			c0,2.1-0.4,3.9-1.2,5.4c-0.8,1.5-1.8,2.6-3.2,3.4c-1.4,0.8-3,1.1-4.8,1.1c-0.9,0-1.8-0.1-2.7-0.3c-0.9-0.2-1.6-0.5-2.2-0.9
			l1.3-2.6c0.5,0.3,1.1,0.6,1.7,0.7c0.6,0.1,1.2,0.2,1.9,0.2c1.8,0,3.2-0.5,4.2-1.6c1-1.1,1.5-2.7,1.5-4.8c0-0.3,0-0.7,0-1.2
			c0-0.5-0.1-0.9-0.2-1.4l1.1,1.2c-0.3,0.7-0.7,1.3-1.3,1.8c-0.6,0.5-1.2,0.9-2,1.1c-0.8,0.2-1.6,0.4-2.5,0.4
			c-1.2,0-2.3-0.2-3.3-0.7c-1-0.5-1.7-1.1-2.3-2c-0.6-0.9-0.8-1.9-0.8-3c0-1.2,0.3-2.3,0.9-3.2c0.6-0.9,1.4-1.6,2.5-2.1
			C497.6,13.2,498.7,13,500,13z M500.2,15.7c-0.7,0-1.3,0.1-1.9,0.4c-0.5,0.3-1,0.6-1.3,1.1c-0.3,0.5-0.5,1-0.5,1.7
			c0,1,0.3,1.8,1,2.3s1.6,0.9,2.7,0.9c0.7,0,1.4-0.1,2-0.4c0.6-0.3,1-0.7,1.3-1.1c0.3-0.5,0.5-1,0.5-1.6c0-0.6-0.2-1.1-0.5-1.6
			c-0.3-0.5-0.7-0.8-1.3-1.1C501.7,15.8,501,15.7,500.2,15.7z"/>
	</g>
	<g>
		<path id="Montserrat-SemiBold-25_00000044178774699434146200000000753462134542629550_" class="st8" d="M513,31.9l12.7-18.7h2.6
			l-12.7,18.7H513z M514.6,23.3c-0.9,0-1.6-0.2-2.3-0.6c-0.7-0.4-1.2-1-1.6-1.8c-0.4-0.8-0.6-1.7-0.6-2.7c0-1,0.2-1.9,0.6-2.7
			c0.4-0.8,0.9-1.4,1.6-1.8c0.7-0.4,1.4-0.6,2.3-0.6c0.9,0,1.7,0.2,2.4,0.6c0.7,0.4,1.2,1,1.6,1.8c0.4,0.8,0.6,1.7,0.6,2.7
			c0,1-0.2,1.9-0.6,2.7c-0.4,0.8-0.9,1.4-1.6,1.8C516.2,23.1,515.5,23.3,514.6,23.3z M514.6,21.4c0.7,0,1.3-0.3,1.7-0.8
			c0.4-0.6,0.6-1.4,0.6-2.4s-0.2-1.9-0.6-2.4c-0.4-0.6-1-0.8-1.7-0.8c-0.7,0-1.3,0.3-1.7,0.9c-0.4,0.6-0.6,1.4-0.6,2.4
			c0,1,0.2,1.8,0.6,2.4C513.3,21.1,513.9,21.4,514.6,21.4z M526.8,32.1c-0.9,0-1.6-0.2-2.3-0.6c-0.7-0.4-1.2-1-1.6-1.8
			c-0.4-0.8-0.6-1.7-0.6-2.7s0.2-1.9,0.6-2.7c0.4-0.8,0.9-1.4,1.6-1.8c0.7-0.4,1.4-0.6,2.3-0.6c0.9,0,1.7,0.2,2.4,0.6
			c0.7,0.4,1.2,1,1.6,1.8c0.4,0.8,0.6,1.7,0.6,2.7s-0.2,1.9-0.6,2.7c-0.4,0.8-0.9,1.4-1.6,1.8C528.5,31.9,527.7,32.1,526.8,32.1z
			 M526.8,30.2c0.7,0,1.3-0.3,1.7-0.9c0.4-0.6,0.6-1.4,0.6-2.4s-0.2-1.8-0.6-2.4c-0.4-0.6-1-0.9-1.7-0.9c-0.7,0-1.3,0.3-1.7,0.8
			c-0.4,0.6-0.6,1.4-0.6,2.4s0.2,1.9,0.6,2.4C525.5,29.9,526.1,30.2,526.8,30.2z"/>
	</g>
	<g>
		<path id="Montserrat-SemiBold-31_00000182489709046280156470000005119957914488359601_" class="st8" d="M579.7,71.1V53.7l1.5,1.6
			h-5.5v-2.9h7.4v18.7H579.7z"/>
	</g>
	<g>
		<path id="Montserrat-SemiBold-35_00000131332757099664967240000014362418531091142027_" class="st8" d="M593.1,71.3
			c-1.3,0-2.6-0.2-3.9-0.6c-1.3-0.4-2.3-0.9-3.2-1.6l1.5-2.7c0.7,0.6,1.5,1,2.5,1.3c1,0.3,2,0.5,3,0.5c1.2,0,2.2-0.3,2.9-0.8
			c0.7-0.5,1.1-1.2,1.1-2.1c0-0.6-0.1-1.1-0.4-1.5c-0.3-0.4-0.8-0.8-1.5-1c-0.7-0.2-1.7-0.3-3-0.3h-4.5l1-10.2h11v2.9h-9.7l1.8-1.7
			l-0.7,7.6l-1.8-1.6h3.8c1.8,0,3.3,0.2,4.5,0.7c1.1,0.5,2,1.2,2.5,2c0.5,0.9,0.8,1.8,0.8,2.9c0,1.1-0.3,2.1-0.8,3
			c-0.5,0.9-1.3,1.6-2.4,2.2C596.1,71,594.8,71.3,593.1,71.3z"/>
	</g>
	<g>
		<path id="Montserrat-SemiBold-25_00000047752489035849347750000010990982283472009869_" class="st8" d="M605.1,71.1l12.7-18.7h2.6
			l-12.7,18.7H605.1z M606.6,62.4c-0.9,0-1.6-0.2-2.3-0.6c-0.7-0.4-1.2-1-1.6-1.8c-0.4-0.8-0.6-1.7-0.6-2.7c0-1,0.2-1.9,0.6-2.7
			c0.4-0.8,0.9-1.4,1.6-1.8c0.7-0.4,1.4-0.6,2.3-0.6c0.9,0,1.7,0.2,2.4,0.6c0.7,0.4,1.2,1,1.6,1.8c0.4,0.8,0.6,1.7,0.6,2.7
			c0,1-0.2,1.9-0.6,2.7c-0.4,0.8-0.9,1.4-1.6,1.8C608.3,62.2,607.5,62.4,606.6,62.4z M606.7,60.6c0.7,0,1.3-0.3,1.7-0.8
			c0.4-0.6,0.6-1.4,0.6-2.4c0-1-0.2-1.9-0.6-2.4c-0.4-0.6-1-0.8-1.7-0.8c-0.7,0-1.3,0.3-1.7,0.9c-0.4,0.6-0.6,1.4-0.6,2.4
			c0,1,0.2,1.8,0.6,2.4C605.4,60.3,605.9,60.6,606.7,60.6z M618.9,71.2c-0.9,0-1.6-0.2-2.3-0.6c-0.7-0.4-1.2-1-1.6-1.8
			c-0.4-0.8-0.6-1.7-0.6-2.7s0.2-1.9,0.6-2.7c0.4-0.8,0.9-1.4,1.6-1.8c0.7-0.4,1.4-0.6,2.3-0.6c0.9,0,1.7,0.2,2.4,0.6
			c0.7,0.4,1.2,1,1.6,1.8c0.4,0.8,0.6,1.7,0.6,2.7s-0.2,1.9-0.6,2.7c-0.4,0.8-0.9,1.4-1.6,1.8C620.6,71,619.8,71.2,618.9,71.2z
			 M618.9,69.4c0.7,0,1.3-0.3,1.7-0.9c0.4-0.6,0.6-1.4,0.6-2.4s-0.2-1.8-0.6-2.4s-1-0.9-1.7-0.9c-0.7,0-1.3,0.3-1.7,0.8
			c-0.4,0.6-0.6,1.4-0.6,2.4c0,1,0.2,1.9,0.6,2.4C617.6,69.1,618.2,69.4,618.9,69.4z"/>
	</g>
	<g>
		<path id="Montserrat-SemiBold-20_00000132046697813219326530000008963443713080765630_" class="st8" d="M669,130.5"/>
	</g>
	<g>
		<path id="Montserrat-SemiBold-39_00000098211942474720207140000011974886995619433649_" class="st8" d="M683.9,111.6
			c1.7,0,3.2,0.4,4.4,1.1c1.2,0.7,2.1,1.8,2.8,3.1c0.6,1.4,1,3.1,1,5.1c0,2.1-0.4,3.9-1.2,5.4c-0.8,1.5-1.8,2.6-3.2,3.4
			c-1.4,0.8-3,1.1-4.8,1.1c-0.9,0-1.8-0.1-2.7-0.3c-0.9-0.2-1.6-0.5-2.2-0.9l1.3-2.6c0.5,0.3,1.1,0.6,1.7,0.7
			c0.6,0.1,1.2,0.2,1.9,0.2c1.8,0,3.2-0.5,4.2-1.6c1-1.1,1.5-2.7,1.5-4.8c0-0.3,0-0.7,0-1.2c0-0.5-0.1-0.9-0.2-1.4l1.1,1.2
			c-0.3,0.7-0.7,1.3-1.3,1.8c-0.6,0.5-1.2,0.9-2,1.1c-0.8,0.2-1.6,0.4-2.5,0.4c-1.2,0-2.3-0.2-3.3-0.7c-1-0.5-1.7-1.1-2.3-2
			c-0.6-0.9-0.8-1.9-0.8-3c0-1.2,0.3-2.3,0.9-3.2c0.6-0.9,1.4-1.6,2.5-2.1C681.5,111.8,682.6,111.6,683.9,111.6z M684.1,114.3
			c-0.7,0-1.3,0.1-1.9,0.4c-0.5,0.3-1,0.6-1.3,1.1c-0.3,0.5-0.5,1-0.5,1.7c0,1,0.3,1.8,1,2.3c0.7,0.6,1.6,0.9,2.7,0.9
			c0.7,0,1.4-0.1,2-0.4c0.6-0.3,1-0.7,1.3-1.1c0.3-0.5,0.5-1,0.5-1.6c0-0.6-0.2-1.1-0.5-1.6c-0.3-0.5-0.7-0.8-1.3-1.1
			C685.6,114.4,684.9,114.3,684.1,114.3z"/>
	</g>
	<g>
		<path id="Montserrat-SemiBold-25_00000006701187342273402800000007571217443464075667_" class="st8" d="M696.9,130.5l12.7-18.7
			h2.6l-12.7,18.7H696.9z M698.5,121.9c-0.9,0-1.6-0.2-2.3-0.6c-0.7-0.4-1.2-1-1.6-1.8c-0.4-0.8-0.6-1.7-0.6-2.7
			c0-1,0.2-1.9,0.6-2.7c0.4-0.8,0.9-1.4,1.6-1.8c0.7-0.4,1.4-0.6,2.3-0.6c0.9,0,1.7,0.2,2.4,0.6c0.7,0.4,1.2,1,1.6,1.8
			c0.4,0.8,0.6,1.7,0.6,2.7c0,1-0.2,1.9-0.6,2.7c-0.4,0.8-0.9,1.4-1.6,1.8C700.1,121.7,699.4,121.9,698.5,121.9z M698.5,120
			c0.7,0,1.3-0.3,1.7-0.8c0.4-0.6,0.6-1.4,0.6-2.4c0-1-0.2-1.9-0.6-2.4c-0.4-0.6-1-0.8-1.7-0.8c-0.7,0-1.3,0.3-1.7,0.9
			c-0.4,0.6-0.6,1.4-0.6,2.4c0,1,0.2,1.8,0.6,2.4C697.2,119.8,697.8,120,698.5,120z M710.7,130.7c-0.9,0-1.6-0.2-2.3-0.6
			c-0.7-0.4-1.2-1-1.6-1.8c-0.4-0.8-0.6-1.7-0.6-2.7s0.2-1.9,0.6-2.7c0.4-0.8,0.9-1.4,1.6-1.8c0.7-0.4,1.4-0.6,2.3-0.6
			c0.9,0,1.7,0.2,2.4,0.6c0.7,0.4,1.2,1,1.6,1.8c0.4,0.8,0.6,1.7,0.6,2.7s-0.2,1.9-0.6,2.7c-0.4,0.8-0.9,1.4-1.6,1.8
			C712.4,130.5,711.6,130.7,710.7,130.7z M710.7,128.8c0.7,0,1.3-0.3,1.7-0.9c0.4-0.6,0.6-1.4,0.6-2.4s-0.2-1.8-0.6-2.4
			c-0.4-0.6-1-0.9-1.7-0.9c-0.7,0-1.3,0.3-1.7,0.8c-0.4,0.6-0.6,1.4-0.6,2.4c0,1,0.2,1.9,0.6,2.4C709.4,128.6,710,128.8,710.7,128.8
			z"/>
	</g>
	<g>
		<path id="Montserrat-SemiBold-20_00000163067795012411598550000007080930899254443197_" class="st8" d="M762.3,185.7"/>
	</g>
	<g>
		<path id="Montserrat-SemiBold-33_00000181770949899002735900000008867244201869580195_" class="st8" d="M776.7,186
			c-1.3,0-2.6-0.2-3.9-0.6c-1.3-0.4-2.3-0.9-3.2-1.6l1.5-2.7c0.7,0.6,1.5,1,2.4,1.3c1,0.3,2,0.5,3,0.5c1.2,0,2.2-0.3,2.9-0.8
			c0.7-0.5,1-1.2,1-2.1c0-0.9-0.3-1.5-1-2c-0.6-0.5-1.7-0.7-3.1-0.7h-1.7V175l5.3-6.3l0.5,1.3h-10v-2.9h12.7v2.3l-5.3,6.3l-1.8-1.1
			h1c2.3,0,4,0.5,5.2,1.5c1.1,1,1.7,2.3,1.7,3.9c0,1-0.3,2-0.8,2.9c-0.5,0.9-1.3,1.6-2.4,2.1C779.7,185.7,778.4,186,776.7,186z"/>
	</g>
	<g>
		<path id="Montserrat-SemiBold-25_00000056388017634105195630000003600137838241544635_" class="st8" d="M789,185.7l12.7-18.7h2.6
			l-12.7,18.7H789z M790.5,177.1c-0.9,0-1.6-0.2-2.3-0.6c-0.7-0.4-1.2-1-1.6-1.8c-0.4-0.8-0.6-1.7-0.6-2.7s0.2-1.9,0.6-2.7
			c0.4-0.8,0.9-1.4,1.6-1.8c0.7-0.4,1.4-0.6,2.3-0.6c0.9,0,1.7,0.2,2.4,0.6c0.7,0.4,1.2,1,1.6,1.8c0.4,0.8,0.6,1.7,0.6,2.7
			s-0.2,1.9-0.6,2.7c-0.4,0.8-0.9,1.4-1.6,1.8C792.2,176.9,791.4,177.1,790.5,177.1z M790.5,175.3c0.7,0,1.3-0.3,1.7-0.8
			c0.4-0.6,0.6-1.4,0.6-2.4s-0.2-1.9-0.6-2.4c-0.4-0.6-1-0.8-1.7-0.8c-0.7,0-1.3,0.3-1.7,0.9c-0.4,0.6-0.6,1.4-0.6,2.4
			s0.2,1.8,0.6,2.4C789.3,175,789.8,175.3,790.5,175.3z M802.7,185.9c-0.9,0-1.6-0.2-2.3-0.6c-0.7-0.4-1.2-1-1.6-1.8
			c-0.4-0.8-0.6-1.7-0.6-2.7c0-1,0.2-1.9,0.6-2.7c0.4-0.8,0.9-1.4,1.6-1.8c0.7-0.4,1.4-0.6,2.3-0.6c0.9,0,1.7,0.2,2.4,0.6
			c0.7,0.4,1.2,1,1.6,1.8c0.4,0.8,0.6,1.7,0.6,2.7c0,1-0.2,1.9-0.6,2.7c-0.4,0.8-0.9,1.4-1.6,1.8
			C804.4,185.7,803.6,185.9,802.7,185.9z M802.7,184.1c0.7,0,1.3-0.3,1.7-0.9c0.4-0.6,0.6-1.4,0.6-2.4c0-1-0.2-1.8-0.6-2.4
			c-0.4-0.6-1-0.9-1.7-0.9c-0.7,0-1.3,0.3-1.7,0.8c-0.4,0.6-0.6,1.4-0.6,2.4s0.2,1.9,0.6,2.4C801.5,183.8,802,184.1,802.7,184.1z"/>
	</g>
	<g>
		<path id="Montserrat-SemiBold-20_00000117662482554789289000000002942750803949762716_" class="st8" d="M857.6,207.9"/>
	</g>
	<g>
		<path id="Montserrat-SemiBold-31_00000166655568459310691250000005698413660008630421_" class="st8" d="M869.1,207.9v-17.3
			l1.5,1.6h-5.5v-2.9h7.4v18.7H869.1z"/>
	</g>
	<g>
		<path id="Montserrat-SemiBold-25_00000170267020210381268780000008257719620463916440_" class="st8" d="M878.9,207.9l12.7-18.7
			h2.6l-12.7,18.7H878.9z M880.5,199.3c-0.9,0-1.6-0.2-2.3-0.6c-0.7-0.4-1.2-1-1.6-1.8c-0.4-0.8-0.6-1.7-0.6-2.7
			c0-1,0.2-1.9,0.6-2.7c0.4-0.8,0.9-1.4,1.6-1.8c0.7-0.4,1.4-0.6,2.3-0.6c0.9,0,1.7,0.2,2.4,0.6c0.7,0.4,1.2,1,1.6,1.8
			c0.4,0.8,0.6,1.7,0.6,2.7c0,1-0.2,1.9-0.6,2.7c-0.4,0.8-0.9,1.4-1.6,1.8C882.2,199.1,881.4,199.3,880.5,199.3z M880.5,197.4
			c0.7,0,1.3-0.3,1.7-0.8c0.4-0.6,0.6-1.4,0.6-2.4s-0.2-1.9-0.6-2.4c-0.4-0.6-1-0.8-1.7-0.8c-0.7,0-1.3,0.3-1.7,0.9
			c-0.4,0.6-0.6,1.4-0.6,2.4c0,1,0.2,1.8,0.6,2.4C879.2,197.2,879.8,197.4,880.5,197.4z M892.7,208.1c-0.9,0-1.6-0.2-2.3-0.6
			c-0.7-0.4-1.2-1-1.6-1.8c-0.4-0.8-0.6-1.7-0.6-2.7c0-1,0.2-1.9,0.6-2.7c0.4-0.8,0.9-1.4,1.6-1.8c0.7-0.4,1.4-0.6,2.3-0.6
			c0.9,0,1.7,0.2,2.4,0.6c0.7,0.4,1.2,1,1.6,1.8c0.4,0.8,0.6,1.7,0.6,2.7c0,1-0.2,1.9-0.6,2.7c-0.4,0.8-0.9,1.4-1.6,1.8
			C894.4,207.9,893.6,208.1,892.7,208.1z M892.7,206.2c0.7,0,1.3-0.3,1.7-0.9c0.4-0.6,0.6-1.4,0.6-2.4c0-1-0.2-1.8-0.6-2.4
			c-0.4-0.6-1-0.9-1.7-0.9c-0.7,0-1.3,0.3-1.7,0.8c-0.4,0.6-0.6,1.4-0.6,2.4s0.2,1.9,0.6,2.4C891.5,206,892,206.2,892.7,206.2z"/>
	</g>
	<g>
		<path id="Montserrat-SemiBold-3c" class="st8" d="M960.1,213.5l-12.3-4.8v-2.9l12.3-4.8v2.8l-11.2,4.2v-1.5l11.2,4.2V213.5z"/>
	</g>
	<g>
		<path id="Montserrat-SemiBold-31_00000080896406715883553050000017262390512487689348_" class="st8" d="M966,216.6v-17.3l1.5,1.6
			H962v-2.9h7.4v18.7H966z"/>
	</g>
	<g>
		<path id="Montserrat-SemiBold-25_00000023976619661312977040000011859179593357835156_" class="st8" d="M975.8,216.6l12.7-18.7
			h2.6l-12.7,18.7H975.8z M977.3,208c-0.9,0-1.6-0.2-2.3-0.6c-0.7-0.4-1.2-1-1.6-1.8c-0.4-0.8-0.6-1.7-0.6-2.7c0-1,0.2-1.9,0.6-2.7
			c0.4-0.8,0.9-1.4,1.6-1.8c0.7-0.4,1.4-0.6,2.3-0.6c0.9,0,1.7,0.2,2.4,0.6c0.7,0.4,1.2,1,1.6,1.8c0.4,0.8,0.6,1.7,0.6,2.7
			c0,1-0.2,1.9-0.6,2.7c-0.4,0.8-0.9,1.4-1.6,1.8C979,207.8,978.2,208,977.3,208z M977.3,206.1c0.7,0,1.3-0.3,1.7-0.8
			c0.4-0.6,0.6-1.4,0.6-2.4c0-1-0.2-1.9-0.6-2.4c-0.4-0.6-1-0.8-1.7-0.8s-1.3,0.3-1.7,0.9c-0.4,0.6-0.6,1.4-0.6,2.4
			c0,1,0.2,1.8,0.6,2.4C976.1,205.8,976.6,206.1,977.3,206.1z M989.5,216.8c-0.9,0-1.6-0.2-2.3-0.6c-0.7-0.4-1.2-1-1.6-1.8
			c-0.4-0.8-0.6-1.7-0.6-2.7c0-1,0.2-1.9,0.6-2.7c0.4-0.8,0.9-1.4,1.6-1.8c0.7-0.4,1.4-0.6,2.3-0.6c0.9,0,1.7,0.2,2.4,0.6
			c0.7,0.4,1.2,1,1.6,1.8c0.4,0.8,0.6,1.7,0.6,2.7c0,1-0.2,1.9-0.6,2.7c-0.4,0.8-0.9,1.4-1.6,1.8
			C991.2,216.6,990.5,216.8,989.5,216.8z M989.5,214.9c0.7,0,1.3-0.3,1.7-0.9c0.4-0.6,0.6-1.4,0.6-2.4c0-1-0.2-1.8-0.6-2.4
			c-0.4-0.6-1-0.9-1.7-0.9c-0.7,0-1.3,0.3-1.7,0.8c-0.4,0.6-0.6,1.4-0.6,2.4c0,1,0.2,1.9,0.6,2.4
			C988.3,214.6,988.9,214.9,989.5,214.9z"/>
	</g>
	<path class="st3" d="M0,237.9h88v-69H0V237.9z"/>
	<path class="st3" d="M92.6,237.9h88v-49.3h-88V237.9z"/>
	<path class="st3" d="M185.3,237.9h88v-69h-88V237.9z"/>
	<path class="st3" d="M277.9,237.9h88V109.7h-88V237.9z"/>
	<path class="st3" d="M370.6,237.9h88V30.8h-88V237.9z"/>
	<path class="st2" d="M463.2,237.9h88V51.6h-88V237.9z"/>
	<path class="st0" d="M555.9,237.9h88V90.8h-88V237.9z"/>
	<path class="st4" d="M648.5,237.9h88v-87.7h-88V237.9z"/>
	<path class="st5" d="M741.2,237.9h88v-32.4h-88V237.9z"/>
	<path class="st6" d="M833.8,237.9h88v-10.3h-88V237.9z"/>
	<path class="st7" d="M926.5,237.9h88V233h-88V237.9z"/>
</g>
</svg>
