<?xml version="1.0" encoding="utf-8"?>
<!-- Generator: Adobe Illustrator 27.0.0, SVG Export Plug-In . SVG Version: 6.00 Build 0)  -->
<svg version="1.1" id="Layer_1" xmlns="http://www.w3.org/2000/svg" xmlns:xlink="http://www.w3.org/1999/xlink" x="0px" y="0px"
	 viewBox="0 0 1024 319.2" style="enable-background:new 0 0 1024 319.2;" xml:space="preserve">
<style type="text/css">
	.st0{fill:#FDD400;}
	.st1{fill:#001837;}
	.st2{fill:#FA9101;}
	.st3{fill:#D62015;}
	.st4{fill:#FDF300;}
	.st5{fill:#D8DB1A;}
	.st6{fill:#9ADE27;}
	.st7{fill:#00BD00;}
	.st8{fill:#667487;}
</style>
<path class="st0" d="M555.9,260.4h87.9l9.5,17l-9.5,17h-87.9l9.5-17L555.9,260.4z"/>
<path class="st1" d="M602.7,276.3h5.4v2h-5.4V276.3z M602.8,280.9h6.1v2.1h-8.7v-11.2h8.5v2.1h-5.9L602.8,280.9L602.8,280.9z"/>
<path class="st2" d="M463.3,260.4h87.9l9.5,17l-9.5,17h-87.9l9.5-17L463.3,260.4z"/>
<path class="st3" d="M0.3,260.4h458.3l9.5,17l-9.5,17H0.3l9.5-17L0.3,260.4z"/>
<path class="st4" d="M648.6,260.4h87.9l9.5,17l-9.5,17h-87.9l9.5-17L648.6,260.4z"/>
<path class="st1" d="M691.6,283v-11.2h5.1c1.2,0,2.3,0.2,3.2,0.7s1.7,1.1,2.2,1.9s0.8,1.8,0.8,3s-0.3,2.1-0.8,3
	c-0.5,0.8-1.2,1.5-2.2,2c-0.9,0.5-2,0.7-3.2,0.7h-5.1V283z M694.2,280.9h2.4c0.8,0,1.4-0.1,1.9-0.4s1-0.7,1.3-1.2s0.5-1.1,0.5-1.8
	s-0.2-1.3-0.5-1.8s-0.7-0.9-1.3-1.2c-0.5-0.3-1.2-0.4-1.9-0.4h-2.4V280.9L694.2,280.9z"/>
<path class="st5" d="M741.2,260.4h88l9.5,17l-9.5,17h-88l9.5-17L741.2,260.4z"/>
<path class="st1" d="M790.7,283.2c-0.9,0-1.7-0.1-2.4-0.4s-1.4-0.7-1.9-1.2s-1-1.1-1.3-1.8c-0.3-0.7-0.5-1.5-0.5-2.3
	s0.2-1.6,0.5-2.3c0.3-0.7,0.7-1.3,1.3-1.8c0.5-0.5,1.2-0.9,1.9-1.2s1.5-0.4,2.4-0.4c1,0,1.8,0.2,2.6,0.5s1.5,0.8,2,1.5l-1.7,1.5
	c-0.4-0.4-0.8-0.8-1.3-1s-1-0.3-1.5-0.3s-1,0.1-1.4,0.3c-0.4,0.2-0.8,0.4-1.1,0.7c-0.3,0.3-0.6,0.7-0.8,1.1s-0.3,0.9-0.3,1.5
	s0.1,1,0.3,1.5s0.4,0.8,0.8,1.1s0.7,0.6,1.1,0.7c0.4,0.2,0.9,0.3,1.4,0.3s1.1-0.1,1.5-0.3c0.5-0.2,0.9-0.6,1.3-1l1.7,1.5
	c-0.5,0.6-1.2,1.1-2,1.5C792.5,283.1,791.7,283.2,790.7,283.2L790.7,283.2z"/>
<path class="st6" d="M833.9,260.4h88l9.5,17l-9.5,17h-88l9.5-17L833.9,260.4z"/>
<path class="st1" d="M877.5,283v-11.2h5.5c1.4,0,2.5,0.3,3.2,0.8s1.1,1.2,1.1,2.1c0,0.6-0.1,1.1-0.4,1.5c-0.3,0.4-0.7,0.8-1.2,1
	s-1.1,0.4-1.7,0.4l0.3-0.7c0.7,0,1.3,0.1,1.9,0.4c0.5,0.2,1,0.6,1.3,1c0.3,0.5,0.5,1,0.5,1.6c0,1-0.4,1.7-1.1,2.3
	c-0.8,0.5-1.9,0.8-3.3,0.8L877.5,283L877.5,283z M880.1,281.1h3c0.7,0,1.2-0.1,1.5-0.3c0.3-0.2,0.5-0.6,0.5-1.1s-0.2-0.8-0.5-1
	s-0.8-0.4-1.5-0.4h-3.2v-1.9h2.8c0.6,0,1.1-0.1,1.4-0.3c0.3-0.2,0.5-0.6,0.5-1s-0.2-0.8-0.5-1s-0.8-0.3-1.4-0.3h-2.6V281.1
	L880.1,281.1z"/>
<path class="st7" d="M926.5,260.4h88l9.5,17l-9.5,17h-88l9.5-17L926.5,260.4L926.5,260.4z"/>
<path class="st1" d="M969,283l5-11.2h2.6l5,11.2h-2.7l-4.1-9.9h1l-4.1,9.9H969L969,283z M971.5,280.6l0.7-2h5.8l0.7,2H971.5
	L971.5,280.6z"/>
<path class="st1" d="M234.8,283.2c-0.9,0-1.7-0.1-2.4-0.4s-1.4-0.7-1.9-1.2s-1-1.1-1.3-1.8c-0.3-0.7-0.4-1.5-0.4-2.3
	s0.1-1.6,0.4-2.3c0.3-0.7,0.7-1.3,1.3-1.8s1.2-0.9,1.9-1.2c0.8-0.3,1.6-0.4,2.5-0.4c1,0,1.9,0.2,2.7,0.5s1.5,0.8,2,1.4l-1.7,1.5
	c-0.4-0.4-0.9-0.7-1.3-0.9c-0.5-0.2-1-0.3-1.6-0.3s-1,0.1-1.5,0.3c-0.4,0.2-0.8,0.4-1.2,0.7c-0.3,0.3-0.6,0.7-0.8,1.1
	s-0.3,0.9-0.3,1.5s0.1,1,0.3,1.4s0.4,0.8,0.8,1.1c0.3,0.3,0.7,0.6,1.1,0.7c0.4,0.2,0.9,0.3,1.5,0.3s1-0.1,1.5-0.2
	c0.5-0.2,1-0.5,1.4-0.9l1.5,1.9c-0.6,0.5-1.3,0.8-2.1,1.1C236.4,283.1,235.6,283.2,234.8,283.2L234.8,283.2z M237,281.5v-4.2h2.4
	v4.5L237,281.5L237,281.5z"/>
<path class="st1" d="M510.1,276.9h5.4v2.1h-5.4V276.9z M510.3,283h-2.6v-11.2h8.5v2.1h-5.9L510.3,283L510.3,283z"/>
<g>
	<path d="M1016.9,308.9c-0.7,0-1.3-0.2-1.8-0.5s-1-0.8-1.3-1.5c-0.3-0.6-0.5-1.4-0.5-2.4c0-0.9,0.2-1.7,0.5-2.4
		c0.3-0.6,0.7-1.1,1.3-1.5s1.2-0.5,1.8-0.5c0.7,0,1.3,0.2,1.9,0.5s1,0.8,1.3,1.5c0.3,0.6,0.5,1.4,0.5,2.4c0,0.9-0.2,1.7-0.5,2.4
		c-0.3,0.6-0.7,1.1-1.3,1.5C1018.2,308.7,1017.6,308.9,1016.9,308.9z M1016.9,307.3c0.3,0,0.6-0.1,0.9-0.3c0.2-0.2,0.4-0.5,0.6-0.9
		c0.1-0.4,0.2-0.9,0.2-1.5s-0.1-1.1-0.2-1.5c-0.1-0.4-0.3-0.7-0.6-0.9c-0.2-0.2-0.5-0.3-0.9-0.3c-0.3,0-0.6,0.1-0.8,0.3
		c-0.2,0.2-0.4,0.5-0.6,0.9c-0.1,0.4-0.2,0.9-0.2,1.5s0.1,1.1,0.2,1.5c0.1,0.4,0.3,0.7,0.6,0.9
		C1016.3,307.2,1016.5,307.3,1016.9,307.3z"/>
</g>
<g>
	<path d="M916.9,307v-1.3l4-5.3h2l-3.9,5.3l-1-0.3h6.6v1.6L916.9,307L916.9,307z M921.4,308.8V307l0.1-1.6v-1.6h1.8v4.9h-1.9
		L921.4,308.8L921.4,308.8z"/>
	<path d="M928.1,308.9c-0.6,0-1.2-0.1-1.7-0.2s-1.1-0.4-1.5-0.7l0.8-1.5c0.3,0.2,0.7,0.4,1.1,0.6c0.4,0.1,0.8,0.2,1.3,0.2
		s0.9-0.1,1.2-0.3c0.3-0.2,0.4-0.5,0.4-0.8c0-0.2-0.1-0.4-0.2-0.6c-0.1-0.2-0.3-0.3-0.6-0.4s-0.7-0.1-1.2-0.1h-2.1l0.4-4.7h5.1v1.6
		h-4.4l1-0.9l-0.3,3.4l-1-0.9h1.8c0.8,0,1.5,0.1,2,0.3c0.5,0.2,0.9,0.5,1.1,0.9c0.2,0.4,0.4,0.8,0.4,1.3s-0.1,0.9-0.4,1.4
		c-0.2,0.4-0.6,0.8-1.1,1C929.6,308.8,928.9,308.9,928.1,308.9z"/>
</g>
<g>
	<path d="M827.6,300.2c0.8,0,1.4,0.2,2,0.5s1,0.8,1.3,1.4s0.5,1.4,0.5,2.3c0,1-0.2,1.8-0.5,2.5s-0.9,1.2-1.5,1.5
		c-0.6,0.4-1.4,0.5-2.2,0.5c-0.4,0-0.9,0-1.3-0.1s-0.8-0.2-1.1-0.4l0.7-1.4c0.2,0.2,0.5,0.3,0.8,0.3c0.3,0.1,0.5,0.1,0.8,0.1
		c0.7,0,1.3-0.2,1.7-0.7c0.4-0.4,0.6-1.1,0.6-1.9c0-0.1,0-0.3,0-0.5s0-0.4-0.1-0.5l0.5,0.5c-0.1,0.3-0.3,0.6-0.6,0.8
		c-0.2,0.2-0.5,0.4-0.9,0.5c-0.3,0.1-0.7,0.2-1.1,0.2c-0.5,0-1-0.1-1.5-0.3c-0.4-0.2-0.8-0.5-1-0.9c-0.3-0.4-0.4-0.9-0.4-1.4
		c0-0.6,0.1-1.1,0.4-1.5c0.3-0.4,0.7-0.7,1.2-1C826.5,300.3,827,300.2,827.6,300.2z M827.7,301.7c-0.3,0-0.5,0-0.7,0.1
		s-0.4,0.2-0.5,0.4c-0.1,0.2-0.2,0.4-0.2,0.7c0,0.4,0.1,0.7,0.4,0.9c0.3,0.2,0.6,0.3,1,0.3c0.3,0,0.5-0.1,0.8-0.2
		c0.2-0.1,0.4-0.3,0.5-0.5s0.2-0.4,0.2-0.7c0-0.2-0.1-0.4-0.2-0.6c-0.1-0.2-0.3-0.3-0.5-0.4C828.3,301.7,828,301.7,827.7,301.7z"/>
	<path d="M835.1,308.9c-0.6,0-1.2-0.1-1.7-0.2s-1.1-0.4-1.5-0.7l0.8-1.5c0.3,0.2,0.7,0.4,1.1,0.6c0.4,0.1,0.8,0.2,1.3,0.2
		s0.9-0.1,1.2-0.3c0.3-0.2,0.4-0.5,0.4-0.8c0-0.2-0.1-0.4-0.2-0.6c-0.1-0.2-0.3-0.3-0.6-0.4s-0.7-0.1-1.2-0.1h-2.1l0.4-4.7h5.1v1.6
		h-4.4l1-0.9l-0.3,3.4l-1-0.9h1.8c0.8,0,1.5,0.1,2,0.3c0.5,0.2,0.9,0.5,1.1,0.9c0.2,0.4,0.4,0.8,0.4,1.3s-0.1,0.9-0.4,1.4
		c-0.2,0.4-0.6,0.8-1.1,1C836.6,308.8,835.9,308.9,835.1,308.9z"/>
</g>
<g>
	<path d="M730.7,308.8v-7.7l0.8,0.8H729v-1.6h3.6v8.4h-1.9L730.7,308.8L730.7,308.8z"/>
	<path d="M736.9,308.9c-0.6,0-1.2-0.1-1.7-0.2s-1.1-0.4-1.5-0.7l0.8-1.5c0.3,0.2,0.7,0.4,1.1,0.6c0.4,0.1,0.8,0.2,1.3,0.2
		s0.9-0.1,1.2-0.3c0.3-0.2,0.4-0.5,0.4-0.8c0-0.2-0.1-0.4-0.2-0.6c-0.1-0.2-0.3-0.3-0.6-0.4s-0.7-0.1-1.2-0.1h-2.1l0.4-4.7h5.1v1.6
		h-4.4l1-0.9l-0.3,3.4l-1-0.9h1.8c0.8,0,1.5,0.1,2,0.3c0.5,0.2,0.9,0.5,1.1,0.9c0.2,0.4,0.4,0.8,0.4,1.3s-0.1,0.9-0.4,1.4
		c-0.2,0.4-0.6,0.8-1.1,1C738.4,308.8,737.7,308.9,736.9,308.9z"/>
	<path d="M744.8,308.9c-0.7,0-1.3-0.2-1.8-0.5s-1-0.8-1.3-1.5c-0.3-0.6-0.5-1.4-0.5-2.4c0-0.9,0.2-1.7,0.5-2.4
		c0.3-0.6,0.7-1.1,1.3-1.5s1.2-0.5,1.8-0.5c0.7,0,1.3,0.2,1.9,0.5s1,0.8,1.3,1.5c0.3,0.6,0.5,1.4,0.5,2.4c0,0.9-0.2,1.7-0.5,2.4
		c-0.3,0.6-0.7,1.1-1.3,1.5C746.1,308.7,745.5,308.9,744.8,308.9z M744.8,307.3c0.3,0,0.6-0.1,0.9-0.3c0.2-0.2,0.4-0.5,0.6-0.9
		c0.1-0.4,0.2-0.9,0.2-1.5s-0.1-1.1-0.2-1.5c-0.1-0.4-0.3-0.7-0.6-0.9c-0.2-0.2-0.5-0.3-0.9-0.3c-0.3,0-0.6,0.1-0.8,0.3
		c-0.2,0.2-0.4,0.5-0.6,0.9c-0.1,0.4-0.2,0.9-0.2,1.5s0.1,1.1,0.2,1.5c0.1,0.4,0.3,0.7,0.6,0.9C744.2,307.2,744.5,307.3,744.8,307.3
		z"/>
</g>
<g>
	<path d="M636.7,308.8v-1.3l3.2-3.1c0.3-0.2,0.4-0.4,0.6-0.6c0.1-0.2,0.2-0.3,0.2-0.5s0.1-0.3,0.1-0.4c0-0.3-0.1-0.6-0.3-0.8
		c-0.2-0.2-0.6-0.3-1-0.3s-0.7,0.1-1,0.2s-0.5,0.4-0.8,0.6l-1.4-0.9c0.3-0.5,0.8-0.9,1.3-1.1c0.6-0.3,1.2-0.4,2-0.4
		c0.6,0,1.2,0.1,1.6,0.3c0.5,0.2,0.8,0.5,1.1,0.9s0.4,0.8,0.4,1.3c0,0.3,0,0.5-0.1,0.8s-0.2,0.6-0.4,0.9s-0.5,0.6-0.9,1l-2.7,2.5
		l-0.4-0.7h4.8v1.6H636.7z"/>
	<path d="M645.1,308.8v-7.7l0.8,0.8h-2.5v-1.6h3.6v8.4h-1.9L645.1,308.8L645.1,308.8z"/>
	<path d="M652.1,308.9c-0.7,0-1.3-0.2-1.8-0.5s-1-0.8-1.3-1.5c-0.3-0.6-0.5-1.4-0.5-2.4c0-0.9,0.2-1.7,0.5-2.4
		c0.3-0.6,0.7-1.1,1.3-1.5s1.2-0.5,1.8-0.5c0.7,0,1.3,0.2,1.9,0.5s1,0.8,1.3,1.5c0.3,0.6,0.5,1.4,0.5,2.4c0,0.9-0.2,1.7-0.5,2.4
		c-0.3,0.6-0.7,1.1-1.3,1.5C653.4,308.7,652.8,308.9,652.1,308.9z M652.1,307.3c0.3,0,0.6-0.1,0.9-0.3c0.2-0.2,0.4-0.5,0.6-0.9
		c0.1-0.4,0.2-0.9,0.2-1.5s-0.1-1.1-0.2-1.5c-0.1-0.4-0.3-0.7-0.6-0.9c-0.2-0.2-0.5-0.3-0.9-0.3c-0.3,0-0.6,0.1-0.8,0.3
		c-0.2,0.2-0.4,0.5-0.6,0.9c-0.1,0.4-0.2,0.9-0.2,1.5s0.1,1.1,0.2,1.5c0.1,0.4,0.3,0.7,0.6,0.9C651.5,307.2,651.8,307.3,652.1,307.3
		z"/>
</g>
<g>
	<path d="M543.2,308.8v-1.3l3.2-3.1c0.3-0.2,0.4-0.4,0.6-0.6c0.1-0.2,0.2-0.3,0.2-0.5s0.1-0.3,0.1-0.4c0-0.3-0.1-0.6-0.3-0.8
		c-0.2-0.2-0.6-0.3-1-0.3s-0.7,0.1-1,0.2s-0.5,0.4-0.8,0.6l-1.4-0.9c0.3-0.5,0.8-0.9,1.3-1.1c0.6-0.3,1.2-0.4,2-0.4
		c0.6,0,1.2,0.1,1.6,0.3c0.5,0.2,0.8,0.5,1.1,0.9s0.4,0.8,0.4,1.3c0,0.3,0,0.5-0.1,0.8s-0.2,0.6-0.4,0.9s-0.5,0.6-0.9,1l-2.7,2.5
		l-0.4-0.7h4.8v1.6H543.2z"/>
	<path d="M551.7,308.8l3.4-7.7l0.5,0.8h-4.5l0.8-0.9v2.3h-1.7v-3h6.7v1.3l-3.1,7.1h-2.1L551.7,308.8L551.7,308.8z"/>
	<path d="M560.5,308.9c-0.6,0-1.2-0.1-1.7-0.2s-1.1-0.4-1.5-0.7l0.8-1.5c0.3,0.2,0.7,0.4,1.1,0.6c0.4,0.1,0.8,0.2,1.3,0.2
		s0.9-0.1,1.2-0.3c0.3-0.2,0.4-0.5,0.4-0.8c0-0.2-0.1-0.4-0.2-0.6c-0.1-0.2-0.3-0.3-0.6-0.4s-0.7-0.1-1.2-0.1H558l0.4-4.7h5.1v1.6
		H559l1-0.9l-0.3,3.4l-1-0.9h1.8c0.8,0,1.5,0.1,2,0.3c0.5,0.2,0.9,0.5,1.1,0.9c0.2,0.4,0.4,0.8,0.4,1.3s-0.1,0.9-0.4,1.4
		c-0.2,0.4-0.6,0.8-1.1,1C561.9,308.8,561.3,308.9,560.5,308.9z"/>
</g>
<g>
	<path d="M452.8,308.9c-0.6,0-1.2-0.1-1.7-0.2c-0.6-0.2-1.1-0.4-1.5-0.7l0.8-1.5c0.3,0.2,0.7,0.4,1.1,0.6c0.4,0.1,0.9,0.2,1.3,0.2
		c0.5,0,0.9-0.1,1.2-0.3c0.3-0.2,0.4-0.5,0.4-0.8s-0.1-0.6-0.4-0.8c-0.2-0.2-0.6-0.3-1.2-0.3h-0.9v-1.3l2.3-2.7l0.2,0.7H450v-1.6
		h5.9v1.3l-2.3,2.7l-1-0.6h0.6c1,0,1.8,0.2,2.3,0.7s0.8,1.1,0.8,1.8c0,0.5-0.1,0.9-0.4,1.3s-0.6,0.8-1.1,1
		C454.3,308.8,453.6,308.9,452.8,308.9z"/>
	<path d="M457.1,307v-1.3l4-5.3h2l-3.9,5.3l-1-0.3h6.6v1.6L457.1,307L457.1,307z M461.6,308.8V307l0.1-1.6v-1.6h1.8v4.9h-1.9V308.8z
		"/>
	<path d="M468.3,308.9c-0.6,0-1.2-0.1-1.7-0.2s-1.1-0.4-1.5-0.7l0.8-1.5c0.3,0.2,0.7,0.4,1.1,0.6c0.4,0.1,0.8,0.2,1.3,0.2
		s0.9-0.1,1.2-0.3c0.3-0.2,0.4-0.5,0.4-0.8c0-0.2-0.1-0.4-0.2-0.6s-0.3-0.3-0.6-0.4s-0.7-0.1-1.2-0.1h-2.1l0.4-4.7h5.1v1.6h-4.4
		l1-0.9l-0.3,3.4l-1-0.9h1.8c0.8,0,1.5,0.1,2,0.3c0.5,0.2,0.9,0.5,1.1,0.9s0.4,0.8,0.4,1.3s-0.1,0.9-0.4,1.4c-0.2,0.4-0.6,0.8-1.1,1
		C469.8,308.8,469.1,308.9,468.3,308.9z"/>
</g>
<g>
	<path d="M356.9,307v-1.3l4-5.3h2l-3.9,5.3l-1-0.3h6.6v1.6L356.9,307L356.9,307z M361.4,308.8V307l0.1-1.6v-1.6h1.8v4.9h-1.9V308.8z
		"/>
	<path d="M365.2,308.8v-1.3l3.2-3.1c0.3-0.2,0.4-0.4,0.6-0.6c0.1-0.2,0.2-0.3,0.2-0.5s0.1-0.3,0.1-0.4c0-0.3-0.1-0.6-0.3-0.8
		c-0.2-0.2-0.6-0.3-1-0.3s-0.7,0.1-1,0.2s-0.5,0.4-0.8,0.6l-1.4-0.9c0.3-0.5,0.8-0.9,1.3-1.1c0.6-0.3,1.2-0.4,2-0.4
		c0.6,0,1.2,0.1,1.6,0.3c0.5,0.2,0.8,0.5,1.1,0.9s0.4,0.8,0.4,1.3c0,0.3,0,0.5-0.1,0.8s-0.2,0.6-0.4,0.9s-0.5,0.6-0.9,1l-2.7,2.5
		l-0.4-0.7h4.8v1.6H365.2z"/>
	<path d="M375.9,308.9c-0.7,0-1.3-0.2-1.8-0.5s-1-0.8-1.3-1.5c-0.3-0.6-0.5-1.4-0.5-2.4c0-0.9,0.2-1.7,0.5-2.4
		c0.3-0.6,0.7-1.1,1.3-1.5s1.2-0.5,1.8-0.5c0.7,0,1.3,0.2,1.9,0.5s1,0.8,1.3,1.5c0.3,0.6,0.5,1.4,0.5,2.4c0,0.9-0.2,1.7-0.5,2.4
		c-0.3,0.6-0.7,1.1-1.3,1.5C377.2,308.7,376.6,308.9,375.9,308.9z M375.9,307.3c0.3,0,0.6-0.1,0.9-0.3c0.2-0.2,0.4-0.5,0.6-0.9
		c0.1-0.4,0.2-0.9,0.2-1.5s-0.1-1.1-0.2-1.5s-0.3-0.7-0.6-0.9c-0.2-0.2-0.5-0.3-0.9-0.3c-0.3,0-0.6,0.1-0.8,0.3
		c-0.2,0.2-0.4,0.5-0.6,0.9c-0.1,0.4-0.2,0.9-0.2,1.5s0.1,1.1,0.2,1.5s0.3,0.7,0.6,0.9C375.3,307.2,375.6,307.3,375.9,307.3z"/>
</g>
<g>
	<path d="M267.2,308.9c-0.6,0-1.2-0.1-1.7-0.2s-1.1-0.4-1.5-0.7l0.8-1.5c0.3,0.2,0.7,0.4,1.1,0.6c0.4,0.1,0.8,0.2,1.3,0.2
		s0.9-0.1,1.2-0.3c0.3-0.2,0.4-0.5,0.4-0.8c0-0.2-0.1-0.4-0.2-0.6s-0.3-0.3-0.6-0.4s-0.7-0.1-1.2-0.1h-2.1l0.4-4.7h5.1v1.6h-4.4
		l1-0.9l-0.3,3.4l-1-0.9h1.8c0.8,0,1.5,0.1,2,0.3c0.5,0.2,0.9,0.5,1.1,0.9s0.4,0.8,0.4,1.3s-0.1,0.9-0.4,1.4c-0.2,0.4-0.6,0.8-1.1,1
		C268.6,308.8,268,308.9,267.2,308.9z"/>
	<path d="M275.1,308.9c-0.7,0-1.3-0.2-1.8-0.5s-1-0.8-1.3-1.5c-0.3-0.6-0.5-1.4-0.5-2.4c0-0.9,0.2-1.7,0.5-2.4
		c0.3-0.6,0.7-1.1,1.3-1.5s1.2-0.5,1.8-0.5c0.7,0,1.3,0.2,1.9,0.5s1,0.8,1.3,1.5c0.3,0.6,0.5,1.4,0.5,2.4c0,0.9-0.2,1.7-0.5,2.4
		c-0.3,0.6-0.7,1.1-1.3,1.5C276.4,308.7,275.8,308.9,275.1,308.9z M275.1,307.3c0.3,0,0.6-0.1,0.9-0.3c0.2-0.2,0.4-0.5,0.6-0.9
		c0.1-0.4,0.2-0.9,0.2-1.5s-0.1-1.1-0.2-1.5s-0.3-0.7-0.6-0.9c-0.2-0.2-0.5-0.3-0.9-0.3c-0.3,0-0.6,0.1-0.8,0.3
		c-0.2,0.2-0.4,0.5-0.6,0.9c-0.1,0.4-0.2,0.9-0.2,1.5s0.1,1.1,0.2,1.5s0.3,0.7,0.6,0.9C274.5,307.2,274.8,307.3,275.1,307.3z"/>
	<path d="M283.2,308.9c-0.7,0-1.3-0.2-1.8-0.5s-1-0.8-1.3-1.5c-0.3-0.6-0.5-1.4-0.5-2.4c0-0.9,0.2-1.7,0.5-2.4
		c0.3-0.6,0.7-1.1,1.3-1.5s1.2-0.5,1.8-0.5c0.7,0,1.3,0.2,1.9,0.5s1,0.8,1.3,1.5c0.3,0.6,0.5,1.4,0.5,2.4c0,0.9-0.2,1.7-0.5,2.4
		c-0.3,0.6-0.7,1.1-1.3,1.5C284.5,308.7,283.9,308.9,283.2,308.9z M283.2,307.3c0.3,0,0.6-0.1,0.9-0.3c0.2-0.2,0.4-0.5,0.6-0.9
		c0.1-0.4,0.2-0.9,0.2-1.5s-0.1-1.1-0.2-1.5s-0.3-0.7-0.6-0.9c-0.2-0.2-0.5-0.3-0.9-0.3c-0.3,0-0.6,0.1-0.8,0.3
		c-0.2,0.2-0.4,0.5-0.6,0.9c-0.1,0.4-0.2,0.9-0.2,1.5s0.1,1.1,0.2,1.5s0.3,0.7,0.6,0.9C282.6,307.2,282.9,307.3,283.2,307.3z"/>
</g>
<g>
	<path d="M174.6,308.9c-0.6,0-1.2-0.1-1.7-0.2s-1.1-0.4-1.5-0.7l0.8-1.5c0.3,0.2,0.7,0.4,1.1,0.6c0.4,0.1,0.8,0.2,1.3,0.2
		s0.9-0.1,1.2-0.3c0.3-0.2,0.4-0.5,0.4-0.8c0-0.2-0.1-0.4-0.2-0.6c-0.1-0.2-0.3-0.3-0.6-0.4s-0.7-0.1-1.2-0.1h-2.1l0.4-4.7h5.1v1.6
		h-4.4l1-0.9l-0.3,3.4l-1-0.9h1.8c0.8,0,1.5,0.1,2,0.3c0.5,0.2,0.9,0.5,1.1,0.9c0.2,0.4,0.4,0.8,0.4,1.3s-0.1,0.9-0.4,1.4
		c-0.2,0.4-0.6,0.8-1.1,1C176.1,308.8,175.4,308.9,174.6,308.9z"/>
	<path d="M182.4,308.9c-0.7,0-1.3-0.1-1.9-0.3c-0.5-0.2-0.9-0.5-1.2-0.9s-0.4-0.8-0.4-1.4c0-0.5,0.1-1,0.4-1.3
		c0.3-0.4,0.7-0.6,1.2-0.8s1.2-0.3,1.9-0.3s1.3,0.1,1.9,0.3c0.5,0.2,0.9,0.5,1.2,0.8s0.4,0.8,0.4,1.3s-0.1,1-0.4,1.4
		c-0.3,0.4-0.7,0.7-1.2,0.9C183.7,308.8,183.1,308.9,182.4,308.9z M182.4,304.9c-0.6,0-1.2-0.1-1.7-0.3c-0.5-0.2-0.9-0.4-1.1-0.8
		c-0.3-0.3-0.4-0.8-0.4-1.2c0-0.5,0.1-0.9,0.4-1.3c0.3-0.4,0.7-0.6,1.1-0.8c0.5-0.2,1-0.3,1.7-0.3c0.6,0,1.2,0.1,1.7,0.3
		c0.5,0.2,0.9,0.5,1.1,0.8c0.3,0.4,0.4,0.8,0.4,1.3s-0.1,0.9-0.4,1.2s-0.6,0.6-1.1,0.8C183.6,304.8,183.1,304.9,182.4,304.9z
		 M182.4,307.5c0.5,0,0.9-0.1,1.2-0.3c0.3-0.2,0.4-0.5,0.4-0.9s-0.1-0.6-0.4-0.9c-0.3-0.2-0.7-0.3-1.2-0.3s-0.9,0.1-1.1,0.3
		s-0.4,0.5-0.4,0.9s0.1,0.7,0.4,0.9C181.5,307.4,181.9,307.5,182.4,307.5z M182.4,303.7c0.4,0,0.7-0.1,1-0.3
		c0.2-0.2,0.4-0.4,0.4-0.8s-0.1-0.6-0.4-0.8c-0.2-0.2-0.6-0.3-1-0.3s-0.7,0.1-0.9,0.3c-0.2,0.2-0.4,0.4-0.4,0.8
		c0,0.3,0.1,0.6,0.3,0.8C181.7,303.6,182,303.7,182.4,303.7z"/>
	<path d="M190.4,308.9c-0.7,0-1.3-0.2-1.8-0.5s-1-0.8-1.3-1.5c-0.3-0.6-0.5-1.4-0.5-2.4c0-0.9,0.2-1.7,0.5-2.4
		c0.3-0.6,0.7-1.1,1.3-1.5s1.2-0.5,1.8-0.5c0.7,0,1.3,0.2,1.9,0.5s1,0.8,1.3,1.5c0.3,0.6,0.5,1.4,0.5,2.4c0,0.9-0.2,1.7-0.5,2.4
		c-0.3,0.6-0.7,1.1-1.3,1.5C191.8,308.7,191.1,308.9,190.4,308.9z M190.4,307.3c0.3,0,0.6-0.1,0.9-0.3c0.2-0.2,0.4-0.5,0.6-0.9
		c0.1-0.4,0.2-0.9,0.2-1.5s-0.1-1.1-0.2-1.5c-0.1-0.4-0.3-0.7-0.6-0.9c-0.2-0.2-0.5-0.3-0.9-0.3c-0.3,0-0.6,0.1-0.8,0.3
		c-0.2,0.2-0.4,0.5-0.6,0.9c-0.1,0.4-0.2,0.9-0.2,1.5s0.1,1.1,0.2,1.5c0.1,0.4,0.3,0.7,0.6,0.9C189.9,307.2,190.1,307.3,190.4,307.3
		z"/>
</g>
<g>
	<path d="M82.8,308.9c-0.8,0-1.4-0.2-2-0.5s-1-0.8-1.3-1.4s-0.5-1.4-0.5-2.3c0-1,0.2-1.8,0.5-2.5c0.4-0.7,0.9-1.2,1.5-1.5
		c0.6-0.4,1.4-0.5,2.2-0.5c0.4,0,0.9,0,1.3,0.2c0.4,0.1,0.8,0.2,1.1,0.4l-0.7,1.4c-0.2-0.2-0.5-0.3-0.7-0.3
		c-0.3-0.1-0.5-0.1-0.8-0.1c-0.7,0-1.3,0.2-1.7,0.7c-0.4,0.4-0.6,1.1-0.6,2c0,0.1,0,0.3,0,0.5s0,0.4,0.1,0.5l-0.5-0.5
		c0.2-0.3,0.3-0.6,0.6-0.8c0.2-0.2,0.5-0.4,0.9-0.5c0.3-0.1,0.7-0.2,1.1-0.2c0.5,0,1,0.1,1.5,0.3c0.4,0.2,0.8,0.5,1,0.9
		c0.3,0.4,0.4,0.9,0.4,1.4c0,0.6-0.1,1.1-0.4,1.5s-0.7,0.7-1.1,1C83.9,308.8,83.4,308.9,82.8,308.9z M82.7,307.5
		c0.3,0,0.5,0,0.7-0.2c0.2-0.1,0.4-0.2,0.5-0.4c0.1-0.2,0.2-0.4,0.2-0.7c0-0.4-0.1-0.7-0.4-0.9c-0.3-0.2-0.6-0.3-1-0.3
		c-0.3,0-0.5,0.1-0.8,0.2c-0.2,0.1-0.4,0.3-0.5,0.5s-0.2,0.4-0.2,0.7c0,0.2,0.1,0.4,0.2,0.6s0.3,0.3,0.5,0.4
		C82.1,307.4,82.4,307.5,82.7,307.5z"/>
	<path d="M90.4,308.9c-0.8,0-1.4-0.2-2-0.5s-1-0.8-1.3-1.4s-0.5-1.4-0.5-2.3c0-1,0.2-1.8,0.5-2.5c0.4-0.7,0.9-1.2,1.5-1.5
		c0.6-0.4,1.4-0.5,2.2-0.5c0.4,0,0.9,0,1.3,0.2c0.4,0.1,0.8,0.2,1.1,0.4l-0.7,1.4c-0.2-0.2-0.5-0.3-0.7-0.3
		c-0.3-0.1-0.5-0.1-0.8-0.1c-0.7,0-1.3,0.2-1.7,0.7c-0.4,0.4-0.6,1.1-0.6,2c0,0.1,0,0.3,0,0.5s0,0.4,0.1,0.5l-0.5-0.5
		c0.2-0.3,0.3-0.6,0.6-0.8c0.2-0.2,0.5-0.4,0.9-0.5c0.3-0.1,0.7-0.2,1.1-0.2c0.5,0,1,0.1,1.5,0.3c0.4,0.2,0.8,0.5,1,0.9
		c0.3,0.4,0.4,0.9,0.4,1.4c0,0.6-0.1,1.1-0.4,1.5s-0.7,0.7-1.1,1C91.6,308.8,91,308.9,90.4,308.9z M90.3,307.5c0.3,0,0.5,0,0.7-0.2
		c0.2-0.1,0.4-0.2,0.5-0.4c0.1-0.2,0.2-0.4,0.2-0.7c0-0.4-0.1-0.7-0.4-0.9c-0.3-0.2-0.6-0.3-1-0.3c-0.3,0-0.5,0.1-0.8,0.2
		c-0.2,0.1-0.4,0.3-0.5,0.5s-0.2,0.4-0.2,0.7c0,0.2,0.1,0.4,0.2,0.6s0.3,0.3,0.5,0.4C89.7,307.4,90,307.5,90.3,307.5z"/>
	<path d="M97.9,308.9c-0.7,0-1.3-0.2-1.8-0.5s-1-0.8-1.3-1.5c-0.3-0.6-0.5-1.4-0.5-2.4c0-0.9,0.2-1.7,0.5-2.4
		c0.3-0.6,0.7-1.1,1.3-1.5s1.2-0.5,1.8-0.5c0.7,0,1.3,0.2,1.9,0.5s1,0.8,1.3,1.5c0.3,0.6,0.5,1.4,0.5,2.4c0,0.9-0.2,1.7-0.5,2.4
		c-0.3,0.6-0.7,1.1-1.3,1.5C99.2,308.7,98.6,308.9,97.9,308.9z M97.9,307.3c0.3,0,0.6-0.1,0.9-0.3c0.2-0.2,0.4-0.5,0.6-0.9
		c0.1-0.4,0.2-0.9,0.2-1.5s-0.1-1.1-0.2-1.5s-0.3-0.7-0.6-0.9c-0.2-0.2-0.5-0.3-0.9-0.3c-0.3,0-0.6,0.1-0.8,0.3
		c-0.2,0.2-0.4,0.5-0.6,0.9c-0.1,0.4-0.2,0.9-0.2,1.5s0.1,1.1,0.2,1.5s0.3,0.7,0.6,0.9C97.3,307.2,97.6,307.3,97.9,307.3z"/>
</g>
<g>
	<g>
		<path id="Montserrat-SemiBold-20" class="st8" d="M20.8,165.2"/>
	</g>
	<g>
		<path id="Montserrat-SemiBold-37" class="st8" d="M32.4,165.2l7.7-17.3l0.9,1.5H30.4l1.7-1.7v4.9h-3.2v-6.1h14.5v2.3l-7.3,16.3
			h-3.7V165.2z"/>
	</g>
	<g>
		<path id="Montserrat-SemiBold-25" class="st8" d="M48.1,165.2l12.7-18.7h2.6l-12.7,18.7H48.1z M49.7,156.5c-0.9,0-1.6-0.2-2.3-0.6
			c-0.7-0.4-1.2-1-1.6-1.8c-0.4-0.8-0.6-1.7-0.6-2.7s0.2-1.9,0.6-2.7c0.4-0.8,0.9-1.4,1.6-1.8c0.7-0.4,1.4-0.6,2.3-0.6
			c0.9,0,1.7,0.2,2.4,0.6c0.7,0.4,1.2,1,1.6,1.8c0.4,0.8,0.6,1.7,0.6,2.7s-0.2,1.9-0.6,2.7c-0.4,0.8-0.9,1.4-1.6,1.8
			C51.4,156.3,50.6,156.5,49.7,156.5z M49.7,154.7c0.7,0,1.3-0.3,1.7-0.8c0.4-0.6,0.6-1.4,0.6-2.4s-0.2-1.9-0.6-2.4
			c-0.4-0.6-1-0.8-1.7-0.8s-1.3,0.3-1.7,0.9s-0.6,1.4-0.6,2.4s0.2,1.8,0.6,2.4C48.4,154.4,49,154.7,49.7,154.7z M61.9,165.3
			c-0.9,0-1.6-0.2-2.3-0.6c-0.7-0.4-1.2-1-1.6-1.8c-0.4-0.8-0.6-1.7-0.6-2.7s0.2-1.9,0.6-2.7c0.4-0.8,0.9-1.4,1.6-1.8
			c0.7-0.4,1.4-0.6,2.3-0.6c0.9,0,1.7,0.2,2.4,0.6c0.7,0.4,1.2,1,1.6,1.8s0.6,1.7,0.6,2.7s-0.2,1.9-0.6,2.7s-0.9,1.4-1.6,1.8
			C63.6,165.1,62.8,165.3,61.9,165.3z M61.9,163.5c0.7,0,1.3-0.3,1.7-0.9c0.4-0.6,0.6-1.4,0.6-2.4s-0.2-1.8-0.6-2.4
			c-0.4-0.6-1-0.9-1.7-0.9s-1.3,0.3-1.7,0.8c-0.4,0.6-0.6,1.4-0.6,2.4s0.2,1.9,0.6,2.4C60.7,163.2,61.2,163.5,61.9,163.5z"/>
	</g>
	<g>
		<path id="Montserrat-SemiBold-20_00000013166132666181508740000002476406592071360910_" class="st8" d="M113.7,184.9"/>
	</g>
	<g>
		<path id="Montserrat-SemiBold-35" class="st8" d="M128.4,185.1c-1.3,0-2.6-0.2-3.9-0.6c-1.3-0.4-2.3-0.9-3.2-1.6l1.5-2.7
			c0.7,0.6,1.5,1,2.5,1.3s2,0.5,3,0.5c1.2,0,2.2-0.3,2.9-0.8s1.1-1.2,1.1-2.1c0-0.6-0.1-1.1-0.4-1.5c-0.3-0.4-0.8-0.8-1.5-1
			s-1.7-0.3-3-0.3h-4.5l1-10.2h11v2.9h-9.7l1.8-1.7l-0.7,7.6l-1.8-1.6h3.8c1.8,0,3.3,0.2,4.5,0.7c1.1,0.5,2,1.2,2.5,2
			c0.5,0.9,0.8,1.8,0.8,2.9c0,1.1-0.3,2.1-0.8,3s-1.3,1.6-2.4,2.2C131.5,184.9,130.1,185.1,128.4,185.1z"/>
	</g>
	<g>
		<path id="Montserrat-SemiBold-25_00000112625097391683318460000009731824664424747426_" class="st8" d="M140.4,184.9l12.7-18.7
			h2.6L143,184.9H140.4z M142,176.3c-0.9,0-1.6-0.2-2.3-0.6c-0.7-0.4-1.2-1-1.6-1.8c-0.4-0.8-0.6-1.7-0.6-2.7s0.2-1.9,0.6-2.7
			c0.4-0.8,0.9-1.4,1.6-1.8c0.7-0.4,1.4-0.6,2.3-0.6c0.9,0,1.7,0.2,2.4,0.6c0.7,0.4,1.2,1,1.6,1.8c0.4,0.8,0.6,1.7,0.6,2.7
			s-0.2,1.9-0.6,2.7c-0.4,0.8-0.9,1.4-1.6,1.8C143.7,176,142.9,176.3,142,176.3z M142,174.4c0.7,0,1.3-0.3,1.7-0.8
			c0.4-0.6,0.6-1.4,0.6-2.4s-0.2-1.9-0.6-2.4c-0.4-0.6-1-0.8-1.7-0.8s-1.3,0.3-1.7,0.9c-0.4,0.6-0.6,1.4-0.6,2.4s0.2,1.8,0.6,2.4
			C140.7,174.1,141.3,174.4,142,174.4z M154.2,185.1c-0.9,0-1.6-0.2-2.3-0.6c-0.7-0.4-1.2-1-1.6-1.8c-0.4-0.8-0.6-1.7-0.6-2.7
			s0.2-1.9,0.6-2.7c0.4-0.8,0.9-1.4,1.6-1.8c0.7-0.4,1.4-0.6,2.3-0.6c0.9,0,1.7,0.2,2.4,0.6c0.7,0.4,1.2,1,1.6,1.8
			c0.4,0.8,0.6,1.7,0.6,2.7s-0.2,1.9-0.6,2.7c-0.4,0.8-0.9,1.4-1.6,1.8C155.9,184.8,155.1,185.1,154.2,185.1z M154.2,183.2
			c0.7,0,1.3-0.3,1.7-0.9c0.4-0.6,0.6-1.4,0.6-2.4s-0.2-1.8-0.6-2.4c-0.4-0.6-1-0.9-1.7-0.9s-1.3,0.3-1.7,0.8
			c-0.4,0.6-0.6,1.4-0.6,2.4s0.2,1.9,0.6,2.4C153,182.9,153.5,183.2,154.2,183.2z"/>
	</g>
	<g>
		<path id="Montserrat-SemiBold-20_00000176004374449113104960000012353081201064601998_" class="st8" d="M206.1,165.2"/>
	</g>
	<g>
		<path id="Montserrat-SemiBold-37_00000122713060771725802340000010266167720311351209_" class="st8" d="M217.7,165.2l7.7-17.3
			l0.9,1.5h-10.6l1.7-1.7v4.9h-3.2v-6.1h14.5v2.3l-7.3,16.3h-3.7V165.2z"/>
	</g>
	<g>
		<path id="Montserrat-SemiBold-25_00000056428127647387576340000014474770633917497274_" class="st8" d="M233.4,165.2l12.7-18.7
			h2.6L236,165.2H233.4z M235,156.5c-0.9,0-1.6-0.2-2.3-0.6c-0.7-0.4-1.2-1-1.6-1.8c-0.4-0.8-0.6-1.7-0.6-2.7s0.2-1.9,0.6-2.7
			c0.4-0.8,0.9-1.4,1.6-1.8c0.7-0.4,1.4-0.6,2.3-0.6c0.9,0,1.7,0.2,2.4,0.6c0.7,0.4,1.2,1,1.6,1.8c0.4,0.8,0.6,1.7,0.6,2.7
			s-0.2,1.9-0.6,2.7c-0.4,0.8-0.9,1.4-1.6,1.8C236.7,156.3,235.9,156.5,235,156.5z M235,154.7c0.7,0,1.3-0.3,1.7-0.8
			c0.4-0.6,0.6-1.4,0.6-2.4s-0.2-1.9-0.6-2.4c-0.4-0.6-1-0.8-1.7-0.8s-1.3,0.3-1.7,0.9c-0.4,0.6-0.6,1.4-0.6,2.4s0.2,1.8,0.6,2.4
			C233.7,154.4,234.3,154.7,235,154.7z M247.2,165.3c-0.9,0-1.6-0.2-2.3-0.6c-0.7-0.4-1.2-1-1.6-1.8c-0.4-0.8-0.6-1.7-0.6-2.7
			s0.2-1.9,0.6-2.7c0.4-0.8,0.9-1.4,1.6-1.8c0.7-0.4,1.4-0.6,2.3-0.6c0.9,0,1.7,0.2,2.4,0.6c0.7,0.4,1.2,1,1.6,1.8
			c0.4,0.8,0.6,1.7,0.6,2.7s-0.2,1.9-0.6,2.7c-0.4,0.8-0.9,1.4-1.6,1.8C248.9,165.1,248.1,165.3,247.2,165.3z M247.2,163.5
			c0.7,0,1.3-0.3,1.7-0.9c0.4-0.6,0.6-1.4,0.6-2.4s-0.2-1.8-0.6-2.4s-1-0.9-1.7-0.9s-1.3,0.3-1.7,0.8c-0.4,0.6-0.6,1.4-0.6,2.4
			s0.2,1.9,0.6,2.4C245.9,163.2,246.5,163.5,247.2,163.5z"/>
	</g>
	<g>
		<path id="Montserrat-SemiBold-31" class="st8" d="M301.8,106V88.7l1.5,1.6h-5.5v-2.9h7.4V106H301.8z"/>
	</g>
	<g>
		<path id="Montserrat-SemiBold-33" class="st8" d="M314.8,106.3c-1.3,0-2.6-0.2-3.9-0.6s-2.3-0.9-3.2-1.6l1.5-2.7
			c0.7,0.6,1.5,1,2.4,1.3c1,0.3,2,0.5,3,0.5c1.2,0,2.2-0.3,2.9-0.8c0.7-0.5,1-1.2,1-2.1s-0.3-1.5-1-2c-0.6-0.5-1.7-0.7-3.1-0.7H313
			v-2.4l5.3-6.3l0.4,1.3h-10v-2.9h12.7v2.3l-5.3,6.3l-1.8-1.1h1c2.3,0,4,0.5,5.2,1.5c1.1,1,1.7,2.3,1.7,3.9c0,1-0.3,2-0.8,2.9
			s-1.3,1.6-2.4,2.1C317.9,106,316.5,106.3,314.8,106.3z"/>
	</g>
	<g>
		<path id="Montserrat-SemiBold-25_00000003814595360551938320000006874837889476904358_" class="st8" d="M327.1,106l12.7-18.7h2.6
			L329.7,106H327.1z M328.7,97.4c-0.9,0-1.6-0.2-2.3-0.6c-0.7-0.4-1.2-1-1.6-1.8s-0.6-1.7-0.6-2.7s0.2-1.9,0.6-2.7
			c0.4-0.8,0.9-1.4,1.6-1.8s1.4-0.6,2.3-0.6s1.7,0.2,2.4,0.6c0.7,0.4,1.2,1,1.6,1.8s0.6,1.7,0.6,2.7s-0.2,1.9-0.6,2.7
			c-0.4,0.8-0.9,1.4-1.6,1.8C330.4,97.2,329.6,97.4,328.7,97.4z M328.7,95.5c0.7,0,1.3-0.3,1.7-0.8c0.4-0.6,0.6-1.4,0.6-2.4
			s-0.2-1.9-0.6-2.4c-0.4-0.6-1-0.8-1.7-0.8s-1.3,0.3-1.7,0.9c-0.4,0.6-0.6,1.4-0.6,2.4s0.2,1.8,0.6,2.4S328,95.5,328.7,95.5z
			 M340.9,106.2c-0.9,0-1.6-0.2-2.3-0.6c-0.7-0.4-1.2-1-1.6-1.8s-0.6-1.7-0.6-2.7s0.2-1.9,0.6-2.7c0.4-0.8,0.9-1.4,1.6-1.8
			s1.4-0.6,2.3-0.6s1.7,0.2,2.4,0.6c0.7,0.4,1.2,1,1.6,1.8s0.6,1.7,0.6,2.7s-0.2,1.9-0.6,2.7c-0.4,0.8-0.9,1.4-1.6,1.8
			C342.6,106,341.8,106.2,340.9,106.2z M340.9,104.3c0.7,0,1.3-0.3,1.7-0.9c0.4-0.6,0.6-1.4,0.6-2.4s-0.2-1.8-0.6-2.4
			s-1-0.9-1.7-0.9s-1.3,0.3-1.7,0.8c-0.4,0.6-0.6,1.4-0.6,2.4s0.2,1.9,0.6,2.4C339.6,104,340.2,104.3,340.9,104.3z"/>
	</g>
	<g>
		<path id="Montserrat-SemiBold-32" class="st8" d="M391.2,27.1v-2.3l7.4-7c0.6-0.6,1.1-1.1,1.4-1.5c0.3-0.4,0.5-0.9,0.6-1.2
			c0.1-0.4,0.1-0.7,0.1-1.1c0-0.9-0.3-1.5-0.9-2s-1.4-0.7-2.6-0.7c-0.9,0-1.7,0.2-2.5,0.5c-0.7,0.3-1.4,0.8-1.9,1.5l-2.4-1.9
			c0.7-1,1.7-1.7,2.9-2.3c1.2-0.5,2.6-0.8,4.1-0.8c1.3,0,2.5,0.2,3.5,0.7c1,0.4,1.8,1.1,2.3,1.9c0.5,0.8,0.8,1.7,0.8,2.8
			c0,0.6-0.1,1.2-0.2,1.8c-0.2,0.6-0.5,1.2-0.9,1.9c-0.4,0.7-1.1,1.4-1.9,2.2l-6.4,6.1l-0.7-1.3H405v2.9h-13.8V27.1z"/>
	</g>
	<g>
		<path id="Montserrat-SemiBold-31_00000048498229125012868600000013061013089051307136_" class="st8" d="M410,27.1V9.8l1.5,1.6H406
			V8.5h7.4v18.7H410V27.1z"/>
	</g>
	<g>
		<path id="Montserrat-SemiBold-25_00000135658507396787040410000005400164833372259234_" class="st8" d="M419.8,27.1l12.7-18.7h2.6
			l-12.7,18.7H419.8z M421.3,18.5c-0.9,0-1.6-0.2-2.3-0.6c-0.7-0.4-1.2-1-1.6-1.8c-0.4-0.8-0.6-1.7-0.6-2.7s0.2-1.9,0.6-2.7
			s0.9-1.4,1.6-1.8s1.4-0.6,2.3-0.6s1.7,0.2,2.4,0.6c0.7,0.4,1.2,1,1.6,1.8s0.6,1.7,0.6,2.7s-0.2,1.9-0.6,2.7
			c-0.4,0.8-0.9,1.4-1.6,1.8C423,18.3,422.2,18.5,421.3,18.5z M421.3,16.6c0.7,0,1.3-0.3,1.7-0.8c0.4-0.6,0.6-1.4,0.6-2.4
			s-0.2-1.9-0.6-2.4c-0.4-0.6-1-0.8-1.7-0.8s-1.3,0.3-1.7,0.9c-0.4,0.6-0.6,1.4-0.6,2.4s0.2,1.8,0.6,2.4
			C420.1,16.3,420.6,16.6,421.3,16.6z M433.5,27.3c-0.9,0-1.6-0.2-2.3-0.6c-0.7-0.4-1.2-1-1.6-1.8s-0.6-1.7-0.6-2.7s0.2-1.9,0.6-2.7
			s0.9-1.4,1.6-1.8c0.7-0.4,1.4-0.6,2.3-0.6s1.7,0.2,2.4,0.6c0.7,0.4,1.2,1,1.6,1.8s0.6,1.7,0.6,2.7s-0.2,1.9-0.6,2.7
			s-0.9,1.4-1.6,1.8C435.2,27.1,434.5,27.3,433.5,27.3z M433.5,25.4c0.7,0,1.3-0.3,1.7-0.9s0.6-1.4,0.6-2.4s-0.2-1.8-0.6-2.4
			c-0.4-0.6-1-0.9-1.7-0.9s-1.3,0.3-1.7,0.8c-0.4,0.6-0.6,1.4-0.6,2.4s0.2,1.9,0.6,2.4C432.3,25.1,432.9,25.4,433.5,25.4z"/>
	</g>
	<g>
		<path id="Montserrat-SemiBold-31_00000002346791958891959950000010747813224404932259_" class="st8" d="M486.5,47.9V30.6l1.5,1.6
			h-5.5v-2.9h7.4V48L486.5,47.9L486.5,47.9z"/>
	</g>
	<g>
		<path id="Montserrat-SemiBold-39" class="st8" d="M500,29c1.7,0,3.2,0.4,4.4,1.1c1.2,0.7,2.1,1.8,2.8,3.1c0.6,1.4,1,3.1,1,5.1
			c0,2.1-0.4,3.9-1.2,5.4c-0.8,1.5-1.8,2.6-3.2,3.4c-1.4,0.8-3,1.1-4.8,1.1c-0.9,0-1.8-0.1-2.7-0.3c-0.9-0.2-1.6-0.5-2.2-0.9
			l1.3-2.6c0.5,0.3,1.1,0.6,1.7,0.7s1.2,0.2,1.9,0.2c1.8,0,3.2-0.5,4.2-1.6c1-1.1,1.5-2.7,1.5-4.8c0-0.3,0-0.7,0-1.2
			s-0.1-0.9-0.2-1.4l1.1,1.2c-0.3,0.7-0.7,1.3-1.3,1.8c-0.6,0.5-1.2,0.9-2,1.1s-1.6,0.4-2.5,0.4c-1.2,0-2.3-0.2-3.3-0.7
			s-1.7-1.1-2.3-2c-0.6-0.9-0.8-1.9-0.8-3c0-1.2,0.3-2.3,0.9-3.2s1.4-1.6,2.5-2.1C497.6,29.2,498.7,29,500,29z M500.2,31.7
			c-0.7,0-1.3,0.1-1.9,0.4c-0.5,0.3-1,0.6-1.3,1.1s-0.5,1-0.5,1.7c0,1,0.3,1.8,1,2.3s1.6,0.9,2.7,0.9c0.7,0,1.4-0.1,2-0.4
			s1-0.7,1.3-1.1c0.3-0.5,0.5-1,0.5-1.6s-0.2-1.1-0.5-1.6s-0.7-0.8-1.3-1.1C501.7,31.8,501,31.7,500.2,31.7z"/>
	</g>
	<g>
		<path id="Montserrat-SemiBold-25_00000044178774699434146200000000753462134542629550_" class="st8" d="M513,47.9l12.7-18.7h2.6
			l-12.7,18.7H513z M514.6,39.3c-0.9,0-1.6-0.2-2.3-0.6c-0.7-0.4-1.2-1-1.6-1.8c-0.4-0.8-0.6-1.7-0.6-2.7s0.2-1.9,0.6-2.7
			c0.4-0.8,0.9-1.4,1.6-1.8s1.4-0.6,2.3-0.6c0.9,0,1.7,0.2,2.4,0.6s1.2,1,1.6,1.8c0.4,0.8,0.6,1.7,0.6,2.7s-0.2,1.9-0.6,2.7
			c-0.4,0.8-0.9,1.4-1.6,1.8C516.2,39.1,515.5,39.3,514.6,39.3z M514.6,37.4c0.7,0,1.3-0.3,1.7-0.8c0.4-0.6,0.6-1.4,0.6-2.4
			s-0.2-1.9-0.6-2.4c-0.4-0.6-1-0.8-1.7-0.8s-1.3,0.3-1.7,0.9c-0.4,0.6-0.6,1.4-0.6,2.4s0.2,1.8,0.6,2.4
			C513.3,37.1,513.9,37.4,514.6,37.4z M526.8,48.1c-0.9,0-1.6-0.2-2.3-0.6c-0.7-0.4-1.2-1-1.6-1.8c-0.4-0.8-0.6-1.7-0.6-2.7
			s0.2-1.9,0.6-2.7c0.4-0.8,0.9-1.4,1.6-1.8c0.7-0.4,1.4-0.6,2.3-0.6c0.9,0,1.7,0.2,2.4,0.6c0.7,0.4,1.2,1,1.6,1.8
			c0.4,0.8,0.6,1.7,0.6,2.7s-0.2,1.9-0.6,2.7c-0.4,0.8-0.9,1.4-1.6,1.8C528.5,47.9,527.7,48.1,526.8,48.1z M526.8,46.2
			c0.7,0,1.3-0.3,1.7-0.9c0.4-0.6,0.6-1.4,0.6-2.4s-0.2-1.8-0.6-2.4c-0.4-0.6-1-0.9-1.7-0.9s-1.3,0.3-1.7,0.8
			c-0.4,0.6-0.6,1.4-0.6,2.4s0.2,1.9,0.6,2.4C525.5,45.9,526.1,46.2,526.8,46.2z"/>
	</g>
	<g>
		<path id="Montserrat-SemiBold-31_00000182489709046280156470000005119957914488359601_" class="st8" d="M579.7,87.1V69.7l1.5,1.6
			h-5.5v-2.9h7.4v18.7H579.7z"/>
	</g>
	<g>
		<path id="Montserrat-SemiBold-35_00000131332757099664967240000014362418531091142027_" class="st8" d="M593.1,87.3
			c-1.3,0-2.6-0.2-3.9-0.6c-1.3-0.4-2.3-0.9-3.2-1.6l1.5-2.7c0.7,0.6,1.5,1,2.5,1.3s2,0.5,3,0.5c1.2,0,2.2-0.3,2.9-0.8
			s1.1-1.2,1.1-2.1c0-0.6-0.1-1.1-0.4-1.5c-0.3-0.4-0.8-0.8-1.5-1s-1.7-0.3-3-0.3h-4.5l1-10.2h11v2.9h-9.7l1.8-1.7l-0.7,7.6
			l-1.8-1.6h3.8c1.8,0,3.3,0.2,4.5,0.7c1.1,0.5,2,1.2,2.5,2c0.5,0.9,0.8,1.8,0.8,2.9s-0.3,2.1-0.8,3s-1.3,1.6-2.4,2.2
			C596.1,87,594.8,87.3,593.1,87.3z"/>
	</g>
	<g>
		<path id="Montserrat-SemiBold-25_00000047752489035849347750000010990982283472009869_" class="st8" d="M605.1,87.1l12.7-18.7h2.6
			l-12.7,18.7H605.1z M606.6,78.4c-0.9,0-1.6-0.2-2.3-0.6c-0.7-0.4-1.2-1-1.6-1.8c-0.4-0.8-0.6-1.7-0.6-2.7s0.2-1.9,0.6-2.7
			c0.4-0.8,0.9-1.4,1.6-1.8c0.7-0.4,1.4-0.6,2.3-0.6c0.9,0,1.7,0.2,2.4,0.6c0.7,0.4,1.2,1,1.6,1.8c0.4,0.8,0.6,1.7,0.6,2.7
			s-0.2,1.9-0.6,2.7c-0.4,0.8-0.9,1.4-1.6,1.8C608.3,78.2,607.5,78.4,606.6,78.4z M606.7,76.6c0.7,0,1.3-0.3,1.7-0.8
			c0.4-0.6,0.6-1.4,0.6-2.4s-0.2-1.9-0.6-2.4c-0.4-0.6-1-0.8-1.7-0.8s-1.3,0.3-1.7,0.9s-0.6,1.4-0.6,2.4s0.2,1.8,0.6,2.4
			C605.4,76.3,605.9,76.6,606.7,76.6z M618.9,87.2c-0.9,0-1.6-0.2-2.3-0.6s-1.2-1-1.6-1.8c-0.4-0.8-0.6-1.7-0.6-2.7s0.2-1.9,0.6-2.7
			c0.4-0.8,0.9-1.4,1.6-1.8c0.7-0.4,1.4-0.6,2.3-0.6c0.9,0,1.7,0.2,2.4,0.6s1.2,1,1.6,1.8c0.4,0.8,0.6,1.7,0.6,2.7s-0.2,1.9-0.6,2.7
			c-0.4,0.8-0.9,1.4-1.6,1.8C620.6,87,619.8,87.2,618.9,87.2z M618.9,85.4c0.7,0,1.3-0.3,1.7-0.9s0.6-1.4,0.6-2.4s-0.2-1.8-0.6-2.4
			s-1-0.9-1.7-0.9s-1.3,0.3-1.7,0.8c-0.4,0.6-0.6,1.4-0.6,2.4s0.2,1.9,0.6,2.4C617.6,85.1,618.2,85.4,618.9,85.4z"/>
	</g>
	<g>
		<path id="Montserrat-SemiBold-20_00000132046697813219326530000008963443713080765630_" class="st8" d="M669,146.5"/>
	</g>
	<g>
		<path id="Montserrat-SemiBold-39_00000098211942474720207140000011974886995619433649_" class="st8" d="M683.9,127.6
			c1.7,0,3.2,0.4,4.4,1.1s2.1,1.8,2.8,3.1c0.6,1.4,1,3.1,1,5.1c0,2.1-0.4,3.9-1.2,5.4s-1.8,2.6-3.2,3.4s-3,1.1-4.8,1.1
			c-0.9,0-1.8-0.1-2.7-0.3s-1.6-0.5-2.2-0.9l1.3-2.6c0.5,0.3,1.1,0.6,1.7,0.7c0.6,0.1,1.2,0.2,1.9,0.2c1.8,0,3.2-0.5,4.2-1.6
			s1.5-2.7,1.5-4.8c0-0.3,0-0.7,0-1.2s-0.1-0.9-0.2-1.4l1.1,1.2c-0.3,0.7-0.7,1.3-1.3,1.8s-1.2,0.9-2,1.1s-1.6,0.4-2.5,0.4
			c-1.2,0-2.3-0.2-3.3-0.7s-1.7-1.1-2.3-2c-0.6-0.9-0.8-1.9-0.8-3c0-1.2,0.3-2.3,0.9-3.2c0.6-0.9,1.4-1.6,2.5-2.1
			C681.5,127.8,682.6,127.6,683.9,127.6z M684.1,130.3c-0.7,0-1.3,0.1-1.9,0.4c-0.5,0.3-1,0.6-1.3,1.1s-0.5,1-0.5,1.7
			c0,1,0.3,1.8,1,2.3c0.7,0.6,1.6,0.9,2.7,0.9c0.7,0,1.4-0.1,2-0.4s1-0.7,1.3-1.1c0.3-0.5,0.5-1,0.5-1.6s-0.2-1.1-0.5-1.6
			s-0.7-0.8-1.3-1.1C685.6,130.4,684.9,130.3,684.1,130.3z"/>
	</g>
	<g>
		<path id="Montserrat-SemiBold-25_00000006701187342273402800000007571217443464075667_" class="st8" d="M696.9,146.5l12.7-18.7
			h2.6l-12.7,18.7H696.9z M698.5,137.9c-0.9,0-1.6-0.2-2.3-0.6s-1.2-1-1.6-1.8c-0.4-0.8-0.6-1.7-0.6-2.7s0.2-1.9,0.6-2.7
			c0.4-0.8,0.9-1.4,1.6-1.8c0.7-0.4,1.4-0.6,2.3-0.6c0.9,0,1.7,0.2,2.4,0.6c0.7,0.4,1.2,1,1.6,1.8c0.4,0.8,0.6,1.7,0.6,2.7
			s-0.2,1.9-0.6,2.7c-0.4,0.8-0.9,1.4-1.6,1.8C700.1,137.7,699.4,137.9,698.5,137.9z M698.5,136c0.7,0,1.3-0.3,1.7-0.8
			c0.4-0.6,0.6-1.4,0.6-2.4s-0.2-1.9-0.6-2.4c-0.4-0.6-1-0.8-1.7-0.8s-1.3,0.3-1.7,0.9c-0.4,0.6-0.6,1.4-0.6,2.4s0.2,1.8,0.6,2.4
			C697.2,135.8,697.8,136,698.5,136z M710.7,146.7c-0.9,0-1.6-0.2-2.3-0.6c-0.7-0.4-1.2-1-1.6-1.8c-0.4-0.8-0.6-1.7-0.6-2.7
			s0.2-1.9,0.6-2.7c0.4-0.8,0.9-1.4,1.6-1.8c0.7-0.4,1.4-0.6,2.3-0.6c0.9,0,1.7,0.2,2.4,0.6s1.2,1,1.6,1.8c0.4,0.8,0.6,1.7,0.6,2.7
			s-0.2,1.9-0.6,2.7c-0.4,0.8-0.9,1.4-1.6,1.8C712.4,146.5,711.6,146.7,710.7,146.7z M710.7,144.8c0.7,0,1.3-0.3,1.7-0.9
			c0.4-0.6,0.6-1.4,0.6-2.4s-0.2-1.8-0.6-2.4c-0.4-0.6-1-0.9-1.7-0.9s-1.3,0.3-1.7,0.8c-0.4,0.6-0.6,1.4-0.6,2.4s0.2,1.9,0.6,2.4
			C709.4,144.6,710,144.8,710.7,144.8z"/>
	</g>
	<g>
		<path id="Montserrat-SemiBold-20_00000163067795012411598550000007080930899254443197_" class="st8" d="M762.3,201.7"/>
	</g>
	<g>
		<path id="Montserrat-SemiBold-33_00000181770949899002735900000008867244201869580195_" class="st8" d="M776.7,202
			c-1.3,0-2.6-0.2-3.9-0.6c-1.3-0.4-2.3-0.9-3.2-1.6l1.5-2.7c0.7,0.6,1.5,1,2.4,1.3c1,0.3,2,0.5,3,0.5c1.2,0,2.2-0.3,2.9-0.8
			s1-1.2,1-2.1c0-0.9-0.3-1.5-1-2c-0.6-0.5-1.7-0.7-3.1-0.7h-1.7V191l5.3-6.3l0.5,1.3h-10v-2.9h12.7v2.3l-5.3,6.3l-1.8-1.1h1
			c2.3,0,4,0.5,5.2,1.5c1.1,1,1.7,2.3,1.7,3.9c0,1-0.3,2-0.8,2.9s-1.3,1.6-2.4,2.1C779.7,201.7,778.4,202,776.7,202z"/>
	</g>
	<g>
		<path id="Montserrat-SemiBold-25_00000056388017634105195630000003600137838241544635_" class="st8" d="M789,201.7l12.7-18.7h2.6
			l-12.7,18.7H789z M790.5,193.1c-0.9,0-1.6-0.2-2.3-0.6c-0.7-0.4-1.2-1-1.6-1.8c-0.4-0.8-0.6-1.7-0.6-2.7s0.2-1.9,0.6-2.7
			c0.4-0.8,0.9-1.4,1.6-1.8c0.7-0.4,1.4-0.6,2.3-0.6c0.9,0,1.7,0.2,2.4,0.6c0.7,0.4,1.2,1,1.6,1.8c0.4,0.8,0.6,1.7,0.6,2.7
			s-0.2,1.9-0.6,2.7c-0.4,0.8-0.9,1.4-1.6,1.8C792.2,192.9,791.4,193.1,790.5,193.1z M790.5,191.3c0.7,0,1.3-0.3,1.7-0.8
			c0.4-0.6,0.6-1.4,0.6-2.4s-0.2-1.9-0.6-2.4c-0.4-0.6-1-0.8-1.7-0.8s-1.3,0.3-1.7,0.9c-0.4,0.6-0.6,1.4-0.6,2.4s0.2,1.8,0.6,2.4
			C789.3,191,789.8,191.3,790.5,191.3z M802.7,201.9c-0.9,0-1.6-0.2-2.3-0.6c-0.7-0.4-1.2-1-1.6-1.8c-0.4-0.8-0.6-1.7-0.6-2.7
			s0.2-1.9,0.6-2.7c0.4-0.8,0.9-1.4,1.6-1.8c0.7-0.4,1.4-0.6,2.3-0.6c0.9,0,1.7,0.2,2.4,0.6c0.7,0.4,1.2,1,1.6,1.8
			c0.4,0.8,0.6,1.7,0.6,2.7s-0.2,1.9-0.6,2.7c-0.4,0.8-0.9,1.4-1.6,1.8C804.4,201.7,803.6,201.9,802.7,201.9z M802.7,200.1
			c0.7,0,1.3-0.3,1.7-0.9c0.4-0.6,0.6-1.4,0.6-2.4s-0.2-1.8-0.6-2.4c-0.4-0.6-1-0.9-1.7-0.9s-1.3,0.3-1.7,0.8
			c-0.4,0.6-0.6,1.4-0.6,2.4s0.2,1.9,0.6,2.4C801.5,199.8,802,200.1,802.7,200.1z"/>
	</g>
	<g>
		<path id="Montserrat-SemiBold-20_00000117662482554789289000000002942750803949762716_" class="st8" d="M857.6,223.9"/>
	</g>
	<g>
		<path id="Montserrat-SemiBold-31_00000166655568459310691250000005698413660008630421_" class="st8" d="M869.1,223.9v-17.3
			l1.5,1.6h-5.5v-2.9h7.4V224h-3.4V223.9z"/>
	</g>
	<g>
		<path id="Montserrat-SemiBold-25_00000170267020210381268780000008257719620463916440_" class="st8" d="M878.9,223.9l12.7-18.7
			h2.6l-12.7,18.7H878.9z M880.5,215.3c-0.9,0-1.6-0.2-2.3-0.6c-0.7-0.4-1.2-1-1.6-1.8c-0.4-0.8-0.6-1.7-0.6-2.7s0.2-1.9,0.6-2.7
			c0.4-0.8,0.9-1.4,1.6-1.8c0.7-0.4,1.4-0.6,2.3-0.6c0.9,0,1.7,0.2,2.4,0.6c0.7,0.4,1.2,1,1.6,1.8c0.4,0.8,0.6,1.7,0.6,2.7
			s-0.2,1.9-0.6,2.7c-0.4,0.8-0.9,1.4-1.6,1.8C882.2,215.1,881.4,215.3,880.5,215.3z M880.5,213.4c0.7,0,1.3-0.3,1.7-0.8
			c0.4-0.6,0.6-1.4,0.6-2.4s-0.2-1.9-0.6-2.4c-0.4-0.6-1-0.8-1.7-0.8s-1.3,0.3-1.7,0.9c-0.4,0.6-0.6,1.4-0.6,2.4s0.2,1.8,0.6,2.4
			C879.2,213.2,879.8,213.4,880.5,213.4z M892.7,224.1c-0.9,0-1.6-0.2-2.3-0.6c-0.7-0.4-1.2-1-1.6-1.8c-0.4-0.8-0.6-1.7-0.6-2.7
			s0.2-1.9,0.6-2.7c0.4-0.8,0.9-1.4,1.6-1.8c0.7-0.4,1.4-0.6,2.3-0.6c0.9,0,1.7,0.2,2.4,0.6c0.7,0.4,1.2,1,1.6,1.8
			c0.4,0.8,0.6,1.7,0.6,2.7s-0.2,1.9-0.6,2.7c-0.4,0.8-0.9,1.4-1.6,1.8C894.4,223.9,893.6,224.1,892.7,224.1z M892.7,222.2
			c0.7,0,1.3-0.3,1.7-0.9c0.4-0.6,0.6-1.4,0.6-2.4s-0.2-1.8-0.6-2.4c-0.4-0.6-1-0.9-1.7-0.9s-1.3,0.3-1.7,0.8
			c-0.4,0.6-0.6,1.4-0.6,2.4s0.2,1.9,0.6,2.4C891.5,222,892,222.2,892.7,222.2z"/>
	</g>
	<g>
		<path id="Montserrat-SemiBold-3c" class="st8" d="M960.1,229.5l-12.3-4.8v-2.9l12.3-4.8v2.8l-11.2,4.2v-1.5l11.2,4.2V229.5z"/>
	</g>
	<g>
		<path id="Montserrat-SemiBold-31_00000080896406715883553050000017262390512487689348_" class="st8" d="M966,232.6v-17.3l1.5,1.6
			H962V214h7.4v18.7H966V232.6z"/>
	</g>
	<g>
		<path id="Montserrat-SemiBold-25_00000023976619661312977040000011859179593357835156_" class="st8" d="M975.8,232.6l12.7-18.7
			h2.6l-12.7,18.7H975.8z M977.3,224c-0.9,0-1.6-0.2-2.3-0.6c-0.7-0.4-1.2-1-1.6-1.8c-0.4-0.8-0.6-1.7-0.6-2.7s0.2-1.9,0.6-2.7
			c0.4-0.8,0.9-1.4,1.6-1.8c0.7-0.4,1.4-0.6,2.3-0.6c0.9,0,1.7,0.2,2.4,0.6c0.7,0.4,1.2,1,1.6,1.8c0.4,0.8,0.6,1.7,0.6,2.7
			s-0.2,1.9-0.6,2.7c-0.4,0.8-0.9,1.4-1.6,1.8C979,223.8,978.2,224,977.3,224z M977.3,222.1c0.7,0,1.3-0.3,1.7-0.8
			c0.4-0.6,0.6-1.4,0.6-2.4s-0.2-1.9-0.6-2.4c-0.4-0.6-1-0.8-1.7-0.8s-1.3,0.3-1.7,0.9c-0.4,0.6-0.6,1.4-0.6,2.4s0.2,1.8,0.6,2.4
			C976.1,221.8,976.6,222.1,977.3,222.1z M989.5,232.8c-0.9,0-1.6-0.2-2.3-0.6c-0.7-0.4-1.2-1-1.6-1.8c-0.4-0.8-0.6-1.7-0.6-2.7
			s0.2-1.9,0.6-2.7c0.4-0.8,0.9-1.4,1.6-1.8c0.7-0.4,1.4-0.6,2.3-0.6c0.9,0,1.7,0.2,2.4,0.6c0.7,0.4,1.2,1,1.6,1.8
			c0.4,0.8,0.6,1.7,0.6,2.7s-0.2,1.9-0.6,2.7c-0.4,0.8-0.9,1.4-1.6,1.8C991.2,232.6,990.5,232.8,989.5,232.8z M989.5,230.9
			c0.7,0,1.3-0.3,1.7-0.9c0.4-0.6,0.6-1.4,0.6-2.4s-0.2-1.8-0.6-2.4c-0.4-0.6-1-0.9-1.7-0.9s-1.3,0.3-1.7,0.8
			c-0.4,0.6-0.6,1.4-0.6,2.4s0.2,1.9,0.6,2.4C988.3,230.6,988.9,230.9,989.5,230.9z"/>
	</g>
	<path class="st3" d="M0,253.9h88v-69H0V253.9z"/>
	<path class="st3" d="M92.6,253.9h88v-49.3h-88C92.6,204.6,92.6,253.9,92.6,253.9z"/>
	<path class="st3" d="M185.3,253.9h88v-69h-88L185.3,253.9L185.3,253.9z"/>
	<path class="st3" d="M277.9,253.9h88V125.7h-88V253.9z"/>
	<path class="st3" d="M370.6,253.9h88V46.8h-88V253.9z"/>
	<path class="st2" d="M463.2,253.9h88V67.6h-88V253.9z"/>
	<path class="st0" d="M555.9,253.9h88V106.8h-88V253.9z"/>
	<path class="st4" d="M648.5,253.9h88v-87.7h-88V253.9z"/>
	<path class="st5" d="M741.2,253.9h88v-32.4h-88V253.9z"/>
	<path class="st6" d="M833.8,253.9h88v-10.3h-88V253.9z"/>
	<path class="st7" d="M926.5,253.9h88V249h-88V253.9z"/>
</g>
</svg>
