<?xml version="1.0" encoding="UTF-8"?><svg id="Layer_1" xmlns="http://www.w3.org/2000/svg" viewBox="0 0 1024.01 278.47"><defs><style>.cls-1{fill:#fa9101;}.cls-2{fill:#00bd00;}.cls-3{fill:#001837;}.cls-4{fill:#fdd400;}.cls-5{fill:#fdf300;}.cls-6{fill:#667487;}.cls-7{fill:#d8db1a;}.cls-8{fill:#d62015;}.cls-9{fill:#9ade27;}</style></defs><path class="cls-4" d="M555.92,244.38h87.92l9.47,17.04-9.47,17.04h-87.92l9.47-17.04-9.47-17.04Z"/><path class="cls-3" d="M602.66,260.34h5.39v2.02h-5.39v-2.02Zm.19,4.61h6.1v2.08h-8.67v-11.2h8.46v2.08h-5.89v7.04Z"/><path class="cls-1" d="M463.26,244.38h87.92l9.47,17.04-9.47,17.04h-87.92l9.47-17.04-9.47-17.04Z"/><path class="cls-8" d="M.27,244.38H458.53l9.47,17.04-9.47,17.04H.27l9.47-17.04L.27,244.38Z"/><path class="cls-5" d="M648.57,244.38h87.92l9.47,17.04-9.47,17.04h-87.92l9.47-17.04-9.47-17.04Z"/><path class="cls-3" d="M691.63,267.02v-11.2h5.09c1.22,0,2.29,.24,3.22,.7,.93,.46,1.65,1.1,2.18,1.94,.52,.83,.78,1.82,.78,2.96s-.26,2.12-.78,2.96c-.52,.83-1.25,1.48-2.18,1.95-.93,.46-2,.69-3.22,.69h-5.09Zm2.59-2.13h2.37c.75,0,1.39-.14,1.94-.42,.55-.29,.98-.69,1.28-1.22,.31-.52,.46-1.14,.46-1.84s-.15-1.33-.46-1.84c-.3-.52-.73-.92-1.28-1.2-.54-.29-1.19-.43-1.94-.43h-2.37v6.94Z"/><path class="cls-7" d="M741.22,244.38h88.02l9.47,17.04-9.47,17.04h-88.02l9.47-17.04-9.47-17.04Z"/><path class="cls-3" d="M790.68,267.22c-.86,0-1.67-.14-2.42-.42-.74-.29-1.38-.69-1.92-1.22s-.97-1.14-1.28-1.84c-.3-.7-.45-1.48-.45-2.32s.15-1.62,.45-2.32c.31-.7,.74-1.32,1.28-1.84,.55-.52,1.2-.92,1.94-1.2,.74-.29,1.54-.43,2.42-.43,.97,0,1.84,.17,2.62,.51,.79,.33,1.45,.82,1.98,1.47l-1.66,1.54c-.38-.44-.81-.76-1.28-.98-.47-.22-.98-.34-1.54-.34-.52,0-1,.08-1.44,.26-.44,.17-.82,.42-1.14,.74-.32,.32-.57,.7-.75,1.14-.17,.44-.26,.92-.26,1.46s.08,1.02,.26,1.46c.18,.44,.43,.82,.75,1.14s.7,.57,1.14,.74c.44,.17,.92,.26,1.44,.26,.55,0,1.07-.11,1.54-.32,.47-.22,.9-.56,1.28-1.01l1.66,1.54c-.53,.65-1.2,1.15-1.98,1.49-.78,.34-1.66,.51-2.64,.51Z"/><path class="cls-9" d="M833.87,244.38h88.02l9.47,17.04-9.47,17.04h-88.02l9.47-17.04-9.47-17.04Z"/><path class="cls-3" d="M877.48,267.02v-11.2h5.47c1.41,0,2.46,.27,3.17,.8,.71,.53,1.07,1.24,1.07,2.11,0,.59-.14,1.1-.43,1.54-.29,.43-.68,.76-1.18,.99-.5,.24-1.08,.35-1.73,.35l.3-.66c.7,0,1.33,.12,1.87,.35,.54,.22,.97,.56,1.26,1.01,.31,.45,.46,1,.46,1.65,0,.96-.38,1.71-1.14,2.26-.76,.53-1.87,.8-3.34,.8h-5.79Zm2.58-1.95h3.02c.67,0,1.18-.11,1.52-.32,.35-.22,.53-.58,.53-1.06s-.18-.82-.53-1.04c-.34-.23-.85-.35-1.52-.35h-3.22v-1.89h2.77c.63,0,1.11-.11,1.44-.32,.34-.22,.51-.56,.51-1.01s-.17-.76-.51-.98c-.33-.22-.81-.34-1.44-.34h-2.58v7.3Z"/><path class="cls-2" d="M926.49,244.38h88.05l9.47,17.04-9.47,17.04h-88.05l9.47-17.04-9.47-17.04Z"/><path class="cls-3" d="M968.97,267.02l4.99-11.2h2.56l5.01,11.2h-2.72l-4.1-9.89h1.02l-4.11,9.89h-2.66Zm2.5-2.4l.69-1.97h5.76l.71,1.97h-7.16Z"/><path class="cls-8" d="M0,237.85H88.02v-41.42H0v41.42Z"/><path class="cls-8" d="M92.65,237.85h88.02v-29.58H92.65v29.58Z"/><path class="cls-8" d="M185.3,237.85h88.02v-41.42h-88.02v41.42Z"/><path class="cls-8" d="M277.96,237.85h88.02v-65.08h-88.02v65.08Z"/><path class="cls-8" d="M370.61,237.85h88.02V125.43h-88.02v112.42Z"/><path class="cls-1" d="M463.26,237.85h88.02V84.02h-88.02V237.85Z"/><path class="cls-4" d="M555.92,237.85h88.02V66.27h-88.02V237.85Z"/><path class="cls-5" d="M648.57,237.85h88.02V54.43h-88.02V237.85Z"/><path class="cls-7" d="M741.22,237.85h88.02V30.77h-88.02V237.85Z"/><path class="cls-9" d="M833.87,237.85h88.02V72.18h-88.02V237.85Z"/><path class="cls-2" d="M926.53,237.85h88.02v-11.83h-88.02v11.83Z"/><path class="cls-6" d="M28.08,180.36v-2.4l9.2-12.03h3.7l-9.07,12.03-1.73-.53h14.8v2.93H28.08Zm10.24,4.24v-4.24l.11-2.93v-3.76h3.25v10.93h-3.36Z"/><path class="cls-6" d="M49.06,184.6l12.75-18.67h2.61l-12.75,18.67h-2.61Zm1.55-8.61c-.87,0-1.65-.21-2.32-.64-.68-.43-1.2-1.02-1.58-1.79-.37-.77-.56-1.67-.56-2.7s.19-1.93,.56-2.69c.38-.77,.9-1.36,1.58-1.79,.67-.43,1.45-.64,2.32-.64s1.69,.21,2.36,.64c.67,.43,1.19,1.02,1.56,1.79,.38,.76,.56,1.66,.56,2.69s-.19,1.93-.56,2.7c-.37,.76-.89,1.36-1.56,1.79-.67,.43-1.45,.64-2.36,.64Zm.02-1.87c.71,0,1.27-.28,1.67-.84,.4-.56,.6-1.37,.6-2.42s-.2-1.85-.6-2.41c-.4-.56-.96-.84-1.67-.84s-1.27,.29-1.69,.86c-.42,.57-.62,1.37-.62,2.4s.21,1.83,.62,2.4c.42,.57,.98,.85,1.69,.85Zm12.22,10.67c-.87,0-1.65-.21-2.32-.64-.67-.43-1.2-1.02-1.58-1.79-.37-.77-.56-1.66-.56-2.69s.19-1.93,.56-2.69c.38-.77,.9-1.36,1.58-1.79,.67-.43,1.45-.64,2.32-.64s1.69,.21,2.36,.64c.67,.42,1.19,1.02,1.56,1.79,.38,.76,.56,1.66,.56,2.69s-.19,1.93-.56,2.69c-.37,.76-.89,1.36-1.56,1.79-.67,.43-1.45,.64-2.36,.64Zm0-1.87c.71,0,1.27-.29,1.68-.85,.41-.57,.61-1.37,.61-2.4s-.2-1.83-.61-2.4c-.41-.57-.97-.86-1.68-.86s-1.25,.28-1.67,.84c-.42,.56-.62,1.36-.62,2.41s.21,1.85,.62,2.42c.42,.56,.98,.84,1.67,.84Z"/><path class="cls-6" d="M122.05,196.44v-2.32l7.41-7.04c.62-.59,1.08-1.11,1.39-1.55,.3-.45,.5-.86,.6-1.24,.1-.38,.15-.74,.15-1.08,0-.86-.29-1.52-.88-1.99-.59-.47-1.45-.71-2.59-.71-.91,0-1.73,.16-2.47,.48-.74,.32-1.37,.81-1.9,1.46l-2.43-1.87c.73-.98,1.71-1.74,2.94-2.28,1.24-.54,2.62-.81,4.15-.81,1.35,0,2.53,.22,3.53,.65,1,.44,1.78,1.05,2.32,1.85,.54,.8,.82,1.75,.82,2.85,0,.61-.08,1.21-.24,1.8-.16,.6-.46,1.22-.91,1.88-.44,.66-1.09,1.39-1.95,2.21l-6.37,6.05-.72-1.31h10.9v2.93h-13.76Z"/><path class="cls-6" d="M140.42,196.44l12.75-18.67h2.61l-12.75,18.67h-2.61Zm1.55-8.61c-.87,0-1.65-.21-2.32-.64-.68-.43-1.2-1.02-1.58-1.79-.37-.77-.56-1.67-.56-2.7s.19-1.93,.56-2.69c.38-.77,.9-1.36,1.58-1.79,.67-.43,1.45-.64,2.32-.64s1.69,.21,2.36,.64c.67,.43,1.19,1.02,1.56,1.79,.38,.76,.56,1.66,.56,2.69s-.19,1.93-.56,2.7c-.37,.76-.89,1.36-1.56,1.79-.67,.43-1.45,.64-2.36,.64Zm.02-1.87c.71,0,1.27-.28,1.67-.84,.4-.56,.6-1.37,.6-2.42s-.2-1.85-.6-2.41c-.4-.56-.96-.84-1.67-.84s-1.27,.28-1.69,.85c-.42,.57-.62,1.37-.62,2.4s.21,1.83,.62,2.4c.42,.57,.98,.85,1.69,.85Zm12.22,10.67c-.87,0-1.65-.21-2.32-.64-.68-.43-1.2-1.02-1.57-1.79-.37-.77-.56-1.67-.56-2.7s.19-1.93,.56-2.69c.38-.77,.9-1.36,1.57-1.79,.68-.43,1.45-.64,2.32-.64s1.69,.21,2.36,.64c.67,.42,1.19,1.02,1.56,1.79,.38,.76,.56,1.66,.56,2.69s-.19,1.93-.56,2.7c-.37,.76-.89,1.36-1.56,1.79-.67,.43-1.45,.64-2.36,.64Zm0-1.87c.71,0,1.27-.29,1.68-.85,.41-.57,.61-1.37,.61-2.4s-.21-1.83-.61-2.4c-.41-.57-.97-.85-1.68-.85s-1.25,.28-1.67,.84c-.42,.56-.62,1.36-.62,2.41s.21,1.86,.62,2.42c.42,.56,.98,.84,1.67,.84Z"/><path class="cls-6" d="M213.38,180.36v-2.4l9.2-12.03h3.7l-9.07,12.03-1.73-.53h14.8v2.93h-16.9Zm10.24,4.24v-4.24l.11-2.93v-3.76h3.25v10.93h-3.36Z"/><path class="cls-6" d="M234.37,184.6l12.75-18.67h2.61l-12.75,18.67h-2.61Zm1.55-8.61c-.87,0-1.65-.21-2.32-.64-.68-.43-1.2-1.02-1.58-1.79-.37-.77-.56-1.67-.56-2.7s.19-1.93,.56-2.69c.38-.77,.9-1.36,1.58-1.79,.67-.43,1.45-.64,2.32-.64s1.69,.21,2.36,.64c.67,.43,1.19,1.02,1.56,1.79,.38,.76,.56,1.66,.56,2.69s-.19,1.93-.56,2.7c-.37,.76-.89,1.36-1.56,1.79-.67,.43-1.45,.64-2.36,.64Zm.02-1.87c.71,0,1.27-.28,1.67-.84,.4-.56,.6-1.37,.6-2.42s-.2-1.85-.6-2.41c-.4-.56-.96-.84-1.67-.84s-1.27,.29-1.69,.86c-.42,.57-.62,1.37-.62,2.4s.21,1.83,.62,2.4c.42,.57,.98,.85,1.69,.85Zm12.22,10.67c-.87,0-1.65-.21-2.32-.64-.68-.43-1.2-1.02-1.57-1.79-.37-.77-.56-1.66-.56-2.69s.19-1.93,.56-2.69c.38-.77,.9-1.36,1.57-1.79,.68-.43,1.45-.64,2.32-.64s1.69,.21,2.36,.64c.67,.42,1.19,1.02,1.56,1.79,.38,.76,.56,1.66,.56,2.69s-.19,1.93-.56,2.69c-.37,.76-.89,1.36-1.56,1.79-.67,.43-1.45,.64-2.36,.64Zm0-1.87c.71,0,1.27-.29,1.68-.85,.41-.57,.61-1.37,.61-2.4s-.2-1.83-.61-2.4c-.41-.57-.97-.86-1.68-.86s-1.25,.28-1.67,.84c-.42,.56-.62,1.36-.62,2.41s.21,1.85,.62,2.42c.42,.56,.98,.84,1.67,.84Z"/><path class="cls-6" d="M315.08,161.2c-1.69,0-3.14-.36-4.35-1.08-1.21-.72-2.13-1.76-2.77-3.13-.64-1.37-.96-3.06-.96-5.07,0-2.13,.39-3.94,1.16-5.41,.77-1.48,1.85-2.6,3.23-3.36,1.38-.76,2.96-1.15,4.76-1.15,.94,0,1.84,.1,2.71,.3,.86,.19,1.6,.5,2.2,.9l-1.28,2.61c-.51-.34-1.07-.57-1.67-.7-.6-.13-1.22-.2-1.88-.2-1.76,0-3.16,.54-4.19,1.62-1.03,1.08-1.55,2.68-1.55,4.8,0,.34,0,.74,.02,1.19,.02,.45,.08,.91,.19,1.37l-1.07-1.17c.32-.73,.76-1.34,1.32-1.83s1.23-.86,2-1.1c.77-.25,1.61-.38,2.52-.38,1.23,0,2.32,.24,3.28,.71,.96,.47,1.73,1.14,2.29,2,.57,.86,.85,1.87,.85,3.02,0,1.23-.3,2.3-.91,3.21-.6,.9-1.42,1.61-2.45,2.1-1.03,.5-2.19,.75-3.47,.75Zm-.19-2.72c.71,0,1.34-.13,1.89-.38,.55-.26,.99-.63,1.3-1.11,.31-.48,.47-1.04,.47-1.68,0-.98-.34-1.75-1.02-2.32-.67-.57-1.58-.85-2.72-.85-.75,0-1.4,.14-1.96,.41-.56,.27-1,.65-1.33,1.13-.33,.48-.49,1.03-.49,1.65,0,.57,.15,1.09,.45,1.57,.3,.48,.74,.86,1.32,1.15,.58,.28,1.28,.43,2.09,.43Z"/><path class="cls-6" d="M326.33,160.94l12.75-18.67h2.61l-12.75,18.67h-2.61Zm1.55-8.61c-.87,0-1.65-.21-2.32-.64-.68-.43-1.2-1.02-1.58-1.79-.37-.77-.56-1.67-.56-2.7s.19-1.93,.56-2.69c.38-.77,.9-1.36,1.58-1.79,.67-.43,1.45-.64,2.32-.64s1.69,.21,2.36,.64c.67,.43,1.19,1.02,1.56,1.79,.38,.76,.56,1.66,.56,2.69s-.19,1.93-.56,2.7c-.37,.76-.89,1.36-1.56,1.79-.67,.43-1.45,.64-2.36,.64Zm.03-1.87c.71,0,1.27-.28,1.67-.84,.4-.56,.6-1.37,.6-2.42s-.2-1.85-.6-2.41c-.4-.56-.95-.84-1.67-.84s-1.28,.28-1.69,.85c-.42,.57-.62,1.37-.62,2.4s.21,1.83,.62,2.4c.42,.57,.98,.85,1.69,.85Zm12.22,10.67c-.87,0-1.65-.21-2.32-.64-.68-.43-1.2-1.02-1.58-1.79-.37-.77-.56-1.67-.56-2.7s.19-1.93,.56-2.69c.38-.77,.9-1.36,1.58-1.79,.67-.43,1.45-.64,2.32-.64s1.69,.21,2.36,.64c.67,.42,1.19,1.02,1.56,1.79,.38,.76,.56,1.66,.56,2.69s-.19,1.93-.56,2.7c-.37,.76-.89,1.36-1.56,1.79-.67,.43-1.45,.64-2.36,.64Zm0-1.87c.71,0,1.27-.29,1.68-.85,.41-.57,.61-1.37,.61-2.4s-.2-1.83-.61-2.4c-.41-.57-.97-.85-1.68-.85s-1.25,.28-1.67,.84c-.42,.56-.62,1.36-.62,2.41s.21,1.86,.62,2.42c.42,.56,.98,.84,1.67,.84Z"/><path class="cls-6" d="M393.26,113.6v-17.33l1.52,1.57h-5.47v-2.91h7.41v18.67h-3.47Z"/><path class="cls-6" d="M408.22,113.87c-1.48,0-2.8-.37-3.99-1.12-1.18-.75-2.11-1.84-2.78-3.27-.67-1.43-1.01-3.17-1.01-5.21s.34-3.78,1.01-5.21c.68-1.43,1.6-2.52,2.78-3.27,1.18-.75,2.51-1.12,3.99-1.12s2.83,.37,4,1.12c1.17,.75,2.1,1.84,2.79,3.27,.69,1.43,1.03,3.17,1.03,5.21s-.34,3.78-1.03,5.21c-.68,1.43-1.61,2.52-2.79,3.27-1.17,.75-2.51,1.12-4,1.12Zm0-3.01c.87,0,1.63-.24,2.27-.7,.64-.47,1.14-1.2,1.51-2.18,.36-.98,.55-2.21,.55-3.71s-.18-2.75-.55-3.72c-.36-.97-.87-1.69-1.51-2.16-.64-.47-1.39-.71-2.27-.71s-1.58,.24-2.23,.71c-.65,.47-1.16,1.19-1.52,2.16-.36,.97-.55,2.21-.55,3.72s.18,2.73,.55,3.71c.36,.98,.87,1.7,1.52,2.18,.65,.47,1.39,.7,2.23,.7Z"/><path class="cls-6" d="M421,113.6l12.75-18.67h2.61l-12.75,18.67h-2.61Zm1.55-8.61c-.87,0-1.65-.21-2.32-.64-.67-.43-1.2-1.02-1.58-1.79-.37-.77-.56-1.67-.56-2.7s.19-1.93,.56-2.69c.38-.77,.9-1.36,1.58-1.79,.67-.43,1.45-.64,2.32-.64s1.69,.21,2.36,.64c.67,.43,1.19,1.02,1.56,1.79,.38,.76,.56,1.66,.56,2.69s-.19,1.93-.56,2.7c-.37,.76-.89,1.36-1.56,1.79-.67,.43-1.45,.64-2.36,.64Zm.02-1.87c.71,0,1.27-.28,1.67-.84,.4-.56,.6-1.37,.6-2.42s-.2-1.85-.6-2.41c-.4-.56-.95-.84-1.67-.84s-1.27,.28-1.69,.85c-.42,.57-.62,1.37-.62,2.4s.21,1.83,.62,2.4c.42,.57,.98,.85,1.69,.85Zm12.22,10.67c-.87,0-1.65-.21-2.32-.64-.67-.43-1.2-1.02-1.57-1.79-.37-.77-.56-1.67-.56-2.7s.19-1.93,.56-2.69c.38-.77,.9-1.36,1.57-1.79,.68-.43,1.45-.64,2.32-.64s1.69,.21,2.36,.64c.67,.43,1.19,1.02,1.56,1.79,.38,.76,.56,1.66,.56,2.69s-.19,1.93-.56,2.7c-.37,.76-.89,1.36-1.56,1.79-.67,.42-1.45,.64-2.36,.64Zm0-1.87c.71,0,1.27-.28,1.68-.85,.41-.57,.61-1.37,.61-2.4s-.2-1.83-.61-2.4c-.41-.57-.97-.85-1.68-.85s-1.25,.28-1.67,.84c-.42,.56-.62,1.36-.62,2.41s.21,1.85,.62,2.42c.42,.56,.98,.84,1.67,.84Z"/><path class="cls-6" d="M487.12,72.18v-17.33l1.52,1.58h-5.47v-2.91h7.41v18.67h-3.47Z"/><path class="cls-6" d="M500.17,72.45c-1.32,0-2.6-.19-3.86-.57-1.25-.38-2.31-.91-3.16-1.59l1.5-2.7c.67,.55,1.49,1,2.45,1.34,.96,.34,1.97,.5,3.02,.5,1.24,0,2.21-.25,2.9-.76,.69-.51,1.04-1.2,1.04-2.07s-.32-1.53-.96-2.03c-.64-.5-1.67-.75-3.09-.75h-1.7v-2.38l5.33-6.35,.45,1.31h-10.03v-2.91h12.72v2.32l-5.33,6.35-1.81-1.07h1.04c2.29,0,4.01,.51,5.16,1.53,1.15,1.02,1.72,2.33,1.72,3.93,0,1.05-.27,2.02-.8,2.91-.53,.89-1.35,1.6-2.44,2.15-1.09,.54-2.47,.81-4.14,.81Z"/><path class="cls-6" d="M512.43,72.18l12.75-18.67h2.61l-12.75,18.67h-2.61Zm1.55-8.61c-.87,0-1.65-.21-2.32-.64-.67-.43-1.2-1.02-1.57-1.79-.37-.77-.56-1.67-.56-2.7s.19-1.93,.56-2.69c.38-.77,.9-1.36,1.57-1.79,.67-.43,1.45-.64,2.32-.64s1.69,.21,2.36,.64c.67,.42,1.19,1.02,1.56,1.79,.38,.76,.56,1.66,.56,2.69s-.19,1.93-.56,2.7c-.37,.76-.89,1.36-1.56,1.79-.67,.42-1.45,.64-2.36,.64Zm.03-1.87c.71,0,1.27-.28,1.67-.84,.4-.56,.6-1.37,.6-2.42s-.2-1.85-.6-2.41c-.4-.56-.96-.84-1.67-.84s-1.28,.28-1.69,.85c-.42,.57-.62,1.37-.62,2.4s.21,1.83,.62,2.4c.42,.57,.98,.85,1.69,.85Zm12.22,10.67c-.87,0-1.65-.21-2.32-.64-.67-.43-1.2-1.02-1.58-1.79-.37-.77-.56-1.67-.56-2.7s.19-1.93,.56-2.69c.38-.77,.9-1.36,1.58-1.79,.67-.43,1.45-.64,2.32-.64s1.69,.21,2.36,.64c.67,.43,1.19,1.02,1.56,1.79,.38,.76,.56,1.66,.56,2.69s-.19,1.93-.56,2.7c-.37,.76-.89,1.36-1.56,1.79-.67,.42-1.45,.64-2.36,.64Zm0-1.87c.71,0,1.27-.28,1.68-.85,.41-.57,.61-1.37,.61-2.4s-.2-1.83-.61-2.4c-.41-.57-.97-.85-1.68-.85s-1.25,.28-1.67,.84c-.42,.56-.62,1.36-.62,2.41s.21,1.86,.62,2.42c.42,.56,.98,.84,1.67,.84Z"/><path class="cls-6" d="M578.48,54.43v-17.33l1.52,1.58h-5.47v-2.91h7.41v18.67h-3.47Z"/><path class="cls-6" d="M585.39,50.19v-2.4l9.2-12.03h3.7l-9.07,12.03-1.73-.53h14.8v2.93h-16.9Zm10.24,4.24v-4.24l.11-2.93v-3.76h3.25v10.93h-3.36Z"/><path class="cls-6" d="M606.38,54.43l12.75-18.67h2.61l-12.75,18.67h-2.61Zm1.55-8.61c-.87,0-1.65-.21-2.32-.64-.67-.43-1.2-1.02-1.58-1.79-.37-.77-.56-1.67-.56-2.7s.19-1.93,.56-2.69c.38-.77,.9-1.36,1.58-1.79,.67-.43,1.45-.64,2.32-.64s1.69,.21,2.36,.64c.67,.42,1.19,1.02,1.56,1.79,.38,.76,.56,1.66,.56,2.69s-.19,1.93-.56,2.7c-.37,.76-.89,1.36-1.56,1.79-.67,.42-1.45,.64-2.36,.64Zm.02-1.87c.71,0,1.27-.28,1.67-.84,.4-.56,.6-1.37,.6-2.42s-.2-1.85-.6-2.41c-.4-.56-.96-.84-1.67-.84s-1.27,.28-1.69,.85c-.42,.57-.62,1.37-.62,2.4s.21,1.83,.62,2.4c.42,.57,.98,.85,1.69,.85Zm12.22,10.67c-.87,0-1.65-.21-2.32-.64-.67-.43-1.2-1.02-1.57-1.79-.37-.77-.56-1.67-.56-2.7s.19-1.93,.56-2.69c.38-.77,.9-1.36,1.57-1.79,.68-.43,1.45-.64,2.32-.64s1.69,.21,2.36,.64c.67,.43,1.19,1.02,1.56,1.79,.38,.76,.56,1.66,.56,2.69s-.19,1.93-.56,2.7c-.37,.76-.89,1.36-1.56,1.79-.67,.42-1.45,.64-2.36,.64Zm0-1.87c.71,0,1.27-.28,1.68-.85,.41-.57,.61-1.37,.61-2.4s-.2-1.83-.61-2.4c-.41-.57-.97-.85-1.68-.85s-1.25,.28-1.67,.84c-.42,.56-.62,1.36-.62,2.41s.21,1.86,.62,2.42c.42,.56,.98,.84,1.67,.84Z"/><path class="cls-6" d="M671.83,42.6V25.27l1.52,1.58h-5.47v-2.91h7.41v18.67h-3.47Z"/><path class="cls-6" d="M687.09,42.87c-1.69,0-3.14-.36-4.35-1.08-1.21-.72-2.13-1.76-2.77-3.13-.64-1.37-.96-3.06-.96-5.07,0-2.13,.39-3.94,1.16-5.41,.77-1.48,1.85-2.6,3.22-3.36,1.38-.76,2.97-1.15,4.76-1.15,.94,0,1.84,.1,2.7,.3,.86,.19,1.6,.5,2.2,.9l-1.28,2.61c-.51-.34-1.07-.57-1.67-.7-.59-.13-1.22-.2-1.88-.2-1.76,0-3.16,.54-4.19,1.62-1.03,1.08-1.55,2.68-1.55,4.8,0,.34,0,.73,.02,1.19,.02,.45,.08,.91,.19,1.37l-1.07-1.17c.32-.73,.76-1.34,1.32-1.83,.56-.49,1.23-.86,2-1.1,.77-.25,1.61-.38,2.52-.38,1.23,0,2.32,.24,3.28,.71,.96,.47,1.73,1.14,2.29,2,.57,.86,.85,1.87,.85,3.02,0,1.23-.3,2.3-.91,3.2-.6,.91-1.42,1.61-2.45,2.1-1.03,.5-2.19,.75-3.47,.75Zm-.19-2.72c.71,0,1.34-.13,1.89-.38,.55-.26,.98-.63,1.3-1.11,.31-.48,.47-1.04,.47-1.68,0-.98-.34-1.75-1.02-2.32-.67-.57-1.58-.85-2.72-.85-.75,0-1.4,.14-1.96,.41-.56,.28-1,.65-1.33,1.13-.33,.48-.49,1.03-.49,1.65,0,.57,.15,1.09,.46,1.58,.3,.48,.74,.86,1.32,1.15,.58,.28,1.28,.42,2.09,.42Z"/><path class="cls-6" d="M698.34,42.6l12.74-18.67h2.61l-12.75,18.67h-2.61Zm1.54-8.61c-.87,0-1.65-.21-2.32-.64-.67-.43-1.2-1.02-1.58-1.79-.37-.77-.56-1.67-.56-2.7s.19-1.93,.56-2.69c.38-.77,.9-1.36,1.58-1.79,.67-.43,1.45-.64,2.32-.64s1.69,.21,2.36,.64c.67,.43,1.19,1.02,1.56,1.79,.38,.76,.56,1.66,.56,2.69s-.19,1.93-.56,2.7c-.37,.76-.89,1.36-1.56,1.79-.67,.42-1.45,.64-2.36,.64Zm.03-1.87c.71,0,1.27-.28,1.67-.84,.4-.56,.6-1.37,.6-2.42s-.2-1.85-.6-2.41c-.4-.56-.96-.84-1.67-.84s-1.28,.28-1.69,.85c-.42,.57-.62,1.37-.62,2.4s.21,1.83,.62,2.4c.42,.57,.98,.85,1.69,.85Zm12.22,10.67c-.87,0-1.65-.21-2.32-.64-.68-.43-1.2-1.02-1.58-1.79-.37-.77-.56-1.67-.56-2.7s.19-1.93,.56-2.69c.38-.77,.9-1.36,1.58-1.79,.67-.43,1.45-.64,2.32-.64s1.69,.21,2.36,.64c.67,.43,1.19,1.02,1.56,1.79,.38,.76,.56,1.66,.56,2.69s-.19,1.93-.56,2.7c-.37,.76-.89,1.36-1.56,1.79-.67,.42-1.45,.64-2.36,.64Zm0-1.87c.71,0,1.27-.28,1.68-.85,.41-.57,.61-1.37,.61-2.4s-.2-1.83-.61-2.4c-.41-.57-.97-.85-1.68-.85s-1.25,.28-1.67,.84c-.42,.56-.62,1.36-.62,2.41s.21,1.86,.62,2.42c.42,.56,.98,.84,1.67,.84Z"/><path class="cls-6" d="M764.15,18.93V1.6l1.52,1.58h-5.47V.27h7.41V18.93h-3.47Z"/><path class="cls-6" d="M778.82,19.2c-1.55,0-2.89-.23-4.03-.69-1.14-.46-2.02-1.12-2.64-1.96-.62-.84-.93-1.83-.93-2.97s.3-2.1,.9-2.88c.61-.78,1.48-1.38,2.61-1.79,1.14-.41,2.5-.62,4.08-.62s2.95,.21,4.09,.62c1.15,.41,2.03,1.01,2.64,1.8,.61,.79,.92,1.74,.92,2.87s-.32,2.13-.95,2.97c-.63,.84-1.52,1.5-2.67,1.96-1.15,.46-2.49,.69-4.04,.69Zm0-2.72c1.28,0,2.29-.27,3.04-.8,.75-.53,1.12-1.27,1.12-2.21s-.37-1.65-1.12-2.19c-.74-.53-1.76-.8-3.04-.8s-2.29,.27-3.02,.8c-.73,.53-1.09,1.26-1.09,2.19s.36,1.68,1.09,2.21c.73,.53,1.74,.8,3.02,.8Zm0-6.37c-1.44,0-2.67-.19-3.71-.58-1.03-.38-1.83-.94-2.39-1.68-.56-.74-.84-1.62-.84-2.65s.29-1.99,.87-2.76c.58-.77,1.39-1.38,2.44-1.8,1.05-.43,2.26-.64,3.63-.64s2.6,.21,3.65,.64c1.05,.42,1.87,1.02,2.45,1.8,.59,.77,.88,1.69,.88,2.76s-.28,1.92-.84,2.65c-.56,.74-1.36,1.3-2.41,1.68-1.05,.38-2.29,.58-3.73,.58Zm0-2.13c1.1,0,1.97-.24,2.61-.71,.64-.47,.96-1.11,.96-1.91s-.33-1.48-.99-1.94c-.66-.46-1.52-.7-2.59-.7s-1.92,.23-2.56,.7c-.64,.46-.96,1.11-.96,1.94s.32,1.44,.95,1.91c.63,.47,1.49,.71,2.58,.71Z"/><path class="cls-6" d="M791.32,18.93L804.07,.27h2.61l-12.75,18.67h-2.61Zm1.55-8.61c-.87,0-1.65-.21-2.32-.64-.67-.43-1.2-1.02-1.57-1.79-.37-.77-.56-1.67-.56-2.7s.19-1.93,.56-2.69c.38-.77,.9-1.36,1.57-1.79,.68-.43,1.45-.64,2.32-.64s1.69,.21,2.36,.64c.67,.42,1.19,1.02,1.56,1.79,.38,.76,.56,1.66,.56,2.69s-.19,1.93-.56,2.7c-.37,.76-.89,1.36-1.56,1.79-.67,.43-1.45,.64-2.36,.64Zm.02-1.87c.71,0,1.27-.28,1.67-.84,.4-.56,.6-1.37,.6-2.42s-.2-1.85-.6-2.41c-.4-.56-.96-.84-1.67-.84s-1.27,.28-1.69,.85c-.42,.57-.62,1.37-.62,2.4s.21,1.83,.62,2.4c.42,.57,.98,.85,1.69,.85Zm12.22,10.67c-.87,0-1.65-.21-2.32-.64-.67-.43-1.2-1.02-1.58-1.79-.37-.77-.56-1.67-.56-2.7s.19-1.93,.56-2.69c.38-.77,.9-1.36,1.58-1.79,.67-.43,1.45-.64,2.32-.64s1.69,.21,2.36,.64c.67,.43,1.19,1.02,1.56,1.79,.38,.76,.56,1.66,.56,2.69s-.19,1.93-.56,2.7c-.37,.76-.89,1.36-1.56,1.79-.67,.43-1.45,.64-2.36,.64Zm0-1.87c.71,0,1.27-.28,1.68-.85,.41-.57,.61-1.37,.61-2.4s-.2-1.83-.61-2.4c-.41-.57-.97-.85-1.68-.85s-1.25,.28-1.67,.84c-.42,.56-.62,1.36-.62,2.41s.21,1.86,.62,2.42c.42,.56,.98,.84,1.67,.84Z"/><path class="cls-6" d="M856.44,60.35v-17.33l1.52,1.58h-5.47v-2.91h7.41v18.67h-3.47Z"/><path class="cls-6" d="M863.35,56.11v-2.4l9.2-12.02h3.7l-9.07,12.02-1.73-.53h14.8v2.93h-16.9Zm10.24,4.24v-4.24l.11-2.93v-3.76h3.25v10.93h-3.36Z"/><path class="cls-6" d="M884.34,60.35l12.74-18.67h2.61l-12.75,18.67h-2.61Zm1.54-8.61c-.87,0-1.64-.21-2.32-.64-.67-.43-1.2-1.02-1.57-1.79-.37-.77-.56-1.67-.56-2.7s.19-1.93,.56-2.69c.38-.77,.9-1.36,1.57-1.79,.68-.43,1.45-.64,2.32-.64s1.69,.21,2.36,.64c.67,.42,1.19,1.02,1.56,1.79,.38,.76,.56,1.66,.56,2.69s-.19,1.93-.56,2.7c-.37,.76-.89,1.36-1.56,1.79-.67,.42-1.45,.64-2.36,.64Zm.03-1.87c.71,0,1.27-.28,1.67-.84,.4-.56,.6-1.37,.6-2.42s-.2-1.85-.6-2.41c-.4-.56-.96-.84-1.67-.84s-1.28,.28-1.69,.85c-.42,.57-.62,1.37-.62,2.4s.21,1.83,.62,2.4c.42,.57,.98,.85,1.69,.85Zm12.22,10.67c-.87,0-1.65-.21-2.32-.64-.67-.43-1.2-1.02-1.58-1.79-.37-.77-.56-1.67-.56-2.7s.19-1.93,.56-2.69c.38-.77,.9-1.36,1.58-1.79,.67-.43,1.45-.64,2.32-.64s1.69,.21,2.36,.64c.67,.43,1.19,1.02,1.56,1.79,.38,.76,.56,1.66,.56,2.69s-.19,1.93-.56,2.7c-.37,.76-.89,1.36-1.56,1.79-.67,.42-1.45,.64-2.36,.64Zm0-1.87c.71,0,1.27-.28,1.68-.85,.41-.57,.61-1.37,.61-2.4s-.2-1.83-.61-2.4c-.41-.57-.97-.85-1.68-.85s-1.25,.28-1.67,.84c-.42,.56-.62,1.36-.62,2.41s.21,1.86,.62,2.42c.42,.56,.98,.84,1.67,.84Z"/><path class="cls-6" d="M961.83,214.19v-17.33l1.52,1.57h-5.47v-2.91h7.41v18.67h-3.47Z"/><path class="cls-6" d="M971.62,214.19l12.75-18.67h2.61l-12.75,18.67h-2.61Zm1.55-8.61c-.87,0-1.65-.21-2.32-.64-.67-.43-1.2-1.02-1.58-1.79-.37-.77-.56-1.67-.56-2.7s.19-1.93,.56-2.69c.38-.77,.9-1.36,1.58-1.79,.67-.43,1.45-.64,2.32-.64s1.69,.21,2.36,.64c.67,.43,1.19,1.02,1.56,1.79,.38,.76,.56,1.66,.56,2.69s-.19,1.93-.56,2.7c-.37,.76-.89,1.36-1.56,1.79-.67,.43-1.45,.64-2.36,.64Zm.02-1.87c.71,0,1.27-.28,1.67-.84,.4-.56,.6-1.37,.6-2.42s-.2-1.85-.6-2.41c-.4-.56-.96-.84-1.67-.84s-1.27,.28-1.69,.85c-.42,.57-.62,1.37-.62,2.4s.21,1.83,.62,2.4c.42,.57,.98,.85,1.69,.85Zm12.22,10.67c-.87,0-1.65-.21-2.32-.64-.67-.43-1.2-1.02-1.58-1.79-.37-.77-.56-1.67-.56-2.7s.19-1.93,.56-2.69c.38-.77,.9-1.36,1.58-1.79,.67-.43,1.45-.64,2.32-.64s1.69,.21,2.36,.64c.67,.42,1.19,1.02,1.56,1.79,.38,.76,.56,1.66,.56,2.69s-.19,1.93-.56,2.7c-.37,.76-.89,1.36-1.56,1.79-.67,.43-1.45,.64-2.36,.64Zm0-1.87c.71,0,1.27-.29,1.68-.85,.41-.57,.61-1.37,.61-2.4s-.2-1.83-.61-2.4c-.41-.57-.97-.85-1.68-.85s-1.25,.28-1.67,.84c-.42,.56-.62,1.36-.62,2.41s.21,1.86,.62,2.42c.42,.56,.98,.84,1.67,.84Z"/><path class="cls-3" d="M234.82,267.22c-.88,0-1.7-.14-2.45-.42-.74-.29-1.38-.69-1.94-1.22-.54-.52-.97-1.14-1.28-1.84-.3-.7-.45-1.48-.45-2.32s.15-1.62,.45-2.32c.31-.7,.74-1.32,1.3-1.84,.56-.52,1.21-.92,1.95-1.2,.75-.29,1.57-.43,2.46-.43,.99,0,1.88,.17,2.67,.5,.8,.33,1.47,.81,2.02,1.44l-1.66,1.54c-.4-.43-.85-.74-1.33-.94-.48-.21-1-.32-1.57-.32s-1.04,.08-1.49,.26c-.45,.17-.84,.42-1.17,.74-.32,.32-.57,.7-.75,1.14-.17,.44-.26,.92-.26,1.46s.08,1,.26,1.44c.18,.44,.43,.82,.75,1.15,.33,.32,.71,.57,1.15,.74,.45,.17,.94,.26,1.47,.26s1.01-.08,1.49-.24c.49-.17,.96-.45,1.42-.85l1.47,1.87c-.61,.46-1.32,.81-2.13,1.06-.8,.24-1.6,.37-2.4,.37Zm2.16-1.76v-4.21h2.37v4.54l-2.37-.34Z"/><path class="cls-3" d="M510.12,260.86h5.38v2.08h-5.38v-2.08Zm.19,6.16h-2.59v-11.2h8.46v2.08h-5.87v9.12Z"/></svg>