<?xml version="1.0" encoding="utf-8" standalone="no"?>
<!DOCTYPE svg PUBLIC "-//W3C//DTD SVG 1.1//EN" "http://www.w3.org/Graphics/SVG/1.1/DTD/svg11.dtd">
<svg xmlns:xlink="http://www.w3.org/1999/xlink" width="1080pt" height="216pt" viewBox="0 0 1080 216"
	xmlns="http://www.w3.org/2000/svg" version="1.1">
	<metadata>
		<rdf:RDF xmlns:dc="http://purl.org/dc/elements/1.1/" xmlns:cc="http://creativecommons.org/ns#"
			xmlns:rdf="http://www.w3.org/1999/02/22-rdf-syntax-ns#">
			<cc:Work>
				<dc:type rdf:resource="http://purl.org/dc/dcmitype/StillImage" />
				<dc:date>2023-08-21T17:58:08.293631</dc:date>
				<dc:format>image/svg+xml</dc:format>
				<dc:creator>
					<cc:Agent>
						<dc:title>Matplotlib v3.7.1, https://matplotlib.org/</dc:title>
					</cc:Agent>
				</dc:creator>
			</cc:Work>
		</rdf:RDF>
	</metadata>
	<defs>
		<style type="text/css">
			* {
				stroke-linejoin: round;
				stroke-linecap: butt
			}
		</style>
	</defs>
	<g id="figure_1">
		<g id="patch_1">
			<path d="M 0 216 
L 1080 216 
L 1080 0 
L 0 0 
z
" style="fill: #ffffff" />
		</g>
		<g id="axes_1">
			<g id="patch_2">
				<path d="M 173.045455 192.24 
L 239.060399 192.24 
L 239.060399 139.44 
L 173.045455 139.44 
z
" clip-path="url(#p39d51dabcd)" style="fill: #d62015" />
			</g>
			<g id="patch_3">
				<path d="M 242.534869 192.24 
L 308.549813 192.24 
L 308.549813 154.525714 
L 242.534869 154.525714 
z
" clip-path="url(#p39d51dabcd)" style="fill: #d62015" />
			</g>
			<g id="patch_4">
				<path d="M 312.024284 192.24 
L 378.039228 192.24 
L 378.039228 139.44 
L 312.024284 139.44 
z
" clip-path="url(#p39d51dabcd)" style="fill: #d62015" />
			</g>
			<g id="patch_5">
				<path d="M 381.513699 192.24 
L 447.528643 192.24 
L 447.528643 94.182857 
L 381.513699 94.182857 
z
" clip-path="url(#p39d51dabcd)" style="fill: #d62015" />
			</g>
			<g id="patch_6">
				<path d="M 451.003113 192.24 
L 517.018057 192.24 
L 517.018057 33.84 
L 451.003113 33.84 
z
" clip-path="url(#p39d51dabcd)" style="fill: #d62015" />
			</g>
			<g id="patch_7">
				<path d="M 520.492528 192.24 
L 586.507472 192.24 
L 586.507472 50.208 
L 520.492528 50.208 
z
" clip-path="url(#p39d51dabcd)" style="fill: #fa9101" />
			</g>
			<g id="patch_8">
				<path d="M 589.981943 192.24 
L 655.996887 192.24 
L 655.996887 80.379429 
L 589.981943 80.379429 
z
" clip-path="url(#p39d51dabcd)" style="fill: #fdd400" />
			</g>
			<g id="patch_9">
				<path d="M 659.471357 192.24 
L 725.486301 192.24 
L 725.486301 125.033143 
L 659.471357 125.033143 
z
" clip-path="url(#p39d51dabcd)" style="fill: #fdf300" />
			</g>
			<g id="patch_10">
				<path d="M 728.960772 192.24 
L 794.975716 192.24 
L 794.975716 165.462857 
L 728.960772 165.462857 
z
" clip-path="url(#p39d51dabcd)" style="fill: #d8db1a" />
			</g>
			<g id="patch_11">
				<path d="M 798.450187 192.24 
L 864.465131 192.24 
L 864.465131 181.906286 
L 798.450187 181.906286 
z
" clip-path="url(#p39d51dabcd)" style="fill: #9ade27" />
			</g>
			<g id="patch_12">
				<path d="M 867.939601 192.24 
L 933.954545 192.24 
L 933.954545 188.468571 
L 867.939601 188.468571 
z
" clip-path="url(#p39d51dabcd)" style="fill: #00bd00" />
			</g>
			<g id="text_1">
				<!--  7% -->
				<g style="fill: #667487" transform="translate(188.613864 124.354286) scale(0.2 -0.2)">
					<defs>
						<path id="Montserrat-SemiBold-20" transform="scale(0.015625)" />
						<path id="Montserrat-SemiBold-37" d="M 1030 0 
L 2880 4147 
L 3098 3776 
L 557 3776 
L 954 4179 
L 954 3014 
L 179 3014 
L 179 4480 
L 3661 4480 
L 3661 3923 
L 1920 0 
L 1030 0 
z
" transform="scale(0.015625)" />
						<path id="Montserrat-SemiBold-25" d="M 909 0 
L 3968 4480 
L 4595 4480 
L 1536 0 
L 909 0 
z
M 1280 2067 
Q 966 2067 723 2220 
Q 480 2374 345 2649 
Q 211 2925 211 3296 
Q 211 3667 345 3942 
Q 480 4218 723 4371 
Q 966 4525 1280 4525 
Q 1606 4525 1846 4371 
Q 2086 4218 2220 3942 
Q 2355 3667 2355 3296 
Q 2355 2925 2220 2649 
Q 2086 2374 1846 2220 
Q 1606 2067 1280 2067 
z
M 1286 2515 
Q 1542 2515 1686 2716 
Q 1830 2918 1830 3296 
Q 1830 3674 1686 3875 
Q 1542 4077 1286 4077 
Q 1030 4077 880 3872 
Q 730 3667 730 3296 
Q 730 2925 880 2720 
Q 1030 2515 1286 2515 
z
M 4218 -45 
Q 3904 -45 3661 108 
Q 3418 262 3283 537 
Q 3149 813 3149 1184 
Q 3149 1555 3283 1830 
Q 3418 2106 3661 2259 
Q 3904 2413 4218 2413 
Q 4544 2413 4784 2259 
Q 5024 2106 5158 1830 
Q 5293 1555 5293 1184 
Q 5293 813 5158 537 
Q 5024 262 4784 108 
Q 4544 -45 4218 -45 
z
M 4218 403 
Q 4474 403 4621 608 
Q 4768 813 4768 1184 
Q 4768 1555 4621 1760 
Q 4474 1965 4218 1965 
Q 3968 1965 3817 1763 
Q 3667 1562 3667 1184 
Q 3667 806 3817 604 
Q 3968 403 4218 403 
z
" transform="scale(0.015625)" />
					</defs>
					<use xlink:href="#Montserrat-SemiBold-20" />
					<use xlink:href="#Montserrat-SemiBold-37" x="27.599991" />
					<use xlink:href="#Montserrat-SemiBold-25" x="88.399979" />
				</g>
			</g>
			<g id="text_2">
				<!--  5% -->
				<g style="fill: #667487" transform="translate(258.342341 139.44) scale(0.2 -0.2)">
					<defs>
						<path id="Montserrat-SemiBold-35" d="M 1766 -64 
Q 1293 -64 841 73 
Q 390 211 83 454 
L 435 1101 
Q 678 902 1027 780 
Q 1376 659 1754 659 
Q 2195 659 2448 844 
Q 2701 1030 2701 1344 
Q 2701 1555 2595 1715 
Q 2490 1875 2224 1958 
Q 1958 2042 1498 2042 
L 416 2042 
L 646 4480 
L 3277 4480 
L 3277 3782 
L 954 3782 
L 1389 4179 
L 1216 2355 
L 781 2746 
L 1683 2746 
Q 2349 2746 2755 2570 
Q 3162 2394 3350 2083 
Q 3539 1773 3539 1376 
Q 3539 986 3347 659 
Q 3155 333 2761 134 
Q 2368 -64 1766 -64 
z
" transform="scale(0.015625)" />
					</defs>
					<use xlink:href="#Montserrat-SemiBold-20" />
					<use xlink:href="#Montserrat-SemiBold-35" x="27.599991" />
					<use xlink:href="#Montserrat-SemiBold-25" x="85.999985" />
				</g>
			</g>
			<g id="text_3">
				<!--  7% -->
				<g style="fill: #667487" transform="translate(327.592693 124.354286) scale(0.2 -0.2)">
					<use xlink:href="#Montserrat-SemiBold-20" />
					<use xlink:href="#Montserrat-SemiBold-37" x="27.599991" />
					<use xlink:href="#Montserrat-SemiBold-25" x="88.399979" />
				</g>
			</g>
			<g id="text_4">
				<!-- 13% -->
				<g style="fill: #667487" transform="translate(396.291483 79.097143) scale(0.2 -0.2)">
					<defs>
						<path id="Montserrat-SemiBold-31" d="M 998 0 
L 998 4160 
L 1363 3782 
L 51 3782 
L 51 4480 
L 1830 4480 
L 1830 0 
L 998 0 
z
" transform="scale(0.015625)" />
						<path id="Montserrat-SemiBold-33" d="M 1690 -64 
Q 1216 -64 765 73 
Q 314 211 6 454 
L 365 1101 
Q 608 902 953 780 
Q 1299 659 1677 659 
Q 2125 659 2374 841 
Q 2624 1024 2624 1338 
Q 2624 1645 2393 1824 
Q 2163 2003 1651 2003 
L 1242 2003 
L 1242 2573 
L 2522 4096 
L 2630 3782 
L 224 3782 
L 224 4480 
L 3277 4480 
L 3277 3923 
L 1997 2400 
L 1562 2656 
L 1811 2656 
Q 2637 2656 3049 2288 
Q 3462 1920 3462 1344 
Q 3462 966 3270 646 
Q 3078 326 2684 131 
Q 2291 -64 1690 -64 
z
" transform="scale(0.015625)" />
					</defs>
					<use xlink:href="#Montserrat-SemiBold-31" />
					<use xlink:href="#Montserrat-SemiBold-33" x="38.099991" />
					<use xlink:href="#Montserrat-SemiBold-25" x="96.299988" />
				</g>
			</g>
			<g id="text_5">
				<!-- 21% -->
				<g style="fill: #667487" transform="translate(465.780898 18.754286) scale(0.2 -0.2)">
					<defs>
						<path id="Montserrat-SemiBold-32" d="M 224 0 
L 224 557 
L 2003 2246 
Q 2227 2458 2336 2618 
Q 2445 2778 2480 2915 
Q 2515 3053 2515 3174 
Q 2515 3482 2304 3651 
Q 2093 3821 1683 3821 
Q 1357 3821 1091 3705 
Q 826 3590 634 3354 
L 51 3802 
Q 314 4154 758 4349 
Q 1203 4544 1754 4544 
Q 2240 4544 2601 4387 
Q 2963 4230 3158 3942 
Q 3354 3654 3354 3258 
Q 3354 3040 3296 2825 
Q 3238 2611 3078 2374 
Q 2918 2138 2611 1843 
L 1082 390 
L 909 704 
L 3526 704 
L 3526 0 
L 224 0 
z
" transform="scale(0.015625)" />
					</defs>
					<use xlink:href="#Montserrat-SemiBold-32" />
					<use xlink:href="#Montserrat-SemiBold-31" x="58.199997" />
					<use xlink:href="#Montserrat-SemiBold-25" x="96.299988" />
				</g>
			</g>
			<g id="text_6">
				<!-- 19% -->
				<g style="fill: #667487" transform="translate(534.820312 35.122286) scale(0.2 -0.2)">
					<defs>
						<path id="Montserrat-SemiBold-39" d="M 1792 4544 
Q 2406 4544 2838 4285 
Q 3270 4026 3500 3533 
Q 3731 3040 3731 2317 
Q 3731 1549 3452 1017 
Q 3174 486 2681 211 
Q 2189 -64 1536 -64 
Q 1197 -64 889 6 
Q 582 77 358 224 
L 666 851 
Q 851 730 1068 682 
Q 1286 634 1517 634 
Q 2150 634 2521 1024 
Q 2893 1414 2893 2176 
Q 2893 2298 2886 2461 
Q 2880 2624 2842 2790 
L 3098 2509 
Q 2989 2246 2784 2070 
Q 2579 1894 2304 1804 
Q 2029 1715 1696 1715 
Q 1261 1715 912 1884 
Q 563 2054 358 2364 
Q 154 2675 154 3091 
Q 154 3539 371 3862 
Q 589 4186 963 4365 
Q 1338 4544 1792 4544 
z
M 1837 3891 
Q 1581 3891 1382 3798 
Q 1184 3706 1072 3536 
Q 960 3366 960 3130 
Q 960 2778 1203 2573 
Q 1446 2368 1856 2368 
Q 2125 2368 2329 2467 
Q 2534 2566 2649 2742 
Q 2765 2918 2765 3136 
Q 2765 3347 2656 3516 
Q 2547 3686 2342 3788 
Q 2138 3891 1837 3891 
z
" transform="scale(0.015625)" />
					</defs>
					<use xlink:href="#Montserrat-SemiBold-31" />
					<use xlink:href="#Montserrat-SemiBold-39" x="38.099991" />
					<use xlink:href="#Montserrat-SemiBold-25" x="100.799988" />
				</g>
			</g>
			<g id="text_7">
				<!-- 15% -->
				<g style="fill: #667487" transform="translate(604.739415 65.293714) scale(0.2 -0.2)">
					<use xlink:href="#Montserrat-SemiBold-31" />
					<use xlink:href="#Montserrat-SemiBold-35" x="38.099991" />
					<use xlink:href="#Montserrat-SemiBold-25" x="96.499985" />
				</g>
			</g>
			<g id="text_8">
				<!--  9% -->
				<g style="fill: #667487" transform="translate(674.849142 109.947429) scale(0.2 -0.2)">
					<use xlink:href="#Montserrat-SemiBold-20" />
					<use xlink:href="#Montserrat-SemiBold-39" x="27.599991" />
					<use xlink:href="#Montserrat-SemiBold-25" x="90.299988" />
				</g>
			</g>
			<g id="text_9">
				<!--  4% -->
				<g style="fill: #667487" transform="translate(743.818244 150.377143) scale(0.2 -0.2)">
					<defs>
						<path id="Montserrat-SemiBold-34" d="M 218 1018 
L 218 1594 
L 2426 4480 
L 3315 4480 
L 1139 1594 
L 723 1722 
L 4275 1722 
L 4275 1018 
L 218 1018 
z
M 2675 0 
L 2675 1018 
L 2701 1722 
L 2701 2624 
L 3482 2624 
L 3482 0 
L 2675 0 
z
" transform="scale(0.015625)" />
					</defs>
					<use xlink:href="#Montserrat-SemiBold-20" />
					<use xlink:href="#Montserrat-SemiBold-34" x="27.599991" />
					<use xlink:href="#Montserrat-SemiBold-25" x="95.499985" />
				</g>
			</g>
			<g id="text_10">
				<!--  1% -->
				<g style="fill: #667487" transform="translate(816.288909 166.820571) scale(0.2 -0.2)">
					<use xlink:href="#Montserrat-SemiBold-20" />
					<use xlink:href="#Montserrat-SemiBold-31" x="27.599991" />
					<use xlink:href="#Montserrat-SemiBold-25" x="65.699982" />
				</g>
			</g>
			<g id="text_11">
				<!-- &lt;1% -->
				<g style="fill: #667487" transform="translate(882.637698 175.796571) scale(0.2 -0.2)">
					<defs>
						<path id="Montserrat-SemiBold-3c" d="M 3366 749 
L 416 1894 
L 416 2586 
L 3366 3731 
L 3366 3066 
L 666 2054 
L 666 2426 
L 3366 1414 
L 3366 749 
z
" transform="scale(0.015625)" />
					</defs>
					<use xlink:href="#Montserrat-SemiBold-3c" />
					<use xlink:href="#Montserrat-SemiBold-31" x="58.999985" />
					<use xlink:href="#Montserrat-SemiBold-25" x="97.099976" />
				</g>
			</g>
		</g>
	</g>
	<defs>
		<clipPath id="p39d51dabcd">
			<rect x="135" y="25.92" width="837" height="166.32" />
		</clipPath>
	</defs>
</svg>