<?xml version="1.0" encoding="utf-8"?>
<!-- Generator: Adobe Illustrator 26.5.0, SVG Export Plug-In . SVG Version: 6.00 Build 0)  -->
<svg version="1.1" id="Layer_1" xmlns="http://www.w3.org/2000/svg" xmlns:xlink="http://www.w3.org/1999/xlink" x="0px" y="0px"
	 viewBox="0 0 1024 303.2" style="enable-background:new 0 0 1024 303.2;" xml:space="preserve">
<style type="text/css">
	.st0{fill:#FDD400;}
	.st1{fill:#001837;}
	.st2{fill:#FA9101;}
	.st3{fill:#D62015;}
	.st4{fill:#FDF300;}
	.st5{fill:#D8DB1A;}
	.st6{fill:#9ADE27;}
	.st7{fill:#00BD00;}
	.st8{fill:#667487;}
</style>
<path class="st0" d="M555.9,244.4h87.9l9.5,17l-9.5,17h-87.9l9.5-17L555.9,244.4z"/>
<path class="st1" d="M602.7,260.3h5.4v2h-5.4V260.3z M602.8,264.9h6.1v2.1h-8.7v-11.2h8.5v2.1h-5.9V264.9z"/>
<path class="st2" d="M463.3,244.4h87.9l9.5,17l-9.5,17h-87.9l9.5-17L463.3,244.4z"/>
<path class="st3" d="M0.3,244.4h458.3l9.5,17l-9.5,17H0.3l9.5-17L0.3,244.4z"/>
<path class="st4" d="M648.6,244.4h87.9l9.5,17l-9.5,17h-87.9l9.5-17L648.6,244.4z"/>
<path class="st1" d="M691.6,267v-11.2h5.1c1.2,0,2.3,0.2,3.2,0.7s1.7,1.1,2.2,1.9c0.5,0.8,0.8,1.8,0.8,3s-0.3,2.1-0.8,3
	c-0.5,0.8-1.2,1.5-2.2,2c-0.9,0.5-2,0.7-3.2,0.7H691.6z M694.2,264.9h2.4c0.8,0,1.4-0.1,1.9-0.4c0.5-0.3,1-0.7,1.3-1.2
	c0.3-0.5,0.5-1.1,0.5-1.8s-0.2-1.3-0.5-1.8c-0.3-0.5-0.7-0.9-1.3-1.2c-0.5-0.3-1.2-0.4-1.9-0.4h-2.4V264.9L694.2,264.9z"/>
<path class="st5" d="M741.2,244.4h88l9.5,17l-9.5,17h-88l9.5-17L741.2,244.4z"/>
<path class="st1" d="M790.7,267.2c-0.9,0-1.7-0.1-2.4-0.4c-0.7-0.3-1.4-0.7-1.9-1.2s-1-1.1-1.3-1.8c-0.3-0.7-0.5-1.5-0.5-2.3
	s0.2-1.6,0.5-2.3c0.3-0.7,0.7-1.3,1.3-1.8c0.5-0.5,1.2-0.9,1.9-1.2c0.7-0.3,1.5-0.4,2.4-0.4c1,0,1.8,0.2,2.6,0.5
	c0.8,0.3,1.5,0.8,2,1.5l-1.7,1.5c-0.4-0.4-0.8-0.8-1.3-1c-0.5-0.2-1-0.3-1.5-0.3c-0.5,0-1,0.1-1.4,0.3c-0.4,0.2-0.8,0.4-1.1,0.7
	c-0.3,0.3-0.6,0.7-0.8,1.1c-0.2,0.4-0.3,0.9-0.3,1.5s0.1,1,0.3,1.5s0.4,0.8,0.8,1.1s0.7,0.6,1.1,0.7c0.4,0.2,0.9,0.3,1.4,0.3
	c0.5,0,1.1-0.1,1.5-0.3c0.5-0.2,0.9-0.6,1.3-1l1.7,1.5c-0.5,0.6-1.2,1.1-2,1.5C792.5,267.1,791.7,267.2,790.7,267.2L790.7,267.2z"/>
<path class="st6" d="M833.9,244.4h88l9.5,17l-9.5,17h-88l9.5-17L833.9,244.4z"/>
<path class="st1" d="M877.5,267v-11.2h5.5c1.4,0,2.5,0.3,3.2,0.8c0.7,0.5,1.1,1.2,1.1,2.1c0,0.6-0.1,1.1-0.4,1.5
	c-0.3,0.4-0.7,0.8-1.2,1c-0.5,0.2-1.1,0.4-1.7,0.4l0.3-0.7c0.7,0,1.3,0.1,1.9,0.4c0.5,0.2,1,0.6,1.3,1c0.3,0.5,0.5,1,0.5,1.6
	c0,1-0.4,1.7-1.1,2.3c-0.8,0.5-1.9,0.8-3.3,0.8H877.5L877.5,267z M880.1,265.1h3c0.7,0,1.2-0.1,1.5-0.3c0.3-0.2,0.5-0.6,0.5-1.1
	s-0.2-0.8-0.5-1c-0.3-0.2-0.8-0.4-1.5-0.4h-3.2v-1.9h2.8c0.6,0,1.1-0.1,1.4-0.3c0.3-0.2,0.5-0.6,0.5-1s-0.2-0.8-0.5-1
	c-0.3-0.2-0.8-0.3-1.4-0.3h-2.6L880.1,265.1L880.1,265.1z"/>
<path class="st7" d="M926.5,244.4h88l9.5,17l-9.5,17h-88l9.5-17L926.5,244.4L926.5,244.4z"/>
<path class="st1" d="M969,267l5-11.2h2.6l5,11.2h-2.7l-4.1-9.9h1l-4.1,9.9H969L969,267z M971.5,264.6l0.7-2h5.8l0.7,2H971.5
	L971.5,264.6z"/>
<path class="st3" d="M0,237.9h88v-41.4H0V237.9z"/>
<path class="st3" d="M92.7,237.9h88v-29.6h-88V237.9z"/>
<path class="st3" d="M185.3,237.9h88v-41.4h-88L185.3,237.9L185.3,237.9z"/>
<path class="st3" d="M278,237.9h88v-65.1h-88V237.9z"/>
<path class="st3" d="M370.6,237.9h88V125.4h-88V237.9z"/>
<path class="st2" d="M463.3,237.9h88V84h-88L463.3,237.9L463.3,237.9z"/>
<path class="st0" d="M555.9,237.9h88V66.3h-88V237.9z"/>
<path class="st4" d="M648.6,237.9h88V54.4h-88V237.9z"/>
<path class="st5" d="M741.2,237.9h88V30.8h-88V237.9z"/>
<path class="st6" d="M833.9,237.9h88V72.2h-88V237.9z"/>
<path class="st7" d="M926.5,237.9h88V226h-88V237.9z"/>
<path class="st8" d="M28.1,180.4V178l9.2-12H41l-9.1,12l-1.7-0.5H45v2.9H28.1z M38.3,184.6v-4.2l0.1-2.9v-3.8h3.2v10.9H38.3z"/>
<path class="st8" d="M49.1,184.6l12.8-18.7h2.6l-12.8,18.7C51.7,184.6,49.1,184.6,49.1,184.6z M50.6,176c-0.9,0-1.7-0.2-2.3-0.6
	c-0.7-0.4-1.2-1-1.6-1.8c-0.4-0.8-0.6-1.7-0.6-2.7s0.2-1.9,0.6-2.7c0.4-0.8,0.9-1.4,1.6-1.8c0.7-0.4,1.5-0.6,2.3-0.6
	s1.7,0.2,2.4,0.6c0.7,0.4,1.2,1,1.6,1.8c0.4,0.8,0.6,1.7,0.6,2.7s-0.2,1.9-0.6,2.7c-0.4,0.8-0.9,1.4-1.6,1.8
	C52.3,175.8,51.5,176,50.6,176z M50.6,174.1c0.7,0,1.3-0.3,1.7-0.8c0.4-0.6,0.6-1.4,0.6-2.4s-0.2-1.9-0.6-2.4
	c-0.4-0.6-1-0.8-1.7-0.8s-1.3,0.3-1.7,0.9s-0.6,1.4-0.6,2.4s0.2,1.8,0.6,2.4C49.4,173.8,49.9,174.1,50.6,174.1z M62.9,184.8
	c-0.9,0-1.7-0.2-2.3-0.6s-1.2-1-1.6-1.8c-0.4-0.8-0.6-1.7-0.6-2.7s0.2-1.9,0.6-2.7c0.4-0.8,0.9-1.4,1.6-1.8c0.7-0.4,1.5-0.6,2.3-0.6
	s1.7,0.2,2.4,0.6c0.7,0.4,1.2,1,1.6,1.8c0.4,0.8,0.6,1.7,0.6,2.7s-0.2,1.9-0.6,2.7c-0.4,0.8-0.9,1.4-1.6,1.8S63.8,184.8,62.9,184.8z
	 M62.9,182.9c0.7,0,1.3-0.3,1.7-0.9c0.4-0.6,0.6-1.4,0.6-2.4s-0.2-1.8-0.6-2.4c-0.4-0.6-1-0.9-1.7-0.9s-1.2,0.3-1.7,0.8
	s-0.6,1.4-0.6,2.4s0.2,1.9,0.6,2.4C61.6,182.6,62.2,182.9,62.9,182.9z"/>
<path class="st8" d="M122.1,196.4v-2.3l7.4-7c0.6-0.6,1.1-1.1,1.4-1.6c0.3-0.4,0.5-0.9,0.6-1.2s0.1-0.7,0.1-1.1c0-0.9-0.3-1.5-0.9-2
	c-0.6-0.5-1.4-0.7-2.6-0.7c-0.9,0-1.7,0.2-2.5,0.5c-0.7,0.3-1.4,0.8-1.9,1.5l-2.4-1.9c0.7-1,1.7-1.7,2.9-2.3
	c1.2-0.5,2.6-0.8,4.1-0.8c1.4,0,2.5,0.2,3.5,0.6c1,0.4,1.8,1.1,2.3,1.9c0.5,0.8,0.8,1.8,0.8,2.9c0,0.6-0.1,1.2-0.2,1.8
	c-0.2,0.6-0.5,1.2-0.9,1.9c-0.4,0.7-1.1,1.4-1.9,2.2l-6.4,6.1l-0.7-1.3h10.9v2.9L122.1,196.4L122.1,196.4z"/>
<path class="st8" d="M140.4,196.4l12.8-18.7h2.6L143,196.4H140.4z M142,187.8c-0.9,0-1.6-0.2-2.3-0.6c-0.7-0.4-1.2-1-1.6-1.8
	c-0.4-0.8-0.6-1.7-0.6-2.7s0.2-1.9,0.6-2.7c0.4-0.8,0.9-1.4,1.6-1.8c0.7-0.4,1.4-0.6,2.3-0.6s1.7,0.2,2.4,0.6s1.2,1,1.6,1.8
	c0.4,0.8,0.6,1.7,0.6,2.7s-0.2,1.9-0.6,2.7c-0.4,0.8-0.9,1.4-1.6,1.8S142.9,187.8,142,187.8z M142,186c0.7,0,1.3-0.3,1.7-0.8
	s0.6-1.4,0.6-2.4s-0.2-1.9-0.6-2.4c-0.4-0.6-1-0.8-1.7-0.8s-1.3,0.3-1.7,0.9s-0.6,1.4-0.6,2.4s0.2,1.8,0.6,2.4
	C140.7,185.7,141.3,186,142,186L142,186z M154.2,196.6c-0.9,0-1.6-0.2-2.3-0.6c-0.7-0.4-1.2-1-1.6-1.8c-0.4-0.8-0.6-1.7-0.6-2.7
	s0.2-1.9,0.6-2.7c0.4-0.8,0.9-1.4,1.6-1.8c0.7-0.4,1.4-0.6,2.3-0.6s1.7,0.2,2.4,0.6c0.7,0.4,1.2,1,1.6,1.8c0.4,0.8,0.6,1.7,0.6,2.7
	s-0.2,1.9-0.6,2.7c-0.4,0.8-0.9,1.4-1.6,1.8S155.1,196.6,154.2,196.6z M154.2,194.8c0.7,0,1.3-0.3,1.7-0.9c0.4-0.6,0.6-1.4,0.6-2.4
	s-0.2-1.8-0.6-2.4c-0.4-0.6-1-0.9-1.7-0.9s-1.2,0.3-1.7,0.8s-0.6,1.4-0.6,2.4s0.2,1.9,0.6,2.4C153,194.5,153.5,194.8,154.2,194.8
	L154.2,194.8z"/>
<path class="st8" d="M213.4,180.4V178l9.2-12h3.7l-9.1,12l-1.7-0.5h14.8v2.9H213.4z M223.6,184.6v-4.2l0.1-2.9v-3.8h3.2v10.9H223.6z
	"/>
<path class="st8" d="M234.4,184.6l12.8-18.7h2.6L237,184.6H234.4z M235.9,176c-0.9,0-1.6-0.2-2.3-0.6c-0.7-0.4-1.2-1-1.6-1.8
	c-0.4-0.8-0.6-1.7-0.6-2.7s0.2-1.9,0.6-2.7c0.4-0.8,0.9-1.4,1.6-1.8c0.7-0.4,1.4-0.6,2.3-0.6s1.7,0.2,2.4,0.6s1.2,1,1.6,1.8
	c0.4,0.8,0.6,1.7,0.6,2.7s-0.2,1.9-0.6,2.7c-0.4,0.8-0.9,1.4-1.6,1.8S236.8,176,235.9,176z M235.9,174.1c0.7,0,1.3-0.3,1.7-0.8
	s0.6-1.4,0.6-2.4s-0.2-1.9-0.6-2.4c-0.4-0.6-1-0.8-1.7-0.8s-1.3,0.3-1.7,0.9s-0.6,1.4-0.6,2.4s0.2,1.8,0.6,2.4
	C234.7,173.8,235.2,174.1,235.9,174.1z M248.2,184.8c-0.9,0-1.6-0.2-2.3-0.6c-0.7-0.4-1.2-1-1.6-1.8c-0.4-0.8-0.6-1.7-0.6-2.7
	s0.2-1.9,0.6-2.7c0.4-0.8,0.9-1.4,1.6-1.8c0.7-0.4,1.4-0.6,2.3-0.6s1.7,0.2,2.4,0.6c0.7,0.4,1.2,1,1.6,1.8c0.4,0.8,0.6,1.7,0.6,2.7
	s-0.2,1.9-0.6,2.7c-0.4,0.8-0.9,1.4-1.6,1.8S249.1,184.8,248.2,184.8z M248.2,182.9c0.7,0,1.3-0.3,1.7-0.9c0.4-0.6,0.6-1.4,0.6-2.4
	s-0.2-1.8-0.6-2.4c-0.4-0.6-1-0.9-1.7-0.9s-1.2,0.3-1.7,0.8s-0.6,1.4-0.6,2.4s0.2,1.9,0.6,2.4C246.9,182.6,247.5,182.9,248.2,182.9z
	"/>
<path class="st8" d="M315.1,161.2c-1.7,0-3.1-0.4-4.4-1.1s-2.1-1.8-2.8-3.1c-0.6-1.4-1-3.1-1-5.1c0-2.1,0.4-3.9,1.2-5.4
	c0.8-1.5,1.9-2.6,3.2-3.4s3-1.1,4.8-1.1c0.9,0,1.8,0.1,2.7,0.3c0.9,0.2,1.6,0.5,2.2,0.9l-1.3,2.6c-0.5-0.3-1.1-0.6-1.7-0.7
	c-0.6-0.1-1.2-0.2-1.9-0.2c-1.8,0-3.2,0.5-4.2,1.6s-1.5,2.7-1.5,4.8c0,0.3,0,0.7,0,1.2s0.1,0.9,0.2,1.4l-1.1-1.2
	c0.3-0.7,0.8-1.3,1.3-1.8s1.2-0.9,2-1.1c0.8-0.2,1.6-0.4,2.5-0.4c1.2,0,2.3,0.2,3.3,0.7s1.7,1.1,2.3,2c0.6,0.9,0.9,1.9,0.9,3
	c0,1.2-0.3,2.3-0.9,3.2c-0.6,0.9-1.4,1.6-2.5,2.1C317.5,160.9,316.3,161.2,315.1,161.2L315.1,161.2z M314.9,158.5
	c0.7,0,1.3-0.1,1.9-0.4c0.5-0.3,1-0.6,1.3-1.1s0.5-1,0.5-1.7c0-1-0.3-1.8-1-2.3c-0.7-0.6-1.6-0.9-2.7-0.9c-0.8,0-1.4,0.1-2,0.4
	s-1,0.6-1.3,1.1c-0.3,0.5-0.5,1-0.5,1.6c0,0.6,0.1,1.1,0.5,1.6c0.3,0.5,0.7,0.9,1.3,1.1C313.4,158.3,314.1,158.5,314.9,158.5
	L314.9,158.5z"/>
<path class="st8" d="M326.3,160.9l12.8-18.7h2.6l-12.8,18.7H326.3z M327.9,152.3c-0.9,0-1.6-0.2-2.3-0.6c-0.7-0.4-1.2-1-1.6-1.8
	c-0.4-0.8-0.6-1.7-0.6-2.7s0.2-1.9,0.6-2.7c0.4-0.8,0.9-1.4,1.6-1.8c0.7-0.4,1.5-0.6,2.3-0.6s1.7,0.2,2.4,0.6c0.7,0.4,1.2,1,1.6,1.8
	c0.4,0.8,0.6,1.7,0.6,2.7s-0.2,1.9-0.6,2.7c-0.4,0.8-0.9,1.4-1.6,1.8C329.6,152.1,328.8,152.3,327.9,152.3z M327.9,150.5
	c0.7,0,1.3-0.3,1.7-0.8c0.4-0.6,0.6-1.4,0.6-2.4s-0.2-1.9-0.6-2.4s-1-0.8-1.7-0.8s-1.3,0.3-1.7,0.9c-0.4,0.6-0.6,1.4-0.6,2.4
	s0.2,1.8,0.6,2.4C326.6,150.2,327.2,150.5,327.9,150.5L327.9,150.5z M340.1,161.1c-0.9,0-1.6-0.2-2.3-0.6c-0.7-0.4-1.2-1-1.6-1.8
	c-0.4-0.8-0.6-1.7-0.6-2.7s0.2-1.9,0.6-2.7c0.4-0.8,0.9-1.4,1.6-1.8c0.7-0.4,1.5-0.6,2.3-0.6s1.7,0.2,2.4,0.6c0.7,0.4,1.2,1,1.6,1.8
	c0.4,0.8,0.6,1.7,0.6,2.7s-0.2,1.9-0.6,2.7c-0.4,0.8-0.9,1.4-1.6,1.8C341.8,160.9,341,161.1,340.1,161.1z M340.1,159.3
	c0.7,0,1.3-0.3,1.7-0.9c0.4-0.6,0.6-1.4,0.6-2.4s-0.2-1.8-0.6-2.4c-0.4-0.6-1-0.9-1.7-0.9s-1.2,0.3-1.7,0.8s-0.6,1.4-0.6,2.4
	s0.2,1.9,0.6,2.4C338.9,159,339.4,159.3,340.1,159.3L340.1,159.3z"/>
<path class="st8" d="M393.3,113.6V96.3l1.5,1.6h-5.5v-2.9h7.4v18.7L393.3,113.6L393.3,113.6z"/>
<path class="st8" d="M408.2,113.9c-1.5,0-2.8-0.4-4-1.1c-1.2-0.8-2.1-1.8-2.8-3.3s-1-3.2-1-5.2s0.3-3.8,1-5.2
	c0.7-1.4,1.6-2.5,2.8-3.3s2.5-1.1,4-1.1s2.8,0.4,4,1.1s2.1,1.8,2.8,3.3s1,3.2,1,5.2s-0.3,3.8-1,5.2c-0.7,1.4-1.6,2.5-2.8,3.3
	C411,113.5,409.7,113.9,408.2,113.9z M408.2,110.9c0.9,0,1.6-0.2,2.3-0.7c0.6-0.5,1.1-1.2,1.5-2.2c0.4-1,0.5-2.2,0.5-3.7
	s-0.2-2.8-0.5-3.7c-0.4-1-0.9-1.7-1.5-2.2s-1.4-0.7-2.3-0.7s-1.6,0.2-2.2,0.7c-0.6,0.5-1.2,1.2-1.5,2.2s-0.5,2.2-0.5,3.7
	s0.2,2.7,0.5,3.7c0.4,1,0.9,1.7,1.5,2.2C406.6,110.6,407.4,110.9,408.2,110.9z"/>
<path class="st8" d="M421,113.6l12.8-18.7h2.6l-12.8,18.7H421z M422.5,105c-0.9,0-1.6-0.2-2.3-0.6s-1.2-1-1.6-1.8
	c-0.4-0.8-0.6-1.7-0.6-2.7s0.2-1.9,0.6-2.7c0.4-0.8,0.9-1.4,1.6-1.8c0.7-0.4,1.5-0.6,2.3-0.6s1.7,0.2,2.4,0.6c0.7,0.4,1.2,1,1.6,1.8
	c0.4,0.8,0.6,1.7,0.6,2.7s-0.2,1.9-0.6,2.7c-0.4,0.8-0.9,1.4-1.6,1.8C424.2,104.8,423.5,105,422.5,105z M422.6,103.1
	c0.7,0,1.3-0.3,1.7-0.8c0.4-0.6,0.6-1.4,0.6-2.4s-0.2-1.8-0.6-2.4c-0.4-0.6-1-0.8-1.7-0.8s-1.3,0.3-1.7,0.8s-0.6,1.4-0.6,2.4
	s0.2,1.8,0.6,2.4C421.3,102.8,421.9,103.1,422.6,103.1L422.6,103.1z M434.8,113.8c-0.9,0-1.6-0.2-2.3-0.6s-1.2-1-1.6-1.8
	c-0.4-0.8-0.6-1.7-0.6-2.7s0.2-1.9,0.6-2.7c0.4-0.8,0.9-1.4,1.6-1.8c0.7-0.4,1.5-0.6,2.3-0.6s1.7,0.2,2.4,0.6c0.7,0.4,1.2,1,1.6,1.8
	c0.4,0.8,0.6,1.7,0.6,2.7s-0.2,1.9-0.6,2.7c-0.4,0.8-0.9,1.4-1.6,1.8C436.5,113.6,435.7,113.8,434.8,113.8z M434.8,111.9
	c0.7,0,1.3-0.3,1.7-0.8s0.6-1.4,0.6-2.4s-0.2-1.8-0.6-2.4c-0.4-0.6-1-0.8-1.7-0.8s-1.2,0.3-1.7,0.8s-0.6,1.4-0.6,2.4
	s0.2,1.8,0.6,2.4C433.5,111.6,434.1,111.9,434.8,111.9L434.8,111.9z"/>
<path class="st8" d="M487.1,72.2V54.8l1.5,1.6h-5.5v-2.9h7.4v18.7L487.1,72.2L487.1,72.2z"/>
<path class="st8" d="M500.2,72.4c-1.3,0-2.6-0.2-3.9-0.6c-1.2-0.4-2.3-0.9-3.2-1.6l1.5-2.7c0.7,0.6,1.5,1,2.5,1.3c1,0.3,2,0.5,3,0.5
	c1.2,0,2.2-0.2,2.9-0.8s1-1.2,1-2.1s-0.3-1.5-1-2c-0.6-0.5-1.7-0.8-3.1-0.8h-1.7v-2.4l5.3-6.3l0.5,1.3h-10v-2.9h12.7v2.3l-5.3,6.3
	l-1.8-1.1h1c2.3,0,4,0.5,5.2,1.5s1.7,2.3,1.7,3.9c0,1.1-0.3,2-0.8,2.9c-0.5,0.9-1.4,1.6-2.4,2.2C503.2,72.2,501.9,72.4,500.2,72.4
	L500.2,72.4z"/>
<path class="st8" d="M512.4,72.2l12.8-18.7h2.6L515,72.2H512.4z M514,63.6c-0.9,0-1.7-0.2-2.3-0.6c-0.7-0.4-1.2-1-1.6-1.8
	s-0.6-1.7-0.6-2.7s0.2-1.9,0.6-2.7c0.4-0.8,0.9-1.4,1.6-1.8c0.7-0.4,1.5-0.6,2.3-0.6s1.7,0.2,2.4,0.6c0.7,0.4,1.2,1,1.6,1.8
	c0.4,0.8,0.6,1.7,0.6,2.7s-0.2,1.9-0.6,2.7c-0.4,0.8-0.9,1.4-1.6,1.8C515.7,63.3,514.9,63.6,514,63.6z M514,61.7
	c0.7,0,1.3-0.3,1.7-0.8c0.4-0.6,0.6-1.4,0.6-2.4s-0.2-1.8-0.6-2.4c-0.4-0.6-1-0.8-1.7-0.8s-1.3,0.3-1.7,0.8
	c-0.4,0.6-0.6,1.4-0.6,2.4s0.2,1.8,0.6,2.4C512.7,61.4,513.3,61.7,514,61.7L514,61.7z M526.2,72.4c-0.9,0-1.7-0.2-2.3-0.6
	s-1.2-1-1.6-1.8c-0.4-0.8-0.6-1.7-0.6-2.7s0.2-1.9,0.6-2.7c0.4-0.8,0.9-1.4,1.6-1.8c0.7-0.4,1.5-0.6,2.3-0.6s1.7,0.2,2.4,0.6
	s1.2,1,1.6,1.8c0.4,0.8,0.6,1.7,0.6,2.7s-0.2,1.9-0.6,2.7c-0.4,0.8-0.9,1.4-1.6,1.8C527.9,72.2,527.1,72.4,526.2,72.4z M526.2,70.5
	c0.7,0,1.3-0.3,1.7-0.8s0.6-1.4,0.6-2.4s-0.2-1.8-0.6-2.4s-1-0.8-1.7-0.8s-1.2,0.3-1.7,0.8s-0.6,1.4-0.6,2.4s0.2,1.9,0.6,2.4
	C525,70.2,525.5,70.5,526.2,70.5L526.2,70.5z"/>
<path class="st8" d="M578.5,54.4V37.1l1.5,1.6h-5.5v-2.9h7.4v18.7L578.5,54.4L578.5,54.4z"/>
<path class="st8" d="M585.4,50.2v-2.4l9.2-12h3.7l-9.1,12l-1.7-0.5h14.8v2.9H585.4z M595.6,54.4v-4.2l0.1-2.9v-3.8h3.2v10.9
	C599,54.4,595.6,54.4,595.6,54.4z"/>
<path class="st8" d="M606.4,54.4l12.8-18.7h2.6L609,54.4H606.4z M607.9,45.8c-0.9,0-1.7-0.2-2.3-0.6s-1.2-1-1.6-1.8
	c-0.4-0.8-0.6-1.7-0.6-2.7s0.2-1.9,0.6-2.7c0.4-0.8,0.9-1.4,1.6-1.8c0.7-0.4,1.5-0.6,2.3-0.6s1.7,0.2,2.4,0.6c0.7,0.4,1.2,1,1.6,1.8
	c0.4,0.8,0.6,1.7,0.6,2.7s-0.2,1.9-0.6,2.7c-0.4,0.8-0.9,1.4-1.6,1.8C609.6,45.6,608.8,45.8,607.9,45.8z M608,44
	c0.7,0,1.3-0.3,1.7-0.8c0.4-0.6,0.6-1.4,0.6-2.4s-0.2-1.8-0.6-2.4c-0.4-0.6-1-0.8-1.7-0.8s-1.3,0.3-1.7,0.8s-0.6,1.4-0.6,2.4
	s0.2,1.8,0.6,2.4C606.7,43.7,607.2,43.9,608,44L608,44z M620.2,54.6c-0.9,0-1.7-0.2-2.3-0.6s-1.2-1-1.6-1.8s-0.6-1.7-0.6-2.7
	s0.2-1.9,0.6-2.7c0.4-0.8,0.9-1.4,1.6-1.8c0.7-0.4,1.5-0.6,2.3-0.6s1.7,0.2,2.4,0.6s1.2,1,1.6,1.8c0.4,0.8,0.6,1.7,0.6,2.7
	s-0.2,1.9-0.6,2.7c-0.4,0.8-0.9,1.4-1.6,1.8C621.9,54.4,621.1,54.6,620.2,54.6z M620.2,52.8c0.7,0,1.3-0.3,1.7-0.8s0.6-1.4,0.6-2.4
	s-0.2-1.8-0.6-2.4s-1-0.8-1.7-0.8s-1.2,0.3-1.7,0.8s-0.6,1.4-0.6,2.4s0.2,1.9,0.6,2.4C618.9,52.5,619.5,52.8,620.2,52.8L620.2,52.8z
	"/>
<path class="st8" d="M671.8,42.6V25.3l1.5,1.6h-5.5v-2.9h7.4v18.7L671.8,42.6L671.8,42.6z"/>
<path class="st8" d="M687.1,42.9c-1.7,0-3.1-0.4-4.3-1.1c-1.2-0.7-2.1-1.8-2.8-3.1c-0.6-1.4-1-3.1-1-5.1c0-2.1,0.4-3.9,1.2-5.4
	c0.8-1.5,1.8-2.6,3.2-3.4c1.4-0.8,3-1.1,4.8-1.1c0.9,0,1.8,0.1,2.7,0.3c0.9,0.2,1.6,0.5,2.2,0.9l-1.3,2.6c-0.5-0.3-1.1-0.6-1.7-0.7
	c-0.6-0.1-1.2-0.2-1.9-0.2c-1.8,0-3.2,0.5-4.2,1.6s-1.5,2.7-1.5,4.8c0,0.3,0,0.7,0,1.2c0,0.5,0.1,0.9,0.2,1.4l-1.1-1.2
	c0.3-0.7,0.8-1.3,1.3-1.8s1.2-0.9,2-1.1c0.8-0.2,1.6-0.4,2.5-0.4c1.2,0,2.3,0.2,3.3,0.7c1,0.5,1.7,1.1,2.3,2c0.6,0.9,0.8,1.9,0.8,3
	c0,1.2-0.3,2.3-0.9,3.2c-0.6,0.9-1.4,1.6-2.5,2.1C689.5,42.6,688.3,42.9,687.1,42.9L687.1,42.9z M686.9,40.1c0.7,0,1.3-0.1,1.9-0.4
	c0.5-0.3,1-0.6,1.3-1.1c0.3-0.5,0.5-1,0.5-1.7c0-1-0.3-1.8-1-2.3c-0.7-0.6-1.6-0.8-2.7-0.8c-0.8,0-1.4,0.1-2,0.4
	c-0.6,0.3-1,0.7-1.3,1.1s-0.5,1-0.5,1.7c0,0.6,0.2,1.1,0.5,1.6c0.3,0.5,0.7,0.9,1.3,1.2C685.4,40,686.1,40.2,686.9,40.1L686.9,40.1z
	"/>
<path class="st8" d="M698.3,42.6l12.7-18.7h2.6l-12.8,18.7H698.3L698.3,42.6z M699.9,34c-0.9,0-1.7-0.2-2.3-0.6s-1.2-1-1.6-1.8
	c-0.4-0.8-0.6-1.7-0.6-2.7s0.2-1.9,0.6-2.7c0.4-0.8,0.9-1.4,1.6-1.8c0.7-0.4,1.5-0.6,2.3-0.6s1.7,0.2,2.4,0.6s1.2,1,1.6,1.8
	c0.4,0.8,0.6,1.7,0.6,2.7s-0.2,1.9-0.6,2.7c-0.4,0.8-0.9,1.4-1.6,1.8C701.6,33.8,700.8,34,699.9,34z M699.9,32.1
	c0.7,0,1.3-0.3,1.7-0.8c0.4-0.6,0.6-1.4,0.6-2.4s-0.2-1.9-0.6-2.4c-0.4-0.6-1-0.8-1.7-0.8s-1.3,0.3-1.7,0.9
	c-0.4,0.6-0.6,1.4-0.6,2.4s0.2,1.8,0.6,2.4C698.6,31.8,699.2,32.1,699.9,32.1L699.9,32.1z M712.1,42.8c-0.9,0-1.7-0.2-2.3-0.6
	c-0.7-0.4-1.2-1-1.6-1.8c-0.4-0.8-0.6-1.7-0.6-2.7s0.2-1.9,0.6-2.7c0.4-0.8,0.9-1.4,1.6-1.8c0.7-0.4,1.5-0.6,2.3-0.6
	s1.7,0.2,2.4,0.6s1.2,1,1.6,1.8c0.4,0.8,0.6,1.7,0.6,2.7s-0.2,1.9-0.6,2.7c-0.4,0.8-0.9,1.4-1.6,1.8C713.8,42.6,713,42.8,712.1,42.8
	z M712.1,40.9c0.7,0,1.3-0.3,1.7-0.8s0.6-1.4,0.6-2.4s-0.2-1.8-0.6-2.4s-1-0.8-1.7-0.8s-1.2,0.3-1.7,0.8s-0.6,1.4-0.6,2.4
	s0.2,1.9,0.6,2.4C710.9,40.7,711.4,40.9,712.1,40.9L712.1,40.9z"/>
<path class="st8" d="M764.2,18.9V1.6l1.5,1.6h-5.5V0.3h7.4v18.7H764.2L764.2,18.9z"/>
<path class="st8" d="M778.8,19.2c-1.5,0-2.9-0.2-4-0.7c-1.1-0.5-2-1.1-2.6-2s-0.9-1.8-0.9-3s0.3-2.1,0.9-2.9
	c0.6-0.8,1.5-1.4,2.6-1.8c1.1-0.4,2.5-0.6,4.1-0.6s3,0.2,4.1,0.6c1.2,0.4,2,1,2.6,1.8s0.9,1.7,0.9,2.9s-0.3,2.1-1,3s-1.5,1.5-2.7,2
	C781.7,19,780.4,19.2,778.8,19.2L778.8,19.2z M778.8,16.5c1.3,0,2.3-0.3,3-0.8s1.1-1.3,1.1-2.2s-0.4-1.6-1.1-2.2
	c-0.7-0.5-1.8-0.8-3-0.8s-2.3,0.3-3,0.8c-0.7,0.5-1.1,1.3-1.1,2.2s0.4,1.7,1.1,2.2C776.5,16.2,777.5,16.5,778.8,16.5z M778.8,10.1
	c-1.4,0-2.7-0.2-3.7-0.6c-1-0.4-1.8-0.9-2.4-1.7s-0.8-1.6-0.8-2.7s0.3-2,0.9-2.8s1.4-1.4,2.4-1.8c1-0.4,2.3-0.6,3.6-0.6
	s2.6,0.2,3.7,0.6c1,0.4,1.9,1,2.5,1.8c0.6,0.8,0.9,1.7,0.9,2.8s-0.3,1.9-0.8,2.7c-0.6,0.7-1.4,1.3-2.4,1.7S780.3,10.1,778.8,10.1z
	 M778.8,8c1.1,0,2-0.2,2.6-0.7c0.6-0.5,1-1.1,1-1.9s-0.3-1.5-1-1.9s-1.5-0.7-2.6-0.7s-1.9,0.2-2.6,0.7c-0.6,0.5-1,1.1-1,1.9
	s0.3,1.4,1,1.9S777.7,8,778.8,8z"/>
<path class="st8" d="M791.3,18.9l12.8-18.7h2.6l-12.8,18.7L791.3,18.9L791.3,18.9z M792.9,10.3c-0.9,0-1.7-0.2-2.3-0.6
	s-1.2-1-1.6-1.8s-0.6-1.7-0.6-2.7s0.2-1.9,0.6-2.7c0.4-0.8,0.9-1.4,1.6-1.8c0.7-0.4,1.5-0.6,2.3-0.6s1.7,0.2,2.4,0.6
	c0.7,0.4,1.2,1,1.6,1.8c0.4,0.8,0.6,1.7,0.6,2.7s-0.2,1.9-0.6,2.7c-0.4,0.8-0.9,1.4-1.6,1.8S793.8,10.3,792.9,10.3z M792.9,8.5
	c0.7,0,1.3-0.3,1.7-0.8c0.4-0.6,0.6-1.4,0.6-2.4s-0.2-1.8-0.6-2.4c-0.4-0.6-1-0.8-1.7-0.8s-1.3,0.3-1.7,0.8s-0.6,1.4-0.6,2.4
	s0.2,1.8,0.6,2.4C791.6,8.2,792.2,8.4,792.9,8.5L792.9,8.5z M805.1,19.1c-0.9,0-1.7-0.2-2.3-0.6s-1.2-1-1.6-1.8
	c-0.4-0.8-0.6-1.7-0.6-2.7s0.2-1.9,0.6-2.7c0.4-0.8,0.9-1.4,1.6-1.8c0.7-0.4,1.5-0.6,2.3-0.6s1.7,0.2,2.4,0.6s1.2,1,1.6,1.8
	c0.4,0.8,0.6,1.7,0.6,2.7s-0.2,1.9-0.6,2.7c-0.4,0.8-0.9,1.4-1.6,1.8C806.8,18.9,806,19.1,805.1,19.1z M805.1,17.2
	c0.7,0,1.3-0.3,1.7-0.9s0.6-1.4,0.6-2.4s-0.2-1.8-0.6-2.4s-1-0.9-1.7-0.9s-1.2,0.3-1.7,0.8s-0.6,1.4-0.6,2.4s0.2,1.9,0.6,2.4
	C803.9,17,804.4,17.3,805.1,17.2L805.1,17.2z"/>
<path class="st8" d="M856.4,60.3V43l1.5,1.6h-5.5v-2.9h7.4v18.7L856.4,60.3L856.4,60.3z"/>
<path class="st8" d="M863.3,56.1v-2.4l9.2-12h3.7l-9.1,12l-1.7-0.5h14.8v2.9H863.3z M873.6,60.3v-4.2l0.1-2.9v-3.8h3.2v10.9
	C876.9,60.4,873.6,60.4,873.6,60.3z"/>
<path class="st8" d="M884.3,60.3l12.7-18.7h2.6l-12.8,18.7H884.3L884.3,60.3z M885.9,51.7c-0.9,0-1.6-0.2-2.3-0.6
	c-0.7-0.4-1.2-1-1.6-1.8s-0.6-1.7-0.6-2.7s0.2-1.9,0.6-2.7c0.4-0.8,0.9-1.4,1.6-1.8c0.7-0.4,1.5-0.6,2.3-0.6s1.7,0.2,2.4,0.6
	c0.7,0.4,1.2,1,1.6,1.8c0.4,0.8,0.6,1.7,0.6,2.7s-0.2,1.9-0.6,2.7c-0.4,0.8-0.9,1.4-1.6,1.8C887.6,51.5,886.8,51.7,885.9,51.7z
	 M885.9,49.9c0.7,0,1.3-0.3,1.7-0.8c0.4-0.6,0.6-1.4,0.6-2.4s-0.2-1.8-0.6-2.4c-0.4-0.6-1-0.8-1.7-0.8s-1.3,0.3-1.7,0.8
	c-0.4,0.6-0.6,1.4-0.6,2.4s0.2,1.8,0.6,2.4C884.6,49.6,885.2,49.9,885.9,49.9L885.9,49.9z M898.1,60.5c-0.9,0-1.7-0.2-2.3-0.6
	s-1.2-1-1.6-1.8c-0.4-0.8-0.6-1.7-0.6-2.7s0.2-1.9,0.6-2.7c0.4-0.8,0.9-1.4,1.6-1.8c0.7-0.4,1.5-0.6,2.3-0.6s1.7,0.2,2.4,0.6
	s1.2,1,1.6,1.8c0.4,0.8,0.6,1.7,0.6,2.7s-0.2,1.9-0.6,2.7c-0.4,0.8-0.9,1.4-1.6,1.8C899.8,60.3,899,60.5,898.1,60.5z M898.1,58.7
	c0.7,0,1.3-0.3,1.7-0.8s0.6-1.4,0.6-2.4s-0.2-1.8-0.6-2.4s-1-0.8-1.7-0.8s-1.2,0.3-1.7,0.8s-0.6,1.4-0.6,2.4s0.2,1.9,0.6,2.4
	C896.9,58.4,897.4,58.7,898.1,58.7L898.1,58.7z"/>
<path class="st8" d="M961.8,214.2v-17.3l1.5,1.6h-5.5v-2.9h7.4v18.7H961.8L961.8,214.2z"/>
<path class="st8" d="M971.6,214.2l12.8-18.7h2.6l-12.8,18.7H971.6z M973.2,205.6c-0.9,0-1.7-0.2-2.3-0.6s-1.2-1-1.6-1.8
	c-0.4-0.8-0.6-1.7-0.6-2.7s0.2-1.9,0.6-2.7c0.4-0.8,0.9-1.4,1.6-1.8c0.7-0.4,1.5-0.6,2.3-0.6s1.7,0.2,2.4,0.6s1.2,1,1.6,1.8
	c0.4,0.8,0.6,1.7,0.6,2.7s-0.2,1.9-0.6,2.7c-0.4,0.8-0.9,1.4-1.6,1.8S974.1,205.6,973.2,205.6z M973.2,203.7c0.7,0,1.3-0.3,1.7-0.8
	c0.4-0.6,0.6-1.4,0.6-2.4s-0.2-1.9-0.6-2.4c-0.4-0.6-1-0.8-1.7-0.8s-1.3,0.3-1.7,0.9s-0.6,1.4-0.6,2.4s0.2,1.8,0.6,2.4
	C971.9,203.4,972.5,203.7,973.2,203.7L973.2,203.7z M985.4,214.4c-0.9,0-1.7-0.2-2.3-0.6s-1.2-1-1.6-1.8c-0.4-0.8-0.6-1.7-0.6-2.7
	s0.2-1.9,0.6-2.7c0.4-0.8,0.9-1.4,1.6-1.8c0.7-0.4,1.5-0.6,2.3-0.6s1.7,0.2,2.4,0.6c0.7,0.4,1.2,1,1.6,1.8c0.4,0.8,0.6,1.7,0.6,2.7
	s-0.2,1.9-0.6,2.7c-0.4,0.8-0.9,1.4-1.6,1.8S986.3,214.4,985.4,214.4z M985.4,212.5c0.7,0,1.3-0.3,1.7-0.9c0.4-0.6,0.6-1.4,0.6-2.4
	s-0.2-1.8-0.6-2.4c-0.4-0.6-1-0.9-1.7-0.9s-1.2,0.3-1.7,0.8s-0.6,1.4-0.6,2.4s0.2,1.9,0.6,2.4C984.2,212.2,984.7,212.5,985.4,212.5
	L985.4,212.5z"/>
<path class="st1" d="M234.8,267.2c-0.9,0-1.7-0.1-2.4-0.4c-0.7-0.3-1.4-0.7-1.9-1.2c-0.5-0.5-1-1.1-1.3-1.8
	c-0.3-0.7-0.4-1.5-0.4-2.3s0.1-1.6,0.4-2.3c0.3-0.7,0.7-1.3,1.3-1.8s1.2-0.9,1.9-1.2c0.8-0.3,1.6-0.4,2.5-0.4c1,0,1.9,0.2,2.7,0.5
	c0.8,0.3,1.5,0.8,2,1.4l-1.7,1.5c-0.4-0.4-0.9-0.7-1.3-0.9c-0.5-0.2-1-0.3-1.6-0.3s-1,0.1-1.5,0.3c-0.4,0.2-0.8,0.4-1.2,0.7
	c-0.3,0.3-0.6,0.7-0.8,1.1c-0.2,0.4-0.3,0.9-0.3,1.5s0.1,1,0.3,1.4s0.4,0.8,0.8,1.1c0.3,0.3,0.7,0.6,1.1,0.7
	c0.4,0.2,0.9,0.3,1.5,0.3s1-0.1,1.5-0.2c0.5-0.2,1-0.5,1.4-0.9l1.5,1.9c-0.6,0.5-1.3,0.8-2.1,1.1
	C236.4,267.1,235.6,267.2,234.8,267.2L234.8,267.2z M237,265.5v-4.2h2.4v4.5L237,265.5L237,265.5z"/>
<path class="st1" d="M510.1,260.9h5.4v2.1h-5.4V260.9z M510.3,267h-2.6v-11.2h8.5v2.1h-5.9V267z"/>
<g>
	<path d="M1016.9,292.9c-0.7,0-1.3-0.2-1.8-0.5c-0.5-0.3-1-0.8-1.3-1.5c-0.3-0.6-0.5-1.4-0.5-2.4c0-0.9,0.2-1.7,0.5-2.4
		c0.3-0.6,0.7-1.1,1.3-1.5s1.2-0.5,1.8-0.5c0.7,0,1.3,0.2,1.9,0.5s1,0.8,1.3,1.5c0.3,0.6,0.5,1.4,0.5,2.4c0,0.9-0.2,1.7-0.5,2.4
		c-0.3,0.6-0.7,1.1-1.3,1.5C1018.2,292.7,1017.6,292.9,1016.9,292.9z M1016.9,291.3c0.3,0,0.6-0.1,0.9-0.3c0.2-0.2,0.4-0.5,0.6-0.9
		c0.1-0.4,0.2-0.9,0.2-1.5s-0.1-1.1-0.2-1.5c-0.1-0.4-0.3-0.7-0.6-0.9c-0.2-0.2-0.5-0.3-0.9-0.3c-0.3,0-0.6,0.1-0.8,0.3
		c-0.2,0.2-0.4,0.5-0.6,0.9c-0.1,0.4-0.2,0.9-0.2,1.5s0.1,1.1,0.2,1.5c0.1,0.4,0.3,0.7,0.6,0.9
		C1016.3,291.2,1016.5,291.3,1016.9,291.3z"/>
</g>
<g>
	<path d="M916.9,291v-1.3l4-5.3h2l-3.9,5.3l-1-0.3h6.6v1.6H916.9z M921.4,292.8V291l0.1-1.6v-1.6h1.8v4.9H921.4z"/>
	<path d="M928.1,292.9c-0.6,0-1.2-0.1-1.7-0.2s-1.1-0.4-1.5-0.7l0.8-1.5c0.3,0.2,0.7,0.4,1.1,0.6c0.4,0.1,0.8,0.2,1.3,0.2
		c0.5,0,0.9-0.1,1.2-0.3c0.3-0.2,0.4-0.5,0.4-0.8c0-0.2-0.1-0.4-0.2-0.6c-0.1-0.2-0.3-0.3-0.6-0.4s-0.7-0.1-1.2-0.1h-2.1l0.4-4.7
		h5.1v1.6h-4.4l1-0.9l-0.3,3.4l-1-0.9h1.8c0.8,0,1.5,0.1,2,0.3c0.5,0.2,0.9,0.5,1.1,0.9c0.2,0.4,0.4,0.8,0.4,1.3
		c0,0.5-0.1,0.9-0.4,1.4c-0.2,0.4-0.6,0.8-1.1,1C929.6,292.8,928.9,292.9,928.1,292.9z"/>
</g>
<g>
	<path d="M827.6,284.2c0.8,0,1.4,0.2,2,0.5c0.6,0.3,1,0.8,1.3,1.4c0.3,0.6,0.5,1.4,0.5,2.3c0,1-0.2,1.8-0.5,2.5s-0.9,1.2-1.5,1.5
		c-0.6,0.4-1.4,0.5-2.2,0.5c-0.4,0-0.9,0-1.3-0.1s-0.8-0.2-1.1-0.4l0.7-1.4c0.2,0.2,0.5,0.3,0.8,0.3c0.3,0.1,0.5,0.1,0.8,0.1
		c0.7,0,1.3-0.2,1.7-0.7c0.4-0.4,0.6-1.1,0.6-1.9c0-0.1,0-0.3,0-0.5s0-0.4-0.1-0.5l0.5,0.5c-0.1,0.3-0.3,0.6-0.6,0.8
		c-0.2,0.2-0.5,0.4-0.9,0.5c-0.3,0.1-0.7,0.2-1.1,0.2c-0.5,0-1-0.1-1.5-0.3c-0.4-0.2-0.8-0.5-1-0.9c-0.3-0.4-0.4-0.9-0.4-1.4
		c0-0.6,0.1-1.1,0.4-1.5c0.3-0.4,0.7-0.7,1.2-1C826.5,284.3,827,284.2,827.6,284.2z M827.7,285.7c-0.3,0-0.5,0-0.7,0.1
		c-0.2,0.1-0.4,0.2-0.5,0.4c-0.1,0.2-0.2,0.4-0.2,0.7c0,0.4,0.1,0.7,0.4,0.9c0.3,0.2,0.6,0.3,1,0.3c0.3,0,0.5-0.1,0.8-0.2
		c0.2-0.1,0.4-0.3,0.5-0.5c0.1-0.2,0.2-0.4,0.2-0.7c0-0.2-0.1-0.4-0.2-0.6c-0.1-0.2-0.3-0.3-0.5-0.4
		C828.3,285.7,828,285.7,827.7,285.7z"/>
	<path d="M835.1,292.9c-0.6,0-1.2-0.1-1.7-0.2s-1.1-0.4-1.5-0.7l0.8-1.5c0.3,0.2,0.7,0.4,1.1,0.6c0.4,0.1,0.8,0.2,1.3,0.2
		c0.5,0,0.9-0.1,1.2-0.3c0.3-0.2,0.4-0.5,0.4-0.8c0-0.2-0.1-0.4-0.2-0.6c-0.1-0.2-0.3-0.3-0.6-0.4s-0.7-0.1-1.2-0.1h-2.1l0.4-4.7
		h5.1v1.6h-4.4l1-0.9l-0.3,3.4l-1-0.9h1.8c0.8,0,1.5,0.1,2,0.3c0.5,0.2,0.9,0.5,1.1,0.9c0.2,0.4,0.4,0.8,0.4,1.3
		c0,0.5-0.1,0.9-0.4,1.4c-0.2,0.4-0.6,0.8-1.1,1C836.6,292.8,835.9,292.9,835.1,292.9z"/>
</g>
<g>
	<path d="M730.7,292.8v-7.7l0.8,0.8H729v-1.6h3.6v8.4H730.7z"/>
	<path d="M736.9,292.9c-0.6,0-1.2-0.1-1.7-0.2s-1.1-0.4-1.5-0.7l0.8-1.5c0.3,0.2,0.7,0.4,1.1,0.6c0.4,0.1,0.8,0.2,1.3,0.2
		c0.5,0,0.9-0.1,1.2-0.3c0.3-0.2,0.4-0.5,0.4-0.8c0-0.2-0.1-0.4-0.2-0.6c-0.1-0.2-0.3-0.3-0.6-0.4s-0.7-0.1-1.2-0.1h-2.1l0.4-4.7
		h5.1v1.6h-4.4l1-0.9l-0.3,3.4l-1-0.9h1.8c0.8,0,1.5,0.1,2,0.3c0.5,0.2,0.9,0.5,1.1,0.9c0.2,0.4,0.4,0.8,0.4,1.3
		c0,0.5-0.1,0.9-0.4,1.4c-0.2,0.4-0.6,0.8-1.1,1C738.4,292.8,737.7,292.9,736.9,292.9z"/>
	<path d="M744.8,292.9c-0.7,0-1.3-0.2-1.8-0.5c-0.5-0.3-1-0.8-1.3-1.5c-0.3-0.6-0.5-1.4-0.5-2.4c0-0.9,0.2-1.7,0.5-2.4
		c0.3-0.6,0.7-1.1,1.3-1.5s1.2-0.5,1.8-0.5c0.7,0,1.3,0.2,1.9,0.5s1,0.8,1.3,1.5c0.3,0.6,0.5,1.4,0.5,2.4c0,0.9-0.2,1.7-0.5,2.4
		c-0.3,0.6-0.7,1.1-1.3,1.5C746.1,292.7,745.5,292.9,744.8,292.9z M744.8,291.3c0.3,0,0.6-0.1,0.9-0.3c0.2-0.2,0.4-0.5,0.6-0.9
		c0.1-0.4,0.2-0.9,0.2-1.5s-0.1-1.1-0.2-1.5c-0.1-0.4-0.3-0.7-0.6-0.9c-0.2-0.2-0.5-0.3-0.9-0.3c-0.3,0-0.6,0.1-0.8,0.3
		c-0.2,0.2-0.4,0.5-0.6,0.9c-0.1,0.4-0.2,0.9-0.2,1.5s0.1,1.1,0.2,1.5c0.1,0.4,0.3,0.7,0.6,0.9C744.2,291.2,744.5,291.3,744.8,291.3
		z"/>
</g>
<g>
	<path d="M636.7,292.8v-1.3l3.2-3.1c0.3-0.2,0.4-0.4,0.6-0.6c0.1-0.2,0.2-0.3,0.2-0.5c0-0.2,0.1-0.3,0.1-0.4c0-0.3-0.1-0.6-0.3-0.8
		c-0.2-0.2-0.6-0.3-1-0.3c-0.4,0-0.7,0.1-1,0.2s-0.5,0.4-0.8,0.6l-1.4-0.9c0.3-0.5,0.8-0.9,1.3-1.1c0.6-0.3,1.2-0.4,2-0.4
		c0.6,0,1.2,0.1,1.6,0.3c0.5,0.2,0.8,0.5,1.1,0.9s0.4,0.8,0.4,1.3c0,0.3,0,0.5-0.1,0.8c-0.1,0.3-0.2,0.6-0.4,0.9s-0.5,0.6-0.9,1
		l-2.7,2.5l-0.4-0.7h4.8v1.6H636.7z"/>
	<path d="M645.1,292.8v-7.7l0.8,0.8h-2.5v-1.6h3.6v8.4H645.1z"/>
	<path d="M652.1,292.9c-0.7,0-1.3-0.2-1.8-0.5c-0.5-0.3-1-0.8-1.3-1.5c-0.3-0.6-0.5-1.4-0.5-2.4c0-0.9,0.2-1.7,0.5-2.4
		c0.3-0.6,0.7-1.1,1.3-1.5s1.2-0.5,1.8-0.5c0.7,0,1.3,0.2,1.9,0.5s1,0.8,1.3,1.5c0.3,0.6,0.5,1.4,0.5,2.4c0,0.9-0.2,1.7-0.5,2.4
		c-0.3,0.6-0.7,1.1-1.3,1.5C653.4,292.7,652.8,292.9,652.1,292.9z M652.1,291.3c0.3,0,0.6-0.1,0.9-0.3c0.2-0.2,0.4-0.5,0.6-0.9
		c0.1-0.4,0.2-0.9,0.2-1.5s-0.1-1.1-0.2-1.5c-0.1-0.4-0.3-0.7-0.6-0.9c-0.2-0.2-0.5-0.3-0.9-0.3c-0.3,0-0.6,0.1-0.8,0.3
		c-0.2,0.2-0.4,0.5-0.6,0.9c-0.1,0.4-0.2,0.9-0.2,1.5s0.1,1.1,0.2,1.5c0.1,0.4,0.3,0.7,0.6,0.9C651.5,291.2,651.8,291.3,652.1,291.3
		z"/>
</g>
<g>
	<path d="M543.2,292.8v-1.3l3.2-3.1c0.3-0.2,0.4-0.4,0.6-0.6c0.1-0.2,0.2-0.3,0.2-0.5c0-0.2,0.1-0.3,0.1-0.4c0-0.3-0.1-0.6-0.3-0.8
		c-0.2-0.2-0.6-0.3-1-0.3c-0.4,0-0.7,0.1-1,0.2s-0.5,0.4-0.8,0.6l-1.4-0.9c0.3-0.5,0.8-0.9,1.3-1.1c0.6-0.3,1.2-0.4,2-0.4
		c0.6,0,1.2,0.1,1.6,0.3c0.5,0.2,0.8,0.5,1.1,0.9s0.4,0.8,0.4,1.3c0,0.3,0,0.5-0.1,0.8c-0.1,0.3-0.2,0.6-0.4,0.9s-0.5,0.6-0.9,1
		l-2.7,2.5l-0.4-0.7h4.8v1.6H543.2z"/>
	<path d="M551.7,292.8l3.4-7.7l0.5,0.8h-4.5l0.8-0.9v2.3h-1.7v-3h6.7v1.3l-3.1,7.1H551.7z"/>
	<path d="M560.5,292.9c-0.6,0-1.2-0.1-1.7-0.2s-1.1-0.4-1.5-0.7l0.8-1.5c0.3,0.2,0.7,0.4,1.1,0.6c0.4,0.1,0.8,0.2,1.3,0.2
		c0.5,0,0.9-0.1,1.2-0.3c0.3-0.2,0.4-0.5,0.4-0.8c0-0.2-0.1-0.4-0.2-0.6c-0.1-0.2-0.3-0.3-0.6-0.4s-0.7-0.1-1.2-0.1h-2.1l0.4-4.7
		h5.1v1.6H559l1-0.9l-0.3,3.4l-1-0.9h1.8c0.8,0,1.5,0.1,2,0.3c0.5,0.2,0.9,0.5,1.1,0.9c0.2,0.4,0.4,0.8,0.4,1.3
		c0,0.5-0.1,0.9-0.4,1.4c-0.2,0.4-0.6,0.8-1.1,1C561.9,292.8,561.3,292.9,560.5,292.9z"/>
</g>
<g>
	<path d="M452.8,292.9c-0.6,0-1.2-0.1-1.7-0.2c-0.6-0.2-1.1-0.4-1.5-0.7l0.8-1.5c0.3,0.2,0.7,0.4,1.1,0.6c0.4,0.1,0.9,0.2,1.3,0.2
		c0.5,0,0.9-0.1,1.2-0.3c0.3-0.2,0.4-0.5,0.4-0.8c0-0.3-0.1-0.6-0.4-0.8c-0.2-0.2-0.6-0.3-1.2-0.3h-0.9v-1.3l2.3-2.7l0.2,0.7h-4.4
		v-1.6h5.9v1.3l-2.3,2.7l-1-0.6h0.6c1,0,1.8,0.2,2.3,0.7c0.5,0.5,0.8,1.1,0.8,1.8c0,0.5-0.1,0.9-0.4,1.3s-0.6,0.8-1.1,1
		C454.3,292.8,453.6,292.9,452.8,292.9z"/>
	<path d="M457.1,291v-1.3l4-5.3h2l-3.9,5.3l-1-0.3h6.6v1.6H457.1z M461.6,292.8V291l0.1-1.6v-1.6h1.8v4.9H461.6z"/>
	<path d="M468.3,292.9c-0.6,0-1.2-0.1-1.7-0.2s-1.1-0.4-1.5-0.7l0.8-1.5c0.3,0.2,0.7,0.4,1.1,0.6c0.4,0.1,0.8,0.2,1.3,0.2
		c0.5,0,0.9-0.1,1.2-0.3c0.3-0.2,0.4-0.5,0.4-0.8c0-0.2-0.1-0.4-0.2-0.6c-0.1-0.2-0.3-0.3-0.6-0.4s-0.7-0.1-1.2-0.1h-2.1l0.4-4.7
		h5.1v1.6h-4.4l1-0.9l-0.3,3.4l-1-0.9h1.8c0.8,0,1.5,0.1,2,0.3c0.5,0.2,0.9,0.5,1.1,0.9c0.2,0.4,0.4,0.8,0.4,1.3
		c0,0.5-0.1,0.9-0.4,1.4c-0.2,0.4-0.6,0.8-1.1,1C469.8,292.8,469.1,292.9,468.3,292.9z"/>
</g>
<g>
	<path d="M356.9,291v-1.3l4-5.3h2l-3.9,5.3l-1-0.3h6.6v1.6H356.9z M361.4,292.8V291l0.1-1.6v-1.6h1.8v4.9H361.4z"/>
	<path d="M365.2,292.8v-1.3l3.2-3.1c0.3-0.2,0.4-0.4,0.6-0.6c0.1-0.2,0.2-0.3,0.2-0.5c0-0.2,0.1-0.3,0.1-0.4c0-0.3-0.1-0.6-0.3-0.8
		c-0.2-0.2-0.6-0.3-1-0.3c-0.4,0-0.7,0.1-1,0.2s-0.5,0.4-0.8,0.6l-1.4-0.9c0.3-0.5,0.8-0.9,1.3-1.1c0.6-0.3,1.2-0.4,2-0.4
		c0.6,0,1.2,0.1,1.6,0.3c0.5,0.2,0.8,0.5,1.1,0.9s0.4,0.8,0.4,1.3c0,0.3,0,0.5-0.1,0.8c-0.1,0.3-0.2,0.6-0.4,0.9s-0.5,0.6-0.9,1
		l-2.7,2.5l-0.4-0.7h4.8v1.6H365.2z"/>
	<path d="M375.9,292.9c-0.7,0-1.3-0.2-1.8-0.5c-0.5-0.3-1-0.8-1.3-1.5c-0.3-0.6-0.5-1.4-0.5-2.4c0-0.9,0.2-1.7,0.5-2.4
		c0.3-0.6,0.7-1.1,1.3-1.5s1.2-0.5,1.8-0.5c0.7,0,1.3,0.2,1.9,0.5s1,0.8,1.3,1.5c0.3,0.6,0.5,1.4,0.5,2.4c0,0.9-0.2,1.7-0.5,2.4
		c-0.3,0.6-0.7,1.1-1.3,1.5C377.2,292.7,376.6,292.9,375.9,292.9z M375.9,291.3c0.3,0,0.6-0.1,0.9-0.3c0.2-0.2,0.4-0.5,0.6-0.9
		c0.1-0.4,0.2-0.9,0.2-1.5s-0.1-1.1-0.2-1.5c-0.1-0.4-0.3-0.7-0.6-0.9c-0.2-0.2-0.5-0.3-0.9-0.3c-0.3,0-0.6,0.1-0.8,0.3
		c-0.2,0.2-0.4,0.5-0.6,0.9c-0.1,0.4-0.2,0.9-0.2,1.5s0.1,1.1,0.2,1.5c0.1,0.4,0.3,0.7,0.6,0.9C375.3,291.2,375.6,291.3,375.9,291.3
		z"/>
</g>
<g>
	<path d="M267.2,292.9c-0.6,0-1.2-0.1-1.7-0.2s-1.1-0.4-1.5-0.7l0.8-1.5c0.3,0.2,0.7,0.4,1.1,0.6c0.4,0.1,0.8,0.2,1.3,0.2
		c0.5,0,0.9-0.1,1.2-0.3c0.3-0.2,0.4-0.5,0.4-0.8c0-0.2-0.1-0.4-0.2-0.6c-0.1-0.2-0.3-0.3-0.6-0.4s-0.7-0.1-1.2-0.1h-2.1l0.4-4.7
		h5.1v1.6h-4.4l1-0.9l-0.3,3.4l-1-0.9h1.8c0.8,0,1.5,0.1,2,0.3c0.5,0.2,0.9,0.5,1.1,0.9c0.2,0.4,0.4,0.8,0.4,1.3
		c0,0.5-0.1,0.9-0.4,1.4c-0.2,0.4-0.6,0.8-1.1,1C268.6,292.8,268,292.9,267.2,292.9z"/>
	<path d="M275.1,292.9c-0.7,0-1.3-0.2-1.8-0.5c-0.5-0.3-1-0.8-1.3-1.5c-0.3-0.6-0.5-1.4-0.5-2.4c0-0.9,0.2-1.7,0.5-2.4
		c0.3-0.6,0.7-1.1,1.3-1.5s1.2-0.5,1.8-0.5c0.7,0,1.3,0.2,1.9,0.5s1,0.8,1.3,1.5c0.3,0.6,0.5,1.4,0.5,2.4c0,0.9-0.2,1.7-0.5,2.4
		c-0.3,0.6-0.7,1.1-1.3,1.5C276.4,292.7,275.8,292.9,275.1,292.9z M275.1,291.3c0.3,0,0.6-0.1,0.9-0.3c0.2-0.2,0.4-0.5,0.6-0.9
		c0.1-0.4,0.2-0.9,0.2-1.5s-0.1-1.1-0.2-1.5c-0.1-0.4-0.3-0.7-0.6-0.9c-0.2-0.2-0.5-0.3-0.9-0.3c-0.3,0-0.6,0.1-0.8,0.3
		c-0.2,0.2-0.4,0.5-0.6,0.9c-0.1,0.4-0.2,0.9-0.2,1.5s0.1,1.1,0.2,1.5c0.1,0.4,0.3,0.7,0.6,0.9C274.5,291.2,274.8,291.3,275.1,291.3
		z"/>
	<path d="M283.2,292.9c-0.7,0-1.3-0.2-1.8-0.5c-0.5-0.3-1-0.8-1.3-1.5c-0.3-0.6-0.5-1.4-0.5-2.4c0-0.9,0.2-1.7,0.5-2.4
		c0.3-0.6,0.7-1.1,1.3-1.5s1.2-0.5,1.8-0.5c0.7,0,1.3,0.2,1.9,0.5s1,0.8,1.3,1.5c0.3,0.6,0.5,1.4,0.5,2.4c0,0.9-0.2,1.7-0.5,2.4
		c-0.3,0.6-0.7,1.1-1.3,1.5C284.5,292.7,283.9,292.9,283.2,292.9z M283.2,291.3c0.3,0,0.6-0.1,0.9-0.3c0.2-0.2,0.4-0.5,0.6-0.9
		c0.1-0.4,0.2-0.9,0.2-1.5s-0.1-1.1-0.2-1.5c-0.1-0.4-0.3-0.7-0.6-0.9c-0.2-0.2-0.5-0.3-0.9-0.3c-0.3,0-0.6,0.1-0.8,0.3
		c-0.2,0.2-0.4,0.5-0.6,0.9c-0.1,0.4-0.2,0.9-0.2,1.5s0.1,1.1,0.2,1.5c0.1,0.4,0.3,0.7,0.6,0.9C282.6,291.2,282.9,291.3,283.2,291.3
		z"/>
</g>
<g>
	<path d="M174.6,292.9c-0.6,0-1.2-0.1-1.7-0.2s-1.1-0.4-1.5-0.7l0.8-1.5c0.3,0.2,0.7,0.4,1.1,0.6c0.4,0.1,0.8,0.2,1.3,0.2
		c0.5,0,0.9-0.1,1.2-0.3c0.3-0.2,0.4-0.5,0.4-0.8c0-0.2-0.1-0.4-0.2-0.6c-0.1-0.2-0.3-0.3-0.6-0.4s-0.7-0.1-1.2-0.1h-2.1l0.4-4.7
		h5.1v1.6h-4.4l1-0.9l-0.3,3.4l-1-0.9h1.8c0.8,0,1.5,0.1,2,0.3c0.5,0.2,0.9,0.5,1.1,0.9c0.2,0.4,0.4,0.8,0.4,1.3
		c0,0.5-0.1,0.9-0.4,1.4c-0.2,0.4-0.6,0.8-1.1,1C176.1,292.8,175.4,292.9,174.6,292.9z"/>
	<path d="M182.4,292.9c-0.7,0-1.3-0.1-1.9-0.3c-0.5-0.2-0.9-0.5-1.2-0.9c-0.3-0.4-0.4-0.8-0.4-1.4c0-0.5,0.1-1,0.4-1.3
		c0.3-0.4,0.7-0.6,1.2-0.8s1.2-0.3,1.9-0.3c0.7,0,1.3,0.1,1.9,0.3c0.5,0.2,0.9,0.5,1.2,0.8s0.4,0.8,0.4,1.3c0,0.5-0.1,1-0.4,1.4
		c-0.3,0.4-0.7,0.7-1.2,0.9C183.7,292.8,183.1,292.9,182.4,292.9z M182.4,288.9c-0.6,0-1.2-0.1-1.7-0.3c-0.5-0.2-0.9-0.4-1.1-0.8
		c-0.3-0.3-0.4-0.8-0.4-1.2c0-0.5,0.1-0.9,0.4-1.3c0.3-0.4,0.7-0.6,1.1-0.8c0.5-0.2,1-0.3,1.7-0.3c0.6,0,1.2,0.1,1.7,0.3
		c0.5,0.2,0.9,0.5,1.1,0.8c0.3,0.4,0.4,0.8,0.4,1.3c0,0.5-0.1,0.9-0.4,1.2s-0.6,0.6-1.1,0.8C183.6,288.8,183.1,288.9,182.4,288.9z
		 M182.4,291.5c0.5,0,0.9-0.1,1.2-0.3c0.3-0.2,0.4-0.5,0.4-0.9c0-0.4-0.1-0.6-0.4-0.9c-0.3-0.2-0.7-0.3-1.2-0.3
		c-0.5,0-0.9,0.1-1.1,0.3s-0.4,0.5-0.4,0.9c0,0.4,0.1,0.7,0.4,0.9C181.5,291.4,181.9,291.5,182.4,291.5z M182.4,287.7
		c0.4,0,0.7-0.1,1-0.3c0.2-0.2,0.4-0.4,0.4-0.8s-0.1-0.6-0.4-0.8c-0.2-0.2-0.6-0.3-1-0.3c-0.4,0-0.7,0.1-0.9,0.3
		c-0.2,0.2-0.4,0.4-0.4,0.8c0,0.3,0.1,0.6,0.3,0.8C181.7,287.6,182,287.7,182.4,287.7z"/>
	<path d="M190.4,292.9c-0.7,0-1.3-0.2-1.8-0.5c-0.5-0.3-1-0.8-1.3-1.5c-0.3-0.6-0.5-1.4-0.5-2.4c0-0.9,0.2-1.7,0.5-2.4
		c0.3-0.6,0.7-1.1,1.3-1.5s1.2-0.5,1.8-0.5c0.7,0,1.3,0.2,1.9,0.5s1,0.8,1.3,1.5c0.3,0.6,0.5,1.4,0.5,2.4c0,0.9-0.2,1.7-0.5,2.4
		c-0.3,0.6-0.7,1.1-1.3,1.5C191.8,292.7,191.1,292.9,190.4,292.9z M190.4,291.3c0.3,0,0.6-0.1,0.9-0.3c0.2-0.2,0.4-0.5,0.6-0.9
		c0.1-0.4,0.2-0.9,0.2-1.5s-0.1-1.1-0.2-1.5c-0.1-0.4-0.3-0.7-0.6-0.9c-0.2-0.2-0.5-0.3-0.9-0.3c-0.3,0-0.6,0.1-0.8,0.3
		c-0.2,0.2-0.4,0.5-0.6,0.9c-0.1,0.4-0.2,0.9-0.2,1.5s0.1,1.1,0.2,1.5c0.1,0.4,0.3,0.7,0.6,0.9C189.9,291.2,190.1,291.3,190.4,291.3
		z"/>
</g>
<g>
	<path d="M82.8,292.9c-0.8,0-1.4-0.2-2-0.5c-0.6-0.3-1-0.8-1.3-1.4c-0.3-0.6-0.5-1.4-0.5-2.3c0-1,0.2-1.8,0.5-2.5
		c0.4-0.7,0.9-1.2,1.5-1.5c0.6-0.4,1.4-0.5,2.2-0.5c0.4,0,0.9,0,1.3,0.2c0.4,0.1,0.8,0.2,1.1,0.4l-0.7,1.4c-0.2-0.2-0.5-0.3-0.7-0.3
		c-0.3-0.1-0.5-0.1-0.8-0.1c-0.7,0-1.3,0.2-1.7,0.7c-0.4,0.4-0.6,1.1-0.6,2c0,0.1,0,0.3,0,0.5c0,0.2,0,0.4,0.1,0.5l-0.5-0.5
		c0.2-0.3,0.3-0.6,0.6-0.8c0.2-0.2,0.5-0.4,0.9-0.5c0.3-0.1,0.7-0.2,1.1-0.2c0.5,0,1,0.1,1.5,0.3c0.4,0.2,0.8,0.5,1,0.9
		c0.3,0.4,0.4,0.9,0.4,1.4c0,0.6-0.1,1.1-0.4,1.5c-0.3,0.4-0.7,0.7-1.1,1C83.9,292.8,83.4,292.9,82.8,292.9z M82.7,291.5
		c0.3,0,0.5,0,0.7-0.2c0.2-0.1,0.4-0.2,0.5-0.4c0.1-0.2,0.2-0.4,0.2-0.7c0-0.4-0.1-0.7-0.4-0.9c-0.3-0.2-0.6-0.3-1-0.3
		c-0.3,0-0.5,0.1-0.8,0.2c-0.2,0.1-0.4,0.3-0.5,0.5c-0.1,0.2-0.2,0.4-0.2,0.7c0,0.2,0.1,0.4,0.2,0.6c0.1,0.2,0.3,0.3,0.5,0.4
		C82.1,291.4,82.4,291.5,82.7,291.5z"/>
	<path d="M90.4,292.9c-0.8,0-1.4-0.2-2-0.5c-0.6-0.3-1-0.8-1.3-1.4c-0.3-0.6-0.5-1.4-0.5-2.3c0-1,0.2-1.8,0.5-2.5
		c0.4-0.7,0.9-1.2,1.5-1.5c0.6-0.4,1.4-0.5,2.2-0.5c0.4,0,0.9,0,1.3,0.2c0.4,0.1,0.8,0.2,1.1,0.4l-0.7,1.4c-0.2-0.2-0.5-0.3-0.7-0.3
		c-0.3-0.1-0.5-0.1-0.8-0.1c-0.7,0-1.3,0.2-1.7,0.7c-0.4,0.4-0.6,1.1-0.6,2c0,0.1,0,0.3,0,0.5c0,0.2,0,0.4,0.1,0.5l-0.5-0.5
		c0.2-0.3,0.3-0.6,0.6-0.8c0.2-0.2,0.5-0.4,0.9-0.5c0.3-0.1,0.7-0.2,1.1-0.2c0.5,0,1,0.1,1.5,0.3c0.4,0.2,0.8,0.5,1,0.9
		c0.3,0.4,0.4,0.9,0.4,1.4c0,0.6-0.1,1.1-0.4,1.5c-0.3,0.4-0.7,0.7-1.1,1C91.6,292.8,91,292.9,90.4,292.9z M90.3,291.5
		c0.3,0,0.5,0,0.7-0.2c0.2-0.1,0.4-0.2,0.5-0.4c0.1-0.2,0.2-0.4,0.2-0.7c0-0.4-0.1-0.7-0.4-0.9c-0.3-0.2-0.6-0.3-1-0.3
		c-0.3,0-0.5,0.1-0.8,0.2c-0.2,0.1-0.4,0.3-0.5,0.5c-0.1,0.2-0.2,0.4-0.2,0.7c0,0.2,0.1,0.4,0.2,0.6c0.1,0.2,0.3,0.3,0.5,0.4
		C89.7,291.4,90,291.5,90.3,291.5z"/>
	<path d="M97.9,292.9c-0.7,0-1.3-0.2-1.8-0.5c-0.5-0.3-1-0.8-1.3-1.5c-0.3-0.6-0.5-1.4-0.5-2.4c0-0.9,0.2-1.7,0.5-2.4
		c0.3-0.6,0.7-1.1,1.3-1.5s1.2-0.5,1.8-0.5c0.7,0,1.3,0.2,1.9,0.5s1,0.8,1.3,1.5c0.3,0.6,0.5,1.4,0.5,2.4c0,0.9-0.2,1.7-0.5,2.4
		c-0.3,0.6-0.7,1.1-1.3,1.5C99.2,292.7,98.6,292.9,97.9,292.9z M97.9,291.3c0.3,0,0.6-0.1,0.9-0.3c0.2-0.2,0.4-0.5,0.6-0.9
		c0.1-0.4,0.2-0.9,0.2-1.5s-0.1-1.1-0.2-1.5c-0.1-0.4-0.3-0.7-0.6-0.9c-0.2-0.2-0.5-0.3-0.9-0.3c-0.3,0-0.6,0.1-0.8,0.3
		c-0.2,0.2-0.4,0.5-0.6,0.9c-0.1,0.4-0.2,0.9-0.2,1.5s0.1,1.1,0.2,1.5c0.1,0.4,0.3,0.7,0.6,0.9C97.3,291.2,97.6,291.3,97.9,291.3z"
		/>
</g>
</svg>
