<?xml version="1.0" encoding="utf-8"?>
<!-- Generator: Adobe Illustrator 26.5.0, SVG Export Plug-In . SVG Version: 6.00 Build 0)  -->
<svg version="1.1" id="Layer_1" xmlns="http://www.w3.org/2000/svg" xmlns:xlink="http://www.w3.org/1999/xlink" x="0px" y="0px"
	 viewBox="0 0 1029.1 327.1" style="enable-background:new 0 0 1029.1 327.1;" xml:space="preserve">
<style type="text/css">
	.st0{fill:#FDD400;}
	.st1{fill:#FA9101;}
	.st2{fill:#D62015;}
	.st3{fill:#FDF300;}
	.st4{fill:#D8DB1A;}
	.st5{fill:#9ADE27;}
	.st6{fill:#667487;}
	.st7{fill:#001837;}
</style>
<path class="st0" d="M653.6,266.5h87.9l9.5,17l-9.5,17h-87.9l9.5-17L653.6,266.5z"/>
<path class="st1" d="M561,266.5h87.9l9.5,17l-9.5,17H561l9.5-17L561,266.5z"/>
<path class="st2" d="M5.2,266.5h551l9.5,17l-9.5,17H5.2l9.5-17L5.2,266.5z"/>
<path class="st3" d="M746.3,266.5h87.9l9.5,17l-9.5,17h-87.9l9.5-17L746.3,266.5z"/>
<path class="st4" d="M838.9,266.5h88l9.5,17l-9.5,17h-88l9.5-17L838.9,266.5z"/>
<path class="st5" d="M931.6,266.5h88l9.5,17l-9.5,17h-88l9.5-17L931.6,266.5z"/>
<path class="st2" d="M5.2,257.3h88V225h-88C5.2,225,5.2,257.3,5.2,257.3z"/>
<path class="st2" d="M97.9,257.3h88v-21.5h-88C97.9,235.8,97.9,257.3,97.9,257.3z"/>
<path class="st2" d="M190.5,257.3h88V225h-88V257.3L190.5,257.3z"/>
<path class="st2" d="M283.2,257.3h88v-43h-88V257.3z"/>
<path class="st2" d="M375.8,257.3h88V182h-88V257.3z"/>
<path class="st2" d="M468.5,257.3h88V139h-88V257.3L468.5,257.3z"/>
<path class="st1" d="M561.1,257.3h88V106.7h-88V257.3L561.1,257.3z"/>
<path class="st0" d="M653.8,257.3h88V85.2h-88V257.3L653.8,257.3z"/>
<path class="st3" d="M746.5,257.3h88V31.4h-88V257.3z"/>
<path class="st4" d="M839.1,257.3h88V52.9h-88V257.3L839.1,257.3z"/>
<path class="st5" d="M931.8,257.3h88v-10.8h-88V257.3z"/>
<path id="Montserrat-SemiBold-33" class="st6" d="M40,214.6c-1.4,0-2.8-0.2-4.2-0.6c-1.4-0.4-2.5-1-3.5-1.7l1.6-2.9
	c0.7,0.6,1.6,1.1,2.7,1.5c1,0.4,2.2,0.6,3.3,0.6c1.4,0,2.4-0.3,3.2-0.8c0.8-0.6,1.1-1.3,1.1-2.3s-0.3-1.7-1-2.2s-1.8-0.8-3.4-0.8
	h-1.9v-2.6l5.8-6.9l0.5,1.4H33.3V194h13.9v2.5l-5.8,6.9l-2-1.2h1.1c2.5,0,4.4,0.6,5.6,1.7c1.2,1.1,1.9,2.6,1.9,4.3
	c0,1.1-0.3,2.2-0.9,3.2c-0.6,1-1.5,1.8-2.7,2.3S41.8,214.6,40,214.6L40,214.6z"/>
<path id="Montserrat-SemiBold-25" class="st6" d="M53.3,214.3l13.9-20.4H70l-13.9,20.4C56.2,214.3,53.3,214.3,53.3,214.3z M55,204.9
	c-1,0-1.8-0.2-2.5-0.7s-1.3-1.1-1.7-1.9c-0.4-0.8-0.6-1.8-0.6-2.9s0.2-2.1,0.6-2.9s1-1.5,1.7-1.9c0.7-0.5,1.6-0.7,2.5-0.7
	s1.8,0.2,2.6,0.7c0.7,0.5,1.3,1.1,1.7,1.9c0.4,0.8,0.6,1.8,0.6,2.9s-0.2,2.1-0.6,2.9c-0.4,0.8-1,1.5-1.7,1.9
	C56.9,204.7,56,204.9,55,204.9z M55.1,202.9c0.8,0,1.4-0.3,1.8-0.9s0.7-1.5,0.7-2.6s-0.2-2-0.7-2.6c-0.4-0.6-1-0.9-1.8-0.9
	s-1.4,0.3-1.8,0.9s-0.7,1.5-0.7,2.6s0.2,2,0.7,2.6S54.3,202.9,55.1,202.9L55.1,202.9z M68.4,214.5c-1,0-1.8-0.2-2.5-0.7
	s-1.3-1.1-1.7-1.9c-0.4-0.8-0.6-1.8-0.6-2.9s0.2-2.1,0.6-2.9c0.4-0.8,1-1.5,1.7-1.9c0.7-0.5,1.6-0.7,2.5-0.7s1.8,0.2,2.6,0.7
	c0.7,0.5,1.3,1.1,1.7,1.9c0.4,0.8,0.6,1.8,0.6,2.9s-0.2,2.1-0.6,2.9c-0.4,0.8-1,1.5-1.7,1.9C70.2,214.3,69.4,214.5,68.4,214.5z
	 M68.4,212.5c0.8,0,1.4-0.3,1.8-0.9c0.4-0.6,0.7-1.5,0.7-2.6s-0.2-2-0.7-2.6s-1.1-0.9-1.8-0.9s-1.4,0.3-1.8,0.9s-0.7,1.5-0.7,2.6
	s0.2,2,0.7,2.6C67,212.2,67.6,212.5,68.4,212.5L68.4,212.5z"/>
<path id="Montserrat-SemiBold-32" class="st6" d="M125.9,225.1v-2.5l8.1-7.7c0.7-0.6,1.2-1.2,1.5-1.7s0.6-0.9,0.6-1.4
	c0.1-0.4,0.2-0.8,0.2-1.2c0-0.9-0.3-1.7-1-2.2c-0.6-0.5-1.6-0.8-2.8-0.8c-1,0-1.9,0.2-2.7,0.5c-0.8,0.4-1.5,0.9-2.1,1.6l-2.7-2
	c0.8-1.1,1.9-1.9,3.2-2.5c1.4-0.6,2.9-0.9,4.5-0.9c1.5,0,2.8,0.2,3.9,0.7c1.1,0.5,1.9,1.1,2.5,2s0.9,1.9,0.9,3.1
	c0,0.7-0.1,1.3-0.3,2c-0.2,0.6-0.5,1.3-1,2.1c-0.5,0.7-1.2,1.5-2.1,2.4l-6.9,6.6l-0.8-1.4H141v3.2L125.9,225.1L125.9,225.1z"/>
<path id="Montserrat-SemiBold-25-2" class="st6" d="M146,225.1l13.9-20.4h2.9l-13.9,20.4H146z M147.7,215.7c-0.9,0-1.8-0.2-2.5-0.7
	s-1.3-1.1-1.7-1.9c-0.4-0.8-0.6-1.8-0.6-2.9s0.2-2.1,0.6-2.9s1-1.5,1.7-1.9c0.7-0.5,1.6-0.7,2.5-0.7s1.9,0.2,2.6,0.7
	c0.7,0.5,1.3,1.1,1.7,1.9c0.4,0.8,0.6,1.8,0.6,2.9s-0.2,2.1-0.6,2.9c-0.4,0.8-1,1.5-1.7,1.9C149.5,215.4,148.7,215.7,147.7,215.7z
	 M147.7,213.6c0.8,0,1.4-0.3,1.8-0.9s0.6-1.5,0.6-2.6s-0.2-2-0.6-2.6c-0.4-0.6-1-0.9-1.8-0.9s-1.4,0.3-1.9,0.9s-0.7,1.5-0.7,2.6
	s0.2,2,0.7,2.6S146.9,213.6,147.7,213.6L147.7,213.6z M161.1,225.3c-0.9,0-1.8-0.2-2.5-0.7s-1.3-1.1-1.7-1.9
	c-0.4-0.8-0.6-1.8-0.6-2.9s0.2-2.1,0.6-2.9s1-1.5,1.7-1.9c0.7-0.5,1.6-0.7,2.5-0.7s1.9,0.2,2.6,0.7c0.7,0.5,1.3,1.1,1.7,1.9
	c0.4,0.8,0.6,1.8,0.6,2.9s-0.2,2.1-0.6,2.9c-0.4,0.8-1,1.5-1.7,1.9C162.9,225,162,225.3,161.1,225.3z M161.1,223.2
	c0.8,0,1.4-0.3,1.8-0.9c0.4-0.6,0.7-1.5,0.7-2.6s-0.2-2-0.7-2.6s-1.1-0.9-1.8-0.9s-1.4,0.3-1.8,0.9c-0.4,0.6-0.7,1.5-0.7,2.6
	s0.2,2,0.7,2.6C159.7,222.9,160.3,223.2,161.1,223.2L161.1,223.2z"/>
<path id="Montserrat-SemiBold-33-2" class="st6" d="M225.3,214.6c-1.4,0-2.8-0.2-4.2-0.6c-1.4-0.4-2.5-1-3.4-1.7l1.6-2.9
	c0.7,0.6,1.6,1.1,2.7,1.5c1.1,0.4,2.1,0.6,3.3,0.6c1.4,0,2.4-0.3,3.2-0.8s1.1-1.3,1.1-2.3s-0.4-1.7-1.1-2.2
	c-0.7-0.5-1.8-0.8-3.4-0.8h-1.9v-2.6l5.8-6.9l0.5,1.4h-10.9V194h13.9v2.5l-5.8,6.9l-2-1.2h1.1c2.5,0,4.4,0.6,5.6,1.7
	c1.2,1.1,1.9,2.6,1.9,4.3c0,1.1-0.3,2.2-0.9,3.2s-1.5,1.8-2.7,2.3S227.1,214.6,225.3,214.6L225.3,214.6z"/>
<path id="Montserrat-SemiBold-25-3" class="st6" d="M238.7,214.3l13.9-20.4h2.9l-13.9,20.4H238.7z M240.3,204.9
	c-0.9,0-1.8-0.2-2.5-0.7s-1.3-1.1-1.7-1.9c-0.4-0.8-0.6-1.8-0.6-2.9s0.2-2.1,0.6-2.9s1-1.5,1.7-1.9c0.7-0.5,1.6-0.7,2.5-0.7
	s1.9,0.2,2.6,0.7c0.7,0.5,1.3,1.1,1.7,1.9c0.4,0.8,0.6,1.8,0.6,2.9s-0.2,2.1-0.6,2.9c-0.4,0.8-1,1.5-1.7,1.9
	C242.2,204.7,241.3,204.9,240.3,204.9z M240.4,202.9c0.8,0,1.4-0.3,1.8-0.9s0.6-1.5,0.6-2.6s-0.2-2-0.6-2.6c-0.4-0.6-1-0.9-1.8-0.9
	s-1.4,0.3-1.9,0.9s-0.7,1.5-0.7,2.6s0.2,2,0.7,2.6S239.6,202.9,240.4,202.9L240.4,202.9z M253.7,214.5c-0.9,0-1.8-0.2-2.5-0.7
	s-1.3-1.1-1.7-1.9c-0.4-0.8-0.6-1.8-0.6-2.9s0.2-2.1,0.6-2.9s1-1.5,1.7-1.9c0.7-0.5,1.6-0.7,2.5-0.7s1.9,0.2,2.6,0.7
	c0.7,0.5,1.3,1.1,1.7,1.9c0.4,0.8,0.6,1.8,0.6,2.9s-0.2,2.1-0.6,2.9c-0.4,0.8-1,1.5-1.7,1.9C255.5,214.3,254.7,214.5,253.7,214.5z
	 M253.7,212.5c0.8,0,1.4-0.3,1.8-0.9c0.4-0.6,0.7-1.5,0.7-2.6s-0.2-2-0.7-2.6s-1.1-0.9-1.8-0.9s-1.4,0.3-1.8,0.9
	c-0.4,0.6-0.7,1.5-0.7,2.6s0.2,2,0.7,2.6C252.3,212.2,253,212.5,253.7,212.5L253.7,212.5z"/>
<path id="Montserrat-SemiBold-34" class="st6" d="M309.8,198.9v-2.6l10-13.1h4l-9.9,13.1l-1.9-0.6h16.1v3.2L309.8,198.9L309.8,198.9
	z M321,203.6V199l0.1-3.2v-4.1h3.5v11.9L321,203.6L321,203.6z"/>
<path id="Montserrat-SemiBold-25-4" class="st6" d="M332.7,203.5l13.9-20.4h2.9l-13.9,20.4H332.7z M334.4,194.1
	c-1,0-1.8-0.2-2.5-0.7s-1.3-1.1-1.7-1.9c-0.4-0.8-0.6-1.8-0.6-2.9s0.2-2.1,0.6-2.9c0.4-0.8,1-1.5,1.7-1.9c0.7-0.5,1.6-0.7,2.5-0.7
	s1.9,0.2,2.6,0.7s1.3,1.1,1.7,1.9c0.4,0.8,0.6,1.8,0.6,2.9s-0.2,2.1-0.6,2.9c-0.4,0.8-1,1.5-1.7,1.9
	C336.2,193.9,335.4,194.1,334.4,194.1z M334.4,192.1c0.8,0,1.4-0.3,1.8-0.9s0.6-1.5,0.6-2.6s-0.2-2-0.6-2.6s-1-0.9-1.8-0.9
	s-1.4,0.3-1.9,0.9s-0.7,1.5-0.7,2.6s0.2,2,0.7,2.6S333.7,192.1,334.4,192.1L334.4,192.1z M347.8,203.7c-1,0-1.8-0.2-2.5-0.7
	s-1.3-1.1-1.7-1.9c-0.4-0.8-0.6-1.8-0.6-2.9s0.2-2.1,0.6-2.9c0.4-0.8,1-1.5,1.7-1.9c0.7-0.5,1.6-0.7,2.5-0.7s1.9,0.2,2.6,0.7
	s1.3,1.1,1.7,1.9c0.4,0.8,0.6,1.8,0.6,2.9s-0.2,2.1-0.6,2.9c-0.4,0.8-1,1.5-1.7,1.9C349.6,203.5,348.7,203.7,347.8,203.7z
	 M347.8,201.7c0.8,0,1.4-0.3,1.8-0.9c0.5-0.6,0.7-1.5,0.7-2.6s-0.2-2-0.7-2.6s-1.1-0.9-1.8-0.9s-1.4,0.3-1.8,0.9s-0.7,1.5-0.7,2.6
	s0.2,2,0.7,2.6C346.4,201.4,347,201.7,347.8,201.7L347.8,201.7z"/>
<path id="Montserrat-SemiBold-37" class="st6" d="M407.2,171.3l8.4-18.9l1,1.7H405l1.8-1.8v5.3h-3.5v-6.7h15.8v2.5l-7.9,17.8
	L407.2,171.3L407.2,171.3z"/>
<path id="Montserrat-SemiBold-25-5" class="st6" d="M424.3,171.3l13.9-20.4h2.9l-13.9,20.4H424.3z M426,161.9c-1,0-1.8-0.2-2.5-0.7
	s-1.3-1.1-1.7-1.9c-0.4-0.8-0.6-1.8-0.6-2.9s0.2-2.1,0.6-2.9c0.4-0.8,1-1.5,1.7-1.9c0.7-0.5,1.6-0.7,2.5-0.7s1.9,0.2,2.6,0.7
	s1.3,1.1,1.7,1.9c0.4,0.8,0.6,1.8,0.6,2.9s-0.2,2.1-0.6,2.9c-0.4,0.8-1,1.5-1.7,1.9C427.9,161.6,427,161.9,426,161.9z M426.1,159.8
	c0.8,0,1.4-0.3,1.8-0.9s0.6-1.5,0.6-2.6s-0.2-2-0.6-2.6s-1-0.9-1.8-0.9s-1.4,0.3-1.9,0.9s-0.7,1.5-0.7,2.6s0.2,2,0.7,2.6
	S425.3,159.8,426.1,159.8L426.1,159.8z M439.4,171.5c-1,0-1.8-0.2-2.5-0.7s-1.3-1.1-1.7-1.9c-0.4-0.8-0.6-1.8-0.6-2.9
	s0.2-2.1,0.6-2.9c0.4-0.8,1-1.5,1.7-1.9c0.7-0.5,1.6-0.7,2.5-0.7s1.9,0.2,2.6,0.7s1.3,1.1,1.7,1.9c0.4,0.8,0.6,1.8,0.6,2.9
	s-0.2,2.1-0.6,2.9c-0.4,0.8-1,1.5-1.7,1.9C441.2,171.2,440.4,171.5,439.4,171.5z M439.4,169.4c0.8,0,1.4-0.3,1.8-0.9
	c0.5-0.6,0.7-1.5,0.7-2.6s-0.2-2-0.7-2.6s-1.1-0.9-1.8-0.9s-1.4,0.3-1.8,0.9s-0.7,1.5-0.7,2.6s0.2,2,0.7,2.6
	C438,169.1,438.6,169.4,439.4,169.4L439.4,169.4z"/>
<path id="Montserrat-SemiBold-31" class="st6" d="M493.4,128.2v-18.9l1.7,1.7h-6v-3.2h8.1v20.4H493.4z"/>
<path id="Montserrat-SemiBold-31-2" class="st6" d="M504.5,128.2v-18.9l1.7,1.7h-6v-3.2h8.1v20.4H504.5z"/>
<path id="Montserrat-SemiBold-25-6" class="st6" d="M515.2,128.2l13.9-20.4h2.8L518,128.2H515.2z M516.9,118.8c-1,0-1.8-0.2-2.5-0.7
	s-1.3-1.1-1.7-1.9s-0.6-1.8-0.6-2.9s0.2-2.1,0.6-2.9c0.4-0.8,1-1.5,1.7-1.9c0.7-0.5,1.6-0.7,2.5-0.7s1.8,0.2,2.6,0.7
	c0.7,0.5,1.3,1.1,1.7,1.9s0.6,1.8,0.6,2.9s-0.2,2.1-0.6,2.9c-0.4,0.8-1,1.5-1.7,1.9C518.7,118.6,517.9,118.8,516.9,118.8
	L516.9,118.8z M516.9,116.8c0.8,0,1.4-0.3,1.8-0.9s0.7-1.5,0.7-2.6s-0.2-2-0.7-2.6c-0.4-0.6-1-0.9-1.8-0.9s-1.4,0.3-1.9,0.9
	s-0.7,1.5-0.7,2.6s0.2,2,0.7,2.6S516.2,116.8,516.9,116.8z M530.3,128.4c-1,0-1.8-0.2-2.5-0.7s-1.3-1.1-1.7-1.9s-0.6-1.8-0.6-2.9
	s0.2-2.1,0.6-2.9c0.4-0.8,1-1.5,1.7-1.9c0.7-0.5,1.6-0.7,2.5-0.7s1.8,0.2,2.6,0.7c0.7,0.5,1.3,1.1,1.7,1.9s0.6,1.8,0.6,2.9
	s-0.2,2.1-0.6,2.9c-0.4,0.8-1,1.5-1.7,1.9C532.1,128.2,531.2,128.4,530.3,128.4z M530.3,126.4c0.8,0,1.4-0.3,1.8-0.9
	c0.5-0.6,0.7-1.5,0.7-2.6s-0.2-2-0.7-2.6s-1.1-0.9-1.8-0.9s-1.4,0.3-1.8,0.9s-0.7,1.5-0.7,2.6s0.2,2,0.7,2.6
	C528.9,126.1,529.5,126.4,530.3,126.4z"/>
<path id="Montserrat-SemiBold-31-3" class="st6" d="M581.8,96V77.1l1.7,1.7h-6v-3.2h8.1V96C585.5,96,581.8,96,581.8,96z"/>
<path id="Montserrat-SemiBold-34-2" class="st6" d="M589.3,91.3v-2.6l10-13.1h4l-9.9,13.1l-1.9-0.6h16.2v3.2H589.3L589.3,91.3z
	 M600.5,96v-4.6l0.1-3.2V84h3.5v12H600.5z"/>
<path id="Montserrat-SemiBold-25-7" class="st6" d="M612.2,96l13.9-20.4h2.8L615.1,96H612.2z M613.9,86.6c-1,0-1.8-0.2-2.5-0.7
	s-1.3-1.1-1.7-1.9s-0.6-1.8-0.6-2.9s0.2-2.1,0.6-2.9c0.4-0.8,1-1.5,1.7-1.9c0.7-0.5,1.6-0.7,2.5-0.7s1.8,0.2,2.6,0.7
	c0.7,0.5,1.3,1.1,1.7,1.9s0.6,1.8,0.6,2.9s-0.2,2.1-0.6,2.9c-0.4,0.8-1,1.5-1.7,1.9C615.7,86.3,614.9,86.6,613.9,86.6z M613.9,84.5
	c0.8,0,1.4-0.3,1.8-0.9s0.7-1.5,0.7-2.6s-0.2-2-0.7-2.6c-0.4-0.6-1-0.9-1.8-0.9s-1.4,0.3-1.8,0.9s-0.7,1.5-0.7,2.6s0.2,2,0.7,2.6
	S613.1,84.5,613.9,84.5z M627.3,96.2c-1,0-1.8-0.2-2.5-0.7s-1.3-1.1-1.7-1.9s-0.6-1.8-0.6-2.9s0.2-2.1,0.6-2.9
	c0.4-0.8,1-1.5,1.7-1.9c0.7-0.5,1.6-0.7,2.5-0.7s1.8,0.2,2.6,0.7c0.7,0.5,1.3,1.1,1.7,1.9s0.6,1.8,0.6,2.9s-0.2,2.1-0.6,2.9
	c-0.4,0.8-1,1.5-1.7,1.9C629.1,95.9,628.2,96.2,627.3,96.2z M627.3,94.1c0.8,0,1.4-0.3,1.8-0.9c0.5-0.6,0.7-1.5,0.7-2.6
	s-0.2-2-0.7-2.6s-1.1-1-1.8-1s-1.4,0.3-1.8,0.9s-0.7,1.5-0.7,2.6s0.2,2,0.7,2.6C625.9,93.8,626.5,94.1,627.3,94.1z"/>
<path id="Montserrat-SemiBold-31-4" class="st6" d="M675.2,74.4V55.5l1.7,1.7h-6V54h8.1v20.4H675.2z"/>
<path id="Montserrat-SemiBold-36" class="st6" d="M691.8,74.7c-1.8,0-3.4-0.4-4.8-1.2c-1.3-0.8-2.3-1.9-3-3.4s-1-3.3-1-5.5
	c0-2.3,0.4-4.3,1.3-5.9c0.8-1.6,2-2.8,3.5-3.7c1.5-0.8,3.2-1.2,5.2-1.2c1,0,2,0.1,3,0.3s1.7,0.5,2.4,1l-1.4,2.8
	c-0.6-0.4-1.2-0.6-1.8-0.8s-1.3-0.2-2-0.2c-1.9,0-3.5,0.6-4.6,1.8s-1.7,2.9-1.7,5.2c0,0.4,0,0.8,0,1.3s0.1,1,0.2,1.5l-1.2-1.3
	c0.3-0.8,0.8-1.5,1.4-2s1.3-0.9,2.2-1.2c0.8-0.3,1.8-0.4,2.8-0.4c1.3,0,2.5,0.3,3.6,0.8c1,0.5,1.9,1.2,2.5,2.2
	c0.6,0.9,0.9,2,0.9,3.3s-0.3,2.5-1,3.5s-1.5,1.8-2.7,2.3C694.5,74.5,693.2,74.7,691.8,74.7L691.8,74.7z M691.6,71.8
	c0.8,0,1.5-0.1,2.1-0.4s1.1-0.7,1.4-1.2c0.3-0.5,0.5-1.1,0.5-1.8c0-1.1-0.4-1.9-1.1-2.5c-0.7-0.6-1.7-0.9-3-0.9
	c-0.8,0-1.5,0.2-2.1,0.4c-0.6,0.3-1.1,0.7-1.5,1.2s-0.5,1.1-0.5,1.8c0,0.6,0.2,1.2,0.5,1.7s0.8,0.9,1.4,1.2S690.7,71.8,691.6,71.8
	L691.6,71.8z"/>
<path id="Montserrat-SemiBold-25-8" class="st6" d="M704.1,74.4L718,54.1h2.8l-13.9,20.4L704.1,74.4L704.1,74.4z M705.8,65
	c-1,0-1.8-0.2-2.5-0.7s-1.3-1.1-1.7-2c-0.4-0.8-0.6-1.8-0.6-2.9s0.2-2.1,0.6-2.9s1-1.5,1.7-2s1.6-0.7,2.5-0.7s1.8,0.2,2.6,0.7
	c0.7,0.5,1.3,1.1,1.7,2c0.4,0.8,0.6,1.8,0.6,2.9s-0.2,2.1-0.6,2.9c-0.4,0.8-1,1.5-1.7,2C707.6,64.8,706.8,65,705.8,65z M705.8,63
	c0.8,0,1.4-0.3,1.8-0.9s0.7-1.5,0.7-2.6s-0.2-2-0.7-2.6c-0.4-0.6-1-0.9-1.8-0.9s-1.4,0.3-1.8,0.9s-0.7,1.5-0.7,2.6s0.2,2,0.7,2.6
	S705,63,705.8,63z M719.1,74.6c-1,0-1.8-0.2-2.5-0.7s-1.3-1.1-1.7-1.9s-0.6-1.8-0.6-2.9s0.2-2.1,0.6-2.9c0.4-0.8,1-1.5,1.7-1.9
	c0.7-0.5,1.6-0.7,2.5-0.7s1.8,0.2,2.6,0.7c0.7,0.5,1.3,1.1,1.7,1.9s0.6,1.8,0.6,2.9s-0.2,2.1-0.6,2.9c-0.4,0.8-1,1.5-1.7,1.9
	C721,74.4,720.1,74.6,719.1,74.6z M719.1,72.6c0.8,0,1.4-0.3,1.8-0.9c0.5-0.6,0.7-1.5,0.7-2.6s-0.2-2-0.7-2.6s-1.1-0.9-1.8-0.9
	s-1.4,0.3-1.8,0.9s-0.7,1.5-0.7,2.6s0.2,2,0.7,2.6C717.8,72.3,718.4,72.6,719.1,72.6z"/>
<path id="Montserrat-SemiBold-32-2" class="st6" d="M765,20.7v-2.5l8.1-7.7c0.7-0.6,1.2-1.2,1.5-1.7s0.5-0.9,0.7-1.3
	c0.1-0.4,0.2-0.8,0.2-1.2c0-0.9-0.3-1.7-1-2.2c-0.6-0.5-1.6-0.8-2.8-0.8c-1,0-1.9,0.2-2.7,0.5s-1.5,0.9-2.1,1.6l-2.7-2
	c0.8-1.1,1.9-1.9,3.2-2.5s2.9-0.9,4.5-0.9c1.5,0,2.8,0.2,3.8,0.7c1.1,0.5,1.9,1.2,2.5,2s0.9,1.9,0.9,3.1c0,0.7-0.1,1.3-0.3,2
	c-0.2,0.6-0.5,1.3-1,2.1c-0.5,0.7-1.2,1.5-2.1,2.4l-7,6.6l-0.8-1.4H780v3.2L765,20.7L765,20.7z"/>
<path id="Montserrat-SemiBold-31-5" class="st6" d="M785.4,20.7V1.8l1.7,1.7h-6V0.3h8.1v20.4C789.2,20.7,785.4,20.7,785.4,20.7z"/>
<path id="Montserrat-SemiBold-25-9" class="st6" d="M796.1,20.7L810,0.3h2.8l-13.9,20.4L796.1,20.7L796.1,20.7z M797.8,11.3
	c-1,0-1.8-0.2-2.5-0.7s-1.3-1.1-1.7-1.9c-0.4-0.8-0.6-1.8-0.6-2.9s0.2-2.1,0.6-2.9s1-1.5,1.7-2s1.6-0.7,2.5-0.7s1.8,0.2,2.6,0.7
	c0.7,0.5,1.3,1.1,1.7,2c0.4,0.8,0.6,1.8,0.6,2.9s-0.2,2.1-0.6,2.9c-0.4,0.8-1,1.5-1.7,1.9C799.6,11,798.8,11.3,797.8,11.3z
	 M797.8,9.2c0.8,0,1.4-0.3,1.8-0.9s0.7-1.5,0.7-2.6s-0.2-2-0.7-2.6c-0.4-0.6-1-0.9-1.8-0.9S796.4,2.4,796,3s-0.7,1.5-0.7,2.6
	s0.2,2,0.7,2.6S797,9.2,797.8,9.2z M811.1,20.9c-1,0-1.8-0.2-2.5-0.7s-1.3-1.1-1.7-2c-0.4-0.8-0.6-1.8-0.6-2.9s0.2-2.1,0.6-2.9
	s1-1.5,1.7-1.9c0.7-0.5,1.6-0.7,2.5-0.7s1.8,0.2,2.6,0.7c0.7,0.5,1.3,1.1,1.7,1.9c0.4,0.8,0.6,1.8,0.6,2.9s-0.2,2.1-0.6,2.9
	c-0.4,0.8-1,1.5-1.7,2C813,20.6,812.1,20.9,811.1,20.9z M811.1,18.8c0.8,0,1.4-0.3,1.8-0.9c0.5-0.6,0.7-1.5,0.7-2.6s-0.2-2-0.7-2.6
	s-1.1-0.9-1.8-0.9s-1.4,0.3-1.8,0.9s-0.7,1.5-0.7,2.6s0.2,2,0.7,2.6S810.4,18.8,811.1,18.8z"/>
<path id="Montserrat-SemiBold-31-6" class="st6" d="M860.5,42.2V23.3l1.7,1.7h-6v-3.2h8.1v20.4C864.3,42.2,860.5,42.2,860.5,42.2z"
	/>
<path id="Montserrat-SemiBold-39" class="st6" d="M875.2,21.5c1.9,0,3.5,0.4,4.8,1.2s2.3,1.9,3,3.4s1,3.3,1,5.5
	c0,2.3-0.4,4.3-1.3,5.9c-0.8,1.6-2,2.8-3.5,3.7c-1.5,0.8-3.2,1.2-5.2,1.2c-1,0-2-0.1-2.9-0.3s-1.7-0.5-2.4-1l1.4-2.8
	c0.6,0.4,1.2,0.6,1.8,0.8c0.7,0.2,1.3,0.2,2,0.2c1.9,0,3.4-0.6,4.6-1.8s1.7-2.9,1.7-5.2c0-0.4,0-0.8,0-1.3s-0.1-1-0.2-1.5l1.2,1.3
	c-0.3,0.8-0.8,1.5-1.4,2c-0.6,0.5-1.3,0.9-2.2,1.2s-1.8,0.4-2.8,0.4c-1.3,0-2.5-0.3-3.6-0.8s-1.9-1.2-2.5-2.2
	c-0.6-0.9-0.9-2-0.9-3.3c0-1.4,0.3-2.5,1-3.5s1.6-1.7,2.7-2.3C872.6,21.8,873.8,21.5,875.2,21.5L875.2,21.5z M875.4,24.5
	c-0.8,0-1.5,0.1-2.1,0.4s-1.1,0.7-1.4,1.2c-0.3,0.5-0.5,1.1-0.5,1.9c0,1.1,0.4,1.9,1.1,2.5s1.7,0.9,3,0.9c0.8,0,1.5-0.1,2.2-0.5
	c0.6-0.3,1.1-0.7,1.5-1.2c0.3-0.5,0.5-1.1,0.5-1.8s-0.2-1.2-0.5-1.7s-0.8-0.9-1.4-1.2S876.3,24.5,875.4,24.5L875.4,24.5z"/>
<path id="Montserrat-SemiBold-25-10" class="st6" d="M889.4,42.2l13.9-20.4h2.8l-13.9,20.4H889.4z M891.1,32.8c-1,0-1.8-0.2-2.5-0.7
	s-1.3-1.1-1.7-2c-0.4-0.8-0.6-1.8-0.6-2.9s0.2-2.1,0.6-2.9s1-1.5,1.7-2s1.6-0.7,2.5-0.7s1.8,0.2,2.6,0.7c0.7,0.5,1.3,1.1,1.7,2
	c0.4,0.8,0.6,1.8,0.6,2.9s-0.2,2.1-0.6,2.9c-0.4,0.8-1,1.5-1.7,2C892.9,32.5,892.1,32.8,891.1,32.8z M891.1,30.7
	c0.8,0,1.4-0.3,1.8-0.9s0.7-1.5,0.7-2.6s-0.2-2-0.7-2.6c-0.4-0.6-1-0.9-1.8-0.9s-1.4,0.3-1.8,0.9s-0.7,1.5-0.7,2.6s0.2,2,0.7,2.6
	S890.3,30.7,891.1,30.7z M904.5,42.4c-1,0-1.8-0.2-2.5-0.7s-1.3-1.1-1.7-2c-0.4-0.8-0.6-1.8-0.6-2.9s0.2-2.1,0.6-2.9s1-1.5,1.7-2
	s1.6-0.7,2.5-0.7s1.8,0.2,2.6,0.7c0.7,0.5,1.3,1.1,1.7,2c0.4,0.8,0.6,1.8,0.6,2.9s-0.2,2.1-0.6,2.9c-0.4,0.8-1,1.5-1.7,2
	C906.3,42.1,905.4,42.4,904.5,42.4z M904.5,40.3c0.8,0,1.4-0.3,1.8-0.9c0.5-0.6,0.7-1.5,0.7-2.6s-0.2-2-0.7-2.6s-1.1-0.9-1.8-0.9
	s-1.4,0.3-1.8,0.9c-0.5,0.6-0.7,1.5-0.7,2.6s0.2,2,0.7,2.6C903.1,40,903.7,40.3,904.5,40.3z"/>
<path id="Montserrat-SemiBold-31-7" class="st6" d="M966.3,235.8v-18.9l1.7,1.7h-6v-3.2h8.1v20.4H966.3z"/>
<path id="Montserrat-SemiBold-25-11" class="st6" d="M976.9,235.8l13.9-20.4h2.8l-13.9,20.4H976.9z M978.6,226.4
	c-1,0-1.8-0.2-2.5-0.7s-1.3-1.1-1.7-1.9c-0.4-0.8-0.6-1.8-0.6-2.9s0.2-2.1,0.6-2.9s1-1.5,1.7-1.9c0.7-0.5,1.6-0.7,2.5-0.7
	s1.8,0.2,2.6,0.7c0.7,0.5,1.3,1.1,1.7,1.9c0.4,0.8,0.6,1.8,0.6,2.9s-0.2,2.1-0.6,2.9c-0.4,0.8-1,1.5-1.7,1.9
	C980.5,226.2,979.6,226.4,978.6,226.4z M978.7,224.4c0.8,0,1.4-0.3,1.8-0.9s0.7-1.5,0.7-2.6s-0.2-2-0.7-2.6c-0.4-0.6-1-0.9-1.8-0.9
	s-1.4,0.3-1.8,0.9s-0.7,1.5-0.7,2.6s0.2,2,0.7,2.6S977.9,224.4,978.7,224.4L978.7,224.4z M992,236c-1,0-1.8-0.2-2.5-0.7
	s-1.3-1.1-1.7-1.9c-0.4-0.8-0.6-1.8-0.6-2.9s0.2-2.1,0.6-2.9s1-1.5,1.7-1.9c0.7-0.5,1.6-0.7,2.5-0.7s1.8,0.2,2.6,0.7
	c0.7,0.5,1.3,1.1,1.7,1.9c0.4,0.8,0.6,1.8,0.6,2.9s-0.2,2.1-0.6,2.9c-0.4,0.8-1,1.5-1.7,1.9C993.8,235.8,993,236,992,236z M992,234
	c0.8,0,1.4-0.3,1.8-0.9c0.5-0.6,0.7-1.5,0.7-2.6s-0.2-2-0.7-2.6s-1.1-0.9-1.8-0.9s-1.4,0.3-1.8,0.9s-0.7,1.5-0.7,2.6s0.2,2,0.7,2.6
	C990.6,233.7,991.2,234,992,234L992,234z"/>
<path class="st7" d="M607.7,282.4h5.4v2h-5.4V282.4z M607.9,287h6.1v2.1h-8.7v-11.2h8.5v2.1h-5.9L607.9,287L607.9,287z"/>
<path class="st7" d="M696.7,289.1v-11.2h5.1c1.2,0,2.3,0.2,3.2,0.7s1.7,1.1,2.2,1.9s0.8,1.8,0.8,3s-0.3,2.1-0.8,3
	c-0.5,0.8-1.2,1.5-2.2,2c-0.9,0.5-2,0.7-3.2,0.7h-5.1V289.1z M699.3,287h2.4c0.8,0,1.4-0.1,1.9-0.4s1-0.7,1.3-1.2s0.5-1.1,0.5-1.8
	s-0.2-1.3-0.5-1.8s-0.7-0.9-1.3-1.2c-0.5-0.3-1.2-0.4-1.9-0.4h-2.4V287L699.3,287z"/>
<path class="st7" d="M795.7,289.3c-0.9,0-1.7-0.1-2.4-0.4s-1.4-0.7-1.9-1.2s-1-1.1-1.3-1.8c-0.3-0.7-0.5-1.5-0.5-2.3
	s0.2-1.6,0.5-2.3c0.3-0.7,0.7-1.3,1.3-1.8c0.5-0.5,1.2-0.9,1.9-1.2c0.7-0.3,1.5-0.4,2.4-0.4c1,0,1.8,0.2,2.6,0.5s1.5,0.8,2,1.5
	l-1.7,1.5c-0.4-0.4-0.8-0.8-1.3-1s-1-0.3-1.5-0.3s-1,0.1-1.4,0.3c-0.4,0.2-0.8,0.4-1.1,0.7c-0.3,0.3-0.6,0.7-0.8,1.1
	s-0.3,0.9-0.3,1.5s0.1,1,0.3,1.5s0.4,0.8,0.8,1.1s0.7,0.6,1.1,0.7c0.4,0.2,0.9,0.3,1.4,0.3s1.1-0.1,1.5-0.3c0.5-0.2,0.9-0.6,1.3-1
	l1.7,1.5c-0.5,0.6-1.2,1.1-2,1.5C797.6,289.1,796.7,289.3,795.7,289.3L795.7,289.3z"/>
<path class="st7" d="M882.5,289.1v-11.2h5.5c1.4,0,2.5,0.3,3.2,0.8s1.1,1.2,1.1,2.1c0,0.6-0.1,1.1-0.4,1.5c-0.3,0.4-0.7,0.8-1.2,1
	s-1.1,0.4-1.7,0.4l0.3-0.7c0.7,0,1.3,0.1,1.9,0.4c0.5,0.2,1,0.6,1.3,1c0.3,0.5,0.5,1,0.5,1.6c0,1-0.4,1.7-1.1,2.3
	c-0.8,0.5-1.9,0.8-3.3,0.8L882.5,289.1L882.5,289.1z M885.1,287.1h3c0.7,0,1.2-0.1,1.5-0.3c0.3-0.2,0.5-0.6,0.5-1.1s-0.2-0.8-0.5-1
	s-0.8-0.4-1.5-0.4h-3.2v-1.9h2.8c0.6,0,1.1-0.1,1.4-0.3c0.3-0.2,0.5-0.6,0.5-1s-0.2-0.8-0.5-1s-0.8-0.3-1.4-0.3h-2.6V287.1
	L885.1,287.1z"/>
<path class="st7" d="M974.1,289.1l5-11.2h2.6l5,11.2H984l-4.1-9.9h1l-4.1,9.9H974.1L974.1,289.1z M976.6,286.7l0.7-2h5.8l0.7,2
	H976.6L976.6,286.7z"/>
<path class="st7" d="M283.6,282.9h5.4v2.1h-5.4V282.9z M283.8,289.1h-2.6v-11.2h8.5v2.1h-5.9V289.1L283.8,289.1z"/>
<g>
	<path d="M920.7,314.8v-7.7l0.8,0.8H919v-1.6h3.6v8.4h-1.9V314.8z"/>
	<path d="M927.7,315c-0.7,0-1.3-0.2-1.8-0.5s-1-0.8-1.3-1.5c-0.3-0.6-0.5-1.4-0.5-2.4c0-0.9,0.2-1.7,0.5-2.4
		c0.3-0.6,0.7-1.1,1.3-1.5s1.2-0.5,1.8-0.5c0.7,0,1.3,0.2,1.9,0.5s1,0.8,1.3,1.5c0.3,0.6,0.5,1.4,0.5,2.4c0,0.9-0.2,1.7-0.5,2.4
		c-0.3,0.6-0.7,1.1-1.3,1.5C929,314.8,928.4,315,927.7,315z M927.7,313.3c0.3,0,0.6-0.1,0.9-0.3c0.2-0.2,0.4-0.5,0.6-0.9
		c0.1-0.4,0.2-0.9,0.2-1.5s-0.1-1.1-0.2-1.5c-0.1-0.4-0.3-0.7-0.6-0.9c-0.2-0.2-0.5-0.3-0.9-0.3c-0.3,0-0.6,0.1-0.8,0.3
		c-0.2,0.2-0.4,0.5-0.6,0.9c-0.1,0.4-0.2,0.9-0.2,1.5s0.1,1.1,0.2,1.5c0.1,0.4,0.3,0.7,0.6,0.9C927.1,313.2,927.4,313.3,927.7,313.3
		z"/>
	<path d="M935.9,315c-0.7,0-1.3-0.2-1.8-0.5s-1-0.8-1.3-1.5c-0.3-0.6-0.5-1.4-0.5-2.4c0-0.9,0.2-1.7,0.5-2.4
		c0.3-0.6,0.7-1.1,1.3-1.5s1.2-0.5,1.8-0.5c0.7,0,1.3,0.2,1.9,0.5s1,0.8,1.3,1.5c0.3,0.6,0.5,1.4,0.5,2.4c0,0.9-0.2,1.7-0.5,2.4
		c-0.3,0.6-0.7,1.1-1.3,1.5C937.2,314.8,936.6,315,935.9,315z M935.9,313.3c0.3,0,0.6-0.1,0.9-0.3c0.2-0.2,0.4-0.5,0.6-0.9
		c0.1-0.4,0.2-0.9,0.2-1.5s-0.1-1.1-0.2-1.5c-0.1-0.4-0.3-0.7-0.6-0.9c-0.2-0.2-0.5-0.3-0.9-0.3c-0.3,0-0.6,0.1-0.8,0.3
		c-0.2,0.2-0.4,0.5-0.6,0.9c-0.1,0.4-0.2,0.9-0.2,1.5s0.1,1.1,0.2,1.5c0.1,0.4,0.3,0.7,0.6,0.9C935.3,313.2,935.5,313.3,935.9,313.3
		z"/>
</g>
<g>
	<path d="M825.5,314.8v-1.3l3.2-3.1c0.3-0.2,0.4-0.4,0.6-0.6c0.1-0.2,0.2-0.3,0.2-0.5s0.1-0.3,0.1-0.4c0-0.3-0.1-0.6-0.3-0.8
		c-0.2-0.2-0.6-0.3-1-0.3s-0.7,0.1-1,0.2s-0.5,0.4-0.8,0.6l-1.4-0.9c0.3-0.5,0.8-0.9,1.3-1.1c0.6-0.3,1.2-0.4,2-0.4
		c0.6,0,1.2,0.1,1.6,0.3c0.5,0.2,0.8,0.5,1.1,0.9s0.4,0.8,0.4,1.3c0,0.3,0,0.5-0.1,0.8s-0.2,0.6-0.4,0.9s-0.5,0.6-0.9,1l-2.7,2.5
		l-0.4-0.7h4.8v1.6H825.5z"/>
	<path d="M836.3,315c-0.7,0-1.3-0.2-1.8-0.5s-1-0.8-1.3-1.5c-0.3-0.6-0.5-1.4-0.5-2.4c0-0.9,0.2-1.7,0.5-2.4
		c0.3-0.6,0.7-1.1,1.3-1.5s1.2-0.5,1.8-0.5c0.7,0,1.3,0.2,1.9,0.5s1,0.8,1.3,1.5c0.3,0.6,0.5,1.4,0.5,2.4c0,0.9-0.2,1.7-0.5,2.4
		c-0.3,0.6-0.7,1.1-1.3,1.5C837.6,314.8,836.9,315,836.3,315z M836.3,313.3c0.3,0,0.6-0.1,0.9-0.3c0.2-0.2,0.4-0.5,0.6-0.9
		c0.1-0.4,0.2-0.9,0.2-1.5s-0.1-1.1-0.2-1.5c-0.1-0.4-0.3-0.7-0.6-0.9c-0.2-0.2-0.5-0.3-0.9-0.3c-0.3,0-0.6,0.1-0.8,0.3
		c-0.2,0.2-0.4,0.5-0.6,0.9c-0.1,0.4-0.2,0.9-0.2,1.5s0.1,1.1,0.2,1.5c0.1,0.4,0.3,0.7,0.6,0.9C835.7,313.2,835.9,313.3,836.3,313.3
		z"/>
	<path d="M844.4,315c-0.7,0-1.3-0.2-1.8-0.5s-1-0.8-1.3-1.5c-0.3-0.6-0.5-1.4-0.5-2.4c0-0.9,0.2-1.7,0.5-2.4
		c0.3-0.6,0.7-1.1,1.3-1.5s1.2-0.5,1.8-0.5c0.7,0,1.3,0.2,1.9,0.5s1,0.8,1.3,1.5c0.3,0.6,0.5,1.4,0.5,2.4c0,0.9-0.2,1.7-0.5,2.4
		c-0.3,0.6-0.7,1.1-1.3,1.5C845.7,314.8,845.1,315,844.4,315z M844.4,313.3c0.3,0,0.6-0.1,0.9-0.3c0.2-0.2,0.4-0.5,0.6-0.9
		c0.1-0.4,0.2-0.9,0.2-1.5s-0.1-1.1-0.2-1.5c-0.1-0.4-0.3-0.7-0.6-0.9c-0.2-0.2-0.5-0.3-0.9-0.3c-0.3,0-0.6,0.1-0.8,0.3
		c-0.2,0.2-0.4,0.5-0.6,0.9c-0.1,0.4-0.2,0.9-0.2,1.5s0.1,1.1,0.2,1.5c0.1,0.4,0.3,0.7,0.6,0.9C843.8,313.2,844.1,313.3,844.4,313.3
		z"/>
</g>
<g>
	<path d="M735.6,315c-0.6,0-1.2-0.1-1.7-0.2c-0.6-0.2-1.1-0.4-1.5-0.7l0.8-1.5c0.3,0.2,0.7,0.4,1.1,0.6c0.4,0.1,0.9,0.2,1.3,0.2
		c0.5,0,0.9-0.1,1.2-0.3c0.3-0.2,0.4-0.5,0.4-0.8s-0.1-0.6-0.4-0.8c-0.2-0.2-0.6-0.3-1.2-0.3h-0.9V310l2.3-2.7l0.2,0.7h-4.4v-1.6
		h5.9v1.3l-2.3,2.7l-1-0.6h0.6c1,0,1.8,0.2,2.3,0.7s0.8,1.1,0.8,1.8c0,0.5-0.1,0.9-0.4,1.3s-0.6,0.8-1.1,1
		C737.1,314.8,736.4,315,735.6,315z"/>
	<path d="M743.6,315c-0.7,0-1.3-0.2-1.8-0.5s-1-0.8-1.3-1.5c-0.3-0.6-0.5-1.4-0.5-2.4c0-0.9,0.2-1.7,0.5-2.4
		c0.3-0.6,0.7-1.1,1.3-1.5s1.2-0.5,1.8-0.5c0.7,0,1.3,0.2,1.9,0.5s1,0.8,1.3,1.5c0.3,0.6,0.5,1.4,0.5,2.4c0,0.9-0.2,1.7-0.5,2.4
		c-0.3,0.6-0.7,1.1-1.3,1.5C744.9,314.8,744.3,315,743.6,315z M743.6,313.3c0.3,0,0.6-0.1,0.9-0.3c0.2-0.2,0.4-0.5,0.6-0.9
		c0.1-0.4,0.2-0.9,0.2-1.5s-0.1-1.1-0.2-1.5c-0.1-0.4-0.3-0.7-0.6-0.9c-0.2-0.2-0.5-0.3-0.9-0.3c-0.3,0-0.6,0.1-0.8,0.3
		c-0.2,0.2-0.4,0.5-0.6,0.9c-0.1,0.4-0.2,0.9-0.2,1.5s0.1,1.1,0.2,1.5c0.1,0.4,0.3,0.7,0.6,0.9C743,313.2,743.3,313.3,743.6,313.3z"
		/>
	<path d="M751.8,315c-0.7,0-1.3-0.2-1.8-0.5s-1-0.8-1.3-1.5c-0.3-0.6-0.5-1.4-0.5-2.4c0-0.9,0.2-1.7,0.5-2.4
		c0.3-0.6,0.7-1.1,1.3-1.5s1.2-0.5,1.8-0.5c0.7,0,1.3,0.2,1.9,0.5s1,0.8,1.3,1.5c0.3,0.6,0.5,1.4,0.5,2.4c0,0.9-0.2,1.7-0.5,2.4
		c-0.3,0.6-0.7,1.1-1.3,1.5C753.1,314.8,752.5,315,751.8,315z M751.8,313.3c0.3,0,0.6-0.1,0.9-0.3c0.2-0.2,0.4-0.5,0.6-0.9
		c0.1-0.4,0.2-0.9,0.2-1.5s-0.1-1.1-0.2-1.5c-0.1-0.4-0.3-0.7-0.6-0.9c-0.2-0.2-0.5-0.3-0.9-0.3c-0.3,0-0.6,0.1-0.8,0.3
		c-0.2,0.2-0.4,0.5-0.6,0.9c-0.1,0.4-0.2,0.9-0.2,1.5s0.1,1.1,0.2,1.5c0.1,0.4,0.3,0.7,0.6,0.9C751.2,313.2,751.4,313.3,751.8,313.3
		z"/>
</g>
<g>
	<path d="M639.6,313.1v-1.3l4-5.3h2l-3.9,5.3l-1-0.3h6.6v1.6L639.6,313.1L639.6,313.1z M644.1,314.8V313l0.1-1.6v-1.6h1.8v4.9h-1.9
		V314.8z"/>
	<path d="M651.5,315c-0.7,0-1.3-0.2-1.8-0.5s-1-0.8-1.3-1.5c-0.3-0.6-0.5-1.4-0.5-2.4c0-0.9,0.2-1.7,0.5-2.4
		c0.3-0.6,0.7-1.1,1.3-1.5s1.2-0.5,1.8-0.5c0.7,0,1.3,0.2,1.9,0.5s1,0.8,1.3,1.5c0.3,0.6,0.5,1.4,0.5,2.4c0,0.9-0.2,1.7-0.5,2.4
		c-0.3,0.6-0.7,1.1-1.3,1.5C652.9,314.8,652.2,315,651.5,315z M651.5,313.3c0.3,0,0.6-0.1,0.9-0.3c0.2-0.2,0.4-0.5,0.6-0.9
		c0.1-0.4,0.2-0.9,0.2-1.5s-0.1-1.1-0.2-1.5c-0.1-0.4-0.3-0.7-0.6-0.9c-0.2-0.2-0.5-0.3-0.9-0.3c-0.3,0-0.6,0.1-0.8,0.3
		c-0.2,0.2-0.4,0.5-0.6,0.9c-0.1,0.4-0.2,0.9-0.2,1.5s0.1,1.1,0.2,1.5c0.1,0.4,0.3,0.7,0.6,0.9C651,313.2,651.2,313.3,651.5,313.3z"
		/>
	<path d="M659.7,315c-0.7,0-1.3-0.2-1.8-0.5s-1-0.8-1.3-1.5c-0.3-0.6-0.5-1.4-0.5-2.4c0-0.9,0.2-1.7,0.5-2.4
		c0.3-0.6,0.7-1.1,1.3-1.5s1.2-0.5,1.8-0.5c0.7,0,1.3,0.2,1.9,0.5s1,0.8,1.3,1.5c0.3,0.6,0.5,1.4,0.5,2.4c0,0.9-0.2,1.7-0.5,2.4
		c-0.3,0.6-0.7,1.1-1.3,1.5C661,314.8,660.4,315,659.7,315z M659.7,313.3c0.3,0,0.6-0.1,0.9-0.3c0.2-0.2,0.4-0.5,0.6-0.9
		c0.1-0.4,0.2-0.9,0.2-1.5s-0.1-1.1-0.2-1.5c-0.1-0.4-0.3-0.7-0.6-0.9c-0.2-0.2-0.5-0.3-0.9-0.3c-0.3,0-0.6,0.1-0.8,0.3
		c-0.2,0.2-0.4,0.5-0.6,0.9c-0.1,0.4-0.2,0.9-0.2,1.5s0.1,1.1,0.2,1.5c0.1,0.4,0.3,0.7,0.6,0.9C659.1,313.2,659.4,313.3,659.7,313.3
		z"/>
</g>
<g>
	<path d="M550.4,315c-0.6,0-1.2-0.1-1.7-0.2s-1.1-0.4-1.5-0.7l0.8-1.5c0.3,0.2,0.7,0.4,1.1,0.6c0.4,0.1,0.8,0.2,1.3,0.2
		s0.9-0.1,1.2-0.3c0.3-0.2,0.4-0.5,0.4-0.8c0-0.2-0.1-0.4-0.2-0.6c-0.1-0.2-0.3-0.3-0.6-0.4s-0.7-0.1-1.2-0.1h-2.1l0.4-4.7h5.1v1.6
		H549l1-0.9l-0.3,3.4l-1-0.9h1.8c0.8,0,1.5,0.1,2,0.3c0.5,0.2,0.9,0.5,1.1,0.9c0.2,0.4,0.4,0.8,0.4,1.3s-0.1,0.9-0.4,1.4
		c-0.2,0.4-0.6,0.8-1.1,1C551.9,314.8,551.2,315,550.4,315z"/>
	<path d="M558.3,315c-0.7,0-1.3-0.2-1.8-0.5s-1-0.8-1.3-1.5c-0.3-0.6-0.5-1.4-0.5-2.4c0-0.9,0.2-1.7,0.5-2.4
		c0.3-0.6,0.7-1.1,1.3-1.5s1.2-0.5,1.8-0.5c0.7,0,1.3,0.2,1.9,0.5s1,0.8,1.3,1.5c0.3,0.6,0.5,1.4,0.5,2.4c0,0.9-0.2,1.7-0.5,2.4
		c-0.3,0.6-0.7,1.1-1.3,1.5C559.6,314.8,559,315,558.3,315z M558.3,313.3c0.3,0,0.6-0.1,0.9-0.3c0.2-0.2,0.4-0.5,0.6-0.9
		c0.1-0.4,0.2-0.9,0.2-1.5s-0.1-1.1-0.2-1.5c-0.1-0.4-0.3-0.7-0.6-0.9c-0.2-0.2-0.5-0.3-0.9-0.3c-0.3,0-0.6,0.1-0.8,0.3
		c-0.2,0.2-0.4,0.5-0.6,0.9c-0.1,0.4-0.2,0.9-0.2,1.5s0.1,1.1,0.2,1.5c0.1,0.4,0.3,0.7,0.6,0.9C557.7,313.2,558,313.3,558.3,313.3z"
		/>
	<path d="M566.5,315c-0.7,0-1.3-0.2-1.8-0.5s-1-0.8-1.3-1.5c-0.3-0.6-0.5-1.4-0.5-2.4c0-0.9,0.2-1.7,0.5-2.4
		c0.3-0.6,0.7-1.1,1.3-1.5c0.5-0.3,1.2-0.5,1.8-0.5c0.7,0,1.3,0.2,1.9,0.5s1,0.8,1.3,1.5c0.3,0.6,0.5,1.4,0.5,2.4
		c0,0.9-0.2,1.7-0.5,2.4c-0.3,0.6-0.7,1.1-1.3,1.5C567.8,314.8,567.2,315,566.5,315z M566.5,313.3c0.3,0,0.6-0.1,0.9-0.3
		c0.2-0.2,0.4-0.5,0.6-0.9c0.1-0.4,0.2-0.9,0.2-1.5s-0.1-1.1-0.2-1.5c-0.1-0.4-0.3-0.7-0.6-0.9c-0.2-0.2-0.5-0.3-0.9-0.3
		c-0.3,0-0.6,0.1-0.8,0.3c-0.2,0.2-0.4,0.5-0.6,0.9c-0.1,0.4-0.2,0.9-0.2,1.5s0.1,1.1,0.2,1.5c0.1,0.4,0.3,0.7,0.6,0.9
		C565.9,313.2,566.2,313.3,566.5,313.3z"/>
</g>
<g>
	<path d="M458.4,315c-0.8,0-1.4-0.2-2-0.5s-1-0.8-1.3-1.4s-0.5-1.4-0.5-2.3c0-1,0.2-1.8,0.5-2.5c0.4-0.7,0.9-1.2,1.5-1.5
		c0.6-0.4,1.4-0.5,2.2-0.5c0.4,0,0.9,0,1.3,0.2c0.4,0.1,0.8,0.2,1.1,0.4l-0.7,1.4c-0.2-0.2-0.5-0.3-0.7-0.3
		c-0.3-0.1-0.5-0.1-0.8-0.1c-0.7,0-1.3,0.2-1.7,0.7c-0.4,0.4-0.6,1.1-0.6,2c0,0.1,0,0.3,0,0.5s0,0.4,0.1,0.5l-0.5-0.5
		c0.2-0.3,0.3-0.6,0.6-0.8c0.2-0.2,0.5-0.4,0.9-0.5c0.3-0.1,0.7-0.2,1.1-0.2c0.5,0,1,0.1,1.5,0.3c0.4,0.2,0.8,0.5,1,0.9
		c0.3,0.4,0.4,0.9,0.4,1.4c0,0.6-0.1,1.1-0.4,1.5s-0.7,0.7-1.1,1C459.6,314.9,459,315,458.4,315z M458.3,313.5c0.3,0,0.5,0,0.7-0.2
		c0.2-0.1,0.4-0.2,0.5-0.4c0.1-0.2,0.2-0.4,0.2-0.7c0-0.4-0.1-0.7-0.4-0.9c-0.3-0.2-0.6-0.3-1-0.3c-0.3,0-0.5,0.1-0.8,0.2
		c-0.2,0.1-0.4,0.3-0.5,0.5s-0.2,0.4-0.2,0.7c0,0.2,0.1,0.4,0.2,0.6s0.3,0.3,0.5,0.4C457.8,313.5,458,313.5,458.3,313.5z"/>
	<path d="M465.9,315c-0.7,0-1.3-0.2-1.8-0.5s-1-0.8-1.3-1.5c-0.3-0.6-0.5-1.4-0.5-2.4c0-0.9,0.2-1.7,0.5-2.4
		c0.3-0.6,0.7-1.1,1.3-1.5s1.2-0.5,1.8-0.5c0.7,0,1.3,0.2,1.9,0.5s1,0.8,1.3,1.5c0.3,0.6,0.5,1.4,0.5,2.4c0,0.9-0.2,1.7-0.5,2.4
		c-0.3,0.6-0.7,1.1-1.3,1.5C467.2,314.8,466.6,315,465.9,315z M465.9,313.3c0.3,0,0.6-0.1,0.9-0.3c0.2-0.2,0.4-0.5,0.6-0.9
		c0.1-0.4,0.2-0.9,0.2-1.5s-0.1-1.1-0.2-1.5s-0.3-0.7-0.6-0.9c-0.2-0.2-0.5-0.3-0.9-0.3c-0.3,0-0.6,0.1-0.8,0.3
		c-0.2,0.2-0.4,0.5-0.6,0.9c-0.1,0.4-0.2,0.9-0.2,1.5s0.1,1.1,0.2,1.5s0.3,0.7,0.6,0.9C465.3,313.2,465.6,313.3,465.9,313.3z"/>
	<path d="M474.1,315c-0.7,0-1.3-0.2-1.8-0.5s-1-0.8-1.3-1.5c-0.3-0.6-0.5-1.4-0.5-2.4c0-0.9,0.2-1.7,0.5-2.4
		c0.3-0.6,0.7-1.1,1.3-1.5s1.2-0.5,1.8-0.5c0.7,0,1.3,0.2,1.9,0.5s1,0.8,1.3,1.5c0.3,0.6,0.5,1.4,0.5,2.4c0,0.9-0.2,1.7-0.5,2.4
		c-0.3,0.6-0.7,1.1-1.3,1.5C475.4,314.8,474.8,315,474.1,315z M474.1,313.3c0.3,0,0.6-0.1,0.9-0.3c0.2-0.2,0.4-0.5,0.6-0.9
		c0.1-0.4,0.2-0.9,0.2-1.5s-0.1-1.1-0.2-1.5s-0.3-0.7-0.6-0.9c-0.2-0.2-0.5-0.3-0.9-0.3c-0.3,0-0.6,0.1-0.8,0.3
		c-0.2,0.2-0.4,0.5-0.6,0.9c-0.1,0.4-0.2,0.9-0.2,1.5s0.1,1.1,0.2,1.5s0.3,0.7,0.6,0.9C473.5,313.2,473.8,313.3,474.1,313.3z"/>
</g>
<g>
	<path d="M363.6,314.8l3.4-7.7l0.5,0.8H363l0.8-0.9v2.3h-1.7v-3h6.7v1.3l-3.1,7.1h-2.1V314.8z"/>
	<path d="M373.1,315c-0.7,0-1.3-0.2-1.8-0.5s-1-0.8-1.3-1.5c-0.3-0.6-0.5-1.4-0.5-2.4c0-0.9,0.2-1.7,0.5-2.4
		c0.3-0.6,0.7-1.1,1.3-1.5s1.2-0.5,1.8-0.5c0.7,0,1.3,0.2,1.9,0.5s1,0.8,1.3,1.5c0.3,0.6,0.5,1.4,0.5,2.4c0,0.9-0.2,1.7-0.5,2.4
		c-0.3,0.6-0.7,1.1-1.3,1.5C374.4,314.8,373.8,315,373.1,315z M373.1,313.3c0.3,0,0.6-0.1,0.9-0.3c0.2-0.2,0.4-0.5,0.6-0.9
		c0.1-0.4,0.2-0.9,0.2-1.5s-0.1-1.1-0.2-1.5s-0.3-0.7-0.6-0.9c-0.2-0.2-0.5-0.3-0.9-0.3c-0.3,0-0.6,0.1-0.8,0.3
		c-0.2,0.2-0.4,0.5-0.6,0.9c-0.1,0.4-0.2,0.9-0.2,1.5s0.1,1.1,0.2,1.5s0.3,0.7,0.6,0.9C372.5,313.2,372.7,313.3,373.1,313.3z"/>
	<path d="M381.2,315c-0.7,0-1.3-0.2-1.8-0.5s-1-0.8-1.3-1.5c-0.3-0.6-0.5-1.4-0.5-2.4c0-0.9,0.2-1.7,0.5-2.4
		c0.3-0.6,0.7-1.1,1.3-1.5s1.2-0.5,1.8-0.5c0.7,0,1.3,0.2,1.9,0.5s1,0.8,1.3,1.5c0.3,0.6,0.5,1.4,0.5,2.4c0,0.9-0.2,1.7-0.5,2.4
		c-0.3,0.6-0.7,1.1-1.3,1.5C382.5,314.8,381.9,315,381.2,315z M381.2,313.3c0.3,0,0.6-0.1,0.9-0.3c0.2-0.2,0.4-0.5,0.6-0.9
		c0.1-0.4,0.2-0.9,0.2-1.5s-0.1-1.1-0.2-1.5s-0.3-0.7-0.6-0.9c-0.2-0.2-0.5-0.3-0.9-0.3c-0.3,0-0.6,0.1-0.8,0.3
		c-0.2,0.2-0.4,0.5-0.6,0.9c-0.1,0.4-0.2,0.9-0.2,1.5s0.1,1.1,0.2,1.5s0.3,0.7,0.6,0.9C380.6,313.2,380.9,313.3,381.2,313.3z"/>
</g>
<g>
	<path d="M272.7,315c-0.7,0-1.3-0.1-1.9-0.3c-0.5-0.2-0.9-0.5-1.2-0.9c-0.3-0.4-0.4-0.8-0.4-1.4c0-0.5,0.1-1,0.4-1.3
		c0.3-0.4,0.7-0.6,1.2-0.8s1.2-0.3,1.9-0.3c0.7,0,1.3,0.1,1.9,0.3c0.5,0.2,0.9,0.5,1.2,0.8s0.4,0.8,0.4,1.3s-0.1,1-0.4,1.4
		s-0.7,0.7-1.2,0.9S273.4,315,272.7,315z M272.7,310.9c-0.6,0-1.2-0.1-1.7-0.3c-0.5-0.2-0.9-0.4-1.1-0.8c-0.3-0.3-0.4-0.8-0.4-1.2
		c0-0.5,0.1-0.9,0.4-1.3s0.7-0.6,1.1-0.8c0.5-0.2,1-0.3,1.7-0.3c0.6,0,1.2,0.1,1.7,0.3c0.5,0.2,0.9,0.5,1.1,0.8
		c0.3,0.4,0.4,0.8,0.4,1.3s-0.1,0.9-0.4,1.2s-0.6,0.6-1.1,0.8C274,310.9,273.4,310.9,272.7,310.9z M272.7,313.5
		c0.5,0,0.9-0.1,1.2-0.3c0.3-0.2,0.4-0.5,0.4-0.9s-0.1-0.6-0.4-0.9c-0.3-0.2-0.7-0.3-1.2-0.3s-0.9,0.1-1.1,0.3s-0.4,0.5-0.4,0.9
		s0.1,0.7,0.4,0.9S272.3,313.5,272.7,313.5z M272.7,309.8c0.4,0,0.7-0.1,1-0.3c0.2-0.2,0.4-0.4,0.4-0.8s-0.1-0.6-0.4-0.8
		c-0.2-0.2-0.6-0.3-1-0.3s-0.7,0.1-0.9,0.3c-0.2,0.2-0.4,0.4-0.4,0.8c0,0.3,0.1,0.6,0.3,0.8C272,309.7,272.3,309.8,272.7,309.8z"/>
	<path d="M280.8,315c-0.7,0-1.3-0.2-1.8-0.5s-1-0.8-1.3-1.5c-0.3-0.6-0.5-1.4-0.5-2.4c0-0.9,0.2-1.7,0.5-2.4
		c0.3-0.6,0.7-1.1,1.3-1.5s1.2-0.5,1.8-0.5c0.7,0,1.3,0.2,1.9,0.5s1,0.8,1.3,1.5c0.3,0.6,0.5,1.4,0.5,2.4c0,0.9-0.2,1.7-0.5,2.4
		c-0.3,0.6-0.7,1.1-1.3,1.5C282.1,314.8,281.5,315,280.8,315z M280.8,313.3c0.3,0,0.6-0.1,0.9-0.3c0.2-0.2,0.4-0.5,0.6-0.9
		c0.1-0.4,0.2-0.9,0.2-1.5s-0.1-1.1-0.2-1.5s-0.3-0.7-0.6-0.9c-0.2-0.2-0.5-0.3-0.9-0.3c-0.3,0-0.6,0.1-0.8,0.3
		c-0.2,0.2-0.4,0.5-0.6,0.9c-0.1,0.4-0.2,0.9-0.2,1.5s0.1,1.1,0.2,1.5s0.3,0.7,0.6,0.9C280.2,313.2,280.5,313.3,280.8,313.3z"/>
	<path d="M288.9,315c-0.7,0-1.3-0.2-1.8-0.5s-1-0.8-1.3-1.5c-0.3-0.6-0.5-1.4-0.5-2.4c0-0.9,0.2-1.7,0.5-2.4
		c0.3-0.6,0.7-1.1,1.3-1.5s1.2-0.5,1.8-0.5c0.7,0,1.3,0.2,1.9,0.5s1,0.8,1.3,1.5c0.3,0.6,0.5,1.4,0.5,2.4c0,0.9-0.2,1.7-0.5,2.4
		c-0.3,0.6-0.7,1.1-1.3,1.5C290.2,314.8,289.6,315,288.9,315z M288.9,313.3c0.3,0,0.6-0.1,0.9-0.3c0.2-0.2,0.4-0.5,0.6-0.9
		c0.1-0.4,0.2-0.9,0.2-1.5s-0.1-1.1-0.2-1.5s-0.3-0.7-0.6-0.9c-0.2-0.2-0.5-0.3-0.9-0.3c-0.3,0-0.6,0.1-0.8,0.3
		c-0.2,0.2-0.4,0.5-0.6,0.9c-0.1,0.4-0.2,0.9-0.2,1.5s0.1,1.1,0.2,1.5s0.3,0.7,0.6,0.9C288.3,313.2,288.6,313.3,288.9,313.3z"/>
</g>
<g>
	<path d="M179.7,306.3c0.8,0,1.4,0.2,2,0.5s1,0.8,1.3,1.4s0.5,1.4,0.5,2.3c0,1-0.2,1.8-0.5,2.5s-0.9,1.2-1.5,1.5
		c-0.6,0.4-1.4,0.5-2.2,0.5c-0.4,0-0.9,0-1.3-0.1s-0.8-0.2-1.1-0.4l0.7-1.4c0.2,0.2,0.5,0.3,0.8,0.3c0.3,0.1,0.5,0.1,0.8,0.1
		c0.7,0,1.3-0.2,1.7-0.7c0.4-0.4,0.6-1.1,0.6-1.9c0-0.1,0-0.3,0-0.5s0-0.4-0.1-0.5l0.5,0.5c-0.1,0.3-0.3,0.6-0.6,0.8
		c-0.2,0.2-0.5,0.4-0.9,0.5c-0.3,0.1-0.7,0.2-1.1,0.2c-0.5,0-1-0.1-1.5-0.3c-0.4-0.2-0.8-0.5-1-0.9c-0.3-0.4-0.4-0.9-0.4-1.4
		c0-0.6,0.1-1.1,0.4-1.5c0.3-0.4,0.7-0.7,1.2-1C178.6,306.4,179.1,306.3,179.7,306.3z M179.8,307.7c-0.3,0-0.5,0-0.7,0.1
		s-0.4,0.2-0.5,0.4c-0.1,0.2-0.2,0.4-0.2,0.7c0,0.4,0.1,0.7,0.4,0.9c0.3,0.2,0.6,0.3,1,0.3c0.3,0,0.5-0.1,0.8-0.2
		c0.2-0.1,0.4-0.3,0.5-0.5s0.2-0.4,0.2-0.7c0-0.2-0.1-0.4-0.2-0.6c-0.1-0.2-0.3-0.3-0.5-0.4C180.4,307.8,180.1,307.7,179.8,307.7z"
		/>
	<path d="M188,315c-0.7,0-1.3-0.2-1.8-0.5s-1-0.8-1.3-1.5c-0.3-0.6-0.5-1.4-0.5-2.4c0-0.9,0.2-1.7,0.5-2.4c0.3-0.6,0.7-1.1,1.3-1.5
		s1.2-0.5,1.8-0.5c0.7,0,1.3,0.2,1.9,0.5s1,0.8,1.3,1.5c0.3,0.6,0.5,1.4,0.5,2.4c0,0.9-0.2,1.7-0.5,2.4c-0.3,0.6-0.7,1.1-1.3,1.5
		C189.3,314.8,188.7,315,188,315z M188,313.3c0.3,0,0.6-0.1,0.9-0.3c0.2-0.2,0.4-0.5,0.6-0.9c0.1-0.4,0.2-0.9,0.2-1.5
		s-0.1-1.1-0.2-1.5c-0.1-0.4-0.3-0.7-0.6-0.9c-0.2-0.2-0.5-0.3-0.9-0.3c-0.3,0-0.6,0.1-0.8,0.3c-0.2,0.2-0.4,0.5-0.6,0.9
		c-0.1,0.4-0.2,0.9-0.2,1.5s0.1,1.1,0.2,1.5c0.1,0.4,0.3,0.7,0.6,0.9C187.4,313.2,187.7,313.3,188,313.3z"/>
	<path d="M196.1,315c-0.7,0-1.3-0.2-1.8-0.5s-1-0.8-1.3-1.5c-0.3-0.6-0.5-1.4-0.5-2.4c0-0.9,0.2-1.7,0.5-2.4
		c0.3-0.6,0.7-1.1,1.3-1.5s1.2-0.5,1.8-0.5c0.7,0,1.3,0.2,1.9,0.5s1,0.8,1.3,1.5c0.3,0.6,0.5,1.4,0.5,2.4c0,0.9-0.2,1.7-0.5,2.4
		c-0.3,0.6-0.7,1.1-1.3,1.5C197.4,314.8,196.8,315,196.1,315z M196.1,313.3c0.3,0,0.6-0.1,0.9-0.3c0.2-0.2,0.4-0.5,0.6-0.9
		c0.1-0.4,0.2-0.9,0.2-1.5s-0.1-1.1-0.2-1.5c-0.1-0.4-0.3-0.7-0.6-0.9c-0.2-0.2-0.5-0.3-0.9-0.3c-0.3,0-0.6,0.1-0.8,0.3
		c-0.2,0.2-0.4,0.5-0.6,0.9c-0.1,0.4-0.2,0.9-0.2,1.5s0.1,1.1,0.2,1.5c0.1,0.4,0.3,0.7,0.6,0.9C195.5,313.2,195.8,313.3,196.1,313.3
		z"/>
</g>
<g>
	<path d="M82.8,314.8v-7.7l0.8,0.8h-2.5v-1.6h3.6v8.4h-1.9V314.8z"/>
	<path d="M89.8,315c-0.7,0-1.3-0.2-1.8-0.5s-1-0.8-1.3-1.5c-0.3-0.6-0.5-1.4-0.5-2.4c0-0.9,0.2-1.7,0.5-2.4c0.3-0.6,0.7-1.1,1.3-1.5
		s1.2-0.5,1.8-0.5c0.7,0,1.3,0.2,1.9,0.5s1,0.8,1.3,1.5c0.3,0.6,0.5,1.4,0.5,2.4c0,0.9-0.2,1.7-0.5,2.4c-0.3,0.6-0.7,1.1-1.3,1.5
		C91.1,314.8,90.5,315,89.8,315z M89.8,313.3c0.3,0,0.6-0.1,0.9-0.3c0.2-0.2,0.4-0.5,0.6-0.9c0.1-0.4,0.2-0.9,0.2-1.5
		s-0.1-1.1-0.2-1.5s-0.3-0.7-0.6-0.9c-0.2-0.2-0.5-0.3-0.9-0.3c-0.3,0-0.6,0.1-0.8,0.3c-0.2,0.2-0.4,0.5-0.6,0.9
		c-0.1,0.4-0.2,0.9-0.2,1.5s0.1,1.1,0.2,1.5s0.3,0.7,0.6,0.9C89.2,313.2,89.5,313.3,89.8,313.3z"/>
	<path d="M97.9,315c-0.7,0-1.3-0.2-1.8-0.5s-1-0.8-1.3-1.5c-0.3-0.6-0.5-1.4-0.5-2.4c0-0.9,0.2-1.7,0.5-2.4c0.3-0.6,0.7-1.1,1.3-1.5
		s1.2-0.5,1.8-0.5c0.7,0,1.3,0.2,1.9,0.5s1,0.8,1.3,1.5c0.3,0.6,0.5,1.4,0.5,2.4c0,0.9-0.2,1.7-0.5,2.4c-0.3,0.6-0.7,1.1-1.3,1.5
		C99.3,314.8,98.6,315,97.9,315z M97.9,313.3c0.3,0,0.6-0.1,0.9-0.3c0.2-0.2,0.4-0.5,0.6-0.9c0.1-0.4,0.2-0.9,0.2-1.5
		s-0.1-1.1-0.2-1.5s-0.3-0.7-0.6-0.9c-0.2-0.2-0.5-0.3-0.9-0.3c-0.3,0-0.6,0.1-0.8,0.3c-0.2,0.2-0.4,0.5-0.6,0.9
		c-0.1,0.4-0.2,0.9-0.2,1.5s0.1,1.1,0.2,1.5s0.3,0.7,0.6,0.9C97.3,313.2,97.6,313.3,97.9,313.3z"/>
	<path d="M106.1,315c-0.7,0-1.3-0.2-1.8-0.5s-1-0.8-1.3-1.5c-0.3-0.6-0.5-1.4-0.5-2.4c0-0.9,0.2-1.7,0.5-2.4
		c0.3-0.6,0.7-1.1,1.3-1.5s1.2-0.5,1.8-0.5c0.7,0,1.3,0.2,1.9,0.5s1,0.8,1.3,1.5c0.3,0.6,0.5,1.4,0.5,2.4c0,0.9-0.2,1.7-0.5,2.4
		c-0.3,0.6-0.7,1.1-1.3,1.5C107.4,314.8,106.8,315,106.1,315z M106.1,313.3c0.3,0,0.6-0.1,0.9-0.3c0.2-0.2,0.4-0.5,0.6-0.9
		c0.1-0.4,0.2-0.9,0.2-1.5s-0.1-1.1-0.2-1.5s-0.3-0.7-0.6-0.9c-0.2-0.2-0.5-0.3-0.9-0.3c-0.3,0-0.6,0.1-0.8,0.3
		c-0.2,0.2-0.4,0.5-0.6,0.9c-0.1,0.4-0.2,0.9-0.2,1.5s0.1,1.1,0.2,1.5s0.3,0.7,0.6,0.9C105.5,313.2,105.8,313.3,106.1,313.3z"/>
</g>
<g>
	<path d="M1022.1,315c-0.7,0-1.3-0.2-1.8-0.5s-1-0.8-1.3-1.5c-0.3-0.6-0.5-1.4-0.5-2.4c0-0.9,0.2-1.7,0.5-2.4
		c0.3-0.6,0.7-1.1,1.3-1.5s1.2-0.5,1.8-0.5c0.7,0,1.3,0.2,1.9,0.5c0.6,0.3,1,0.8,1.3,1.5c0.3,0.6,0.5,1.4,0.5,2.4
		c0,0.9-0.2,1.7-0.5,2.4c-0.3,0.6-0.7,1.1-1.3,1.5C1023.4,314.8,1022.8,315,1022.1,315z M1022.1,313.3c0.3,0,0.6-0.1,0.9-0.3
		c0.2-0.2,0.4-0.5,0.6-0.9c0.1-0.4,0.2-0.9,0.2-1.5s-0.1-1.1-0.2-1.5c-0.1-0.4-0.3-0.7-0.6-0.9c-0.2-0.2-0.5-0.3-0.9-0.3
		c-0.3,0-0.6,0.1-0.8,0.3c-0.2,0.2-0.4,0.5-0.6,0.9c-0.1,0.4-0.2,0.9-0.2,1.5s0.1,1.1,0.2,1.5c0.1,0.4,0.3,0.7,0.6,0.9
		C1021.5,313.2,1021.8,313.3,1022.1,313.3z"/>
</g>
</svg>
