<?xml version="1.0" encoding="utf-8" standalone="no"?>
<!DOCTYPE svg PUBLIC "-//W3C//DTD SVG 1.1//EN" "http://www.w3.org/Graphics/SVG/1.1/DTD/svg11.dtd">
<svg xmlns:xlink="http://www.w3.org/1999/xlink" width="1080pt" height="216pt" viewBox="0 0 1080 216"
	xmlns="http://www.w3.org/2000/svg" version="1.1">
	<metadata>
		<rdf:RDF xmlns:dc="http://purl.org/dc/elements/1.1/" xmlns:cc="http://creativecommons.org/ns#"
			xmlns:rdf="http://www.w3.org/1999/02/22-rdf-syntax-ns#">
			<cc:Work>
				<dc:type rdf:resource="http://purl.org/dc/dcmitype/StillImage" />
				<dc:date>2023-07-27T14:54:10.509252</dc:date>
				<dc:format>image/svg+xml</dc:format>
				<dc:creator>
					<cc:Agent>
						<dc:title>Matplotlib v3.7.1, https://matplotlib.org/</dc:title>
					</cc:Agent>
				</dc:creator>
			</cc:Work>
		</rdf:RDF>
	</metadata>
	<defs>
		<style type="text/css">
			* {
				stroke-linejoin: round;
				stroke-linecap: butt
			}
		</style>
	</defs>
	<g id="figure_1">
		<g id="patch_1">
			<path d="M 0 216 
L 1080 216 
L 1080 0 
L 0 0 
z
" style="fill: #ffffff" />
		</g>
		<g id="axes_1">
			<g id="patch_2">
				<path d="M 173.045455 192.24 
L 233.536135 192.24 
L 233.536135 169.611429 
L 173.045455 169.611429 
z
" clip-path="url(#pbf39344f30)" style="fill: #d62015" />
			</g>
			<g id="patch_3">
				<path d="M 236.719855 192.24 
L 297.210536 192.24 
L 297.210536 177.154286 
L 236.719855 177.154286 
z
" clip-path="url(#pbf39344f30)" style="fill: #d62015" />
			</g>
			<g id="patch_4">
				<path d="M 300.394256 192.24 
L 360.884937 192.24 
L 360.884937 169.611429 
L 300.394256 169.611429 
z
" clip-path="url(#pbf39344f30)" style="fill: #d62015" />
			</g>
			<g id="patch_5">
				<path d="M 364.068657 192.24 
L 424.559338 192.24 
L 424.559338 154.525714 
L 364.068657 154.525714 
z
" clip-path="url(#pbf39344f30)" style="fill: #d62015" />
			</g>
			<g id="patch_6">
				<path d="M 427.743058 192.24 
L 488.233739 192.24 
L 488.233739 131.897143 
L 427.743058 131.897143 
z
" clip-path="url(#pbf39344f30)" style="fill: #d62015" />
			</g>
			<g id="patch_7">
				<path d="M 491.417459 192.24 
L 551.90814 192.24 
L 551.90814 101.725714 
L 491.417459 101.725714 
z
" clip-path="url(#pbf39344f30)" style="fill: #d62015" />
			</g>
			<g id="patch_8">
				<path d="M 555.09186 192.24 
L 615.582541 192.24 
L 615.582541 86.64 
L 555.09186 86.64 
z
" clip-path="url(#pbf39344f30)" style="fill: #fa9101" />
			</g>
			<g id="patch_9">
				<path d="M 618.766261 192.24 
L 679.256942 192.24 
L 679.256942 56.468571 
L 618.766261 56.468571 
z
" clip-path="url(#pbf39344f30)" style="fill: #fdd400" />
			</g>
			<g id="patch_10">
				<path d="M 682.440662 192.24 
L 742.931343 192.24 
L 742.931343 33.84 
L 682.440662 33.84 
z
" clip-path="url(#pbf39344f30)" style="fill: #fdf300" />
			</g>
			<g id="patch_11">
				<path d="M 746.115063 192.24 
L 806.605744 192.24 
L 806.605744 94.182857 
L 746.115063 94.182857 
z
" clip-path="url(#pbf39344f30)" style="fill: #d8db1a" />
			</g>
			<g id="patch_12">
				<path d="M 809.789464 192.24 
L 870.280145 192.24 
L 870.280145 184.697143 
L 809.789464 184.697143 
z
" clip-path="url(#pbf39344f30)" style="fill: #9ade27" />
			</g>
			<g id="patch_13">
				<path d="M 873.463865 192.24 
L 933.954545 192.24 
L 933.954545 188.468571 
L 873.463865 188.468571 
z
" clip-path="url(#pbf39344f30)" style="fill: #00bd00" />
			</g>
			<g id="text_1">
				<!--  3% -->
				<g style="fill: #667487" transform="translate(186.111107 154.525714) scale(0.2 -0.2)">
					<defs>
						<path id="Montserrat-SemiBold-20" transform="scale(0.015625)" />
						<path id="Montserrat-SemiBold-33" d="M 1690 -64 
Q 1216 -64 765 73 
Q 314 211 6 454 
L 365 1101 
Q 608 902 953 780 
Q 1299 659 1677 659 
Q 2125 659 2374 841 
Q 2624 1024 2624 1338 
Q 2624 1645 2393 1824 
Q 2163 2003 1651 2003 
L 1242 2003 
L 1242 2573 
L 2522 4096 
L 2630 3782 
L 224 3782 
L 224 4480 
L 3277 4480 
L 3277 3923 
L 1997 2400 
L 1562 2656 
L 1811 2656 
Q 2637 2656 3049 2288 
Q 3462 1920 3462 1344 
Q 3462 966 3270 646 
Q 3078 326 2684 131 
Q 2291 -64 1690 -64 
z
" transform="scale(0.015625)" />
						<path id="Montserrat-SemiBold-25" d="M 909 0 
L 3968 4480 
L 4595 4480 
L 1536 0 
L 909 0 
z
M 1280 2067 
Q 966 2067 723 2220 
Q 480 2374 345 2649 
Q 211 2925 211 3296 
Q 211 3667 345 3942 
Q 480 4218 723 4371 
Q 966 4525 1280 4525 
Q 1606 4525 1846 4371 
Q 2086 4218 2220 3942 
Q 2355 3667 2355 3296 
Q 2355 2925 2220 2649 
Q 2086 2374 1846 2220 
Q 1606 2067 1280 2067 
z
M 1286 2515 
Q 1542 2515 1686 2716 
Q 1830 2918 1830 3296 
Q 1830 3674 1686 3875 
Q 1542 4077 1286 4077 
Q 1030 4077 880 3872 
Q 730 3667 730 3296 
Q 730 2925 880 2720 
Q 1030 2515 1286 2515 
z
M 4218 -45 
Q 3904 -45 3661 108 
Q 3418 262 3283 537 
Q 3149 813 3149 1184 
Q 3149 1555 3283 1830 
Q 3418 2106 3661 2259 
Q 3904 2413 4218 2413 
Q 4544 2413 4784 2259 
Q 5024 2106 5158 1830 
Q 5293 1555 5293 1184 
Q 5293 813 5158 537 
Q 5024 262 4784 108 
Q 4544 -45 4218 -45 
z
M 4218 403 
Q 4474 403 4621 608 
Q 4768 813 4768 1184 
Q 4768 1555 4621 1760 
Q 4474 1965 4218 1965 
Q 3968 1965 3817 1763 
Q 3667 1562 3667 1184 
Q 3667 806 3817 604 
Q 3968 403 4218 403 
z
" transform="scale(0.015625)" />
					</defs>
					<use xlink:href="#Montserrat-SemiBold-20" />
					<use xlink:href="#Montserrat-SemiBold-33" x="27.599991" />
					<use xlink:href="#Montserrat-SemiBold-25" x="85.799988" />
				</g>
			</g>
			<g id="text_2">
				<!--  2% -->
				<g style="fill: #667487" transform="translate(249.785508 162.068571) scale(0.2 -0.2)">
					<defs>
						<path id="Montserrat-SemiBold-32" d="M 224 0 
L 224 557 
L 2003 2246 
Q 2227 2458 2336 2618 
Q 2445 2778 2480 2915 
Q 2515 3053 2515 3174 
Q 2515 3482 2304 3651 
Q 2093 3821 1683 3821 
Q 1357 3821 1091 3705 
Q 826 3590 634 3354 
L 51 3802 
Q 314 4154 758 4349 
Q 1203 4544 1754 4544 
Q 2240 4544 2601 4387 
Q 2963 4230 3158 3942 
Q 3354 3654 3354 3258 
Q 3354 3040 3296 2825 
Q 3238 2611 3078 2374 
Q 2918 2138 2611 1843 
L 1082 390 
L 909 704 
L 3526 704 
L 3526 0 
L 224 0 
z
" transform="scale(0.015625)" />
					</defs>
					<use xlink:href="#Montserrat-SemiBold-20" />
					<use xlink:href="#Montserrat-SemiBold-32" x="27.599991" />
					<use xlink:href="#Montserrat-SemiBold-25" x="85.799988" />
				</g>
			</g>
			<g id="text_3">
				<!--  3% -->
				<g style="fill: #667487" transform="translate(313.459909 154.525714) scale(0.2 -0.2)">
					<use xlink:href="#Montserrat-SemiBold-20" />
					<use xlink:href="#Montserrat-SemiBold-33" x="27.599991" />
					<use xlink:href="#Montserrat-SemiBold-25" x="85.799988" />
				</g>
			</g>
			<g id="text_4">
				<!--  5% -->
				<g style="fill: #667487" transform="translate(377.113998 139.44) scale(0.2 -0.2)">
					<defs>
						<path id="Montserrat-SemiBold-35" d="M 1766 -64 
Q 1293 -64 841 73 
Q 390 211 83 454 
L 435 1101 
Q 678 902 1027 780 
Q 1376 659 1754 659 
Q 2195 659 2448 844 
Q 2701 1030 2701 1344 
Q 2701 1555 2595 1715 
Q 2490 1875 2224 1958 
Q 1958 2042 1498 2042 
L 416 2042 
L 646 4480 
L 3277 4480 
L 3277 3782 
L 954 3782 
L 1389 4179 
L 1216 2355 
L 781 2746 
L 1683 2746 
Q 2349 2746 2755 2570 
Q 3162 2394 3350 2083 
Q 3539 1773 3539 1376 
Q 3539 986 3347 659 
Q 3155 333 2761 134 
Q 2368 -64 1766 -64 
z
" transform="scale(0.015625)" />
					</defs>
					<use xlink:href="#Montserrat-SemiBold-20" />
					<use xlink:href="#Montserrat-SemiBold-35" x="27.599991" />
					<use xlink:href="#Montserrat-SemiBold-25" x="85.999985" />
				</g>
			</g>
			<g id="text_5">
				<!--  8% -->
				<g style="fill: #667487" transform="translate(440.108711 116.811429) scale(0.2 -0.2)">
					<defs>
						<path id="Montserrat-SemiBold-38" d="M 2080 -64 
Q 1523 -64 1113 102 
Q 704 269 480 573 
Q 256 877 256 1286 
Q 256 1696 473 1977 
Q 691 2259 1100 2406 
Q 1510 2554 2080 2554 
Q 2650 2554 3062 2406 
Q 3475 2259 3696 1974 
Q 3917 1690 3917 1286 
Q 3917 877 3689 573 
Q 3462 269 3049 102 
Q 2637 -64 2080 -64 
z
M 2080 589 
Q 2541 589 2809 781 
Q 3078 973 3078 1312 
Q 3078 1645 2809 1837 
Q 2541 2029 2080 2029 
Q 1619 2029 1356 1837 
Q 1094 1645 1094 1312 
Q 1094 973 1356 781 
Q 1619 589 2080 589 
z
M 2080 2118 
Q 1562 2118 1190 2256 
Q 819 2394 617 2659 
Q 416 2925 416 3296 
Q 416 3680 624 3958 
Q 832 4237 1209 4390 
Q 1587 4544 2080 4544 
Q 2579 4544 2956 4390 
Q 3334 4237 3545 3958 
Q 3757 3680 3757 3296 
Q 3757 2925 3555 2659 
Q 3354 2394 2976 2256 
Q 2598 2118 2080 2118 
z
M 2080 2630 
Q 2477 2630 2707 2800 
Q 2938 2970 2938 3258 
Q 2938 3558 2701 3724 
Q 2464 3891 2080 3891 
Q 1696 3891 1465 3724 
Q 1235 3558 1235 3258 
Q 1235 2970 1462 2800 
Q 1690 2630 2080 2630 
z
" transform="scale(0.015625)" />
					</defs>
					<use xlink:href="#Montserrat-SemiBold-20" />
					<use xlink:href="#Montserrat-SemiBold-38" x="27.599991" />
					<use xlink:href="#Montserrat-SemiBold-25" x="92.799988" />
				</g>
			</g>
			<g id="text_6">
				<!-- 12% -->
				<g style="fill: #667487" transform="translate(503.433112 86.64) scale(0.2 -0.2)">
					<defs>
						<path id="Montserrat-SemiBold-31" d="M 998 0 
L 998 4160 
L 1363 3782 
L 51 3782 
L 51 4480 
L 1830 4480 
L 1830 0 
L 998 0 
z
" transform="scale(0.015625)" />
					</defs>
					<use xlink:href="#Montserrat-SemiBold-31" />
					<use xlink:href="#Montserrat-SemiBold-32" x="38.099991" />
					<use xlink:href="#Montserrat-SemiBold-25" x="96.299988" />
				</g>
			</g>
			<g id="text_7">
				<!-- 14% -->
				<g style="fill: #667487" transform="translate(566.1372 71.554286) scale(0.2 -0.2)">
					<defs>
						<path id="Montserrat-SemiBold-34" d="M 218 1018 
L 218 1594 
L 2426 4480 
L 3315 4480 
L 1139 1594 
L 723 1722 
L 4275 1722 
L 4275 1018 
L 218 1018 
z
M 2675 0 
L 2675 1018 
L 2701 1722 
L 2701 2624 
L 3482 2624 
L 3482 0 
L 2675 0 
z
" transform="scale(0.015625)" />
					</defs>
					<use xlink:href="#Montserrat-SemiBold-31" />
					<use xlink:href="#Montserrat-SemiBold-34" x="38.099991" />
					<use xlink:href="#Montserrat-SemiBold-25" x="105.999985" />
				</g>
			</g>
			<g id="text_8">
				<!-- 18% -->
				<g style="fill: #667487" transform="translate(630.081914 41.382857) scale(0.2 -0.2)">
					<use xlink:href="#Montserrat-SemiBold-31" />
					<use xlink:href="#Montserrat-SemiBold-38" x="38.099991" />
					<use xlink:href="#Montserrat-SemiBold-25" x="103.299988" />
				</g>
			</g>
			<g id="text_9">
				<!-- 21% -->
				<g style="fill: #667487" transform="translate(694.456315 18.754286) scale(0.2 -0.2)">
					<use xlink:href="#Montserrat-SemiBold-32" />
					<use xlink:href="#Montserrat-SemiBold-31" x="58.199997" />
					<use xlink:href="#Montserrat-SemiBold-25" x="96.299988" />
				</g>
			</g>
			<g id="text_10">
				<!-- 13% -->
				<g style="fill: #667487" transform="translate(758.130716 79.097143) scale(0.2 -0.2)">
					<use xlink:href="#Montserrat-SemiBold-31" />
					<use xlink:href="#Montserrat-SemiBold-33" x="38.099991" />
					<use xlink:href="#Montserrat-SemiBold-25" x="96.299988" />
				</g>
			</g>
			<g id="text_11">
				<!--  1% -->
				<g style="fill: #667487" transform="translate(824.866054 169.611429) scale(0.2 -0.2)">
					<use xlink:href="#Montserrat-SemiBold-20" />
					<use xlink:href="#Montserrat-SemiBold-31" x="27.599991" />
					<use xlink:href="#Montserrat-SemiBold-25" x="65.699982" />
				</g>
			</g>
			<g id="text_12">
				<!-- &lt;1% -->
				<g style="fill: #667487" transform="translate(885.39983 177.154286) scale(0.2 -0.2)">
					<defs>
						<path id="Montserrat-SemiBold-3c" d="M 3366 749 
L 416 1894 
L 416 2586 
L 3366 3731 
L 3366 3066 
L 666 2054 
L 666 2426 
L 3366 1414 
L 3366 749 
z
" transform="scale(0.015625)" />
					</defs>
					<use xlink:href="#Montserrat-SemiBold-3c" />
					<use xlink:href="#Montserrat-SemiBold-31" x="58.999985" />
					<use xlink:href="#Montserrat-SemiBold-25" x="97.099976" />
				</g>
			</g>
		</g>
	</g>
	<defs>
		<clipPath id="pbf39344f30">
			<rect x="135" y="25.92" width="837" height="166.32" />
		</clipPath>
	</defs>
</svg>