<?xml version="1.0" encoding="utf-8"?>
<!-- Generator: Adobe Illustrator 27.0.0, SVG Export Plug-In . SVG Version: 6.00 Build 0)  -->
<svg version="1.1" id="Layer_1" xmlns="http://www.w3.org/2000/svg" xmlns:xlink="http://www.w3.org/1999/xlink" x="0px" y="0px"
	 viewBox="0 0 1029.1 327.1" style="enable-background:new 0 0 1029.1 327.1;" xml:space="preserve">
<style type="text/css">
	.st0{fill:#FDD400;}
	.st1{fill:#FA9101;}
	.st2{fill:#D62015;}
	.st3{fill:#FDF300;}
	.st4{fill:#D8DB1A;}
	.st5{fill:#9ADE27;}
	.st6{fill:#001837;}
	.st7{fill:#667487;}
</style>
<path class="st0" d="M653.6,266.5h87.9l9.5,17l-9.5,17h-87.9l9.5-17L653.6,266.5z"/>
<path class="st1" d="M561,266.5h87.9l9.5,17l-9.5,17H561l9.5-17L561,266.5z"/>
<path class="st2" d="M5.2,266.5h551l9.5,17l-9.5,17H5.2l9.5-17L5.2,266.5z"/>
<path class="st3" d="M746.3,266.5h87.9l9.5,17l-9.5,17h-87.9l9.5-17L746.3,266.5z"/>
<path class="st4" d="M838.9,266.5h88l9.5,17l-9.5,17h-88l9.5-17L838.9,266.5z"/>
<path class="st5" d="M931.6,266.5h88l9.5,17l-9.5,17h-88l9.5-17L931.6,266.5z"/>
<path class="st6" d="M607.7,282.4h5.4v2h-5.4V282.4z M607.9,287h6.1v2.1h-8.7v-11.2h8.5v2.1h-5.9L607.9,287L607.9,287z"/>
<path class="st6" d="M696.7,289.1v-11.2h5.1c1.2,0,2.3,0.2,3.2,0.7s1.7,1.1,2.2,1.9s0.8,1.8,0.8,3s-0.3,2.1-0.8,3
	c-0.5,0.8-1.2,1.5-2.2,2c-0.9,0.5-2,0.7-3.2,0.7h-5.1V289.1z M699.3,287h2.4c0.8,0,1.4-0.1,1.9-0.4s1-0.7,1.3-1.2s0.5-1.1,0.5-1.8
	s-0.2-1.3-0.5-1.8s-0.7-0.9-1.3-1.2c-0.5-0.3-1.2-0.4-1.9-0.4h-2.4V287L699.3,287z"/>
<path class="st6" d="M795.7,289.3c-0.9,0-1.7-0.1-2.4-0.4s-1.4-0.7-1.9-1.2s-1-1.1-1.3-1.8c-0.3-0.7-0.5-1.5-0.5-2.3
	s0.2-1.6,0.5-2.3c0.3-0.7,0.7-1.3,1.3-1.8c0.5-0.5,1.2-0.9,1.9-1.2c0.7-0.3,1.5-0.4,2.4-0.4c1,0,1.8,0.2,2.6,0.5s1.5,0.8,2,1.5
	l-1.7,1.5c-0.4-0.4-0.8-0.8-1.3-1s-1-0.3-1.5-0.3s-1,0.1-1.4,0.3c-0.4,0.2-0.8,0.4-1.1,0.7c-0.3,0.3-0.6,0.7-0.8,1.1
	s-0.3,0.9-0.3,1.5s0.1,1,0.3,1.5s0.4,0.8,0.8,1.1s0.7,0.6,1.1,0.7c0.4,0.2,0.9,0.3,1.4,0.3s1.1-0.1,1.5-0.3c0.5-0.2,0.9-0.6,1.3-1
	l1.7,1.5c-0.5,0.6-1.2,1.1-2,1.5C797.6,289.1,796.7,289.3,795.7,289.3L795.7,289.3z"/>
<path class="st6" d="M882.5,289.1v-11.2h5.5c1.4,0,2.5,0.3,3.2,0.8s1.1,1.2,1.1,2.1c0,0.6-0.1,1.1-0.4,1.5c-0.3,0.4-0.7,0.8-1.2,1
	s-1.1,0.4-1.7,0.4l0.3-0.7c0.7,0,1.3,0.1,1.9,0.4c0.5,0.2,1,0.6,1.3,1c0.3,0.5,0.5,1,0.5,1.6c0,1-0.4,1.7-1.1,2.3
	c-0.8,0.5-1.9,0.8-3.3,0.8L882.5,289.1L882.5,289.1z M885.1,287.1h3c0.7,0,1.2-0.1,1.5-0.3c0.3-0.2,0.5-0.6,0.5-1.1s-0.2-0.8-0.5-1
	s-0.8-0.4-1.5-0.4h-3.2v-1.9h2.8c0.6,0,1.1-0.1,1.4-0.3c0.3-0.2,0.5-0.6,0.5-1s-0.2-0.8-0.5-1s-0.8-0.3-1.4-0.3h-2.6V287.1
	L885.1,287.1z"/>
<path class="st6" d="M974.1,289.1l5-11.2h2.6l5,11.2H984l-4.1-9.9h1l-4.1,9.9H974.1L974.1,289.1z M976.6,286.7l0.7-2h5.8l0.7,2
	H976.6L976.6,286.7z"/>
<path class="st6" d="M283.6,282.9h5.4v2.1h-5.4V282.9z M283.8,289.1h-2.6v-11.2h8.5v2.1h-5.9V289.1L283.8,289.1z"/>
<g>
	<path d="M920.7,314.8v-7.7l0.8,0.8H919v-1.6h3.6v8.4h-1.9L920.7,314.8L920.7,314.8z"/>
	<path d="M927.7,315c-0.7,0-1.3-0.2-1.8-0.5s-1-0.8-1.3-1.5c-0.3-0.6-0.5-1.4-0.5-2.4c0-0.9,0.2-1.7,0.5-2.4
		c0.3-0.6,0.7-1.1,1.3-1.5s1.2-0.5,1.8-0.5c0.7,0,1.3,0.2,1.9,0.5s1,0.8,1.3,1.5c0.3,0.6,0.5,1.4,0.5,2.4c0,0.9-0.2,1.7-0.5,2.4
		c-0.3,0.6-0.7,1.1-1.3,1.5C929,314.8,928.4,315,927.7,315z M927.7,313.3c0.3,0,0.6-0.1,0.9-0.3c0.2-0.2,0.4-0.5,0.6-0.9
		c0.1-0.4,0.2-0.9,0.2-1.5s-0.1-1.1-0.2-1.5c-0.1-0.4-0.3-0.7-0.6-0.9c-0.2-0.2-0.5-0.3-0.9-0.3c-0.3,0-0.6,0.1-0.8,0.3
		c-0.2,0.2-0.4,0.5-0.6,0.9c-0.1,0.4-0.2,0.9-0.2,1.5s0.1,1.1,0.2,1.5c0.1,0.4,0.3,0.7,0.6,0.9C927.1,313.2,927.4,313.3,927.7,313.3
		z"/>
	<path d="M935.9,315c-0.7,0-1.3-0.2-1.8-0.5s-1-0.8-1.3-1.5c-0.3-0.6-0.5-1.4-0.5-2.4c0-0.9,0.2-1.7,0.5-2.4
		c0.3-0.6,0.7-1.1,1.3-1.5s1.2-0.5,1.8-0.5c0.7,0,1.3,0.2,1.9,0.5s1,0.8,1.3,1.5c0.3,0.6,0.5,1.4,0.5,2.4c0,0.9-0.2,1.7-0.5,2.4
		c-0.3,0.6-0.7,1.1-1.3,1.5C937.2,314.8,936.6,315,935.9,315z M935.9,313.3c0.3,0,0.6-0.1,0.9-0.3c0.2-0.2,0.4-0.5,0.6-0.9
		c0.1-0.4,0.2-0.9,0.2-1.5s-0.1-1.1-0.2-1.5c-0.1-0.4-0.3-0.7-0.6-0.9c-0.2-0.2-0.5-0.3-0.9-0.3c-0.3,0-0.6,0.1-0.8,0.3
		c-0.2,0.2-0.4,0.5-0.6,0.9c-0.1,0.4-0.2,0.9-0.2,1.5s0.1,1.1,0.2,1.5c0.1,0.4,0.3,0.7,0.6,0.9C935.3,313.2,935.5,313.3,935.9,313.3
		z"/>
</g>
<g>
	<path d="M825.5,314.8v-1.3l3.2-3.1c0.3-0.2,0.4-0.4,0.6-0.6c0.1-0.2,0.2-0.3,0.2-0.5s0.1-0.3,0.1-0.4c0-0.3-0.1-0.6-0.3-0.8
		c-0.2-0.2-0.6-0.3-1-0.3s-0.7,0.1-1,0.2s-0.5,0.4-0.8,0.6l-1.4-0.9c0.3-0.5,0.8-0.9,1.3-1.1c0.6-0.3,1.2-0.4,2-0.4
		c0.6,0,1.2,0.1,1.6,0.3c0.5,0.2,0.8,0.5,1.1,0.9s0.4,0.8,0.4,1.3c0,0.3,0,0.5-0.1,0.8s-0.2,0.6-0.4,0.9s-0.5,0.6-0.9,1l-2.7,2.5
		l-0.4-0.7h4.8v1.6H825.5z"/>
	<path d="M836.3,315c-0.7,0-1.3-0.2-1.8-0.5s-1-0.8-1.3-1.5c-0.3-0.6-0.5-1.4-0.5-2.4c0-0.9,0.2-1.7,0.5-2.4
		c0.3-0.6,0.7-1.1,1.3-1.5s1.2-0.5,1.8-0.5c0.7,0,1.3,0.2,1.9,0.5s1,0.8,1.3,1.5c0.3,0.6,0.5,1.4,0.5,2.4c0,0.9-0.2,1.7-0.5,2.4
		c-0.3,0.6-0.7,1.1-1.3,1.5C837.6,314.8,836.9,315,836.3,315z M836.3,313.3c0.3,0,0.6-0.1,0.9-0.3c0.2-0.2,0.4-0.5,0.6-0.9
		c0.1-0.4,0.2-0.9,0.2-1.5s-0.1-1.1-0.2-1.5c-0.1-0.4-0.3-0.7-0.6-0.9c-0.2-0.2-0.5-0.3-0.9-0.3c-0.3,0-0.6,0.1-0.8,0.3
		c-0.2,0.2-0.4,0.5-0.6,0.9c-0.1,0.4-0.2,0.9-0.2,1.5s0.1,1.1,0.2,1.5c0.1,0.4,0.3,0.7,0.6,0.9C835.7,313.2,835.9,313.3,836.3,313.3
		z"/>
	<path d="M844.4,315c-0.7,0-1.3-0.2-1.8-0.5s-1-0.8-1.3-1.5c-0.3-0.6-0.5-1.4-0.5-2.4c0-0.9,0.2-1.7,0.5-2.4
		c0.3-0.6,0.7-1.1,1.3-1.5s1.2-0.5,1.8-0.5c0.7,0,1.3,0.2,1.9,0.5s1,0.8,1.3,1.5c0.3,0.6,0.5,1.4,0.5,2.4c0,0.9-0.2,1.7-0.5,2.4
		c-0.3,0.6-0.7,1.1-1.3,1.5C845.7,314.8,845.1,315,844.4,315z M844.4,313.3c0.3,0,0.6-0.1,0.9-0.3c0.2-0.2,0.4-0.5,0.6-0.9
		c0.1-0.4,0.2-0.9,0.2-1.5s-0.1-1.1-0.2-1.5c-0.1-0.4-0.3-0.7-0.6-0.9c-0.2-0.2-0.5-0.3-0.9-0.3c-0.3,0-0.6,0.1-0.8,0.3
		c-0.2,0.2-0.4,0.5-0.6,0.9c-0.1,0.4-0.2,0.9-0.2,1.5s0.1,1.1,0.2,1.5c0.1,0.4,0.3,0.7,0.6,0.9C843.8,313.2,844.1,313.3,844.4,313.3
		z"/>
</g>
<g>
	<path d="M735.6,315c-0.6,0-1.2-0.1-1.7-0.2c-0.6-0.2-1.1-0.4-1.5-0.7l0.8-1.5c0.3,0.2,0.7,0.4,1.1,0.6c0.4,0.1,0.9,0.2,1.3,0.2
		c0.5,0,0.9-0.1,1.2-0.3c0.3-0.2,0.4-0.5,0.4-0.8s-0.1-0.6-0.4-0.8c-0.2-0.2-0.6-0.3-1.2-0.3h-0.9V310l2.3-2.7l0.2,0.7h-4.4v-1.6
		h5.9v1.3l-2.3,2.7l-1-0.6h0.6c1,0,1.8,0.2,2.3,0.7s0.8,1.1,0.8,1.8c0,0.5-0.1,0.9-0.4,1.3s-0.6,0.8-1.1,1
		C737.1,314.8,736.4,315,735.6,315z"/>
	<path d="M743.6,315c-0.7,0-1.3-0.2-1.8-0.5s-1-0.8-1.3-1.5c-0.3-0.6-0.5-1.4-0.5-2.4c0-0.9,0.2-1.7,0.5-2.4
		c0.3-0.6,0.7-1.1,1.3-1.5s1.2-0.5,1.8-0.5c0.7,0,1.3,0.2,1.9,0.5s1,0.8,1.3,1.5c0.3,0.6,0.5,1.4,0.5,2.4c0,0.9-0.2,1.7-0.5,2.4
		c-0.3,0.6-0.7,1.1-1.3,1.5C744.9,314.8,744.3,315,743.6,315z M743.6,313.3c0.3,0,0.6-0.1,0.9-0.3c0.2-0.2,0.4-0.5,0.6-0.9
		c0.1-0.4,0.2-0.9,0.2-1.5s-0.1-1.1-0.2-1.5c-0.1-0.4-0.3-0.7-0.6-0.9c-0.2-0.2-0.5-0.3-0.9-0.3c-0.3,0-0.6,0.1-0.8,0.3
		c-0.2,0.2-0.4,0.5-0.6,0.9c-0.1,0.4-0.2,0.9-0.2,1.5s0.1,1.1,0.2,1.5c0.1,0.4,0.3,0.7,0.6,0.9C743,313.2,743.3,313.3,743.6,313.3z"
		/>
	<path d="M751.8,315c-0.7,0-1.3-0.2-1.8-0.5s-1-0.8-1.3-1.5c-0.3-0.6-0.5-1.4-0.5-2.4c0-0.9,0.2-1.7,0.5-2.4
		c0.3-0.6,0.7-1.1,1.3-1.5s1.2-0.5,1.8-0.5c0.7,0,1.3,0.2,1.9,0.5s1,0.8,1.3,1.5c0.3,0.6,0.5,1.4,0.5,2.4c0,0.9-0.2,1.7-0.5,2.4
		c-0.3,0.6-0.7,1.1-1.3,1.5C753.1,314.8,752.5,315,751.8,315z M751.8,313.3c0.3,0,0.6-0.1,0.9-0.3c0.2-0.2,0.4-0.5,0.6-0.9
		c0.1-0.4,0.2-0.9,0.2-1.5s-0.1-1.1-0.2-1.5c-0.1-0.4-0.3-0.7-0.6-0.9c-0.2-0.2-0.5-0.3-0.9-0.3c-0.3,0-0.6,0.1-0.8,0.3
		c-0.2,0.2-0.4,0.5-0.6,0.9c-0.1,0.4-0.2,0.9-0.2,1.5s0.1,1.1,0.2,1.5c0.1,0.4,0.3,0.7,0.6,0.9C751.2,313.2,751.4,313.3,751.8,313.3
		z"/>
</g>
<g>
	<path d="M639.6,313.1v-1.3l4-5.3h2l-3.9,5.3l-1-0.3h6.6v1.6L639.6,313.1L639.6,313.1z M644.1,314.8V313l0.1-1.6v-1.6h1.8v4.9h-1.9
		L644.1,314.8L644.1,314.8z"/>
	<path d="M651.5,315c-0.7,0-1.3-0.2-1.8-0.5s-1-0.8-1.3-1.5c-0.3-0.6-0.5-1.4-0.5-2.4c0-0.9,0.2-1.7,0.5-2.4
		c0.3-0.6,0.7-1.1,1.3-1.5s1.2-0.5,1.8-0.5c0.7,0,1.3,0.2,1.9,0.5s1,0.8,1.3,1.5c0.3,0.6,0.5,1.4,0.5,2.4c0,0.9-0.2,1.7-0.5,2.4
		c-0.3,0.6-0.7,1.1-1.3,1.5C652.9,314.8,652.2,315,651.5,315z M651.5,313.3c0.3,0,0.6-0.1,0.9-0.3c0.2-0.2,0.4-0.5,0.6-0.9
		c0.1-0.4,0.2-0.9,0.2-1.5s-0.1-1.1-0.2-1.5c-0.1-0.4-0.3-0.7-0.6-0.9c-0.2-0.2-0.5-0.3-0.9-0.3c-0.3,0-0.6,0.1-0.8,0.3
		c-0.2,0.2-0.4,0.5-0.6,0.9c-0.1,0.4-0.2,0.9-0.2,1.5s0.1,1.1,0.2,1.5c0.1,0.4,0.3,0.7,0.6,0.9C651,313.2,651.2,313.3,651.5,313.3z"
		/>
	<path d="M659.7,315c-0.7,0-1.3-0.2-1.8-0.5s-1-0.8-1.3-1.5c-0.3-0.6-0.5-1.4-0.5-2.4c0-0.9,0.2-1.7,0.5-2.4
		c0.3-0.6,0.7-1.1,1.3-1.5s1.2-0.5,1.8-0.5c0.7,0,1.3,0.2,1.9,0.5s1,0.8,1.3,1.5c0.3,0.6,0.5,1.4,0.5,2.4c0,0.9-0.2,1.7-0.5,2.4
		c-0.3,0.6-0.7,1.1-1.3,1.5C661,314.8,660.4,315,659.7,315z M659.7,313.3c0.3,0,0.6-0.1,0.9-0.3c0.2-0.2,0.4-0.5,0.6-0.9
		c0.1-0.4,0.2-0.9,0.2-1.5s-0.1-1.1-0.2-1.5c-0.1-0.4-0.3-0.7-0.6-0.9c-0.2-0.2-0.5-0.3-0.9-0.3c-0.3,0-0.6,0.1-0.8,0.3
		c-0.2,0.2-0.4,0.5-0.6,0.9c-0.1,0.4-0.2,0.9-0.2,1.5s0.1,1.1,0.2,1.5c0.1,0.4,0.3,0.7,0.6,0.9C659.1,313.2,659.4,313.3,659.7,313.3
		z"/>
</g>
<g>
	<path d="M550.4,315c-0.6,0-1.2-0.1-1.7-0.2s-1.1-0.4-1.5-0.7l0.8-1.5c0.3,0.2,0.7,0.4,1.1,0.6c0.4,0.1,0.8,0.2,1.3,0.2
		s0.9-0.1,1.2-0.3c0.3-0.2,0.4-0.5,0.4-0.8c0-0.2-0.1-0.4-0.2-0.6c-0.1-0.2-0.3-0.3-0.6-0.4s-0.7-0.1-1.2-0.1h-2.1l0.4-4.7h5.1v1.6
		H549l1-0.9l-0.3,3.4l-1-0.9h1.8c0.8,0,1.5,0.1,2,0.3c0.5,0.2,0.9,0.5,1.1,0.9c0.2,0.4,0.4,0.8,0.4,1.3s-0.1,0.9-0.4,1.4
		c-0.2,0.4-0.6,0.8-1.1,1C551.9,314.8,551.2,315,550.4,315z"/>
	<path d="M558.3,315c-0.7,0-1.3-0.2-1.8-0.5s-1-0.8-1.3-1.5c-0.3-0.6-0.5-1.4-0.5-2.4c0-0.9,0.2-1.7,0.5-2.4
		c0.3-0.6,0.7-1.1,1.3-1.5s1.2-0.5,1.8-0.5c0.7,0,1.3,0.2,1.9,0.5s1,0.8,1.3,1.5c0.3,0.6,0.5,1.4,0.5,2.4c0,0.9-0.2,1.7-0.5,2.4
		c-0.3,0.6-0.7,1.1-1.3,1.5C559.6,314.8,559,315,558.3,315z M558.3,313.3c0.3,0,0.6-0.1,0.9-0.3c0.2-0.2,0.4-0.5,0.6-0.9
		c0.1-0.4,0.2-0.9,0.2-1.5s-0.1-1.1-0.2-1.5c-0.1-0.4-0.3-0.7-0.6-0.9c-0.2-0.2-0.5-0.3-0.9-0.3c-0.3,0-0.6,0.1-0.8,0.3
		c-0.2,0.2-0.4,0.5-0.6,0.9c-0.1,0.4-0.2,0.9-0.2,1.5s0.1,1.1,0.2,1.5c0.1,0.4,0.3,0.7,0.6,0.9C557.7,313.2,558,313.3,558.3,313.3z"
		/>
	<path d="M566.5,315c-0.7,0-1.3-0.2-1.8-0.5s-1-0.8-1.3-1.5c-0.3-0.6-0.5-1.4-0.5-2.4c0-0.9,0.2-1.7,0.5-2.4
		c0.3-0.6,0.7-1.1,1.3-1.5c0.5-0.3,1.2-0.5,1.8-0.5c0.7,0,1.3,0.2,1.9,0.5s1,0.8,1.3,1.5c0.3,0.6,0.5,1.4,0.5,2.4
		c0,0.9-0.2,1.7-0.5,2.4c-0.3,0.6-0.7,1.1-1.3,1.5C567.8,314.8,567.2,315,566.5,315z M566.5,313.3c0.3,0,0.6-0.1,0.9-0.3
		c0.2-0.2,0.4-0.5,0.6-0.9c0.1-0.4,0.2-0.9,0.2-1.5s-0.1-1.1-0.2-1.5c-0.1-0.4-0.3-0.7-0.6-0.9c-0.2-0.2-0.5-0.3-0.9-0.3
		c-0.3,0-0.6,0.1-0.8,0.3c-0.2,0.2-0.4,0.5-0.6,0.9c-0.1,0.4-0.2,0.9-0.2,1.5s0.1,1.1,0.2,1.5c0.1,0.4,0.3,0.7,0.6,0.9
		C565.9,313.2,566.2,313.3,566.5,313.3z"/>
</g>
<g>
	<path d="M458.4,315c-0.8,0-1.4-0.2-2-0.5s-1-0.8-1.3-1.4s-0.5-1.4-0.5-2.3c0-1,0.2-1.8,0.5-2.5c0.4-0.7,0.9-1.2,1.5-1.5
		c0.6-0.4,1.4-0.5,2.2-0.5c0.4,0,0.9,0,1.3,0.2c0.4,0.1,0.8,0.2,1.1,0.4l-0.7,1.4c-0.2-0.2-0.5-0.3-0.7-0.3
		c-0.3-0.1-0.5-0.1-0.8-0.1c-0.7,0-1.3,0.2-1.7,0.7c-0.4,0.4-0.6,1.1-0.6,2c0,0.1,0,0.3,0,0.5s0,0.4,0.1,0.5l-0.5-0.5
		c0.2-0.3,0.3-0.6,0.6-0.8c0.2-0.2,0.5-0.4,0.9-0.5c0.3-0.1,0.7-0.2,1.1-0.2c0.5,0,1,0.1,1.5,0.3c0.4,0.2,0.8,0.5,1,0.9
		c0.3,0.4,0.4,0.9,0.4,1.4c0,0.6-0.1,1.1-0.4,1.5s-0.7,0.7-1.1,1C459.6,314.9,459,315,458.4,315z M458.3,313.5c0.3,0,0.5,0,0.7-0.2
		c0.2-0.1,0.4-0.2,0.5-0.4c0.1-0.2,0.2-0.4,0.2-0.7c0-0.4-0.1-0.7-0.4-0.9c-0.3-0.2-0.6-0.3-1-0.3c-0.3,0-0.5,0.1-0.8,0.2
		c-0.2,0.1-0.4,0.3-0.5,0.5s-0.2,0.4-0.2,0.7c0,0.2,0.1,0.4,0.2,0.6s0.3,0.3,0.5,0.4C457.8,313.5,458,313.5,458.3,313.5z"/>
	<path d="M465.9,315c-0.7,0-1.3-0.2-1.8-0.5s-1-0.8-1.3-1.5c-0.3-0.6-0.5-1.4-0.5-2.4c0-0.9,0.2-1.7,0.5-2.4
		c0.3-0.6,0.7-1.1,1.3-1.5s1.2-0.5,1.8-0.5c0.7,0,1.3,0.2,1.9,0.5s1,0.8,1.3,1.5c0.3,0.6,0.5,1.4,0.5,2.4c0,0.9-0.2,1.7-0.5,2.4
		c-0.3,0.6-0.7,1.1-1.3,1.5C467.2,314.8,466.6,315,465.9,315z M465.9,313.3c0.3,0,0.6-0.1,0.9-0.3c0.2-0.2,0.4-0.5,0.6-0.9
		c0.1-0.4,0.2-0.9,0.2-1.5s-0.1-1.1-0.2-1.5s-0.3-0.7-0.6-0.9c-0.2-0.2-0.5-0.3-0.9-0.3c-0.3,0-0.6,0.1-0.8,0.3
		c-0.2,0.2-0.4,0.5-0.6,0.9c-0.1,0.4-0.2,0.9-0.2,1.5s0.1,1.1,0.2,1.5s0.3,0.7,0.6,0.9C465.3,313.2,465.6,313.3,465.9,313.3z"/>
	<path d="M474.1,315c-0.7,0-1.3-0.2-1.8-0.5s-1-0.8-1.3-1.5c-0.3-0.6-0.5-1.4-0.5-2.4c0-0.9,0.2-1.7,0.5-2.4
		c0.3-0.6,0.7-1.1,1.3-1.5s1.2-0.5,1.8-0.5c0.7,0,1.3,0.2,1.9,0.5s1,0.8,1.3,1.5c0.3,0.6,0.5,1.4,0.5,2.4c0,0.9-0.2,1.7-0.5,2.4
		c-0.3,0.6-0.7,1.1-1.3,1.5C475.4,314.8,474.8,315,474.1,315z M474.1,313.3c0.3,0,0.6-0.1,0.9-0.3c0.2-0.2,0.4-0.5,0.6-0.9
		c0.1-0.4,0.2-0.9,0.2-1.5s-0.1-1.1-0.2-1.5s-0.3-0.7-0.6-0.9c-0.2-0.2-0.5-0.3-0.9-0.3c-0.3,0-0.6,0.1-0.8,0.3
		c-0.2,0.2-0.4,0.5-0.6,0.9c-0.1,0.4-0.2,0.9-0.2,1.5s0.1,1.1,0.2,1.5s0.3,0.7,0.6,0.9C473.5,313.2,473.8,313.3,474.1,313.3z"/>
</g>
<g>
	<path d="M363.6,314.8l3.4-7.7l0.5,0.8H363l0.8-0.9v2.3h-1.7v-3h6.7v1.3l-3.1,7.1h-2.1L363.6,314.8L363.6,314.8z"/>
	<path d="M373.1,315c-0.7,0-1.3-0.2-1.8-0.5s-1-0.8-1.3-1.5c-0.3-0.6-0.5-1.4-0.5-2.4c0-0.9,0.2-1.7,0.5-2.4
		c0.3-0.6,0.7-1.1,1.3-1.5s1.2-0.5,1.8-0.5c0.7,0,1.3,0.2,1.9,0.5s1,0.8,1.3,1.5c0.3,0.6,0.5,1.4,0.5,2.4c0,0.9-0.2,1.7-0.5,2.4
		c-0.3,0.6-0.7,1.1-1.3,1.5C374.4,314.8,373.8,315,373.1,315z M373.1,313.3c0.3,0,0.6-0.1,0.9-0.3c0.2-0.2,0.4-0.5,0.6-0.9
		c0.1-0.4,0.2-0.9,0.2-1.5s-0.1-1.1-0.2-1.5s-0.3-0.7-0.6-0.9c-0.2-0.2-0.5-0.3-0.9-0.3c-0.3,0-0.6,0.1-0.8,0.3
		c-0.2,0.2-0.4,0.5-0.6,0.9c-0.1,0.4-0.2,0.9-0.2,1.5s0.1,1.1,0.2,1.5s0.3,0.7,0.6,0.9C372.5,313.2,372.7,313.3,373.1,313.3z"/>
	<path d="M381.2,315c-0.7,0-1.3-0.2-1.8-0.5s-1-0.8-1.3-1.5c-0.3-0.6-0.5-1.4-0.5-2.4c0-0.9,0.2-1.7,0.5-2.4
		c0.3-0.6,0.7-1.1,1.3-1.5s1.2-0.5,1.8-0.5c0.7,0,1.3,0.2,1.9,0.5s1,0.8,1.3,1.5c0.3,0.6,0.5,1.4,0.5,2.4c0,0.9-0.2,1.7-0.5,2.4
		c-0.3,0.6-0.7,1.1-1.3,1.5C382.5,314.8,381.9,315,381.2,315z M381.2,313.3c0.3,0,0.6-0.1,0.9-0.3c0.2-0.2,0.4-0.5,0.6-0.9
		c0.1-0.4,0.2-0.9,0.2-1.5s-0.1-1.1-0.2-1.5s-0.3-0.7-0.6-0.9c-0.2-0.2-0.5-0.3-0.9-0.3c-0.3,0-0.6,0.1-0.8,0.3
		c-0.2,0.2-0.4,0.5-0.6,0.9c-0.1,0.4-0.2,0.9-0.2,1.5s0.1,1.1,0.2,1.5s0.3,0.7,0.6,0.9C380.6,313.2,380.9,313.3,381.2,313.3z"/>
</g>
<g>
	<path d="M272.7,315c-0.7,0-1.3-0.1-1.9-0.3c-0.5-0.2-0.9-0.5-1.2-0.9c-0.3-0.4-0.4-0.8-0.4-1.4c0-0.5,0.1-1,0.4-1.3
		c0.3-0.4,0.7-0.6,1.2-0.8s1.2-0.3,1.9-0.3c0.7,0,1.3,0.1,1.9,0.3c0.5,0.2,0.9,0.5,1.2,0.8s0.4,0.8,0.4,1.3s-0.1,1-0.4,1.4
		s-0.7,0.7-1.2,0.9S273.4,315,272.7,315z M272.7,310.9c-0.6,0-1.2-0.1-1.7-0.3c-0.5-0.2-0.9-0.4-1.1-0.8c-0.3-0.3-0.4-0.8-0.4-1.2
		c0-0.5,0.1-0.9,0.4-1.3s0.7-0.6,1.1-0.8c0.5-0.2,1-0.3,1.7-0.3c0.6,0,1.2,0.1,1.7,0.3c0.5,0.2,0.9,0.5,1.1,0.8
		c0.3,0.4,0.4,0.8,0.4,1.3s-0.1,0.9-0.4,1.2s-0.6,0.6-1.1,0.8C274,310.9,273.4,310.9,272.7,310.9z M272.7,313.5
		c0.5,0,0.9-0.1,1.2-0.3c0.3-0.2,0.4-0.5,0.4-0.9s-0.1-0.6-0.4-0.9c-0.3-0.2-0.7-0.3-1.2-0.3s-0.9,0.1-1.1,0.3s-0.4,0.5-0.4,0.9
		s0.1,0.7,0.4,0.9S272.3,313.5,272.7,313.5z M272.7,309.8c0.4,0,0.7-0.1,1-0.3c0.2-0.2,0.4-0.4,0.4-0.8s-0.1-0.6-0.4-0.8
		c-0.2-0.2-0.6-0.3-1-0.3s-0.7,0.1-0.9,0.3c-0.2,0.2-0.4,0.4-0.4,0.8c0,0.3,0.1,0.6,0.3,0.8C272,309.7,272.3,309.8,272.7,309.8z"/>
	<path d="M280.8,315c-0.7,0-1.3-0.2-1.8-0.5s-1-0.8-1.3-1.5c-0.3-0.6-0.5-1.4-0.5-2.4c0-0.9,0.2-1.7,0.5-2.4
		c0.3-0.6,0.7-1.1,1.3-1.5s1.2-0.5,1.8-0.5c0.7,0,1.3,0.2,1.9,0.5s1,0.8,1.3,1.5c0.3,0.6,0.5,1.4,0.5,2.4c0,0.9-0.2,1.7-0.5,2.4
		c-0.3,0.6-0.7,1.1-1.3,1.5C282.1,314.8,281.5,315,280.8,315z M280.8,313.3c0.3,0,0.6-0.1,0.9-0.3c0.2-0.2,0.4-0.5,0.6-0.9
		c0.1-0.4,0.2-0.9,0.2-1.5s-0.1-1.1-0.2-1.5s-0.3-0.7-0.6-0.9c-0.2-0.2-0.5-0.3-0.9-0.3c-0.3,0-0.6,0.1-0.8,0.3
		c-0.2,0.2-0.4,0.5-0.6,0.9c-0.1,0.4-0.2,0.9-0.2,1.5s0.1,1.1,0.2,1.5s0.3,0.7,0.6,0.9C280.2,313.2,280.5,313.3,280.8,313.3z"/>
	<path d="M288.9,315c-0.7,0-1.3-0.2-1.8-0.5s-1-0.8-1.3-1.5c-0.3-0.6-0.5-1.4-0.5-2.4c0-0.9,0.2-1.7,0.5-2.4
		c0.3-0.6,0.7-1.1,1.3-1.5s1.2-0.5,1.8-0.5c0.7,0,1.3,0.2,1.9,0.5s1,0.8,1.3,1.5c0.3,0.6,0.5,1.4,0.5,2.4c0,0.9-0.2,1.7-0.5,2.4
		c-0.3,0.6-0.7,1.1-1.3,1.5C290.2,314.8,289.6,315,288.9,315z M288.9,313.3c0.3,0,0.6-0.1,0.9-0.3c0.2-0.2,0.4-0.5,0.6-0.9
		c0.1-0.4,0.2-0.9,0.2-1.5s-0.1-1.1-0.2-1.5s-0.3-0.7-0.6-0.9c-0.2-0.2-0.5-0.3-0.9-0.3c-0.3,0-0.6,0.1-0.8,0.3
		c-0.2,0.2-0.4,0.5-0.6,0.9c-0.1,0.4-0.2,0.9-0.2,1.5s0.1,1.1,0.2,1.5s0.3,0.7,0.6,0.9C288.3,313.2,288.6,313.3,288.9,313.3z"/>
</g>
<g>
	<path d="M179.7,306.3c0.8,0,1.4,0.2,2,0.5s1,0.8,1.3,1.4s0.5,1.4,0.5,2.3c0,1-0.2,1.8-0.5,2.5s-0.9,1.2-1.5,1.5
		c-0.6,0.4-1.4,0.5-2.2,0.5c-0.4,0-0.9,0-1.3-0.1s-0.8-0.2-1.1-0.4l0.7-1.4c0.2,0.2,0.5,0.3,0.8,0.3c0.3,0.1,0.5,0.1,0.8,0.1
		c0.7,0,1.3-0.2,1.7-0.7c0.4-0.4,0.6-1.1,0.6-1.9c0-0.1,0-0.3,0-0.5s0-0.4-0.1-0.5l0.5,0.5c-0.1,0.3-0.3,0.6-0.6,0.8
		c-0.2,0.2-0.5,0.4-0.9,0.5c-0.3,0.1-0.7,0.2-1.1,0.2c-0.5,0-1-0.1-1.5-0.3c-0.4-0.2-0.8-0.5-1-0.9c-0.3-0.4-0.4-0.9-0.4-1.4
		c0-0.6,0.1-1.1,0.4-1.5c0.3-0.4,0.7-0.7,1.2-1C178.6,306.4,179.1,306.3,179.7,306.3z M179.8,307.7c-0.3,0-0.5,0-0.7,0.1
		s-0.4,0.2-0.5,0.4c-0.1,0.2-0.2,0.4-0.2,0.7c0,0.4,0.1,0.7,0.4,0.9c0.3,0.2,0.6,0.3,1,0.3c0.3,0,0.5-0.1,0.8-0.2
		c0.2-0.1,0.4-0.3,0.5-0.5s0.2-0.4,0.2-0.7c0-0.2-0.1-0.4-0.2-0.6c-0.1-0.2-0.3-0.3-0.5-0.4C180.4,307.8,180.1,307.7,179.8,307.7z"
		/>
	<path d="M188,315c-0.7,0-1.3-0.2-1.8-0.5s-1-0.8-1.3-1.5c-0.3-0.6-0.5-1.4-0.5-2.4c0-0.9,0.2-1.7,0.5-2.4c0.3-0.6,0.7-1.1,1.3-1.5
		s1.2-0.5,1.8-0.5c0.7,0,1.3,0.2,1.9,0.5s1,0.8,1.3,1.5c0.3,0.6,0.5,1.4,0.5,2.4c0,0.9-0.2,1.7-0.5,2.4c-0.3,0.6-0.7,1.1-1.3,1.5
		C189.3,314.8,188.7,315,188,315z M188,313.3c0.3,0,0.6-0.1,0.9-0.3c0.2-0.2,0.4-0.5,0.6-0.9c0.1-0.4,0.2-0.9,0.2-1.5
		s-0.1-1.1-0.2-1.5c-0.1-0.4-0.3-0.7-0.6-0.9c-0.2-0.2-0.5-0.3-0.9-0.3c-0.3,0-0.6,0.1-0.8,0.3c-0.2,0.2-0.4,0.5-0.6,0.9
		c-0.1,0.4-0.2,0.9-0.2,1.5s0.1,1.1,0.2,1.5c0.1,0.4,0.3,0.7,0.6,0.9C187.4,313.2,187.7,313.3,188,313.3z"/>
	<path d="M196.1,315c-0.7,0-1.3-0.2-1.8-0.5s-1-0.8-1.3-1.5c-0.3-0.6-0.5-1.4-0.5-2.4c0-0.9,0.2-1.7,0.5-2.4
		c0.3-0.6,0.7-1.1,1.3-1.5s1.2-0.5,1.8-0.5c0.7,0,1.3,0.2,1.9,0.5s1,0.8,1.3,1.5c0.3,0.6,0.5,1.4,0.5,2.4c0,0.9-0.2,1.7-0.5,2.4
		c-0.3,0.6-0.7,1.1-1.3,1.5C197.4,314.8,196.8,315,196.1,315z M196.1,313.3c0.3,0,0.6-0.1,0.9-0.3c0.2-0.2,0.4-0.5,0.6-0.9
		c0.1-0.4,0.2-0.9,0.2-1.5s-0.1-1.1-0.2-1.5c-0.1-0.4-0.3-0.7-0.6-0.9c-0.2-0.2-0.5-0.3-0.9-0.3c-0.3,0-0.6,0.1-0.8,0.3
		c-0.2,0.2-0.4,0.5-0.6,0.9c-0.1,0.4-0.2,0.9-0.2,1.5s0.1,1.1,0.2,1.5c0.1,0.4,0.3,0.7,0.6,0.9C195.5,313.2,195.8,313.3,196.1,313.3
		z"/>
</g>
<g>
	<path d="M82.8,314.8v-7.7l0.8,0.8h-2.5v-1.6h3.6v8.4h-1.9V314.8z"/>
	<path d="M89.8,315c-0.7,0-1.3-0.2-1.8-0.5s-1-0.8-1.3-1.5c-0.3-0.6-0.5-1.4-0.5-2.4c0-0.9,0.2-1.7,0.5-2.4c0.3-0.6,0.7-1.1,1.3-1.5
		s1.2-0.5,1.8-0.5c0.7,0,1.3,0.2,1.9,0.5s1,0.8,1.3,1.5c0.3,0.6,0.5,1.4,0.5,2.4c0,0.9-0.2,1.7-0.5,2.4c-0.3,0.6-0.7,1.1-1.3,1.5
		C91.1,314.8,90.5,315,89.8,315z M89.8,313.3c0.3,0,0.6-0.1,0.9-0.3c0.2-0.2,0.4-0.5,0.6-0.9c0.1-0.4,0.2-0.9,0.2-1.5
		s-0.1-1.1-0.2-1.5s-0.3-0.7-0.6-0.9c-0.2-0.2-0.5-0.3-0.9-0.3c-0.3,0-0.6,0.1-0.8,0.3c-0.2,0.2-0.4,0.5-0.6,0.9
		c-0.1,0.4-0.2,0.9-0.2,1.5s0.1,1.1,0.2,1.5s0.3,0.7,0.6,0.9C89.2,313.2,89.5,313.3,89.8,313.3z"/>
	<path d="M97.9,315c-0.7,0-1.3-0.2-1.8-0.5s-1-0.8-1.3-1.5c-0.3-0.6-0.5-1.4-0.5-2.4c0-0.9,0.2-1.7,0.5-2.4c0.3-0.6,0.7-1.1,1.3-1.5
		s1.2-0.5,1.8-0.5c0.7,0,1.3,0.2,1.9,0.5s1,0.8,1.3,1.5c0.3,0.6,0.5,1.4,0.5,2.4c0,0.9-0.2,1.7-0.5,2.4c-0.3,0.6-0.7,1.1-1.3,1.5
		C99.3,314.8,98.6,315,97.9,315z M97.9,313.3c0.3,0,0.6-0.1,0.9-0.3c0.2-0.2,0.4-0.5,0.6-0.9c0.1-0.4,0.2-0.9,0.2-1.5
		s-0.1-1.1-0.2-1.5s-0.3-0.7-0.6-0.9c-0.2-0.2-0.5-0.3-0.9-0.3c-0.3,0-0.6,0.1-0.8,0.3c-0.2,0.2-0.4,0.5-0.6,0.9
		c-0.1,0.4-0.2,0.9-0.2,1.5s0.1,1.1,0.2,1.5s0.3,0.7,0.6,0.9C97.3,313.2,97.6,313.3,97.9,313.3z"/>
	<path d="M106.1,315c-0.7,0-1.3-0.2-1.8-0.5s-1-0.8-1.3-1.5c-0.3-0.6-0.5-1.4-0.5-2.4c0-0.9,0.2-1.7,0.5-2.4
		c0.3-0.6,0.7-1.1,1.3-1.5s1.2-0.5,1.8-0.5c0.7,0,1.3,0.2,1.9,0.5s1,0.8,1.3,1.5c0.3,0.6,0.5,1.4,0.5,2.4c0,0.9-0.2,1.7-0.5,2.4
		c-0.3,0.6-0.7,1.1-1.3,1.5C107.4,314.8,106.8,315,106.1,315z M106.1,313.3c0.3,0,0.6-0.1,0.9-0.3c0.2-0.2,0.4-0.5,0.6-0.9
		c0.1-0.4,0.2-0.9,0.2-1.5s-0.1-1.1-0.2-1.5s-0.3-0.7-0.6-0.9c-0.2-0.2-0.5-0.3-0.9-0.3c-0.3,0-0.6,0.1-0.8,0.3
		c-0.2,0.2-0.4,0.5-0.6,0.9c-0.1,0.4-0.2,0.9-0.2,1.5s0.1,1.1,0.2,1.5s0.3,0.7,0.6,0.9C105.5,313.2,105.8,313.3,106.1,313.3z"/>
</g>
<g>
	<path d="M1022.1,315c-0.7,0-1.3-0.2-1.8-0.5s-1-0.8-1.3-1.5c-0.3-0.6-0.5-1.4-0.5-2.4c0-0.9,0.2-1.7,0.5-2.4
		c0.3-0.6,0.7-1.1,1.3-1.5s1.2-0.5,1.8-0.5c0.7,0,1.3,0.2,1.9,0.5c0.6,0.3,1,0.8,1.3,1.5c0.3,0.6,0.5,1.4,0.5,2.4
		c0,0.9-0.2,1.7-0.5,2.4c-0.3,0.6-0.7,1.1-1.3,1.5C1023.4,314.8,1022.8,315,1022.1,315z M1022.1,313.3c0.3,0,0.6-0.1,0.9-0.3
		c0.2-0.2,0.4-0.5,0.6-0.9c0.1-0.4,0.2-0.9,0.2-1.5s-0.1-1.1-0.2-1.5c-0.1-0.4-0.3-0.7-0.6-0.9c-0.2-0.2-0.5-0.3-0.9-0.3
		c-0.3,0-0.6,0.1-0.8,0.3c-0.2,0.2-0.4,0.5-0.6,0.9c-0.1,0.4-0.2,0.9-0.2,1.5s0.1,1.1,0.2,1.5c0.1,0.4,0.3,0.7,0.6,0.9
		C1021.5,313.2,1021.8,313.3,1022.1,313.3z"/>
</g>
<g>
	<path id="Montserrat-SemiBold-20" class="st7" d="M26.3,206.8"/>
	<path id="Montserrat-SemiBold-33_00000116921930675429455790000017528025793020246676_" class="st7" d="M40.7,207.1
		c-1.3,0-2.6-0.2-3.9-0.6c-1.3-0.4-2.3-0.9-3.2-1.6l1.5-2.7c0.7,0.6,1.5,1,2.5,1.3c1,0.3,2,0.5,3,0.5c1.2,0,2.2-0.3,2.9-0.8
		c0.7-0.5,1-1.2,1-2.1c0-0.9-0.3-1.5-1-2c-0.6-0.5-1.7-0.7-3.1-0.7h-1.7v-2.4l5.3-6.3l0.5,1.3h-10v-2.9h12.7v2.3l-5.3,6.3l-1.8-1.1
		h1c2.3,0,4,0.5,5.2,1.5c1.1,1,1.7,2.3,1.7,3.9c0,1.1-0.3,2-0.8,2.9c-0.5,0.9-1.3,1.6-2.4,2.1C43.8,206.8,42.4,207.1,40.7,207.1z"/>
	<path id="Montserrat-SemiBold-25_00000006678547551427500010000007404777011831554461_" class="st7" d="M53,206.8l12.7-18.7h2.6
		l-12.7,18.7H53z M54.5,198.2c-0.9,0-1.6-0.2-2.3-0.6c-0.7-0.4-1.2-1-1.6-1.8c-0.4-0.8-0.6-1.7-0.6-2.7s0.2-1.9,0.6-2.7
		c0.4-0.8,0.9-1.4,1.6-1.8c0.7-0.4,1.4-0.6,2.3-0.6c0.9,0,1.7,0.2,2.4,0.6c0.7,0.4,1.2,1,1.6,1.8c0.4,0.8,0.6,1.7,0.6,2.7
		s-0.2,1.9-0.6,2.7c-0.4,0.8-0.9,1.4-1.6,1.8C56.2,198,55.4,198.2,54.5,198.2z M54.5,196.3c0.7,0,1.3-0.3,1.7-0.8
		c0.4-0.6,0.6-1.4,0.6-2.4c0-1.1-0.2-1.9-0.6-2.4c-0.4-0.6-1-0.8-1.7-0.8c-0.7,0-1.3,0.3-1.7,0.9c-0.4,0.6-0.6,1.4-0.6,2.4
		s0.2,1.8,0.6,2.4C53.3,196,53.8,196.3,54.5,196.3z M66.8,207c-0.9,0-1.6-0.2-2.3-0.6c-0.7-0.4-1.2-1-1.6-1.8
		c-0.4-0.8-0.6-1.7-0.6-2.7s0.2-1.9,0.6-2.7c0.4-0.8,0.9-1.4,1.6-1.8c0.7-0.4,1.4-0.6,2.3-0.6c0.9,0,1.7,0.2,2.4,0.6
		c0.7,0.4,1.2,1,1.6,1.8c0.4,0.8,0.6,1.7,0.6,2.7s-0.2,1.9-0.6,2.7c-0.4,0.8-0.9,1.4-1.6,1.8C68.5,206.8,67.7,207,66.8,207z
		 M66.8,205.1c0.7,0,1.3-0.3,1.7-0.9s0.6-1.4,0.6-2.4s-0.2-1.8-0.6-2.4s-1-0.9-1.7-0.9c-0.7,0-1.3,0.3-1.7,0.8
		c-0.4,0.6-0.6,1.4-0.6,2.4c0,1.1,0.2,1.9,0.6,2.4C65.5,204.8,66.1,205.1,66.8,205.1z"/>
	<path id="Montserrat-SemiBold-20_00000103227318472247793760000009358379281658980251_" class="st7" d="M119,216.9"/>
	<path id="Montserrat-SemiBold-32_00000086652811220330551160000012121090071626791868_" class="st7" d="M127.3,216.9v-2.3l7.4-7
		c0.6-0.6,1.1-1.1,1.4-1.6c0.3-0.4,0.5-0.9,0.6-1.2c0.1-0.4,0.1-0.7,0.1-1.1c0-0.9-0.3-1.5-0.9-2c-0.6-0.5-1.4-0.7-2.6-0.7
		c-0.9,0-1.7,0.2-2.5,0.5c-0.7,0.3-1.4,0.8-1.9,1.5l-2.4-1.9c0.7-1,1.7-1.7,2.9-2.3c1.2-0.5,2.6-0.8,4.2-0.8c1.4,0,2.5,0.2,3.5,0.7
		c1,0.4,1.8,1.1,2.3,1.9c0.5,0.8,0.8,1.8,0.8,2.9c0,0.6-0.1,1.2-0.2,1.8c-0.2,0.6-0.5,1.2-0.9,1.9c-0.4,0.7-1.1,1.4-1.9,2.2
		l-6.4,6.1l-0.7-1.3H141v2.9H127.3z"/>
	<path id="Montserrat-SemiBold-25_00000155106294573934524550000007287067465027273388_" class="st7" d="M145.6,216.9l12.7-18.7h2.6
		l-12.7,18.7H145.6z M147.2,208.3c-0.9,0-1.6-0.2-2.3-0.6c-0.7-0.4-1.2-1-1.6-1.8c-0.4-0.8-0.6-1.7-0.6-2.7s0.2-1.9,0.6-2.7
		c0.4-0.8,0.9-1.4,1.6-1.8c0.7-0.4,1.4-0.6,2.3-0.6c0.9,0,1.7,0.2,2.4,0.6c0.7,0.4,1.2,1,1.6,1.8c0.4,0.8,0.6,1.7,0.6,2.7
		s-0.2,1.9-0.6,2.7c-0.4,0.8-0.9,1.4-1.6,1.8C148.9,208.1,148.1,208.3,147.2,208.3z M147.2,206.4c0.7,0,1.3-0.3,1.7-0.8
		c0.4-0.6,0.6-1.4,0.6-2.4c0-1.1-0.2-1.9-0.6-2.4c-0.4-0.6-1-0.8-1.7-0.8c-0.7,0-1.3,0.3-1.7,0.9c-0.4,0.6-0.6,1.4-0.6,2.4
		s0.2,1.8,0.6,2.4C145.9,206.1,146.5,206.4,147.2,206.4z M159.4,217.1c-0.9,0-1.6-0.2-2.3-0.6c-0.7-0.4-1.2-1-1.6-1.8
		c-0.4-0.8-0.6-1.7-0.6-2.7c0-1,0.2-1.9,0.6-2.7c0.4-0.8,0.9-1.4,1.6-1.8c0.7-0.4,1.4-0.6,2.3-0.6c0.9,0,1.7,0.2,2.4,0.6
		c0.7,0.4,1.2,1,1.6,1.8c0.4,0.8,0.6,1.7,0.6,2.7c0,1-0.2,1.9-0.6,2.7c-0.4,0.8-0.9,1.4-1.6,1.8
		C161.1,216.9,160.3,217.1,159.4,217.1z M159.4,215.2c0.7,0,1.3-0.3,1.7-0.9c0.4-0.6,0.6-1.4,0.6-2.4c0-1-0.2-1.8-0.6-2.4
		s-1-0.9-1.7-0.9c-0.7,0-1.3,0.3-1.7,0.8c-0.4,0.6-0.6,1.4-0.6,2.4c0,1.1,0.2,1.9,0.6,2.4C158.2,214.9,158.7,215.2,159.4,215.2z"/>
	<path id="Montserrat-SemiBold-20_00000071527762629033688030000010635046900757372861_" class="st7" d="M211.6,206.8"/>
	<path id="Montserrat-SemiBold-33_00000090995389819445794140000011765681705056819632_" class="st7" d="M226,207.1
		c-1.3,0-2.6-0.2-3.9-0.6c-1.3-0.4-2.3-0.9-3.2-1.6l1.5-2.7c0.7,0.6,1.5,1,2.5,1.3c1,0.3,2,0.5,3,0.5c1.2,0,2.2-0.3,2.9-0.8
		c0.7-0.5,1-1.2,1-2.1c0-0.9-0.3-1.5-1-2c-0.6-0.5-1.7-0.7-3.1-0.7h-1.7v-2.4l5.3-6.3l0.5,1.3h-10v-2.9h12.7v2.3l-5.3,6.3l-1.8-1.1
		h1c2.3,0,4,0.5,5.2,1.5c1.1,1,1.7,2.3,1.7,3.9c0,1.1-0.3,2-0.8,2.9c-0.5,0.9-1.3,1.6-2.4,2.1C229.1,206.8,227.7,207.1,226,207.1z"
		/>
	<path id="Montserrat-SemiBold-25_00000152981687321215022840000000043915232605864634_" class="st7" d="M238.3,206.8l12.7-18.7h2.6
		l-12.7,18.7H238.3z M239.8,198.2c-0.9,0-1.6-0.2-2.3-0.6c-0.7-0.4-1.2-1-1.6-1.8c-0.4-0.8-0.6-1.7-0.6-2.7s0.2-1.9,0.6-2.7
		c0.4-0.8,0.9-1.4,1.6-1.8c0.7-0.4,1.4-0.6,2.3-0.6c0.9,0,1.7,0.2,2.4,0.6c0.7,0.4,1.2,1,1.6,1.8c0.4,0.8,0.6,1.7,0.6,2.7
		s-0.2,1.9-0.6,2.7c-0.4,0.8-0.9,1.4-1.6,1.8C241.5,198,240.7,198.2,239.8,198.2z M239.9,196.3c0.7,0,1.3-0.3,1.7-0.8
		c0.4-0.6,0.6-1.4,0.6-2.4c0-1.1-0.2-1.9-0.6-2.4c-0.4-0.6-1-0.8-1.7-0.8s-1.3,0.3-1.7,0.9s-0.6,1.4-0.6,2.4s0.2,1.8,0.6,2.4
		S239.1,196.3,239.9,196.3z M252.1,207c-0.9,0-1.6-0.2-2.3-0.6c-0.7-0.4-1.2-1-1.6-1.8c-0.4-0.8-0.6-1.7-0.6-2.7s0.2-1.9,0.6-2.7
		c0.4-0.8,0.9-1.4,1.6-1.8c0.7-0.4,1.4-0.6,2.3-0.6c0.9,0,1.7,0.2,2.4,0.6c0.7,0.4,1.2,1,1.6,1.8c0.4,0.8,0.6,1.7,0.6,2.7
		s-0.2,1.9-0.6,2.7c-0.4,0.8-0.9,1.4-1.6,1.8C253.8,206.8,253,207,252.1,207z M252.1,205.1c0.7,0,1.3-0.3,1.7-0.9s0.6-1.4,0.6-2.4
		s-0.2-1.8-0.6-2.4s-1-0.9-1.7-0.9c-0.7,0-1.3,0.3-1.7,0.8c-0.4,0.6-0.6,1.4-0.6,2.4c0,1.1,0.2,1.9,0.6,2.4
		C250.8,204.8,251.4,205.1,252.1,205.1z"/>
	<path id="Montserrat-SemiBold-20_00000163772833841187086250000004119251856976229546_" class="st7" d="M304.3,186.6"/>
	<path id="Montserrat-SemiBold-35" class="st7" d="M319,186.9c-1.3,0-2.6-0.2-3.9-0.6c-1.3-0.4-2.3-0.9-3.2-1.6l1.5-2.7
		c0.7,0.6,1.5,1,2.5,1.3c1,0.3,2,0.5,3,0.5c1.2,0,2.2-0.3,2.9-0.8c0.7-0.5,1.1-1.2,1.1-2.1c0-0.6-0.1-1.1-0.4-1.5
		c-0.3-0.4-0.8-0.8-1.5-1c-0.7-0.2-1.7-0.4-3-0.4h-4.5l1-10.2h11v2.9h-9.7l1.8-1.7l-0.7,7.6l-1.8-1.6h3.8c1.9,0,3.3,0.2,4.5,0.7
		c1.1,0.5,2,1.2,2.5,2c0.5,0.9,0.8,1.8,0.8,2.9c0,1.1-0.3,2.1-0.8,3c-0.5,0.9-1.3,1.6-2.4,2.2C322,186.6,320.6,186.9,319,186.9z"/>
	<path id="Montserrat-SemiBold-25_00000047061663150051120480000008528964235858977445_" class="st7" d="M331,186.6l12.7-18.7h2.6
		l-12.7,18.7H331z M332.5,178c-0.9,0-1.6-0.2-2.3-0.6c-0.7-0.4-1.2-1-1.6-1.8c-0.4-0.8-0.6-1.7-0.6-2.7s0.2-1.9,0.6-2.7
		c0.4-0.8,0.9-1.4,1.6-1.8c0.7-0.4,1.4-0.6,2.3-0.6c0.9,0,1.7,0.2,2.4,0.6c0.7,0.4,1.2,1,1.6,1.8c0.4,0.8,0.6,1.7,0.6,2.7
		s-0.2,1.9-0.6,2.7c-0.4,0.8-0.9,1.4-1.6,1.8C334.2,177.8,333.4,178,332.5,178z M332.5,176.1c0.7,0,1.3-0.3,1.7-0.8
		c0.4-0.6,0.6-1.4,0.6-2.4c0-1.1-0.2-1.9-0.6-2.4c-0.4-0.6-1-0.8-1.7-0.8s-1.3,0.3-1.7,0.9s-0.6,1.4-0.6,2.4s0.2,1.8,0.6,2.4
		S331.8,176.1,332.5,176.1z M344.8,186.8c-0.9,0-1.6-0.2-2.3-0.6c-0.7-0.4-1.2-1-1.6-1.8c-0.4-0.8-0.6-1.7-0.6-2.7s0.2-1.9,0.6-2.7
		c0.4-0.8,0.9-1.4,1.6-1.8c0.7-0.4,1.4-0.6,2.3-0.6c0.9,0,1.7,0.2,2.4,0.6c0.7,0.4,1.2,1,1.6,1.8c0.4,0.8,0.6,1.7,0.6,2.7
		s-0.2,1.9-0.6,2.7c-0.4,0.8-0.9,1.4-1.6,1.8C346.5,186.6,345.7,186.8,344.8,186.8z M344.8,184.9c0.7,0,1.3-0.3,1.7-0.9
		c0.4-0.6,0.6-1.4,0.6-2.4s-0.2-1.8-0.6-2.4s-1-0.9-1.7-0.9c-0.7,0-1.3,0.3-1.7,0.8c-0.4,0.6-0.6,1.4-0.6,2.4c0,1.1,0.2,1.9,0.6,2.4
		C343.5,184.6,344.1,184.9,344.8,184.9z"/>
	<path id="Montserrat-SemiBold-20_00000064333144749864567880000002089831115031875720_" class="st7" d="M396,156.3"/>
	<path id="Montserrat-SemiBold-38" class="st7" d="M412,156.5c-1.5,0-2.9-0.2-4-0.7c-1.1-0.5-2-1.1-2.6-2c-0.6-0.8-0.9-1.8-0.9-3
		c0-1.1,0.3-2.1,0.9-2.9c0.6-0.8,1.5-1.4,2.6-1.8c1.1-0.4,2.5-0.6,4.1-0.6c1.6,0,2.9,0.2,4.1,0.6c1.1,0.4,2,1,2.6,1.8
		c0.6,0.8,0.9,1.7,0.9,2.9c0,1.1-0.3,2.1-1,3c-0.6,0.8-1.5,1.5-2.7,2C414.9,156.3,413.6,156.5,412,156.5z M412,153.8
		c1.3,0,2.3-0.3,3-0.8c0.7-0.5,1.1-1.3,1.1-2.2c0-0.9-0.4-1.7-1.1-2.2c-0.7-0.5-1.8-0.8-3-0.8c-1.3,0-2.3,0.3-3,0.8
		c-0.7,0.5-1.1,1.3-1.1,2.2c0,0.9,0.4,1.7,1.1,2.2C409.7,153.6,410.7,153.8,412,153.8z M412,147.5c-1.4,0-2.7-0.2-3.7-0.6
		c-1-0.4-1.8-0.9-2.4-1.7c-0.6-0.7-0.8-1.6-0.8-2.7c0-1.1,0.3-2,0.9-2.8c0.6-0.8,1.4-1.4,2.4-1.8c1.1-0.4,2.3-0.6,3.6-0.6
		c1.4,0,2.6,0.2,3.7,0.6c1.1,0.4,1.9,1,2.5,1.8c0.6,0.8,0.9,1.7,0.9,2.8c0,1-0.3,1.9-0.8,2.7c-0.6,0.7-1.4,1.3-2.4,1.7
		C414.7,147.3,413.5,147.5,412,147.5z M412,145.3c1.1,0,2-0.2,2.6-0.7c0.6-0.5,1-1.1,1-1.9c0-0.8-0.3-1.5-1-1.9
		c-0.7-0.5-1.5-0.7-2.6-0.7s-1.9,0.2-2.6,0.7c-0.6,0.5-1,1.1-1,1.9c0,0.8,0.3,1.4,0.9,1.9C410.1,145.1,410.9,145.3,412,145.3z"/>
	<path id="Montserrat-SemiBold-25_00000167388248871251266580000009814087252376518034_" class="st7" d="M424.5,156.3l12.7-18.7h2.6
		l-12.7,18.7H424.5z M426.1,147.7c-0.9,0-1.6-0.2-2.3-0.6c-0.7-0.4-1.2-1-1.6-1.8c-0.4-0.8-0.6-1.7-0.6-2.7s0.2-1.9,0.6-2.7
		c0.4-0.8,0.9-1.4,1.6-1.8c0.7-0.4,1.4-0.6,2.3-0.6c0.9,0,1.7,0.2,2.4,0.6c0.7,0.4,1.2,1,1.6,1.8c0.4,0.8,0.6,1.7,0.6,2.7
		s-0.2,1.9-0.6,2.7c-0.4,0.8-0.9,1.4-1.6,1.8C427.8,147.5,427,147.7,426.1,147.7z M426.1,145.8c0.7,0,1.3-0.3,1.7-0.8
		c0.4-0.6,0.6-1.4,0.6-2.4c0-1.1-0.2-1.9-0.6-2.4c-0.4-0.6-1-0.8-1.7-0.8c-0.7,0-1.3,0.3-1.7,0.9s-0.6,1.4-0.6,2.4s0.2,1.8,0.6,2.4
		C424.8,145.5,425.4,145.8,426.1,145.8z M438.3,156.5c-0.9,0-1.6-0.2-2.3-0.6c-0.7-0.4-1.2-1-1.6-1.8c-0.4-0.8-0.6-1.7-0.6-2.7
		c0-1,0.2-1.9,0.6-2.7c0.4-0.8,0.9-1.4,1.6-1.8c0.7-0.4,1.4-0.6,2.3-0.6c0.9,0,1.7,0.2,2.4,0.6c0.7,0.4,1.2,1,1.6,1.8
		c0.4,0.8,0.6,1.7,0.6,2.7c0,1-0.2,1.9-0.6,2.7c-0.4,0.8-0.9,1.4-1.6,1.8C440,156.3,439.2,156.5,438.3,156.5z M438.3,154.6
		c0.7,0,1.3-0.3,1.7-0.9c0.4-0.6,0.6-1.4,0.6-2.4c0-1-0.2-1.8-0.6-2.4s-1-0.9-1.7-0.9c-0.7,0-1.3,0.3-1.7,0.8
		c-0.4,0.6-0.6,1.4-0.6,2.4c0,1.1,0.2,1.9,0.6,2.4C437.1,154.3,437.6,154.6,438.3,154.6z"/>
	<path id="Montserrat-SemiBold-25_00000075847675373978742590000001770385188602282660_" class="st7" d="M517.7,105.7L530.4,87h2.6
		l-12.7,18.7H517.7z M519.2,97.1c-0.9,0-1.6-0.2-2.3-0.6c-0.7-0.4-1.2-1-1.6-1.8c-0.4-0.8-0.6-1.7-0.6-2.7c0-1,0.2-1.9,0.6-2.7
		c0.4-0.8,0.9-1.4,1.6-1.8c0.7-0.4,1.4-0.6,2.3-0.6c0.9,0,1.7,0.2,2.4,0.6c0.7,0.4,1.2,1,1.6,1.8c0.4,0.8,0.6,1.7,0.6,2.7
		c0,1-0.2,1.9-0.6,2.7c-0.4,0.8-0.9,1.4-1.6,1.8C520.9,96.9,520.1,97.1,519.2,97.1z M519.2,95.2c0.7,0,1.3-0.3,1.7-0.8
		c0.4-0.6,0.6-1.4,0.6-2.4s-0.2-1.9-0.6-2.4c-0.4-0.6-1-0.8-1.7-0.8c-0.7,0-1.3,0.3-1.7,0.9c-0.4,0.6-0.6,1.4-0.6,2.4
		c0,1,0.2,1.8,0.6,2.4S518.5,95.2,519.2,95.2z M531.4,105.9c-0.9,0-1.6-0.2-2.3-0.6c-0.7-0.4-1.2-1-1.6-1.8
		c-0.4-0.8-0.6-1.7-0.6-2.7s0.2-1.9,0.6-2.7c0.4-0.8,0.9-1.4,1.6-1.8c0.7-0.4,1.4-0.6,2.3-0.6c0.9,0,1.7,0.2,2.4,0.6
		c0.7,0.4,1.2,1,1.6,1.8c0.4,0.8,0.6,1.7,0.6,2.7s-0.2,1.9-0.6,2.7c-0.4,0.8-0.9,1.4-1.6,1.8C533.1,105.7,532.4,105.9,531.4,105.9z
		 M531.4,104c0.7,0,1.3-0.3,1.7-0.9c0.4-0.6,0.6-1.4,0.6-2.4s-0.2-1.8-0.6-2.4c-0.4-0.6-1-0.9-1.7-0.9c-0.7,0-1.3,0.3-1.7,0.8
		c-0.4,0.6-0.6,1.4-0.6,2.4s0.2,1.9,0.6,2.4C530.2,103.7,530.8,104,531.4,104z"/>
	<path id="Montserrat-SemiBold-31_00000089559387493478796400000017415367202998753176_" class="st7" d="M583.7,90.6V73.3l1.5,1.6
		h-5.5v-2.9h7.4v18.7H583.7z"/>
	<path id="Montserrat-SemiBold-34_00000067219395237872020760000012052696529735327663_" class="st7" d="M590.6,86.4V84l9.2-12h3.7
		l-9.1,12l-1.7-0.5h14.8v2.9H590.6z M600.9,90.6v-4.2l0.1-2.9v-3.8h3.3v10.9H600.9z"/>
	<path id="Montserrat-SemiBold-25_00000132802579328706147970000012707202864775515809_" class="st7" d="M611.6,90.6l12.7-18.7h2.6
		l-12.7,18.7H611.6z M613.2,82c-0.9,0-1.6-0.2-2.3-0.6c-0.7-0.4-1.2-1-1.6-1.8c-0.4-0.8-0.6-1.7-0.6-2.7s0.2-1.9,0.6-2.7
		c0.4-0.8,0.9-1.4,1.6-1.8c0.7-0.4,1.4-0.6,2.3-0.6c0.9,0,1.7,0.2,2.4,0.6c0.7,0.4,1.2,1,1.6,1.8c0.4,0.8,0.6,1.7,0.6,2.7
		s-0.2,1.9-0.6,2.7c-0.4,0.8-0.9,1.4-1.6,1.8C614.8,81.8,614.1,82,613.2,82z M613.2,80.1c0.7,0,1.3-0.3,1.7-0.8
		c0.4-0.6,0.6-1.4,0.6-2.4s-0.2-1.9-0.6-2.4c-0.4-0.6-1-0.8-1.7-0.8c-0.7,0-1.3,0.3-1.7,0.9s-0.6,1.4-0.6,2.4s0.2,1.8,0.6,2.4
		C611.9,79.8,612.5,80.1,613.2,80.1z M625.4,90.8c-0.9,0-1.6-0.2-2.3-0.6c-0.7-0.4-1.2-1-1.6-1.8c-0.4-0.8-0.6-1.7-0.6-2.7
		c0-1,0.2-1.9,0.6-2.7c0.4-0.8,0.9-1.4,1.6-1.8c0.7-0.4,1.4-0.6,2.3-0.6c0.9,0,1.7,0.2,2.4,0.6c0.7,0.4,1.2,1,1.6,1.8
		c0.4,0.8,0.6,1.7,0.6,2.7c0,1-0.2,1.9-0.6,2.7c-0.4,0.8-0.9,1.4-1.6,1.8C627.1,90.6,626.3,90.8,625.4,90.8z M625.4,88.9
		c0.7,0,1.3-0.3,1.7-0.9c0.4-0.6,0.6-1.4,0.6-2.4c0-1-0.2-1.8-0.6-2.4c-0.4-0.6-1-0.9-1.7-0.9c-0.7,0-1.3,0.3-1.7,0.8
		c-0.4,0.6-0.6,1.4-0.6,2.4s0.2,1.9,0.6,2.4C624.1,88.7,624.7,88.9,625.4,88.9z"/>
	<path id="Montserrat-SemiBold-31_00000070091730138238498320000005122360597162673824_" class="st7" d="M676.7,55.3V37.9l1.5,1.6
		h-5.5v-2.9h7.4v18.7H676.7z"/>
	<path id="Montserrat-SemiBold-38_00000129916730952665689810000010469665822508362147_" class="st7" d="M691.4,55.5
		c-1.5,0-2.9-0.2-4-0.7c-1.1-0.5-2-1.1-2.6-2c-0.6-0.8-0.9-1.8-0.9-3c0-1.1,0.3-2.1,0.9-2.9c0.6-0.8,1.5-1.4,2.6-1.8
		c1.1-0.4,2.5-0.6,4.1-0.6s2.9,0.2,4.1,0.6c1.1,0.4,2,1,2.6,1.8c0.6,0.8,0.9,1.7,0.9,2.9c0,1.1-0.3,2.1-1,3c-0.6,0.8-1.5,1.5-2.7,2
		C694.3,55.3,692.9,55.5,691.4,55.5z M691.4,52.8c1.3,0,2.3-0.3,3-0.8c0.7-0.5,1.1-1.3,1.1-2.2c0-0.9-0.4-1.7-1.1-2.2
		c-0.7-0.5-1.8-0.8-3-0.8s-2.3,0.3-3,0.8c-0.7,0.5-1.1,1.3-1.1,2.2c0,0.9,0.4,1.7,1.1,2.2C689.1,52.5,690.1,52.8,691.4,52.8z
		 M691.4,46.4c-1.4,0-2.7-0.2-3.7-0.6c-1-0.4-1.8-0.9-2.4-1.7c-0.6-0.7-0.8-1.6-0.8-2.7c0-1.1,0.3-2,0.9-2.8
		c0.6-0.8,1.4-1.4,2.4-1.8c1.1-0.4,2.3-0.6,3.6-0.6c1.4,0,2.6,0.2,3.7,0.6c1.1,0.4,1.9,1,2.5,1.8c0.6,0.8,0.9,1.7,0.9,2.8
		c0,1-0.3,1.9-0.8,2.7c-0.6,0.7-1.4,1.3-2.4,1.7S692.8,46.4,691.4,46.4z M691.4,44.3c1.1,0,2-0.2,2.6-0.7c0.6-0.5,1-1.1,1-1.9
		c0-0.8-0.3-1.5-1-1.9c-0.7-0.5-1.5-0.7-2.6-0.7s-1.9,0.2-2.6,0.7c-0.6,0.5-1,1.1-1,1.9c0,0.8,0.3,1.4,0.9,1.9
		C689.5,44.1,690.3,44.3,691.4,44.3z"/>
	<path id="Montserrat-SemiBold-25_00000007404322283952677960000017414048084047398285_" class="st7" d="M703.9,55.3l12.7-18.7h2.6
		l-12.7,18.7H703.9z M705.5,46.6c-0.9,0-1.6-0.2-2.3-0.6c-0.7-0.4-1.2-1-1.6-1.8c-0.4-0.8-0.6-1.7-0.6-2.7c0-1,0.2-1.9,0.6-2.7
		c0.4-0.8,0.9-1.4,1.6-1.8c0.7-0.4,1.4-0.6,2.3-0.6c0.9,0,1.7,0.2,2.4,0.6c0.7,0.4,1.2,1,1.6,1.8c0.4,0.8,0.6,1.7,0.6,2.7
		c0,1-0.2,1.9-0.6,2.7c-0.4,0.8-0.9,1.4-1.6,1.8C707.1,46.4,706.4,46.6,705.5,46.6z M705.5,44.8c0.7,0,1.3-0.3,1.7-0.8
		c0.4-0.6,0.6-1.4,0.6-2.4s-0.2-1.9-0.6-2.4c-0.4-0.6-1-0.8-1.7-0.8c-0.7,0-1.3,0.3-1.7,0.9c-0.4,0.6-0.6,1.4-0.6,2.4
		c0,1,0.2,1.8,0.6,2.4C704.2,44.5,704.8,44.8,705.5,44.8z M717.7,55.4c-0.9,0-1.6-0.2-2.3-0.6c-0.7-0.4-1.2-1-1.6-1.8
		c-0.4-0.8-0.6-1.7-0.6-2.7c0-1,0.2-1.9,0.6-2.7c0.4-0.8,0.9-1.4,1.6-1.8c0.7-0.4,1.4-0.6,2.3-0.6c0.9,0,1.7,0.2,2.4,0.6
		c0.7,0.4,1.2,1,1.6,1.8c0.4,0.8,0.6,1.7,0.6,2.7c0,1-0.2,1.9-0.6,2.7c-0.4,0.8-0.9,1.4-1.6,1.8C719.4,55.2,718.6,55.4,717.7,55.4z
		 M717.7,53.6c0.7,0,1.3-0.3,1.7-0.9c0.4-0.6,0.6-1.4,0.6-2.4c0-1-0.2-1.8-0.6-2.4c-0.4-0.6-1-0.9-1.7-0.9c-0.7,0-1.3,0.3-1.7,0.8
		c-0.4,0.6-0.6,1.4-0.6,2.4s0.2,1.9,0.6,2.4C716.4,53.3,717,53.6,717.7,53.6z"/>
	<path id="Montserrat-SemiBold-32_00000095326148705967177450000005976618614987890857_" class="st7" d="M763.2,30v-2.3l7.4-7
		c0.6-0.6,1.1-1.1,1.4-1.6c0.3-0.4,0.5-0.9,0.6-1.2c0.1-0.4,0.1-0.7,0.1-1.1c0-0.9-0.3-1.5-0.9-2c-0.6-0.5-1.4-0.7-2.6-0.7
		c-0.9,0-1.7,0.2-2.5,0.5c-0.7,0.3-1.4,0.8-1.9,1.5l-2.4-1.9c0.7-1,1.7-1.7,2.9-2.3c1.2-0.5,2.6-0.8,4.2-0.8c1.4,0,2.5,0.2,3.5,0.7
		c1,0.4,1.8,1.1,2.3,1.9c0.5,0.8,0.8,1.8,0.8,2.9c0,0.6-0.1,1.2-0.2,1.8c-0.2,0.6-0.5,1.2-0.9,1.9c-0.4,0.7-1.1,1.4-1.9,2.2
		l-6.4,6.1l-0.7-1.3H777V30H763.2z"/>
	<path id="Montserrat-SemiBold-30" class="st7" d="M786.8,30.3c-1.5,0-2.8-0.4-4-1.1c-1.2-0.7-2.1-1.8-2.8-3.3c-0.7-1.4-1-3.2-1-5.2
		s0.3-3.8,1-5.2c0.7-1.4,1.6-2.5,2.8-3.3c1.2-0.7,2.5-1.1,4-1.1c1.5,0,2.8,0.4,4,1.1c1.2,0.7,2.1,1.8,2.8,3.3c0.7,1.4,1,3.2,1,5.2
		s-0.3,3.8-1,5.2c-0.7,1.4-1.6,2.5-2.8,3.3C789.6,29.9,788.2,30.3,786.8,30.3z M786.8,27.3c0.9,0,1.6-0.2,2.3-0.7
		c0.6-0.5,1.1-1.2,1.5-2.2c0.4-1,0.5-2.2,0.5-3.7c0-1.5-0.2-2.8-0.5-3.7s-0.9-1.7-1.5-2.2c-0.6-0.5-1.4-0.7-2.3-0.7
		c-0.8,0-1.6,0.2-2.2,0.7c-0.7,0.5-1.2,1.2-1.5,2.2s-0.5,2.2-0.5,3.7c0,1.5,0.2,2.7,0.5,3.7c0.4,1,0.9,1.7,1.5,2.2
		C785.2,27,785.9,27.3,786.8,27.3z"/>
	<path id="Montserrat-SemiBold-25_00000062886135069915045980000006529061121911900855_" class="st7" d="M799.5,30l12.7-18.7h2.6
		L802.1,30H799.5z M801.1,21.4c-0.9,0-1.6-0.2-2.3-0.6c-0.7-0.4-1.2-1-1.6-1.8c-0.4-0.8-0.6-1.7-0.6-2.7s0.2-1.9,0.6-2.7
		c0.4-0.8,0.9-1.4,1.6-1.8c0.7-0.4,1.4-0.6,2.3-0.6c0.9,0,1.7,0.2,2.4,0.6c0.7,0.4,1.2,1,1.6,1.8c0.4,0.8,0.6,1.7,0.6,2.7
		s-0.2,1.9-0.6,2.7c-0.4,0.8-0.9,1.4-1.6,1.8C802.8,21.2,802,21.4,801.1,21.4z M801.1,19.5c0.7,0,1.3-0.3,1.7-0.8
		c0.4-0.6,0.6-1.4,0.6-2.4s-0.2-1.9-0.6-2.4c-0.4-0.6-1-0.8-1.7-0.8c-0.7,0-1.3,0.3-1.7,0.9c-0.4,0.6-0.6,1.4-0.6,2.4
		s0.2,1.8,0.6,2.4S800.4,19.5,801.1,19.5z M813.3,30.2c-0.9,0-1.6-0.2-2.3-0.6c-0.7-0.4-1.2-1-1.6-1.8c-0.4-0.8-0.6-1.7-0.6-2.7
		s0.2-1.9,0.6-2.7c0.4-0.8,0.9-1.4,1.6-1.8c0.7-0.4,1.4-0.6,2.3-0.6c0.9,0,1.7,0.2,2.4,0.6c0.7,0.4,1.2,1,1.6,1.8
		c0.4,0.8,0.6,1.7,0.6,2.7s-0.2,1.9-0.6,2.7c-0.4,0.8-0.9,1.4-1.6,1.8C815,30,814.2,30.2,813.3,30.2z M813.3,28.3
		c0.7,0,1.3-0.3,1.7-0.9c0.4-0.6,0.6-1.4,0.6-2.4s-0.2-1.8-0.6-2.4c-0.4-0.6-1-0.9-1.7-0.9c-0.7,0-1.3,0.3-1.7,0.8
		c-0.4,0.6-0.6,1.4-0.6,2.4s0.2,1.9,0.6,2.4C812.1,28,812.6,28.3,813.3,28.3z"/>
	<path id="Montserrat-SemiBold-31_00000156567508684429152490000010494508076198712729_" class="st7" d="M863,105.8V88.4l1.5,1.6
		H859v-2.9h7.4v18.7H863z"/>
	<path id="Montserrat-SemiBold-33_00000073721803458525758330000014490788998083408515_" class="st7" d="M876,106
		c-1.3,0-2.6-0.2-3.9-0.6c-1.3-0.4-2.3-0.9-3.2-1.6l1.5-2.7c0.7,0.6,1.5,1,2.5,1.3c1,0.3,2,0.5,3,0.5c1.2,0,2.2-0.3,2.9-0.8
		c0.7-0.5,1-1.2,1-2.1c0-0.9-0.3-1.5-1-2c-0.6-0.5-1.7-0.7-3.1-0.7h-1.7V95l5.3-6.3l0.5,1.3h-10v-2.9h12.7v2.3l-5.3,6.3l-1.8-1.1h1
		c2.3,0,4,0.5,5.2,1.5c1.1,1,1.7,2.3,1.7,3.9c0,1.1-0.3,2-0.8,2.9c-0.5,0.9-1.3,1.6-2.4,2.1C879.1,105.8,877.7,106,876,106z"/>
	<path id="Montserrat-SemiBold-25_00000121966908833042814770000014458578975850901899_" class="st7" d="M888.3,105.8L901,87.1h2.6
		l-12.7,18.7H888.3z M889.8,97.2c-0.9,0-1.6-0.2-2.3-0.6c-0.7-0.4-1.2-1-1.6-1.8c-0.4-0.8-0.6-1.7-0.6-2.7s0.2-1.9,0.6-2.7
		c0.4-0.8,0.9-1.4,1.6-1.8c0.7-0.4,1.4-0.6,2.3-0.6c0.9,0,1.7,0.2,2.4,0.6c0.7,0.4,1.2,1,1.6,1.8c0.4,0.8,0.6,1.7,0.6,2.7
		s-0.2,1.9-0.6,2.7c-0.4,0.8-0.9,1.4-1.6,1.8C891.5,96.9,890.7,97.2,889.8,97.2z M889.9,95.3c0.7,0,1.3-0.3,1.7-0.8
		c0.4-0.6,0.6-1.4,0.6-2.4s-0.2-1.9-0.6-2.4c-0.4-0.6-1-0.8-1.7-0.8c-0.7,0-1.3,0.3-1.7,0.9c-0.4,0.6-0.6,1.4-0.6,2.4
		s0.2,1.8,0.6,2.4S889.2,95.3,889.9,95.3z M902.1,106c-0.9,0-1.6-0.2-2.3-0.6c-0.7-0.4-1.2-1-1.6-1.8c-0.4-0.8-0.6-1.7-0.6-2.7
		c0-1,0.2-1.9,0.6-2.7c0.4-0.8,0.9-1.4,1.6-1.8c0.7-0.4,1.4-0.6,2.3-0.6c0.9,0,1.7,0.2,2.4,0.6c0.7,0.4,1.2,1,1.6,1.8
		c0.4,0.8,0.6,1.7,0.6,2.7c0,1-0.2,1.9-0.6,2.7c-0.4,0.8-0.9,1.4-1.6,1.8C903.8,105.7,903,106,902.1,106z M902.1,104.1
		c0.7,0,1.3-0.3,1.7-0.9c0.4-0.6,0.6-1.4,0.6-2.4c0-1-0.2-1.8-0.6-2.4c-0.4-0.6-1-0.9-1.7-0.9c-0.7,0-1.3,0.3-1.7,0.8
		c-0.4,0.6-0.6,1.4-0.6,2.4s0.2,1.9,0.6,2.4C900.8,103.8,901.4,104.1,902.1,104.1z"/>
	<path id="Montserrat-SemiBold-3c" class="st7" d="M965.4,225.9l-12.3-4.8v-2.9l12.3-4.8v2.8l-11.3,4.2v-1.6l11.3,4.2V225.9z"/>
	<path id="Montserrat-SemiBold-31_00000148638339176633538000000011403362197132421765_" class="st7" d="M971.3,229v-17.3l1.5,1.6
		h-5.5v-2.9h7.4V229H971.3z"/>
	<path id="Montserrat-SemiBold-25_00000136384381318227538740000011467438389847677338_" class="st7" d="M981.1,229l12.7-18.7h2.6
		L983.7,229H981.1z M982.6,220.4c-0.9,0-1.6-0.2-2.3-0.6c-0.7-0.4-1.2-1-1.6-1.8c-0.4-0.8-0.6-1.7-0.6-2.7s0.2-1.9,0.6-2.7
		c0.4-0.8,0.9-1.4,1.6-1.8c0.7-0.4,1.4-0.6,2.3-0.6c0.9,0,1.7,0.2,2.4,0.6c0.7,0.4,1.2,1,1.6,1.8c0.4,0.8,0.6,1.7,0.6,2.7
		s-0.2,1.9-0.6,2.7c-0.4,0.8-0.9,1.4-1.6,1.8C984.3,220.2,983.5,220.4,982.6,220.4z M982.6,218.5c0.7,0,1.3-0.3,1.7-0.8
		c0.4-0.6,0.6-1.4,0.6-2.4c0-1.1-0.2-1.9-0.6-2.4c-0.4-0.6-1-0.8-1.7-0.8c-0.7,0-1.3,0.3-1.7,0.9s-0.6,1.4-0.6,2.4s0.2,1.8,0.6,2.4
		S981.9,218.5,982.6,218.5z M994.8,229.2c-0.9,0-1.6-0.2-2.3-0.6c-0.7-0.4-1.2-1-1.6-1.8c-0.4-0.8-0.6-1.7-0.6-2.7s0.2-1.9,0.6-2.7
		c0.4-0.8,0.9-1.4,1.6-1.8c0.7-0.4,1.4-0.6,2.3-0.6c0.9,0,1.7,0.2,2.4,0.6c0.7,0.4,1.2,1,1.6,1.8c0.4,0.8,0.6,1.7,0.6,2.7
		s-0.2,1.9-0.6,2.7c-0.4,0.8-0.9,1.4-1.6,1.8C996.5,229,995.8,229.2,994.8,229.2z M994.8,227.3c0.7,0,1.3-0.3,1.7-0.9
		c0.4-0.6,0.6-1.4,0.6-2.4s-0.2-1.8-0.6-2.4c-0.4-0.6-1-0.9-1.7-0.9c-0.7,0-1.3,0.3-1.7,0.8c-0.4,0.6-0.6,1.4-0.6,2.4
		c0,1.1,0.2,1.9,0.6,2.4C993.6,227.1,994.2,227.3,994.8,227.3z"/>
	<path id="Montserrat-SemiBold-31_00000105389880642613661360000013025685592604231326_" class="st7" d="M492.4,105.7V88.4l1.5,1.6
		h-5.5V87h7.4v18.7H492.4z"/>
	<path id="Montserrat-SemiBold-33_00000154396646290814601760000013609488890892563899_" class="st7" d="M505.4,106
		c-1.3,0-2.6-0.2-3.9-0.6c-1.3-0.4-2.3-0.9-3.2-1.6l1.5-2.7c0.7,0.6,1.5,1,2.5,1.3c1,0.3,2,0.5,3,0.5c1.2,0,2.2-0.3,2.9-0.8
		c0.7-0.5,1-1.2,1-2.1c0-0.9-0.3-1.5-1-2c-0.6-0.5-1.7-0.7-3.1-0.7h-1.7V95l5.3-6.3l0.5,1.3h-10V87H512v2.3l-5.3,6.3l-1.8-1.1h1
		c2.3,0,4,0.5,5.2,1.5c1.1,1,1.7,2.3,1.7,3.9c0,1.1-0.3,2-0.8,2.9c-0.5,0.9-1.3,1.6-2.4,2.1C508.4,105.7,507.1,106,505.4,106z"/>
	<path class="st5" d="M931.8,257.3h88v-5.1h-88V257.3z"/>
	<path class="st4" d="M839.1,257.3h88V126h-88V257.3z"/>
	<path class="st3" d="M746.5,257.3h88V50.2h-88V257.3z"/>
	<path class="st0" d="M653.8,257.3h88V75.5h-88V257.3z"/>
	<path class="st1" d="M561.1,257.3h88V110.8h-88V257.3z"/>
	<path class="st2" d="M468.5,257.3h88V126h-88V257.3z"/>
	<path class="st2" d="M375.8,257.3h88v-80.8h-88V257.3z"/>
	<path class="st2" d="M283.2,257.3h88v-50.5h-88V257.3z"/>
	<path class="st2" d="M190.5,257.3h88V227h-88V257.3z"/>
	<path class="st2" d="M97.9,257.3h88v-20.2h-88V257.3z"/>
	<path class="st2" d="M5.2,257.3h88V227h-88V257.3z"/>
</g>
</svg>
