<?xml version="1.0" encoding="UTF-8"?><svg id="Layer_1" xmlns="http://www.w3.org/2000/svg" viewBox="0 0 1116.69 304.84"><defs><style>.cls-1{fill:#fa9101;}.cls-2{fill:#00bd00;}.cls-3{fill:#001837;}.cls-4{fill:#fdd400;}.cls-5{fill:#fdf300;}.cls-6{fill:#667487;}.cls-7{fill:#d8db1a;}.cls-8{fill:#d62015;}.cls-9{fill:#9ade27;}</style></defs><path class="cls-4" d="M556.02,270.75h87.92l9.47,17.04-9.47,17.04h-87.92l9.47-17.04-9.47-17.04Z"/><path class="cls-1" d="M463.36,270.75h87.92l9.47,17.04-9.47,17.04h-87.92l9.47-17.04-9.47-17.04Z"/><path class="cls-8" d="M0,270.75H458.63l9.47,17.04-9.47,17.04H0l9.47-17.04L0,270.75Z"/><path class="cls-5" d="M648.67,270.75h87.92l9.47,17.04-9.47,17.04h-87.92l9.47-17.04-9.47-17.04Z"/><path class="cls-7" d="M741.32,270.75h88.02l9.47,17.04-9.47,17.04h-88.02l9.47-17.04-9.47-17.04Z"/><path class="cls-9" d="M833.97,270.75h88.02l9.47,17.04-9.47,17.04h-88.02l9.47-17.04-9.47-17.04Z"/><path class="cls-2" d="M926.59,270.75h88.05l9.47,17.04-9.47,17.04h-88.05l9.47-17.04-9.47-17.04Z"/><path class="cls-2" d="M1019.17,270.75h88.05l9.47,17.04-9.47,17.04h-88.05l9.47-17.04-9.47-17.04Z"/><path class="cls-3" d="M602.76,286.71h5.39v2.02h-5.39v-2.02Zm.19,4.61h6.1v2.08h-8.67v-11.2h8.46v2.08h-5.89v7.04Z"/><path class="cls-3" d="M691.73,293.39v-11.2h5.09c1.22,0,2.29,.24,3.22,.7,.93,.46,1.65,1.1,2.18,1.94,.52,.83,.78,1.82,.78,2.96s-.26,2.12-.78,2.96c-.52,.83-1.25,1.48-2.18,1.95-.93,.46-2,.69-3.22,.69h-5.09Zm2.59-2.13h2.37c.75,0,1.39-.14,1.94-.42,.55-.29,.98-.69,1.28-1.22,.31-.52,.46-1.14,.46-1.84s-.15-1.33-.46-1.84c-.3-.52-.73-.92-1.28-1.2-.54-.29-1.19-.43-1.94-.43h-2.37v6.94Z"/><path class="cls-3" d="M790.79,293.59c-.86,0-1.67-.14-2.42-.42-.74-.29-1.38-.69-1.92-1.22s-.97-1.14-1.28-1.84c-.3-.7-.45-1.48-.45-2.32s.15-1.62,.45-2.32c.31-.7,.74-1.32,1.28-1.84,.55-.52,1.2-.92,1.94-1.2,.74-.29,1.54-.43,2.42-.43,.97,0,1.84,.17,2.62,.51,.79,.33,1.45,.82,1.98,1.47l-1.66,1.54c-.38-.44-.81-.76-1.28-.98-.47-.22-.98-.34-1.54-.34-.52,0-1,.08-1.44,.26-.44,.17-.82,.42-1.14,.74-.32,.32-.57,.7-.75,1.14-.17,.44-.26,.92-.26,1.46s.08,1.02,.26,1.46c.18,.44,.43,.82,.75,1.14s.7,.57,1.14,.74c.44,.17,.92,.26,1.44,.26,.55,0,1.07-.11,1.54-.32,.47-.22,.9-.56,1.28-1.01l1.66,1.54c-.53,.65-1.2,1.15-1.98,1.49-.78,.34-1.66,.51-2.64,.51Z"/><path class="cls-3" d="M877.58,293.39v-11.2h5.47c1.41,0,2.46,.27,3.17,.8,.71,.53,1.07,1.24,1.07,2.11,0,.59-.14,1.1-.43,1.54-.29,.43-.68,.76-1.18,.99-.5,.24-1.08,.35-1.73,.35l.3-.66c.7,0,1.33,.12,1.87,.35,.54,.22,.97,.56,1.26,1.01,.31,.45,.46,1,.46,1.65,0,.96-.38,1.71-1.14,2.26-.76,.53-1.87,.8-3.34,.8h-5.79Zm2.58-1.95h3.02c.67,0,1.18-.11,1.52-.32,.35-.22,.53-.58,.53-1.06s-.18-.82-.53-1.04c-.34-.23-.85-.35-1.52-.35h-3.22v-1.89h2.77c.63,0,1.11-.11,1.44-.32,.34-.22,.51-.56,.51-1.01s-.17-.76-.51-.98c-.33-.22-.81-.34-1.44-.34h-2.58v7.3Z"/><path class="cls-3" d="M969.07,293.39l4.99-11.2h2.56l5.01,11.2h-2.72l-4.1-9.89h1.02l-4.11,9.89h-2.66Zm2.5-2.4l.69-1.97h5.76l.71,1.97h-7.16Z"/><g><path class="cls-3" d="M1078.84,286.79v2h-3.54v3.5h-2.14v-3.5h-3.54v-2h3.54v-3.5h2.14v3.5h3.54Z"/><path class="cls-3" d="M1064.58,282.19h-2.56l-4.99,11.2h2.65l1-2.4h5.19l1,2.4h2.72l-5.01-11.2Zm-3.09,6.84l1.79-4.29,1.78,4.29h-3.57Z"/></g><path class="cls-3" d="M510.22,287.23h5.38v2.08h-5.38v-2.08Zm.19,6.16h-2.59v-11.2h8.46v2.08h-5.87v9.12Z"/><g id="patch_2"><path class="cls-8" d="M0,261.64H88.02v-60.27H0v60.27Z"/></g><g id="patch_3"><path class="cls-8" d="M92.65,261.64h88.02v-45.2H92.65v45.2Z"/></g><g id="patch_4"><path class="cls-8" d="M185.3,261.64h88.02v-60.27h-88.02v60.27Z"/></g><g id="patch_5"><path class="cls-8" d="M277.96,261.64h88.02v-105.47h-88.02v105.47Z"/></g><g id="patch_6"><path class="cls-8" d="M370.61,261.64h88.02V80.84h-88.02v180.8Z"/></g><g id="patch_7"><path class="cls-1" d="M463.26,261.64h88.02V35.64h-88.02v226Z"/></g><g id="patch_8"><path class="cls-4" d="M555.91,261.64h88.02V35.64h-88.02v226Z"/></g><g id="patch_9"><path class="cls-5" d="M648.57,261.64h88.02V35.64h-88.02v226Z"/></g><g id="patch_10"><path class="cls-7" d="M741.22,261.64h88.02V50.71h-88.02v210.93Z"/></g><g id="patch_11"><path class="cls-9" d="M833.87,261.64h88.02V126.04h-88.02v135.6Z"/></g><g id="patch_12"><path class="cls-2" d="M926.52,261.64h88.02v-15.07h-88.02v15.07Z"/></g><g id="text_1"><g><path id="Montserrat-SemiBold-34" class="cls-6" d="M26.62,181.68v-2.62l10.04-13.12h4.04l-9.89,13.12-1.89-.58h16.15v3.2H26.62Zm11.17,4.63v-4.63l.12-3.2v-4.1h3.55v11.93h-3.67Z"/><path id="Montserrat-SemiBold-25" class="cls-6" d="M49.53,186.31l13.91-20.37h2.85l-13.91,20.37h-2.85Zm1.69-9.4c-.95,0-1.8-.23-2.53-.7-.74-.47-1.31-1.12-1.72-1.95-.41-.84-.61-1.82-.61-2.94s.2-2.1,.61-2.94c.41-.84,.98-1.49,1.72-1.95,.74-.47,1.58-.7,2.53-.7s1.85,.23,2.57,.7c.73,.46,1.29,1.11,1.7,1.95,.41,.83,.61,1.81,.61,2.94s-.2,2.11-.61,2.94c-.41,.83-.97,1.48-1.7,1.95-.73,.46-1.59,.7-2.57,.7Zm.03-2.04c.78,0,1.38-.3,1.82-.91,.44-.61,.65-1.49,.65-2.64s-.22-2.02-.65-2.63c-.44-.61-1.04-.92-1.82-.92s-1.39,.31-1.85,.93-.68,1.49-.68,2.62,.23,2,.68,2.62,1.07,.93,1.85,.93Zm13.33,11.64c-.95,0-1.8-.23-2.53-.7-.74-.47-1.31-1.12-1.72-1.95-.41-.84-.61-1.82-.61-2.94s.2-2.1,.61-2.94c.41-.84,.98-1.49,1.72-1.95,.74-.47,1.58-.7,2.53-.7s1.85,.23,2.57,.7c.73,.46,1.29,1.11,1.7,1.95,.41,.83,.61,1.81,.61,2.94s-.2,2.11-.61,2.94c-.41,.83-.97,1.48-1.7,1.95-.73,.46-1.59,.7-2.57,.7Zm0-2.04c.78,0,1.39-.31,1.83-.93,.45-.62,.67-1.49,.67-2.62s-.22-2-.67-2.62-1.06-.93-1.83-.93-1.37,.31-1.82,.92c-.45,.61-.68,1.49-.68,2.63s.23,2.03,.68,2.64c.46,.61,1.07,.91,1.82,.91Z"/></g></g><g id="text_2"><g><path id="Montserrat-SemiBold-33" class="cls-6" d="M127.38,201.66c-1.44,0-2.84-.21-4.21-.62-1.37-.42-2.52-1-3.45-1.73l1.63-2.94c.74,.6,1.63,1.09,2.67,1.46,1.05,.37,2.15,.55,3.29,.55,1.36,0,2.41-.28,3.17-.83,.76-.55,1.14-1.31,1.14-2.26s-.35-1.67-1.05-2.21c-.7-.54-1.82-.81-3.37-.81h-1.86v-2.59l5.82-6.93,.49,1.43h-10.94v-3.17h13.88v2.53l-5.82,6.93-1.98-1.16h1.13c2.5,0,4.38,.56,5.63,1.67,1.25,1.12,1.88,2.55,1.88,4.29,0,1.15-.29,2.2-.87,3.17-.58,.97-1.47,1.75-2.66,2.34-1.19,.59-2.7,.89-4.52,.89Z"/><path id="Montserrat-SemiBold-25-2" class="cls-6" d="M140.77,201.37l13.91-20.37h2.85l-13.91,20.37h-2.85Zm1.69-9.4c-.95,0-1.8-.23-2.53-.7-.74-.47-1.31-1.12-1.72-1.95-.41-.84-.61-1.82-.61-2.94s.2-2.1,.61-2.94c.41-.84,.98-1.49,1.72-1.95,.74-.47,1.58-.7,2.53-.7s1.85,.23,2.57,.7c.73,.46,1.29,1.11,1.7,1.95,.41,.83,.61,1.81,.61,2.94s-.2,2.11-.61,2.94c-.41,.83-.97,1.48-1.7,1.95-.73,.46-1.59,.7-2.57,.7Zm.03-2.04c.78,0,1.38-.3,1.82-.91,.44-.61,.65-1.49,.65-2.64s-.22-2.02-.65-2.63c-.44-.61-1.04-.92-1.82-.92s-1.39,.31-1.85,.93-.68,1.49-.68,2.62,.23,2,.68,2.62,1.07,.93,1.85,.93Zm13.33,11.64c-.95,0-1.8-.23-2.53-.7-.74-.47-1.31-1.12-1.72-1.95-.41-.84-.61-1.82-.61-2.94s.2-2.1,.61-2.94c.41-.84,.98-1.49,1.72-1.95,.74-.47,1.58-.7,2.53-.7s1.85,.23,2.57,.7c.73,.46,1.29,1.11,1.7,1.95,.41,.83,.61,1.81,.61,2.94s-.2,2.11-.61,2.94c-.41,.83-.97,1.48-1.7,1.95-.73,.46-1.59,.7-2.57,.7Zm0-2.04c.78,0,1.39-.31,1.83-.93,.45-.62,.67-1.49,.67-2.62s-.22-2-.67-2.62-1.06-.93-1.83-.93-1.37,.31-1.82,.92c-.45,.61-.68,1.49-.68,2.63s.23,2.03,.68,2.64c.46,.61,1.07,.91,1.82,.91Z"/></g></g><g id="text_3"><g><path id="Montserrat-SemiBold-34-2" class="cls-6" d="M211.93,181.68v-2.62l10.04-13.12h4.04l-9.89,13.12-1.89-.58h16.15v3.2h-18.45Zm11.17,4.63v-4.63l.12-3.2v-4.1h3.55v11.93h-3.67Z"/><path id="Montserrat-SemiBold-25-3" class="cls-6" d="M234.83,186.31l13.91-20.37h2.85l-13.91,20.37h-2.85Zm1.69-9.4c-.95,0-1.8-.23-2.53-.7-.74-.47-1.31-1.12-1.72-1.95-.41-.84-.61-1.82-.61-2.94s.2-2.1,.61-2.94c.41-.84,.98-1.49,1.72-1.95,.74-.47,1.58-.7,2.53-.7s1.85,.23,2.57,.7c.73,.46,1.29,1.11,1.7,1.95,.41,.83,.61,1.81,.61,2.94s-.2,2.11-.61,2.94c-.41,.83-.97,1.48-1.7,1.95-.73,.46-1.59,.7-2.57,.7Zm.03-2.04c.78,0,1.38-.3,1.82-.91,.44-.61,.65-1.49,.65-2.64s-.22-2.02-.65-2.63c-.44-.61-1.04-.92-1.82-.92s-1.39,.31-1.85,.93-.68,1.49-.68,2.62,.23,2,.68,2.62,1.07,.93,1.85,.93Zm13.33,11.64c-.95,0-1.8-.23-2.53-.7-.74-.47-1.31-1.12-1.72-1.95-.41-.84-.61-1.82-.61-2.94s.2-2.1,.61-2.94c.41-.84,.98-1.49,1.72-1.95,.74-.47,1.58-.7,2.53-.7s1.85,.23,2.57,.7c.73,.46,1.29,1.11,1.7,1.95,.41,.83,.61,1.81,.61,2.94s-.2,2.11-.61,2.94c-.41,.83-.97,1.48-1.7,1.95-.73,.46-1.59,.7-2.57,.7Zm0-2.04c.78,0,1.39-.31,1.83-.93,.45-.62,.67-1.49,.67-2.62s-.22-2-.67-2.62-1.06-.93-1.83-.93-1.37,.31-1.82,.92c-.45,.61-.68,1.49-.68,2.63s.23,2.03,.68,2.64c.46,.61,1.07,.91,1.82,.91Z"/></g></g><g id="text_4"><g><path id="Montserrat-SemiBold-37" class="cls-6" d="M309.31,141.11l8.41-18.86,.99,1.69h-11.55l1.81-1.83v5.3h-3.52v-6.67h15.83v2.53l-7.92,17.84h-4.05Z"/><path id="Montserrat-SemiBold-25-4" class="cls-6" d="M326.45,141.11l13.91-20.37h2.85l-13.91,20.37h-2.85Zm1.69-9.4c-.95,0-1.8-.23-2.53-.7-.74-.47-1.31-1.12-1.72-1.95-.41-.84-.61-1.82-.61-2.94s.2-2.1,.61-2.94c.41-.84,.98-1.49,1.72-1.95,.74-.47,1.58-.7,2.53-.7s1.85,.23,2.57,.7c.73,.46,1.29,1.11,1.7,1.95,.41,.83,.61,1.81,.61,2.94s-.2,2.11-.61,2.94c-.41,.83-.97,1.48-1.7,1.95-.73,.46-1.59,.7-2.57,.7Zm.03-2.04c.78,0,1.38-.3,1.82-.91,.44-.61,.65-1.49,.65-2.64s-.22-2.02-.65-2.63c-.44-.61-1.04-.92-1.82-.92s-1.39,.31-1.85,.93-.68,1.49-.68,2.62,.23,2,.68,2.62,1.07,.93,1.85,.93Zm13.33,11.64c-.95,0-1.8-.23-2.53-.7-.74-.47-1.31-1.12-1.72-1.95-.41-.84-.61-1.82-.61-2.94s.2-2.1,.61-2.94c.41-.84,.98-1.49,1.72-1.95,.74-.47,1.58-.7,2.53-.7s1.85,.23,2.57,.7c.73,.46,1.29,1.11,1.7,1.95,.41,.83,.61,1.81,.61,2.94s-.2,2.11-.61,2.94c-.41,.83-.97,1.48-1.7,1.95-.73,.46-1.59,.7-2.57,.7Zm0-2.04c.78,0,1.39-.31,1.83-.93,.45-.62,.67-1.49,.67-2.62s-.22-2-.67-2.62-1.06-.93-1.83-.93-1.37,.31-1.82,.92c-.45,.61-.68,1.49-.68,2.63s.23,2.03,.68,2.64c.46,.61,1.07,.91,1.82,.91Z"/></g></g><g id="text_5"><g><path id="Montserrat-SemiBold-31" class="cls-6" d="M392.63,65.78v-18.92l1.66,1.72h-5.97v-3.17h8.09v20.37h-3.78Z"/><path id="Montserrat-SemiBold-32" class="cls-6" d="M400.2,65.78v-2.53l8.09-7.68c.68-.64,1.18-1.21,1.51-1.69s.55-.94,.65-1.35c.11-.42,.16-.81,.16-1.18,0-.93-.32-1.66-.96-2.17-.64-.52-1.58-.77-2.82-.77-.99,0-1.89,.18-2.69,.53-.8,.35-1.5,.88-2.08,1.6l-2.65-2.04c.8-1.07,1.87-1.9,3.21-2.49,1.35-.59,2.86-.89,4.53-.89,1.47,0,2.76,.24,3.85,.71,1.1,.48,1.94,1.15,2.53,2.02,.59,.87,.89,1.91,.89,3.11,0,.66-.09,1.32-.26,1.97-.18,.65-.51,1.33-.99,2.05-.49,.72-1.19,1.52-2.12,2.41l-6.95,6.61-.79-1.43h11.9v3.2h-15.01Z"/><path id="Montserrat-SemiBold-25-5" class="cls-6" d="M420.25,65.78l13.91-20.37h2.85l-13.91,20.37h-2.85Zm1.69-9.4c-.95,0-1.8-.23-2.53-.7-.74-.47-1.31-1.12-1.72-1.95-.41-.84-.61-1.82-.61-2.94s.2-2.1,.61-2.94c.41-.84,.98-1.49,1.72-1.95,.74-.47,1.58-.7,2.53-.7s1.85,.23,2.57,.7c.73,.46,1.29,1.11,1.7,1.95,.41,.83,.61,1.81,.61,2.94s-.2,2.11-.61,2.94c-.41,.83-.97,1.48-1.7,1.95-.73,.46-1.59,.7-2.57,.7Zm.03-2.04c.78,0,1.38-.3,1.82-.91,.44-.61,.65-1.49,.65-2.64s-.22-2.02-.65-2.63c-.44-.61-1.04-.92-1.82-.92s-1.39,.31-1.85,.93-.68,1.49-.68,2.62,.23,2,.68,2.62,1.07,.93,1.85,.93Zm13.33,11.64c-.95,0-1.8-.23-2.53-.7-.74-.47-1.31-1.12-1.72-1.95-.41-.84-.61-1.82-.61-2.94s.2-2.1,.61-2.94c.41-.84,.98-1.49,1.72-1.95,.74-.47,1.58-.7,2.53-.7s1.85,.23,2.57,.7c.73,.46,1.29,1.11,1.7,1.95,.41,.83,.61,1.81,.61,2.94s-.2,2.11-.61,2.94c-.41,.83-.97,1.48-1.7,1.95-.73,.46-1.59,.7-2.57,.7Zm0-2.04c.78,0,1.39-.31,1.83-.93,.45-.62,.67-1.49,.67-2.62s-.22-2-.67-2.62-1.06-.93-1.83-.93-1.37,.31-1.82,.92c-.45,.61-.68,1.49-.68,2.63s.23,2.03,.68,2.64c.46,.61,1.07,.91,1.82,.91Z"/></g></g><g id="text_6"><g><path id="Montserrat-SemiBold-31-2" class="cls-6" d="M485.25,20.58V1.66l1.66,1.72h-5.97V.2h8.09V20.58h-3.78Z"/><path id="Montserrat-SemiBold-35" class="cls-6" d="M499.83,20.87c-1.43,0-2.84-.21-4.21-.62-1.37-.42-2.52-1-3.45-1.73l1.6-2.94c.74,.6,1.63,1.09,2.69,1.46,1.06,.37,2.16,.55,3.31,.55,1.34,0,2.39-.28,3.16-.84,.77-.56,1.15-1.32,1.15-2.27,0-.64-.16-1.2-.48-1.69-.32-.49-.88-.85-1.69-1.1-.81-.25-1.91-.38-3.3-.38h-4.92l1.05-11.09h11.96V3.38h-10.56l1.98-1.81-.79,8.29-1.98-1.78h4.1c2.02,0,3.64,.27,4.87,.8,1.23,.53,2.14,1.27,2.71,2.21,.57,.94,.86,2.01,.86,3.21s-.29,2.27-.87,3.26c-.58,.99-1.47,1.78-2.66,2.39-1.19,.6-2.7,.9-4.52,.9Z"/><path id="Montserrat-SemiBold-25-6" class="cls-6" d="M512.93,20.58L526.84,.2h2.85l-13.91,20.37h-2.85Zm1.69-9.4c-.95,0-1.8-.23-2.53-.7-.74-.47-1.31-1.12-1.72-1.95-.41-.84-.61-1.82-.61-2.94s.2-2.1,.61-2.94c.41-.84,.98-1.49,1.72-1.95C512.82,.23,513.67,0,514.62,0s1.85,.23,2.57,.7c.73,.46,1.29,1.11,1.7,1.95,.41,.83,.61,1.81,.61,2.94s-.2,2.11-.61,2.94c-.41,.83-.97,1.48-1.7,1.95-.73,.46-1.59,.7-2.57,.7Zm.03-2.04c.78,0,1.38-.3,1.82-.91,.44-.61,.65-1.49,.65-2.64s-.22-2.02-.65-2.63c-.44-.61-1.04-.92-1.82-.92s-1.39,.31-1.85,.93-.68,1.49-.68,2.62,.23,2,.68,2.62,1.07,.93,1.85,.93Zm13.33,11.64c-.95,0-1.8-.23-2.53-.7-.74-.47-1.31-1.12-1.72-1.95-.41-.84-.61-1.82-.61-2.94s.2-2.1,.61-2.94c.41-.84,.98-1.49,1.72-1.95,.74-.47,1.58-.7,2.53-.7s1.85,.23,2.57,.7c.73,.46,1.29,1.11,1.7,1.95,.41,.83,.61,1.81,.61,2.94s-.2,2.11-.61,2.94c-.41,.83-.97,1.48-1.7,1.95-.73,.46-1.59,.7-2.57,.7Zm0-2.04c.78,0,1.39-.31,1.83-.93,.45-.62,.67-1.49,.67-2.62s-.22-2-.67-2.62-1.06-.93-1.83-.93-1.37,.31-1.82,.92c-.45,.61-.68,1.49-.68,2.63s.23,2.03,.68,2.64c.46,.61,1.07,.91,1.82,.91Z"/></g></g><g id="text_7"><g><path id="Montserrat-SemiBold-31-3" class="cls-6" d="M577.91,20.58V1.66l1.66,1.72h-5.97V.2h8.09V20.58h-3.78Z"/><path id="Montserrat-SemiBold-35-2" class="cls-6" d="M592.49,20.87c-1.43,0-2.84-.21-4.21-.62-1.37-.42-2.52-1-3.45-1.73l1.6-2.94c.74,.6,1.63,1.09,2.69,1.46,1.06,.37,2.16,.55,3.31,.55,1.34,0,2.39-.28,3.16-.84,.77-.56,1.15-1.32,1.15-2.27,0-.64-.16-1.2-.48-1.69-.32-.49-.88-.85-1.69-1.1-.81-.25-1.91-.38-3.3-.38h-4.92l1.05-11.09h11.96V3.38h-10.56l1.98-1.81-.79,8.29-1.98-1.78h4.1c2.02,0,3.64,.27,4.87,.8,1.23,.53,2.14,1.27,2.71,2.21,.57,.94,.86,2.01,.86,3.21s-.29,2.27-.87,3.26c-.58,.99-1.47,1.78-2.66,2.39-1.19,.6-2.7,.9-4.52,.9Z"/><path id="Montserrat-SemiBold-25-7" class="cls-6" d="M605.58,20.58L619.49,.2h2.85l-13.91,20.37h-2.85Zm1.69-9.4c-.95,0-1.8-.23-2.53-.7-.74-.47-1.31-1.12-1.72-1.95-.41-.84-.61-1.82-.61-2.94s.2-2.1,.61-2.94c.41-.84,.98-1.49,1.72-1.95C605.48,.23,606.32,0,607.27,0s1.85,.23,2.57,.7c.73,.46,1.29,1.11,1.7,1.95,.41,.83,.61,1.81,.61,2.94s-.2,2.11-.61,2.94c-.41,.83-.97,1.48-1.7,1.95-.73,.46-1.59,.7-2.57,.7Zm.03-2.04c.78,0,1.38-.3,1.82-.91,.44-.61,.65-1.49,.65-2.64s-.22-2.02-.65-2.63c-.44-.61-1.04-.92-1.82-.92s-1.39,.31-1.85,.93-.68,1.49-.68,2.62,.23,2,.68,2.62,1.07,.93,1.85,.93Zm13.33,11.64c-.95,0-1.8-.23-2.53-.7-.74-.47-1.31-1.12-1.72-1.95-.41-.84-.61-1.82-.61-2.94s.2-2.1,.61-2.94c.41-.84,.98-1.49,1.72-1.95,.74-.47,1.58-.7,2.53-.7s1.85,.23,2.57,.7c.73,.46,1.29,1.11,1.7,1.95,.41,.83,.61,1.81,.61,2.94s-.2,2.11-.61,2.94c-.41,.83-.97,1.48-1.7,1.95-.73,.46-1.59,.7-2.57,.7Zm0-2.04c.78,0,1.39-.31,1.83-.93,.45-.62,.67-1.49,.67-2.62s-.22-2-.67-2.62-1.06-.93-1.83-.93-1.37,.31-1.82,.92c-.45,.61-.68,1.49-.68,2.63s.23,2.03,.68,2.64c.46,.61,1.07,.91,1.82,.91Z"/></g></g><g id="text_8"><g><path id="Montserrat-SemiBold-31-4" class="cls-6" d="M670.56,20.58V1.66l1.66,1.72h-5.97V.2h8.09V20.58h-3.78Z"/><path id="Montserrat-SemiBold-35-3" class="cls-6" d="M685.14,20.87c-1.43,0-2.84-.21-4.21-.62-1.37-.42-2.52-1-3.45-1.73l1.6-2.94c.74,.6,1.63,1.09,2.69,1.46,1.06,.37,2.16,.55,3.31,.55,1.34,0,2.39-.28,3.16-.84,.77-.56,1.15-1.32,1.15-2.27,0-.64-.16-1.2-.48-1.69-.32-.49-.88-.85-1.69-1.1-.81-.25-1.91-.38-3.3-.38h-4.92l1.05-11.09h11.96V3.38h-10.56l1.98-1.81-.79,8.29-1.98-1.78h4.1c2.02,0,3.64,.27,4.87,.8,1.23,.53,2.14,1.27,2.71,2.21,.57,.94,.86,2.01,.86,3.21s-.29,2.27-.87,3.26c-.58,.99-1.47,1.78-2.66,2.39-1.19,.6-2.7,.9-4.52,.9Z"/><path id="Montserrat-SemiBold-25-8" class="cls-6" d="M698.24,20.58L712.15,.2h2.85l-13.91,20.37h-2.85Zm1.69-9.4c-.95,0-1.8-.23-2.53-.7-.74-.47-1.31-1.12-1.72-1.95-.41-.84-.61-1.82-.61-2.94s.2-2.1,.61-2.94c.41-.84,.98-1.49,1.72-1.95C698.13,.23,698.97,0,699.92,0s1.85,.23,2.57,.7c.73,.46,1.29,1.11,1.7,1.95,.41,.83,.61,1.81,.61,2.94s-.2,2.11-.61,2.94c-.41,.83-.97,1.48-1.7,1.95-.73,.46-1.59,.7-2.57,.7Zm.03-2.04c.78,0,1.38-.3,1.82-.91,.44-.61,.65-1.49,.65-2.64s-.22-2.02-.65-2.63c-.44-.61-1.04-.92-1.82-.92s-1.39,.31-1.85,.93-.68,1.49-.68,2.62,.23,2,.68,2.62,1.07,.93,1.85,.93Zm13.33,11.64c-.95,0-1.8-.23-2.53-.7-.74-.47-1.31-1.12-1.72-1.95-.41-.84-.61-1.82-.61-2.94s.2-2.1,.61-2.94c.41-.84,.98-1.49,1.72-1.95,.74-.47,1.58-.7,2.53-.7s1.85,.23,2.57,.7c.73,.46,1.29,1.11,1.7,1.95,.41,.83,.61,1.81,.61,2.94s-.2,2.11-.61,2.94c-.41,.83-.97,1.48-1.7,1.95-.73,.46-1.59,.7-2.57,.7Zm0-2.04c.78,0,1.39-.31,1.83-.93,.45-.62,.67-1.49,.67-2.62s-.22-2-.67-2.62-1.06-.93-1.83-.93-1.37,.31-1.82,.92c-.45,.61-.68,1.49-.68,2.63s.23,2.03,.68,2.64c.46,.61,1.07,.91,1.82,.91Z"/></g></g><g id="text_9"><g><path id="Montserrat-SemiBold-31-5" class="cls-6" d="M761.83,35.64V16.73l1.66,1.72h-5.97v-3.17h8.09v20.37h-3.78Z"/><path id="Montserrat-SemiBold-34-3" class="cls-6" d="M769.37,31.01v-2.62l10.04-13.12h4.04l-9.89,13.12-1.89-.58h16.15v3.2h-18.45Zm11.17,4.63v-4.63l.12-3.2v-4.1h3.55v11.93h-3.67Z"/><path id="Montserrat-SemiBold-25-9" class="cls-6" d="M792.27,35.64l13.91-20.37h2.85l-13.91,20.37h-2.85Zm1.69-9.4c-.95,0-1.8-.23-2.53-.7-.74-.47-1.31-1.12-1.72-1.95-.41-.84-.61-1.82-.61-2.94s.2-2.1,.61-2.94c.41-.84,.98-1.49,1.72-1.95,.74-.47,1.58-.7,2.53-.7s1.85,.23,2.57,.7c.73,.46,1.29,1.11,1.7,1.95,.41,.83,.61,1.81,.61,2.94s-.2,2.11-.61,2.94c-.41,.83-.97,1.48-1.7,1.95-.73,.46-1.59,.7-2.57,.7Zm.03-2.04c.78,0,1.38-.3,1.82-.91,.44-.61,.65-1.49,.65-2.64s-.22-2.02-.65-2.63c-.44-.61-1.04-.92-1.82-.92s-1.39,.31-1.85,.93-.68,1.49-.68,2.62,.23,2,.68,2.62,1.07,.93,1.85,.93Zm13.33,11.64c-.95,0-1.8-.23-2.53-.7-.74-.47-1.31-1.12-1.72-1.95-.41-.84-.61-1.82-.61-2.94s.2-2.1,.61-2.94c.41-.84,.98-1.49,1.72-1.95,.74-.47,1.58-.7,2.53-.7s1.85,.23,2.57,.7c.73,.46,1.29,1.11,1.7,1.95,.41,.83,.61,1.81,.61,2.94s-.2,2.11-.61,2.94c-.41,.83-.97,1.48-1.7,1.95-.73,.46-1.59,.7-2.57,.7Zm0-2.04c.78,0,1.39-.31,1.83-.93,.45-.62,.67-1.49,.67-2.62s-.22-2-.67-2.62-1.06-.93-1.83-.93-1.37,.31-1.82,.92c-.45,.61-.68,1.49-.68,2.63s.23,2.03,.68,2.64c.46,.61,1.07,.91,1.82,.91Z"/></g></g><g id="text_10"><g><path id="Montserrat-SemiBold-39" class="cls-6" d="M868.41,90.31c1.86,0,3.45,.39,4.76,1.18,1.31,.79,2.31,1.92,3.01,3.42,.7,1.49,1.05,3.34,1.05,5.53,0,2.33-.42,4.3-1.27,5.91-.84,1.61-2.01,2.83-3.51,3.67-1.49,.83-3.23,1.25-5.21,1.25-1.03,0-2.01-.11-2.94-.32-.93-.22-1.74-.55-2.41-.99l1.4-2.85c.56,.37,1.17,.62,1.83,.77,.66,.15,1.34,.22,2.04,.22,1.92,0,3.44-.59,4.57-1.77,1.13-1.18,1.69-2.93,1.69-5.24,0-.37-.01-.8-.03-1.3-.02-.49-.08-.99-.2-1.5l1.16,1.28c-.33,.8-.81,1.46-1.43,2-.62,.53-1.35,.94-2.18,1.21-.83,.27-1.76,.4-2.76,.4-1.32,0-2.51-.26-3.56-.77-1.06-.52-1.9-1.24-2.52-2.18-.62-.94-.93-2.04-.93-3.31,0-1.36,.33-2.53,.99-3.51,.66-.98,1.56-1.74,2.69-2.29,1.14-.54,2.39-.81,3.77-.81Zm.2,2.97c-.78,0-1.47,.14-2.07,.42-.6,.28-1.07,.68-1.41,1.19-.34,.52-.51,1.13-.51,1.85,0,1.07,.37,1.91,1.1,2.53s1.73,.93,2.97,.93c.82,0,1.53-.15,2.15-.45,.62-.3,1.11-.72,1.46-1.25,.35-.53,.53-1.13,.53-1.79s-.17-1.22-.5-1.73c-.33-.52-.81-.93-1.43-1.24-.62-.31-1.38-.47-2.3-.47Z"/><path id="Montserrat-SemiBold-25-10" class="cls-6" d="M882.64,110.97l13.91-20.37h2.85l-13.91,20.37h-2.85Zm1.69-9.4c-.95,0-1.8-.23-2.53-.7-.74-.47-1.31-1.12-1.72-1.95-.41-.84-.61-1.82-.61-2.94s.2-2.1,.61-2.94c.41-.84,.98-1.49,1.72-1.95,.74-.47,1.58-.7,2.53-.7s1.85,.23,2.57,.7c.73,.46,1.29,1.11,1.7,1.95,.41,.83,.61,1.81,.61,2.94s-.2,2.11-.61,2.94c-.41,.83-.97,1.48-1.7,1.95-.73,.46-1.59,.7-2.57,.7Zm.03-2.04c.78,0,1.38-.3,1.82-.91,.44-.61,.65-1.49,.65-2.64s-.22-2.02-.65-2.63c-.44-.61-1.04-.92-1.82-.92s-1.39,.31-1.85,.93-.68,1.49-.68,2.62,.23,2,.68,2.62,1.07,.93,1.85,.93Zm13.33,11.64c-.95,0-1.8-.23-2.53-.7-.74-.47-1.31-1.12-1.72-1.95-.41-.84-.61-1.82-.61-2.94s.2-2.1,.61-2.94c.41-.84,.98-1.49,1.72-1.95,.74-.47,1.58-.7,2.53-.7s1.85,.23,2.57,.7c.73,.46,1.29,1.11,1.7,1.95,.41,.83,.61,1.81,.61,2.94s-.2,2.11-.61,2.94c-.41,.83-.97,1.48-1.7,1.95-.73,.46-1.59,.7-2.57,.7Zm0-2.04c.78,0,1.39-.31,1.83-.93,.45-.62,.67-1.49,.67-2.62s-.22-2-.67-2.62-1.06-.93-1.83-.93-1.37,.31-1.82,.92c-.45,.61-.68,1.49-.68,2.63s.23,2.03,.68,2.64c.46,.61,1.07,.91,1.82,.91Z"/></g></g><g id="text_11"><g><path id="Montserrat-SemiBold-31-6" class="cls-6" d="M961.03,231.51v-18.92l1.66,1.72h-5.97v-3.17h8.09v20.37h-3.78Z"/><path id="Montserrat-SemiBold-25-11" class="cls-6" d="M971.71,231.51l13.91-20.37h2.85l-13.91,20.37h-2.85Zm1.69-9.4c-.95,0-1.8-.23-2.53-.7-.74-.47-1.31-1.12-1.72-1.95-.41-.84-.61-1.82-.61-2.94s.2-2.1,.61-2.94c.41-.84,.98-1.49,1.72-1.95,.74-.47,1.58-.7,2.53-.7s1.85,.23,2.57,.7c.73,.46,1.29,1.11,1.7,1.95,.41,.83,.61,1.81,.61,2.94s-.2,2.11-.61,2.94c-.41,.83-.97,1.48-1.7,1.95-.73,.46-1.59,.7-2.57,.7Zm.03-2.04c.78,0,1.38-.3,1.82-.91,.44-.61,.65-1.49,.65-2.64s-.22-2.02-.65-2.63c-.44-.61-1.04-.92-1.82-.92s-1.39,.31-1.85,.93-.68,1.49-.68,2.62,.23,2,.68,2.62,1.07,.93,1.85,.93Zm13.33,11.64c-.95,0-1.8-.23-2.53-.7-.74-.47-1.31-1.12-1.72-1.95-.41-.84-.61-1.82-.61-2.94s.2-2.1,.61-2.94c.41-.84,.98-1.49,1.72-1.95,.74-.47,1.58-.7,2.53-.7s1.85,.23,2.57,.7c.73,.46,1.29,1.11,1.7,1.95,.41,.83,.61,1.81,.61,2.94s-.2,2.11-.61,2.94c-.41,.83-.97,1.48-1.7,1.95-.73,.46-1.59,.7-2.57,.7Zm0-2.04c.78,0,1.39-.31,1.83-.93,.45-.62,.67-1.49,.67-2.62s-.22-2-.67-2.62-1.06-.93-1.83-.93-1.37,.31-1.82,.92c-.45,.61-.68,1.49-.68,2.63s.23,2.03,.68,2.64c.46,.61,1.07,.91,1.82,.91Z"/></g></g><g id="text_12"><g><path id="Montserrat-SemiBold-30" class="cls-6" d="M1054.67,246.86c-1.61,0-3.06-.41-4.35-1.22-1.29-.82-2.3-2-3.04-3.56-.74-1.56-1.1-3.46-1.1-5.69s.37-4.13,1.1-5.69,1.75-2.75,3.04-3.56c1.29-.82,2.74-1.22,4.35-1.22s3.09,.41,4.37,1.22c1.28,.82,2.3,2,3.04,3.56,.75,1.56,1.12,3.46,1.12,5.69s-.37,4.13-1.12,5.69c-.75,1.56-1.76,2.75-3.04,3.56-1.28,.82-2.73,1.22-4.37,1.22Zm0-3.29c.95,0,1.78-.26,2.47-.77,.7-.52,1.25-1.31,1.65-2.37s.6-2.42,.6-4.05-.2-3-.6-4.06-.95-1.84-1.65-2.36c-.7-.52-1.52-.77-2.47-.77s-1.72,.26-2.43,.77c-.71,.51-1.26,1.3-1.66,2.36s-.6,2.41-.6,4.06,.2,2.98,.6,4.05,.95,1.86,1.66,2.37c.71,.51,1.52,.77,2.43,.77Z"/><path id="Montserrat-SemiBold-25-12" class="cls-6" d="M1068.61,246.57l13.91-20.37h2.85l-13.91,20.37h-2.85Zm1.69-9.4c-.95,0-1.8-.23-2.53-.7-.74-.47-1.31-1.12-1.72-1.95-.41-.84-.61-1.82-.61-2.94s.2-2.1,.61-2.94c.41-.84,.98-1.49,1.72-1.95,.74-.47,1.58-.7,2.53-.7s1.85,.23,2.57,.7c.73,.46,1.29,1.11,1.7,1.95,.41,.83,.61,1.81,.61,2.94s-.2,2.11-.61,2.94c-.41,.83-.97,1.48-1.7,1.95-.73,.46-1.59,.7-2.57,.7Zm.03-2.04c.78,0,1.38-.3,1.82-.91,.44-.61,.65-1.49,.65-2.64s-.22-2.02-.65-2.63c-.44-.61-1.04-.92-1.82-.92s-1.39,.31-1.85,.93-.68,1.49-.68,2.62,.23,2,.68,2.62,1.07,.93,1.85,.93Zm13.33,11.64c-.95,0-1.8-.23-2.53-.7-.74-.47-1.31-1.12-1.72-1.95-.41-.84-.61-1.82-.61-2.94s.2-2.1,.61-2.94c.41-.84,.98-1.49,1.72-1.95,.74-.47,1.58-.7,2.53-.7s1.85,.23,2.57,.7c.73,.46,1.29,1.11,1.7,1.95,.41,.83,.61,1.81,.61,2.94s-.2,2.11-.61,2.94c-.41,.83-.97,1.48-1.7,1.95-.73,.46-1.59,.7-2.57,.7Zm0-2.04c.78,0,1.39-.31,1.83-.93,.45-.62,.67-1.49,.67-2.62s-.22-2-.67-2.62-1.06-.93-1.83-.93-1.37,.31-1.82,.92c-.45,.61-.68,1.49-.68,2.63s.23,2.03,.68,2.64c.46,.61,1.07,.91,1.82,.91Z"/></g></g><path class="cls-3" d="M234.74,293.59c-.88,0-1.7-.14-2.45-.42-.74-.29-1.38-.69-1.94-1.22-.54-.52-.97-1.14-1.28-1.84-.3-.7-.45-1.48-.45-2.32s.15-1.62,.45-2.32c.31-.7,.74-1.32,1.3-1.84,.56-.52,1.21-.92,1.95-1.2,.75-.29,1.57-.43,2.46-.43,.99,0,1.88,.17,2.67,.5,.8,.33,1.47,.81,2.02,1.44l-1.66,1.54c-.4-.43-.85-.74-1.33-.94-.48-.21-1-.32-1.57-.32s-1.04,.08-1.49,.26c-.45,.17-.84,.42-1.17,.74-.32,.32-.57,.7-.75,1.14-.17,.44-.26,.92-.26,1.46s.08,1,.26,1.44c.18,.44,.43,.82,.75,1.15,.33,.32,.71,.57,1.15,.74,.45,.17,.94,.26,1.47,.26s1.01-.08,1.49-.24c.49-.17,.96-.45,1.42-.85l1.47,1.87c-.61,.46-1.32,.81-2.13,1.06-.8,.24-1.6,.37-2.4,.37Zm2.16-1.76v-4.21h2.37v4.54l-2.37-.34Z"/></svg>