<?xml version="1.0" encoding="utf-8"?>
<!-- Generator: Adobe Illustrator 27.0.0, SVG Export Plug-In . SVG Version: 6.00 Build 0)  -->
<svg version="1.1" id="Layer_1" xmlns="http://www.w3.org/2000/svg" xmlns:xlink="http://www.w3.org/1999/xlink" x="0px" y="0px"
	 viewBox="0 0 1116.7 329.6" style="enable-background:new 0 0 1116.7 329.6;" xml:space="preserve">
<style type="text/css">
	.st0{fill:#FDD400;}
	.st1{fill:#FA9101;}
	.st2{fill:#D62015;}
	.st3{fill:#FDF300;}
	.st4{fill:#D8DB1A;}
	.st5{fill:#9ADE27;}
	.st6{fill:#00BD00;}
	.st7{fill:#001837;}
	.st8{fill:#667487;}
</style>
<path class="st0" d="M556,270.8h87.9l9.5,17l-9.5,17H556l9.5-17L556,270.8z"/>
<path class="st1" d="M463.4,270.8h87.9l9.5,17l-9.5,17h-87.9l9.5-17L463.4,270.8z"/>
<path class="st2" d="M0,270.8h458.6l9.5,17l-9.5,17H0l9.5-17L0,270.8z"/>
<path class="st3" d="M648.7,270.8h87.9l9.5,17l-9.5,17h-87.9l9.5-17L648.7,270.8z"/>
<path class="st4" d="M741.3,270.8h88l9.5,17l-9.5,17h-88l9.5-17L741.3,270.8z"/>
<path class="st5" d="M834,270.8h88l9.5,17l-9.5,17h-88l9.5-17L834,270.8z"/>
<path class="st6" d="M926.6,270.8h88l9.5,17l-9.5,17h-88l9.5-17L926.6,270.8z"/>
<path class="st6" d="M1019.2,270.8h88l9.5,17l-9.5,17h-88l9.5-17L1019.2,270.8L1019.2,270.8z"/>
<path class="st7" d="M602.8,286.7h5.4v2h-5.4V286.7z M603,291.3h6.1v2.1h-8.7v-11.2h8.5v2.1H603V291.3L603,291.3z"/>
<path class="st7" d="M691.7,293.4v-11.2h5.1c1.2,0,2.3,0.2,3.2,0.7s1.7,1.1,2.2,1.9s0.8,1.8,0.8,3s-0.3,2.1-0.8,3
	c-0.5,0.8-1.2,1.5-2.2,2c-0.9,0.5-2,0.7-3.2,0.7h-5.1V293.4z M694.3,291.3h2.4c0.8,0,1.4-0.1,1.9-0.4s1-0.7,1.3-1.2s0.5-1.1,0.5-1.8
	s-0.2-1.3-0.5-1.8s-0.7-0.9-1.3-1.2c-0.5-0.3-1.2-0.4-1.9-0.4h-2.4V291.3L694.3,291.3z"/>
<path class="st7" d="M790.8,293.6c-0.9,0-1.7-0.1-2.4-0.4s-1.4-0.7-1.9-1.2s-1-1.1-1.3-1.8c-0.3-0.7-0.5-1.5-0.5-2.3
	s0.2-1.6,0.5-2.3c0.3-0.7,0.7-1.3,1.3-1.8c0.5-0.5,1.2-0.9,1.9-1.2c0.7-0.3,1.5-0.4,2.4-0.4c1,0,1.8,0.2,2.6,0.5s1.5,0.8,2,1.5
	l-1.7,1.5c-0.4-0.4-0.8-0.8-1.3-1s-1-0.3-1.5-0.3s-1,0.1-1.4,0.3c-0.4,0.2-0.8,0.4-1.1,0.7c-0.3,0.3-0.6,0.7-0.8,1.1
	s-0.3,0.9-0.3,1.5s0.1,1,0.3,1.5s0.4,0.8,0.8,1.1s0.7,0.6,1.1,0.7c0.4,0.2,0.9,0.3,1.4,0.3s1.1-0.1,1.5-0.3c0.5-0.2,0.9-0.6,1.3-1
	l1.7,1.5c-0.5,0.6-1.2,1.1-2,1.5C792.6,293.4,791.8,293.6,790.8,293.6L790.8,293.6z"/>
<path class="st7" d="M877.6,293.4v-11.2h5.5c1.4,0,2.5,0.3,3.2,0.8s1.1,1.2,1.1,2.1c0,0.6-0.1,1.1-0.4,1.5c-0.3,0.4-0.7,0.8-1.2,1
	s-1.1,0.4-1.7,0.4l0.3-0.7c0.7,0,1.3,0.1,1.9,0.4c0.5,0.2,1,0.6,1.3,1c0.3,0.5,0.5,1,0.5,1.6c0,1-0.4,1.7-1.1,2.3
	c-0.8,0.5-1.9,0.8-3.3,0.8L877.6,293.4L877.6,293.4z M880.2,291.4h3c0.7,0,1.2-0.1,1.5-0.3c0.3-0.2,0.5-0.6,0.5-1.1s-0.2-0.8-0.5-1
	s-0.8-0.4-1.5-0.4H880v-1.9h2.8c0.6,0,1.1-0.1,1.4-0.3c0.3-0.2,0.5-0.6,0.5-1s-0.2-0.8-0.5-1s-0.8-0.3-1.4-0.3h-2.6V291.4
	L880.2,291.4z"/>
<path class="st7" d="M969.1,293.4l5-11.2h2.6l5,11.2H979l-4.1-9.9h1l-4.1,9.9H969.1L969.1,293.4z M971.6,291l0.7-2h5.8l0.7,2H971.6
	L971.6,291z"/>
<g>
	<path class="st7" d="M1078.8,286.8v2h-3.5v3.5h-2.1v-3.5h-3.5v-2h3.5v-3.5h2.1v3.5H1078.8z"/>
	<path class="st7" d="M1064.6,282.2h-2.6l-5,11.2h2.7l1-2.4h5.2l1,2.4h2.7L1064.6,282.2L1064.6,282.2z M1061.5,289l1.8-4.3l1.8,4.3
		H1061.5L1061.5,289z"/>
</g>
<path class="st7" d="M510.2,287.2h5.4v2.1h-5.4L510.2,287.2L510.2,287.2z M510.4,293.4h-2.6v-11.2h8.5v2.1h-5.9V293.4L510.4,293.4z"
	/>
<path class="st7" d="M234.7,293.6c-0.9,0-1.7-0.1-2.4-0.4s-1.4-0.7-1.9-1.2s-1-1.1-1.3-1.8c-0.3-0.7-0.4-1.5-0.4-2.3
	s0.1-1.6,0.4-2.3c0.3-0.7,0.7-1.3,1.3-1.8s1.2-0.9,1.9-1.2c0.8-0.3,1.6-0.4,2.5-0.4c1,0,1.9,0.2,2.7,0.5s1.5,0.8,2,1.4l-1.7,1.5
	c-0.4-0.4-0.9-0.7-1.3-0.9c-0.5-0.2-1-0.3-1.6-0.3s-1,0.1-1.5,0.3c-0.4,0.2-0.8,0.4-1.2,0.7c-0.3,0.3-0.6,0.7-0.8,1.1
	s-0.3,0.9-0.3,1.5s0.1,1,0.3,1.4s0.4,0.8,0.8,1.1c0.3,0.3,0.7,0.6,1.1,0.7c0.4,0.2,0.9,0.3,1.5,0.3s1-0.1,1.5-0.2
	c0.5-0.2,1-0.5,1.4-0.9l1.5,1.9c-0.6,0.5-1.3,0.8-2.1,1.1C236.3,293.5,235.5,293.6,234.7,293.6L234.7,293.6z M236.9,291.8v-4.2h2.4
	v4.5L236.9,291.8L236.9,291.8z"/>
<g>
	<path d="M920.6,319.3c-0.7,0-1.3-0.1-1.9-0.3c-0.5-0.2-0.9-0.5-1.2-0.9s-0.4-0.8-0.4-1.4c0-0.5,0.1-1,0.4-1.3
		c0.3-0.4,0.7-0.6,1.2-0.8s1.2-0.3,1.9-0.3s1.3,0.1,1.9,0.3c0.5,0.2,0.9,0.5,1.2,0.8s0.4,0.8,0.4,1.3s-0.1,1-0.4,1.4
		c-0.3,0.4-0.7,0.7-1.2,0.9C922,319.2,921.3,319.3,920.6,319.3z M920.6,315.2c-0.6,0-1.2-0.1-1.7-0.3c-0.5-0.2-0.9-0.4-1.1-0.8
		c-0.3-0.3-0.4-0.8-0.4-1.2c0-0.5,0.1-0.9,0.4-1.3c0.3-0.4,0.7-0.6,1.1-0.8c0.5-0.2,1-0.3,1.7-0.3c0.6,0,1.2,0.1,1.7,0.3
		c0.5,0.2,0.9,0.5,1.1,0.8c0.3,0.4,0.4,0.8,0.4,1.3s-0.1,0.9-0.4,1.2s-0.6,0.6-1.1,0.8C921.9,315.2,921.3,315.2,920.6,315.2z
		 M920.6,317.8c0.5,0,0.9-0.1,1.2-0.3c0.3-0.2,0.4-0.5,0.4-0.9s-0.1-0.6-0.4-0.9c-0.3-0.2-0.7-0.3-1.2-0.3s-0.9,0.1-1.1,0.3
		s-0.4,0.5-0.4,0.9s0.1,0.7,0.4,0.9C919.8,317.7,920.1,317.8,920.6,317.8z M920.6,314.1c0.4,0,0.7-0.1,1-0.3
		c0.2-0.2,0.4-0.4,0.4-0.8s-0.1-0.6-0.4-0.8c-0.2-0.2-0.6-0.3-1-0.3s-0.7,0.1-0.9,0.3c-0.2,0.2-0.4,0.4-0.4,0.8
		c0,0.3,0.1,0.6,0.3,0.8C919.9,314,920.2,314.1,920.6,314.1z"/>
	<path d="M927.9,319.3c-0.6,0-1.2-0.1-1.7-0.2s-1.1-0.4-1.5-0.7l0.8-1.5c0.3,0.2,0.7,0.4,1.1,0.6c0.4,0.1,0.8,0.2,1.3,0.2
		s0.9-0.1,1.2-0.3c0.3-0.2,0.4-0.5,0.4-0.8c0-0.2-0.1-0.4-0.2-0.6c-0.1-0.2-0.3-0.3-0.6-0.4s-0.7-0.1-1.2-0.1h-2.1l0.4-4.7h5.1v1.6
		h-4.4l1-0.9l-0.3,3.4l-1-0.9h1.8c0.8,0,1.5,0.1,2,0.3c0.5,0.2,0.9,0.5,1.1,0.9c0.2,0.4,0.4,0.8,0.4,1.3s-0.1,0.9-0.4,1.4
		c-0.2,0.4-0.6,0.8-1.1,1C929.4,319.1,928.7,319.3,927.9,319.3z"/>
</g>
<g>
	<path d="M823.3,319.1v-7.7l0.8,0.8h-2.5v-1.6h3.6v8.4h-1.9V319.1z"/>
	<path d="M828,319.1l3.4-7.7l0.5,0.8h-4.5l0.8-0.9v2.3h-1.7v-3h6.7v1.3l-3.1,7.1H828V319.1z"/>
	<path d="M837.5,319.3c-0.7,0-1.3-0.2-1.8-0.5s-1-0.8-1.3-1.5c-0.3-0.6-0.5-1.4-0.5-2.4c0-0.9,0.2-1.7,0.5-2.4
		c0.3-0.6,0.7-1.1,1.3-1.5s1.2-0.5,1.8-0.5c0.7,0,1.3,0.2,1.9,0.5s1,0.8,1.3,1.5c0.3,0.6,0.5,1.4,0.5,2.4c0,0.9-0.2,1.7-0.5,2.4
		c-0.3,0.6-0.7,1.1-1.3,1.5C838.8,319.1,838.2,319.3,837.5,319.3z M837.5,317.6c0.3,0,0.6-0.1,0.9-0.3c0.2-0.2,0.4-0.5,0.6-0.9
		c0.1-0.4,0.2-0.9,0.2-1.5s-0.1-1.1-0.2-1.5c-0.1-0.4-0.3-0.7-0.6-0.9c-0.2-0.2-0.5-0.3-0.9-0.3c-0.3,0-0.6,0.1-0.8,0.3
		c-0.2,0.2-0.4,0.5-0.6,0.9c-0.1,0.4-0.2,0.9-0.2,1.5s0.1,1.1,0.2,1.5c0.1,0.4,0.3,0.7,0.6,0.9C836.9,317.5,837.2,317.6,837.5,317.6
		z"/>
</g>
<g>
	<path d="M728.7,319.1v-1.3l3.2-3.1c0.3-0.2,0.4-0.4,0.6-0.6c0.1-0.2,0.2-0.3,0.2-0.5s0.1-0.3,0.1-0.4c0-0.3-0.1-0.6-0.3-0.8
		c-0.2-0.2-0.6-0.3-1-0.3s-0.7,0.1-1,0.2s-0.5,0.4-0.8,0.6l-1.4-0.9c0.3-0.5,0.8-0.9,1.3-1.1c0.6-0.3,1.2-0.4,2-0.4
		c0.6,0,1.2,0.1,1.6,0.3c0.5,0.2,0.8,0.5,1.1,0.9s0.4,0.8,0.4,1.3c0,0.3,0,0.5-0.1,0.8s-0.2,0.6-0.4,0.9s-0.5,0.6-0.9,1l-2.7,2.5
		l-0.4-0.7h4.8v1.6H728.7z"/>
	<path d="M738.7,319.3c-0.6,0-1.2-0.1-1.7-0.2s-1.1-0.4-1.5-0.7l0.8-1.5c0.3,0.2,0.7,0.4,1.1,0.6c0.4,0.1,0.8,0.2,1.3,0.2
		s0.9-0.1,1.2-0.3c0.3-0.2,0.4-0.5,0.4-0.8c0-0.2-0.1-0.4-0.2-0.6c-0.1-0.2-0.3-0.3-0.6-0.4s-0.7-0.1-1.2-0.1h-2.1l0.4-4.7h5.1v1.6
		h-4.4l1-0.9l-0.3,3.4l-1-0.9h1.8c0.8,0,1.5,0.1,2,0.3c0.5,0.2,0.9,0.5,1.1,0.9c0.2,0.4,0.4,0.8,0.4,1.3s-0.1,0.9-0.4,1.4
		c-0.2,0.4-0.6,0.8-1.1,1C740.1,319.1,739.5,319.3,738.7,319.3z"/>
	<path d="M745.7,319.3c-0.6,0-1.2-0.1-1.7-0.2s-1.1-0.4-1.5-0.7l0.8-1.5c0.3,0.2,0.7,0.4,1.1,0.6c0.4,0.1,0.8,0.2,1.3,0.2
		s0.9-0.1,1.2-0.3c0.3-0.2,0.4-0.5,0.4-0.8c0-0.2-0.1-0.4-0.2-0.6c-0.1-0.2-0.3-0.3-0.6-0.4s-0.7-0.1-1.2-0.1h-2.1l0.4-4.7h5.1v1.6
		h-4.4l1-0.9l-0.3,3.4l-1-0.9h1.8c0.8,0,1.5,0.1,2,0.3c0.5,0.2,0.9,0.5,1.1,0.9c0.2,0.4,0.4,0.8,0.4,1.3s-0.1,0.9-0.4,1.4
		c-0.2,0.4-0.6,0.8-1.1,1C747.2,319.1,746.5,319.3,745.7,319.3z"/>
</g>
<g>
	<path d="M637.7,319.3c-0.6,0-1.2-0.1-1.7-0.2c-0.6-0.2-1.1-0.4-1.5-0.7l0.8-1.5c0.3,0.2,0.7,0.4,1.1,0.6c0.4,0.1,0.9,0.2,1.3,0.2
		c0.5,0,0.9-0.1,1.2-0.3c0.3-0.2,0.4-0.5,0.4-0.8s-0.1-0.6-0.4-0.8c-0.2-0.2-0.6-0.3-1.2-0.3h-0.9v-1.3l2.3-2.7l0.2,0.7h-4.4v-1.6
		h5.9v1.3l-2.3,2.7l-1-0.6h0.6c1,0,1.8,0.2,2.3,0.7s0.8,1.1,0.8,1.8c0,0.5-0.1,0.9-0.4,1.3s-0.6,0.8-1.1,1
		C639.1,319.1,638.5,319.3,637.7,319.3z"/>
	<path d="M642,317.4v-1.3l4-5.3h2l-3.9,5.3l-1-0.3h6.6v1.6L642,317.4L642,317.4z M646.5,319.1v-1.8l0.1-1.6v-1.6h1.8v4.9h-1.9V319.1
		z"/>
	<path d="M653.9,319.3c-0.7,0-1.3-0.2-1.8-0.5s-1-0.8-1.3-1.5c-0.3-0.6-0.5-1.4-0.5-2.4c0-0.9,0.2-1.7,0.5-2.4
		c0.3-0.6,0.7-1.1,1.3-1.5s1.2-0.5,1.8-0.5c0.7,0,1.3,0.2,1.9,0.5s1,0.8,1.3,1.5c0.3,0.6,0.5,1.4,0.5,2.4c0,0.9-0.2,1.7-0.5,2.4
		c-0.3,0.6-0.7,1.1-1.3,1.5C655.2,319.1,654.6,319.3,653.9,319.3z M653.9,317.6c0.3,0,0.6-0.1,0.9-0.3c0.2-0.2,0.4-0.5,0.6-0.9
		c0.1-0.4,0.2-0.9,0.2-1.5s-0.1-1.1-0.2-1.5c-0.1-0.4-0.3-0.7-0.6-0.9c-0.2-0.2-0.5-0.3-0.9-0.3c-0.3,0-0.6,0.1-0.8,0.3
		c-0.2,0.2-0.4,0.5-0.6,0.9c-0.1,0.4-0.2,0.9-0.2,1.5s0.1,1.1,0.2,1.5c0.1,0.4,0.3,0.7,0.6,0.9C653.3,317.5,653.6,317.6,653.9,317.6
		z"/>
</g>
<g>
	<path d="M542.7,317.4v-1.3l4-5.3h2l-3.9,5.3l-1-0.3h6.6v1.6L542.7,317.4L542.7,317.4z M547.3,319.1v-1.8l0.1-1.6v-1.6h1.8v4.9h-1.9
		V319.1z"/>
	<path d="M551,319.1v-1.3l3.2-3.1c0.3-0.2,0.4-0.4,0.6-0.6c0.1-0.2,0.2-0.3,0.2-0.5s0.1-0.3,0.1-0.4c0-0.3-0.1-0.6-0.3-0.8
		c-0.2-0.2-0.6-0.3-1-0.3s-0.7,0.1-1,0.2s-0.5,0.4-0.8,0.6l-1.4-0.9c0.3-0.5,0.8-0.9,1.3-1.1c0.6-0.3,1.2-0.4,2-0.4
		c0.6,0,1.2,0.1,1.6,0.3c0.5,0.2,0.8,0.5,1.1,0.9s0.4,0.8,0.4,1.3c0,0.3,0,0.5-0.1,0.8s-0.2,0.6-0.4,0.9s-0.5,0.6-0.9,1l-2.7,2.5
		l-0.4-0.7h4.8v1.6H551z"/>
	<path d="M561,319.3c-0.6,0-1.2-0.1-1.7-0.2c-0.6-0.2-1.1-0.4-1.5-0.7l0.8-1.5c0.3,0.2,0.7,0.4,1.1,0.6c0.4,0.1,0.8,0.2,1.3,0.2
		s0.9-0.1,1.2-0.3c0.3-0.2,0.4-0.5,0.4-0.8c0-0.2-0.1-0.4-0.2-0.6c-0.1-0.2-0.3-0.3-0.6-0.4s-0.7-0.1-1.2-0.1h-2.1l0.4-4.7h5.1v1.6
		h-4.4l1-0.9l-0.3,3.4l-1-0.9h1.8c0.8,0,1.5,0.1,2,0.3c0.5,0.2,0.9,0.5,1.1,0.9c0.2,0.4,0.4,0.8,0.4,1.3s-0.1,0.9-0.4,1.4
		c-0.2,0.4-0.6,0.8-1.1,1C562.5,319.1,561.8,319.3,561,319.3z"/>
</g>
<g>
	<path d="M454.3,319.3c-0.6,0-1.2-0.1-1.7-0.2s-1.1-0.4-1.5-0.7l0.8-1.5c0.3,0.2,0.7,0.4,1.1,0.6c0.4,0.1,0.8,0.2,1.3,0.2
		s0.9-0.1,1.2-0.3c0.3-0.2,0.4-0.5,0.4-0.8c0-0.2-0.1-0.4-0.2-0.6s-0.3-0.3-0.6-0.4s-0.7-0.1-1.2-0.1h-2.1l0.4-4.7h5.1v1.6h-4.4
		l1-0.9l-0.3,3.4l-1-0.9h1.8c0.8,0,1.5,0.1,2,0.3c0.5,0.2,0.9,0.5,1.1,0.9s0.4,0.8,0.4,1.3s-0.1,0.9-0.4,1.4c-0.2,0.4-0.6,0.8-1.1,1
		C455.7,319.1,455.1,319.3,454.3,319.3z"/>
	<path d="M459.9,319.1v-7.7l0.8,0.8h-2.5v-1.6h3.6v8.4h-1.9V319.1z"/>
	<path d="M466.9,319.3c-0.7,0-1.3-0.2-1.8-0.5s-1-0.8-1.3-1.5c-0.3-0.6-0.5-1.4-0.5-2.4c0-0.9,0.2-1.7,0.5-2.4
		c0.3-0.6,0.7-1.1,1.3-1.5s1.2-0.5,1.8-0.5c0.7,0,1.3,0.2,1.9,0.5s1,0.8,1.3,1.5c0.3,0.6,0.5,1.4,0.5,2.4c0,0.9-0.2,1.7-0.5,2.4
		c-0.3,0.6-0.7,1.1-1.3,1.5C468.2,319.1,467.6,319.3,466.9,319.3z M466.9,317.6c0.3,0,0.6-0.1,0.9-0.3c0.2-0.2,0.4-0.5,0.6-0.9
		c0.1-0.4,0.2-0.9,0.2-1.5s-0.1-1.1-0.2-1.5s-0.3-0.7-0.6-0.9c-0.2-0.2-0.5-0.3-0.9-0.3c-0.3,0-0.6,0.1-0.8,0.3
		c-0.2,0.2-0.4,0.5-0.6,0.9c-0.1,0.4-0.2,0.9-0.2,1.5s0.1,1.1,0.2,1.5s0.3,0.7,0.6,0.9C466.3,317.5,466.6,317.6,466.9,317.6z"/>
</g>
<g>
	<path d="M360.6,319.3c-0.8,0-1.4-0.2-2-0.5s-1-0.8-1.3-1.4s-0.5-1.4-0.5-2.3c0-1,0.2-1.8,0.5-2.5c0.4-0.7,0.9-1.2,1.5-1.5
		c0.6-0.4,1.4-0.5,2.2-0.5c0.4,0,0.9,0,1.3,0.2c0.4,0.1,0.8,0.2,1.1,0.4l-0.7,1.4c-0.2-0.2-0.5-0.3-0.7-0.3
		c-0.3-0.1-0.5-0.1-0.8-0.1c-0.7,0-1.3,0.2-1.7,0.7c-0.4,0.4-0.6,1.1-0.6,2c0,0.1,0,0.3,0,0.5s0,0.4,0.1,0.5l-0.5-0.5
		c0.2-0.3,0.3-0.6,0.6-0.8c0.2-0.2,0.5-0.4,0.9-0.5c0.3-0.1,0.7-0.2,1.1-0.2c0.5,0,1,0.1,1.5,0.3c0.4,0.2,0.8,0.5,1,0.9
		c0.3,0.4,0.4,0.9,0.4,1.4c0,0.6-0.1,1.1-0.4,1.5s-0.7,0.7-1.1,1C361.7,319.2,361.2,319.3,360.6,319.3z M360.5,317.8
		c0.3,0,0.5,0,0.7-0.2c0.2-0.1,0.4-0.2,0.5-0.4c0.1-0.2,0.2-0.4,0.2-0.7c0-0.4-0.1-0.7-0.4-0.9c-0.3-0.2-0.6-0.3-1-0.3
		c-0.3,0-0.5,0.1-0.8,0.2c-0.2,0.1-0.4,0.3-0.5,0.5s-0.2,0.4-0.2,0.7c0,0.2,0.1,0.4,0.2,0.6s0.3,0.3,0.5,0.4
		C359.9,317.8,360.1,317.8,360.5,317.8z"/>
	<path d="M368,319.3c-0.7,0-1.3-0.2-1.8-0.5s-1-0.8-1.3-1.5c-0.3-0.6-0.5-1.4-0.5-2.4c0-0.9,0.2-1.7,0.5-2.4
		c0.3-0.6,0.7-1.1,1.3-1.5s1.2-0.5,1.8-0.5c0.7,0,1.3,0.2,1.9,0.5s1,0.8,1.3,1.5c0.3,0.6,0.5,1.4,0.5,2.4c0,0.9-0.2,1.7-0.5,2.4
		c-0.3,0.6-0.7,1.1-1.3,1.5C369.4,319.1,368.7,319.3,368,319.3z M368,317.6c0.3,0,0.6-0.1,0.9-0.3c0.2-0.2,0.4-0.5,0.6-0.9
		c0.1-0.4,0.2-0.9,0.2-1.5s-0.1-1.1-0.2-1.5s-0.3-0.7-0.6-0.9c-0.2-0.2-0.5-0.3-0.9-0.3c-0.3,0-0.6,0.1-0.8,0.3
		c-0.2,0.2-0.4,0.5-0.6,0.9c-0.1,0.4-0.2,0.9-0.2,1.5s0.1,1.1,0.2,1.5s0.3,0.7,0.6,0.9C367.5,317.5,367.7,317.6,368,317.6z"/>
	<path d="M376.2,319.3c-0.7,0-1.3-0.2-1.8-0.5s-1-0.8-1.3-1.5c-0.3-0.6-0.5-1.4-0.5-2.4c0-0.9,0.2-1.7,0.5-2.4
		c0.3-0.6,0.7-1.1,1.3-1.5s1.2-0.5,1.8-0.5c0.7,0,1.3,0.2,1.9,0.5s1,0.8,1.3,1.5c0.3,0.6,0.5,1.4,0.5,2.4c0,0.9-0.2,1.7-0.5,2.4
		c-0.3,0.6-0.7,1.1-1.3,1.5C377.5,319.1,376.9,319.3,376.2,319.3z M376.2,317.6c0.3,0,0.6-0.1,0.9-0.3c0.2-0.2,0.4-0.5,0.6-0.9
		c0.1-0.4,0.2-0.9,0.2-1.5s-0.1-1.1-0.2-1.5s-0.3-0.7-0.6-0.9c-0.2-0.2-0.5-0.3-0.9-0.3c-0.3,0-0.6,0.1-0.8,0.3
		c-0.2,0.2-0.4,0.5-0.6,0.9c-0.1,0.4-0.2,0.9-0.2,1.5s0.1,1.1,0.2,1.5s0.3,0.7,0.6,0.9C375.6,317.5,375.9,317.6,376.2,317.6z"/>
</g>
<g>
	<path d="M265.7,319.1l3.4-7.7l0.5,0.8h-4.5l0.8-0.9v2.3h-1.7v-3h6.7v1.3l-3.1,7.1h-2.1V319.1z"/>
	<path d="M275.2,319.3c-0.7,0-1.3-0.2-1.8-0.5s-1-0.8-1.3-1.5c-0.3-0.6-0.5-1.4-0.5-2.4c0-0.9,0.2-1.7,0.5-2.4
		c0.3-0.6,0.7-1.1,1.3-1.5s1.2-0.5,1.8-0.5c0.7,0,1.3,0.2,1.9,0.5s1,0.8,1.3,1.5c0.3,0.6,0.5,1.4,0.5,2.4c0,0.9-0.2,1.7-0.5,2.4
		c-0.3,0.6-0.7,1.1-1.3,1.5C276.5,319.1,275.9,319.3,275.2,319.3z M275.2,317.6c0.3,0,0.6-0.1,0.9-0.3c0.2-0.2,0.4-0.5,0.6-0.9
		c0.1-0.4,0.2-0.9,0.2-1.5s-0.1-1.1-0.2-1.5s-0.3-0.7-0.6-0.9c-0.2-0.2-0.5-0.3-0.9-0.3c-0.3,0-0.6,0.1-0.8,0.3
		c-0.2,0.2-0.4,0.5-0.6,0.9c-0.1,0.4-0.2,0.9-0.2,1.5s0.1,1.1,0.2,1.5s0.3,0.7,0.6,0.9C274.6,317.5,274.9,317.6,275.2,317.6z"/>
	<path d="M283.3,319.3c-0.7,0-1.3-0.2-1.8-0.5s-1-0.8-1.3-1.5c-0.3-0.6-0.5-1.4-0.5-2.4c0-0.9,0.2-1.7,0.5-2.4
		c0.3-0.6,0.7-1.1,1.3-1.5s1.2-0.5,1.8-0.5c0.7,0,1.3,0.2,1.9,0.5s1,0.8,1.3,1.5c0.3,0.6,0.5,1.4,0.5,2.4c0,0.9-0.2,1.7-0.5,2.4
		c-0.3,0.6-0.7,1.1-1.3,1.5C284.6,319.1,284,319.3,283.3,319.3z M283.3,317.6c0.3,0,0.6-0.1,0.9-0.3c0.2-0.2,0.4-0.5,0.6-0.9
		c0.1-0.4,0.2-0.9,0.2-1.5s-0.1-1.1-0.2-1.5s-0.3-0.7-0.6-0.9c-0.2-0.2-0.5-0.3-0.9-0.3c-0.3,0-0.6,0.1-0.8,0.3
		c-0.2,0.2-0.4,0.5-0.6,0.9c-0.1,0.4-0.2,0.9-0.2,1.5s0.1,1.1,0.2,1.5s0.3,0.7,0.6,0.9C282.7,317.5,283,317.6,283.3,317.6z"/>
</g>
<g>
	<path d="M174.8,319.3c-0.7,0-1.3-0.1-1.9-0.3c-0.5-0.2-0.9-0.5-1.2-0.9s-0.4-0.8-0.4-1.4c0-0.5,0.1-1,0.4-1.3
		c0.3-0.4,0.7-0.6,1.2-0.8s1.2-0.3,1.9-0.3s1.3,0.1,1.9,0.3c0.5,0.2,0.9,0.5,1.2,0.8s0.4,0.8,0.4,1.3s-0.1,1-0.4,1.4
		c-0.3,0.4-0.7,0.7-1.2,0.9C176.2,319.2,175.6,319.3,174.8,319.3z M174.8,315.2c-0.6,0-1.2-0.1-1.7-0.3c-0.5-0.2-0.9-0.4-1.1-0.8
		c-0.3-0.3-0.4-0.8-0.4-1.2c0-0.5,0.1-0.9,0.4-1.3c0.3-0.4,0.7-0.6,1.1-0.8c0.5-0.2,1-0.3,1.7-0.3c0.6,0,1.2,0.1,1.7,0.3
		c0.5,0.2,0.9,0.5,1.1,0.8c0.3,0.4,0.4,0.8,0.4,1.3s-0.1,0.9-0.4,1.2s-0.6,0.6-1.1,0.8C176.1,315.2,175.5,315.2,174.8,315.2z
		 M174.8,317.8c0.5,0,0.9-0.1,1.2-0.3c0.3-0.2,0.4-0.5,0.4-0.9s-0.1-0.6-0.4-0.9c-0.3-0.2-0.7-0.3-1.2-0.3s-0.9,0.1-1.1,0.3
		s-0.4,0.5-0.4,0.9s0.1,0.7,0.4,0.9C174,317.7,174.4,317.8,174.8,317.8z M174.8,314.1c0.4,0,0.7-0.1,1-0.3c0.2-0.2,0.4-0.4,0.4-0.8
		s-0.1-0.6-0.4-0.8c-0.2-0.2-0.6-0.3-1-0.3s-0.7,0.1-0.9,0.3c-0.2,0.2-0.4,0.4-0.4,0.8c0,0.3,0.1,0.6,0.3,0.8
		C174.1,314,174.4,314.1,174.8,314.1z"/>
	<path d="M182.9,319.3c-0.7,0-1.3-0.2-1.8-0.5s-1-0.8-1.3-1.5c-0.3-0.6-0.5-1.4-0.5-2.4c0-0.9,0.2-1.7,0.5-2.4
		c0.3-0.6,0.7-1.1,1.3-1.5s1.2-0.5,1.8-0.5c0.7,0,1.3,0.2,1.9,0.5s1,0.8,1.3,1.5c0.3,0.6,0.5,1.4,0.5,2.4c0,0.9-0.2,1.7-0.5,2.4
		c-0.3,0.6-0.7,1.1-1.3,1.5C184.2,319.1,183.6,319.3,182.9,319.3z M182.9,317.6c0.3,0,0.6-0.1,0.9-0.3c0.2-0.2,0.4-0.5,0.6-0.9
		c0.1-0.4,0.2-0.9,0.2-1.5s-0.1-1.1-0.2-1.5c-0.1-0.4-0.3-0.7-0.6-0.9c-0.2-0.2-0.5-0.3-0.9-0.3c-0.3,0-0.6,0.1-0.8,0.3
		c-0.2,0.2-0.4,0.5-0.6,0.9c-0.1,0.4-0.2,0.9-0.2,1.5s0.1,1.1,0.2,1.5c0.1,0.4,0.3,0.7,0.6,0.9C182.3,317.5,182.6,317.6,182.9,317.6
		z"/>
	<path d="M191,319.3c-0.7,0-1.3-0.2-1.8-0.5s-1-0.8-1.3-1.5c-0.3-0.6-0.5-1.4-0.5-2.4c0-0.9,0.2-1.7,0.5-2.4
		c0.3-0.6,0.7-1.1,1.3-1.5s1.2-0.5,1.8-0.5c0.7,0,1.3,0.2,1.9,0.5s1,0.8,1.3,1.5c0.3,0.6,0.5,1.4,0.5,2.4c0,0.9-0.2,1.7-0.5,2.4
		c-0.3,0.6-0.7,1.1-1.3,1.5C192.3,319.1,191.7,319.3,191,319.3z M191,317.6c0.3,0,0.6-0.1,0.9-0.3c0.2-0.2,0.4-0.5,0.6-0.9
		c0.1-0.4,0.2-0.9,0.2-1.5s-0.1-1.1-0.2-1.5c-0.1-0.4-0.3-0.7-0.6-0.9c-0.2-0.2-0.5-0.3-0.9-0.3c-0.3,0-0.6,0.1-0.8,0.3
		c-0.2,0.2-0.4,0.5-0.6,0.9c-0.1,0.4-0.2,0.9-0.2,1.5s0.1,1.1,0.2,1.5c0.1,0.4,0.3,0.7,0.6,0.9C190.4,317.5,190.7,317.6,191,317.6z"
		/>
</g>
<g>
	<path d="M81.8,310.6c0.8,0,1.4,0.2,2,0.5s1,0.8,1.3,1.4s0.5,1.4,0.5,2.3c0,1-0.2,1.8-0.5,2.5s-0.9,1.2-1.5,1.5
		c-0.6,0.4-1.4,0.5-2.2,0.5c-0.4,0-0.9,0-1.3-0.1s-0.8-0.2-1.1-0.4l0.7-1.4c0.2,0.2,0.5,0.3,0.8,0.3c0.3,0.1,0.5,0.1,0.8,0.1
		c0.7,0,1.3-0.2,1.7-0.7c0.4-0.4,0.6-1.1,0.6-1.9c0-0.1,0-0.3,0-0.5s0-0.4-0.1-0.5l0.5,0.5c-0.1,0.3-0.3,0.6-0.6,0.8
		c-0.2,0.2-0.5,0.4-0.9,0.5c-0.3,0.1-0.7,0.2-1.1,0.2c-0.5,0-1-0.1-1.5-0.3c-0.4-0.2-0.8-0.5-1-0.9c-0.3-0.4-0.4-0.9-0.4-1.4
		c0-0.6,0.1-1.1,0.4-1.5s0.7-0.7,1.2-1C80.7,310.7,81.2,310.6,81.8,310.6z M81.9,312c-0.3,0-0.5,0-0.7,0.1s-0.4,0.2-0.5,0.4
		c-0.1,0.2-0.2,0.4-0.2,0.7c0,0.4,0.1,0.7,0.4,0.9c0.3,0.2,0.6,0.3,1,0.3c0.3,0,0.5-0.1,0.8-0.2c0.2-0.1,0.4-0.3,0.5-0.5
		s0.2-0.4,0.2-0.7c0-0.2-0.1-0.4-0.2-0.6s-0.3-0.3-0.5-0.4C82.5,312.1,82.2,312,81.9,312z"/>
	<path d="M90.1,319.3c-0.7,0-1.3-0.2-1.8-0.5s-1-0.8-1.3-1.5c-0.3-0.6-0.5-1.4-0.5-2.4c0-0.9,0.2-1.7,0.5-2.4
		c0.3-0.6,0.7-1.1,1.3-1.5s1.2-0.5,1.8-0.5c0.7,0,1.3,0.2,1.9,0.5s1,0.8,1.3,1.5c0.3,0.6,0.5,1.4,0.5,2.4c0,0.9-0.2,1.7-0.5,2.4
		c-0.3,0.6-0.7,1.1-1.3,1.5C91.4,319.1,90.8,319.3,90.1,319.3z M90.1,317.6c0.3,0,0.6-0.1,0.9-0.3c0.2-0.2,0.4-0.5,0.6-0.9
		c0.1-0.4,0.2-0.9,0.2-1.5s-0.1-1.1-0.2-1.5s-0.3-0.7-0.6-0.9c-0.2-0.2-0.5-0.3-0.9-0.3c-0.3,0-0.6,0.1-0.8,0.3
		c-0.2,0.2-0.4,0.5-0.6,0.9c-0.1,0.4-0.2,0.9-0.2,1.5s0.1,1.1,0.2,1.5s0.3,0.7,0.6,0.9C89.5,317.5,89.8,317.6,90.1,317.6z"/>
	<path d="M98.2,319.3c-0.7,0-1.3-0.2-1.8-0.5s-1-0.8-1.3-1.5c-0.3-0.6-0.5-1.4-0.5-2.4c0-0.9,0.2-1.7,0.5-2.4
		c0.3-0.6,0.7-1.1,1.3-1.5s1.2-0.5,1.8-0.5c0.7,0,1.3,0.2,1.9,0.5s1,0.8,1.3,1.5c0.3,0.6,0.5,1.4,0.5,2.4c0,0.9-0.2,1.7-0.5,2.4
		c-0.3,0.6-0.7,1.1-1.3,1.5C99.6,319.1,98.9,319.3,98.2,319.3z M98.2,317.6c0.3,0,0.6-0.1,0.9-0.3c0.2-0.2,0.4-0.5,0.6-0.9
		c0.1-0.4,0.2-0.9,0.2-1.5s-0.1-1.1-0.2-1.5s-0.3-0.7-0.6-0.9c-0.2-0.2-0.5-0.3-0.9-0.3c-0.3,0-0.6,0.1-0.8,0.3
		c-0.2,0.2-0.4,0.5-0.6,0.9c-0.1,0.4-0.2,0.9-0.2,1.5s0.1,1.1,0.2,1.5s0.3,0.7,0.6,0.9C97.7,317.5,97.9,317.6,98.2,317.6z"/>
</g>
<g>
	<path d="M1009.5,317.4v-1.3l4-5.3h2l-3.9,5.3l-1-0.3h6.6v1.6L1009.5,317.4L1009.5,317.4z M1014,319.1v-1.8l0.1-1.6v-1.6h1.8v4.9
		h-1.9V319.1z"/>
	<path d="M1020.7,319.3c-0.6,0-1.2-0.1-1.7-0.2s-1.1-0.4-1.5-0.7l0.8-1.5c0.3,0.2,0.7,0.4,1.1,0.6c0.4,0.1,0.8,0.2,1.3,0.2
		s0.9-0.1,1.2-0.3c0.3-0.2,0.4-0.5,0.4-0.8c0-0.2-0.1-0.4-0.2-0.6c-0.1-0.2-0.3-0.3-0.6-0.4s-0.7-0.1-1.2-0.1h-2.1l0.4-4.7h5.1v1.6
		h-4.4l1-0.9l-0.3,3.4l-1-0.9h1.8c0.8,0,1.5,0.1,2,0.3c0.5,0.2,0.9,0.5,1.1,0.9c0.2,0.4,0.4,0.8,0.4,1.3s-0.1,0.9-0.4,1.4
		c-0.2,0.4-0.6,0.8-1.1,1C1022.2,319.1,1021.5,319.3,1020.7,319.3z"/>
</g>
<g>
	<path d="M1109.5,319.3c-0.7,0-1.3-0.2-1.8-0.5s-1-0.8-1.3-1.5c-0.3-0.6-0.5-1.4-0.5-2.4c0-0.9,0.2-1.7,0.5-2.4
		c0.3-0.6,0.7-1.1,1.3-1.5s1.2-0.5,1.8-0.5c0.7,0,1.3,0.2,1.9,0.5s1,0.8,1.3,1.5c0.3,0.6,0.5,1.4,0.5,2.4c0,0.9-0.2,1.7-0.5,2.4
		c-0.3,0.6-0.7,1.1-1.3,1.5C1110.8,319.1,1110.2,319.3,1109.5,319.3z M1109.5,317.6c0.3,0,0.6-0.1,0.9-0.3c0.2-0.2,0.4-0.5,0.6-0.9
		c0.1-0.4,0.2-0.9,0.2-1.5s-0.1-1.1-0.2-1.5s-0.3-0.7-0.6-0.9c-0.2-0.2-0.5-0.3-0.9-0.3c-0.3,0-0.6,0.1-0.8,0.3
		c-0.2,0.2-0.4,0.5-0.6,0.9c-0.1,0.4-0.2,0.9-0.2,1.5s0.1,1.1,0.2,1.5s0.3,0.7,0.6,0.9C1108.9,317.5,1109.2,317.6,1109.5,317.6z"/>
</g>
<g>
	<g id="text_1_00000001665263027665493180000001037256600826325926_">
		<g transform="translate(188.852927 125.047059)scale(0.2 -0.2)">
			<g>
				<path id="Montserrat-SemiBold-20" class="st8" d="M-838.9-256.4"/>
			</g>
			<g>
				<path id="Montserrat-SemiBold-35_00000085229788119029927320000003762200230618918839_" class="st8" d="M-765.3-257.8
					c-6.6,0-13,1-19.3,2.9c-6.3,1.9-11.5,4.6-15.8,7.9l7.3,13.5c3.4-2.8,7.5-5,12.3-6.7c4.8-1.7,9.9-2.5,15.1-2.5
					c6.1,0,10.9,1.3,14.5,3.9c3.5,2.6,5.3,6.1,5.3,10.4c0,2.9-0.7,5.5-2.2,7.7c-1.5,2.2-4,3.9-7.7,5.1c-3.7,1.2-8.7,1.7-15.1,1.7
					h-22.5l4.8,50.8h54.8v-14.5h-48.4l9.1,8.3l-3.6-38l-9.1,8.1h18.8c9.2,0,16.7-1.2,22.3-3.7c5.7-2.4,9.8-5.8,12.4-10.1
					c2.6-4.3,3.9-9.2,3.9-14.7c0-5.4-1.3-10.4-4-14.9c-2.7-4.5-6.7-8.2-12.2-10.9C-750-256.4-756.9-257.8-765.3-257.8z"/>
			</g>
			<g>
				<path id="Montserrat-SemiBold-25_00000073691358162129811570000007333245159181353120_" class="st8" d="M-705.3-256.4l63.7,93.3
					h13.1l-63.7-93.3H-705.3z M-697.6-213.4c-4.4,0-8.2,1.1-11.6,3.2c-3.4,2.1-6,5.1-7.9,8.9c-1.9,3.8-2.8,8.3-2.8,13.5
					c0,5.2,0.9,9.6,2.8,13.5c1.9,3.8,4.5,6.8,7.9,8.9c3.4,2.1,7.2,3.2,11.6,3.2c4.5,0,8.5-1.1,11.8-3.2c3.3-2.1,5.9-5.1,7.8-8.9
					c1.9-3.8,2.8-8.3,2.8-13.5c0-5.2-0.9-9.6-2.8-13.5c-1.9-3.8-4.5-6.8-7.8-8.9C-689.1-212.3-693-213.4-697.6-213.4z M-697.4-204
					c3.6,0,6.3,1.4,8.3,4.2c2,2.8,3,6.8,3,12.1c0,5.2-1,9.3-3,12.1c-2,2.8-4.8,4.2-8.3,4.2c-3.6,0-6.4-1.4-8.5-4.3
					c-2.1-2.8-3.1-6.8-3.1-12c0-5.2,1-9.2,3.1-12S-701-204-697.4-204z M-636.4-257.4c-4.4,0-8.2,1.1-11.6,3.2
					c-3.4,2.1-6,5.1-7.9,8.9c-1.9,3.8-2.8,8.3-2.8,13.5c0,5.2,0.9,9.6,2.8,13.5c1.9,3.8,4.5,6.8,7.9,8.9c3.4,2.1,7.2,3.2,11.6,3.2
					c4.5,0,8.5-1.1,11.8-3.2c3.3-2.1,5.9-5.1,7.8-8.9c1.9-3.8,2.8-8.3,2.8-13.5c0-5.2-0.9-9.6-2.8-13.5c-1.9-3.8-4.5-6.8-7.8-8.9
					C-627.9-256.3-631.8-257.4-636.4-257.4z M-636.4-248c3.6,0,6.4,1.4,8.4,4.3s3.1,6.8,3.1,12c0,5.2-1,9.2-3.1,12
					c-2,2.8-4.8,4.3-8.4,4.3c-3.5,0-6.3-1.4-8.4-4.2c-2.1-2.8-3.1-6.8-3.1-12.1c0-5.2,1-9.3,3.1-12.1
					C-642.6-246.6-639.8-248-636.4-248z"/>
			</g>
		</g>
	</g>
	<g id="text_2_00000135674798187835376040000000689464302439436178_">
		<g transform="translate(258.362654 143.319328)scale(0.2 -0.2)">
			<g>
				<path id="Montserrat-SemiBold-20_00000158727265152205016830000014898633254469497506_" class="st8" d="M-723.1-286.9"/>
			</g>
			<g>
				<path id="Montserrat-SemiBold-33_00000171677993996621460660000001204668048008440502_" class="st8" d="M-651.1-288.2
					c-6.6,0-13,1-19.3,2.9c-6.3,1.9-11.5,4.6-15.8,7.9l7.5,13.5c3.4-2.8,7.5-5,12.2-6.7c4.8-1.7,9.8-2.5,15.1-2.5
					c6.2,0,11.1,1.3,14.5,3.8c3.5,2.5,5.2,6,5.2,10.4c0,4.3-1.6,7.6-4.8,10.1c-3.2,2.5-8.3,3.7-15.5,3.7h-8.5v11.9l26.7,31.7
					l2.2-6.5h-50.1v14.5h63.6v-11.6l-26.7-31.7l-9.1,5.3h5.2c11.5,0,20.1-2.6,25.8-7.7c5.7-5.1,8.6-11.7,8.6-19.7
					c0-5.2-1.3-10.1-4-14.5s-6.7-8-12.2-10.7C-635.8-286.9-642.7-288.2-651.1-288.2z"/>
			</g>
			<g>
				<path id="Montserrat-SemiBold-25_00000078044161850255235400000006876929293290296716_" class="st8" d="M-589.7-286.9l63.7,93.3
					h13.1l-63.7-93.3H-589.7z M-582-243.8c-4.4,0-8.2,1.1-11.6,3.2c-3.4,2.1-6,5.1-7.9,8.9c-1.9,3.8-2.8,8.3-2.8,13.5
					s0.9,9.6,2.8,13.5c1.9,3.8,4.5,6.8,7.9,8.9c3.4,2.1,7.2,3.2,11.6,3.2c4.5,0,8.5-1.1,11.8-3.2c3.3-2.1,5.9-5.1,7.8-8.9
					c1.9-3.8,2.8-8.3,2.8-13.5s-0.9-9.6-2.8-13.5c-1.9-3.8-4.5-6.8-7.8-8.9C-573.5-242.8-577.5-243.8-582-243.8z M-581.9-234.5
					c3.6,0,6.3,1.4,8.3,4.2c2,2.8,3,6.8,3,12.1s-1,9.3-3,12.1c-2,2.8-4.8,4.2-8.3,4.2c-3.6,0-6.4-1.4-8.5-4.3
					c-2.1-2.8-3.1-6.8-3.1-12s1-9.2,3.1-12S-585.4-234.5-581.9-234.5z M-520.8-287.8c-4.4,0-8.2,1.1-11.6,3.2
					c-3.4,2.1-6,5.1-7.9,8.9c-1.9,3.8-2.8,8.3-2.8,13.5c0,5.2,0.9,9.6,2.8,13.5c1.9,3.8,4.5,6.8,7.9,8.9c3.4,2.1,7.2,3.2,11.6,3.2
					c4.5,0,8.5-1.1,11.8-3.2c3.3-2.1,5.9-5.1,7.8-8.9c1.9-3.8,2.8-8.3,2.8-13.5c0-5.2-0.9-9.6-2.8-13.5c-1.9-3.8-4.5-6.8-7.8-8.9
					C-512.3-286.8-516.3-287.8-520.8-287.8z M-520.8-278.5c3.6,0,6.4,1.4,8.4,4.3c2,2.8,3.1,6.8,3.1,12c0,5.2-1,9.2-3.1,12
					s-4.8,4.3-8.4,4.3c-3.5,0-6.3-1.4-8.4-4.2c-2.1-2.8-3.1-6.8-3.1-12.1c0-5.2,1-9.3,3.1-12.1C-527-277.1-524.3-278.5-520.8-278.5z
					"/>
			</g>
		</g>
	</g>
	<g id="text_3_00000116937670344787565700000016938136421918931641_">
		<g transform="translate(327.831756 125.047059)scale(0.2 -0.2)">
			<g>
				<path id="Montserrat-SemiBold-20_00000048486431941653932880000012500398006762092679_" class="st8" d="M-607.3-256.4"/>
			</g>
			<g>
				<path id="Montserrat-SemiBold-35_00000098907496836012040150000007440169731130086028_" class="st8" d="M-533.7-257.8
					c-6.6,0-13,1-19.3,2.9c-6.3,1.9-11.5,4.6-15.8,7.9l7.3,13.5c3.4-2.8,7.5-5,12.3-6.7c4.8-1.7,9.9-2.5,15.1-2.5
					c6.1,0,10.9,1.3,14.5,3.9c3.5,2.6,5.3,6.1,5.3,10.4c0,2.9-0.7,5.5-2.2,7.7c-1.5,2.2-4,3.9-7.7,5.1c-3.7,1.2-8.7,1.7-15.1,1.7
					h-22.5l4.8,50.8h54.8v-14.5h-48.4l9.1,8.3l-3.6-38l-9.1,8.1h18.8c9.2,0,16.7-1.2,22.3-3.7c5.7-2.4,9.8-5.8,12.4-10.1
					c2.6-4.3,3.9-9.2,3.9-14.7c0-5.4-1.3-10.4-4-14.9c-2.7-4.5-6.7-8.2-12.2-10.9C-518.4-256.4-525.3-257.8-533.7-257.8z"/>
			</g>
			<g>
				<path id="Montserrat-SemiBold-25_00000083053271185896761700000003582515574378792859_" class="st8" d="M-473.7-256.4l63.7,93.3
					h13.1l-63.7-93.3H-473.7z M-466-213.4c-4.4,0-8.2,1.1-11.6,3.2c-3.4,2.1-6,5.1-7.9,8.9c-1.9,3.8-2.8,8.3-2.8,13.5
					c0,5.2,0.9,9.6,2.8,13.5c1.9,3.8,4.5,6.8,7.9,8.9c3.4,2.1,7.2,3.2,11.6,3.2c4.5,0,8.5-1.1,11.8-3.2c3.3-2.1,5.9-5.1,7.8-8.9
					c1.9-3.8,2.8-8.3,2.8-13.5c0-5.2-0.9-9.6-2.8-13.5c-1.9-3.8-4.5-6.8-7.8-8.9C-457.5-212.3-461.4-213.4-466-213.4z M-465.8-204
					c3.6,0,6.3,1.4,8.3,4.2c2,2.8,3,6.8,3,12.1c0,5.2-1,9.3-3,12.1c-2,2.8-4.8,4.2-8.3,4.2c-3.6,0-6.4-1.4-8.5-4.3
					c-2.1-2.8-3.1-6.8-3.1-12c0-5.2,1-9.2,3.1-12C-472.2-202.6-469.4-204-465.8-204z M-404.8-257.4c-4.4,0-8.2,1.1-11.6,3.2
					c-3.4,2.1-6,5.1-7.9,8.9c-1.9,3.8-2.8,8.3-2.8,13.5c0,5.2,0.9,9.6,2.8,13.5c1.9,3.8,4.5,6.8,7.9,8.9c3.4,2.1,7.2,3.2,11.6,3.2
					c4.5,0,8.5-1.1,11.8-3.2c3.3-2.1,5.9-5.1,7.8-8.9c1.9-3.8,2.8-8.3,2.8-13.5c0-5.2-0.9-9.6-2.8-13.5c-1.9-3.8-4.5-6.8-7.8-8.9
					C-396.3-256.3-400.2-257.4-404.8-257.4z M-404.8-248c3.6,0,6.4,1.4,8.4,4.3s3.1,6.8,3.1,12c0,5.2-1,9.2-3.1,12
					c-2,2.8-4.8,4.3-8.4,4.3c-3.5,0-6.3-1.4-8.4-4.2c-2.1-2.8-3.1-6.8-3.1-12.1c0-5.2,1-9.3,3.1-12.1
					C-411-246.6-408.2-248-404.8-248z"/>
			</g>
		</g>
	</g>
	<g id="text_4_00000151502535284798363250000011094215286704282252_">
		<g transform="translate(396.891483 88.502521)scale(0.2 -0.2)">
			<g>
				<path id="Montserrat-SemiBold-20_00000031201268705145830020000008145947356706361516_" class="st8" d="M-492.2-195.5"/>
			</g>
			<g>
				<path id="Montserrat-SemiBold-39_00000060007103756172092850000014907878525290737851_" class="st8" d="M-418.1-100.9
					c8.5,0,15.8-1.8,21.8-5.4c6-3.6,10.6-8.8,13.8-15.7c3.2-6.8,4.8-15.3,4.8-25.3c0-10.7-1.9-19.7-5.8-27.1
					c-3.9-7.4-9.2-13-16.1-16.8c-6.8-3.8-14.8-5.7-23.9-5.7c-4.7,0-9.2,0.5-13.5,1.5c-4.3,1-8,2.5-11.1,4.5l6.4,13.1
					c2.6-1.7,5.4-2.9,8.4-3.5c3-0.7,6.1-1,9.4-1c8.8,0,15.8,2.7,20.9,8.1c5.2,5.4,7.7,13.4,7.7,24c0,1.7,0,3.7-0.1,5.9
					c-0.1,2.3-0.4,4.5-0.9,6.9l5.3-5.9c-1.5-3.7-3.7-6.7-6.5-9.1c-2.8-2.4-6.2-4.3-10-5.5c-3.8-1.2-8-1.9-12.7-1.9
					c-6,0-11.5,1.2-16.3,3.5c-4.8,2.4-8.7,5.7-11.5,10c-2.8,4.3-4.2,9.4-4.2,15.1c0,6.2,1.5,11.6,4.5,16.1c3,4.5,7.1,8,12.3,10.5
					C-430.1-102.1-424.4-100.9-418.1-100.9z M-417.1-114.5c-3.6,0-6.7-0.6-9.5-1.9c-2.7-1.3-4.9-3.1-6.5-5.5
					c-1.6-2.4-2.3-5.2-2.3-8.5c0-4.9,1.7-8.8,5.1-11.6c3.4-2.8,7.9-4.3,13.6-4.3c3.7,0,7,0.7,9.9,2.1c2.8,1.4,5.1,3.3,6.7,5.7
					c1.6,2.4,2.4,5.2,2.4,8.2c0,2.9-0.8,5.6-2.3,7.9c-1.5,2.4-3.7,4.2-6.5,5.7C-409.5-115.2-413-114.5-417.1-114.5z"/>
			</g>
			<g>
				<path id="Montserrat-SemiBold-25_00000010279304159311556670000017139761595025581211_" class="st8" d="M-352.9-195.5l63.7,93.3
					h13.1l-63.7-93.3H-352.9z M-345.2-152.5c-4.4,0-8.2,1.1-11.6,3.2c-3.4,2.1-6,5.1-7.9,8.9c-1.9,3.8-2.8,8.3-2.8,13.5
					c0,5.2,0.9,9.6,2.8,13.5c1.9,3.8,4.5,6.8,7.9,8.9c3.4,2.1,7.2,3.2,11.6,3.2c4.5,0,8.5-1.1,11.8-3.2c3.3-2.1,5.9-5.1,7.8-8.9
					c1.9-3.8,2.8-8.3,2.8-13.5c0-5.2-0.9-9.6-2.8-13.5c-1.9-3.8-4.5-6.8-7.8-8.9C-336.7-151.4-340.6-152.5-345.2-152.5z M-345-143.1
					c3.6,0,6.3,1.4,8.3,4.2c2,2.8,3,6.8,3,12.1c0,5.2-1,9.3-3,12.1c-2,2.8-4.8,4.2-8.3,4.2c-3.6,0-6.4-1.4-8.5-4.3
					c-2.1-2.8-3.1-6.8-3.1-12c0-5.2,1-9.2,3.1-12C-351.4-141.7-348.6-143.1-345-143.1z M-284-196.5c-4.4,0-8.2,1.1-11.6,3.2
					c-3.4,2.1-6,5.1-7.9,8.9c-1.9,3.8-2.8,8.3-2.8,13.5c0,5.2,0.9,9.6,2.8,13.5c1.9,3.8,4.5,6.8,7.9,8.9c3.4,2.1,7.2,3.2,11.6,3.2
					c4.5,0,8.5-1.1,11.8-3.2c3.3-2.1,5.9-5.1,7.8-8.9c1.9-3.8,2.8-8.3,2.8-13.5c0-5.2-0.9-9.6-2.8-13.5c-1.9-3.8-4.5-6.8-7.8-8.9
					C-275.5-195.4-279.4-196.5-284-196.5z M-284-187.1c3.6,0,6.4,1.4,8.4,4.3c2,2.8,3.1,6.8,3.1,12c0,5.2-1,9.2-3.1,12
					s-4.8,4.3-8.4,4.3c-3.5,0-6.3-1.4-8.4-4.2c-2.1-2.8-3.1-6.8-3.1-12.1c0-5.2,1-9.3,3.1-12.1C-290.2-185.7-287.4-187.1-284-187.1z
					"/>
			</g>
		</g>
	</g>
	<g id="text_5_00000120518302723410934040000010166369474500633251_">
		<g transform="translate(465.760585 33.685714)scale(0.2 -0.2)">
			<g>
				<path id="Montserrat-SemiBold-31_00000070103459310199858140000012407505846624275123_" class="st8" d="M-356.7-104.2v86.7
					l7.6-7.9h-27.3v14.5h37.1v-93.3H-356.7z"/>
			</g>
			<g>
				<path id="Montserrat-SemiBold-35_00000092426979881921902220000010874900520769279389_" class="st8" d="M-289.9-105.5
					c-6.6,0-13,1-19.3,2.9c-6.3,1.9-11.5,4.6-15.8,7.9l7.3,13.5c3.4-2.8,7.5-5,12.3-6.7c4.8-1.7,9.9-2.5,15.1-2.5
					c6.1,0,10.9,1.3,14.5,3.9c3.5,2.6,5.3,6.1,5.3,10.4c0,2.9-0.7,5.5-2.2,7.7c-1.5,2.2-4,3.9-7.7,5.1c-3.7,1.2-8.7,1.7-15.1,1.7
					H-318l4.8,50.8h54.8v-14.5h-48.4l9.1,8.3l-3.6-38l-9.1,8.1h18.8c9.2,0,16.7-1.2,22.3-3.7c5.7-2.4,9.8-5.8,12.4-10.1
					c2.6-4.3,3.9-9.2,3.9-14.7c0-5.4-1.3-10.4-4-14.9c-2.7-4.5-6.7-8.2-12.2-10.9C-274.6-104.1-281.5-105.5-289.9-105.5z"/>
			</g>
			<g>
				<path id="Montserrat-SemiBold-25_00000014624976450430002670000000478193162291978662_" class="st8" d="M-229.9-104.2l63.7,93.3
					h13.1l-63.7-93.3H-229.9z M-222.1-61.1c-4.4,0-8.2,1.1-11.6,3.2c-3.4,2.1-6,5.1-7.9,8.9c-1.9,3.8-2.8,8.3-2.8,13.5
					c0,5.2,0.9,9.6,2.8,13.5c1.9,3.8,4.5,6.8,7.9,8.9c3.4,2.1,7.2,3.2,11.6,3.2c4.5,0,8.5-1.1,11.8-3.2c3.3-2.1,5.9-5.1,7.8-8.9
					c1.9-3.8,2.8-8.3,2.8-13.5c0-5.2-0.9-9.6-2.8-13.5c-1.9-3.8-4.5-6.8-7.8-8.9C-213.7-60.1-217.6-61.1-222.1-61.1z M-222-51.8
					c3.6,0,6.3,1.4,8.3,4.2c2,2.8,3,6.8,3,12.1s-1,9.3-3,12.1c-2,2.8-4.8,4.2-8.3,4.2c-3.6,0-6.4-1.4-8.5-4.3s-3.1-6.8-3.1-12
					c0-5.2,1-9.2,3.1-12C-228.4-50.4-225.6-51.8-222-51.8z M-160.9-105.1c-4.4,0-8.2,1.1-11.6,3.2c-3.4,2.1-6,5.1-7.9,8.9
					c-1.9,3.8-2.8,8.3-2.8,13.5s0.9,9.6,2.8,13.5c1.9,3.8,4.5,6.8,7.9,8.9c3.4,2.1,7.2,3.2,11.6,3.2c4.5,0,8.5-1.1,11.8-3.2
					c3.3-2.1,5.9-5.1,7.8-8.9c1.9-3.8,2.8-8.3,2.8-13.5s-0.9-9.6-2.8-13.5c-1.9-3.8-4.5-6.8-7.8-8.9
					C-152.5-104.1-156.4-105.1-160.9-105.1z M-160.9-95.8c3.6,0,6.4,1.4,8.4,4.3c2,2.8,3.1,6.8,3.1,12s-1,9.2-3.1,12
					c-2,2.8-4.8,4.3-8.4,4.3c-3.5,0-6.3-1.4-8.4-4.2c-2.1-2.8-3.1-6.8-3.1-12.1s1-9.3,3.1-12.1C-167.2-94.4-164.4-95.8-160.9-95.8z"
					/>
			</g>
		</g>
	</g>
	<g id="text_6_00000105410129180453751860000008811161511659682751_">
		<g transform="translate(535.010937 15.413445)scale(0.2 -0.2)">
			<g>
				<path id="Montserrat-SemiBold-31_00000093893320717784224880000008925357085455505049_" class="st8" d="M-241.3-73.7v86.7
					l7.6-7.9H-261v14.5h37.1v-93.3H-241.3z"/>
			</g>
			<g>
				<path id="Montserrat-SemiBold-37_00000070113095730803570050000007055103083692588692_" class="st8" d="M-189.8-73.7l38.5,86.4
					l4.5-7.7h-52.9l8.3,8.4V-11h-16.1v30.5h72.5V8l-36.3-81.7H-189.8z"/>
			</g>
			<g>
				<path id="Montserrat-SemiBold-25_00000105402108795575580370000006540354199082686126_" class="st8" d="M-111.3-73.7l63.7,93.3
					h13.1l-63.7-93.3H-111.3z M-103.5-30.7c-4.4,0-8.2,1.1-11.6,3.2c-3.4,2.1-6,5.1-7.9,8.9c-1.9,3.8-2.8,8.3-2.8,13.5
					s0.9,9.6,2.8,13.5c1.9,3.8,4.5,6.8,7.9,8.9c3.4,2.1,7.2,3.2,11.6,3.2c4.5,0,8.5-1.1,11.8-3.2c3.3-2.1,5.9-5.1,7.8-8.9
					c1.9-3.8,2.8-8.3,2.8-13.5s-0.9-9.6-2.8-13.5c-1.9-3.8-4.5-6.8-7.8-8.9C-95.1-29.6-99-30.7-103.5-30.7z M-103.4-21.3
					c3.6,0,6.3,1.4,8.3,4.2c2,2.8,3,6.8,3,12.1s-1,9.3-3,12.1c-2,2.8-4.8,4.2-8.3,4.2s-6.4-1.4-8.5-4.3c-2.1-2.8-3.1-6.8-3.1-12
					s1-9.2,3.1-12C-109.8-19.9-107-21.3-103.4-21.3z M-42.3-74.7c-4.4,0-8.2,1.1-11.6,3.2c-3.4,2.1-6,5.1-7.9,8.9
					c-1.9,3.8-2.8,8.3-2.8,13.5s0.9,9.6,2.8,13.5c1.9,3.8,4.5,6.8,7.9,8.9c3.4,2.1,7.2,3.2,11.6,3.2c4.5,0,8.5-1.1,11.8-3.2
					c3.3-2.1,5.9-5.1,7.8-8.9c1.9-3.8,2.8-8.3,2.8-13.5s-0.9-9.6-2.8-13.5c-1.9-3.8-4.5-6.8-7.8-8.9C-33.9-73.6-37.8-74.7-42.3-74.7
					z M-42.3-65.3c3.6,0,6.4,1.4,8.4,4.3s3.1,6.8,3.1,12s-1,9.2-3.1,12c-2,2.8-4.8,4.3-8.4,4.3c-3.5,0-6.3-1.4-8.4-4.2
					c-2.1-2.8-3.1-6.8-3.1-12.1s1-9.3,3.1-12.1C-48.6-63.9-45.8-65.3-42.3-65.3z"/>
			</g>
		</g>
	</g>
	<g id="text_7_00000052801682647220583230000013003848910311304359_">
		<g transform="translate(604.500352 15.413445)scale(0.2 -0.2)">
			<g>
				<path id="Montserrat-SemiBold-31_00000145042424479125008640000008229109268610164143_" class="st8" d="M-125.5-73.7v86.7
					l7.6-7.9h-27.3v14.5h37.1v-93.3H-125.5z"/>
			</g>
			<g>
				<path id="Montserrat-SemiBold-37_00000152229165108539113040000000150097676883210158_" class="st8" d="M-74-73.7l38.5,86.4
					l4.5-7.7h-52.9l8.3,8.4V-11h-16.1v30.5h72.5V8l-36.3-81.7H-74z"/>
			</g>
			<g>
				<path id="Montserrat-SemiBold-25_00000043420209435453980710000002249452157566488502_" class="st8" d="M4.5-73.7l63.7,93.3
					h13.1L17.6-73.7H4.5z M12.3-30.7c-4.4,0-8.2,1.1-11.6,3.2c-3.4,2.1-6,5.1-7.9,8.9C-9.1-14.7-10-10.2-10-5.1s0.9,9.6,2.8,13.5
					c1.9,3.8,4.5,6.8,7.9,8.9c3.4,2.1,7.2,3.2,11.6,3.2c4.5,0,8.5-1.1,11.8-3.2c3.3-2.1,5.9-5.1,7.8-8.9c1.9-3.8,2.8-8.3,2.8-13.5
					s-0.9-9.6-2.8-13.5c-1.9-3.8-4.5-6.8-7.8-8.9C20.7-29.6,16.8-30.7,12.3-30.7z M12.4-21.3c3.6,0,6.3,1.4,8.3,4.2
					c2,2.8,3,6.8,3,12.1s-1,9.3-3,12.1c-2,2.8-4.8,4.2-8.3,4.2S6,9.8,3.9,6.9s-3.1-6.8-3.1-12s1-9.2,3.1-12S8.8-21.3,12.4-21.3z
					 M73.5-74.7c-4.4,0-8.2,1.1-11.6,3.2c-3.4,2.1-6,5.1-7.9,8.9c-1.9,3.8-2.8,8.3-2.8,13.5s0.9,9.6,2.8,13.5
					c1.9,3.8,4.5,6.8,7.9,8.9c3.4,2.1,7.2,3.2,11.6,3.2c4.5,0,8.5-1.1,11.8-3.2c3.3-2.1,5.9-5.1,7.8-8.9c1.9-3.8,2.8-8.3,2.8-13.5
					s-0.9-9.6-2.8-13.5c-1.9-3.8-4.5-6.8-7.8-8.9C81.9-73.6,78-74.7,73.5-74.7z M73.5-65.3c3.6,0,6.4,1.4,8.4,4.3
					c2,2.8,3.1,6.8,3.1,12s-1,9.2-3.1,12c-2,2.8-4.8,4.3-8.4,4.3c-3.5,0-6.3-1.4-8.4-4.2C63-39.8,62-43.8,62-49.1s1-9.3,3.1-12.1
					C67.2-63.9,70-65.3,73.5-65.3z"/>
			</g>
		</g>
	</g>
	<g id="text_8_00000137855107557171003360000003142423415435384497_">
		<g transform="translate(674.228829 33.685714)scale(0.2 -0.2)">
			<g>
				<path id="Montserrat-SemiBold-31_00000049930005312330497200000003990064201561347238_" class="st8" d="M-9.3-104.2v86.7
					l7.6-7.9H-29v14.5H8.1v-93.3H-9.3z"/>
			</g>
			<g>
				<path id="Montserrat-SemiBold-35_00000034068377169922543040000013922512232378900865_" class="st8" d="M57.5-105.5
					c-6.6,0-13,1-19.3,2.9c-6.3,1.9-11.5,4.6-15.8,7.9l7.3,13.5c3.4-2.8,7.5-5,12.3-6.7c4.8-1.7,9.9-2.5,15.1-2.5
					c6.1,0,10.9,1.3,14.5,3.9C75.2-84,77-80.6,77-76.2c0,2.9-0.7,5.5-2.2,7.7c-1.5,2.2-4,3.9-7.7,5.1c-3.7,1.2-8.7,1.7-15.1,1.7
					H29.4l4.8,50.8H89v-14.5H40.6l9.1,8.3l-3.6-38L37-47h18.8c9.2,0,16.7-1.2,22.3-3.7c5.7-2.4,9.8-5.8,12.4-10.1
					c2.6-4.3,3.9-9.2,3.9-14.7c0-5.4-1.3-10.4-4-14.9c-2.7-4.5-6.7-8.2-12.2-10.9C72.8-104.1,65.9-105.5,57.5-105.5z"/>
			</g>
			<g>
				<path id="Montserrat-SemiBold-25_00000106137586617258072750000006070302779440640430_" class="st8" d="M117.5-104.2l63.7,93.3
					h13.1l-63.7-93.3H117.5z M125.3-61.1c-4.4,0-8.2,1.1-11.6,3.2c-3.4,2.1-6,5.1-7.9,8.9c-1.9,3.8-2.8,8.3-2.8,13.5
					c0,5.2,0.9,9.6,2.8,13.5c1.9,3.8,4.5,6.8,7.9,8.9c3.4,2.1,7.2,3.2,11.6,3.2c4.5,0,8.5-1.1,11.8-3.2c3.3-2.1,5.9-5.1,7.8-8.9
					c1.9-3.8,2.8-8.3,2.8-13.5c0-5.2-0.9-9.6-2.8-13.5c-1.9-3.8-4.5-6.8-7.8-8.9C133.7-60.1,129.8-61.1,125.3-61.1z M125.4-51.8
					c3.6,0,6.3,1.4,8.3,4.2c2,2.8,3,6.8,3,12.1s-1,9.3-3,12.1c-2,2.8-4.8,4.2-8.3,4.2c-3.6,0-6.4-1.4-8.5-4.3
					c-2.1-2.8-3.1-6.8-3.1-12c0-5.2,1-9.2,3.1-12C119-50.4,121.8-51.8,125.4-51.8z M186.5-105.1c-4.4,0-8.2,1.1-11.6,3.2
					c-3.4,2.1-6,5.1-7.9,8.9c-1.9,3.8-2.8,8.3-2.8,13.5s0.9,9.6,2.8,13.5c1.9,3.8,4.5,6.8,7.9,8.9c3.4,2.1,7.2,3.2,11.6,3.2
					c4.5,0,8.5-1.1,11.8-3.2c3.3-2.1,5.9-5.1,7.8-8.9c1.9-3.8,2.8-8.3,2.8-13.5s-0.9-9.6-2.8-13.5c-1.9-3.8-4.5-6.8-7.8-8.9
					C194.9-104.1,191-105.1,186.5-105.1z M186.5-95.8c3.6,0,6.4,1.4,8.4,4.3c2,2.8,3.1,6.8,3.1,12s-1,9.2-3.1,12
					c-2,2.8-4.8,4.3-8.4,4.3c-3.5,0-6.3-1.4-8.4-4.2c-2.1-2.8-3.1-6.8-3.1-12.1s1-9.3,3.1-12.1C180.2-94.4,183-95.8,186.5-95.8z"/>
			</g>
		</g>
	</g>
	<g id="text_9_00000129889727807536862140000004283391797190018485_">
		<g transform="translate(742.829182 79.366387)scale(0.2 -0.2)">
			<g>
				<path id="Montserrat-SemiBold-31_00000092443675515255147400000004257746379273197746_" class="st8" d="M105-180.3v86.7l7.6-7.9
					H85.3V-87h37.1v-93.3H105z"/>
			</g>
			<g>
				<path id="Montserrat-SemiBold-30_00000045612164494620373240000013812404276820361647_" class="st8" d="M179.8-181.6
					c-7.4,0-14,1.9-19.9,5.6c-5.9,3.7-10.5,9.2-13.9,16.3c-3.4,7.2-5.1,15.8-5.1,26.1s1.7,18.9,5.1,26.1s8,12.6,13.9,16.3
					c5.9,3.7,12.6,5.6,19.9,5.6c7.5,0,14.1-1.9,20-5.6c5.9-3.7,10.5-9.2,13.9-16.3c3.4-7.2,5.1-15.8,5.1-26.1s-1.7-18.9-5.1-26.1
					c-3.4-7.2-8.1-12.6-13.9-16.3C194-179.8,187.3-181.6,179.8-181.6z M179.8-166.6c4.4,0,8.1,1.2,11.3,3.5c3.2,2.4,5.7,6,7.5,10.9
					c1.8,4.9,2.7,11.1,2.7,18.5c0,7.6-0.9,13.8-2.7,18.6c-1.8,4.8-4.3,8.4-7.5,10.8c-3.2,2.4-7,3.5-11.3,3.5
					c-4.2,0-7.9-1.2-11.1-3.5c-3.2-2.3-5.8-5.9-7.6-10.8s-2.7-11-2.7-18.6c0-7.5,0.9-13.7,2.7-18.5c1.8-4.9,4.4-8.5,7.6-10.9
					C172-165.4,175.7-166.6,179.8-166.6z"/>
			</g>
			<g>
				<path id="Montserrat-SemiBold-25_00000095340359159148269180000001329250732806799001_" class="st8" d="M243.7-180.3L307.4-87
					h13.1l-63.7-93.3H243.7z M251.4-137.2c-4.4,0-8.2,1.1-11.6,3.2c-3.4,2.1-6,5.1-7.9,8.9c-1.9,3.8-2.8,8.3-2.8,13.5
					c0,5.2,0.9,9.6,2.8,13.5c1.9,3.8,4.5,6.8,7.9,8.9c3.4,2.1,7.2,3.2,11.6,3.2c4.5,0,8.5-1.1,11.8-3.2c3.3-2.1,5.9-5.1,7.8-8.9
					c1.9-3.8,2.8-8.3,2.8-13.5c0-5.2-0.9-9.6-2.8-13.5c-1.9-3.8-4.5-6.8-7.8-8.9C259.9-136.2,256-137.2,251.4-137.2z M251.6-127.9
					c3.6,0,6.3,1.4,8.3,4.2c2,2.8,3,6.8,3,12.1c0,5.2-1,9.3-3,12.1c-2,2.8-4.8,4.2-8.3,4.2c-3.6,0-6.4-1.4-8.5-4.3
					c-2.1-2.8-3.1-6.8-3.1-12c0-5.2,1-9.2,3.1-12C245.2-126.5,248-127.9,251.6-127.9z M312.6-181.2c-4.4,0-8.2,1.1-11.6,3.2
					c-3.4,2.1-6,5.1-7.9,8.9c-1.9,3.8-2.8,8.3-2.8,13.5c0,5.2,0.9,9.6,2.8,13.5c1.9,3.8,4.5,6.8,7.9,8.9c3.4,2.1,7.2,3.2,11.6,3.2
					c4.5,0,8.5-1.1,11.8-3.2c3.3-2.1,5.9-5.1,7.8-8.9c1.9-3.8,2.8-8.3,2.8-13.5c0-5.2-0.9-9.6-2.8-13.5c-1.9-3.8-4.5-6.8-7.8-8.9
					C321.1-180.2,317.2-181.2,312.6-181.2z M312.6-171.9c3.6,0,6.4,1.4,8.4,4.3c2,2.8,3.1,6.8,3.1,12c0,5.2-1,9.2-3.1,12
					s-4.8,4.3-8.4,4.3c-3.5,0-6.3-1.4-8.4-4.2c-2.1-2.8-3.1-6.8-3.1-12.1c0-5.2,1-9.3,3.1-12.1C306.4-170.5,309.2-171.9,312.6-171.9
					z"/>
			</g>
		</g>
	</g>
	<g id="text_10_00000076603902236892880700000010851096232990900364_">
		<g transform="translate(813.307659 134.183193)scale(0.2 -0.2)">
			<g>
				<path id="Montserrat-SemiBold-20_00000169539666523115689300000002811111175167388350_" class="st8" d="M201.7-271.7"/>
			</g>
			<g>
				<path id="Montserrat-SemiBold-34_00000106142876187470686300000012884008141794649259_" class="st8" d="M243-250.4v12l46,60.1
					h18.5l-45.3-60.1l-8.7,2.7h74v-14.7H243z M294.2-271.7v21.2l0.5,14.7v18.8H311v-54.7H294.2z"/>
			</g>
			<g>
				<path id="Montserrat-SemiBold-25_00000147937717795188411950000014237817470543996348_" class="st8" d="M347.9-271.7l63.7,93.3
					h13.1L361-271.7H347.9z M355.7-228.6c-4.4,0-8.2,1.1-11.6,3.2c-3.4,2.1-6,5.1-7.9,8.9c-1.9,3.8-2.8,8.3-2.8,13.5
					c0,5.2,0.9,9.6,2.8,13.5c1.9,3.8,4.5,6.8,7.9,8.9c3.4,2.1,7.2,3.2,11.6,3.2c4.5,0,8.5-1.1,11.8-3.2c3.3-2.1,5.9-5.1,7.8-8.9
					c1.9-3.8,2.8-8.3,2.8-13.5c0-5.2-0.9-9.6-2.8-13.5c-1.9-3.8-4.5-6.8-7.8-8.9C364.1-227.5,360.2-228.6,355.7-228.6z M355.8-219.3
					c3.6,0,6.3,1.4,8.3,4.2c2,2.8,3,6.8,3,12.1c0,5.2-1,9.3-3,12.1c-2,2.8-4.8,4.2-8.3,4.2s-6.4-1.4-8.5-4.3
					c-2.1-2.8-3.1-6.8-3.1-12c0-5.2,1-9.2,3.1-12C349.4-217.8,352.2-219.3,355.8-219.3z M416.9-272.6c-4.4,0-8.2,1.1-11.6,3.2
					c-3.4,2.1-6,5.1-7.9,8.9c-1.9,3.8-2.8,8.3-2.8,13.5c0,5.2,0.9,9.6,2.8,13.5c1.9,3.8,4.5,6.8,7.9,8.9c3.4,2.1,7.2,3.2,11.6,3.2
					c4.5,0,8.5-1.1,11.8-3.2c3.3-2.1,5.9-5.1,7.8-8.9c1.9-3.8,2.8-8.3,2.8-13.5c0-5.2-0.9-9.6-2.8-13.5c-1.9-3.8-4.5-6.8-7.8-8.9
					C425.3-271.5,421.4-272.6,416.9-272.6z M416.9-263.3c3.6,0,6.4,1.4,8.4,4.3c2,2.8,3.1,6.8,3.1,12c0,5.2-1,9.2-3.1,12
					c-2,2.8-4.8,4.3-8.4,4.3c-3.5,0-6.3-1.4-8.4-4.2c-2.1-2.8-3.1-6.8-3.1-12.1c0-5.2,1-9.3,3.1-12.1
					C410.6-261.9,413.4-263.3,416.9-263.3z"/>
			</g>
		</g>
	</g>
	<g id="text_11_00000135673645112324830110000010428452160317224625_">
		<g transform="translate(882.637698 170.727731)scale(0.2 -0.2)">
			<g>
				<path id="Montserrat-SemiBold-3c" class="st8" d="M387.3-316.9l-61.5,23.9v14.4l61.5,23.9v-13.9l-56.2-21.1v7.7l56.2-21.1
					V-316.9z"/>
			</g>
			<g>
				<path id="Montserrat-SemiBold-31_00000062150294379843929860000001970049448705071754_" class="st8" d="M416.7-332.6v86.7
					l7.6-7.9h-27.3v14.5H434v-93.3H416.7z"/>
			</g>
			<g>
				<path id="Montserrat-SemiBold-25_00000144295722718351417300000010950360015425049984_" class="st8" d="M465.6-332.6l63.7,93.3
					h13.1l-63.7-93.3H465.6z M473.3-289.5c-4.4,0-8.2,1.1-11.6,3.2c-3.4,2.1-6,5.1-7.9,8.9c-1.9,3.8-2.8,8.3-2.8,13.5
					s0.9,9.6,2.8,13.5c1.9,3.8,4.5,6.8,7.9,8.9c3.4,2.1,7.2,3.2,11.6,3.2c4.5,0,8.5-1.1,11.8-3.2c3.3-2.1,5.9-5.1,7.8-8.9
					c1.9-3.8,2.8-8.3,2.8-13.5s-0.9-9.6-2.8-13.5c-1.9-3.8-4.5-6.8-7.8-8.9C481.8-288.4,477.9-289.5,473.3-289.5z M473.5-280.2
					c3.6,0,6.3,1.4,8.3,4.2c2,2.8,3,6.8,3,12.1s-1,9.3-3,12.1c-2,2.8-4.8,4.2-8.3,4.2c-3.6,0-6.4-1.4-8.5-4.3
					c-2.1-2.8-3.1-6.8-3.1-12s1-9.2,3.1-12C467.1-278.7,469.9-280.2,473.5-280.2z M534.5-333.5c-4.4,0-8.2,1.1-11.6,3.2
					c-3.4,2.1-6,5.1-7.9,8.9c-1.9,3.8-2.8,8.3-2.8,13.5c0,5.2,0.9,9.6,2.8,13.5c1.9,3.8,4.5,6.8,7.9,8.9c3.4,2.1,7.2,3.2,11.6,3.2
					c4.5,0,8.5-1.1,11.8-3.2c3.3-2.1,5.9-5.1,7.8-8.9c1.9-3.8,2.8-8.3,2.8-13.5c0-5.2-0.9-9.6-2.8-13.5c-1.9-3.8-4.5-6.8-7.8-8.9
					C543-332.4,539.1-333.5,534.5-333.5z M534.5-324.2c3.6,0,6.4,1.4,8.4,4.3c2,2.8,3.1,6.8,3.1,12c0,5.2-1,9.2-3.1,12
					c-2,2.8-4.8,4.3-8.4,4.3c-3.5,0-6.3-1.4-8.4-4.2c-2.1-2.8-3.1-6.8-3.1-12.1c0-5.2,1-9.3,3.1-12.1
					C528.3-322.8,531.1-324.2,534.5-324.2z"/>
			</g>
		</g>
	</g>
	<path class="st6" d="M926.5,261.6h88v-6.1h-88V261.6z"/>
	<path class="st5" d="M833.8,261.6h88v-48.7h-88V261.6z"/>
	<path class="st4" d="M741.2,261.6h88V139.8h-88V261.6z"/>
	<path class="st3" d="M648.5,261.6h88V78.9h-88V261.6z"/>
	<path class="st0" d="M555.9,261.6h88V54.5h-88V261.6z"/>
	<path class="st1" d="M463.2,261.6h88V54.5h-88V261.6z"/>
	<path class="st2" d="M370.6,261.6h88V78.9h-88V261.6z"/>
	<path class="st2" d="M277.9,261.6h88V152h-88V261.6z"/>
	<path class="st2" d="M185.3,261.6h88v-60.9h-88V261.6z"/>
	<path class="st2" d="M92.6,261.6h88v-36.5h-88V261.6z"/>
	<path class="st2" d="M0,261.6h88v-60.9H0V261.6z"/>
</g>
</svg>
