<?xml version="1.0" encoding="utf-8"?>
<!-- Generator: Adobe Illustrator 26.5.0, SVG Export Plug-In . SVG Version: 6.00 Build 0)  -->
<svg version="1.1" id="Layer_1" xmlns="http://www.w3.org/2000/svg" xmlns:xlink="http://www.w3.org/1999/xlink" x="0px" y="0px"
	 viewBox="0 0 1116.7 329.6" style="enable-background:new 0 0 1116.7 329.6;" xml:space="preserve">
<style type="text/css">
	.st0{fill:#FDD400;}
	.st1{fill:#FA9101;}
	.st2{fill:#D62015;}
	.st3{fill:#FDF300;}
	.st4{fill:#D8DB1A;}
	.st5{fill:#9ADE27;}
	.st6{fill:#00BD00;}
	.st7{fill:#001837;}
	.st8{fill:#667487;}
</style>
<path class="st0" d="M556,270.8h87.9l9.5,17l-9.5,17H556l9.5-17L556,270.8z"/>
<path class="st1" d="M463.4,270.8h87.9l9.5,17l-9.5,17h-87.9l9.5-17L463.4,270.8z"/>
<path class="st2" d="M0,270.8h458.6l9.5,17l-9.5,17H0l9.5-17L0,270.8z"/>
<path class="st3" d="M648.7,270.8h87.9l9.5,17l-9.5,17h-87.9l9.5-17L648.7,270.8z"/>
<path class="st4" d="M741.3,270.8h88l9.5,17l-9.5,17h-88l9.5-17L741.3,270.8z"/>
<path class="st5" d="M834,270.8h88l9.5,17l-9.5,17h-88l9.5-17L834,270.8z"/>
<path class="st6" d="M926.6,270.8h88l9.5,17l-9.5,17h-88l9.5-17L926.6,270.8z"/>
<path class="st6" d="M1019.2,270.8h88l9.5,17l-9.5,17h-88l9.5-17L1019.2,270.8L1019.2,270.8z"/>
<path class="st7" d="M602.8,286.7h5.4v2h-5.4V286.7z M603,291.3h6.1v2.1h-8.7v-11.2h8.5v2.1H603V291.3L603,291.3z"/>
<path class="st7" d="M691.7,293.4v-11.2h5.1c1.2,0,2.3,0.2,3.2,0.7c0.9,0.5,1.7,1.1,2.2,1.9c0.5,0.8,0.8,1.8,0.8,3s-0.3,2.1-0.8,3
	c-0.5,0.8-1.2,1.5-2.2,2c-0.9,0.5-2,0.7-3.2,0.7H691.7z M694.3,291.3h2.4c0.8,0,1.4-0.1,1.9-0.4c0.5-0.3,1-0.7,1.3-1.2
	c0.3-0.5,0.5-1.1,0.5-1.8s-0.2-1.3-0.5-1.8c-0.3-0.5-0.7-0.9-1.3-1.2c-0.5-0.3-1.2-0.4-1.9-0.4h-2.4V291.3L694.3,291.3z"/>
<path class="st7" d="M790.8,293.6c-0.9,0-1.7-0.1-2.4-0.4c-0.7-0.3-1.4-0.7-1.9-1.2s-1-1.1-1.3-1.8c-0.3-0.7-0.5-1.5-0.5-2.3
	s0.2-1.6,0.5-2.3c0.3-0.7,0.7-1.3,1.3-1.8c0.5-0.5,1.2-0.9,1.9-1.2c0.7-0.3,1.5-0.4,2.4-0.4c1,0,1.8,0.2,2.6,0.5
	c0.8,0.3,1.5,0.8,2,1.5l-1.7,1.5c-0.4-0.4-0.8-0.8-1.3-1c-0.5-0.2-1-0.3-1.5-0.3c-0.5,0-1,0.1-1.4,0.3c-0.4,0.2-0.8,0.4-1.1,0.7
	c-0.3,0.3-0.6,0.7-0.8,1.1c-0.2,0.4-0.3,0.9-0.3,1.5s0.1,1,0.3,1.5s0.4,0.8,0.8,1.1s0.7,0.6,1.1,0.7c0.4,0.2,0.9,0.3,1.4,0.3
	c0.5,0,1.1-0.1,1.5-0.3c0.5-0.2,0.9-0.6,1.3-1l1.7,1.5c-0.5,0.6-1.2,1.1-2,1.5C792.6,293.4,791.8,293.6,790.8,293.6L790.8,293.6z"/>
<path class="st7" d="M877.6,293.4v-11.2h5.5c1.4,0,2.5,0.3,3.2,0.8c0.7,0.5,1.1,1.2,1.1,2.1c0,0.6-0.1,1.1-0.4,1.5
	c-0.3,0.4-0.7,0.8-1.2,1c-0.5,0.2-1.1,0.4-1.7,0.4l0.3-0.7c0.7,0,1.3,0.1,1.9,0.4c0.5,0.2,1,0.6,1.3,1c0.3,0.5,0.5,1,0.5,1.6
	c0,1-0.4,1.7-1.1,2.3c-0.8,0.5-1.9,0.8-3.3,0.8L877.6,293.4L877.6,293.4z M880.2,291.4h3c0.7,0,1.2-0.1,1.5-0.3
	c0.3-0.2,0.5-0.6,0.5-1.1s-0.2-0.8-0.5-1c-0.3-0.2-0.8-0.4-1.5-0.4H880v-1.9h2.8c0.6,0,1.1-0.1,1.4-0.3c0.3-0.2,0.5-0.6,0.5-1
	s-0.2-0.8-0.5-1c-0.3-0.2-0.8-0.3-1.4-0.3h-2.6L880.2,291.4L880.2,291.4z"/>
<path class="st7" d="M969.1,293.4l5-11.2h2.6l5,11.2h-2.7l-4.1-9.9h1l-4.1,9.9H969.1L969.1,293.4z M971.6,291l0.7-2h5.8l0.7,2H971.6
	L971.6,291z"/>
<g>
	<path class="st7" d="M1078.8,286.8v2h-3.5v3.5h-2.1v-3.5h-3.5v-2h3.5v-3.5h2.1v3.5H1078.8z"/>
	<path class="st7" d="M1064.6,282.2h-2.6l-5,11.2h2.7l1-2.4h5.2l1,2.4h2.7L1064.6,282.2L1064.6,282.2z M1061.5,289l1.8-4.3l1.8,4.3
		H1061.5L1061.5,289z"/>
</g>
<path class="st7" d="M510.2,287.2h5.4v2.1h-5.4L510.2,287.2L510.2,287.2z M510.4,293.4h-2.6v-11.2h8.5v2.1h-5.9L510.4,293.4
	L510.4,293.4z"/>
<g id="patch_2">
	<path class="st2" d="M0,261.6h88v-60.3H0V261.6z"/>
</g>
<g id="patch_3">
	<path class="st2" d="M92.7,261.6h88v-45.2h-88V261.6z"/>
</g>
<g id="patch_4">
	<path class="st2" d="M185.3,261.6h88v-60.3h-88L185.3,261.6L185.3,261.6z"/>
</g>
<g id="patch_5">
	<path class="st2" d="M278,261.6h88V156.2h-88V261.6z"/>
</g>
<g id="patch_6">
	<path class="st2" d="M370.6,261.6h88V80.8h-88V261.6z"/>
</g>
<g id="patch_7">
	<path class="st1" d="M463.3,261.6h88v-226h-88L463.3,261.6L463.3,261.6z"/>
</g>
<g id="patch_8">
	<path class="st0" d="M555.9,261.6h88v-226h-88V261.6z"/>
</g>
<g id="patch_9">
	<path class="st3" d="M648.6,261.6h88v-226h-88V261.6z"/>
</g>
<g id="patch_10">
	<path class="st4" d="M741.2,261.6h88V50.7h-88V261.6L741.2,261.6z"/>
</g>
<g id="patch_11">
	<path class="st5" d="M833.9,261.6h88V126h-88V261.6z"/>
</g>
<g id="patch_12">
	<path class="st6" d="M926.5,261.6h88v-15.1h-88V261.6z"/>
</g>
<g id="text_1">
	<g>
		<path id="Montserrat-SemiBold-34" class="st8" d="M26.6,181.7v-2.6l10-13.1h4l-9.9,13.1l-1.9-0.6h16.1v3.2H26.6z M37.8,186.3v-4.6
			l0.1-3.2v-4.1h3.5v11.9H37.8z"/>
		<path id="Montserrat-SemiBold-25" class="st8" d="M49.5,186.3l13.9-20.4h2.9l-13.9,20.4C52.4,186.3,49.5,186.3,49.5,186.3z
			 M51.2,176.9c-1,0-1.8-0.2-2.5-0.7c-0.7-0.5-1.3-1.1-1.7-1.9c-0.4-0.8-0.6-1.8-0.6-2.9s0.2-2.1,0.6-2.9s1-1.5,1.7-1.9
			c0.7-0.5,1.6-0.7,2.5-0.7s1.8,0.2,2.6,0.7c0.7,0.5,1.3,1.1,1.7,1.9c0.4,0.8,0.6,1.8,0.6,2.9s-0.2,2.1-0.6,2.9s-1,1.5-1.7,1.9
			C53.1,176.7,52.2,176.9,51.2,176.9z M51.2,174.9c0.8,0,1.4-0.3,1.8-0.9s0.7-1.5,0.7-2.6s-0.2-2-0.7-2.6c-0.4-0.6-1-0.9-1.8-0.9
			s-1.4,0.3-1.8,0.9s-0.7,1.5-0.7,2.6s0.2,2,0.7,2.6S50.5,174.9,51.2,174.9L51.2,174.9z M64.6,186.5c-1,0-1.8-0.2-2.5-0.7
			c-0.7-0.5-1.3-1.1-1.7-1.9c-0.4-0.8-0.6-1.8-0.6-2.9s0.2-2.1,0.6-2.9s1-1.5,1.7-1.9c0.7-0.5,1.6-0.7,2.5-0.7s1.8,0.2,2.6,0.7
			c0.7,0.5,1.3,1.1,1.7,1.9c0.4,0.8,0.6,1.8,0.6,2.9s-0.2,2.1-0.6,2.9s-1,1.5-1.7,1.9C66.4,186.3,65.6,186.5,64.6,186.5z
			 M64.6,184.5c0.8,0,1.4-0.3,1.8-0.9c0.4-0.6,0.7-1.5,0.7-2.6s-0.2-2-0.7-2.6s-1.1-0.9-1.8-0.9s-1.4,0.3-1.8,0.9s-0.7,1.5-0.7,2.6
			s0.2,2,0.7,2.6C63.2,184.2,63.8,184.5,64.6,184.5L64.6,184.5z"/>
	</g>
</g>
<g id="text_2">
	<g>
		<path id="Montserrat-SemiBold-33" class="st8" d="M127.4,201.7c-1.4,0-2.8-0.2-4.2-0.6c-1.4-0.4-2.5-1-3.4-1.7l1.6-2.9
			c0.7,0.6,1.6,1.1,2.7,1.5c1.1,0.4,2.2,0.6,3.3,0.6c1.4,0,2.4-0.3,3.2-0.8s1.1-1.3,1.1-2.3s-0.4-1.7-1.1-2.2
			c-0.7-0.5-1.8-0.8-3.4-0.8h-1.9v-2.6l5.8-6.9l0.5,1.4h-10.9V181h13.9v2.5l-5.8,6.9l-2-1.2h1.1c2.5,0,4.4,0.6,5.6,1.7
			c1.2,1.1,1.9,2.6,1.9,4.3c0,1.1-0.3,2.2-0.9,3.2s-1.5,1.8-2.7,2.3S129.2,201.7,127.4,201.7L127.4,201.7z"/>
		<path id="Montserrat-SemiBold-25-2" class="st8" d="M140.8,201.4l13.9-20.4h2.9l-13.9,20.4H140.8z M142.5,192
			c-0.9,0-1.8-0.2-2.5-0.7c-0.7-0.5-1.3-1.1-1.7-1.9c-0.4-0.8-0.6-1.8-0.6-2.9s0.2-2.1,0.6-2.9s1-1.5,1.7-1.9
			c0.7-0.5,1.6-0.7,2.5-0.7s1.9,0.2,2.6,0.7c0.7,0.5,1.3,1.1,1.7,1.9c0.4,0.8,0.6,1.8,0.6,2.9s-0.2,2.1-0.6,2.9s-1,1.5-1.7,1.9
			C144.3,191.7,143.4,192,142.5,192z M142.5,189.9c0.8,0,1.4-0.3,1.8-0.9s0.6-1.5,0.6-2.6s-0.2-2-0.6-2.6c-0.4-0.6-1-0.9-1.8-0.9
			s-1.4,0.3-1.9,0.9s-0.7,1.5-0.7,2.6s0.2,2,0.7,2.6S141.7,189.9,142.5,189.9L142.5,189.9z M155.8,201.6c-0.9,0-1.8-0.2-2.5-0.7
			c-0.7-0.5-1.3-1.1-1.7-1.9c-0.4-0.8-0.6-1.8-0.6-2.9s0.2-2.1,0.6-2.9s1-1.5,1.7-1.9c0.7-0.5,1.6-0.7,2.5-0.7s1.9,0.2,2.6,0.7
			c0.7,0.5,1.3,1.1,1.7,1.9c0.4,0.8,0.6,1.8,0.6,2.9s-0.2,2.1-0.6,2.9s-1,1.5-1.7,1.9C157.7,201.3,156.8,201.6,155.8,201.6z
			 M155.8,199.5c0.8,0,1.4-0.3,1.8-0.9c0.4-0.6,0.7-1.5,0.7-2.6s-0.2-2-0.7-2.6s-1.1-0.9-1.8-0.9s-1.4,0.3-1.8,0.9
			c-0.4,0.6-0.7,1.5-0.7,2.6s0.2,2,0.7,2.6C154.5,199.2,155.1,199.5,155.8,199.5L155.8,199.5z"/>
	</g>
</g>
<g id="text_3">
	<g>
		<path id="Montserrat-SemiBold-34-2" class="st8" d="M211.9,181.7v-2.6l10-13.1h4l-9.9,13.1l-1.9-0.6h16.1v3.2H211.9L211.9,181.7z
			 M223.1,186.3v-4.6l0.1-3.2v-4.1h3.6v11.9H223.1z"/>
		<path id="Montserrat-SemiBold-25-3" class="st8" d="M234.8,186.3l13.9-20.4h2.9l-13.9,20.4H234.8z M236.5,176.9
			c-0.9,0-1.8-0.2-2.5-0.7c-0.7-0.5-1.3-1.1-1.7-1.9c-0.4-0.8-0.6-1.8-0.6-2.9s0.2-2.1,0.6-2.9s1-1.5,1.7-1.9
			c0.7-0.5,1.6-0.7,2.5-0.7s1.9,0.2,2.6,0.7c0.7,0.5,1.3,1.1,1.7,1.9c0.4,0.8,0.6,1.8,0.6,2.9s-0.2,2.1-0.6,2.9s-1,1.5-1.7,1.9
			C238.4,176.7,237.5,176.9,236.5,176.9z M236.6,174.9c0.8,0,1.4-0.3,1.8-0.9s0.6-1.5,0.6-2.6s-0.2-2-0.6-2.6
			c-0.4-0.6-1-0.9-1.8-0.9s-1.4,0.3-1.9,0.9s-0.7,1.5-0.7,2.6s0.2,2,0.7,2.6S235.8,174.9,236.6,174.9L236.6,174.9z M249.9,186.5
			c-0.9,0-1.8-0.2-2.5-0.7c-0.7-0.5-1.3-1.1-1.7-1.9c-0.4-0.8-0.6-1.8-0.6-2.9s0.2-2.1,0.6-2.9s1-1.5,1.7-1.9
			c0.7-0.5,1.6-0.7,2.5-0.7s1.9,0.2,2.6,0.7c0.7,0.5,1.3,1.1,1.7,1.9c0.4,0.8,0.6,1.8,0.6,2.9s-0.2,2.1-0.6,2.9s-1,1.5-1.7,1.9
			C251.7,186.3,250.9,186.5,249.9,186.5z M249.9,184.5c0.8,0,1.4-0.3,1.8-0.9c0.4-0.6,0.7-1.5,0.7-2.6s-0.2-2-0.7-2.6
			s-1.1-0.9-1.8-0.9s-1.4,0.3-1.8,0.9c-0.4,0.6-0.7,1.5-0.7,2.6s0.2,2,0.7,2.6C248.5,184.2,249.1,184.5,249.9,184.5L249.9,184.5z"/>
	</g>
</g>
<g id="text_4">
	<g>
		<path id="Montserrat-SemiBold-37" class="st8" d="M309.3,141.1l8.4-18.9l1,1.7h-11.5l1.8-1.8v5.3h-3.5v-6.7h15.8v2.5l-7.9,17.8
			H309.3z"/>
		<path id="Montserrat-SemiBold-25-4" class="st8" d="M326.5,141.1l13.9-20.4h2.9l-13.9,20.4H326.5z M328.1,131.7
			c-1,0-1.8-0.2-2.5-0.7c-0.7-0.5-1.3-1.1-1.7-1.9c-0.4-0.8-0.6-1.8-0.6-2.9s0.2-2.1,0.6-2.9c0.4-0.8,1-1.5,1.7-1.9
			c0.7-0.5,1.6-0.7,2.5-0.7s1.9,0.2,2.6,0.7c0.7,0.5,1.3,1.1,1.7,1.9c0.4,0.8,0.6,1.8,0.6,2.9s-0.2,2.1-0.6,2.9
			c-0.4,0.8-1,1.5-1.7,1.9C330,131.5,329.1,131.7,328.1,131.7z M328.2,129.7c0.8,0,1.4-0.3,1.8-0.9s0.6-1.5,0.6-2.6s-0.2-2-0.6-2.6
			c-0.4-0.6-1-0.9-1.8-0.9s-1.4,0.3-1.9,0.9s-0.7,1.5-0.7,2.6s0.2,2,0.7,2.6S327.4,129.7,328.2,129.7z M341.5,141.3
			c-1,0-1.8-0.2-2.5-0.7c-0.7-0.5-1.3-1.1-1.7-1.9c-0.4-0.8-0.6-1.8-0.6-2.9s0.2-2.1,0.6-2.9c0.4-0.8,1-1.5,1.7-1.9
			c0.7-0.5,1.6-0.7,2.5-0.7s1.9,0.2,2.6,0.7c0.7,0.5,1.3,1.1,1.7,1.9c0.4,0.8,0.6,1.8,0.6,2.9s-0.2,2.1-0.6,2.9
			c-0.4,0.8-1,1.5-1.7,1.9C343.3,141.1,342.5,141.3,341.5,141.3z M341.5,139.3c0.8,0,1.4-0.3,1.8-0.9c0.5-0.6,0.7-1.5,0.7-2.6
			s-0.2-2-0.7-2.6s-1.1-0.9-1.8-0.9s-1.4,0.3-1.8,0.9s-0.7,1.5-0.7,2.6s0.2,2,0.7,2.6C340.1,139,340.8,139.3,341.5,139.3
			L341.5,139.3z"/>
	</g>
</g>
<g id="text_5">
	<g>
		<path id="Montserrat-SemiBold-31" class="st8" d="M392.6,65.8V46.9l1.7,1.7h-6v-3.2h8.1v20.4C396.4,65.8,392.6,65.8,392.6,65.8z"
			/>
		<path id="Montserrat-SemiBold-32" class="st8" d="M400.2,65.8v-2.5l8.1-7.7c0.7-0.6,1.2-1.2,1.5-1.7s0.5-0.9,0.6-1.3
			c0.1-0.4,0.2-0.8,0.2-1.2c0-0.9-0.3-1.7-1-2.2c-0.6-0.5-1.6-0.8-2.8-0.8c-1,0-1.9,0.2-2.7,0.5s-1.5,0.9-2.1,1.6l-2.6-2
			c0.8-1.1,1.9-1.9,3.2-2.5c1.4-0.6,2.9-0.9,4.5-0.9c1.5,0,2.8,0.2,3.9,0.7c1.1,0.5,1.9,1.2,2.5,2s0.9,1.9,0.9,3.1
			c0,0.7-0.1,1.3-0.3,2c-0.2,0.7-0.5,1.3-1,2c-0.5,0.7-1.2,1.5-2.1,2.4l-7,6.6l-0.8-1.4h11.9v3.2L400.2,65.8L400.2,65.8z"/>
		<path id="Montserrat-SemiBold-25-5" class="st8" d="M420.2,65.8l13.9-20.4h2.9l-13.9,20.4H420.2z M421.9,56.4
			c-1,0-1.8-0.2-2.5-0.7c-0.7-0.5-1.3-1.1-1.7-2c-0.4-0.8-0.6-1.8-0.6-2.9s0.2-2.1,0.6-2.9c0.4-0.8,1-1.5,1.7-2
			c0.7-0.5,1.6-0.7,2.5-0.7s1.9,0.2,2.6,0.7c0.7,0.5,1.3,1.1,1.7,2c0.4,0.8,0.6,1.8,0.6,2.9s-0.2,2.1-0.6,2.9c-0.4,0.8-1,1.5-1.7,2
			C423.8,56.1,422.9,56.4,421.9,56.4z M422,54.3c0.8,0,1.4-0.3,1.8-0.9s0.6-1.5,0.6-2.6s-0.2-2-0.6-2.6c-0.4-0.6-1-0.9-1.8-0.9
			s-1.4,0.3-1.9,0.9s-0.7,1.5-0.7,2.6s0.2,2,0.7,2.6S421.2,54.3,422,54.3z M435.3,66c-1,0-1.8-0.2-2.5-0.7c-0.7-0.5-1.3-1.1-1.7-2
			c-0.4-0.8-0.6-1.8-0.6-2.9s0.2-2.1,0.6-2.9c0.4-0.8,1-1.5,1.7-2c0.7-0.5,1.6-0.7,2.5-0.7s1.9,0.2,2.6,0.7c0.7,0.5,1.3,1.1,1.7,2
			c0.4,0.8,0.6,1.8,0.6,2.9s-0.2,2.1-0.6,2.9c-0.4,0.8-1,1.5-1.7,2C437.1,65.7,436.3,66,435.3,66z M435.3,63.9
			c0.8,0,1.4-0.3,1.8-0.9c0.5-0.6,0.7-1.5,0.7-2.6s-0.2-2-0.7-2.6s-1.1-0.9-1.8-0.9s-1.4,0.3-1.8,0.9c-0.5,0.6-0.7,1.5-0.7,2.6
			s0.2,2,0.7,2.6C433.9,63.6,434.5,63.9,435.3,63.9z"/>
	</g>
</g>
<g id="text_6">
	<g>
		<path id="Montserrat-SemiBold-31-2" class="st8" d="M485.2,20.6V1.7l1.7,1.7h-6V0.2h8.1v20.4H485.2z"/>
		<path id="Montserrat-SemiBold-35" class="st8" d="M499.8,20.9c-1.4,0-2.8-0.2-4.2-0.6c-1.4-0.4-2.5-1-3.5-1.7l1.6-2.9
			c0.7,0.6,1.6,1.1,2.7,1.5s2.2,0.5,3.3,0.5c1.3,0,2.4-0.3,3.2-0.8s1.1-1.3,1.1-2.3c0-0.6-0.2-1.2-0.5-1.7c-0.3-0.5-0.9-0.9-1.7-1.1
			s-1.9-0.4-3.3-0.4h-4.9l1-11.1h12v3.2h-10.6l2-1.8l-0.8,8.3l-2-1.8h4.1c2,0,3.6,0.3,4.9,0.8c1.2,0.5,2.1,1.3,2.7,2.2
			c0.6,0.9,0.9,2,0.9,3.2s-0.3,2.3-0.9,3.3s-1.5,1.8-2.7,2.4C503.2,20.6,501.7,20.9,499.8,20.9L499.8,20.9z"/>
		<path id="Montserrat-SemiBold-25-6" class="st8" d="M512.9,20.6l13.9-20.4h2.8l-13.9,20.4L512.9,20.6L512.9,20.6z M514.6,11.2
			c-1,0-1.8-0.2-2.5-0.7c-0.7-0.5-1.3-1.1-1.7-1.9c-0.4-0.8-0.6-1.8-0.6-2.9s0.2-2.1,0.6-2.9c0.4-0.8,1-1.5,1.7-2
			c0.7-0.5,1.6-0.7,2.5-0.7s1.8,0.2,2.6,0.7c0.7,0.5,1.3,1.1,1.7,2c0.4,0.8,0.6,1.8,0.6,2.9s-0.2,2.1-0.6,2.9
			c-0.4,0.8-1,1.5-1.7,1.9C516.5,10.9,515.6,11.2,514.6,11.2z M514.7,9.1c0.8,0,1.4-0.3,1.8-0.9s0.7-1.5,0.7-2.6s-0.2-2-0.7-2.6
			c-0.4-0.6-1-0.9-1.8-0.9s-1.4,0.3-1.8,0.9s-0.7,1.5-0.7,2.6s0.2,2,0.7,2.6S513.9,9.1,514.7,9.1z M528,20.8c-1,0-1.8-0.2-2.5-0.7
			c-0.7-0.5-1.3-1.1-1.7-2c-0.4-0.8-0.6-1.8-0.6-2.9s0.2-2.1,0.6-2.9s1-1.5,1.7-1.9c0.7-0.5,1.6-0.7,2.5-0.7s1.8,0.2,2.6,0.7
			c0.7,0.5,1.3,1.1,1.7,1.9c0.4,0.8,0.6,1.8,0.6,2.9s-0.2,2.1-0.6,2.9s-1,1.5-1.7,2C529.8,20.5,529,20.8,528,20.8z M528,18.7
			c0.8,0,1.4-0.3,1.8-0.9c0.5-0.6,0.7-1.5,0.7-2.6s-0.2-2-0.7-2.6s-1.1-0.9-1.8-0.9s-1.4,0.3-1.8,0.9s-0.7,1.5-0.7,2.6
			s0.2,2,0.7,2.6C526.6,18.4,527.2,18.7,528,18.7z"/>
	</g>
</g>
<g id="text_7">
	<g>
		<path id="Montserrat-SemiBold-31-3" class="st8" d="M577.9,20.6V1.7l1.7,1.7h-6V0.2h8.1v20.4H577.9z"/>
		<path id="Montserrat-SemiBold-35-2" class="st8" d="M592.5,20.9c-1.4,0-2.8-0.2-4.2-0.6c-1.4-0.4-2.5-1-3.5-1.7l1.6-2.9
			c0.7,0.6,1.6,1.1,2.7,1.5s2.2,0.5,3.3,0.5c1.3,0,2.4-0.3,3.2-0.8c0.8-0.6,1.2-1.3,1.2-2.3c0-0.6-0.2-1.2-0.5-1.7
			c-0.3-0.5-0.9-0.9-1.7-1.1s-1.9-0.4-3.3-0.4h-4.9l1-11.1h12v3.2h-10.6l2-1.8L590,9.9l-2-1.8h4.1c2,0,3.6,0.3,4.9,0.8
			s2.1,1.3,2.7,2.2s0.9,2,0.9,3.2s-0.3,2.3-0.9,3.3s-1.5,1.8-2.7,2.4C595.8,20.6,594.3,20.9,592.5,20.9L592.5,20.9z"/>
		<path id="Montserrat-SemiBold-25-7" class="st8" d="M605.6,20.6l13.9-20.4h2.8l-13.9,20.4L605.6,20.6L605.6,20.6z M607.3,11.2
			c-1,0-1.8-0.2-2.5-0.7c-0.7-0.5-1.3-1.1-1.7-1.9c-0.4-0.8-0.6-1.8-0.6-2.9s0.2-2.1,0.6-2.9s1-1.5,1.7-2c0.7-0.5,1.6-0.7,2.5-0.7
			s1.8,0.2,2.6,0.7c0.7,0.5,1.3,1.1,1.7,2c0.4,0.8,0.6,1.8,0.6,2.9s-0.2,2.1-0.6,2.9c-0.4,0.8-1,1.5-1.7,1.9
			C609.1,10.9,608.2,11.2,607.3,11.2z M607.3,9.1c0.8,0,1.4-0.3,1.8-0.9s0.7-1.5,0.7-2.6s-0.2-2-0.7-2.6c-0.4-0.6-1-0.9-1.8-0.9
			s-1.4,0.3-1.8,0.9s-0.7,1.5-0.7,2.6s0.2,2,0.7,2.6S606.5,9.1,607.3,9.1z M620.6,20.8c-1,0-1.8-0.2-2.5-0.7c-0.7-0.5-1.3-1.1-1.7-2
			c-0.4-0.8-0.6-1.8-0.6-2.9s0.2-2.1,0.6-2.9s1-1.5,1.7-1.9c0.7-0.5,1.6-0.7,2.5-0.7s1.8,0.2,2.6,0.7c0.7,0.5,1.3,1.1,1.7,1.9
			c0.4,0.8,0.6,1.8,0.6,2.9s-0.2,2.1-0.6,2.9s-1,1.5-1.7,2C622.5,20.5,621.6,20.8,620.6,20.8z M620.6,18.7c0.8,0,1.4-0.3,1.8-0.9
			c0.5-0.6,0.7-1.5,0.7-2.6s-0.2-2-0.7-2.6s-1.1-0.9-1.8-0.9s-1.4,0.3-1.8,0.9s-0.7,1.5-0.7,2.6s0.2,2,0.7,2.6
			C619.3,18.4,619.9,18.7,620.6,18.7z"/>
	</g>
</g>
<g id="text_8">
	<g>
		<path id="Montserrat-SemiBold-31-4" class="st8" d="M670.6,20.6V1.7l1.7,1.7h-6V0.2h8.1v20.4H670.6z"/>
		<path id="Montserrat-SemiBold-35-3" class="st8" d="M685.1,20.9c-1.4,0-2.8-0.2-4.2-0.6c-1.4-0.4-2.5-1-3.5-1.7l1.6-2.9
			c0.7,0.6,1.6,1.1,2.7,1.5s2.2,0.5,3.3,0.5c1.3,0,2.4-0.3,3.2-0.8c0.8-0.6,1.2-1.3,1.2-2.3c0-0.6-0.2-1.2-0.5-1.7
			c-0.3-0.5-0.9-0.9-1.7-1.1s-1.9-0.4-3.3-0.4H679l1-11.1h12v3.2h-10.6l2-1.8l-0.8,8.3l-2-1.8h4.1c2,0,3.6,0.3,4.9,0.8
			s2.1,1.3,2.7,2.2s0.9,2,0.9,3.2s-0.3,2.3-0.9,3.3s-1.5,1.8-2.7,2.4C688.5,20.6,687,20.9,685.1,20.9L685.1,20.9z"/>
		<path id="Montserrat-SemiBold-25-8" class="st8" d="M698.2,20.6l13.9-20.4h2.8l-13.9,20.4L698.2,20.6L698.2,20.6z M699.9,11.2
			c-1,0-1.8-0.2-2.5-0.7c-0.7-0.5-1.3-1.1-1.7-1.9c-0.4-0.8-0.6-1.8-0.6-2.9s0.2-2.1,0.6-2.9s1-1.5,1.7-2c0.7-0.5,1.6-0.7,2.5-0.7
			s1.8,0.2,2.6,0.7c0.7,0.5,1.3,1.1,1.7,2c0.4,0.8,0.6,1.8,0.6,2.9s-0.2,2.1-0.6,2.9c-0.4,0.8-1,1.5-1.7,1.9
			C701.8,10.9,700.9,11.2,699.9,11.2L699.9,11.2z M700,9.1c0.8,0,1.4-0.3,1.8-0.9s0.7-1.5,0.7-2.6s-0.2-2-0.7-2.6
			c-0.4-0.6-1-0.9-1.8-0.9s-1.4,0.3-1.8,0.9s-0.7,1.5-0.7,2.6s0.2,2,0.7,2.6S699.2,9.1,700,9.1z M713.3,20.8c-1,0-1.8-0.2-2.5-0.7
			c-0.7-0.5-1.3-1.1-1.7-2c-0.4-0.8-0.6-1.8-0.6-2.9s0.2-2.1,0.6-2.9s1-1.5,1.7-1.9c0.7-0.5,1.6-0.7,2.5-0.7s1.8,0.2,2.6,0.7
			c0.7,0.5,1.3,1.1,1.7,1.9c0.4,0.8,0.6,1.8,0.6,2.9s-0.2,2.1-0.6,2.9s-1,1.5-1.7,2C715.1,20.5,714.3,20.8,713.3,20.8z M713.3,18.7
			c0.8,0,1.4-0.3,1.8-0.9c0.5-0.6,0.7-1.5,0.7-2.6s-0.2-2-0.7-2.6s-1.1-0.9-1.8-0.9s-1.4,0.3-1.8,0.9s-0.7,1.5-0.7,2.6
			s0.2,2,0.7,2.6C711.9,18.4,712.5,18.7,713.3,18.7z"/>
	</g>
</g>
<g id="text_9">
	<g>
		<path id="Montserrat-SemiBold-31-5" class="st8" d="M761.8,35.6V16.7l1.7,1.7h-6v-3.2h8.1v20.4L761.8,35.6L761.8,35.6z"/>
		<path id="Montserrat-SemiBold-34-3" class="st8" d="M769.4,31v-2.6l10-13.1h4l-9.9,13.1l-1.9-0.6h16.2V31H769.4L769.4,31z
			 M780.5,35.6V31l0.1-3.2v-4.1h3.5v11.9H780.5z"/>
		<path id="Montserrat-SemiBold-25-9" class="st8" d="M792.3,35.6l13.9-20.4h2.8l-13.9,20.4H792.3z M794,26.2c-1,0-1.8-0.2-2.5-0.7
			c-0.7-0.5-1.3-1.1-1.7-2c-0.4-0.8-0.6-1.8-0.6-2.9s0.2-2.1,0.6-2.9s1-1.5,1.7-1.9c0.7-0.5,1.6-0.7,2.5-0.7s1.8,0.2,2.6,0.7
			c0.7,0.5,1.3,1.1,1.7,1.9c0.4,0.8,0.6,1.8,0.6,2.9s-0.2,2.1-0.6,2.9s-1,1.5-1.7,2C795.8,26,794.9,26.2,794,26.2z M794,24.2
			c0.8,0,1.4-0.3,1.8-0.9s0.7-1.5,0.7-2.6s-0.2-2-0.7-2.6c-0.4-0.6-1-0.9-1.8-0.9s-1.4,0.3-1.8,0.9s-0.7,1.5-0.7,2.6s0.2,2,0.7,2.6
			S793.2,24.2,794,24.2z M807.3,35.8c-1,0-1.8-0.2-2.5-0.7c-0.7-0.5-1.3-1.1-1.7-2c-0.4-0.8-0.6-1.8-0.6-2.9s0.2-2.1,0.6-2.9
			s1-1.5,1.7-2c0.7-0.5,1.6-0.7,2.5-0.7s1.8,0.2,2.6,0.7c0.7,0.5,1.3,1.1,1.7,2c0.4,0.8,0.6,1.8,0.6,2.9s-0.2,2.1-0.6,2.9
			s-1,1.5-1.7,2C809.2,35.6,808.3,35.8,807.3,35.8z M807.3,33.8c0.8,0,1.4-0.3,1.8-0.9c0.5-0.6,0.7-1.5,0.7-2.6s-0.2-2-0.7-2.6
			s-1.1-0.9-1.8-0.9s-1.4,0.3-1.8,0.9s-0.7,1.5-0.7,2.6s0.2,2,0.7,2.6C806,33.5,806.6,33.8,807.3,33.8z"/>
	</g>
</g>
<g id="text_10">
	<g>
		<path id="Montserrat-SemiBold-39" class="st8" d="M868.4,90.3c1.9,0,3.5,0.4,4.8,1.2s2.3,1.9,3,3.4c0.7,1.5,1,3.3,1,5.5
			c0,2.3-0.4,4.3-1.3,5.9c-0.8,1.6-2,2.8-3.5,3.7c-1.5,0.8-3.2,1.2-5.2,1.2c-1,0-2-0.1-2.9-0.3c-0.9-0.2-1.7-0.6-2.4-1l1.4-2.8
			c0.6,0.4,1.2,0.6,1.8,0.8c0.7,0.2,1.3,0.2,2,0.2c1.9,0,3.4-0.6,4.6-1.8s1.7-2.9,1.7-5.2c0-0.4,0-0.8,0-1.3c0-0.5-0.1-1-0.2-1.5
			l1.2,1.3c-0.3,0.8-0.8,1.5-1.4,2c-0.6,0.5-1.3,0.9-2.2,1.2s-1.8,0.4-2.8,0.4c-1.3,0-2.5-0.3-3.6-0.8c-1.1-0.5-1.9-1.2-2.5-2.2
			s-0.9-2-0.9-3.3c0-1.4,0.3-2.5,1-3.5s1.6-1.7,2.7-2.3C865.8,90.6,867,90.3,868.4,90.3L868.4,90.3z M868.6,93.3
			c-0.8,0-1.5,0.1-2.1,0.4c-0.6,0.3-1.1,0.7-1.4,1.2c-0.3,0.5-0.5,1.1-0.5,1.8c0,1.1,0.4,1.9,1.1,2.5s1.7,0.9,3,0.9
			c0.8,0,1.5-0.2,2.2-0.4c0.6-0.3,1.1-0.7,1.5-1.2c0.3-0.5,0.5-1.1,0.5-1.8s-0.2-1.2-0.5-1.7c-0.3-0.5-0.8-0.9-1.4-1.2
			S869.5,93.3,868.6,93.3L868.6,93.3z"/>
		<path id="Montserrat-SemiBold-25-10" class="st8" d="M882.6,111l13.9-20.4h2.8L885.5,111H882.6z M884.3,101.6
			c-1,0-1.8-0.2-2.5-0.7c-0.7-0.5-1.3-1.1-1.7-1.9c-0.4-0.8-0.6-1.8-0.6-2.9s0.2-2.1,0.6-2.9c0.4-0.8,1-1.5,1.7-1.9
			c0.7-0.5,1.6-0.7,2.5-0.7s1.8,0.2,2.6,0.7c0.7,0.5,1.3,1.1,1.7,1.9c0.4,0.8,0.6,1.8,0.6,2.9s-0.2,2.1-0.6,2.9s-1,1.5-1.7,1.9
			C886.2,101.3,885.3,101.6,884.3,101.6z M884.4,99.5c0.8,0,1.4-0.3,1.8-0.9s0.7-1.5,0.7-2.6s-0.2-2-0.7-2.6c-0.4-0.6-1-0.9-1.8-0.9
			s-1.4,0.3-1.8,0.9s-0.7,1.5-0.7,2.6s0.2,2,0.7,2.6S883.6,99.5,884.4,99.5z M897.7,111.2c-1,0-1.8-0.2-2.5-0.7
			c-0.7-0.5-1.3-1.1-1.7-1.9c-0.4-0.8-0.6-1.8-0.6-2.9s0.2-2.1,0.6-2.9c0.4-0.8,1-1.5,1.7-1.9c0.7-0.5,1.6-0.7,2.5-0.7
			s1.8,0.2,2.6,0.7c0.7,0.5,1.3,1.1,1.7,1.9c0.4,0.8,0.6,1.8,0.6,2.9s-0.2,2.1-0.6,2.9s-1,1.5-1.7,1.9
			C899.5,110.9,898.7,111.2,897.7,111.2z M897.7,109.1c0.8,0,1.4-0.3,1.8-0.9c0.5-0.6,0.7-1.5,0.7-2.6s-0.2-2-0.7-2.6
			s-1.1-0.9-1.8-0.9s-1.4,0.3-1.8,0.9s-0.7,1.5-0.7,2.6s0.2,2,0.7,2.6C896.3,108.8,896.9,109.1,897.7,109.1z"/>
	</g>
</g>
<g id="text_11">
	<g>
		<path id="Montserrat-SemiBold-31-6" class="st8" d="M961,231.5v-18.9l1.7,1.7h-6v-3.2h8.1v20.4H961z"/>
		<path id="Montserrat-SemiBold-25-11" class="st8" d="M971.7,231.5l13.9-20.4h2.8l-13.9,20.4H971.7z M973.4,222.1
			c-1,0-1.8-0.2-2.5-0.7c-0.7-0.5-1.3-1.1-1.7-1.9c-0.4-0.8-0.6-1.8-0.6-2.9s0.2-2.1,0.6-2.9s1-1.5,1.7-1.9c0.7-0.5,1.6-0.7,2.5-0.7
			s1.8,0.2,2.6,0.7c0.7,0.5,1.3,1.1,1.7,1.9c0.4,0.8,0.6,1.8,0.6,2.9s-0.2,2.1-0.6,2.9s-1,1.5-1.7,1.9
			C975.2,221.9,974.4,222.1,973.4,222.1z M973.4,220.1c0.8,0,1.4-0.3,1.8-0.9s0.7-1.5,0.7-2.6s-0.2-2-0.7-2.6
			c-0.4-0.6-1-0.9-1.8-0.9s-1.4,0.3-1.8,0.9s-0.7,1.5-0.7,2.6s0.2,2,0.7,2.6S972.7,220.1,973.4,220.1L973.4,220.1z M986.8,231.7
			c-1,0-1.8-0.2-2.5-0.7c-0.7-0.5-1.3-1.1-1.7-1.9c-0.4-0.8-0.6-1.8-0.6-2.9s0.2-2.1,0.6-2.9s1-1.5,1.7-1.9c0.7-0.5,1.6-0.7,2.5-0.7
			s1.8,0.2,2.6,0.7c0.7,0.5,1.3,1.1,1.7,1.9c0.4,0.8,0.6,1.8,0.6,2.9s-0.2,2.1-0.6,2.9s-1,1.5-1.7,1.9
			C988.6,231.5,987.7,231.7,986.8,231.7z M986.8,229.7c0.8,0,1.4-0.3,1.8-0.9c0.5-0.6,0.7-1.5,0.7-2.6s-0.2-2-0.7-2.6
			s-1.1-0.9-1.8-0.9s-1.4,0.3-1.8,0.9s-0.7,1.5-0.7,2.6s0.2,2,0.7,2.6C985.4,229.4,986,229.7,986.8,229.7L986.8,229.7z"/>
	</g>
</g>
<g id="text_12">
	<g>
		<path id="Montserrat-SemiBold-30" class="st8" d="M1054.7,246.9c-1.6,0-3.1-0.4-4.3-1.2c-1.3-0.8-2.3-2-3-3.6s-1.1-3.5-1.1-5.7
			s0.4-4.1,1.1-5.7s1.8-2.8,3-3.6c1.3-0.8,2.7-1.2,4.3-1.2s3.1,0.4,4.4,1.2c1.3,0.8,2.3,2,3,3.6c0.8,1.6,1.1,3.5,1.1,5.7
			s-0.4,4.1-1.1,5.7s-1.8,2.8-3,3.6C1057.8,246.5,1056.3,246.9,1054.7,246.9z M1054.7,243.6c0.9,0,1.8-0.3,2.5-0.8
			c0.7-0.5,1.2-1.3,1.7-2.4s0.6-2.4,0.6-4.1s-0.2-3-0.6-4.1s-0.9-1.8-1.7-2.4c-0.7-0.5-1.5-0.8-2.5-0.8s-1.7,0.3-2.4,0.8
			c-0.7,0.5-1.3,1.3-1.7,2.4s-0.6,2.4-0.6,4.1s0.2,3,0.6,4.1s0.9,1.9,1.7,2.4C1052.9,243.3,1053.8,243.6,1054.7,243.6z"/>
		<path id="Montserrat-SemiBold-25-12" class="st8" d="M1068.6,246.6l13.9-20.4h2.8l-13.9,20.4H1068.6z M1070.3,237.2
			c-0.9,0-1.8-0.2-2.5-0.7c-0.7-0.5-1.3-1.1-1.7-1.9c-0.4-0.8-0.6-1.8-0.6-2.9s0.2-2.1,0.6-2.9s1-1.5,1.7-1.9
			c0.7-0.5,1.6-0.7,2.5-0.7s1.8,0.2,2.6,0.7c0.7,0.5,1.3,1.1,1.7,1.9c0.4,0.8,0.6,1.8,0.6,2.9s-0.2,2.1-0.6,2.9s-1,1.5-1.7,1.9
			C1072.1,236.9,1071.3,237.2,1070.3,237.2z M1070.3,235.1c0.8,0,1.4-0.3,1.8-0.9s0.7-1.5,0.7-2.6s-0.2-2-0.7-2.6
			c-0.4-0.6-1-0.9-1.8-0.9s-1.4,0.3-1.8,0.9s-0.7,1.5-0.7,2.6s0.2,2,0.7,2.6S1069.5,235.1,1070.3,235.1L1070.3,235.1z M1083.7,246.8
			c-0.9,0-1.8-0.2-2.5-0.7c-0.7-0.5-1.3-1.1-1.7-1.9c-0.4-0.8-0.6-1.8-0.6-2.9s0.2-2.1,0.6-2.9s1-1.5,1.7-1.9
			c0.7-0.5,1.6-0.7,2.5-0.7s1.8,0.2,2.6,0.7c0.7,0.5,1.3,1.1,1.7,1.9c0.4,0.8,0.6,1.8,0.6,2.9s-0.2,2.1-0.6,2.9s-1,1.5-1.7,1.9
			C1085.5,246.5,1084.6,246.8,1083.7,246.8z M1083.7,244.7c0.8,0,1.4-0.3,1.8-0.9c0.4-0.6,0.7-1.5,0.7-2.6s-0.2-2-0.7-2.6
			s-1.1-0.9-1.8-0.9s-1.4,0.3-1.8,0.9s-0.7,1.5-0.7,2.6s0.2,2,0.7,2.6C1082.3,244.4,1082.9,244.7,1083.7,244.7L1083.7,244.7z"/>
	</g>
</g>
<path class="st7" d="M234.7,293.6c-0.9,0-1.7-0.1-2.4-0.4c-0.7-0.3-1.4-0.7-1.9-1.2c-0.5-0.5-1-1.1-1.3-1.8
	c-0.3-0.7-0.4-1.5-0.4-2.3s0.1-1.6,0.4-2.3c0.3-0.7,0.7-1.3,1.3-1.8s1.2-0.9,1.9-1.2c0.8-0.3,1.6-0.4,2.5-0.4c1,0,1.9,0.2,2.7,0.5
	c0.8,0.3,1.5,0.8,2,1.4l-1.7,1.5c-0.4-0.4-0.9-0.7-1.3-0.9c-0.5-0.2-1-0.3-1.6-0.3s-1,0.1-1.5,0.3c-0.4,0.2-0.8,0.4-1.2,0.7
	c-0.3,0.3-0.6,0.7-0.8,1.1c-0.2,0.4-0.3,0.9-0.3,1.5s0.1,1,0.3,1.4s0.4,0.8,0.8,1.1c0.3,0.3,0.7,0.6,1.1,0.7
	c0.4,0.2,0.9,0.3,1.5,0.3s1-0.1,1.5-0.2c0.5-0.2,1-0.5,1.4-0.9l1.5,1.9c-0.6,0.5-1.3,0.8-2.1,1.1
	C236.3,293.5,235.5,293.6,234.7,293.6L234.7,293.6z M236.9,291.8v-4.2h2.4v4.5L236.9,291.8L236.9,291.8z"/>
<path class="st6" d="M1014.5,254.1"/>
<g>
	<path d="M920.6,319.3c-0.7,0-1.3-0.1-1.9-0.3c-0.5-0.2-0.9-0.5-1.2-0.9c-0.3-0.4-0.4-0.8-0.4-1.4c0-0.5,0.1-1,0.4-1.3
		c0.3-0.4,0.7-0.6,1.2-0.8s1.2-0.3,1.9-0.3c0.7,0,1.3,0.1,1.9,0.3c0.5,0.2,0.9,0.5,1.2,0.8s0.4,0.8,0.4,1.3c0,0.5-0.1,1-0.4,1.4
		c-0.3,0.4-0.7,0.7-1.2,0.9C922,319.2,921.3,319.3,920.6,319.3z M920.6,315.2c-0.6,0-1.2-0.1-1.7-0.3c-0.5-0.2-0.9-0.4-1.1-0.8
		c-0.3-0.3-0.4-0.8-0.4-1.2c0-0.5,0.1-0.9,0.4-1.3c0.3-0.4,0.7-0.6,1.1-0.8c0.5-0.2,1-0.3,1.7-0.3c0.6,0,1.2,0.1,1.7,0.3
		c0.5,0.2,0.9,0.5,1.1,0.8c0.3,0.4,0.4,0.8,0.4,1.3c0,0.5-0.1,0.9-0.4,1.2s-0.6,0.6-1.1,0.8C921.9,315.2,921.3,315.2,920.6,315.2z
		 M920.6,317.8c0.5,0,0.9-0.1,1.2-0.3c0.3-0.2,0.4-0.5,0.4-0.9c0-0.4-0.1-0.6-0.4-0.9c-0.3-0.2-0.7-0.3-1.2-0.3
		c-0.5,0-0.9,0.1-1.1,0.3s-0.4,0.5-0.4,0.9c0,0.4,0.1,0.7,0.4,0.9C919.8,317.7,920.1,317.8,920.6,317.8z M920.6,314.1
		c0.4,0,0.7-0.1,1-0.3c0.2-0.2,0.4-0.4,0.4-0.8s-0.1-0.6-0.4-0.8c-0.2-0.2-0.6-0.3-1-0.3c-0.4,0-0.7,0.1-0.9,0.3
		c-0.2,0.2-0.4,0.4-0.4,0.8c0,0.3,0.1,0.6,0.3,0.8C919.9,314,920.2,314.1,920.6,314.1z"/>
	<path d="M927.9,319.3c-0.6,0-1.2-0.1-1.7-0.2s-1.1-0.4-1.5-0.7l0.8-1.5c0.3,0.2,0.7,0.4,1.1,0.6c0.4,0.1,0.8,0.2,1.3,0.2
		c0.5,0,0.9-0.1,1.2-0.3c0.3-0.2,0.4-0.5,0.4-0.8c0-0.2-0.1-0.4-0.2-0.6c-0.1-0.2-0.3-0.3-0.6-0.4s-0.7-0.1-1.2-0.1h-2.1l0.4-4.7
		h5.1v1.6h-4.4l1-0.9l-0.3,3.4l-1-0.9h1.8c0.8,0,1.5,0.1,2,0.3c0.5,0.2,0.9,0.5,1.1,0.9c0.2,0.4,0.4,0.8,0.4,1.3
		c0,0.5-0.1,0.9-0.4,1.4c-0.2,0.4-0.6,0.8-1.1,1C929.4,319.1,928.7,319.3,927.9,319.3z"/>
</g>
<g>
	<path d="M823.3,319.1v-7.7l0.8,0.8h-2.5v-1.6h3.6v8.4H823.3z"/>
	<path d="M828,319.1l3.4-7.7l0.5,0.8h-4.5l0.8-0.9v2.3h-1.7v-3h6.7v1.3l-3.1,7.1H828z"/>
	<path d="M837.5,319.3c-0.7,0-1.3-0.2-1.8-0.5c-0.5-0.3-1-0.8-1.3-1.5c-0.3-0.6-0.5-1.4-0.5-2.4c0-0.9,0.2-1.7,0.5-2.4
		c0.3-0.6,0.7-1.1,1.3-1.5s1.2-0.5,1.8-0.5c0.7,0,1.3,0.2,1.9,0.5s1,0.8,1.3,1.5c0.3,0.6,0.5,1.4,0.5,2.4c0,0.9-0.2,1.7-0.5,2.4
		c-0.3,0.6-0.7,1.1-1.3,1.5C838.8,319.1,838.2,319.3,837.5,319.3z M837.5,317.6c0.3,0,0.6-0.1,0.9-0.3c0.2-0.2,0.4-0.5,0.6-0.9
		c0.1-0.4,0.2-0.9,0.2-1.5s-0.1-1.1-0.2-1.5c-0.1-0.4-0.3-0.7-0.6-0.9c-0.2-0.2-0.5-0.3-0.9-0.3c-0.3,0-0.6,0.1-0.8,0.3
		c-0.2,0.2-0.4,0.5-0.6,0.9c-0.1,0.4-0.2,0.9-0.2,1.5s0.1,1.1,0.2,1.5c0.1,0.4,0.3,0.7,0.6,0.9C836.9,317.5,837.2,317.6,837.5,317.6
		z"/>
</g>
<g>
	<path d="M728.7,319.1v-1.3l3.2-3.1c0.3-0.2,0.4-0.4,0.6-0.6c0.1-0.2,0.2-0.3,0.2-0.5c0-0.2,0.1-0.3,0.1-0.4c0-0.3-0.1-0.6-0.3-0.8
		c-0.2-0.2-0.6-0.3-1-0.3c-0.4,0-0.7,0.1-1,0.2s-0.5,0.4-0.8,0.6l-1.4-0.9c0.3-0.5,0.8-0.9,1.3-1.1c0.6-0.3,1.2-0.4,2-0.4
		c0.6,0,1.2,0.1,1.6,0.3c0.5,0.2,0.8,0.5,1.1,0.9s0.4,0.8,0.4,1.3c0,0.3,0,0.5-0.1,0.8c-0.1,0.3-0.2,0.6-0.4,0.9s-0.5,0.6-0.9,1
		l-2.7,2.5l-0.4-0.7h4.8v1.6H728.7z"/>
	<path d="M738.7,319.3c-0.6,0-1.2-0.1-1.7-0.2s-1.1-0.4-1.5-0.7l0.8-1.5c0.3,0.2,0.7,0.4,1.1,0.6c0.4,0.1,0.8,0.2,1.3,0.2
		c0.5,0,0.9-0.1,1.2-0.3c0.3-0.2,0.4-0.5,0.4-0.8c0-0.2-0.1-0.4-0.2-0.6c-0.1-0.2-0.3-0.3-0.6-0.4s-0.7-0.1-1.2-0.1h-2.1l0.4-4.7
		h5.1v1.6h-4.4l1-0.9l-0.3,3.4l-1-0.9h1.8c0.8,0,1.5,0.1,2,0.3c0.5,0.2,0.9,0.5,1.1,0.9c0.2,0.4,0.4,0.8,0.4,1.3
		c0,0.5-0.1,0.9-0.4,1.4c-0.2,0.4-0.6,0.8-1.1,1C740.1,319.1,739.5,319.3,738.7,319.3z"/>
	<path d="M745.7,319.3c-0.6,0-1.2-0.1-1.7-0.2s-1.1-0.4-1.5-0.7l0.8-1.5c0.3,0.2,0.7,0.4,1.1,0.6c0.4,0.1,0.8,0.2,1.3,0.2
		c0.5,0,0.9-0.1,1.2-0.3c0.3-0.2,0.4-0.5,0.4-0.8c0-0.2-0.1-0.4-0.2-0.6c-0.1-0.2-0.3-0.3-0.6-0.4s-0.7-0.1-1.2-0.1h-2.1l0.4-4.7
		h5.1v1.6h-4.4l1-0.9l-0.3,3.4l-1-0.9h1.8c0.8,0,1.5,0.1,2,0.3c0.5,0.2,0.9,0.5,1.1,0.9c0.2,0.4,0.4,0.8,0.4,1.3
		c0,0.5-0.1,0.9-0.4,1.4c-0.2,0.4-0.6,0.8-1.1,1C747.2,319.1,746.5,319.3,745.7,319.3z"/>
</g>
<g>
	<path d="M637.7,319.3c-0.6,0-1.2-0.1-1.7-0.2c-0.6-0.2-1.1-0.4-1.5-0.7l0.8-1.5c0.3,0.2,0.7,0.4,1.1,0.6c0.4,0.1,0.9,0.2,1.3,0.2
		c0.5,0,0.9-0.1,1.2-0.3c0.3-0.2,0.4-0.5,0.4-0.8c0-0.3-0.1-0.6-0.4-0.8c-0.2-0.2-0.6-0.3-1.2-0.3h-0.9v-1.3l2.3-2.7l0.2,0.7h-4.4
		v-1.6h5.9v1.3l-2.3,2.7l-1-0.6h0.6c1,0,1.8,0.2,2.3,0.7c0.5,0.5,0.8,1.1,0.8,1.8c0,0.5-0.1,0.9-0.4,1.3s-0.6,0.8-1.1,1
		C639.1,319.1,638.5,319.3,637.7,319.3z"/>
	<path d="M642,317.4v-1.3l4-5.3h2l-3.9,5.3l-1-0.3h6.6v1.6H642z M646.5,319.1v-1.8l0.1-1.6v-1.6h1.8v4.9H646.5z"/>
	<path d="M653.9,319.3c-0.7,0-1.3-0.2-1.8-0.5c-0.5-0.3-1-0.8-1.3-1.5c-0.3-0.6-0.5-1.4-0.5-2.4c0-0.9,0.2-1.7,0.5-2.4
		c0.3-0.6,0.7-1.1,1.3-1.5s1.2-0.5,1.8-0.5c0.7,0,1.3,0.2,1.9,0.5s1,0.8,1.3,1.5c0.3,0.6,0.5,1.4,0.5,2.4c0,0.9-0.2,1.7-0.5,2.4
		c-0.3,0.6-0.7,1.1-1.3,1.5C655.2,319.1,654.6,319.3,653.9,319.3z M653.9,317.6c0.3,0,0.6-0.1,0.9-0.3c0.2-0.2,0.4-0.5,0.6-0.9
		c0.1-0.4,0.2-0.9,0.2-1.5s-0.1-1.1-0.2-1.5c-0.1-0.4-0.3-0.7-0.6-0.9c-0.2-0.2-0.5-0.3-0.9-0.3c-0.3,0-0.6,0.1-0.8,0.3
		c-0.2,0.2-0.4,0.5-0.6,0.9c-0.1,0.4-0.2,0.9-0.2,1.5s0.1,1.1,0.2,1.5c0.1,0.4,0.3,0.7,0.6,0.9C653.3,317.5,653.6,317.6,653.9,317.6
		z"/>
</g>
<g>
	<path d="M542.7,317.4v-1.3l4-5.3h2l-3.9,5.3l-1-0.3h6.6v1.6H542.7z M547.3,319.1v-1.8l0.1-1.6v-1.6h1.8v4.9H547.3z"/>
	<path d="M551,319.1v-1.3l3.2-3.1c0.3-0.2,0.4-0.4,0.6-0.6c0.1-0.2,0.2-0.3,0.2-0.5c0-0.2,0.1-0.3,0.1-0.4c0-0.3-0.1-0.6-0.3-0.8
		c-0.2-0.2-0.6-0.3-1-0.3c-0.4,0-0.7,0.1-1,0.2s-0.5,0.4-0.8,0.6l-1.4-0.9c0.3-0.5,0.8-0.9,1.3-1.1c0.6-0.3,1.2-0.4,2-0.4
		c0.6,0,1.2,0.1,1.6,0.3c0.5,0.2,0.8,0.5,1.1,0.9s0.4,0.8,0.4,1.3c0,0.3,0,0.5-0.1,0.8c-0.1,0.3-0.2,0.6-0.4,0.9s-0.5,0.6-0.9,1
		l-2.7,2.5l-0.4-0.7h4.8v1.6H551z"/>
	<path d="M561,319.3c-0.6,0-1.2-0.1-1.7-0.2c-0.6-0.2-1.1-0.4-1.5-0.7l0.8-1.5c0.3,0.2,0.7,0.4,1.1,0.6c0.4,0.1,0.8,0.2,1.3,0.2
		c0.5,0,0.9-0.1,1.2-0.3c0.3-0.2,0.4-0.5,0.4-0.8c0-0.2-0.1-0.4-0.2-0.6c-0.1-0.2-0.3-0.3-0.6-0.4s-0.7-0.1-1.2-0.1h-2.1l0.4-4.7
		h5.1v1.6h-4.4l1-0.9l-0.3,3.4l-1-0.9h1.8c0.8,0,1.5,0.1,2,0.3c0.5,0.2,0.9,0.5,1.1,0.9c0.2,0.4,0.4,0.8,0.4,1.3
		c0,0.5-0.1,0.9-0.4,1.4c-0.2,0.4-0.6,0.8-1.1,1C562.5,319.1,561.8,319.3,561,319.3z"/>
</g>
<g>
	<path d="M454.3,319.3c-0.6,0-1.2-0.1-1.7-0.2s-1.1-0.4-1.5-0.7l0.8-1.5c0.3,0.2,0.7,0.4,1.1,0.6c0.4,0.1,0.8,0.2,1.3,0.2
		c0.5,0,0.9-0.1,1.2-0.3c0.3-0.2,0.4-0.5,0.4-0.8c0-0.2-0.1-0.4-0.2-0.6c-0.1-0.2-0.3-0.3-0.6-0.4s-0.7-0.1-1.2-0.1h-2.1l0.4-4.7
		h5.1v1.6h-4.4l1-0.9l-0.3,3.4l-1-0.9h1.8c0.8,0,1.5,0.1,2,0.3c0.5,0.2,0.9,0.5,1.1,0.9c0.2,0.4,0.4,0.8,0.4,1.3
		c0,0.5-0.1,0.9-0.4,1.4c-0.2,0.4-0.6,0.8-1.1,1C455.7,319.1,455.1,319.3,454.3,319.3z"/>
	<path d="M459.9,319.1v-7.7l0.8,0.8h-2.5v-1.6h3.6v8.4H459.9z"/>
	<path d="M466.9,319.3c-0.7,0-1.3-0.2-1.8-0.5c-0.5-0.3-1-0.8-1.3-1.5c-0.3-0.6-0.5-1.4-0.5-2.4c0-0.9,0.2-1.7,0.5-2.4
		c0.3-0.6,0.7-1.1,1.3-1.5s1.2-0.5,1.8-0.5c0.7,0,1.3,0.2,1.9,0.5s1,0.8,1.3,1.5c0.3,0.6,0.5,1.4,0.5,2.4c0,0.9-0.2,1.7-0.5,2.4
		c-0.3,0.6-0.7,1.1-1.3,1.5C468.2,319.1,467.6,319.3,466.9,319.3z M466.9,317.6c0.3,0,0.6-0.1,0.9-0.3c0.2-0.2,0.4-0.5,0.6-0.9
		c0.1-0.4,0.2-0.9,0.2-1.5s-0.1-1.1-0.2-1.5c-0.1-0.4-0.3-0.7-0.6-0.9c-0.2-0.2-0.5-0.3-0.9-0.3c-0.3,0-0.6,0.1-0.8,0.3
		c-0.2,0.2-0.4,0.5-0.6,0.9c-0.1,0.4-0.2,0.9-0.2,1.5s0.1,1.1,0.2,1.5c0.1,0.4,0.3,0.7,0.6,0.9C466.3,317.5,466.6,317.6,466.9,317.6
		z"/>
</g>
<g>
	<path d="M360.6,319.3c-0.8,0-1.4-0.2-2-0.5c-0.6-0.3-1-0.8-1.3-1.4c-0.3-0.6-0.5-1.4-0.5-2.3c0-1,0.2-1.8,0.5-2.5
		c0.4-0.7,0.9-1.2,1.5-1.5c0.6-0.4,1.4-0.5,2.2-0.5c0.4,0,0.9,0,1.3,0.2c0.4,0.1,0.8,0.2,1.1,0.4l-0.7,1.4c-0.2-0.2-0.5-0.3-0.7-0.3
		c-0.3-0.1-0.5-0.1-0.8-0.1c-0.7,0-1.3,0.2-1.7,0.7c-0.4,0.4-0.6,1.1-0.6,2c0,0.1,0,0.3,0,0.5c0,0.2,0,0.4,0.1,0.5l-0.5-0.5
		c0.2-0.3,0.3-0.6,0.6-0.8c0.2-0.2,0.5-0.4,0.9-0.5c0.3-0.1,0.7-0.2,1.1-0.2c0.5,0,1,0.1,1.5,0.3c0.4,0.2,0.8,0.5,1,0.9
		c0.3,0.4,0.4,0.9,0.4,1.4c0,0.6-0.1,1.1-0.4,1.5c-0.3,0.4-0.7,0.7-1.1,1C361.7,319.2,361.2,319.3,360.6,319.3z M360.5,317.8
		c0.3,0,0.5,0,0.7-0.2c0.2-0.1,0.4-0.2,0.5-0.4c0.1-0.2,0.2-0.4,0.2-0.7c0-0.4-0.1-0.7-0.4-0.9c-0.3-0.2-0.6-0.3-1-0.3
		c-0.3,0-0.5,0.1-0.8,0.2c-0.2,0.1-0.4,0.3-0.5,0.5c-0.1,0.2-0.2,0.4-0.2,0.7c0,0.2,0.1,0.4,0.2,0.6c0.1,0.2,0.3,0.3,0.5,0.4
		C359.9,317.8,360.1,317.8,360.5,317.8z"/>
	<path d="M368,319.3c-0.7,0-1.3-0.2-1.8-0.5c-0.5-0.3-1-0.8-1.3-1.5c-0.3-0.6-0.5-1.4-0.5-2.4c0-0.9,0.2-1.7,0.5-2.4
		c0.3-0.6,0.7-1.1,1.3-1.5s1.2-0.5,1.8-0.5c0.7,0,1.3,0.2,1.9,0.5s1,0.8,1.3,1.5c0.3,0.6,0.5,1.4,0.5,2.4c0,0.9-0.2,1.7-0.5,2.4
		c-0.3,0.6-0.7,1.1-1.3,1.5C369.4,319.1,368.7,319.3,368,319.3z M368,317.6c0.3,0,0.6-0.1,0.9-0.3c0.2-0.2,0.4-0.5,0.6-0.9
		c0.1-0.4,0.2-0.9,0.2-1.5s-0.1-1.1-0.2-1.5c-0.1-0.4-0.3-0.7-0.6-0.9c-0.2-0.2-0.5-0.3-0.9-0.3c-0.3,0-0.6,0.1-0.8,0.3
		c-0.2,0.2-0.4,0.5-0.6,0.9c-0.1,0.4-0.2,0.9-0.2,1.5s0.1,1.1,0.2,1.5c0.1,0.4,0.3,0.7,0.6,0.9C367.5,317.5,367.7,317.6,368,317.6z"
		/>
	<path d="M376.2,319.3c-0.7,0-1.3-0.2-1.8-0.5c-0.5-0.3-1-0.8-1.3-1.5c-0.3-0.6-0.5-1.4-0.5-2.4c0-0.9,0.2-1.7,0.5-2.4
		c0.3-0.6,0.7-1.1,1.3-1.5s1.2-0.5,1.8-0.5c0.7,0,1.3,0.2,1.9,0.5s1,0.8,1.3,1.5c0.3,0.6,0.5,1.4,0.5,2.4c0,0.9-0.2,1.7-0.5,2.4
		c-0.3,0.6-0.7,1.1-1.3,1.5C377.5,319.1,376.9,319.3,376.2,319.3z M376.2,317.6c0.3,0,0.6-0.1,0.9-0.3c0.2-0.2,0.4-0.5,0.6-0.9
		c0.1-0.4,0.2-0.9,0.2-1.5s-0.1-1.1-0.2-1.5c-0.1-0.4-0.3-0.7-0.6-0.9c-0.2-0.2-0.5-0.3-0.9-0.3c-0.3,0-0.6,0.1-0.8,0.3
		c-0.2,0.2-0.4,0.5-0.6,0.9c-0.1,0.4-0.2,0.9-0.2,1.5s0.1,1.1,0.2,1.5c0.1,0.4,0.3,0.7,0.6,0.9C375.6,317.5,375.9,317.6,376.2,317.6
		z"/>
</g>
<g>
	<path d="M265.7,319.1l3.4-7.7l0.5,0.8h-4.5l0.8-0.9v2.3h-1.7v-3h6.7v1.3l-3.1,7.1H265.7z"/>
	<path d="M275.2,319.3c-0.7,0-1.3-0.2-1.8-0.5c-0.5-0.3-1-0.8-1.3-1.5c-0.3-0.6-0.5-1.4-0.5-2.4c0-0.9,0.2-1.7,0.5-2.4
		c0.3-0.6,0.7-1.1,1.3-1.5s1.2-0.5,1.8-0.5c0.7,0,1.3,0.2,1.9,0.5s1,0.8,1.3,1.5c0.3,0.6,0.5,1.4,0.5,2.4c0,0.9-0.2,1.7-0.5,2.4
		c-0.3,0.6-0.7,1.1-1.3,1.5C276.5,319.1,275.9,319.3,275.2,319.3z M275.2,317.6c0.3,0,0.6-0.1,0.9-0.3c0.2-0.2,0.4-0.5,0.6-0.9
		c0.1-0.4,0.2-0.9,0.2-1.5s-0.1-1.1-0.2-1.5c-0.1-0.4-0.3-0.7-0.6-0.9c-0.2-0.2-0.5-0.3-0.9-0.3c-0.3,0-0.6,0.1-0.8,0.3
		c-0.2,0.2-0.4,0.5-0.6,0.9c-0.1,0.4-0.2,0.9-0.2,1.5s0.1,1.1,0.2,1.5c0.1,0.4,0.3,0.7,0.6,0.9C274.6,317.5,274.9,317.6,275.2,317.6
		z"/>
	<path d="M283.3,319.3c-0.7,0-1.3-0.2-1.8-0.5c-0.5-0.3-1-0.8-1.3-1.5c-0.3-0.6-0.5-1.4-0.5-2.4c0-0.9,0.2-1.7,0.5-2.4
		c0.3-0.6,0.7-1.1,1.3-1.5s1.2-0.5,1.8-0.5c0.7,0,1.3,0.2,1.9,0.5s1,0.8,1.3,1.5c0.3,0.6,0.5,1.4,0.5,2.4c0,0.9-0.2,1.7-0.5,2.4
		c-0.3,0.6-0.7,1.1-1.3,1.5C284.6,319.1,284,319.3,283.3,319.3z M283.3,317.6c0.3,0,0.6-0.1,0.9-0.3c0.2-0.2,0.4-0.5,0.6-0.9
		c0.1-0.4,0.2-0.9,0.2-1.5s-0.1-1.1-0.2-1.5c-0.1-0.4-0.3-0.7-0.6-0.9c-0.2-0.2-0.5-0.3-0.9-0.3c-0.3,0-0.6,0.1-0.8,0.3
		c-0.2,0.2-0.4,0.5-0.6,0.9c-0.1,0.4-0.2,0.9-0.2,1.5s0.1,1.1,0.2,1.5c0.1,0.4,0.3,0.7,0.6,0.9C282.7,317.5,283,317.6,283.3,317.6z"
		/>
</g>
<g>
	<path d="M174.8,319.3c-0.7,0-1.3-0.1-1.9-0.3c-0.5-0.2-0.9-0.5-1.2-0.9c-0.3-0.4-0.4-0.8-0.4-1.4c0-0.5,0.1-1,0.4-1.3
		c0.3-0.4,0.7-0.6,1.2-0.8s1.2-0.3,1.9-0.3c0.7,0,1.3,0.1,1.9,0.3c0.5,0.2,0.9,0.5,1.2,0.8s0.4,0.8,0.4,1.3c0,0.5-0.1,1-0.4,1.4
		c-0.3,0.4-0.7,0.7-1.2,0.9C176.2,319.2,175.6,319.3,174.8,319.3z M174.8,315.2c-0.6,0-1.2-0.1-1.7-0.3c-0.5-0.2-0.9-0.4-1.1-0.8
		c-0.3-0.3-0.4-0.8-0.4-1.2c0-0.5,0.1-0.9,0.4-1.3c0.3-0.4,0.7-0.6,1.1-0.8c0.5-0.2,1-0.3,1.7-0.3c0.6,0,1.2,0.1,1.7,0.3
		c0.5,0.2,0.9,0.5,1.1,0.8c0.3,0.4,0.4,0.8,0.4,1.3c0,0.5-0.1,0.9-0.4,1.2s-0.6,0.6-1.1,0.8C176.1,315.2,175.5,315.2,174.8,315.2z
		 M174.8,317.8c0.5,0,0.9-0.1,1.2-0.3c0.3-0.2,0.4-0.5,0.4-0.9c0-0.4-0.1-0.6-0.4-0.9c-0.3-0.2-0.7-0.3-1.2-0.3
		c-0.5,0-0.9,0.1-1.1,0.3s-0.4,0.5-0.4,0.9c0,0.4,0.1,0.7,0.4,0.9C174,317.7,174.4,317.8,174.8,317.8z M174.8,314.1
		c0.4,0,0.7-0.1,1-0.3c0.2-0.2,0.4-0.4,0.4-0.8s-0.1-0.6-0.4-0.8c-0.2-0.2-0.6-0.3-1-0.3c-0.4,0-0.7,0.1-0.9,0.3
		c-0.2,0.2-0.4,0.4-0.4,0.8c0,0.3,0.1,0.6,0.3,0.8C174.1,314,174.4,314.1,174.8,314.1z"/>
	<path d="M182.9,319.3c-0.7,0-1.3-0.2-1.8-0.5c-0.5-0.3-1-0.8-1.3-1.5c-0.3-0.6-0.5-1.4-0.5-2.4c0-0.9,0.2-1.7,0.5-2.4
		c0.3-0.6,0.7-1.1,1.3-1.5s1.2-0.5,1.8-0.5c0.7,0,1.3,0.2,1.9,0.5s1,0.8,1.3,1.5c0.3,0.6,0.5,1.4,0.5,2.4c0,0.9-0.2,1.7-0.5,2.4
		c-0.3,0.6-0.7,1.1-1.3,1.5C184.2,319.1,183.6,319.3,182.9,319.3z M182.9,317.6c0.3,0,0.6-0.1,0.9-0.3c0.2-0.2,0.4-0.5,0.6-0.9
		c0.1-0.4,0.2-0.9,0.2-1.5s-0.1-1.1-0.2-1.5c-0.1-0.4-0.3-0.7-0.6-0.9c-0.2-0.2-0.5-0.3-0.9-0.3c-0.3,0-0.6,0.1-0.8,0.3
		c-0.2,0.2-0.4,0.5-0.6,0.9c-0.1,0.4-0.2,0.9-0.2,1.5s0.1,1.1,0.2,1.5c0.1,0.4,0.3,0.7,0.6,0.9C182.3,317.5,182.6,317.6,182.9,317.6
		z"/>
	<path d="M191,319.3c-0.7,0-1.3-0.2-1.8-0.5c-0.5-0.3-1-0.8-1.3-1.5c-0.3-0.6-0.5-1.4-0.5-2.4c0-0.9,0.2-1.7,0.5-2.4
		c0.3-0.6,0.7-1.1,1.3-1.5s1.2-0.5,1.8-0.5c0.7,0,1.3,0.2,1.9,0.5s1,0.8,1.3,1.5c0.3,0.6,0.5,1.4,0.5,2.4c0,0.9-0.2,1.7-0.5,2.4
		c-0.3,0.6-0.7,1.1-1.3,1.5C192.3,319.1,191.7,319.3,191,319.3z M191,317.6c0.3,0,0.6-0.1,0.9-0.3c0.2-0.2,0.4-0.5,0.6-0.9
		c0.1-0.4,0.2-0.9,0.2-1.5s-0.1-1.1-0.2-1.5c-0.1-0.4-0.3-0.7-0.6-0.9c-0.2-0.2-0.5-0.3-0.9-0.3c-0.3,0-0.6,0.1-0.8,0.3
		c-0.2,0.2-0.4,0.5-0.6,0.9c-0.1,0.4-0.2,0.9-0.2,1.5s0.1,1.1,0.2,1.5c0.1,0.4,0.3,0.7,0.6,0.9C190.4,317.5,190.7,317.6,191,317.6z"
		/>
</g>
<g>
	<path d="M81.8,310.6c0.8,0,1.4,0.2,2,0.5c0.6,0.3,1,0.8,1.3,1.4c0.3,0.6,0.5,1.4,0.5,2.3c0,1-0.2,1.8-0.5,2.5s-0.9,1.2-1.5,1.5
		c-0.6,0.4-1.4,0.5-2.2,0.5c-0.4,0-0.9,0-1.3-0.1s-0.8-0.2-1.1-0.4l0.7-1.4c0.2,0.2,0.5,0.3,0.8,0.3c0.3,0.1,0.5,0.1,0.8,0.1
		c0.7,0,1.3-0.2,1.7-0.7c0.4-0.4,0.6-1.1,0.6-1.9c0-0.1,0-0.3,0-0.5s0-0.4-0.1-0.5l0.5,0.5c-0.1,0.3-0.3,0.6-0.6,0.8
		c-0.2,0.2-0.5,0.4-0.9,0.5c-0.3,0.1-0.7,0.2-1.1,0.2c-0.5,0-1-0.1-1.5-0.3c-0.4-0.2-0.8-0.5-1-0.9c-0.3-0.4-0.4-0.9-0.4-1.4
		c0-0.6,0.1-1.1,0.4-1.5c0.3-0.4,0.7-0.7,1.2-1C80.7,310.7,81.2,310.6,81.8,310.6z M81.9,312c-0.3,0-0.5,0-0.7,0.1
		c-0.2,0.1-0.4,0.2-0.5,0.4c-0.1,0.2-0.2,0.4-0.2,0.7c0,0.4,0.1,0.7,0.4,0.9c0.3,0.2,0.6,0.3,1,0.3c0.3,0,0.5-0.1,0.8-0.2
		c0.2-0.1,0.4-0.3,0.5-0.5c0.1-0.2,0.2-0.4,0.2-0.7c0-0.2-0.1-0.4-0.2-0.6c-0.1-0.2-0.3-0.3-0.5-0.4C82.5,312.1,82.2,312,81.9,312z"
		/>
	<path d="M90.1,319.3c-0.7,0-1.3-0.2-1.8-0.5c-0.5-0.3-1-0.8-1.3-1.5c-0.3-0.6-0.5-1.4-0.5-2.4c0-0.9,0.2-1.7,0.5-2.4
		c0.3-0.6,0.7-1.1,1.3-1.5s1.2-0.5,1.8-0.5c0.7,0,1.3,0.2,1.9,0.5s1,0.8,1.3,1.5c0.3,0.6,0.5,1.4,0.5,2.4c0,0.9-0.2,1.7-0.5,2.4
		c-0.3,0.6-0.7,1.1-1.3,1.5C91.4,319.1,90.8,319.3,90.1,319.3z M90.1,317.6c0.3,0,0.6-0.1,0.9-0.3c0.2-0.2,0.4-0.5,0.6-0.9
		c0.1-0.4,0.2-0.9,0.2-1.5s-0.1-1.1-0.2-1.5c-0.1-0.4-0.3-0.7-0.6-0.9c-0.2-0.2-0.5-0.3-0.9-0.3c-0.3,0-0.6,0.1-0.8,0.3
		c-0.2,0.2-0.4,0.5-0.6,0.9c-0.1,0.4-0.2,0.9-0.2,1.5s0.1,1.1,0.2,1.5c0.1,0.4,0.3,0.7,0.6,0.9C89.5,317.5,89.8,317.6,90.1,317.6z"
		/>
	<path d="M98.2,319.3c-0.7,0-1.3-0.2-1.8-0.5c-0.5-0.3-1-0.8-1.3-1.5c-0.3-0.6-0.5-1.4-0.5-2.4c0-0.9,0.2-1.7,0.5-2.4
		c0.3-0.6,0.7-1.1,1.3-1.5s1.2-0.5,1.8-0.5c0.7,0,1.3,0.2,1.9,0.5s1,0.8,1.3,1.5c0.3,0.6,0.5,1.4,0.5,2.4c0,0.9-0.2,1.7-0.5,2.4
		c-0.3,0.6-0.7,1.1-1.3,1.5C99.6,319.1,98.9,319.3,98.2,319.3z M98.2,317.6c0.3,0,0.6-0.1,0.9-0.3c0.2-0.2,0.4-0.5,0.6-0.9
		c0.1-0.4,0.2-0.9,0.2-1.5s-0.1-1.1-0.2-1.5c-0.1-0.4-0.3-0.7-0.6-0.9c-0.2-0.2-0.5-0.3-0.9-0.3c-0.3,0-0.6,0.1-0.8,0.3
		c-0.2,0.2-0.4,0.5-0.6,0.9c-0.1,0.4-0.2,0.9-0.2,1.5s0.1,1.1,0.2,1.5c0.1,0.4,0.3,0.7,0.6,0.9C97.7,317.5,97.9,317.6,98.2,317.6z"
		/>
</g>
<g>
	<path d="M1009.5,317.4v-1.3l4-5.3h2l-3.9,5.3l-1-0.3h6.6v1.6H1009.5z M1014,319.1v-1.8l0.1-1.6v-1.6h1.8v4.9H1014z"/>
	<path d="M1020.7,319.3c-0.6,0-1.2-0.1-1.7-0.2s-1.1-0.4-1.5-0.7l0.8-1.5c0.3,0.2,0.7,0.4,1.1,0.6c0.4,0.1,0.8,0.2,1.3,0.2
		c0.5,0,0.9-0.1,1.2-0.3c0.3-0.2,0.4-0.5,0.4-0.8c0-0.2-0.1-0.4-0.2-0.6c-0.1-0.2-0.3-0.3-0.6-0.4s-0.7-0.1-1.2-0.1h-2.1l0.4-4.7
		h5.1v1.6h-4.4l1-0.9l-0.3,3.4l-1-0.9h1.8c0.8,0,1.5,0.1,2,0.3c0.5,0.2,0.9,0.5,1.1,0.9c0.2,0.4,0.4,0.8,0.4,1.3
		c0,0.5-0.1,0.9-0.4,1.4c-0.2,0.4-0.6,0.8-1.1,1C1022.2,319.1,1021.5,319.3,1020.7,319.3z"/>
</g>
<g>
	<path d="M1109.5,319.3c-0.7,0-1.3-0.2-1.8-0.5c-0.5-0.3-1-0.8-1.3-1.5c-0.3-0.6-0.5-1.4-0.5-2.4c0-0.9,0.2-1.7,0.5-2.4
		c0.3-0.6,0.7-1.1,1.3-1.5s1.2-0.5,1.8-0.5c0.7,0,1.3,0.2,1.9,0.5s1,0.8,1.3,1.5c0.3,0.6,0.5,1.4,0.5,2.4c0,0.9-0.2,1.7-0.5,2.4
		c-0.3,0.6-0.7,1.1-1.3,1.5C1110.8,319.1,1110.2,319.3,1109.5,319.3z M1109.5,317.6c0.3,0,0.6-0.1,0.9-0.3c0.2-0.2,0.4-0.5,0.6-0.9
		c0.1-0.4,0.2-0.9,0.2-1.5s-0.1-1.1-0.2-1.5c-0.1-0.4-0.3-0.7-0.6-0.9c-0.2-0.2-0.5-0.3-0.9-0.3c-0.3,0-0.6,0.1-0.8,0.3
		c-0.2,0.2-0.4,0.5-0.6,0.9c-0.1,0.4-0.2,0.9-0.2,1.5s0.1,1.1,0.2,1.5c0.1,0.4,0.3,0.7,0.6,0.9
		C1108.9,317.5,1109.2,317.6,1109.5,317.6z"/>
</g>
</svg>
