<svg width="33" height="31" viewBox="0 0 33 31" fill="none" xmlns="http://www.w3.org/2000/svg">
<path d="M1.75439 22.8736L16.5071 29.6915L31.2599 22.8736L27.907 20.1465L16.5071 24.919L5.10729 20.8283L1.75439 22.8736Z" fill="#009CFF"/>
<path d="M16.4997 15.6692L32 8.70866L16.4997 1.65332L1 8.70866L16.4997 15.6692Z" fill="#009CFF" stroke="#009CFF" stroke-width="1.60939" stroke-linecap="round" stroke-linejoin="round"/>
<path d="M6.23611 11.0317L1 13.4154L16.4997 20.3759L32 13.4154L26.7639 11.0317" stroke="#009CFF" stroke-width="1.60939" stroke-linecap="round" stroke-linejoin="round"/>
<path d="M1 13.4155V18.1224L16.4997 25.0829L32 18.1224V13.4155" stroke="#009CFF" stroke-width="1.60939" stroke-linecap="round" stroke-linejoin="round"/>
<path d="M6.20502 20.46L1 22.8295L16.4997 29.79L32 22.8295L26.7943 20.46" stroke="#009CFF" stroke-width="1.60939" stroke-linecap="round" stroke-linejoin="round"/>
<path d="M16.4993 25.0828V20.376" stroke="#009CFF" stroke-width="1.60939" stroke-linecap="round" stroke-linejoin="round"/>
<path d="M22.0264 22.5539V18.1484" stroke="#009CFF" stroke-width="1.60939" stroke-linecap="round" stroke-linejoin="round"/>
<path d="M27.556 20.1653V15.4585" stroke="#009CFF" stroke-width="1.60939" stroke-linecap="round" stroke-linejoin="round"/>
<path d="M10.9723 22.3302V17.917" stroke="#009CFF" stroke-width="1.60939" stroke-linecap="round" stroke-linejoin="round"/>
<path d="M6.13416 20.4466V15.7397" stroke="#009CFF" stroke-width="1.60939" stroke-linecap="round" stroke-linejoin="round"/>
</svg>
