<svg width="22" height="31" viewBox="0 0 22 31" fill="none" xmlns="http://www.w3.org/2000/svg">
<path fill-rule="evenodd" clip-rule="evenodd" d="M11.0502 1.72168C16.6097 1.72168 21.1001 6.28715 21.1001 11.9396C21.1001 14.168 20.3517 16.2877 19.1757 17.9726L11.1037 29.495L2.97816 17.9726C1.74864 16.2877 1.00024 14.2224 1.00024 11.9396C1.00024 6.28715 5.49065 1.72168 11.0502 1.72168ZM15.7539 11.9398C15.7539 14.5813 13.6478 16.7227 11.0497 16.7227C8.45161 16.7227 6.34546 14.5813 6.34546 11.9398C6.34546 9.29832 8.45161 7.15695 11.0497 7.15695C13.6478 7.15695 15.7539 9.29832 15.7539 11.9398Z" fill="#009CFF"/>
<path d="M21.0999 11.9396C21.0999 6.28715 16.6095 1.72168 11.05 1.72168C5.4904 1.72168 1 6.28715 1 11.9396C1 14.2224 1.7484 16.2877 2.97792 17.9726L11.1034 29.495L19.1754 17.9726C20.3515 16.2877 21.0999 14.168 21.0999 11.9396Z" stroke="#009CFF" stroke-width="1.8" stroke-miterlimit="10" stroke-linecap="round" stroke-linejoin="round"/>
<path d="M11.0494 16.7225C13.6475 16.7225 15.7537 14.5811 15.7537 11.9396C15.7537 9.2981 13.6475 7.15674 11.0494 7.15674C8.45137 7.15674 6.34521 9.2981 6.34521 11.9396C6.34521 14.5811 8.45137 16.7225 11.0494 16.7225Z" stroke="#009CFF" stroke-width="1.8" stroke-miterlimit="10" stroke-linecap="round" stroke-linejoin="round"/>
</svg>
