<svg width="34" height="31" viewBox="0 0 34 31" fill="none" xmlns="http://www.w3.org/2000/svg">
<path d="M7.03242 29.3582L1.44575 24.2962C0.851418 23.7576 0.851418 22.9499 1.44575 22.4114L24.0302 1.94783C24.6245 1.40932 25.516 1.40932 26.1103 1.94783L31.697 7.00986C32.2913 7.54837 32.2913 8.35615 31.697 8.89466L9.11256 29.3582C8.51824 29.8967 7.56731 29.8967 7.03242 29.3582Z" fill="#009CFF" stroke="#009CFF" stroke-width="1.90677" stroke-miterlimit="10" stroke-linecap="round" stroke-linejoin="round"/>
<path d="M2.34497 19.564L6.2081 23.0105" stroke="#F9FAFC" stroke-width="1.90677" stroke-miterlimit="10" stroke-linecap="round" stroke-linejoin="round"/>
<path d="M8.52368 13.9629L12.3868 17.4094" stroke="#F9FAFC" stroke-width="1.90677" stroke-miterlimit="10" stroke-linecap="round" stroke-linejoin="round"/>
<path d="M14.7058 8.3623L18.5095 11.8626" stroke="#F9FAFC" stroke-width="1.90677" stroke-miterlimit="10" stroke-linecap="round" stroke-linejoin="round"/>
<path d="M20.8881 2.76123L24.6918 6.26157" stroke="#F9FAFC" stroke-width="1.90677" stroke-miterlimit="10" stroke-linecap="round" stroke-linejoin="round"/>
<path d="M5.43628 16.7637L7.75416 18.81" stroke="#F9FAFC" stroke-width="1.90677" stroke-miterlimit="10" stroke-linecap="round" stroke-linejoin="round"/>
<path d="M11.6149 11.1631L13.8733 13.2094" stroke="#F9FAFC" stroke-width="1.90677" stroke-miterlimit="10" stroke-linecap="round" stroke-linejoin="round"/>
<path d="M17.7969 5.5625L20.0553 7.6627" stroke="#F9FAFC" stroke-width="1.90677" stroke-miterlimit="10" stroke-linecap="round" stroke-linejoin="round"/>
</svg>
