<svg width="146" height="70" viewBox="0 0 146 70" fill="none" xmlns="http://www.w3.org/2000/svg">
<path d="M68.8811 66.3673L0 38.3247L76.2883 7.26562L145.169 35.3082L68.8811 66.3673Z" fill="#9AA8AC"/>
<path opacity="0.2" d="M69.0787 64.7929L3.86914 38.2433L76.0912 8.84082L141.301 35.3892L69.0787 64.7929Z" fill="#221F20"/>
<path d="M68.8811 69.9996V66.3668L0 38.3242V41.957L68.8811 69.9996Z" fill="#E6EAE9"/>
<path d="M145.169 38.9414V35.3086L68.8809 66.3676V70.0004L145.169 38.9414Z" fill="#636F73"/>
<path d="M92.1243 10.08L15.8359 41.1391V37.5063L92.1243 6.44727V10.08Z" fill="#614730"/>
<path d="M0 31.0586V34.6914L15.8365 41.1383V37.5056L0 31.0586Z" fill="#DBA877"/>
<path d="M109.941 17.3339L33.6523 48.3918V44.759L109.941 13.7012V17.3339Z" fill="#614730"/>
<path d="M17.8164 38.3125V41.9453L33.6529 48.3922V44.7595L17.8164 38.3125Z" fill="#DBA877"/>
<path d="M127.534 24.497L51.2461 55.5561V51.9233L127.534 20.8643V24.497Z" fill="#614730"/>
<path d="M35.4102 45.4756V49.1084L51.2466 55.5565V51.9238L35.4102 45.4756Z" fill="#DBA877"/>
<path d="M0 31.059L15.8365 37.506L92.1248 6.44697L76.2883 0L0 31.059Z" fill="#957049"/>
<path d="M17.8164 38.3129L33.6529 44.7599L109.941 13.7021L94.1047 7.25391L17.8164 38.3129Z" fill="#957049"/>
<path d="M35.4102 45.4758L51.2466 51.924L127.535 20.8649L111.698 14.418L35.4102 45.4758Z" fill="#957049"/>
<path d="M145.169 31.6757L68.8809 62.7348V59.102L145.169 28.043V31.6757Z" fill="#614730"/>
<path d="M53.0449 52.6543V56.2871L68.8814 62.734V59.1013L53.0449 52.6543Z" fill="#DBA877"/>
<path d="M53.0449 52.6547L68.8814 59.1017L145.17 28.0427L129.333 21.5957L53.0449 52.6547Z" fill="#957049"/>
</svg>
