<svg width="67" height="100" viewBox="0 0 67 100" fill="none" xmlns="http://www.w3.org/2000/svg">
<path d="M66.8765 9.44336V82.171L23.082 100V27.2734L66.8765 9.44336Z" fill="#E6EAE9"/>
<path opacity="0.2" d="M30.1836 75.9407V88.8146L59.7771 76.7665V63.8926L30.1836 75.9407Z" fill="#636F73"/>
<path d="M0 17.8027V90.5297L23.0823 99.9996V27.2727L0 17.8027Z" fill="#636F73"/>
<path d="M0 17.8031L43.7285 0L66.8768 9.44297L23.0823 27.2731L0 17.8031Z" fill="#9AA8AC"/>
<path d="M42.3428 12.0833C41.152 9.98728 37.6152 8.46777 33.4373 8.46777C29.3006 8.46777 25.7936 9.95888 24.5681 12.018L24.1016 11.5039V13.6341C24.1016 16.4892 28.2816 18.8033 33.4373 18.8033C38.593 18.8033 42.7723 16.4892 42.7723 13.6341V11.5039L42.3428 12.0833Z" fill="#E6EAE9"/>
<path d="M33.4386 16.6753C38.5942 16.6753 42.7736 14.3609 42.7736 11.5061C42.7736 8.65123 38.5942 6.33691 33.4386 6.33691C28.283 6.33691 24.1035 8.65123 24.1035 11.5061C24.1035 14.3609 28.283 16.6753 33.4386 16.6753Z" fill="#9AA8AC"/>
<path d="M33.4379 15.4879C37.7668 15.4879 41.2761 13.7054 41.2761 11.5066C41.2761 9.30786 37.7668 7.52539 33.4379 7.52539C29.1089 7.52539 25.5996 9.30786 25.5996 11.5066C25.5996 13.7054 29.1089 15.4879 33.4379 15.4879Z" fill="#636F73"/>
<path d="M5.03164 45.5317C4.72205 45.406 4.4707 45.0531 4.4707 44.7436V30.3082C4.4707 29.9986 4.72205 29.8488 5.03164 29.9738C5.34193 30.0995 5.5933 30.4524 5.5933 30.7619V45.1973C5.5933 45.5069 5.34193 45.6567 5.03164 45.5317Z" fill="#9AA8AC"/>
<path d="M7.87148 46.6791C7.5619 46.5535 7.31055 46.2006 7.31055 45.891V31.4557C7.31055 31.1461 7.5619 30.9963 7.87148 31.1212C8.18177 31.2469 8.43314 31.5998 8.43314 31.9094V46.3447C8.43314 46.6543 8.18177 46.8041 7.87148 46.6791Z" fill="#9AA8AC"/>
<path d="M10.7113 47.8266C10.4017 47.7009 10.1504 47.3487 10.1504 47.0384V32.6038C10.1504 32.2935 10.4017 32.1437 10.7113 32.2687C11.0216 32.3944 11.273 32.7473 11.273 33.0569V47.4922C11.273 47.8017 11.0216 47.9523 10.7113 47.8266Z" fill="#9AA8AC"/>
<path d="M13.5512 48.9741C13.2416 48.8491 12.9902 48.4962 12.9902 48.1859V33.7513C12.9902 33.441 13.2416 33.2912 13.5512 33.4161C13.8615 33.5418 14.1128 33.8947 14.1128 34.2043V48.6397C14.1128 48.9464 13.8615 49.0991 13.5512 48.9741Z" fill="#9AA8AC"/>
<path d="M16.393 50.1222C16.0834 49.9972 15.832 49.6443 15.832 49.334V34.8994C15.832 34.5891 16.0834 34.4393 16.393 34.565C16.7033 34.6899 16.9546 35.0428 16.9546 35.3531V49.7877C16.9546 50.098 16.7033 50.2478 16.393 50.1222Z" fill="#9AA8AC"/>
<path d="M5.03164 82.5835C4.72205 82.4578 4.4707 82.1049 4.4707 81.7953V67.36C4.4707 67.0504 4.72205 66.9006 5.03164 67.0255C5.34193 67.1512 5.5933 67.5041 5.5933 67.8137V82.2483C5.5933 82.5586 5.34193 82.7084 5.03164 82.5835Z" fill="#9AA8AC"/>
<path d="M7.87148 83.7309C7.5619 83.6052 7.31055 83.2523 7.31055 82.9428V68.5074C7.31055 68.1978 7.5619 68.048 7.87148 68.173C8.18177 68.2987 8.43314 68.6516 8.43314 68.9612V83.3965C8.43314 83.7061 8.18177 83.8559 7.87148 83.7309Z" fill="#9AA8AC"/>
<path d="M10.7113 84.8754C10.4017 84.7505 10.1504 84.3976 10.1504 84.0873V69.6526C10.1504 69.3423 10.4017 69.1925 10.7113 69.3175C11.0216 69.4432 11.273 69.7961 11.273 70.1057V84.541C11.273 84.8534 11.0216 85.0032 10.7113 84.8754Z" fill="#9AA8AC"/>
<path d="M13.5512 86.0255C13.2416 85.9005 12.9902 85.5476 12.9902 85.2374V70.8027C12.9902 70.4924 13.2416 70.3426 13.5512 70.4683C13.8615 70.5933 14.1128 70.9462 14.1128 71.2565V85.6911C14.1128 86.0014 13.8615 86.1533 13.5512 86.0255Z" fill="#9AA8AC"/>
<path d="M16.393 87.1728C16.0834 87.0478 15.832 86.6949 15.832 86.3846V71.9521C15.832 71.6419 16.0834 71.492 16.393 71.6177C16.7033 71.7427 16.9546 72.0956 16.9546 72.4059V86.8405C16.9546 87.1472 16.7033 87.2985 16.393 87.1728Z" fill="#9AA8AC"/>
<path d="M40.8173 77.0523L38.7453 76.2237C38.2007 76.0043 37.5084 76.0199 36.7572 76.3252C35.0048 77.0352 33.584 79.0277 33.584 80.7801C33.584 81.7656 34.0335 82.465 34.7385 82.7625L36.9014 83.6274L37.0093 83.4498L36.3908 82.7973C36.5108 82.7625 36.6329 82.7213 36.7572 82.6716C38.5096 81.9616 39.9304 79.9685 39.9304 78.2161C39.9321 77.9706 39.9006 77.726 39.8367 77.489L40.8173 77.0523Z" fill="#636F73"/>
<path d="M40.8726 81.9853C42.229 80.3276 42.429 78.2477 41.3194 77.3399C40.2098 76.432 38.2107 77.0399 36.8544 78.6976C35.498 80.3553 35.298 82.4352 36.4076 83.3431C37.5172 84.251 39.5163 83.6431 40.8726 81.9853Z" fill="#9AA8AC"/>
<path d="M40.1348 81.3821C40.9938 80.3323 41.1205 79.0152 40.4179 78.4403C39.7153 77.8655 38.4494 78.2505 37.5904 79.3003C36.7315 80.3501 36.6047 81.6672 37.3073 82.2421C38.01 82.817 39.2759 82.4319 40.1348 81.3821Z" fill="#D13732"/>
<path d="M56.3349 70.75L54.2629 69.9207C53.7183 69.7013 53.026 69.7176 52.2748 70.0222C50.5224 70.7323 49.1016 72.7254 49.1016 74.4778C49.1016 75.4633 49.551 76.1627 50.2561 76.4595L52.4189 77.3251L52.5269 77.1476L51.9084 76.4951C52.0327 76.4594 52.155 76.4172 52.2748 76.3687C54.0272 75.6586 55.448 73.6662 55.448 71.9138C55.4498 71.6683 55.4182 71.4237 55.3543 71.1867L56.3349 70.75Z" fill="#636F73"/>
<path d="M56.3902 75.6826C57.7466 74.0249 57.9466 71.945 56.837 71.0371C55.7274 70.1292 53.7283 70.7371 52.3719 72.3949C51.0156 74.0526 50.8155 76.1325 51.9252 77.0404C53.0348 77.9482 55.0338 77.3404 56.3902 75.6826Z" fill="#9AA8AC"/>
<path d="M44.9787 61.4629C44.2374 61.7626 43.6367 61.4047 43.6367 60.6634V53.4855C43.6367 52.7442 44.2374 51.9007 44.9787 51.601C45.72 51.3014 46.3207 51.6593 46.3207 52.4006V59.5785C46.3179 60.3197 45.72 61.1633 44.9787 61.4629Z" fill="#636F73"/>
<path d="M49.9494 59.4551C49.2081 59.7548 48.6074 59.3962 48.6074 58.6556V51.4777C48.6074 50.7364 49.2081 49.8921 49.9494 49.5932C50.6907 49.2936 51.2914 49.6515 51.2914 50.3928V57.5706C51.2886 58.3112 50.6907 59.1548 49.9494 59.4551Z" fill="#636F73"/>
<path d="M40.01 63.4706C39.2687 63.7703 38.668 63.4124 38.668 62.6711V55.4932C38.668 54.7519 39.2687 53.9084 40.01 53.6088C40.7513 53.3091 41.3519 53.6677 41.3519 54.4083V61.5855C41.3491 62.3275 40.7513 63.1717 40.01 63.4706Z" fill="#636F73"/>
<path d="M55.6524 75.0794C56.5114 74.0296 56.6381 72.7125 55.9355 72.1376C55.2329 71.5627 53.967 71.9477 53.108 72.9976C52.2491 74.0474 52.1223 75.3645 52.8249 75.9393C53.5275 76.5142 54.7934 76.1292 55.6524 75.0794Z" fill="#6395CC"/>
<path d="M48.6145 39.1568L41.3485 42.0936C40.123 42.5906 39.1289 41.9963 39.1289 40.7708V33.5013C39.1289 32.2757 40.123 30.8805 41.3485 30.3849L48.618 27.4481C49.8435 26.9511 50.8376 27.5454 50.8376 28.7709V36.0404C50.8341 37.266 49.84 38.6612 48.6145 39.1568Z" fill="white"/>
<path d="M47.6192 38.5624L42.3407 40.6926C41.1145 41.1896 40.1211 40.5953 40.1211 39.3698V34.0913C40.1211 32.865 41.1152 31.4697 42.3407 30.9748L47.6192 28.8447C48.8455 28.3476 49.8388 28.9412 49.8388 30.1675V35.446C49.8388 36.6723 48.8455 38.0675 47.6192 38.5624Z" fill="#D83832"/>
<path d="M45.0857 31.3213C45.1283 32.1258 46.6301 32.5405 46.7252 34.3454C46.8204 36.1504 44.7527 38.0419 44.764 38.262C44.764 38.262 43.3567 37.7039 43.2317 35.3388C43.1387 33.5828 45.0857 31.3213 45.0857 31.3213Z" fill="#F6CE47"/>
<path d="M44.98 34.77C44.98 34.77 46.6131 33.3712 46.1388 32.7584C45.6779 32.1563 45.112 31.8112 45.0865 31.3213C45.0865 31.3213 44.1911 32.3615 43.6436 33.5785C43.3369 34.4391 44.98 34.77 44.98 34.77Z" fill="white"/>
</svg>
