<svg width="151" height="71" viewBox="0 0 151 71" fill="none" xmlns="http://www.w3.org/2000/svg">
<path d="M71.4314 66.7162L9.15234 41.3614L78.1287 13.2793L140.408 38.6352L71.4314 66.7162Z" fill="#957049"/>
<path d="M71.4314 70.0017V66.7171L9.15234 41.3623V44.6469L71.4314 70.0017Z" fill="#DBA877"/>
<path d="M140.406 41.9192V38.6357L71.4297 66.7168V70.0013L140.406 41.9192Z" fill="#614730"/>
<path d="M71.431 62.176L0 33.0954L79.1125 0.886719L150.544 29.9674L71.431 62.176Z" fill="#9AA8AC"/>
<path d="M71.431 63.4321V62.1763L0 33.0957V34.3515L71.431 63.4321Z" fill="#E6EAE9"/>
<path d="M150.542 31.2236V29.9678L71.4297 62.1764V63.4322L150.542 31.2236Z" fill="#636F73"/>
<path d="M75.585 0.598813C75.4536 0.54188 75.319 0.487137 75.181 0.434583L75.1515 0.422501C74.0117 -0.00230513 72.6902 -0.208103 71.4541 0.295534C68.0699 1.67397 66.6367 6.84936 66.6367 6.84936L128.916 32.2042C128.916 32.2042 130.352 27.0287 133.733 25.6503C134.968 25.1478 136.291 25.3525 137.429 25.7773L75.585 0.598813Z" fill="#C87A3C"/>
<path d="M128.912 32.2056L129.949 31.7808C130.022 31.6057 130.105 31.4232 130.197 31.2334L128.915 32.2012L128.912 32.2056Z" fill="#975F31"/>
<path d="M137.43 25.7795C136.291 25.3547 134.968 25.1499 133.733 25.6525C130.349 27.0309 128.916 32.2063 128.916 32.2063L130.198 31.2385C130.958 29.6498 132.251 27.6407 134.175 26.859C134.864 26.5889 135.612 26.5007 136.346 26.6028C137.596 26.7539 138.777 27.3353 139.616 27.852L140.412 27.5236C139.517 26.7879 138.51 26.1992 137.43 25.7795V25.7795Z" fill="#975F31"/>
<path opacity="0.2" d="M75.585 0.599078L75.1831 0.435918C74.0368 -0.00202652 72.7022 -0.211147 71.454 0.296869C71.1376 0.42678 70.835 0.588161 70.5508 0.778597L76.0492 3.01649L131.956 25.7776C132.246 25.8865 132.53 26.01 132.808 26.1476C133.099 25.951 133.409 25.7845 133.734 25.6506C134.969 25.148 136.292 25.3528 137.43 25.7776L75.585 0.599078Z" fill="#975F31"/>
<g style="mix-blend-mode:overlay" opacity="0.2">
<path d="M67.662 4.30469C67.2424 5.12021 66.8979 5.97225 66.6328 6.85024V6.85024L128.912 32.2051C129.177 31.3271 129.521 30.475 129.941 29.6595L67.662 4.30469Z" fill="white"/>
</g>
<path d="M117.117 27.4016L116.607 27.1947C116.9 26.2232 117.289 25.2832 117.768 24.3886C118.822 22.4124 120.143 21.058 121.586 20.4701C122.798 19.9763 124.096 20.3332 125.671 20.9891C125.057 20.7301 124.399 20.5957 123.733 20.5936C123.067 20.5915 122.408 20.7218 121.793 20.977C118.574 22.2897 117.131 27.3535 117.117 27.4016Z" fill="#975F31"/>
<path d="M98.2396 19.7178L97.7305 19.5109C98.023 18.5393 98.4118 17.5992 98.891 16.7048C99.9454 14.7285 101.266 13.3742 102.709 12.7862C103.921 12.2925 105.219 12.6505 106.794 13.3052C106.18 13.0463 105.522 12.9119 104.856 12.9098C104.19 12.9077 103.531 13.0381 102.916 13.2932C99.6968 14.6037 98.2538 19.6675 98.2396 19.7178Z" fill="#975F31"/>
<path d="M79.3665 12.0318L78.8574 11.8249C79.1502 10.8533 79.539 9.91329 80.018 9.01873C81.0723 7.04798 82.3916 5.68816 83.8358 5.10022C85.0478 4.60753 86.3463 4.96443 87.9207 5.61915C87.3074 5.3602 86.6487 5.22583 85.9829 5.22376C85.3171 5.2217 84.6576 5.35199 84.0427 5.60713C80.8183 6.91768 79.3753 11.9814 79.3665 12.0318Z" fill="#975F31"/>
<path d="M64.0909 5.28532C63.958 5.22838 63.8234 5.17364 63.6869 5.12109L63.6562 5.10906C62.5176 4.68425 61.1961 4.4784 59.96 4.98204C56.5758 6.35937 55.1426 11.5359 55.1426 11.5359L117.422 36.8907C117.422 36.8907 118.857 31.7153 122.239 30.3369C123.475 29.8343 124.798 30.0391 125.936 30.4639L64.0909 5.28532Z" fill="#C87A3C"/>
<path d="M117.416 36.8858L118.45 36.4654C118.523 36.2902 118.605 36.1077 118.698 35.918L117.416 36.8858Z" fill="#975F31"/>
<path d="M125.933 30.4592C124.794 30.0344 123.471 29.8296 122.235 30.3322C118.851 31.7106 117.418 36.8849 117.418 36.886L118.7 35.9181C119.459 34.3295 120.753 32.3193 122.675 31.5387C123.366 31.2681 124.114 31.1799 124.848 31.2825C126.098 31.4336 127.279 32.0149 128.118 32.5317L128.914 32.2033C128.019 31.4677 127.013 30.879 125.933 30.4592V30.4592Z" fill="#975F31"/>
<path opacity="0.2" d="M64.0889 5.28557L63.687 5.12241C62.5407 4.68446 61.205 4.4754 59.9579 4.98341C59.6414 5.11309 59.3387 5.27449 59.0547 5.46514L64.5531 7.69426L120.46 30.4554C120.758 30.5649 121.044 30.6929 121.312 30.8254C121.603 30.6291 121.913 30.4625 122.237 30.3283C123.473 29.8258 124.796 30.0306 125.934 30.4554L64.0889 5.28557Z" fill="#975F31"/>
<g style="mix-blend-mode:overlay" opacity="0.2">
<path d="M56.1659 8.98633C55.7463 9.80185 55.4018 10.6539 55.1367 11.5319L117.416 36.8867C117.68 36.0085 118.025 35.1564 118.445 34.3412L56.1659 8.98633Z" fill="white"/>
</g>
<path d="M105.62 32.0843L105.111 31.8763C105.404 30.9047 105.793 29.9647 106.272 29.0702C107.326 27.0994 108.646 25.7407 110.09 25.1527C111.302 24.6589 112.6 25.0159 114.175 25.6706C113.561 25.4121 112.902 25.2779 112.237 25.2761C111.571 25.2742 110.912 25.4046 110.297 25.6596C107.078 26.9702 105.635 32.0339 105.62 32.0843Z" fill="#975F31"/>
<path d="M86.7435 24.3985L86.2344 24.1916C86.527 23.2199 86.9157 22.2799 87.3949 21.3854C88.4548 19.4092 89.7686 18.0548 91.2127 17.4669C92.4247 16.9731 93.7232 17.3312 95.2976 17.9859C94.6843 17.7269 94.0256 17.5925 93.3599 17.5904C92.6941 17.5884 92.0346 17.7187 91.4196 17.9739C88.2007 19.2844 86.7577 24.3481 86.7435 24.3985Z" fill="#975F31"/>
<path d="M67.8704 16.7125L67.3613 16.5055C67.6535 15.5337 68.0423 14.5937 68.5219 13.6994C69.5751 11.7286 70.8955 10.3688 72.3397 9.78088C73.5517 9.28819 74.8491 9.64509 76.4246 10.2998C75.8111 10.0408 75.1522 9.90644 74.4863 9.90437C73.8203 9.90231 73.1606 10.0326 72.5455 10.2878C69.3211 11.5983 67.8792 16.6621 67.8704 16.7125Z" fill="#975F31"/>
<path d="M52.5937 9.96014C52.4623 9.90321 52.3276 9.85065 52.1908 9.79591L52.1601 9.78383C51.0215 9.35902 49.6989 9.15323 48.4639 9.65686C45.0786 11.0342 43.6465 16.2096 43.6465 16.2096L105.924 41.5655C105.924 41.5655 107.361 36.3901 110.742 35.0116C111.978 34.5091 113.299 34.7138 114.439 35.1387L52.5937 9.96014Z" fill="#C87A3C"/>
<path d="M105.92 41.5666L106.955 41.1451C107.03 40.971 107.113 40.7882 107.203 40.5977L105.92 41.5656V41.5666Z" fill="#975F31"/>
<path d="M114.437 35.1398C113.297 34.715 111.975 34.5103 110.739 35.0128C107.355 36.3913 105.922 41.5656 105.922 41.5666L107.205 40.5988C107.964 39.0091 109.257 37 111.18 36.2194C111.871 35.949 112.619 35.8604 113.353 35.9621C114.603 36.1142 115.784 36.6945 116.623 37.2124L117.419 36.8839C116.524 36.1483 115.517 35.5596 114.437 35.1398V35.1398Z" fill="#975F31"/>
<path opacity="0.2" d="M52.5917 9.96041L52.191 9.79725C51.0446 9.3593 49.7089 9.15018 48.4619 9.6582C48.1452 9.78768 47.8425 9.94908 47.5586 10.1399L53.057 12.3778L108.964 35.1389C109.262 35.2484 109.548 35.3765 109.816 35.509C110.107 35.3124 110.416 35.1458 110.741 35.0119C111.977 34.5094 113.298 34.7141 114.438 35.1389L52.5917 9.96041Z" fill="#975F31"/>
<g style="mix-blend-mode:overlay" opacity="0.2">
<path d="M44.6698 13.666C44.2503 14.4812 43.9059 15.3329 43.6406 16.2105V16.2105L105.919 41.5664C106.184 40.6886 106.529 39.8366 106.948 39.0208L44.6698 13.666Z" fill="white"/>
</g>
<path d="M94.1243 36.765L93.6152 36.557C93.9075 35.5852 94.2962 34.6451 94.7758 33.7508C95.829 31.7801 97.1494 30.4213 98.5936 29.8334C99.8056 29.3396 101.103 29.6965 102.679 30.3513C102.065 30.0927 101.406 29.9586 100.741 29.9567C100.075 29.9548 99.4154 30.0852 98.8005 30.3403C95.5816 31.6508 94.1386 36.7146 94.1243 36.765Z" fill="#975F31"/>
<path d="M75.2474 29.0784L74.7383 28.8715C75.0301 27.8996 75.4189 26.9594 75.8988 26.0653C76.9521 24.0891 78.2725 22.7348 79.7166 22.1468C80.9286 21.653 82.226 22.01 83.8015 22.6658C83.188 22.4068 82.5291 22.2724 81.8632 22.2703C81.1973 22.2682 80.5376 22.3986 79.9225 22.6538C76.7036 23.9643 75.2616 29.028 75.2474 29.0784Z" fill="#975F31"/>
<path d="M56.3743 21.3926L55.8652 21.1857C56.1572 20.2138 56.546 19.2738 57.0258 18.3796C58.079 16.4033 59.3994 15.049 60.8436 14.4611C62.0545 13.9673 63.353 14.3253 64.9274 14.98C64.3141 14.721 63.6554 14.5867 62.9896 14.5846C62.3239 14.5825 61.6643 14.7128 61.0494 14.968C57.825 16.2785 56.382 21.3423 56.3743 21.3926Z" fill="#975F31"/>
<path d="M41.0967 14.6408C40.9654 14.5839 40.8307 14.5313 40.6938 14.4766L40.6632 14.4645C39.5245 14.0397 38.2019 13.8339 36.9658 14.3375C33.5816 15.7149 32.1484 20.8902 32.1484 20.8902L94.4231 46.2472C94.4231 46.2472 95.8596 41.0719 99.2405 39.6934C100.477 39.1909 101.798 39.3956 102.937 39.8204L41.0967 14.6408Z" fill="#C87A3C"/>
<path d="M94.4238 46.2473L95.4585 45.8258C95.5329 45.6517 95.6161 45.4677 95.707 45.2783L94.4238 46.2462V46.2473Z" fill="#975F31"/>
<path d="M102.939 39.8205C101.801 39.3957 100.479 39.1909 99.2432 39.6935C95.859 41.0719 94.4258 46.2462 94.4258 46.2473L95.709 45.2795C96.4677 43.6897 97.7607 41.6807 99.6844 40.9C100.374 40.6296 101.122 40.541 101.856 40.6427C103.107 40.7949 104.287 41.3752 105.126 41.893L105.922 41.5646C105.027 40.8286 104.02 40.2399 102.939 39.8205V39.8205Z" fill="#975F31"/>
<path opacity="0.2" d="M41.0956 14.6408L40.6949 14.4766C39.5485 14.0441 38.2128 13.8306 36.9647 14.3386C36.6484 14.4683 36.3462 14.6297 36.0625 14.8203L41.5609 17.0582L97.4667 39.8193C97.7571 39.9282 98.0417 40.0517 98.3196 40.1894C98.6104 39.9928 98.9204 39.8262 99.2448 39.6923C100.481 39.1898 101.802 39.3945 102.941 39.8193L41.0956 14.6408Z" fill="#975F31"/>
<g style="mix-blend-mode:overlay" opacity="0.2">
<path d="M33.1726 18.3467C32.7532 19.1618 32.4091 20.0135 32.1445 20.8912L94.4225 46.2471C94.6874 45.369 95.0319 44.5169 95.4516 43.7015L33.1726 18.3467Z" fill="white"/>
</g>
<path d="M82.6283 41.4456L82.1191 41.2376C82.4114 40.2659 82.8002 39.3258 83.2797 38.4315C84.333 36.4607 85.6534 35.1009 87.0975 34.5141C88.3084 34.0203 89.6069 34.3772 91.1824 35.0319C90.5688 34.7734 89.9099 34.6393 89.244 34.6374C88.5781 34.6355 87.9184 34.7659 87.3033 35.021C84.0844 36.3315 82.6425 41.3942 82.6283 41.4456Z" fill="#975F31"/>
<path d="M63.7504 33.7591L63.2402 33.5511C63.5337 32.5796 63.9228 31.6396 64.4019 30.745C65.4551 28.7742 66.7755 27.4155 68.2197 26.8275C69.4306 26.3337 70.7291 26.6907 72.3035 27.3454C71.69 27.0869 71.0313 26.9528 70.3656 26.9509C69.6999 26.949 69.0404 27.0794 68.4255 27.3345C65.2066 28.645 63.7636 33.7087 63.7504 33.7591Z" fill="#975F31"/>
<path d="M44.8724 26.0733L44.3633 25.8664C44.6565 24.8948 45.0457 23.9548 45.5249 23.0602C46.5782 21.084 47.8986 19.7297 49.3416 19.1417C50.5536 18.6479 51.8521 19.0059 53.4265 19.6607C52.8132 19.4017 52.1545 19.2673 51.4888 19.2653C50.823 19.2632 50.1635 19.3935 49.5485 19.6486C46.3297 20.9592 44.8866 26.0229 44.8724 26.0733Z" fill="#975F31"/>
<path d="M29.6007 19.3218C29.4693 19.2648 29.3346 19.2123 29.1966 19.1575L29.1671 19.1455C28.0273 18.7207 26.7058 18.5159 25.4697 19.0196C22.0855 20.3969 20.6523 25.5723 20.6523 25.5723L82.927 50.9282C82.927 50.9282 84.3635 45.7517 87.7444 44.3744C88.9805 43.8708 90.302 44.0766 91.4407 44.5014L29.6007 19.3218Z" fill="#C87A3C"/>
<path d="M82.9277 50.9283L83.9657 50.5035C84.0412 50.3294 84.1244 50.1455 84.2153 49.9561L82.9321 50.9239L82.9277 50.9283Z" fill="#975F31"/>
<path d="M91.4433 44.5007C90.3047 44.0759 88.9832 43.87 87.7471 44.3736C84.3629 45.751 82.9297 50.9264 82.9297 50.9275L84.2096 49.9552C84.9683 48.3655 86.2614 46.3564 88.185 45.5758C88.8747 45.3053 89.6223 45.2167 90.3561 45.3185C91.6065 45.4707 92.7878 46.0509 93.6265 46.5688L94.4225 46.2404C93.5277 45.5065 92.5221 44.9194 91.4433 44.5007V44.5007Z" fill="#975F31"/>
<path opacity="0.2" d="M29.5995 19.3215L29.1977 19.1572C28.0514 18.7248 26.7167 18.5112 25.4686 19.0193C25.1526 19.149 24.8504 19.31 24.5664 19.4999L30.0637 21.7389L85.9706 44.5C86.2608 44.6084 86.5451 44.7319 86.8224 44.87C87.1132 44.6728 87.4236 44.5063 87.7487 44.373C88.9848 43.8693 90.3063 44.0752 91.445 44.5L29.5995 19.3215Z" fill="#975F31"/>
<g style="mix-blend-mode:overlay" opacity="0.2">
<path d="M21.6776 23.0273C21.2581 23.8426 20.9137 24.6942 20.6484 25.5718V25.5718L82.9275 50.9277C83.1924 50.0497 83.5369 49.1976 83.9566 48.3822L21.6776 23.0273Z" fill="white"/>
</g>
<path d="M71.1302 46.1236L70.6211 45.9166C70.9146 44.9451 71.3037 44.0052 71.7827 43.1105C72.836 41.1398 74.1564 39.7799 75.6005 39.192C76.8114 38.6993 78.1099 39.0563 79.6844 39.711C79.071 39.4519 78.4123 39.3175 77.7465 39.3156C77.0807 39.3137 76.4211 39.4444 75.8064 39.7C72.5875 41.0106 71.1444 46.0743 71.1302 46.1236Z" fill="#975F31"/>
<path d="M52.2533 38.4398L51.7441 38.2317C52.0369 37.2602 52.4257 36.3202 52.9047 35.4256C53.959 33.4549 55.2795 32.0961 56.7225 31.5082C57.9345 31.0144 59.233 31.3714 60.8074 32.0261C60.1939 31.7676 59.5352 31.6334 58.8695 31.6316C58.2038 31.6297 57.5443 31.7601 56.9294 32.0151C53.7105 33.3257 52.2675 38.3894 52.2533 38.4398Z" fill="#975F31"/>
<path d="M33.3763 30.754L32.8672 30.547C33.1596 29.5753 33.5483 28.6353 34.0277 27.7409C35.0821 25.7647 36.4025 24.4103 37.8455 23.8224C39.0575 23.3286 40.356 23.6866 41.9305 24.3413C41.3171 24.0824 40.6584 23.948 39.9927 23.9459C39.3269 23.9439 38.6674 24.0742 38.0525 24.3293C34.8336 25.6398 33.3905 30.7036 33.3763 30.754Z" fill="#975F31"/>
<path d="M18.1046 24.0075C17.9732 23.9506 17.8385 23.898 17.7006 23.8433L17.6699 23.8312C16.5312 23.4064 15.2097 23.2017 13.9736 23.7042C10.5894 25.0827 9.15625 30.2581 9.15625 30.2581L71.4353 55.614C71.4353 55.614 72.8718 50.4375 76.2527 49.0601C77.4877 48.5565 78.8103 48.7623 79.9489 49.1871L18.1046 24.0075Z" fill="#C87A3C"/>
<path d="M71.4297 55.6086L72.4632 55.1871C72.5388 55.013 72.622 54.8291 72.7118 54.6396L71.4297 55.6075V55.6086Z" fill="#975F31"/>
<path d="M79.9472 49.1813C78.8086 48.7565 77.486 48.5507 76.251 49.0543C72.8668 50.4316 71.4336 55.607 71.4336 55.6081L72.7157 54.6403C73.4744 53.0506 74.7685 51.0415 76.6922 50.2608C77.3819 49.9904 78.1295 49.9017 78.8633 50.0035C80.1137 50.1557 81.295 50.736 82.1337 51.2539L82.9296 50.9254C82.0342 50.1897 81.0275 49.6011 79.9472 49.1813V49.1813Z" fill="#975F31"/>
<path opacity="0.2" d="M18.1045 24.0012L17.7027 23.8381C16.5564 23.4056 15.2206 23.1921 13.9736 23.6991C13.6575 23.8299 13.355 23.9912 13.0703 24.1808L18.5687 26.4198L74.4757 49.1809C74.7658 49.2895 75.0501 49.413 75.3275 49.5509C75.6181 49.3535 75.9285 49.1869 76.2537 49.0538C77.4887 48.5502 78.8113 48.756 79.95 49.1809L18.1045 24.0012Z" fill="#975F31"/>
<g style="mix-blend-mode:overlay" opacity="0.2">
<path d="M10.1815 27.707C9.76214 28.5227 9.41767 29.3747 9.15234 30.2526V30.2526L71.4314 55.6085C71.6963 54.7304 72.0408 53.8784 72.4606 53.0629L10.1815 27.707Z" fill="white"/>
</g>
<path d="M59.6341 50.8052L59.125 50.5983C59.4178 49.6267 59.8066 48.6867 60.2856 47.7922C61.3399 45.8214 62.6603 44.4616 64.1033 43.8737C65.3153 43.381 66.6139 43.7379 68.1883 44.3926C67.5749 44.1336 66.9162 43.9992 66.2505 43.9971C65.5847 43.9951 64.9252 44.1254 64.3103 44.3806C61.0914 45.6911 59.6483 50.7548 59.6341 50.8052Z" fill="#975F31"/>
<path d="M40.7572 43.1204L40.248 42.9124C40.5408 41.9408 40.9296 41.0008 41.4086 40.1063C42.463 38.1355 43.7823 36.7757 45.2264 36.1888C46.4384 35.6951 47.7369 36.052 49.3113 36.7068C48.6978 36.4482 48.0391 36.3141 47.3734 36.3122C46.7077 36.3104 46.0482 36.4407 45.4333 36.6958C42.2144 38.0064 40.7714 43.0701 40.7572 43.1204Z" fill="#975F31"/>
<path d="M21.8802 35.4339L21.3711 35.2259C21.6639 34.2543 22.0527 33.3143 22.5317 32.4197C23.586 30.4489 24.9053 29.0902 26.3494 28.5023C27.5614 28.0085 28.86 28.3654 30.4344 29.0212C29.821 28.7623 29.1623 28.6279 28.4966 28.6259C27.8308 28.6238 27.1713 28.7541 26.5564 29.0092C23.3375 30.3198 21.8944 35.3835 21.8802 35.4339Z" fill="#975F31"/>
</svg>
