<svg width="98" height="101" viewBox="0 0 98 101" fill="none" xmlns="http://www.w3.org/2000/svg">
<path d="M93.8507 4.74316V67.3735L11.6484 100.84V38.2099L93.8507 4.74316Z" fill="#682C42"/>
<path d="M0 33.4668L11.6492 38.2097V100.84L0 96.0971V33.4668Z" fill="#8E3E5E"/>
<path d="M93.8515 4.74294L82.2023 0L0 33.4668L11.6492 38.2097L93.8515 4.74294Z" fill="#C57294"/>
<path d="M93.8515 16.3091V14.0544L76.6282 21.0663V11.7605L64.9829 7.01367L62.8952 7.86306L74.5405 12.6099V21.9171L58.361 28.5037V19.1887L46.7157 14.4419L44.628 15.2913L56.2733 20.0381V29.3531L40.0938 35.941V26.6274L28.4485 21.8805L26.3608 22.73L38.0062 27.4768V36.7905L21.8267 43.3771V34.066L10.1813 29.3192L8.09366 30.1699L19.739 34.9168V44.2278L11.6492 47.5211L0 42.7782V45.0329L4.78077 46.9783V55.1633L0 53.2166V55.4713L11.6492 60.2142L19.739 56.9196V65.1046L11.6492 68.3979L0 63.6549V65.9096L4.78077 67.8551V76.0401L0 74.0933V76.348L11.6492 81.091L19.739 77.7964V85.9814L11.6492 89.2747L0 84.5317V86.7864L4.78077 88.7319V98.0442L6.86845 98.8936V89.5826L11.6492 91.5294L28.8726 84.5174V93.8284L30.9602 92.9777V83.6667L47.1397 77.08V86.3911L49.2274 85.5416V76.2293L65.4069 69.6427V78.9537L67.4946 78.1043V68.7933L83.6741 62.2053V71.5177L85.7618 70.6669V61.3559L93.8515 58.0626V55.8079L76.6282 62.8199V54.6362L93.8515 47.6242V45.3695L85.7618 48.6628V40.4791L93.8515 37.1858V34.9311L76.6282 41.9431V33.7594L93.8515 26.7474V24.4927L85.7618 27.7861V19.6024L93.8515 16.3091ZM49.2274 42.666V34.4809L65.4069 27.8943V36.0781L49.2274 42.666ZM49.2274 63.5428V55.3577L65.4069 48.7711V56.9548L49.2274 63.5428ZM47.1397 56.2085V64.3922L30.9602 70.9801V62.7951L47.1397 56.2085ZM56.2733 62.9282V71.1119L40.0938 77.6998V69.5148L56.2733 62.9282ZM40.0938 56.823V48.638L56.2733 42.0514V50.2351L40.0938 56.823ZM30.9602 50.1033V41.9183L47.1397 35.3317V43.5154L30.9602 50.1033ZM6.86845 56.018V47.8343L11.6492 49.781L28.8726 42.769V50.9528L11.6492 57.9647L6.86845 56.018ZM21.8267 56.0754L38.0062 49.4887V57.6725L21.8267 64.2591V56.0754ZM6.86845 76.8947V68.711L11.6492 70.6578L28.8726 63.6458V71.8295L11.6492 78.8415L6.86845 76.8947ZM21.8267 76.9521L38.0062 70.3655V78.5492L21.8267 85.1359V76.9521ZM74.5405 63.6758L58.361 70.2625V62.0787L74.5405 55.4908V63.6758ZM83.6741 49.5187L67.4946 56.1054V47.9217L83.6741 41.3338V49.5187ZM74.5405 42.799L58.361 49.3857V41.202L74.5405 34.614V42.799ZM83.6741 28.642L67.4946 35.2286V27.0449L83.6741 20.457V28.642Z" fill="#84667E"/>
<path d="M77.3255 11.4707C70.5666 14.2225 61.0076 24.9584 59.8907 43.9315C58.7738 62.9046 43.1502 66.9298 38.0484 69.6203C32.9467 72.3108 25.9425 75.7986 25.9425 95.0209L93.8507 67.3735V4.74316L11.6484 38.2099" fill="#657285"/>
<path d="M29.9145 96.6375L25.9414 95.0209L32.1536 75.9891L56.2714 60.6681L62.7315 42.6606L67.9637 22.4962L84.8361 9.97019L93.8496 4.74316L97.8227 6.35981V68.9914L29.9145 96.6375Z" fill="#657285"/>
<path d="M97.8242 6.36133V68.9916L29.916 96.6377C29.916 77.4167 36.9202 73.9342 42.0219 71.2385C47.1237 68.5428 62.7487 64.5227 63.8643 45.5496C64.9799 26.5765 74.5401 15.8407 81.299 13.0888L97.8242 6.36133Z" fill="#9AA5B6"/>
</svg>
