<svg width="96" height="100" viewBox="0 0 96 100" fill="none" xmlns="http://www.w3.org/2000/svg">
<path d="M38.0076 86.543V95.3145L26.4961 100V91.2298L38.0076 86.543Z" fill="#424D54"/>
<path d="M23.6911 90.0244L26.4951 91.2297V100L20.8066 97.5555L23.6911 90.0244Z" fill="#171F23"/>
<path d="M90.4939 65.0771V73.8474L78.9824 78.5342V69.7639L90.4939 65.0771Z" fill="#424D54"/>
<path d="M76.1774 68.5586L78.9815 69.7639V78.5342L73.293 76.0896L76.1774 68.5586Z" fill="#171F23"/>
<path d="M95.7128 6.73047V67.0593L16.5312 99.2962V38.9674L95.7128 6.73047Z" fill="#E6EAE9"/>
<path d="M5.31055 34.3984L16.5304 38.9671V99.2959L5.31055 94.7272V34.3984Z" fill="#84435E"/>
<path d="M95.712 6.73076L84.4908 2.16211L5.31055 34.399L16.5304 38.9677L95.712 6.73076Z" fill="#B97693"/>
<path d="M0 92.5661L16.5313 99.2965V38.9677L0 32.2373V92.5661Z" fill="#636F73"/>
<path d="M95.7129 6.73043L16.5313 38.9674L0 32.2369L79.1815 0L95.7129 6.73043Z" fill="#9AA8AC"/>
<path d="M58.0111 69.173C66.848 58.3725 68.1506 44.8215 60.9206 38.9059C53.6906 32.9903 40.6657 36.9502 31.8288 47.7507C22.9919 58.5511 21.6892 72.1022 28.9193 78.0178C36.1493 83.9334 49.1741 79.9734 58.0111 69.173Z" fill="#171F23"/>
<path d="M44.9115 38.7295C55.8083 34.3305 64.644 39.5916 64.644 50.4885C64.644 61.3854 55.8096 73.7893 44.9115 78.192C34.0133 82.5948 25.1789 77.3298 25.1789 66.4329C25.1789 55.5361 34.0133 43.1322 44.9115 38.7295ZM44.9115 36.8442C41.9943 38.0231 39.1627 39.7349 36.4969 41.9432C33.8943 44.1031 31.5848 46.5934 29.6269 49.3511C27.6933 52.0413 26.1348 54.982 24.9942 58.0925C23.863 61.2145 23.2949 64.2762 23.2949 67.1946C23.2949 70.113 23.8668 72.7109 24.9942 74.9217C26.0287 76.9969 27.6364 78.732 29.6269 79.9215C31.6115 81.1042 33.9228 81.7288 36.4969 81.7766C39.1627 81.8281 41.9943 81.255 44.9115 80.0773C47.8286 78.8996 50.6603 77.1865 53.3261 74.977C55.9289 72.8179 58.2384 70.328 60.196 67.5704C62.1299 64.8799 63.6885 61.9387 64.8288 58.8277C65.9599 55.707 66.528 52.6441 66.528 49.7269C66.528 46.8098 65.9562 44.2093 64.8288 41.9985C63.7942 39.9237 62.1864 38.189 60.196 37C58.2114 35.8173 55.9001 35.1927 53.3261 35.1437C50.6603 35.0934 47.8286 35.6653 44.9115 36.8442V36.8442Z" fill="white"/>
<path d="M37.528 79.9229C34.822 79.9229 32.3548 79.2392 30.335 77.8755C26.89 75.5529 24.9922 71.4882 24.9922 66.4382C24.9922 55.4873 33.8969 42.9816 44.8416 38.56C50.3717 36.3241 55.7133 36.5038 59.4889 39.0502C62.9339 41.3741 64.8318 45.4387 64.8318 50.4938C64.8318 61.4435 55.927 73.9491 44.9824 78.372C42.4096 79.4064 39.8783 79.9229 37.528 79.9229ZM52.296 37.3748C49.9934 37.3748 47.5099 37.8775 44.9824 38.9044C34.1735 43.2744 25.3755 55.6205 25.3755 66.4294C25.3755 71.355 27.2143 75.3078 30.5512 77.5601C34.2225 80.036 39.4334 80.1994 44.8479 78.0138C55.6568 73.6437 64.461 61.2977 64.461 50.4887C64.461 45.5619 62.6222 41.6091 59.2853 39.3581C57.3221 38.0384 54.9265 37.3748 52.296 37.3748Z" fill="white"/>
<path d="M47.417 60.5063C49.1036 58.4449 49.3521 55.8585 47.9719 54.7292C46.5918 53.6 44.1057 54.3557 42.4191 56.417C40.7325 58.4783 40.4841 61.0648 41.8642 62.1941C43.2443 63.3233 45.7304 62.5676 47.417 60.5063Z" fill="white"/>
<path d="M43.4357 62.904C42.8959 62.9146 42.3653 62.7632 41.9124 62.4691C41.1809 61.9752 40.7812 61.118 40.7812 60.0547C40.7812 57.8087 42.605 55.2448 44.8459 54.3398C45.9997 53.8735 47.1183 53.915 47.9164 54.4529C48.6479 54.9469 49.0476 55.8041 49.0476 56.8661C49.0476 59.1121 47.2239 61.6761 44.9829 62.5823C44.4925 62.7873 43.9673 62.8965 43.4357 62.904ZM46.3893 54.3939C45.9059 54.4014 45.4285 54.5017 44.9829 54.6892C42.8727 55.5426 41.1546 57.9495 41.1546 60.0547C41.1546 60.9886 41.4989 61.7351 42.1236 62.1562C42.8161 62.6225 43.8065 62.6501 44.8421 62.2316C46.9524 61.3795 48.6705 58.9726 48.6705 56.8661C48.6705 55.9323 48.3261 55.1869 47.7015 54.7659C47.3114 54.5128 46.8542 54.3832 46.3893 54.3939Z" fill="white"/>
<path d="M42.6972 65.0323C41.9065 65.0482 41.1293 64.8262 40.4663 64.3951C39.3954 63.6724 38.8047 62.4143 38.8047 60.8533C38.8047 57.5189 41.5132 53.7119 44.8376 52.3671C46.5381 51.6796 48.1845 51.7386 49.3547 52.5279C50.4255 53.2494 51.0163 54.5075 51.0163 56.0697C51.0163 59.4042 48.3077 63.2099 44.9834 64.5547C44.259 64.8591 43.4828 65.0213 42.6972 65.0323ZM47.1288 52.2678C46.3916 52.2792 45.6634 52.4315 44.9834 52.7165C41.7847 54.0098 39.1817 57.6597 39.1817 60.8533C39.1817 62.2861 39.7134 63.4324 40.6774 64.0821C41.7407 64.8011 43.259 64.8451 44.8426 64.2078C48.0413 62.9158 50.6442 59.2659 50.6442 56.0722C50.6442 54.6394 50.1126 53.4919 49.1498 52.8421C48.5488 52.4528 47.8448 52.2527 47.1288 52.2678V52.2678Z" fill="white"/>
<path d="M41.9587 67.1585C40.854 67.1585 39.8447 66.8783 39.0177 66.3202C37.6075 65.3701 36.832 63.711 36.832 61.6498C36.832 57.2282 40.4254 52.1782 44.8419 50.3934C47.0904 49.4847 49.2648 49.5614 50.8069 50.6008C52.2171 51.5522 52.9939 53.2113 52.9939 55.2725C52.9939 59.6941 49.4005 64.7441 44.9827 66.5276C44.0245 66.93 42.9979 67.1442 41.9587 67.1585V67.1585ZM47.8659 50.1396C46.8752 50.155 45.8965 50.3597 44.9827 50.7428C40.6956 52.4748 37.2091 57.3677 37.2091 61.6498C37.2091 63.5815 37.9255 65.1287 39.2289 66.0085C40.6655 66.9776 42.7116 67.0391 44.8419 66.1782C49.129 64.4463 52.6169 59.5533 52.6169 55.2725C52.6169 53.3407 51.8992 51.7923 50.5958 50.9138C49.784 50.388 48.8329 50.1183 47.8659 50.1396V50.1396Z" fill="white"/>
<path d="M41.2204 69.2862C39.8492 69.2862 38.5974 68.9381 37.5756 68.2468C35.826 67.0666 34.8633 65.0067 34.8633 62.4465C34.8633 56.9364 39.3415 50.6446 44.8465 48.42C47.6417 47.2889 50.3439 47.3831 52.2619 48.6714C54.0114 49.8516 54.9742 51.9103 54.9742 54.4705C54.9742 59.9805 50.496 66.2736 44.991 68.4969C43.7963 68.9992 42.5163 69.2672 41.2204 69.2862ZM48.6057 48.0115C47.3612 48.0295 46.1317 48.2855 44.9834 48.7657C39.6091 50.9375 35.2366 57.0734 35.2366 62.4427C35.2366 64.8734 36.1402 66.8228 37.7829 67.9301C39.5915 69.1505 42.1643 69.2297 44.8427 68.1475C50.2169 65.9757 54.5896 59.841 54.5896 54.4705C54.5896 52.0398 53.6859 50.0916 52.0432 48.9843C51.0804 48.3383 49.9015 48.0115 48.6057 48.0115Z" fill="white"/>
<path d="M40.4812 71.4142C38.8473 71.4142 37.3479 70.9982 36.1224 70.1724C34.0348 68.7635 32.8848 66.3038 32.8848 63.2434C32.8848 56.6462 38.2477 49.1114 44.8412 46.4468C48.1844 45.097 51.4133 45.2063 53.7007 46.7497C55.7884 48.1574 56.9383 50.6183 56.9383 53.6775C56.9383 60.276 51.5754 67.8108 44.9819 70.474C43.4297 71.1012 41.9014 71.4142 40.4812 71.4142ZM49.3419 45.885C47.8436 45.9076 46.3636 46.2174 44.9819 46.7975C38.5192 49.408 33.2618 56.7857 33.2618 63.2434C33.2618 66.1744 34.3528 68.5222 36.3336 69.8594C38.5154 71.3312 41.6123 71.428 44.8412 70.1247C51.3039 67.5129 56.5613 60.1352 56.5613 53.6775C56.5613 50.7478 55.4703 48.3988 53.4896 47.0615C52.3282 46.2784 50.9055 45.885 49.3419 45.885Z" fill="white"/>
<path d="M39.7368 73.5353C37.8315 73.5353 36.092 73.0539 34.6705 72.0925C32.2435 70.4585 30.9062 67.5942 30.9062 64.036C30.9062 56.3491 37.1553 47.5713 44.8359 44.4694C48.7321 42.8971 52.4825 43.024 55.142 44.8176C57.569 46.4515 58.9126 49.3171 58.9126 52.8752C58.9126 60.5609 52.6636 69.34 44.983 72.4419C43.1744 73.1771 41.3946 73.5353 39.7368 73.5353ZM50.0757 43.748C48.4707 43.748 46.74 44.1024 44.9766 44.815C37.4268 47.8654 31.2833 56.4861 31.2833 64.0323C31.2833 67.4609 32.5615 70.2109 34.8817 71.777C37.4356 73.4989 41.0628 73.6132 44.8359 72.0887C52.387 69.0383 58.5355 60.4176 58.5355 52.8715C58.5355 49.4428 57.2573 46.6915 54.9372 45.1267C53.576 44.218 51.9094 43.7568 50.0807 43.7568L50.0757 43.748Z" fill="white"/>
<path d="M39.0055 75.6724C36.8337 75.6724 34.8517 75.1219 33.2304 74.0285C30.4653 72.162 28.9395 68.8993 28.9395 64.8422C28.9395 56.0681 36.0733 46.0485 44.8423 42.5054C49.2803 40.7119 53.5649 40.8564 56.5952 42.9013C59.3602 44.7677 60.886 48.0293 60.886 52.0876C60.886 60.8605 53.7522 70.8813 44.9831 74.4244C42.9206 75.2539 40.8908 75.6724 39.0055 75.6724ZM50.8199 41.6331C48.9824 41.6331 47.0016 42.0391 44.9831 42.8548C36.3448 46.3451 29.3165 56.2089 29.3165 64.8422C29.3165 68.7698 30.7807 71.922 33.4402 73.7155C36.3662 75.6888 40.5226 75.8195 44.8423 74.075C53.4807 70.5847 60.509 60.7209 60.509 52.0876C60.509 48.1587 59.0448 45.0078 56.3853 43.2143C54.8205 42.1585 52.9164 41.6294 50.8199 41.6294V41.6331Z" fill="white"/>
<path d="M38.2652 77.7963C35.8269 77.7963 33.6023 77.1792 31.7811 75.95C28.6755 73.8549 26.9648 70.1924 26.9648 65.635C26.9648 55.7738 34.9835 44.5099 44.841 40.5282C49.8257 38.5173 54.6444 38.6756 58.0379 40.9719C61.1436 43.0658 62.8542 46.7295 62.8542 51.2856C62.8542 61.1481 54.8355 72.4107 44.9781 76.3937C42.6642 77.33 40.3843 77.7963 38.2652 77.7963ZM51.5576 39.5026C49.4876 39.5026 47.2554 39.9589 44.9818 40.8776C35.255 44.8078 27.3419 55.9133 27.3419 65.6376C27.3419 70.0654 28.9934 73.6173 31.9922 75.6396C35.2902 77.8642 39.9732 78.0125 44.841 76.0468C54.5678 72.1141 62.486 61.0073 62.486 51.2894C62.486 46.8628 60.8345 43.3109 57.8356 41.2874C56.076 40.1034 53.9205 39.5026 51.5576 39.5026V39.5026Z" fill="white"/>
<path d="M44.7527 58.5607C44.7125 58.4979 40.7773 52.0854 40.7773 40.7197H41.1544C41.1544 51.9685 45.033 58.298 45.072 58.3609L44.7527 58.5607Z" fill="white"/>
<path d="M44.7822 58.5976C44.7294 58.5474 39.4582 53.4722 37.4824 43.0655L37.8532 42.9951C39.8063 53.2824 44.9896 58.2746 45.0411 58.3287L44.7822 58.5976Z" fill="white"/>
<path d="M44.8222 58.6266C44.7581 58.5914 38.3129 55.0119 34.418 45.8846L34.7649 45.7363C38.6046 54.7354 44.9391 58.2608 45.0032 58.2948L44.8222 58.6266Z" fill="white"/>
<path d="M44.8652 58.6435C44.791 58.6247 37.3718 56.6527 31.6758 49.0915L31.9762 48.8652C37.5893 56.3184 44.8853 58.2627 44.9582 58.2803L44.8652 58.6435Z" fill="white"/>
<path d="M44.9073 58.65C44.8256 58.65 36.6636 58.3433 29.3438 52.5769L29.5776 52.2803C36.7957 57.9663 44.8382 58.2704 44.9174 58.273L44.9073 58.65Z" fill="white"/>
<path d="M40.9152 58.8983C37.5619 58.8983 32.5358 58.4332 27.4883 56.2375L27.6391 55.8906C36.2498 59.6373 44.7964 58.2887 44.8818 58.2786L44.9422 58.6557C43.6074 58.8334 42.2616 58.9145 40.9152 58.8983V58.8983Z" fill="white"/>
<path d="M32.4735 60.4848C30.3593 60.4905 28.2485 60.3156 26.1641 59.9619L26.2281 59.5849C35.9737 61.2741 44.7655 58.3104 44.8534 58.2803L44.9791 58.6372C44.905 58.6636 39.5068 60.4848 32.4735 60.4848Z" fill="white"/>
<path d="M25.4005 63.6305L25.3867 63.2535C35.9707 62.8299 44.7422 58.3392 44.8264 58.2939L44.9998 58.6283C44.9119 58.6735 36.0737 63.2032 25.4005 63.6305Z" fill="white"/>
<path d="M25.2255 67.1435L25.1426 66.7765C36.2443 64.2478 44.7193 58.3657 44.8035 58.3066L45.0196 58.6158C44.9354 58.6749 36.4027 64.5984 25.2255 67.1435Z" fill="white"/>
<path d="M25.6479 70.3933L25.5059 70.0439C36.7886 65.4866 44.7081 58.3917 44.786 58.3213L45.0374 58.6003C44.9607 58.6719 36.991 65.8109 25.6479 70.3933Z" fill="white"/>
<path d="M26.6508 73.2846L26.4609 72.9591C37.5727 66.5102 44.7004 58.4186 44.7707 58.3369L45.0548 58.5883C44.9831 58.6662 37.8179 66.8043 26.6508 73.2846Z" fill="white"/>
<path d="M28.2065 75.7279L27.9766 75.4288C38.5806 67.2857 44.6927 58.4425 44.7555 58.3545L45.0672 58.5682C45.0056 58.6561 38.8571 67.5458 28.2065 75.7279Z" fill="white"/>
<path d="M30.273 77.6493L30.0078 77.3804C39.7811 67.7894 44.6966 58.4661 44.7456 58.373L45.0799 58.5477C45.0309 58.642 40.0902 68.0143 30.273 77.6493Z" fill="white"/>
<path d="M32.7843 78.9902L32.4902 78.754C36.0667 74.3099 39.2144 69.5373 41.8914 64.5C43.8383 60.8112 44.7269 58.4194 44.7357 58.3955L45.0902 58.5212C45.0814 58.5451 44.1852 60.9544 42.2295 64.6621C39.5403 69.7255 36.3778 74.5229 32.7843 78.9902V78.9902Z" fill="white"/>
<path d="M35.6649 79.709L35.3457 79.5092C38.3142 74.7901 40.807 69.788 42.7875 64.5765C44.1989 60.806 44.7218 58.4444 44.7268 58.418L45.0964 58.4984C45.0901 58.5223 44.5634 60.9078 43.1432 64.6972C41.1535 69.9363 38.6485 74.965 35.6649 79.709Z" fill="white"/>
<path d="M38.8321 79.7852L38.4902 79.6256C41.4388 73.3275 42.9772 67.9017 43.7476 64.4592C44.5822 60.7339 44.7217 58.4728 44.7229 58.4502L45.1 58.4728C45.1 58.4954 44.9567 60.7867 44.1159 64.5409C43.3404 68.006 41.7945 73.4557 38.8321 79.7852Z" fill="white"/>
<path d="M42.1876 79.2114L41.8281 79.097C45.6841 66.9421 44.7353 58.5664 44.7252 58.4847L45.1023 58.4395C45.1098 58.5224 46.0688 66.9785 42.1876 79.2114Z" fill="white"/>
<path d="M45.6283 78.0049L45.2512 77.9433C46.2743 71.7294 46.0757 66.7737 45.7301 63.712C45.353 60.4002 44.7359 58.54 44.7246 58.5212L45.0815 58.3955C45.0878 58.4144 45.7213 60.3135 46.0996 63.6642C46.4591 66.7548 46.6576 71.747 45.6283 78.0049Z" fill="white"/>
<path d="M49.0466 76.2026H48.6695C48.6695 64.9525 44.7909 58.623 44.752 58.5602L45.0712 58.3604C45.1114 58.4245 49.0466 64.8356 49.0466 76.2026Z" fill="white"/>
<path d="M51.9711 73.9269C50.018 63.6383 44.8347 58.6474 44.7832 58.5934L45.0421 58.3193C45.0949 58.3696 50.3661 63.4448 52.3419 73.8515L51.9711 73.9269Z" fill="white"/>
<path d="M55.0606 71.1852C51.2209 62.1849 44.8864 58.6607 44.8223 58.6267L45.0032 58.2949C45.0673 58.3301 51.5124 61.9096 55.4074 71.0369L55.0606 71.1852Z" fill="white"/>
<path d="M57.8472 68.0594C52.2342 60.6063 44.9381 58.6619 44.8652 58.6431L44.9583 58.2773C45.0324 58.2975 52.4529 60.2682 58.1476 67.8294L57.8472 68.0594Z" fill="white"/>
<path d="M60.2474 64.6409C53.0293 58.9549 44.9867 58.652 44.9062 58.6495L44.9175 58.2725C44.9992 58.2725 53.1612 58.5791 60.4811 64.3455L60.2474 64.6409Z" fill="white"/>
<path d="M62.1871 61.03C53.5714 57.2821 45.0286 58.6332 44.9431 58.642L44.8828 58.2649C44.9683 58.2499 53.6204 56.8824 62.3366 60.6743L62.1871 61.03Z" fill="white"/>
<path d="M44.9733 58.6394L44.8477 58.2825C44.9369 58.2523 53.8165 55.256 63.6601 56.9628L63.5961 57.3398C53.8517 55.6443 45.0613 58.6093 44.9733 58.6394Z" fill="white"/>
<path d="M44.9996 58.6286L44.8262 58.2943C44.9142 58.2478 53.7498 53.7193 64.4255 53.292L64.4406 53.669C53.8554 54.0926 45.0876 58.5796 44.9996 58.6286Z" fill="white"/>
<path d="M45.017 58.6155L44.8008 58.3063C44.885 58.2473 53.4178 52.3225 64.5949 49.7773L64.6779 50.1456C53.5774 52.6719 45.105 58.5564 45.017 58.6155Z" fill="white"/>
<path d="M45.0385 58.6006L44.7871 58.3216C44.8663 58.25 52.831 51.1111 64.1791 46.5273L64.3211 46.8767C53.0396 51.4341 45.1164 58.529 45.0385 58.6006Z" fill="white"/>
<path d="M45.0535 58.5796L44.7695 58.3282C44.8412 58.2465 52.0065 50.1096 63.1736 43.623L63.3634 43.9486C52.249 50.41 45.1239 58.5041 45.0535 58.5796Z" fill="white"/>
<path d="M45.0676 58.5678L44.7559 58.3541C44.8174 58.2649 50.9634 49.3764 61.6165 41.1943L61.8465 41.4935C51.2425 49.6366 45.1279 58.4785 45.0676 58.5678Z" fill="white"/>
<path d="M45.0785 58.5474L44.7441 58.3727C44.7932 58.2797 49.7338 48.9073 59.5511 39.2686L59.8163 39.5375C50.043 49.1348 45.1275 58.4531 45.0785 58.5474Z" fill="white"/>
<path d="M45.0888 58.5267L44.7344 58.401C44.7432 58.3771 45.6393 55.9677 47.595 52.2588C50.2846 47.1956 53.4471 42.3982 57.0402 37.9307L57.3343 38.167C53.7578 42.611 50.6101 47.3836 47.9331 52.4209C45.9862 56.111 45.0976 58.5028 45.0888 58.5267Z" fill="white"/>
<path d="M45.098 58.5017L44.7285 58.4213C44.7348 58.3974 45.2614 56.0106 46.6817 52.2225C48.6712 46.9836 51.1762 41.9554 54.1599 37.2119L54.4791 37.4118C51.5105 42.1313 49.0177 47.1337 47.0373 52.3456C45.6259 56.1112 45.103 58.4778 45.098 58.5017Z" fill="white"/>
<path d="M45.1017 58.4727L44.7246 58.4501C44.7246 58.4275 44.8679 56.1362 45.7087 52.3808C46.4842 48.9207 48.0301 43.4659 50.9875 37.1377L51.3294 37.2973C48.3833 43.5904 46.8449 49.0124 46.0745 52.4524C45.2437 56.1815 45.1029 58.4539 45.1017 58.4727Z" fill="white"/>
<path d="M44.7252 58.4842C44.7152 58.3999 43.7562 49.9439 47.6373 37.7109L47.9968 37.8253C44.1408 49.9803 45.0897 58.356 45.0998 58.4377L44.7252 58.4842Z" fill="white"/>
<path d="M44.7331 58.5216C44.7268 58.5028 44.0933 56.6037 43.715 53.2529C43.3669 50.1661 43.167 45.1739 44.1964 38.916L44.5735 38.9776C43.5516 45.1852 43.7477 50.1359 44.0921 53.1951C44.4691 56.5106 45.0875 58.3821 45.0976 58.401L44.7331 58.5216Z" fill="white"/>
<g opacity="0.3">
<path d="M72.627 21.6907V65.5661V72.8709L80.8204 69.5352L92.6448 64.7215V13.54L72.627 21.6907Z" fill="#9AA8AC"/>
</g>
<path d="M72.6274 21.6911L70.9219 20.9961V72.1775L72.6274 72.8713V21.6911Z" fill="#636F73"/>
<path d="M90.9397 12.8467L92.6453 13.5405L72.6274 21.6911L70.9219 20.9961L90.9397 12.8467Z" fill="#9AA8AC"/>
<path d="M89.2333 31.8597L76.6435 36.9474C76.1558 37.1435 75.7637 36.9084 75.7637 36.4208C75.7637 35.9331 76.1583 35.3789 76.6435 35.1815L89.2333 30.0951C89.721 29.8977 90.1131 30.134 90.1131 30.6204C90.1156 31.1081 89.721 31.6636 89.2333 31.8597Z" fill="#171F23"/>
<path d="M89.2333 28.0892L76.6435 33.1769C76.1558 33.373 75.7637 33.1379 75.7637 32.6503C75.7637 32.1626 76.1583 31.6084 76.6435 31.411L89.2333 26.3246C89.721 26.1272 90.1131 26.3635 90.1131 26.8499C90.1156 27.3376 89.721 27.8931 89.2333 28.0892Z" fill="#171F23"/>
<path d="M89.2333 24.3187L76.6435 29.4064C76.1558 29.6024 75.7637 29.3674 75.7637 28.8798C75.7637 28.3921 76.1583 27.8379 76.6435 27.6405L89.2333 22.5541C89.721 22.3567 90.1131 22.593 90.1131 23.0794C90.1156 23.5671 89.721 24.1226 89.2333 24.3187Z" fill="#171F23"/>
<path d="M89.2333 20.5481L76.6435 25.6359C76.1558 25.8319 75.7637 25.5969 75.7637 25.1093C75.7637 24.6216 76.1583 24.0673 76.6435 23.87L89.2333 18.7836C89.721 18.5862 90.1131 18.8225 90.1131 19.3089C90.1156 19.7966 89.721 20.3521 89.2333 20.5481Z" fill="#171F23"/>
<path d="M89.2333 46.9417L76.6435 52.0294C76.1558 52.2255 75.7637 51.9905 75.7637 51.5028C75.7637 51.0152 76.1583 50.4609 76.6435 50.2636L89.2333 45.1771C89.721 44.9798 90.1131 45.2161 90.1131 45.7025C90.1156 46.1901 89.721 46.7456 89.2333 46.9417Z" fill="#171F23"/>
<path d="M89.2333 43.1712L76.6435 48.2589C76.1558 48.455 75.7637 48.22 75.7637 47.7323C75.7637 47.2446 76.1583 46.6904 76.6435 46.4931L89.2333 41.4066C89.721 41.2093 90.1131 41.4456 90.1131 41.932C90.1156 42.4196 89.721 42.9751 89.2333 43.1712Z" fill="#171F23"/>
<path d="M89.2333 39.4007L76.6435 44.4884C76.1558 44.6845 75.7637 44.4495 75.7637 43.9618C75.7637 43.4741 76.1583 42.9199 76.6435 42.7226L89.2333 37.6361C89.721 37.4388 90.1131 37.675 90.1131 38.1614C90.1156 38.6491 89.721 39.2046 89.2333 39.4007Z" fill="#171F23"/>
<path d="M89.2333 35.6302L76.6435 40.7179C76.1558 40.914 75.7637 40.6789 75.7637 40.1913C75.7637 39.7036 76.1583 39.1494 76.6435 38.952L89.2333 33.8656C89.721 33.6683 90.1131 33.9045 90.1131 34.3909C90.1156 34.8786 89.721 35.4341 89.2333 35.6302Z" fill="#171F23"/>
<path d="M89.2333 62.0247L76.6435 67.1124C76.1558 67.3085 75.7637 67.0735 75.7637 66.5858C75.7637 66.0982 76.1583 65.5439 76.6435 65.3466L89.2333 60.2601C89.721 60.0628 90.1131 60.2991 90.1131 60.7855C90.1156 61.2731 89.721 61.8286 89.2333 62.0247Z" fill="#171F23"/>
<path d="M89.2333 58.2542L76.6435 63.3419C76.1558 63.538 75.7637 63.303 75.7637 62.8153C75.7637 62.3277 76.1583 61.7734 76.6435 61.5761L89.2333 56.4896C89.721 56.2923 90.1131 56.5286 90.1131 57.015C90.1156 57.5026 89.721 58.0581 89.2333 58.2542Z" fill="#171F23"/>
<path d="M89.2333 54.4827L76.6435 59.5704C76.1558 59.7665 75.7637 59.5315 75.7637 59.0438C75.7637 58.5562 76.1583 58.0019 76.6435 57.8046L89.2333 52.7181C89.721 52.5208 90.1131 52.7571 90.1131 53.2435C90.1156 53.7311 89.721 54.2866 89.2333 54.4827Z" fill="#171F23"/>
<path d="M89.2333 50.7122L76.6435 55.7999C76.1558 55.996 75.7637 55.761 75.7637 55.2733C75.7637 54.7857 76.1583 54.2314 76.6435 54.0341L89.2333 48.9476C89.721 48.7503 90.1131 48.9866 90.1131 49.473C90.1156 49.9606 89.721 50.5161 89.2333 50.7122Z" fill="#171F23"/>
</svg>
