<svg width="151" height="70" viewBox="0 0 151 70" fill="none" xmlns="http://www.w3.org/2000/svg">
<path d="M71.43 68.7445L0 39.6643L79.1114 7.45605L150.541 36.5363L71.43 68.7445Z" fill="#9AA8AC"/>
<path d="M71.43 70.0001V68.7443L0 39.6641V40.9199L71.43 70.0001Z" fill="#E6EAE9"/>
<path d="M150.541 37.7919V36.5361L71.4297 68.7443V70.0001L150.541 37.7919Z" fill="#636F73"/>
<path d="M71.4305 58.8913L9.15234 33.5368L78.1277 5.45508L140.406 30.8106L71.4305 58.8913Z" fill="#957049"/>
<path d="M71.4305 62.1751V58.8906L9.15234 33.5361V36.8207L71.4305 62.1751Z" fill="#DBA877"/>
<path d="M140.405 34.093V30.8096L71.4297 58.8902V62.1747L140.405 34.093Z" fill="#614730"/>
<path d="M75.5849 0.598751C75.4535 0.541819 75.3189 0.489266 75.1809 0.434524L75.1513 0.422495C74.0116 -0.00230509 72.6901 -0.2081 71.454 0.29553C68.0699 1.67285 66.6367 6.84814 66.6367 6.84814L128.915 32.2037C128.915 32.2037 130.351 27.0284 133.732 25.65C134.967 25.1474 136.29 25.3522 137.428 25.777L75.5849 0.598751Z" fill="#C87A3C"/>
<path d="M128.91 32.2053L129.944 31.7838C130.019 31.6097 130.102 31.4268 130.192 31.2363L128.91 32.2042V32.2053Z" fill="#975F31"/>
<path d="M137.428 25.7785C136.289 25.3537 134.966 25.149 133.731 25.6515C130.347 27.0299 128.914 32.2041 128.914 32.2052L130.196 31.2374C130.956 29.6477 132.249 27.6386 134.173 26.858C134.862 26.5875 135.61 26.4989 136.344 26.6007C137.594 26.7529 138.775 27.3332 139.614 27.851L140.41 27.5226C139.514 26.7869 138.508 26.1982 137.428 25.7785V25.7785Z" fill="#975F31"/>
<path opacity="0.2" d="M75.5849 0.598771L75.1831 0.434544C74.0368 0.00207927 72.7022 -0.21139 71.454 0.296619C71.1376 0.426529 70.835 0.587907 70.5508 0.77834L76.0491 3.0162L131.955 25.777C132.245 25.8859 132.53 26.0094 132.807 26.1471C133.098 25.9505 133.409 25.7839 133.733 25.65C134.968 25.1475 136.291 25.3522 137.429 25.777L75.5849 0.598771Z" fill="#975F31"/>
<g style="mix-blend-mode:overlay" opacity="0.2">
<path d="M67.662 4.30469C67.2425 5.11989 66.898 5.97156 66.6328 6.84914L128.911 32.2047C129.176 31.3267 129.521 30.4747 129.94 29.6592L67.662 4.30469Z" fill="white"/>
</g>
<path d="M117.115 27.4026L116.605 27.1945C116.899 26.2232 117.288 25.2833 117.766 24.3884C118.82 22.4177 120.141 21.0579 121.584 20.4711C122.796 19.9773 124.094 20.3342 125.669 20.9889C125.055 20.7304 124.396 20.5963 123.731 20.5944C123.065 20.5926 122.406 20.7229 121.791 20.978C118.572 22.2885 117.129 27.3522 117.115 27.4026Z" fill="#975F31"/>
<path d="M98.2376 19.717L97.7285 19.51C98.021 18.538 98.4097 17.5976 98.8891 16.7029C99.9434 14.7321 101.264 13.3734 102.707 12.7855C103.919 12.2917 105.217 12.6486 106.792 13.3045C106.178 13.0455 105.52 12.9111 104.854 12.909C104.188 12.9069 103.529 13.0373 102.914 13.2924C99.6949 14.6029 98.2519 19.6666 98.2376 19.717Z" fill="#975F31"/>
<path d="M79.3646 12.0312L78.8555 11.8243C79.148 10.8526 79.5368 9.91263 80.016 9.01819C81.0703 7.04199 82.3896 5.68766 83.8337 5.09972C85.0457 4.60595 86.3442 4.96394 87.9186 5.61865C87.3045 5.35896 86.6449 5.22416 85.9781 5.22209C85.3114 5.22003 84.6509 5.35074 84.0352 5.60663C80.8163 6.92044 79.3733 11.9808 79.3646 12.0312Z" fill="#975F31"/>
<path d="M64.0888 5.27744C63.9563 5.22051 63.8217 5.16795 63.6848 5.11321L63.6542 5.10118C62.5155 4.67748 61.194 4.47166 59.958 4.97529C56.5738 6.3526 55.1406 11.5279 55.1406 11.5279L117.419 36.8835C117.419 36.8835 118.854 31.707 122.236 30.3297C123.472 29.8261 124.795 30.0319 125.933 30.4567L64.0888 5.27744Z" fill="#C87A3C"/>
<path d="M117.414 36.8849L118.448 36.4634C118.523 36.2894 118.606 36.1054 118.696 35.916L117.414 36.8838V36.8849Z" fill="#975F31"/>
<path d="M125.933 30.4596C124.794 30.0348 123.471 29.829 122.235 30.3326C118.851 31.7099 117.418 36.8853 117.418 36.8864L118.7 35.9185C119.459 34.3288 120.753 32.3198 122.675 31.5392C123.365 31.2688 124.113 31.1802 124.848 31.2819C126.098 31.434 127.279 32.0143 128.118 32.5322L128.914 32.2037C128.019 31.4682 127.012 30.8795 125.933 30.4596V30.4596Z" fill="#975F31"/>
<path opacity="0.2" d="M64.0888 5.27748L63.687 5.11325C62.5407 4.68079 61.205 4.46732 59.9579 4.97533C59.6414 5.10501 59.3387 5.2664 59.0547 5.45705L64.553 7.69491L120.459 30.459C120.749 30.5676 121.034 30.6911 121.311 30.829C121.601 30.6318 121.911 30.4653 122.236 30.332C123.472 29.8283 124.795 30.0342 125.933 30.459L64.0888 5.27748Z" fill="#975F31"/>
<g style="mix-blend-mode:overlay" opacity="0.2">
<path d="M56.1659 8.98535C55.7464 9.80055 55.4019 10.6522 55.1367 11.5298L117.415 36.8853C117.679 36.0071 118.024 35.155 118.444 34.3398L56.1659 8.98535Z" fill="white"/>
</g>
<path d="M105.618 32.0836L105.109 31.8755C105.402 30.904 105.791 29.964 106.27 29.0694C107.324 27.0987 108.644 25.7389 110.088 25.151C111.3 24.6583 112.598 25.0152 114.173 25.6699C113.559 25.4109 112.9 25.2765 112.235 25.2746C111.569 25.2727 110.909 25.4034 110.295 25.659C107.076 26.9695 105.633 32.0321 105.618 32.0836Z" fill="#975F31"/>
<path d="M86.7415 24.3977L86.2324 24.1896C86.5252 23.2181 86.914 22.2781 87.393 21.3836C88.4473 19.4128 89.7666 18.0541 91.2107 17.4662C92.4227 16.9724 93.7212 17.3293 95.2956 17.9841C94.6821 17.7255 94.0234 17.5914 93.3577 17.5895C92.692 17.5877 92.0325 17.718 91.4176 17.9731C88.1988 19.2836 86.7558 24.3473 86.7415 24.3977Z" fill="#975F31"/>
<path d="M67.8704 16.7118L67.3613 16.5049C67.6531 15.533 68.0419 14.5929 68.5219 13.6988C69.5751 11.7281 70.8955 10.3683 72.3396 9.78039C73.5516 9.28661 74.849 9.6446 76.4245 10.2993C75.811 10.0403 75.1521 9.90595 74.4862 9.90388C73.8202 9.90181 73.1605 10.0321 72.5454 10.2873C69.3211 11.5978 67.8792 16.6648 67.8704 16.7118Z" fill="#975F31"/>
<path d="M52.5916 9.95941C52.4602 9.90248 52.3256 9.84992 52.1887 9.79518L52.1581 9.78315C51.0194 9.35835 49.6968 9.15363 48.4619 9.65726C45.0766 11.0346 43.6445 16.2099 43.6445 16.2099L105.922 41.5655C105.922 41.5655 107.358 36.389 110.739 35.0117C111.975 34.5081 113.296 34.7139 114.436 35.1387L52.5916 9.95941Z" fill="#C87A3C"/>
<path d="M105.918 41.5656L106.953 41.1441C107.028 40.97 107.111 40.7861 107.201 40.5967L105.918 41.5645V41.5656Z" fill="#975F31"/>
<path d="M114.436 35.1393C113.297 34.7145 111.975 34.5087 110.739 35.0123C107.355 36.3896 105.922 41.565 105.922 41.5661L107.205 40.5982C107.964 39.0085 109.257 36.9995 111.18 36.2188C111.87 35.9485 112.618 35.8598 113.353 35.9615C114.603 36.1137 115.784 36.694 116.623 37.2118L117.419 36.8834C116.523 36.1477 115.517 35.5591 114.436 35.1393V35.1393Z" fill="#975F31"/>
<path opacity="0.2" d="M52.5916 9.95805L52.1909 9.7949C51.0446 9.36243 49.7089 9.14896 48.4618 9.65697C48.1454 9.78647 47.8428 9.94751 47.5586 10.1376L53.0569 12.3766L108.963 35.1373C109.253 35.246 109.537 35.3695 109.815 35.5074C110.105 35.31 110.415 35.1434 110.74 35.0103C111.976 34.5067 113.298 34.7125 114.437 35.1373L52.5916 9.95805Z" fill="#975F31"/>
<g style="mix-blend-mode:overlay" opacity="0.2">
<path d="M44.6698 13.666C44.2503 14.4812 43.9059 15.3329 43.6406 16.2104V16.2104L105.918 41.566C106.183 40.6881 106.528 39.8361 106.947 39.0205L44.6698 13.666Z" fill="white"/>
</g>
<path d="M94.1224 36.7622L93.6133 36.5552C93.9055 35.5835 94.2943 34.6434 94.7738 33.7491C95.8271 31.7784 97.1474 30.4186 98.5915 29.8307C99.8035 29.338 101.101 29.6949 102.676 30.3496C102.063 30.0907 101.404 29.9563 100.739 29.9542C100.073 29.9521 99.4134 30.0824 98.7985 30.3376C95.5796 31.6481 94.1366 36.7118 94.1224 36.7622Z" fill="#975F31"/>
<path d="M75.2454 29.0783L74.7363 28.8703C75.0285 27.8986 75.4173 26.9585 75.8969 26.0642C76.9501 24.0935 78.2705 22.7337 79.7146 22.1469C80.9266 21.6531 82.224 22.01 83.7995 22.6647C83.1858 22.4062 82.5269 22.272 81.861 22.2702C81.1952 22.2683 80.5355 22.3987 79.9204 22.6538C76.7016 23.9643 75.2597 29.028 75.2454 29.0783Z" fill="#975F31"/>
<path d="M56.3724 21.3927L55.8633 21.1858C56.1552 20.2136 56.544 19.2731 57.0238 18.3786C58.0771 16.4079 59.3974 15.0492 60.8415 14.4613C62.0524 13.9675 63.3509 14.3244 64.9253 14.9802C64.312 14.7213 63.6533 14.5869 62.9876 14.5848C62.3218 14.5827 61.6623 14.713 61.0474 14.9682C57.8231 16.2787 56.38 21.3424 56.3724 21.3927Z" fill="#975F31"/>
<path d="M41.0966 14.6403C40.9652 14.5823 40.8306 14.5308 40.6937 14.4761L40.6631 14.464C39.5244 14.0392 38.2018 13.8345 36.9658 14.337C33.5816 15.7155 32.1484 20.8908 32.1484 20.8908L94.4222 46.2463C94.4222 46.2463 95.8587 41.0699 99.2395 39.6926C100.476 39.189 101.797 39.3948 102.936 39.8196L41.0966 14.6403Z" fill="#C87A3C"/>
<path d="M94.4219 46.2463L95.4565 45.8248C95.531 45.6507 95.6142 45.4668 95.705 45.2773L94.4219 46.2452V46.2463Z" fill="#975F31"/>
<path d="M102.939 39.819C101.801 39.3942 100.479 39.1884 99.2431 39.692C95.8589 41.0693 94.4258 46.2446 94.4258 46.2457L95.7089 45.2779C96.4677 43.6882 97.7607 41.6792 99.6843 40.8985C100.374 40.6281 101.122 40.5395 101.855 40.6412C103.107 40.7923 104.287 41.3737 105.126 41.8915L105.922 41.5631C105.026 40.8271 104.02 40.2384 102.939 39.819V39.819Z" fill="#975F31"/>
<path opacity="0.2" d="M41.0955 14.6391L40.6948 14.476C39.5485 14.038 38.2128 13.8289 36.9647 14.3369C36.6488 14.4675 36.3467 14.6288 36.0625 14.8186L41.5608 17.0576L97.4659 39.8184C97.7564 39.9268 98.0411 40.0503 98.3188 40.1884C98.609 39.991 98.9191 39.8244 99.2439 39.6914C100.48 39.1877 101.801 39.3936 102.94 39.8184L41.0955 14.6391Z" fill="#975F31"/>
<g style="mix-blend-mode:overlay" opacity="0.2">
<path d="M33.1726 18.3447C32.7533 19.1602 32.4091 20.0123 32.1445 20.8902V20.8902L94.4216 46.2458C94.6865 45.3677 95.031 44.5157 95.4508 43.7003L33.1726 18.3447Z" fill="white"/>
</g>
<path d="M82.6263 41.4428L82.1172 41.2359C82.4094 40.2641 82.7982 39.3241 83.2777 38.4298C84.331 36.4591 85.6514 35.0993 87.0955 34.5113C88.3064 34.0187 89.6048 34.3756 91.1803 35.0303C90.5668 34.7713 89.9079 34.6369 89.242 34.6348C88.5761 34.6328 87.9164 34.7631 87.3013 35.0182C84.0824 36.3288 82.6405 41.3925 82.6263 41.4428Z" fill="#975F31"/>
<path d="M63.7504 33.7583L63.2402 33.5503C63.5337 32.5789 63.9228 31.6389 64.4019 30.7443C65.4551 28.7735 66.7755 27.4137 68.2196 26.8258C69.4305 26.3331 70.729 26.69 72.3034 27.3448C71.6901 27.0857 71.0313 26.9513 70.3655 26.9494C69.6997 26.9475 69.0402 27.0782 68.4254 27.3338C65.2066 28.6443 63.7636 33.7069 63.7504 33.7583Z" fill="#975F31"/>
<path d="M44.8724 26.0725L44.3633 25.8644C44.6568 24.893 45.0459 23.953 45.5249 23.0583C46.5782 21.0876 47.8985 19.7289 49.3415 19.141C50.5535 18.6472 51.852 19.0041 53.4264 19.6589C52.813 19.4003 52.1543 19.2662 51.4885 19.2643C50.8228 19.2625 50.1634 19.3928 49.5485 19.6479C46.3296 20.9584 44.8866 26.0221 44.8724 26.0725Z" fill="#975F31"/>
<path d="M29.6005 19.3211C29.4691 19.2627 29.3345 19.208 29.1965 19.1569L29.167 19.1437C28.0272 18.7189 26.7058 18.5142 25.4697 19.0167C22.0855 20.3951 20.6523 25.5705 20.6523 25.5705L82.9261 50.926C82.9261 50.926 84.3626 45.7507 87.7435 44.3734C88.9795 43.8698 90.301 44.0756 91.4397 44.5004L29.6005 19.3211Z" fill="#C87A3C"/>
<path d="M82.9258 50.9258L83.9637 50.5054C84.0392 50.3314 84.1224 50.1474 84.2133 49.958L82.9302 50.9258H82.9258Z" fill="#975F31"/>
<path d="M91.4432 44.4997C90.3046 44.0749 88.9831 43.869 87.747 44.3727C84.3628 45.75 82.9297 50.9253 82.9297 50.9253L84.2128 49.9575C84.9716 48.3689 86.2646 46.3598 88.1882 45.5781C88.8778 45.3071 89.6255 45.2185 90.3593 45.3208C91.6096 45.4719 92.791 46.0532 93.6296 46.57L94.4256 46.2416C93.5299 45.5068 92.5232 44.9188 91.4432 44.4997V44.4997Z" fill="#975F31"/>
<path opacity="0.2" d="M29.5994 19.3197L29.1976 19.1566C28.0513 18.7187 26.7167 18.5096 25.4686 19.0176C25.1525 19.1477 24.8503 19.3091 24.5664 19.4993L30.0636 21.7383L85.9698 44.499C86.26 44.6075 86.5443 44.731 86.8216 44.8691C87.1123 44.6719 87.4228 44.5053 87.7478 44.372C88.9839 43.8684 90.3054 44.0742 91.444 44.499L29.5994 19.3197Z" fill="#975F31"/>
<g style="mix-blend-mode:overlay" opacity="0.2">
<path d="M21.6756 23.0254C21.256 23.8409 20.9116 24.6929 20.6465 25.5709V25.5709L82.9246 50.9253C83.1899 50.0478 83.5343 49.1961 83.9538 48.3809L21.6756 23.0254Z" fill="white"/>
</g>
<path d="M71.1302 46.124L70.6211 45.917C70.9146 44.9456 71.3037 44.0056 71.7827 43.111C72.836 41.1348 74.1564 39.7804 75.6005 39.1925C76.8114 38.6987 78.1098 39.0567 79.6842 39.7114C79.0709 39.4525 78.4122 39.3181 77.7465 39.316C77.0807 39.3139 76.4212 39.4443 75.8063 39.6994C72.5874 41.0099 71.1444 46.0736 71.1302 46.124Z" fill="#975F31"/>
<path d="M52.2513 38.4379L51.7422 38.231C52.035 37.2594 52.4237 36.3195 52.9027 35.4249C53.9571 33.4542 55.2774 32.0944 56.7205 31.5065C57.9325 31.0138 59.2309 31.3707 60.8053 32.0254C60.192 31.7665 59.5333 31.632 58.8676 31.63C58.2018 31.6279 57.5423 31.7582 56.9274 32.0134C53.7085 33.3239 52.2655 38.3876 52.2513 38.4379Z" fill="#975F31"/>
<path d="M33.3743 30.7531L32.8652 30.5451C33.158 29.5736 33.5468 28.6335 34.0258 27.739C35.0801 25.7683 36.4005 24.4096 37.8435 23.8217C39.0555 23.3279 40.354 23.6848 41.9284 24.3395C41.3149 24.081 40.6562 23.9469 39.9905 23.945C39.3248 23.9431 38.6653 24.0735 38.0504 24.3286C34.8316 25.6424 33.3886 30.7028 33.3743 30.7531Z" fill="#975F31"/>
<path d="M18.1044 23.9998C17.9731 23.9414 17.8384 23.8867 17.7004 23.8356L17.6698 23.8224C16.5311 23.3976 15.2097 23.1929 13.9736 23.6954C10.5894 25.0739 9.15625 30.2492 9.15625 30.2492L71.4344 55.6036C71.4344 55.6036 72.8709 50.4283 76.2517 49.051C77.4867 48.5474 78.8093 48.7521 79.9479 49.1769L18.1044 23.9998Z" fill="#C87A3C"/>
<path d="M71.4297 55.6065L72.4632 55.1861C72.5388 55.012 72.622 54.8281 72.7118 54.6387L71.4297 55.6065V55.6065Z" fill="#975F31"/>
<path d="M79.9471 49.1816C78.8085 48.7568 77.4859 48.5521 76.2509 49.0557C72.8667 50.433 71.4336 55.6083 71.4336 55.6083L72.7157 54.6405C73.4744 53.0519 74.7685 51.0428 76.6921 50.2611C77.3817 49.9901 78.1294 49.9015 78.8632 50.0038C80.1135 50.1549 81.2949 50.7363 82.1335 51.253L82.9295 50.9246C82.0336 50.1897 81.027 49.6015 79.9471 49.1816V49.1816Z" fill="#975F31"/>
<path opacity="0.2" d="M18.1044 23.9994L17.7026 23.8363C16.5563 23.3984 15.2206 23.1892 13.9736 23.6973C13.6571 23.8272 13.3545 23.9885 13.0703 24.179L18.5686 26.418L74.4748 49.1809C74.7726 49.2904 75.0583 49.4196 75.3266 49.552C75.6172 49.3546 75.9276 49.1881 76.2528 49.055C77.4878 48.5514 78.8104 48.7561 79.949 49.1809L18.1044 23.9994Z" fill="#975F31"/>
<g style="mix-blend-mode:overlay" opacity="0.2">
<path d="M10.1795 27.7061C9.75995 28.5216 9.41547 29.3736 9.15039 30.2516L71.4286 55.606C71.6938 54.7284 72.0383 53.8768 72.4577 53.0616L10.1795 27.7061Z" fill="white"/>
</g>
<path d="M59.6341 50.8037L59.125 50.5967C59.4176 49.6251 59.8063 48.6851 60.2855 47.7906C61.3399 45.8144 62.6603 44.4601 64.1033 43.8722C65.3153 43.3784 66.6138 43.7364 68.1881 44.3911C67.5748 44.1322 66.9161 43.9978 66.2504 43.9957C65.5846 43.9936 64.9251 44.1239 64.3102 44.3791C61.0913 45.6896 59.6483 50.7533 59.6341 50.8037Z" fill="#975F31"/>
<path d="M40.7571 43.1186L40.248 42.9117C40.5408 41.9401 40.9296 41.0001 41.4086 40.1056C42.4629 38.1349 43.7822 36.7751 45.2263 36.1871C46.4383 35.6944 47.7368 36.0514 49.3112 36.7061C48.6979 36.4471 48.0392 36.3127 47.3734 36.3106C46.7077 36.3086 46.0482 36.4389 45.4332 36.694C42.2144 38.0046 40.7714 43.0682 40.7571 43.1186Z" fill="#975F31"/>
<path d="M21.8802 35.4338L21.3711 35.2258C21.6639 34.2542 22.0526 33.3142 22.5316 32.4197C23.586 30.4489 24.9053 29.0892 26.3494 28.5023C27.5614 28.0086 28.8598 28.3655 30.4342 29.0202C29.8208 28.7617 29.1621 28.6275 28.4964 28.6257C27.8307 28.6238 27.1712 28.7542 26.5563 29.0092C23.3374 30.3198 21.8944 35.3867 21.8802 35.4338Z" fill="#975F31"/>
</svg>
