<svg width="168" height="70" viewBox="0 0 168 70" fill="none" xmlns="http://www.w3.org/2000/svg">
<path d="M39.2142 49.6048L0 33.8048L39.2142 18.0049L78.4353 33.8048L39.2142 49.6048Z" fill="#32477C"/>
<path d="M44.6855 51.8068L83.9066 36.0068L123.121 51.8068L83.9066 67.6067L44.6855 51.8068Z" fill="#32477C"/>
<path d="M83.9066 0L44.6855 15.7999L83.9066 31.5999L123.121 15.7999L83.9066 0Z" fill="#32477C"/>
<path d="M89.3789 33.8048L128.593 18.0049L167.807 33.8048L128.593 49.6048L89.3789 33.8048Z" fill="#32477C"/>
<g style="mix-blend-mode:overlay" opacity="0.5">
<path d="M117.19 49.4302L111.26 51.8168L103.062 48.5039L108.992 46.1173L108.083 45.7524L102.153 48.1455L93.9553 44.8328L99.8853 42.4463L98.9767 42.0811L93.0467 44.4677L84.8486 41.155L90.7786 38.7684L89.8768 38.4033L83.94 40.7967L78.01 38.4033L77.1083 38.7684L83.0382 41.155L74.8401 44.4677L68.9102 42.0811L68.0084 42.4463L73.9383 44.8328L65.7402 48.1455L59.8103 45.7524L58.9085 46.1173L64.8384 48.5039L56.6403 51.8168L50.7104 49.4302L49.8086 49.7953L55.7385 52.1819L50.7172 54.2101L51.6258 54.5751L56.6403 52.5468L64.8384 55.8529L59.8171 57.8812L60.7257 58.2463L65.7402 56.218L73.9383 59.5308L68.917 61.559L69.8256 61.9241L74.8401 59.8959L83.0382 63.2018L78.0169 65.2301L78.9255 65.5952L83.94 63.5669L88.9613 65.5952L89.87 65.2301L84.8486 63.2018L93.0467 59.8959L98.0681 61.9241L98.9767 61.559L93.9553 59.5308L102.153 56.218L107.175 58.2463L108.077 57.8812L103.062 55.8529L111.26 52.5468L116.281 54.5751L117.183 54.2101L112.169 52.1819L118.099 49.7953L117.19 49.4302ZM101.238 48.5039L93.0399 51.8168L84.8418 48.5107L93.0399 45.1979L101.238 48.5039ZM92.1176 52.1819L83.9195 55.4946L75.7214 52.1819L83.9195 48.869L92.1176 52.1819ZM83.9195 41.5201L92.1176 44.8328L83.9195 48.1455L75.7214 44.8328L83.9195 41.5201ZM74.7991 45.1979L82.9972 48.5107L74.7991 51.8168L66.601 48.5039L74.7991 45.1979ZM57.467 52.1819L65.6651 48.869L73.8632 52.1819L65.6651 55.4946L57.467 52.1819ZM66.5874 55.8529L74.7855 52.5468L82.9836 55.8529L74.7855 59.1657L66.5874 55.8529ZM83.9195 62.8435L75.7214 59.5308L83.9195 56.218L92.1176 59.5308L83.9195 62.8435ZM93.0399 59.1657L84.8418 55.8529L93.0399 52.5468L101.238 55.8529L93.0399 59.1657ZM102.16 55.4946L93.9622 52.1819L102.16 48.869L110.358 52.1819L102.16 55.4946Z" fill="white"/>
<path d="M50.6108 18.1886L56.5407 15.802L64.7388 19.1147L58.8089 21.5013L59.7107 21.8664L65.6406 19.4798L73.8387 22.7858L67.9088 25.1791L68.8106 25.5375L74.7405 23.1509L82.9386 26.4638L77.0087 28.8503L77.9105 29.2153L83.8404 26.8221L89.7772 29.2153L90.679 28.8503L84.749 26.4638L92.9471 23.1509L98.8771 25.5375L99.7857 25.1791L93.8557 22.7858L102.054 19.4798L107.984 21.8664L108.892 21.5013L102.962 19.1147L111.161 15.802L117.091 18.1886L117.999 17.8302L112.069 15.4369L117.084 13.4087L116.182 13.0435L111.161 15.0718L102.962 11.7658L107.984 9.73759L107.075 9.37249L102.054 11.4007L93.8557 8.08784L98.8771 6.0596L97.9685 5.69466L92.9471 7.72289L84.749 4.41678L89.7704 2.38855L88.8617 2.02344L83.8404 4.05167L78.8259 2.02344L77.9173 2.38178L82.9386 4.41001L74.7405 7.71613L69.726 5.68789L68.8174 6.05284L73.8387 8.08107L65.6406 11.394L60.6261 9.36572L59.7175 9.73083L64.7388 11.7591L56.5407 15.065L51.5263 13.0368L50.6176 13.4019L55.6389 15.4301L49.709 17.8167L50.6108 18.1886ZM66.5697 19.1147L74.7678 15.802L82.9659 19.1147L74.7678 22.4208L66.5697 19.1147ZM75.6901 15.4369L83.8882 12.1308L92.0863 15.4369L83.8882 18.7496L75.6901 15.4369ZM83.8882 26.0987L75.6901 22.7858L83.8882 19.4798L92.0863 22.7858L83.8882 26.0987ZM93.0086 22.4208L84.8105 19.1147L93.0086 15.802L101.207 19.1147L93.0086 22.4208ZM110.348 15.4369L102.149 18.7496L93.9514 15.4369L102.149 12.1308L110.348 15.4369ZM101.227 11.7658L93.0291 15.0718L84.831 11.7658L93.0291 8.45295L101.227 11.7658ZM83.8882 4.78189L92.0863 8.08784L83.8882 11.4007L75.6901 8.08784L83.8882 4.78189ZM74.7678 8.45295L82.9659 11.7658L74.7678 15.0718L66.5697 11.7658L74.7678 8.45295ZM65.6475 12.1308L73.8456 15.4369L65.6475 18.7496L57.4494 15.4369L65.6475 12.1308Z" fill="white"/>
<path d="M157.771 33.8126L162.786 31.7843L161.884 31.4192L156.863 33.4475L148.665 30.1347L153.679 28.1065L152.777 27.7414L147.756 29.7696L139.558 26.4637L144.572 24.4355L143.671 24.0703L138.649 26.0986L130.451 22.7857L135.466 20.7575L134.564 20.3925L129.542 22.4208L123.612 20.0342L122.704 20.3993L128.641 22.7857L120.443 26.0986L114.513 23.7052L113.604 24.0703L119.541 26.4637L111.343 29.7696L105.413 27.3831L104.504 27.7482L110.441 30.1347L102.243 33.4475L96.3129 31.0543L95.4111 31.4192L101.341 33.8126L95.2812 36.2127L96.1899 36.5778L102.113 34.1844L110.311 37.4972L104.374 39.8837L105.283 40.2488L111.213 37.8623L119.411 41.1684L113.474 43.5617L114.383 43.9267L120.313 41.5335L128.511 44.8462L122.574 47.2328L123.483 47.5979L129.413 45.2113L134.434 47.2396L135.336 46.8744L130.321 44.8462L138.519 41.5335L143.541 43.5617L144.443 43.1966L139.428 41.1684L147.626 37.8555L152.647 39.8837L153.549 39.5186L148.535 37.4904L156.733 34.1777L161.754 36.2059L162.656 35.8408L157.771 33.8126ZM146.84 30.1347L138.642 33.4475L130.444 30.1347L138.642 26.822L146.84 30.1347ZM137.727 33.8126L129.529 37.1187L121.331 33.8126L129.529 30.4999L137.727 33.8126ZM129.529 23.1508L137.727 26.4637L129.529 29.7696L121.331 26.4637L129.529 23.1508ZM120.408 26.822L128.607 30.1347L120.408 33.4475L112.21 30.1347L120.408 26.822ZM103.076 33.8126L111.274 30.4999L119.472 33.8126L111.274 37.1187L103.076 33.8126ZM112.197 37.4836L120.395 34.1709L128.593 37.4836L120.395 40.7965L112.197 37.4836ZM129.529 44.4676L121.331 41.1549L129.529 37.8487L137.727 41.1616L129.529 44.4676ZM138.649 40.7965L130.451 37.4836L138.649 34.1709L146.847 37.4836L138.649 40.7965ZM147.77 37.1187L139.571 33.8126L147.77 30.4999L155.968 33.8126L147.77 37.1187Z" fill="white"/>
<path d="M53.3552 43.9138L54.257 43.5489L48.327 41.1556L56.5251 37.8494L62.4892 40.2699L63.391 39.9047L57.4611 37.5182L65.6592 34.2055L71.596 36.5988L72.4978 36.2337L66.5678 33.8471L72.4978 31.4538L71.596 31.0887L65.6592 33.482L57.4611 30.1693L63.391 27.7827L62.4892 27.4176L56.5593 29.8042L48.3612 26.4981L54.2911 24.044L53.3893 23.6789L47.4594 26.0722L39.2613 22.7595L45.1912 20.3729L44.2894 20.0078L38.3595 22.3944L33.3382 20.3662L32.4295 20.7313L37.4508 22.7595L29.2528 26.0722L24.2314 24.044L23.3228 24.4091L28.3442 26.4373L20.1461 29.7433L15.1247 27.715L14.2161 28.0801L19.2374 30.1084L11.0393 33.4213L6.01801 31.393L5.10938 31.758L10.1307 33.7862L5.10938 35.8144L6.01801 36.1795L11.0393 34.1513L19.2374 37.4642L14.2161 39.4924L15.1247 39.8574L20.1461 37.8291L28.3442 41.142L23.3228 43.1703L24.2314 43.5354L29.2528 41.5071L37.4508 44.8198L32.4295 46.8481L33.3382 47.2132L38.3526 45.185L44.2894 47.5715L45.1912 47.2064L39.2613 44.8198L47.4594 41.5071L53.3552 43.9138ZM47.4184 40.7972L39.2203 37.4843L47.4184 34.1716L55.6165 37.4843L47.4184 40.7972ZM38.3048 37.1194L30.1067 33.8133L38.3048 30.5006L46.5029 33.8133L38.3048 37.1194ZM64.7574 33.8133L56.5593 37.1194L48.3612 33.8133L56.5593 30.5006L64.7574 33.8133ZM55.6575 30.1287L47.4594 33.4414L39.2613 30.1287L47.4594 26.816L55.6575 30.1287ZM38.3253 23.1447L46.5234 26.4576L38.3253 29.7636L30.1272 26.4576L38.3253 23.1447ZM29.205 26.816L37.4031 30.1287L29.205 33.4414L21.0069 30.1287L29.205 26.816ZM11.866 33.8065L20.0641 30.4938L28.2622 33.8065L20.0641 37.1126L11.866 33.8065ZM20.9864 37.4777L29.1844 34.1648L37.3825 37.4777L29.1844 40.7904L20.9864 37.4777ZM38.3185 44.4615L30.1204 41.1556L38.3185 37.8427L46.5166 41.1488L38.3185 44.4615Z" fill="white"/>
</g>
<path d="M167.808 33.8037V36.1959L128.594 51.9958V49.6037L167.808 33.8037Z" fill="#909FBE"/>
<path d="M89.3789 36.1959V33.8037L128.593 49.6037V51.9958L89.3789 36.1959Z" fill="#0E1524"/>
<path d="M123.12 51.8076V54.1998L83.9062 69.9998V67.6076L123.12 51.8076Z" fill="#909FBE"/>
<path d="M44.6855 54.1998V51.8076L83.9066 67.6076V69.9998L44.6855 54.1998Z" fill="#0E1524"/>
<path d="M78.4339 33.8037V36.1959L39.2129 51.9958V49.6037L78.4339 33.8037Z" fill="#909FBE"/>
<path d="M0 36.1959V33.8037L39.2142 49.6037V51.9958L0 36.1959Z" fill="#0E1524"/>
<path d="M123.12 15.8008V18.193L83.9062 33.9929V31.6007L123.12 15.8008Z" fill="#909FBE"/>
<path d="M44.6855 18.193V15.8008L83.9066 31.6007V33.9929L44.6855 18.193Z" fill="#0E1524"/>
</svg>
