<svg width="75" height="100" viewBox="0 0 75 100" fill="none" xmlns="http://www.w3.org/2000/svg">
<path d="M74.1574 71.7043L4.11523 100V29.9626L74.1574 1.66211V71.7043Z" fill="#E6EAE9"/>
<path d="M55.0555 63.8519C65.7959 50.725 67.3793 34.2551 58.5921 27.0655C49.8049 19.8758 33.9747 24.6889 23.2343 37.8157C12.4939 50.9426 10.9105 67.4124 19.6977 74.602C28.4849 81.7917 44.3151 76.9787 55.0555 63.8519Z" fill="#4E646D"/>
<path d="M57.219 26.0781C58.9589 28.7881 59.929 32.2463 59.929 36.3309C59.929 50.2071 48.6801 66.0016 34.8039 71.6086C27.7049 74.4752 21.3192 74.1185 16.7344 71.2345C20.8798 77.7333 29.3491 79.9343 39.1538 75.9585C53.03 70.3515 64.2789 54.557 64.2789 40.6808C64.2615 33.8993 61.5689 28.836 57.219 26.0781Z" fill="#171F23"/>
<path d="M44.652 55.3406C48.37 50.7964 48.9183 45.0949 45.8764 42.6061C42.8345 40.1172 37.3545 41.7835 33.6364 46.3277C29.9184 50.8719 29.3702 56.5733 32.4121 59.0621C35.4539 61.551 40.9339 59.8848 44.652 55.3406Z" fill="#B9C1BF"/>
<path d="M68.4406 14.5754L9.49219 38.416L9.81837 39.2225L68.7668 15.3819L68.4406 14.5754Z" fill="#E6EAE9"/>
<path d="M68.4426 16.7482L9.49414 40.5889L9.82032 41.3954L68.7688 17.5547L68.4426 16.7482Z" fill="#E6EAE9"/>
<path d="M68.4406 18.925L9.49219 42.7656L9.81837 43.5721L68.7668 19.7315L68.4406 18.925Z" fill="#E6EAE9"/>
<path d="M68.4426 21.0978L9.49414 44.9385L9.82032 45.745L68.7688 21.9043L68.4426 21.0978Z" fill="#E6EAE9"/>
<path d="M68.4445 23.2756L9.49609 47.1162L9.82228 47.9227L68.7707 24.0821L68.4445 23.2756Z" fill="#E6EAE9"/>
<path d="M68.4406 25.4484L9.49219 49.2891L9.81837 50.0956L68.7668 26.2549L68.4406 25.4484Z" fill="#E6EAE9"/>
<path d="M68.4445 27.6252L9.49609 51.4658L9.82228 52.2723L68.7707 28.4317L68.4445 27.6252Z" fill="#E6EAE9"/>
<path d="M68.4406 29.798L9.49219 53.6387L9.81837 54.4452L68.7668 30.6045L68.4406 29.798Z" fill="#E6EAE9"/>
<path d="M68.4445 31.9758L9.49609 55.8164L9.82228 56.6229L68.7707 32.7823L68.4445 31.9758Z" fill="#E6EAE9"/>
<path d="M68.4406 34.1486L9.49219 57.9893L9.81837 58.7958L68.7668 34.9551L68.4406 34.1486Z" fill="#E6EAE9"/>
<path d="M68.4445 36.3254L9.49609 60.166L9.82228 60.9725L68.7707 37.1319L68.4445 36.3254Z" fill="#E6EAE9"/>
<path d="M68.4406 38.4982L9.49219 62.3389L9.81837 63.1454L68.7668 39.3047L68.4406 38.4982Z" fill="#E6EAE9"/>
<path d="M68.4445 40.6711L9.49609 64.5117L9.82228 65.3182L68.7707 41.4776L68.4445 40.6711Z" fill="#E6EAE9"/>
<path d="M68.4406 42.8488L9.49219 66.6895L9.81837 67.496L68.7668 43.6553L68.4406 42.8488Z" fill="#E6EAE9"/>
<path d="M68.4426 45.0217L9.49414 68.8623L9.82032 69.6688L68.7688 45.8282L68.4426 45.0217Z" fill="#E6EAE9"/>
<path d="M68.4406 47.1994L9.49219 71.04L9.81837 71.8466L68.7668 48.0059L68.4406 47.1994Z" fill="#E6EAE9"/>
<path d="M68.4426 49.3722L9.49414 73.2129L9.82032 74.0194L68.7688 50.1788L68.4426 49.3722Z" fill="#E6EAE9"/>
<path d="M68.4445 51.549L9.49609 75.3896L9.82228 76.1962L68.7707 52.3555L68.4445 51.549Z" fill="#E6EAE9"/>
<path d="M68.4426 53.7218L9.49414 77.5625L9.82032 78.369L68.7688 54.5284L68.4426 53.7218Z" fill="#E6EAE9"/>
<path d="M68.4445 55.8996L9.49609 79.7402L9.82228 80.5468L68.7707 56.7061L68.4445 55.8996Z" fill="#E6EAE9"/>
<path d="M68.4406 58.0724L9.49219 81.9131L9.81837 82.7196L68.7668 58.879L68.4406 58.0724Z" fill="#E6EAE9"/>
<path d="M68.4445 60.2492L9.49609 84.0898L9.82228 84.8964L68.7707 61.0557L68.4445 60.2492Z" fill="#E6EAE9"/>
<path d="M68.4426 62.422L9.49414 86.2627L9.82032 87.0692L68.7688 63.2286L68.4426 62.422Z" fill="#E6EAE9"/>
<path d="M0 28.3008L4.11501 29.9624V100L0 98.3386V28.3008Z" fill="#636F73"/>
<path d="M70.0422 0L74.1572 1.66166L4.11501 29.9622L0 28.3005L70.0422 0Z" fill="#9AA8AC"/>
</svg>
