<svg width="105" height="100" viewBox="0 0 105 100" fill="none" xmlns="http://www.w3.org/2000/svg">
<path d="M87.7702 4.38477V62.29L11.7695 93.232V35.3267L87.7702 4.38477Z" fill="#682C42"/>
<path d="M1 30.9424L11.7704 35.3275V93.2328L1 88.8477V30.9424Z" fill="#8E3E5E"/>
<path d="M87.7711 4.38512L77.0007 0L1 30.9419L11.7704 35.327L87.7711 4.38512Z" fill="#C57294"/>
<path d="M87.7672 15.0785V12.9939L71.8432 19.4769V10.8731L61.0764 6.48438L59.1463 7.26969L69.913 11.6572V20.2622L54.9542 26.3519V17.7397L44.1874 13.351L42.2572 14.1363L53.024 18.5262V27.1385L38.0651 33.2294V24.6184L27.2984 20.2296L25.3682 21.015L36.1349 25.4097V34.0207L21.1761 40.1104V31.5019L10.4093 27.1131L8.47914 27.8996L19.2459 32.286V40.8946L11.7665 43.9394L0.996094 39.5543V41.6389L5.41619 43.4376V51.0051L0.996094 49.2052V51.2898L11.7665 55.6713L19.2459 52.6252V60.1927L11.7665 63.2376L0.996094 58.8524V60.937L5.41619 62.7357V70.3032L0.996094 68.5033V70.5879L11.7665 74.973L19.2459 71.927V79.4945L11.7665 82.5393L0.996094 78.1542V80.2388L5.41619 82.0375V90.6473L7.34637 91.4326V82.824L11.7665 84.6239L27.6904 78.1409V86.7495L29.6206 85.963V77.3544L44.5795 71.2647V79.8733L46.5096 79.0879V70.4781L61.4685 64.3884V72.997L63.3987 72.2117V63.6031L78.3576 57.5122V66.122L80.2877 65.3354V56.7268L87.7672 53.682V51.5974L71.8432 58.0804V50.5141L87.7672 44.0311V41.9465L80.2877 44.9914V37.4251L87.7672 34.3802V32.2956L71.8432 38.7786V31.2123L87.7672 24.7294V22.6448L80.2877 25.6896V18.1233L87.7672 15.0785ZM46.5096 39.447V31.8794L61.4685 25.7897V33.356L46.5096 39.447ZM46.5096 58.7487V51.1812L61.4685 45.0915V52.6578L46.5096 58.7487ZM44.5795 51.9677V59.534L29.6206 65.625V58.0574L44.5795 51.9677ZM53.024 58.1805V65.7468L38.0651 71.8377V64.2702L53.024 58.1805ZM38.0651 52.536V44.9684L53.024 38.8787V46.445L38.0651 52.536ZM29.6206 46.3232V38.7557L44.5795 32.666V40.2323L29.6206 46.3232ZM7.3512 51.7868V44.2205L11.7665 46.0204L27.6904 39.5374V47.1037L11.7665 53.5867L7.3512 51.7868ZM21.1809 51.8399L36.1398 45.7502V53.3165L21.1809 59.4062V51.8399ZM7.3512 71.0885V63.5223L11.7665 65.3222L27.6904 58.8392V66.4055L11.7665 72.8884L7.3512 71.0885ZM21.1809 71.1416L36.1398 65.0519V72.6182L21.1809 78.7079V71.1416ZM69.9178 58.8669L54.959 64.9566V57.3903L69.9178 51.2994V58.8669ZM78.3624 45.7779L63.4035 51.8676V44.3013L78.3624 38.2104V45.7779ZM69.9178 39.5652L54.959 45.6549V38.0886L69.9178 31.9977V39.5652ZM78.3624 26.4762L63.4035 32.5659V24.9996L78.3624 18.9087V26.4762Z" fill="#84667E"/>
<path d="M104.426 11.1523V69.0576L28.4258 99.9995V42.0943L104.426 11.1523Z" fill="#682C42"/>
<path d="M17.6562 37.71L28.4266 42.0951V100L17.6562 95.6152V37.71Z" fill="#8E3E5E"/>
<path d="M104.427 11.1527L93.6581 6.76758L17.6562 37.7095L28.4266 42.0946L104.427 11.1527Z" fill="#C57294"/>
<path d="M104.429 21.8461V19.7615L88.5053 26.2444V17.6407L77.7386 13.252L75.8084 14.0373L86.5751 18.426V27.031L71.6163 33.1207V24.5085L60.8495 20.1198L58.9193 20.9063L69.6861 25.2951V33.9072L54.7272 39.9969V31.386L43.9605 26.9972L42.0303 27.7826L52.7971 32.1713V40.7823L37.8382 46.8732V38.2634L27.0714 33.8747L25.1413 34.6612L35.908 39.05V47.6585L28.4286 50.7034L17.6582 46.3183V48.4029L22.0783 50.2028V57.769L17.6582 55.9692V58.0538L28.4286 62.4449L35.908 59.4001V66.9663L28.4286 70.0112L17.6582 65.6261V67.7107L22.0783 69.5106V77.0768L17.6582 75.277V77.3615L28.4286 81.7467L35.908 78.7018V86.2681L28.4286 89.3129L17.6582 84.9278V87.0124L22.0783 88.8123V97.4209L24.0085 98.2062V89.588L28.4286 91.3975L44.3525 84.9146V93.5231L46.2827 92.7378V84.128L61.2416 78.0383V86.6469L63.1718 85.8616V77.253L78.1306 71.1621V79.7707L80.0608 78.9853V70.3767L95.0197 64.2858V72.8956L96.9498 72.1091V63.5005L104.429 60.4556V58.371L88.5053 64.854V57.2877L104.429 50.8047V48.7201L96.9498 51.765V44.1987L104.429 41.1539V39.0693L88.5053 45.5522V37.986L104.429 31.503V29.4184L96.9498 32.4632V24.8969L104.429 21.8461ZM63.1718 46.2145V38.6482L78.1306 32.5573V40.1248L63.1718 46.2145ZM63.1718 65.5163V57.95L78.1306 51.8591V59.4266L63.1718 65.5163ZM61.2416 58.7353V66.3016L46.2827 72.3925V64.825L61.2416 58.7353ZM69.6861 64.9481V72.5156L54.7272 78.6053V71.0378L69.6861 64.9481ZM54.7272 59.3035V51.736L69.6861 45.6463V53.2138L54.7272 59.3035ZM46.2827 53.0908V45.5233L61.2416 39.4336V46.9999L46.2827 53.0908ZM24.0085 58.5592V50.9845L28.4286 52.794L44.3525 46.311V53.8773L28.4286 60.3603L24.0085 58.5592ZM37.8382 58.6123L52.7971 52.5226V60.0889L37.8382 66.1798V58.6123ZM24.0085 77.8562V70.2862L28.4286 72.0958L44.3525 65.6128V73.1791L28.4286 79.6621L24.0085 77.8562ZM37.8382 77.9092L52.7971 71.8195V79.3858L37.8382 85.4767V77.9092ZM86.5751 65.6345L71.6163 71.7242V64.1579L86.5751 58.067V65.6345ZM95.0197 52.5455L80.0608 58.6352V51.0689L95.0197 44.978V52.5455ZM86.5751 46.3328L71.6163 52.4225V44.8562L86.5751 38.7653V46.3328ZM95.0197 33.2437L80.0608 39.3334V31.7672L95.0197 25.6763V33.2437Z" fill="#84667E"/>
<path d="M12.8922 37.3634C13.0321 36.817 15.2651 34.5514 17.3159 34.2269C19.3667 33.9024 22.9701 32.3812 23.9364 31.4438C24.9027 30.5065 28.3674 28.8357 29.6232 28.9237C30.879 29.0118 33.0191 29.7682 34.3075 28.4255C35.5959 27.0828 35.5669 26.0236 37.5888 25.5845C39.6106 25.1454 39.7856 25.9645 41.045 25.5845C42.3044 25.2045 45.2347 22.7424 46.1431 22.4794C47.0515 22.2164 48.0467 21.0727 49.6295 20.3984C51.2122 19.724 54.2872 19.4032 55.5756 18.7879C56.864 18.1727 58.6265 16.9132 61.0416 16.0338C63.4568 15.1544 62.9585 16.1219 64.8043 15.7117C66.65 15.3015 67.001 13.3967 68.7008 12.7235C70.4006 12.0504 71.1316 13.0167 73.2995 12.1674C75.4673 11.3181 77.5217 9.00313 80.3892 7.83055C83.2567 6.65796 85.7503 7.10672 86.421 6.76532C87.0918 6.42392 87.4163 3.9907 89.3163 3.90505C91.2163 3.81939 91.2199 5.25255 91.308 5.80989C91.3961 6.36723 92.6555 5.60481 93.0367 5.78094C93.4179 5.95707 93.6483 6.76532 93.6483 6.76532L17.6561 37.7145C17.6561 37.7145 17.6018 89.0234 17.6561 91.6677C17.7104 94.3121 15.3881 94.3772 14.7247 93.9176C14.0612 93.458 14.7247 92.2999 13.9743 91.8053C13.2239 91.3107 11.6931 91.3625 11.9657 90.1164C12.2383 88.8702 13.2312 88.0655 12.9585 86.8133C12.6859 85.5611 12.0501 83.6117 12.1141 81.5669C12.178 79.5221 12.7498 79.0468 12.6811 77.7065C12.6123 76.3663 11.7425 75.4361 11.9283 73.8015C12.1141 72.1669 13.2034 71.8255 12.8862 70.2814C12.5689 68.7372 12.1141 68.0786 12.1623 66.5115C12.2106 64.9444 13.4568 64.0602 13.207 63.0372C12.9573 62.0142 11.6629 59.9948 12.2987 59.0188C12.9344 58.0429 13.616 57.6327 12.9344 56.7472C12.2528 55.8618 12.1394 54.9087 12.3903 53.8182C12.6413 52.7276 13.7294 50.1171 13.0032 47.4824C12.2769 44.8477 12.0055 40.8257 12.8922 37.3634Z" fill="#D0A92B"/>
</svg>
