<svg width="71" height="100" viewBox="0 0 71 100" fill="none" xmlns="http://www.w3.org/2000/svg">
<path d="M0 83.8057V95.9778L9.87938 100V87.828L0 83.8057Z" fill="#171F23"/>
<path d="M58.8364 8.6122L48.957 4.58984V63.875L58.8364 67.8963V8.6122Z" fill="#171F23"/>
<path d="M60.2296 0L70.109 4.02235L58.8364 8.61237L48.957 4.59002L60.2296 0Z" fill="#5A6870"/>
<path d="M1.13281 93.3207L8.83891 90.1836V96.4578L1.13281 93.3207Z" fill="#5A6870"/>
<path d="M1.13281 93.3205V84.2666L8.83891 87.4037V90.1834L1.13281 93.3205Z" fill="#424D54"/>
<path d="M1.13281 84.2673L50.0893 64.3359V73.3898L8.83891 87.4044V90.1841L1.13281 93.3212" fill="#424D54"/>
<path d="M48.9565 63.875L50.0885 64.3353L1.13201 84.2667L0 83.8053L48.9565 63.875Z" fill="#5A6870"/>
<path d="M50.089 64.3353V5.05017L48.957 4.58984V63.875L50.089 64.3353Z" fill="#171F23"/>
<path d="M59.9434 2.18559V1.03809L67.6484 4.17519L59.9434 7.31229V2.18559Z" fill="#171F23"/>
<path d="M60.429 2.38281L3.46094 25.5763V37.089V93.1618L60.429 69.9694V2.38281Z" fill="#73AAC9"/>
<path d="M2.32422 25.1123L3.46066 25.576V93.1614L2.32422 92.6989V25.1123Z" fill="#487C93"/>
<path d="M59.2911 1.91992L60.4287 2.38246L3.46066 25.576L2.32422 25.1124L59.2911 1.91992Z" fill="#A8D1E4"/>
<path d="M62.5216 3.23438L5.55469 26.4279V37.9406V94.0134L62.5216 70.821V3.23438Z" fill="#73AAC9"/>
<path d="M4.41602 25.9648L5.55356 26.4285V94.014L4.41602 93.5514V25.9648Z" fill="#487C93"/>
<path d="M61.384 2.77148L62.5205 3.23403L5.55356 26.4276L4.41602 25.9639L61.384 2.77148Z" fill="#A8D1E4"/>
<path d="M64.6145 4.08789L7.64648 27.2803V38.793V94.8669L64.6145 71.6734V4.08789Z" fill="#73AAC9"/>
<path d="M6.50977 26.8174L7.6462 27.2799V94.8665L6.50977 94.4029V26.8174Z" fill="#487C93"/>
<path d="M63.4767 3.62402L64.6142 4.08767L7.6462 27.2801L6.50977 26.8176L63.4767 3.62402Z" fill="#A8D1E4"/>
<path d="M8.83789 87.404L57.7933 67.4727L58.8357 67.8965L9.87916 87.8279L8.83789 87.404Z" fill="#5A6870"/>
<path d="M70.1091 63.3076L70.108 4.02246L58.8343 8.61248L58.8354 67.8965L9.87891 87.8279V100L70.1091 75.4787V63.3076Z" fill="#424D54"/>
<path d="M57.793 8.1875L58.8353 8.61242V67.8965L57.793 67.4727V8.1875Z" fill="#171F23"/>
<path d="M8.83789 96.4582V87.4043L9.87916 87.8281V97.5161L8.83789 96.4582Z" fill="#171F23"/>
<path d="M50.0879 5.05048V5.66573L59.2901 1.92002L59.9429 2.18559V1.03809L50.0879 5.05048Z" fill="#424D54"/>
<path d="M58.8364 8.61237L57.794 8.18745L67.6491 4.17506L59.9441 1.03796L50.089 5.05035L48.957 4.59002L60.2296 0L70.109 4.02235L58.8364 8.61237Z" fill="#5A6870"/>
<path opacity="0.4" d="M46.3308 72.1399L52.6769 69.5561L8.79731 26.8174L7.64648 27.2799V34.4626L46.3308 72.1399Z" fill="#A8D1E4"/>
<path opacity="0.4" d="M55.9175 68.2373L54.3528 68.8736L10.4688 26.1315L12.0334 25.4941L55.9175 68.2373Z" fill="#A8D1E4"/>
<path opacity="0.4" d="M39.6467 14.252L38.082 14.8893L57.7932 34.0882V31.9271L39.6467 14.252Z" fill="#A8D1E4"/>
</svg>
