<svg width="99" height="35" viewBox="0 0 99 35" fill="none" xmlns="http://www.w3.org/2000/svg">
<path d="M0 0H89.0033L98.4718 17.0432L89.0033 34.0864H0L9.46844 17.0432L0 0Z" fill="#D8DB1A"/>
<path d="M44.7108 23V11.8H50.1828C51.5908 11.8 52.6468 12.0667 53.3508 12.6C54.0655 13.1333 54.4228 13.8373 54.4228 14.712C54.4228 15.2987 54.2788 15.8107 53.9908 16.248C53.7028 16.6747 53.3081 17.0053 52.8068 17.24C52.3055 17.4747 51.7295 17.592 51.0788 17.592L51.3828 16.936C52.0868 16.936 52.7108 17.0533 53.2548 17.288C53.7988 17.512 54.2201 17.848 54.5188 18.296C54.8281 18.744 54.9828 19.2933 54.9828 19.944C54.9828 20.904 54.6041 21.656 53.8468 22.2C53.0895 22.7333 51.9748 23 50.5028 23H44.7108ZM47.2868 21.048H50.3108C50.9828 21.048 51.4895 20.9413 51.8308 20.728C52.1828 20.504 52.3588 20.152 52.3588 19.672C52.3588 19.2027 52.1828 18.856 51.8308 18.632C51.4895 18.3973 50.9828 18.28 50.3108 18.28H47.0948V16.392H49.8628C50.4921 16.392 50.9721 16.2853 51.3028 16.072C51.6441 15.848 51.8148 15.512 51.8148 15.064C51.8148 14.6267 51.6441 14.3013 51.3028 14.088C50.9721 13.864 50.4921 13.752 49.8628 13.752H47.2868V21.048Z" fill="#001837"/>
</svg>
