<svg width="99" height="35" viewBox="0 0 99 35" fill="none" xmlns="http://www.w3.org/2000/svg">
<path d="M0 0H89.0033L98.4718 17.0432L89.0033 34.0864H0L9.46844 17.0432L0 0Z" fill="#FDF300"/>
<path d="M50.8208 23.192C49.9568 23.192 49.1515 23.0533 48.4048 22.776C47.6688 22.488 47.0288 22.0827 46.4848 21.56C45.9408 21.0373 45.5141 20.424 45.2048 19.72C44.9061 19.016 44.7568 18.2427 44.7568 17.4C44.7568 16.5573 44.9061 15.784 45.2048 15.08C45.5141 14.376 45.9408 13.7627 46.4848 13.24C47.0395 12.7173 47.6848 12.3173 48.4208 12.04C49.1568 11.752 49.9621 11.608 50.8368 11.608C51.8075 11.608 52.6821 11.7787 53.4608 12.12C54.2501 12.4507 54.9115 12.9413 55.4448 13.592L53.7808 15.128C53.3968 14.6907 52.9701 14.3653 52.5008 14.152C52.0315 13.928 51.5195 13.816 50.9648 13.816C50.4421 13.816 49.9621 13.9013 49.5248 14.072C49.0875 14.2427 48.7088 14.488 48.3888 14.808C48.0688 15.128 47.8181 15.5067 47.6368 15.944C47.4661 16.3813 47.3808 16.8667 47.3808 17.4C47.3808 17.9333 47.4661 18.4187 47.6368 18.856C47.8181 19.2933 48.0688 19.672 48.3888 19.992C48.7088 20.312 49.0875 20.5573 49.5248 20.728C49.9621 20.8987 50.4421 20.984 50.9648 20.984C51.5195 20.984 52.0315 20.8773 52.5008 20.664C52.9701 20.44 53.3968 20.104 53.7808 19.656L55.4448 21.192C54.9115 21.8427 54.2501 22.3387 53.4608 22.68C52.6821 23.0213 51.8021 23.192 50.8208 23.192Z" fill="#001837"/>
</svg>
