<svg width="99" height="35" viewBox="0 0 99 35" fill="none" xmlns="http://www.w3.org/2000/svg">
<path d="M0 0H89.0033L98.4718 17.0432L89.0033 34.0864H0L9.46844 17.0432L0 0Z" fill="#FDD400"/>
<path d="M43.7186 23V11.8H48.8066C50.0226 11.8 51.0946 12.0347 52.0226 12.504C52.9506 12.9627 53.676 13.608 54.1986 14.44C54.7213 15.272 54.9826 16.2587 54.9826 17.4C54.9826 18.5307 54.7213 19.5173 54.1986 20.36C53.676 21.192 52.9506 21.8427 52.0226 22.312C51.0946 22.7707 50.0226 23 48.8066 23H43.7186ZM46.3106 20.872H48.6786C49.4253 20.872 50.0706 20.7333 50.6146 20.456C51.1693 20.168 51.596 19.7627 51.8946 19.24C52.204 18.7173 52.3586 18.104 52.3586 17.4C52.3586 16.6853 52.204 16.072 51.8946 15.56C51.596 15.0373 51.1693 14.6373 50.6146 14.36C50.0706 14.072 49.4253 13.928 48.6786 13.928H46.3106V20.872Z" fill="#001837"/>
</svg>
