<?xml version="1.0" encoding="UTF-8"?><svg id="Layer_1" xmlns="http://www.w3.org/2000/svg" viewBox="0 0 1116.49 34.09"><defs><style>.cls-1{fill:#fa9101;}.cls-2{fill:#00bd00;}.cls-3{fill:#001837;}.cls-4{fill:#fdd400;}.cls-5{fill:#fdf300;}.cls-6{fill:#d8db1a;}.cls-7{fill:#d62015;}.cls-8{fill:#9ade27;}</style></defs><path class="cls-4" d="M648.4,0h87.92l9.47,17.04-9.47,17.04h-87.92l9.47-17.04-9.47-17.04Z"/><path class="cls-1" d="M555.74,0h87.92l9.47,17.04-9.47,17.04h-87.92l9.47-17.04-9.47-17.04Z"/><path class="cls-7" d="M0,0H551.01l9.47,17.04-9.47,17.04H0L9.47,17.04,0,0Z"/><path class="cls-5" d="M741.05,0h87.92l9.47,17.04-9.47,17.04h-87.92l9.47-17.04-9.47-17.04Z"/><path class="cls-6" d="M833.7,0h88.02l9.47,17.04-9.47,17.04h-88.02l9.47-17.04-9.47-17.04Z"/><path class="cls-8" d="M926.35,0h88.02l9.47,17.04-9.47,17.04h-88.02l9.47-17.04-9.47-17.04Z"/><path class="cls-2" d="M1018.97,0h88.05l9.47,17.04-9.47,17.04h-88.05l9.47-17.04-9.47-17.04Z"/><path class="cls-3" d="M602.48,15.96h5.39v2.02h-5.39v-2.02Zm.19,4.61h6.1v2.08h-8.67V11.44h8.46v2.08h-5.89v7.04Z"/><path class="cls-3" d="M691.46,22.64V11.44h5.09c1.22,0,2.29,.24,3.22,.7,.93,.46,1.65,1.1,2.18,1.94,.52,.83,.78,1.82,.78,2.96s-.26,2.12-.78,2.96c-.52,.83-1.25,1.48-2.18,1.95-.93,.46-2,.69-3.22,.69h-5.09Zm2.59-2.13h2.37c.75,0,1.39-.14,1.94-.42,.55-.29,.98-.69,1.28-1.22,.31-.52,.46-1.14,.46-1.84s-.15-1.33-.46-1.84c-.3-.52-.73-.92-1.28-1.2-.54-.29-1.19-.43-1.94-.43h-2.37v6.94Z"/><path class="cls-3" d="M790.46,22.83c-.86,0-1.67-.14-2.42-.42-.74-.29-1.38-.69-1.92-1.22s-.97-1.14-1.28-1.84c-.3-.7-.45-1.48-.45-2.32s.15-1.62,.45-2.32c.31-.7,.74-1.32,1.28-1.84,.55-.52,1.2-.92,1.94-1.2,.74-.29,1.54-.43,2.42-.43,.97,0,1.84,.17,2.62,.51,.79,.33,1.45,.82,1.98,1.47l-1.66,1.54c-.38-.44-.81-.76-1.28-.98-.47-.22-.98-.34-1.54-.34-.52,0-1,.08-1.44,.26-.44,.17-.82,.42-1.14,.74-.32,.32-.57,.7-.75,1.14-.17,.44-.26,.92-.26,1.46s.08,1.02,.26,1.46c.18,.44,.43,.82,.75,1.14s.7,.57,1.14,.74c.44,.17,.92,.26,1.44,.26,.55,0,1.07-.11,1.54-.32,.47-.22,.9-.56,1.28-1.01l1.66,1.54c-.53,.65-1.2,1.15-1.98,1.49-.78,.34-1.66,.51-2.64,.51Z"/><path class="cls-3" d="M877.31,22.64V11.44h5.47c1.41,0,2.46,.27,3.17,.8,.71,.53,1.07,1.24,1.07,2.11,0,.59-.14,1.1-.43,1.54-.29,.43-.68,.76-1.18,.99-.5,.24-1.08,.35-1.73,.35l.3-.66c.7,0,1.33,.12,1.87,.35,.54,.22,.97,.56,1.26,1.01,.31,.45,.46,1,.46,1.65,0,.96-.38,1.71-1.14,2.26-.76,.53-1.87,.8-3.34,.8h-5.79Zm2.58-1.95h3.02c.67,0,1.18-.11,1.52-.32,.35-.22,.53-.58,.53-1.06s-.18-.82-.53-1.04c-.34-.23-.85-.35-1.52-.35h-3.22v-1.89h2.77c.63,0,1.11-.11,1.44-.32,.34-.22,.51-.56,.51-1.01s-.17-.76-.51-.98c-.33-.22-.81-.34-1.44-.34h-2.58v7.3Z"/><path class="cls-3" d="M968.82,22.64l4.99-11.2h2.56l5.01,11.2h-2.72l-4.1-9.89h1.02l-4.11,9.89h-2.66Zm2.5-2.4l.69-1.97h5.76l.71,1.97h-7.16Z"/><g><path class="cls-3" d="M1078.64,16.04v2h-3.54v3.5h-2.14v-3.5h-3.54v-2h3.54v-3.5h2.14v3.5h3.54Z"/><path class="cls-3" d="M1064.38,11.44h-2.56l-4.99,11.2h2.65l1-2.4h5.19l1,2.4h2.72l-5.01-11.2Zm-3.09,6.84l1.79-4.29,1.78,4.29h-3.57Z"/></g><path class="cls-3" d="M278.41,16.48h5.38v2.08h-5.38v-2.08Zm.19,6.16h-2.59V11.44h8.46v2.08h-5.87v9.12Z"/></svg>